<svg width="97" height="122" viewBox="0 0 97 122" fill="none" xmlns="http://www.w3.org/2000/svg">
<path d="M6.75903 35.0545V0.174316H8.94265V0.809762H7.4638V34.419H8.94265V35.0545H6.75903Z" fill="#F5F5F5"/>
<path d="M50.1526 35.0545V0.174316H47.969V0.809762H49.4478V34.419H47.969V35.0545H50.1526Z" fill="#F5F5F5"/>
<path d="M11.7668 28.6281C11.7668 28.1333 11.7978 27.6694 11.8596 27.2365C11.9247 26.8035 12.0419 26.4275 12.2112 26.1085C12.3837 25.7863 12.6197 25.534 12.9192 25.3517C13.2187 25.1694 13.6044 25.0782 14.0764 25.0782C14.5484 25.0782 14.9342 25.1694 15.2336 25.3517C15.5364 25.534 15.7724 25.7863 15.9417 26.1085C16.1142 26.4275 16.2314 26.8035 16.2932 27.2365C16.3551 27.6694 16.386 28.1333 16.386 28.6281C16.386 29.1228 16.3551 29.5867 16.2932 30.0197C16.2314 30.4493 16.1142 30.8253 15.9417 31.1476C15.7724 31.4666 15.538 31.7189 15.2385 31.9044C14.939 32.0867 14.5517 32.1779 14.0764 32.1779C13.6044 32.1779 13.2187 32.0867 12.9192 31.9044C12.6197 31.7189 12.3837 31.4666 12.2112 31.1476C12.0419 30.8253 11.9247 30.4477 11.8596 30.0148C11.7978 29.5818 11.7668 29.1196 11.7668 28.6281ZM12.5188 29.9562C12.5188 30.4575 12.6588 30.8546 12.9387 31.1476C13.2187 31.4406 13.5979 31.587 14.0764 31.587C14.5549 31.587 14.9342 31.4406 15.2141 31.1476C15.4973 30.8546 15.6389 30.4575 15.6389 29.9562V27.295C15.6389 26.7937 15.4989 26.3966 15.219 26.1036C14.939 25.8107 14.5582 25.6642 14.0764 25.6642C13.5979 25.6642 13.2187 25.8123 12.9387 26.1085C12.6588 26.4015 12.5188 26.797 12.5188 27.295V29.9562Z" fill="#F5F5F5"/>
<path d="M26.144 28.6281C26.144 28.1333 26.175 27.6694 26.2368 27.2365C26.3019 26.8035 26.4191 26.4275 26.5884 26.1085C26.7609 25.7863 26.9969 25.534 27.2964 25.3517C27.5959 25.1694 27.9816 25.0782 28.4536 25.0782C28.9256 25.0782 29.3114 25.1694 29.6108 25.3517C29.9136 25.534 30.1496 25.7863 30.3188 26.1085C30.4914 26.4275 30.6086 26.8035 30.6704 27.2365C30.7323 27.6694 30.7632 28.1333 30.7632 28.6281C30.7632 29.1228 30.7323 29.5867 30.6704 30.0197C30.6086 30.4493 30.4914 30.8253 30.3188 31.1476C30.1496 31.4666 29.9152 31.7189 29.6157 31.9044C29.3162 32.0867 28.9289 32.1779 28.4536 32.1779C27.9816 32.1779 27.5959 32.0867 27.2964 31.9044C26.9969 31.7189 26.7609 31.4666 26.5884 31.1476C26.4191 30.8253 26.3019 30.4477 26.2368 30.0148C26.175 29.5818 26.144 29.1196 26.144 28.6281ZM26.896 29.9562C26.896 30.4575 27.036 30.8546 27.3159 31.1476C27.5959 31.4406 27.9751 31.587 28.4536 31.587C28.9321 31.587 29.3114 31.4406 29.5913 31.1476C29.8745 30.8546 30.0161 30.4575 30.0161 29.9562V27.295C30.0161 26.7937 29.8761 26.3966 29.5962 26.1036C29.3162 25.8107 28.9354 25.6642 28.4536 25.6642C27.9751 25.6642 27.5959 25.8123 27.3159 26.1085C27.036 26.4015 26.896 26.797 26.896 27.295V29.9562Z" fill="#F5F5F5"/>
<path d="M80.7267 32.2023V15.8781H82.4025V30.6437H89.797V32.2023H80.7267Z" fill="#F5F5F5"/>
<path d="M41.0537 32.0265V31.4357H42.8018V26.6163H41.0537V26.0255H42.8018V25.2247H43.4512V31.4357H45.0039V32.0265H41.0537Z" fill="#F5F5F5"/>
<path d="M12.2991 21.1144V20.5236H14.0471V15.7042H12.2991V15.1134H14.0471V14.3126H14.6965V20.5236H16.2493V21.1144H12.2991Z" fill="#F5F5F5"/>
<path d="M26.144 17.7159C26.144 17.2212 26.175 16.7573 26.2368 16.3243C26.3019 15.8914 26.4191 15.5154 26.5884 15.1964C26.7609 14.8741 26.9969 14.6219 27.2964 14.4396C27.5959 14.2573 27.9816 14.1661 28.4536 14.1661C28.9256 14.1661 29.3114 14.2573 29.6108 14.4396C29.9136 14.6219 30.1496 14.8741 30.3188 15.1964C30.4914 15.5154 30.6086 15.8914 30.6704 16.3243C30.7323 16.7573 30.7632 17.2212 30.7632 17.7159C30.7632 18.2107 30.7323 18.6746 30.6704 19.1075C30.6086 19.5372 30.4914 19.9132 30.3188 20.2355C30.1496 20.5545 29.9152 20.8068 29.6157 20.9923C29.3162 21.1746 28.9289 21.2657 28.4536 21.2657C27.9816 21.2657 27.5959 21.1746 27.2964 20.9923C26.9969 20.8068 26.7609 20.5545 26.5884 20.2355C26.4191 19.9132 26.3019 19.5356 26.2368 19.1027C26.175 18.6697 26.144 18.2075 26.144 17.7159ZM26.896 19.0441C26.896 19.5454 27.036 19.9425 27.3159 20.2355C27.5959 20.5284 27.9751 20.6749 28.4536 20.6749C28.9321 20.6749 29.3114 20.5284 29.5913 20.2355C29.8745 19.9425 30.0161 19.5454 30.0161 19.0441V16.3829C30.0161 15.8816 29.8761 15.4845 29.5962 15.1915C29.3162 14.8986 28.9354 14.7521 28.4536 14.7521C27.9751 14.7521 27.5959 14.9002 27.3159 15.1964C27.036 15.4894 26.896 15.8849 26.896 16.3829V19.0441Z" fill="#F5F5F5"/>
<path d="M40.5215 17.7159C40.5215 17.2212 40.5524 16.7573 40.6143 16.3243C40.6794 15.8914 40.7965 15.5154 40.9658 15.1964C41.1383 14.8741 41.3743 14.6219 41.6738 14.4396C41.9733 14.2573 42.359 14.1661 42.8311 14.1661C43.3031 14.1661 43.6888 14.2573 43.9883 14.4396C44.291 14.6219 44.527 14.8741 44.6963 15.1964C44.8688 15.5154 44.986 15.8914 45.0479 16.3243C45.1097 16.7573 45.1406 17.2212 45.1406 17.7159C45.1406 18.2107 45.1097 18.6746 45.0479 19.1075C44.986 19.5372 44.8688 19.9132 44.6963 20.2355C44.527 20.5545 44.2926 20.8068 43.9932 20.9923C43.6937 21.1746 43.3063 21.2657 42.8311 21.2657C42.359 21.2657 41.9733 21.1746 41.6738 20.9923C41.3743 20.8068 41.1383 20.5545 40.9658 20.2355C40.7965 19.9132 40.6794 19.5356 40.6143 19.1027C40.5524 18.6697 40.5215 18.2075 40.5215 17.7159ZM41.2734 19.0441C41.2734 19.5454 41.4134 19.9425 41.6934 20.2355C41.9733 20.5284 42.3525 20.6749 42.8311 20.6749C43.3096 20.6749 43.6888 20.5284 43.9688 20.2355C44.252 19.9425 44.3936 19.5454 44.3936 19.0441V16.3829C44.3936 15.8816 44.2536 15.4845 43.9736 15.1915C43.6937 14.8986 43.3128 14.7521 42.8311 14.7521C42.3525 14.7521 41.9733 14.9002 41.6934 15.1964C41.4134 15.4894 41.2734 15.8849 41.2734 16.3829V19.0441Z" fill="#F5F5F5"/>
<path d="M12.2991 10.2023V9.61145H14.0471V4.79211H12.2991V4.20129H14.0471V3.40051H14.6965V9.61145H16.2493V10.2023H12.2991Z" fill="#F5F5F5"/>
<path d="M26.144 6.80383C26.144 6.30904 26.175 5.84517 26.2368 5.41223C26.3019 4.97929 26.4191 4.60331 26.5884 4.2843C26.7609 3.96204 26.9969 3.70976 27.2964 3.52747C27.5959 3.34517 27.9816 3.25403 28.4536 3.25403C28.9256 3.25403 29.3114 3.34517 29.6108 3.52747C29.9136 3.70976 30.1496 3.96204 30.3188 4.2843C30.4914 4.60331 30.6086 4.97929 30.6704 5.41223C30.7323 5.84517 30.7632 6.30904 30.7632 6.80383C30.7632 7.29862 30.7323 7.76249 30.6704 8.19543C30.6086 8.62512 30.4914 9.0011 30.3188 9.32336C30.1496 9.64237 29.9152 9.89465 29.6157 10.0802C29.3162 10.2625 28.9289 10.3536 28.4536 10.3536C27.9816 10.3536 27.5959 10.2625 27.2964 10.0802C26.9969 9.89465 26.7609 9.64237 26.5884 9.32336C26.4191 9.0011 26.3019 8.62349 26.2368 8.19055C26.175 7.75761 26.144 7.29537 26.144 6.80383ZM26.896 8.13196C26.896 8.63326 27.036 9.0304 27.3159 9.32336C27.5959 9.61633 27.9751 9.76282 28.4536 9.76282C28.9321 9.76282 29.3114 9.61633 29.5913 9.32336C29.8745 9.0304 30.0161 8.63326 30.0161 8.13196V5.47083C30.0161 4.96952 29.8761 4.57239 29.5962 4.27942C29.3162 3.98645 28.9354 3.83997 28.4536 3.83997C27.9751 3.83997 27.5959 3.98808 27.3159 4.2843C27.036 4.57727 26.896 4.97278 26.896 5.47083V8.13196Z" fill="#F5F5F5"/>
<path d="M40.5215 6.80383C40.5215 6.30904 40.5524 5.84517 40.6143 5.41223C40.6794 4.97929 40.7965 4.60331 40.9658 4.2843C41.1383 3.96204 41.3743 3.70976 41.6738 3.52747C41.9733 3.34517 42.359 3.25403 42.8311 3.25403C43.3031 3.25403 43.6888 3.34517 43.9883 3.52747C44.291 3.70976 44.527 3.96204 44.6963 4.2843C44.8688 4.60331 44.986 4.97929 45.0479 5.41223C45.1097 5.84517 45.1406 6.30904 45.1406 6.80383C45.1406 7.29862 45.1097 7.76249 45.0479 8.19543C44.986 8.62512 44.8688 9.0011 44.6963 9.32336C44.527 9.64237 44.2926 9.89465 43.9932 10.0802C43.6937 10.2625 43.3063 10.3536 42.8311 10.3536C42.359 10.3536 41.9733 10.2625 41.6738 10.0802C41.3743 9.89465 41.1383 9.64237 40.9658 9.32336C40.7965 9.0011 40.6794 8.62349 40.6143 8.19055C40.5524 7.75761 40.5215 7.29537 40.5215 6.80383ZM41.2734 8.13196C41.2734 8.63326 41.4134 9.0304 41.6934 9.32336C41.9733 9.61633 42.3525 9.76282 42.8311 9.76282C43.3096 9.76282 43.6888 9.61633 43.9688 9.32336C44.252 9.0304 44.3936 8.63326 44.3936 8.13196V5.47083C44.3936 4.96952 44.2536 4.57239 43.9736 4.27942C43.6937 3.98645 43.3128 3.83997 42.8311 3.83997C42.3525 3.83997 41.9733 3.98808 41.6934 4.2843C41.4134 4.57727 41.2734 4.97278 41.2734 5.47083V8.13196Z" fill="#F5F5F5"/>
<path d="M1.0459 0.174316V121.742" stroke="#F5F5F5" stroke-width="0.75"/>
<path d="M96.0142 0.174316V121.742" stroke="#F5F5F5" stroke-width="0.75"/>
<rect x="18.5303" y="61.7416" width="20" height="20" fill="#F5F5F5"/>
<rect x="18.5303" y="81.7416" width="20" height="20" fill="#F5F5F5"/>
<rect x="58.5303" y="101.742" width="20" height="20" fill="#F5F5F5"/>
</svg>
