<svg width="97" height="122" viewBox="0 0 97 122" fill="none" xmlns="http://www.w3.org/2000/svg">
<path d="M6.72729 35.2781V0.397949H8.91092V1.03339H7.43206V34.6427H8.91092V35.2781H6.72729Z" fill="#F5F5F5"/>
<path d="M50.1208 35.2781V0.397949H47.9372V1.03339H49.4161V34.6427H47.9372V35.2781H50.1208Z" fill="#F5F5F5"/>
<path d="M11.7351 28.8517C11.7351 28.3569 11.766 27.893 11.8279 27.4601C11.893 27.0271 12.0102 26.6512 12.1794 26.3322C12.352 26.0099 12.588 25.7576 12.8875 25.5753C13.1869 25.393 13.5727 25.3019 14.0447 25.3019C14.5167 25.3019 14.9024 25.393 15.2019 25.5753C15.5046 25.7576 15.7406 26.0099 15.9099 26.3322C16.0824 26.6512 16.1996 27.0271 16.2615 27.4601C16.3233 27.893 16.3542 28.3569 16.3542 28.8517C16.3542 29.3465 16.3233 29.8103 16.2615 30.2433C16.1996 30.673 16.0824 31.049 15.9099 31.3712C15.7406 31.6902 15.5063 31.9425 15.2068 32.1281C14.9073 32.3103 14.5199 32.4015 14.0447 32.4015C13.5727 32.4015 13.1869 32.3103 12.8875 32.1281C12.588 31.9425 12.352 31.6902 12.1794 31.3712C12.0102 31.049 11.893 30.6713 11.8279 30.2384C11.766 29.8055 11.7351 29.3432 11.7351 28.8517ZM12.4871 30.1798C12.4871 30.6811 12.627 31.0782 12.907 31.3712C13.1869 31.6642 13.5662 31.8107 14.0447 31.8107C14.5232 31.8107 14.9024 31.6642 15.1824 31.3712C15.4656 31.0782 15.6072 30.6811 15.6072 30.1798V27.5187C15.6072 27.0174 15.4672 26.6202 15.1873 26.3273C14.9073 26.0343 14.5264 25.8878 14.0447 25.8878C13.5662 25.8878 13.1869 26.0359 12.907 26.3322C12.627 26.6251 12.4871 27.0206 12.4871 27.5187V30.1798Z" fill="#F5F5F5"/>
<path d="M26.6445 32.2501V31.6593H28.3926V26.84H26.6445V26.2491H28.3926V25.4484H29.042V31.6593H30.5947V32.2501H26.6445Z" fill="#F5F5F5"/>
<path d="M76.6051 16.1017H78.4098L82.8395 30.5509H82.9449L87.4801 16.1017H89.2496L83.9762 32.4259H81.8668L76.6051 16.1017Z" fill="#F5F5F5"/>
<path d="M40.4897 28.8517C40.4897 28.3569 40.5207 27.893 40.5825 27.4601C40.6476 27.0271 40.7648 26.6512 40.9341 26.3322C41.1066 26.0099 41.3426 25.7576 41.6421 25.5753C41.9416 25.393 42.3273 25.3019 42.7993 25.3019C43.2713 25.3019 43.6571 25.393 43.9565 25.5753C44.2593 25.7576 44.4953 26.0099 44.6646 26.3322C44.8371 26.6512 44.9543 27.0271 45.0161 27.4601C45.078 27.893 45.1089 28.3569 45.1089 28.8517C45.1089 29.3465 45.078 29.8103 45.0161 30.2433C44.9543 30.673 44.8371 31.049 44.6646 31.3712C44.4953 31.6902 44.2609 31.9425 43.9614 32.1281C43.6619 32.3103 43.2746 32.4015 42.7993 32.4015C42.3273 32.4015 41.9416 32.3103 41.6421 32.1281C41.3426 31.9425 41.1066 31.6902 40.9341 31.3712C40.7648 31.049 40.6476 30.6713 40.5825 30.2384C40.5207 29.8055 40.4897 29.3432 40.4897 28.8517ZM41.2417 30.1798C41.2417 30.6811 41.3817 31.0782 41.6616 31.3712C41.9416 31.6642 42.3208 31.8107 42.7993 31.8107C43.2778 31.8107 43.6571 31.6642 43.937 31.3712C44.2202 31.0782 44.3618 30.6811 44.3618 30.1798V27.5187C44.3618 27.0174 44.2218 26.6202 43.9419 26.3273C43.6619 26.0343 43.2811 25.8878 42.7993 25.8878C42.3208 25.8878 41.9416 26.0359 41.6616 26.3322C41.3817 26.6251 41.2417 27.0206 41.2417 27.5187V30.1798Z" fill="#F5F5F5"/>
<path d="M11.7351 17.9396C11.7351 17.4448 11.766 16.9809 11.8279 16.548C11.893 16.115 12.0102 15.7391 12.1794 15.42C12.352 15.0978 12.588 14.8455 12.8875 14.6632C13.1869 14.4809 13.5727 14.3898 14.0447 14.3898C14.5167 14.3898 14.9024 14.4809 15.2019 14.6632C15.5046 14.8455 15.7406 15.0978 15.9099 15.42C16.0824 15.7391 16.1996 16.115 16.2615 16.548C16.3233 16.9809 16.3542 17.4448 16.3542 17.9396C16.3542 18.4344 16.3233 18.8982 16.2615 19.3312C16.1996 19.7609 16.0824 20.1368 15.9099 20.4591C15.7406 20.7781 15.5063 21.0304 15.2068 21.2159C14.9073 21.3982 14.5199 21.4894 14.0447 21.4894C13.5727 21.4894 13.1869 21.3982 12.8875 21.2159C12.588 21.0304 12.352 20.7781 12.1794 20.4591C12.0102 20.1368 11.893 19.7592 11.8279 19.3263C11.766 18.8934 11.7351 18.4311 11.7351 17.9396ZM12.4871 19.2677C12.4871 19.769 12.627 20.1661 12.907 20.4591C13.1869 20.7521 13.5662 20.8986 14.0447 20.8986C14.5232 20.8986 14.9024 20.7521 15.1824 20.4591C15.4656 20.1661 15.6072 19.769 15.6072 19.2677V16.6066C15.6072 16.1053 15.4672 15.7081 15.1873 15.4152C14.9073 15.1222 14.5264 14.9757 14.0447 14.9757C13.5662 14.9757 13.1869 15.1238 12.907 15.42C12.627 15.713 12.4871 16.1085 12.4871 16.6066V19.2677Z" fill="#F5F5F5"/>
<path d="M26.1123 17.9396C26.1123 17.4448 26.1432 16.9809 26.2051 16.548C26.2702 16.115 26.3874 15.7391 26.5566 15.42C26.7292 15.0978 26.9652 14.8455 27.2646 14.6632C27.5641 14.4809 27.9499 14.3898 28.4219 14.3898C28.8939 14.3898 29.2796 14.4809 29.5791 14.6632C29.8818 14.8455 30.1178 15.0978 30.2871 15.42C30.4596 15.7391 30.5768 16.115 30.6387 16.548C30.7005 16.9809 30.7314 17.4448 30.7314 17.9396C30.7314 18.4344 30.7005 18.8982 30.6387 19.3312C30.5768 19.7609 30.4596 20.1368 30.2871 20.4591C30.1178 20.7781 29.8835 21.0304 29.584 21.2159C29.2845 21.3982 28.8971 21.4894 28.4219 21.4894C27.9499 21.4894 27.5641 21.3982 27.2646 21.2159C26.9652 21.0304 26.7292 20.7781 26.5566 20.4591C26.3874 20.1368 26.2702 19.7592 26.2051 19.3263C26.1432 18.8934 26.1123 18.4311 26.1123 17.9396ZM26.8643 19.2677C26.8643 19.769 27.0042 20.1661 27.2842 20.4591C27.5641 20.7521 27.9434 20.8986 28.4219 20.8986C28.9004 20.8986 29.2796 20.7521 29.5596 20.4591C29.8428 20.1661 29.9844 19.769 29.9844 19.2677V16.6066C29.9844 16.1053 29.8444 15.7081 29.5645 15.4152C29.2845 15.1222 28.9036 14.9757 28.4219 14.9757C27.9434 14.9757 27.5641 15.1238 27.2842 15.42C27.0042 15.713 26.8643 16.1085 26.8643 16.6066V19.2677Z" fill="#F5F5F5"/>
<path d="M40.4897 17.9396C40.4897 17.4448 40.5207 16.9809 40.5825 16.548C40.6476 16.115 40.7648 15.7391 40.9341 15.42C41.1066 15.0978 41.3426 14.8455 41.6421 14.6632C41.9416 14.4809 42.3273 14.3898 42.7993 14.3898C43.2713 14.3898 43.6571 14.4809 43.9565 14.6632C44.2593 14.8455 44.4953 15.0978 44.6646 15.42C44.8371 15.7391 44.9543 16.115 45.0161 16.548C45.078 16.9809 45.1089 17.4448 45.1089 17.9396C45.1089 18.4344 45.078 18.8982 45.0161 19.3312C44.9543 19.7609 44.8371 20.1368 44.6646 20.4591C44.4953 20.7781 44.2609 21.0304 43.9614 21.2159C43.6619 21.3982 43.2746 21.4894 42.7993 21.4894C42.3273 21.4894 41.9416 21.3982 41.6421 21.2159C41.3426 21.0304 41.1066 20.7781 40.9341 20.4591C40.7648 20.1368 40.6476 19.7592 40.5825 19.3263C40.5207 18.8934 40.4897 18.4311 40.4897 17.9396ZM41.2417 19.2677C41.2417 19.769 41.3817 20.1661 41.6616 20.4591C41.9416 20.7521 42.3208 20.8986 42.7993 20.8986C43.2778 20.8986 43.6571 20.7521 43.937 20.4591C44.2202 20.1661 44.3618 19.769 44.3618 19.2677V16.6066C44.3618 16.1053 44.2218 15.7081 43.9419 15.4152C43.6619 15.1222 43.2811 14.9757 42.7993 14.9757C42.3208 14.9757 41.9416 15.1238 41.6616 15.42C41.3817 15.713 41.2417 16.1085 41.2417 16.6066V19.2677Z" fill="#F5F5F5"/>
<path d="M11.7351 7.02747C11.7351 6.53267 11.766 6.06881 11.8279 5.63586C11.893 5.20292 12.0102 4.82694 12.1794 4.50793C12.352 4.18567 12.588 3.93339 12.8875 3.7511C13.1869 3.56881 13.5727 3.47766 14.0447 3.47766C14.5167 3.47766 14.9024 3.56881 15.2019 3.7511C15.5046 3.93339 15.7406 4.18567 15.9099 4.50793C16.0824 4.82694 16.1996 5.20292 16.2615 5.63586C16.3233 6.06881 16.3542 6.53267 16.3542 7.02747C16.3542 7.52226 16.3233 7.98612 16.2615 8.41907C16.1996 8.84875 16.0824 9.22473 15.9099 9.547C15.7406 9.86601 15.5063 10.1183 15.2068 10.3038C14.9073 10.4861 14.5199 10.5773 14.0447 10.5773C13.5727 10.5773 13.1869 10.4861 12.8875 10.3038C12.588 10.1183 12.352 9.86601 12.1794 9.547C12.0102 9.22473 11.893 8.84713 11.8279 8.41418C11.766 7.98124 11.7351 7.519 11.7351 7.02747ZM12.4871 8.35559C12.4871 8.85689 12.627 9.25403 12.907 9.547C13.1869 9.83997 13.5662 9.98645 14.0447 9.98645C14.5232 9.98645 14.9024 9.83997 15.1824 9.547C15.4656 9.25403 15.6072 8.85689 15.6072 8.35559V5.69446C15.6072 5.19316 15.4672 4.79602 15.1873 4.50305C14.9073 4.21008 14.5264 4.0636 14.0447 4.0636C13.5662 4.0636 13.1869 4.21171 12.907 4.50793C12.627 4.8009 12.4871 5.19641 12.4871 5.69446V8.35559Z" fill="#F5F5F5"/>
<path d="M26.6445 10.4259V9.83508H28.3926V5.01575H26.6445V4.42493H28.3926V3.62415H29.042V9.83508H30.5947V10.4259H26.6445Z" fill="#F5F5F5"/>
<path d="M40.4897 7.02747C40.4897 6.53267 40.5207 6.06881 40.5825 5.63586C40.6476 5.20292 40.7648 4.82694 40.9341 4.50793C41.1066 4.18567 41.3426 3.93339 41.6421 3.7511C41.9416 3.56881 42.3273 3.47766 42.7993 3.47766C43.2713 3.47766 43.6571 3.56881 43.9565 3.7511C44.2593 3.93339 44.4953 4.18567 44.6646 4.50793C44.8371 4.82694 44.9543 5.20292 45.0161 5.63586C45.078 6.06881 45.1089 6.53267 45.1089 7.02747C45.1089 7.52226 45.078 7.98612 45.0161 8.41907C44.9543 8.84875 44.8371 9.22473 44.6646 9.547C44.4953 9.86601 44.2609 10.1183 43.9614 10.3038C43.6619 10.4861 43.2746 10.5773 42.7993 10.5773C42.3273 10.5773 41.9416 10.4861 41.6421 10.3038C41.3426 10.1183 41.1066 9.86601 40.9341 9.547C40.7648 9.22473 40.6476 8.84713 40.5825 8.41418C40.5207 7.98124 40.4897 7.519 40.4897 7.02747ZM41.2417 8.35559C41.2417 8.85689 41.3817 9.25403 41.6616 9.547C41.9416 9.83997 42.3208 9.98645 42.7993 9.98645C43.2778 9.98645 43.6571 9.83997 43.937 9.547C44.2202 9.25403 44.3618 8.85689 44.3618 8.35559V5.69446C44.3618 5.19316 44.2218 4.79602 43.9419 4.50305C43.6619 4.21008 43.2811 4.0636 42.7993 4.0636C42.3208 4.0636 41.9416 4.21171 41.6616 4.50793C41.3817 4.8009 41.2417 5.19641 41.2417 5.69446V8.35559Z" fill="#F5F5F5"/>
<path d="M1.01416 0.397949V121.965" stroke="#F5F5F5" stroke-width="0.75"/>
<path d="M95.9824 0.397949V121.965" stroke="#F5F5F5" stroke-width="0.75"/>
<rect x="38.4988" y="101.965" width="20" height="20" fill="#F5F5F5"/>
<rect x="38.4988" y="61.9652" width="20" height="20" fill="#F5F5F5"/>
</svg>
