<svg width="97" height="123" viewBox="0 0 97 123" fill="none" xmlns="http://www.w3.org/2000/svg">
<path d="M6.75903 35.4319V0.551758H8.94265V1.1872H7.4638V34.7965H8.94265V35.4319H6.75903Z" fill="#F5F5F5"/>
<path d="M50.1526 35.4319V0.551758H47.969V1.1872H49.4478V34.7965H47.969V35.4319H50.1526Z" fill="#F5F5F5"/>
<path d="M12.2991 32.4039V31.8131H14.0471V26.9938H12.2991V26.403H14.0471V25.6022H14.6965V31.8131H16.2493V32.4039H12.2991Z" fill="#F5F5F5"/>
<path d="M26.144 29.0055C26.144 28.5107 26.175 28.0468 26.2368 27.6139C26.3019 27.1809 26.4191 26.805 26.5884 26.486C26.7609 26.1637 26.9969 25.9114 27.2964 25.7291C27.5959 25.5468 27.9816 25.4557 28.4536 25.4557C28.9256 25.4557 29.3114 25.5468 29.6108 25.7291C29.9136 25.9114 30.1496 26.1637 30.3188 26.486C30.4914 26.805 30.6086 27.1809 30.6704 27.6139C30.7323 28.0468 30.7632 28.5107 30.7632 29.0055C30.7632 29.5003 30.7323 29.9642 30.6704 30.3971C30.6086 30.8268 30.4914 31.2028 30.3188 31.525C30.1496 31.844 29.9152 32.0963 29.6157 32.2819C29.3162 32.4642 28.9289 32.5553 28.4536 32.5553C27.9816 32.5553 27.5959 32.4642 27.2964 32.2819C26.9969 32.0963 26.7609 31.844 26.5884 31.525C26.4191 31.2028 26.3019 30.8252 26.2368 30.3922C26.175 29.9593 26.144 29.497 26.144 29.0055ZM26.896 30.3336C26.896 30.8349 27.036 31.2321 27.3159 31.525C27.5959 31.818 27.9751 31.9645 28.4536 31.9645C28.9321 31.9645 29.3114 31.818 29.5913 31.525C29.8745 31.2321 30.0161 30.8349 30.0161 30.3336V27.6725C30.0161 27.1712 29.8761 26.774 29.5962 26.4811C29.3162 26.1881 28.9354 26.0416 28.4536 26.0416C27.9751 26.0416 27.5959 26.1897 27.3159 26.486C27.036 26.7789 26.896 27.1744 26.896 27.6725V30.3336Z" fill="#F5F5F5"/>
<path d="M77.5392 27.9508H79.1447C79.1603 28.5446 79.2697 29.0641 79.4728 29.5094C79.6759 29.9547 79.9532 30.3297 80.3048 30.6344C80.6564 30.9391 81.0626 31.1696 81.5236 31.3258C81.9923 31.4742 82.4884 31.5485 83.0118 31.5485C83.5743 31.5485 84.0822 31.4703 84.5353 31.3141C84.9962 31.15 85.3907 30.9313 85.7189 30.6578C86.047 30.3844 86.297 30.068 86.4689 29.7086C86.6486 29.3492 86.7384 28.9703 86.7384 28.5719V26.8492C86.7384 26.3024 86.547 25.8453 86.1642 25.4781C85.7892 25.111 85.2657 24.9274 84.5939 24.9274H80.8556V23.5094H84.4298C85.1017 23.5094 85.6017 23.3258 85.9298 22.9586C86.2579 22.5914 86.422 22.1344 86.422 21.5875V20.0289C86.422 19.2321 86.1329 18.5758 85.5548 18.0602C84.9845 17.5446 84.1681 17.2867 83.1056 17.2867C81.9728 17.2867 81.1017 17.5836 80.4923 18.1774C79.8829 18.7711 79.5626 19.525 79.5314 20.4391H77.9259C77.9415 19.8453 78.0626 19.275 78.2892 18.7281C78.5236 18.1735 78.8595 17.6891 79.297 17.275C79.7423 16.8531 80.2853 16.5211 80.9259 16.2789C81.5665 16.0289 82.2931 15.9039 83.1056 15.9039C83.8868 15.9039 84.59 16.0172 85.215 16.2438C85.84 16.4625 86.3712 16.7672 86.8087 17.1578C87.254 17.5485 87.5939 18.0211 87.8282 18.5758C88.0626 19.1305 88.1798 19.7281 88.1798 20.3688C88.1798 21.361 87.9923 22.1461 87.6173 22.7242C87.2501 23.2946 86.7306 23.7711 86.0587 24.1539C86.8556 24.5211 87.4572 25.0211 87.8634 25.6539C88.2775 26.2867 88.4845 27.1149 88.4845 28.1383C88.4845 28.8571 88.3517 29.5133 88.0861 30.1071C87.8282 30.7008 87.4572 31.2086 86.9728 31.6305C86.4962 32.0524 85.922 32.3766 85.2501 32.6031C84.5782 32.8297 83.8322 32.943 83.0118 32.943C82.2618 32.943 81.5587 32.8375 80.9025 32.6266C80.2462 32.4156 79.6681 32.1031 79.1681 31.6891C78.6759 31.275 78.2853 30.7555 77.9962 30.1305C77.7072 29.5055 77.5548 28.7789 77.5392 27.9508Z" fill="#F5F5F5"/>
<path d="M41.0537 32.4039V31.8131H42.8018V26.9938H41.0537V26.403H42.8018V25.6022H43.4512V31.8131H45.0039V32.4039H41.0537Z" fill="#F5F5F5"/>
<path d="M11.7668 18.0934C11.7668 17.5986 11.7978 17.1347 11.8596 16.7018C11.9247 16.2688 12.0419 15.8929 12.2112 15.5739C12.3837 15.2516 12.6197 14.9993 12.9192 14.817C13.2187 14.6347 13.6044 14.5436 14.0764 14.5436C14.5484 14.5436 14.9342 14.6347 15.2336 14.817C15.5364 14.9993 15.7724 15.2516 15.9417 15.5739C16.1142 15.8929 16.2314 16.2688 16.2932 16.7018C16.3551 17.1347 16.386 17.5986 16.386 18.0934C16.386 18.5882 16.3551 19.052 16.2932 19.485C16.2314 19.9147 16.1142 20.2906 15.9417 20.6129C15.7724 20.9319 15.538 21.1842 15.2385 21.3698C14.939 21.552 14.5517 21.6432 14.0764 21.6432C13.6044 21.6432 13.2187 21.552 12.9192 21.3698C12.6197 21.1842 12.3837 20.9319 12.2112 20.6129C12.0419 20.2906 11.9247 19.913 11.8596 19.4801C11.7978 19.0472 11.7668 18.5849 11.7668 18.0934ZM12.5188 19.4215C12.5188 19.9228 12.6588 20.3199 12.9387 20.6129C13.2187 20.9059 13.5979 21.0524 14.0764 21.0524C14.5549 21.0524 14.9342 20.9059 15.2141 20.6129C15.4973 20.3199 15.6389 19.9228 15.6389 19.4215V16.7604C15.6389 16.2591 15.4989 15.8619 15.219 15.569C14.939 15.276 14.5582 15.1295 14.0764 15.1295C13.5979 15.1295 13.2187 15.2776 12.9387 15.5739C12.6588 15.8668 12.5188 16.2623 12.5188 16.7604V19.4215Z" fill="#F5F5F5"/>
<path d="M26.144 18.0934C26.144 17.5986 26.175 17.1347 26.2368 16.7018C26.3019 16.2688 26.4191 15.8929 26.5884 15.5739C26.7609 15.2516 26.9969 14.9993 27.2964 14.817C27.5959 14.6347 27.9816 14.5436 28.4536 14.5436C28.9256 14.5436 29.3114 14.6347 29.6108 14.817C29.9136 14.9993 30.1496 15.2516 30.3188 15.5739C30.4914 15.8929 30.6086 16.2688 30.6704 16.7018C30.7323 17.1347 30.7632 17.5986 30.7632 18.0934C30.7632 18.5882 30.7323 19.052 30.6704 19.485C30.6086 19.9147 30.4914 20.2906 30.3188 20.6129C30.1496 20.9319 29.9152 21.1842 29.6157 21.3698C29.3162 21.552 28.9289 21.6432 28.4536 21.6432C27.9816 21.6432 27.5959 21.552 27.2964 21.3698C26.9969 21.1842 26.7609 20.9319 26.5884 20.6129C26.4191 20.2906 26.3019 19.913 26.2368 19.4801C26.175 19.0472 26.144 18.5849 26.144 18.0934ZM26.896 19.4215C26.896 19.9228 27.036 20.3199 27.3159 20.6129C27.5959 20.9059 27.9751 21.0524 28.4536 21.0524C28.9321 21.0524 29.3114 20.9059 29.5913 20.6129C29.8745 20.3199 30.0161 19.9228 30.0161 19.4215V16.7604C30.0161 16.2591 29.8761 15.8619 29.5962 15.569C29.3162 15.276 28.9354 15.1295 28.4536 15.1295C27.9751 15.1295 27.5959 15.2776 27.3159 15.5739C27.036 15.8668 26.896 16.2623 26.896 16.7604V19.4215Z" fill="#F5F5F5"/>
<path d="M40.5215 18.0934C40.5215 17.5986 40.5524 17.1347 40.6143 16.7018C40.6794 16.2688 40.7965 15.8929 40.9658 15.5739C41.1383 15.2516 41.3743 14.9993 41.6738 14.817C41.9733 14.6347 42.359 14.5436 42.8311 14.5436C43.3031 14.5436 43.6888 14.6347 43.9883 14.817C44.291 14.9993 44.527 15.2516 44.6963 15.5739C44.8688 15.8929 44.986 16.2688 45.0479 16.7018C45.1097 17.1347 45.1406 17.5986 45.1406 18.0934C45.1406 18.5882 45.1097 19.052 45.0479 19.485C44.986 19.9147 44.8688 20.2906 44.6963 20.6129C44.527 20.9319 44.2926 21.1842 43.9932 21.3698C43.6937 21.552 43.3063 21.6432 42.8311 21.6432C42.359 21.6432 41.9733 21.552 41.6738 21.3698C41.3743 21.1842 41.1383 20.9319 40.9658 20.6129C40.7965 20.2906 40.6794 19.913 40.6143 19.4801C40.5524 19.0472 40.5215 18.5849 40.5215 18.0934ZM41.2734 19.4215C41.2734 19.9228 41.4134 20.3199 41.6934 20.6129C41.9733 20.9059 42.3525 21.0524 42.8311 21.0524C43.3096 21.0524 43.6888 20.9059 43.9688 20.6129C44.252 20.3199 44.3936 19.9228 44.3936 19.4215V16.7604C44.3936 16.2591 44.2536 15.8619 43.9736 15.569C43.6937 15.276 43.3128 15.1295 42.8311 15.1295C42.3525 15.1295 41.9733 15.2776 41.6934 15.5739C41.4134 15.8668 41.2734 16.2623 41.2734 16.7604V19.4215Z" fill="#F5F5F5"/>
<path d="M12.2991 10.5797V9.98889H14.0471V5.16956H12.2991V4.57874H14.0471V3.77795H14.6965V9.98889H16.2493V10.5797H12.2991Z" fill="#F5F5F5"/>
<path d="M26.144 7.18127C26.144 6.68648 26.175 6.22262 26.2368 5.78967C26.3019 5.35673 26.4191 4.98075 26.5884 4.66174C26.7609 4.33948 26.9969 4.0872 27.2964 3.90491C27.5959 3.72262 27.9816 3.63147 28.4536 3.63147C28.9256 3.63147 29.3114 3.72262 29.6108 3.90491C29.9136 4.0872 30.1496 4.33948 30.3188 4.66174C30.4914 4.98075 30.6086 5.35673 30.6704 5.78967C30.7323 6.22262 30.7632 6.68648 30.7632 7.18127C30.7632 7.67607 30.7323 8.13993 30.6704 8.57288C30.6086 9.00256 30.4914 9.37854 30.3188 9.70081C30.1496 10.0198 29.9152 10.2721 29.6157 10.4576C29.3162 10.6399 28.9289 10.7311 28.4536 10.7311C27.9816 10.7311 27.5959 10.6399 27.2964 10.4576C26.9969 10.2721 26.7609 10.0198 26.5884 9.70081C26.4191 9.37854 26.3019 9.00094 26.2368 8.56799C26.175 8.13505 26.144 7.67281 26.144 7.18127ZM26.896 8.5094C26.896 9.0107 27.036 9.40784 27.3159 9.70081C27.5959 9.99377 27.9751 10.1403 28.4536 10.1403C28.9321 10.1403 29.3114 9.99377 29.5913 9.70081C29.8745 9.40784 30.0161 9.0107 30.0161 8.5094V5.84827C30.0161 5.34696 29.8761 4.94983 29.5962 4.65686C29.3162 4.36389 28.9354 4.21741 28.4536 4.21741C27.9751 4.21741 27.5959 4.36552 27.3159 4.66174C27.036 4.95471 26.896 5.35022 26.896 5.84827V8.5094Z" fill="#F5F5F5"/>
<path d="M40.5215 7.18127C40.5215 6.68648 40.5524 6.22262 40.6143 5.78967C40.6794 5.35673 40.7965 4.98075 40.9658 4.66174C41.1383 4.33948 41.3743 4.0872 41.6738 3.90491C41.9733 3.72262 42.359 3.63147 42.8311 3.63147C43.3031 3.63147 43.6888 3.72262 43.9883 3.90491C44.291 4.0872 44.527 4.33948 44.6963 4.66174C44.8688 4.98075 44.986 5.35673 45.0479 5.78967C45.1097 6.22262 45.1406 6.68648 45.1406 7.18127C45.1406 7.67607 45.1097 8.13993 45.0479 8.57288C44.986 9.00256 44.8688 9.37854 44.6963 9.70081C44.527 10.0198 44.2926 10.2721 43.9932 10.4576C43.6937 10.6399 43.3063 10.7311 42.8311 10.7311C42.359 10.7311 41.9733 10.6399 41.6738 10.4576C41.3743 10.2721 41.1383 10.0198 40.9658 9.70081C40.7965 9.37854 40.6794 9.00094 40.6143 8.56799C40.5524 8.13505 40.5215 7.67281 40.5215 7.18127ZM41.2734 8.5094C41.2734 9.0107 41.4134 9.40784 41.6934 9.70081C41.9733 9.99377 42.3525 10.1403 42.8311 10.1403C43.3096 10.1403 43.6888 9.99377 43.9688 9.70081C44.252 9.40784 44.3936 9.0107 44.3936 8.5094V5.84827C44.3936 5.34696 44.2536 4.94983 43.9736 4.65686C43.6937 4.36389 43.3128 4.21741 42.8311 4.21741C42.3525 4.21741 41.9733 4.36552 41.6934 4.66174C41.4134 4.95471 41.2734 5.35022 41.2734 5.84827V8.5094Z" fill="#F5F5F5"/>
<path d="M1.0459 0.551758V122.119" stroke="#F5F5F5" stroke-width="0.75"/>
<path d="M96.0142 0.551758V122.119" stroke="#F5F5F5" stroke-width="0.75"/>
<rect x="58.53" y="102.119" width="20" height="20" fill="#F5F5F5"/>
<rect x="18.53" y="102.119" width="20" height="20" fill="#F5F5F5"/>
<rect x="18.53" y="62.119" width="20" height="20" fill="#F5F5F5"/>
</svg>
