<svg width="97" height="122" viewBox="0 0 97 122" fill="none" xmlns="http://www.w3.org/2000/svg">
<path d="M6.88599 35.0545V0.174316H9.06961V0.809762H7.59075V34.419H9.06961V35.0545H6.88599Z" fill="#F5F5F5"/>
<path d="M50.2795 35.0545V0.174316H48.0959V0.809762H49.5748V34.419H48.0959V35.0545H50.2795Z" fill="#F5F5F5"/>
<path d="M11.8938 28.6281C11.8938 28.1333 11.9247 27.6694 11.9866 27.2365C12.0517 26.8035 12.1689 26.4275 12.3381 26.1085C12.5107 25.7863 12.7467 25.534 13.0461 25.3517C13.3456 25.1694 13.7314 25.0782 14.2034 25.0782C14.6754 25.0782 15.0611 25.1694 15.3606 25.3517C15.6633 25.534 15.8993 25.7863 16.0686 26.1085C16.2411 26.4275 16.3583 26.8035 16.4202 27.2365C16.482 27.6694 16.5129 28.1333 16.5129 28.6281C16.5129 29.1228 16.482 29.5867 16.4202 30.0197C16.3583 30.4493 16.2411 30.8253 16.0686 31.1476C15.8993 31.4666 15.665 31.7189 15.3655 31.9044C15.066 32.0867 14.6786 32.1779 14.2034 32.1779C13.7314 32.1779 13.3456 32.0867 13.0461 31.9044C12.7467 31.7189 12.5107 31.4666 12.3381 31.1476C12.1689 30.8253 12.0517 30.4477 11.9866 30.0148C11.9247 29.5818 11.8938 29.1196 11.8938 28.6281ZM12.6458 29.9562C12.6458 30.4575 12.7857 30.8546 13.0657 31.1476C13.3456 31.4406 13.7249 31.587 14.2034 31.587C14.6819 31.587 15.0611 31.4406 15.3411 31.1476C15.6243 30.8546 15.7659 30.4575 15.7659 29.9562V27.295C15.7659 26.7937 15.6259 26.3966 15.3459 26.1036C15.066 25.8107 14.6851 25.6642 14.2034 25.6642C13.7249 25.6642 13.3456 25.8123 13.0657 26.1085C12.7857 26.4015 12.6458 26.797 12.6458 27.295V29.9562Z" fill="#F5F5F5"/>
<path d="M26.271 28.6281C26.271 28.1333 26.3019 27.6694 26.3638 27.2365C26.4289 26.8035 26.5461 26.4275 26.7153 26.1085C26.8879 25.7863 27.1239 25.534 27.4233 25.3517C27.7228 25.1694 28.1086 25.0782 28.5806 25.0782C29.0526 25.0782 29.4383 25.1694 29.7378 25.3517C30.0405 25.534 30.2765 25.7863 30.4458 26.1085C30.6183 26.4275 30.7355 26.8035 30.7974 27.2365C30.8592 27.6694 30.8901 28.1333 30.8901 28.6281C30.8901 29.1228 30.8592 29.5867 30.7974 30.0197C30.7355 30.4493 30.6183 30.8253 30.4458 31.1476C30.2765 31.4666 30.0422 31.7189 29.7427 31.9044C29.4432 32.0867 29.0558 32.1779 28.5806 32.1779C28.1086 32.1779 27.7228 32.0867 27.4233 31.9044C27.1239 31.7189 26.8879 31.4666 26.7153 31.1476C26.5461 30.8253 26.4289 30.4477 26.3638 30.0148C26.3019 29.5818 26.271 29.1196 26.271 28.6281ZM27.0229 29.9562C27.0229 30.4575 27.1629 30.8546 27.4429 31.1476C27.7228 31.4406 28.1021 31.587 28.5806 31.587C29.0591 31.587 29.4383 31.4406 29.7183 31.1476C30.0015 30.8546 30.1431 30.4575 30.1431 29.9562V27.295C30.1431 26.7937 30.0031 26.3966 29.7231 26.1036C29.4432 25.8107 29.0623 25.6642 28.5806 25.6642C28.1021 25.6642 27.7228 25.8123 27.4429 26.1085C27.1629 26.4015 27.0229 26.797 27.0229 27.295V29.9562Z" fill="#F5F5F5"/>
<path d="M86.4669 32.2023V30.1632H88.506V32.2023H86.4669Z" fill="#F5F5F5"/>
<path d="M40.6484 28.6281C40.6484 28.1333 40.6794 27.6694 40.7412 27.2365C40.8063 26.8035 40.9235 26.4275 41.0928 26.1085C41.2653 25.7863 41.5013 25.534 41.8008 25.3517C42.1003 25.1694 42.486 25.0782 42.958 25.0782C43.43 25.0782 43.8158 25.1694 44.1152 25.3517C44.418 25.534 44.654 25.7863 44.8232 26.1085C44.9958 26.4275 45.113 26.8035 45.1748 27.2365C45.2367 27.6694 45.2676 28.1333 45.2676 28.6281C45.2676 29.1228 45.2367 29.5867 45.1748 30.0197C45.113 30.4493 44.9958 30.8253 44.8232 31.1476C44.654 31.4666 44.4196 31.7189 44.1201 31.9044C43.8206 32.0867 43.4333 32.1779 42.958 32.1779C42.486 32.1779 42.1003 32.0867 41.8008 31.9044C41.5013 31.7189 41.2653 31.4666 41.0928 31.1476C40.9235 30.8253 40.8063 30.4477 40.7412 30.0148C40.6794 29.5818 40.6484 29.1196 40.6484 28.6281ZM41.4004 29.9562C41.4004 30.4575 41.5404 30.8546 41.8203 31.1476C42.1003 31.4406 42.4795 31.587 42.958 31.587C43.4365 31.587 43.8158 31.4406 44.0957 31.1476C44.3789 30.8546 44.5205 30.4575 44.5205 29.9562V27.295C44.5205 26.7937 44.3805 26.3966 44.1006 26.1036C43.8206 25.8107 43.4398 25.6642 42.958 25.6642C42.4795 25.6642 42.1003 25.8123 41.8203 26.1085C41.5404 26.4015 41.4004 26.797 41.4004 27.295V29.9562Z" fill="#F5F5F5"/>
<path d="M11.8938 17.7159C11.8938 17.2212 11.9247 16.7573 11.9866 16.3243C12.0517 15.8914 12.1689 15.5154 12.3381 15.1964C12.5107 14.8741 12.7467 14.6219 13.0461 14.4396C13.3456 14.2573 13.7314 14.1661 14.2034 14.1661C14.6754 14.1661 15.0611 14.2573 15.3606 14.4396C15.6633 14.6219 15.8993 14.8741 16.0686 15.1964C16.2411 15.5154 16.3583 15.8914 16.4202 16.3243C16.482 16.7573 16.5129 17.2212 16.5129 17.7159C16.5129 18.2107 16.482 18.6746 16.4202 19.1075C16.3583 19.5372 16.2411 19.9132 16.0686 20.2355C15.8993 20.5545 15.665 20.8068 15.3655 20.9923C15.066 21.1746 14.6786 21.2657 14.2034 21.2657C13.7314 21.2657 13.3456 21.1746 13.0461 20.9923C12.7467 20.8068 12.5107 20.5545 12.3381 20.2355C12.1689 19.9132 12.0517 19.5356 11.9866 19.1027C11.9247 18.6697 11.8938 18.2075 11.8938 17.7159ZM12.6458 19.0441C12.6458 19.5454 12.7857 19.9425 13.0657 20.2355C13.3456 20.5284 13.7249 20.6749 14.2034 20.6749C14.6819 20.6749 15.0611 20.5284 15.3411 20.2355C15.6243 19.9425 15.7659 19.5454 15.7659 19.0441V16.3829C15.7659 15.8816 15.6259 15.4845 15.3459 15.1915C15.066 14.8986 14.6851 14.7521 14.2034 14.7521C13.7249 14.7521 13.3456 14.9002 13.0657 15.1964C12.7857 15.4894 12.6458 15.8849 12.6458 16.3829V19.0441Z" fill="#F5F5F5"/>
<path d="M26.8032 21.1144V20.5236H28.5513V15.7042H26.8032V15.1134H28.5513V14.3126H29.2007V20.5236H30.7534V21.1144H26.8032Z" fill="#F5F5F5"/>
<path d="M40.6484 17.7159C40.6484 17.2212 40.6794 16.7573 40.7412 16.3243C40.8063 15.8914 40.9235 15.5154 41.0928 15.1964C41.2653 14.8741 41.5013 14.6219 41.8008 14.4396C42.1003 14.2573 42.486 14.1661 42.958 14.1661C43.43 14.1661 43.8158 14.2573 44.1152 14.4396C44.418 14.6219 44.654 14.8741 44.8232 15.1964C44.9958 15.5154 45.113 15.8914 45.1748 16.3243C45.2367 16.7573 45.2676 17.2212 45.2676 17.7159C45.2676 18.2107 45.2367 18.6746 45.1748 19.1075C45.113 19.5372 44.9958 19.9132 44.8232 20.2355C44.654 20.5545 44.4196 20.8068 44.1201 20.9923C43.8206 21.1746 43.4333 21.2657 42.958 21.2657C42.486 21.2657 42.1003 21.1746 41.8008 20.9923C41.5013 20.8068 41.2653 20.5545 41.0928 20.2355C40.9235 19.9132 40.8063 19.5356 40.7412 19.1027C40.6794 18.6697 40.6484 18.2075 40.6484 17.7159ZM41.4004 19.0441C41.4004 19.5454 41.5404 19.9425 41.8203 20.2355C42.1003 20.5284 42.4795 20.6749 42.958 20.6749C43.4365 20.6749 43.8158 20.5284 44.0957 20.2355C44.3789 19.9425 44.5205 19.5454 44.5205 19.0441V16.3829C44.5205 15.8816 44.3805 15.4845 44.1006 15.1915C43.8206 14.8986 43.4398 14.7521 42.958 14.7521C42.4795 14.7521 42.1003 14.9002 41.8203 15.1964C41.5404 15.4894 41.4004 15.8849 41.4004 16.3829V19.0441Z" fill="#F5F5F5"/>
<path d="M12.426 10.2023V9.61145H14.1741V4.79211H12.426V4.20129H14.1741V3.40051H14.8235V9.61145H16.3762V10.2023H12.426Z" fill="#F5F5F5"/>
<path d="M26.271 6.80383C26.271 6.30904 26.3019 5.84517 26.3638 5.41223C26.4289 4.97929 26.5461 4.60331 26.7153 4.2843C26.8879 3.96204 27.1239 3.70976 27.4233 3.52747C27.7228 3.34517 28.1086 3.25403 28.5806 3.25403C29.0526 3.25403 29.4383 3.34517 29.7378 3.52747C30.0405 3.70976 30.2765 3.96204 30.4458 4.2843C30.6183 4.60331 30.7355 4.97929 30.7974 5.41223C30.8592 5.84517 30.8901 6.30904 30.8901 6.80383C30.8901 7.29862 30.8592 7.76249 30.7974 8.19543C30.7355 8.62512 30.6183 9.0011 30.4458 9.32336C30.2765 9.64237 30.0422 9.89465 29.7427 10.0802C29.4432 10.2625 29.0558 10.3536 28.5806 10.3536C28.1086 10.3536 27.7228 10.2625 27.4233 10.0802C27.1239 9.89465 26.8879 9.64237 26.7153 9.32336C26.5461 9.0011 26.4289 8.62349 26.3638 8.19055C26.3019 7.75761 26.271 7.29537 26.271 6.80383ZM27.0229 8.13196C27.0229 8.63326 27.1629 9.0304 27.4429 9.32336C27.7228 9.61633 28.1021 9.76282 28.5806 9.76282C29.0591 9.76282 29.4383 9.61633 29.7183 9.32336C30.0015 9.0304 30.1431 8.63326 30.1431 8.13196V5.47083C30.1431 4.96952 30.0031 4.57239 29.7231 4.27942C29.4432 3.98645 29.0623 3.83997 28.5806 3.83997C28.1021 3.83997 27.7228 3.98808 27.4429 4.2843C27.1629 4.57727 27.0229 4.97278 27.0229 5.47083V8.13196Z" fill="#F5F5F5"/>
<path d="M40.6484 6.80383C40.6484 6.30904 40.6794 5.84517 40.7412 5.41223C40.8063 4.97929 40.9235 4.60331 41.0928 4.2843C41.2653 3.96204 41.5013 3.70976 41.8008 3.52747C42.1003 3.34517 42.486 3.25403 42.958 3.25403C43.43 3.25403 43.8158 3.34517 44.1152 3.52747C44.418 3.70976 44.654 3.96204 44.8232 4.2843C44.9958 4.60331 45.113 4.97929 45.1748 5.41223C45.2367 5.84517 45.2676 6.30904 45.2676 6.80383C45.2676 7.29862 45.2367 7.76249 45.1748 8.19543C45.113 8.62512 44.9958 9.0011 44.8232 9.32336C44.654 9.64237 44.4196 9.89465 44.1201 10.0802C43.8206 10.2625 43.4333 10.3536 42.958 10.3536C42.486 10.3536 42.1003 10.2625 41.8008 10.0802C41.5013 9.89465 41.2653 9.64237 41.0928 9.32336C40.9235 9.0011 40.8063 8.62349 40.7412 8.19055C40.6794 7.75761 40.6484 7.29537 40.6484 6.80383ZM41.4004 8.13196C41.4004 8.63326 41.5404 9.0304 41.8203 9.32336C42.1003 9.61633 42.4795 9.76282 42.958 9.76282C43.4365 9.76282 43.8158 9.61633 44.0957 9.32336C44.3789 9.0304 44.5205 8.63326 44.5205 8.13196V5.47083C44.5205 4.96952 44.3805 4.57239 44.1006 4.27942C43.8206 3.98645 43.4398 3.83997 42.958 3.83997C42.4795 3.83997 42.1003 3.98808 41.8203 4.2843C41.5404 4.57727 41.4004 4.97278 41.4004 5.47083V8.13196Z" fill="#F5F5F5"/>
<path d="M1.17285 0.174316V121.742" stroke="#F5F5F5" stroke-width="0.75"/>
<path d="M96.1411 0.174316V121.742" stroke="#F5F5F5" stroke-width="0.75"/>
<rect x="38.6943" y="81.7417" width="20" height="20" fill="#F5F5F5"/>
<rect x="18.6943" y="61.7417" width="20" height="20" fill="#F5F5F5"/>
</svg>
