<svg width="97" height="123" viewBox="0 0 97 123" fill="none" xmlns="http://www.w3.org/2000/svg">
<path d="M6.63232 35.4319V0.551758H8.81595V1.1872H7.33709V34.7965H8.81595V35.4319H6.63232Z" fill="#F5F5F5"/>
<path d="M50.0259 35.4319V0.551758H47.8423V1.1872H49.3211V34.7965H47.8423V35.4319H50.0259Z" fill="#F5F5F5"/>
<path d="M12.1724 32.4039V31.8131H13.9204V26.9938H12.1724V26.403H13.9204V25.6022H14.5698V31.8131H16.1226V32.4039H12.1724Z" fill="#F5F5F5"/>
<path d="M26.5496 32.4039V31.8131H28.2976V26.9938H26.5496V26.403H28.2976V25.6022H28.947V31.8131H30.4998V32.4039H26.5496Z" fill="#F5F5F5"/>
<path d="M77.9398 17.6735V16.2555H88.3109V17.6735L81.3969 32.5797H79.6508L86.6117 17.6735H77.9398Z" fill="#F5F5F5"/>
<path d="M40.927 32.4039V31.8131H42.675V26.9938H40.927V26.403H42.675V25.6022H43.3245V31.8131H44.8772V32.4039H40.927Z" fill="#F5F5F5"/>
<path d="M11.6401 18.0934C11.6401 17.5986 11.6711 17.1347 11.7329 16.7018C11.798 16.2688 11.9152 15.8929 12.0845 15.5739C12.257 15.2516 12.493 14.9993 12.7925 14.817C13.092 14.6347 13.4777 14.5436 13.9497 14.5436C14.4217 14.5436 14.8075 14.6347 15.1069 14.817C15.4097 14.9993 15.6457 15.2516 15.8149 15.5739C15.9875 15.8929 16.1047 16.2688 16.1665 16.7018C16.2284 17.1347 16.2593 17.5986 16.2593 18.0934C16.2593 18.5882 16.2284 19.052 16.1665 19.485C16.1047 19.9147 15.9875 20.2906 15.8149 20.6129C15.6457 20.9319 15.4113 21.1842 15.1118 21.3698C14.8123 21.552 14.425 21.6432 13.9497 21.6432C13.4777 21.6432 13.092 21.552 12.7925 21.3698C12.493 21.1842 12.257 20.9319 12.0845 20.6129C11.9152 20.2906 11.798 19.913 11.7329 19.4801C11.6711 19.0472 11.6401 18.5849 11.6401 18.0934ZM12.3921 19.4215C12.3921 19.9228 12.5321 20.3199 12.812 20.6129C13.092 20.9059 13.4712 21.0524 13.9497 21.0524C14.4282 21.0524 14.8075 20.9059 15.0874 20.6129C15.3706 20.3199 15.5122 19.9228 15.5122 19.4215V16.7604C15.5122 16.2591 15.3722 15.8619 15.0923 15.569C14.8123 15.276 14.4315 15.1295 13.9497 15.1295C13.4712 15.1295 13.092 15.2776 12.812 15.5739C12.5321 15.8668 12.3921 16.2623 12.3921 16.7604V19.4215Z" fill="#F5F5F5"/>
<path d="M26.5496 21.4918V20.901H28.2976V16.0817H26.5496V15.4908H28.2976V14.6901H28.947V20.901H30.4998V21.4918H26.5496Z" fill="#F5F5F5"/>
<path d="M40.3948 18.0934C40.3948 17.5986 40.4257 17.1347 40.4875 16.7018C40.5527 16.2688 40.6698 15.8929 40.8391 15.5739C41.0116 15.2516 41.2476 14.9993 41.5471 14.817C41.8466 14.6347 42.2323 14.5436 42.7043 14.5436C43.1764 14.5436 43.5621 14.6347 43.8616 14.817C44.1643 14.9993 44.4003 15.2516 44.5696 15.5739C44.7421 15.8929 44.8593 16.2688 44.9211 16.7018C44.983 17.1347 45.0139 17.5986 45.0139 18.0934C45.0139 18.5882 44.983 19.052 44.9211 19.485C44.8593 19.9147 44.7421 20.2906 44.5696 20.6129C44.4003 20.9319 44.1659 21.1842 43.8665 21.3698C43.567 21.552 43.1796 21.6432 42.7043 21.6432C42.2323 21.6432 41.8466 21.552 41.5471 21.3698C41.2476 21.1842 41.0116 20.9319 40.8391 20.6129C40.6698 20.2906 40.5527 19.913 40.4875 19.4801C40.4257 19.0472 40.3948 18.5849 40.3948 18.0934ZM41.1467 19.4215C41.1467 19.9228 41.2867 20.3199 41.5667 20.6129C41.8466 20.9059 42.2258 21.0524 42.7043 21.0524C43.1829 21.0524 43.5621 20.9059 43.842 20.6129C44.1252 20.3199 44.2668 19.9228 44.2668 19.4215V16.7604C44.2668 16.2591 44.1269 15.8619 43.8469 15.569C43.567 15.276 43.1861 15.1295 42.7043 15.1295C42.2258 15.1295 41.8466 15.2776 41.5667 15.5739C41.2867 15.8668 41.1467 16.2623 41.1467 16.7604V19.4215Z" fill="#F5F5F5"/>
<path d="M12.1724 10.5797V9.98889H13.9204V5.16956H12.1724V4.57874H13.9204V3.77795H14.5698V9.98889H16.1226V10.5797H12.1724Z" fill="#F5F5F5"/>
<path d="M26.5496 10.5797V9.98889H28.2976V5.16956H26.5496V4.57874H28.2976V3.77795H28.947V9.98889H30.4998V10.5797H26.5496Z" fill="#F5F5F5"/>
<path d="M40.927 10.5797V9.98889H42.675V5.16956H40.927V4.57874H42.675V3.77795H43.3245V9.98889H44.8772V10.5797H40.927Z" fill="#F5F5F5"/>
<path d="M0.919189 0.551758V122.119" stroke="#F5F5F5" stroke-width="0.75"/>
<path d="M95.8875 0.551758V122.119" stroke="#F5F5F5" stroke-width="0.75"/>
<rect x="38.4033" y="102.119" width="20" height="20" fill="#F5F5F5"/>
<rect x="38.4033" y="62.119" width="20" height="20" fill="#F5F5F5"/>
<rect x="58.4033" y="62.119" width="20" height="20" fill="#F5F5F5"/>
<rect x="18.4033" y="62.119" width="20" height="20" fill="#F5F5F5"/>
<rect x="38.4033" y="82.119" width="20" height="20" fill="#F5F5F5"/>
<rect x="58.4033" y="102.119" width="20" height="20" fill="#F5F5F5"/>
<rect x="18.4033" y="102.119" width="20" height="20" fill="#F5F5F5"/>
</svg>
