<svg width="97" height="123" viewBox="0 0 97 123" fill="none" xmlns="http://www.w3.org/2000/svg">
<path d="M6.82251 35.4319V0.551758H9.00613V1.1872H7.52728V34.7965H9.00613V35.4319H6.82251Z" fill="#F5F5F5"/>
<path d="M50.2161 35.4319V0.551758H48.0324V1.1872H49.5113V34.7965H48.0324V35.4319H50.2161Z" fill="#F5F5F5"/>
<path d="M11.8303 29.0055C11.8303 28.5107 11.8612 28.0468 11.9231 27.6139C11.9882 27.1809 12.1054 26.805 12.2747 26.486C12.4472 26.1637 12.6832 25.9114 12.9827 25.7291C13.2821 25.5468 13.6679 25.4557 14.1399 25.4557C14.6119 25.4557 14.9976 25.5468 15.2971 25.7291C15.5999 25.9114 15.8359 26.1637 16.0051 26.486C16.1777 26.805 16.2948 27.1809 16.3567 27.6139C16.4185 28.0468 16.4495 28.5107 16.4495 29.0055C16.4495 29.5003 16.4185 29.9642 16.3567 30.3971C16.2948 30.8268 16.1777 31.2028 16.0051 31.525C15.8359 31.844 15.6015 32.0963 15.302 32.2819C15.0025 32.4642 14.6152 32.5553 14.1399 32.5553C13.6679 32.5553 13.2821 32.4642 12.9827 32.2819C12.6832 32.0963 12.4472 31.844 12.2747 31.525C12.1054 31.2028 11.9882 30.8252 11.9231 30.3922C11.8612 29.9593 11.8303 29.497 11.8303 29.0055ZM12.5823 30.3336C12.5823 30.8349 12.7222 31.2321 13.0022 31.525C13.2821 31.818 13.6614 31.9645 14.1399 31.9645C14.6184 31.9645 14.9976 31.818 15.2776 31.525C15.5608 31.2321 15.7024 30.8349 15.7024 30.3336V27.6725C15.7024 27.1712 15.5624 26.774 15.2825 26.4811C15.0025 26.1881 14.6217 26.0416 14.1399 26.0416C13.6614 26.0416 13.2821 26.1897 13.0022 26.486C12.7222 26.7789 12.5823 27.1744 12.5823 27.6725V30.3336Z" fill="#F5F5F5"/>
<path d="M26.2075 29.0055C26.2075 28.5107 26.2384 28.0468 26.3003 27.6139C26.3654 27.1809 26.4826 26.805 26.6519 26.486C26.8244 26.1637 27.0604 25.9114 27.3599 25.7291C27.6593 25.5468 28.0451 25.4557 28.5171 25.4557C28.9891 25.4557 29.3748 25.5468 29.6743 25.7291C29.9771 25.9114 30.2131 26.1637 30.3823 26.486C30.5549 26.805 30.672 27.1809 30.7339 27.6139C30.7957 28.0468 30.8267 28.5107 30.8267 29.0055C30.8267 29.5003 30.7957 29.9642 30.7339 30.3971C30.672 30.8268 30.5549 31.2028 30.3823 31.525C30.2131 31.844 29.9787 32.0963 29.6792 32.2819C29.3797 32.4642 28.9924 32.5553 28.5171 32.5553C28.0451 32.5553 27.6593 32.4642 27.3599 32.2819C27.0604 32.0963 26.8244 31.844 26.6519 31.525C26.4826 31.2028 26.3654 30.8252 26.3003 30.3922C26.2384 29.9593 26.2075 29.497 26.2075 29.0055ZM26.9595 30.3336C26.9595 30.8349 27.0994 31.2321 27.3794 31.525C27.6593 31.818 28.0386 31.9645 28.5171 31.9645C28.9956 31.9645 29.3748 31.818 29.6548 31.525C29.938 31.2321 30.0796 30.8349 30.0796 30.3336V27.6725C30.0796 27.1712 29.9396 26.774 29.6597 26.4811C29.3797 26.1881 28.9989 26.0416 28.5171 26.0416C28.0386 26.0416 27.6593 26.1897 27.3794 26.486C27.0994 26.7789 26.9595 27.1744 26.9595 27.6725V30.3336Z" fill="#F5F5F5"/>
<path d="M78.9034 32.5797V31.1617H83.0988V19.5953H78.9034V18.1774H83.0988V16.2555H84.6573V31.1617H88.3839V32.5797H78.9034Z" fill="#F5F5F5"/>
<path d="M40.585 29.0055C40.585 28.5107 40.6159 28.0468 40.6777 27.6139C40.7428 27.1809 40.86 26.805 41.0293 26.486C41.2018 26.1637 41.4378 25.9114 41.7373 25.7291C42.0368 25.5468 42.4225 25.4557 42.8945 25.4557C43.3665 25.4557 43.7523 25.5468 44.0518 25.7291C44.3545 25.9114 44.5905 26.1637 44.7598 26.486C44.9323 26.805 45.0495 27.1809 45.1113 27.6139C45.1732 28.0468 45.2041 28.5107 45.2041 29.0055C45.2041 29.5003 45.1732 29.9642 45.1113 30.3971C45.0495 30.8268 44.9323 31.2028 44.7598 31.525C44.5905 31.844 44.3561 32.0963 44.0566 32.2819C43.7572 32.4642 43.3698 32.5553 42.8945 32.5553C42.4225 32.5553 42.0368 32.4642 41.7373 32.2819C41.4378 32.0963 41.2018 31.844 41.0293 31.525C40.86 31.2028 40.7428 30.8252 40.6777 30.3922C40.6159 29.9593 40.585 29.497 40.585 29.0055ZM41.3369 30.3336C41.3369 30.8349 41.4769 31.2321 41.7568 31.525C42.0368 31.818 42.416 31.9645 42.8945 31.9645C43.373 31.9645 43.7523 31.818 44.0322 31.525C44.3154 31.2321 44.457 30.8349 44.457 30.3336V27.6725C44.457 27.1712 44.3171 26.774 44.0371 26.4811C43.7572 26.1881 43.3763 26.0416 42.8945 26.0416C42.416 26.0416 42.0368 26.1897 41.7568 26.486C41.4769 26.7789 41.3369 27.1744 41.3369 27.6725V30.3336Z" fill="#F5F5F5"/>
<path d="M11.8303 18.0934C11.8303 17.5986 11.8612 17.1347 11.9231 16.7018C11.9882 16.2688 12.1054 15.8929 12.2747 15.5739C12.4472 15.2516 12.6832 14.9993 12.9827 14.817C13.2821 14.6347 13.6679 14.5436 14.1399 14.5436C14.6119 14.5436 14.9976 14.6347 15.2971 14.817C15.5999 14.9993 15.8359 15.2516 16.0051 15.5739C16.1777 15.8929 16.2948 16.2688 16.3567 16.7018C16.4185 17.1347 16.4495 17.5986 16.4495 18.0934C16.4495 18.5882 16.4185 19.052 16.3567 19.485C16.2948 19.9147 16.1777 20.2906 16.0051 20.6129C15.8359 20.9319 15.6015 21.1842 15.302 21.3698C15.0025 21.552 14.6152 21.6432 14.1399 21.6432C13.6679 21.6432 13.2821 21.552 12.9827 21.3698C12.6832 21.1842 12.4472 20.9319 12.2747 20.6129C12.1054 20.2906 11.9882 19.913 11.9231 19.4801C11.8612 19.0472 11.8303 18.5849 11.8303 18.0934ZM12.5823 19.4215C12.5823 19.9228 12.7222 20.3199 13.0022 20.6129C13.2821 20.9059 13.6614 21.0524 14.1399 21.0524C14.6184 21.0524 14.9976 20.9059 15.2776 20.6129C15.5608 20.3199 15.7024 19.9228 15.7024 19.4215V16.7604C15.7024 16.2591 15.5624 15.8619 15.2825 15.569C15.0025 15.276 14.6217 15.1295 14.1399 15.1295C13.6614 15.1295 13.2821 15.2776 13.0022 15.5739C12.7222 15.8668 12.5823 16.2623 12.5823 16.7604V19.4215Z" fill="#F5F5F5"/>
<path d="M26.7397 21.4918V20.901H28.4878V16.0817H26.7397V15.4908H28.4878V14.6901H29.1372V20.901H30.6899V21.4918H26.7397Z" fill="#F5F5F5"/>
<path d="M40.585 18.0934C40.585 17.5986 40.6159 17.1347 40.6777 16.7018C40.7428 16.2688 40.86 15.8929 41.0293 15.5739C41.2018 15.2516 41.4378 14.9993 41.7373 14.817C42.0368 14.6347 42.4225 14.5436 42.8945 14.5436C43.3665 14.5436 43.7523 14.6347 44.0518 14.817C44.3545 14.9993 44.5905 15.2516 44.7598 15.5739C44.9323 15.8929 45.0495 16.2688 45.1113 16.7018C45.1732 17.1347 45.2041 17.5986 45.2041 18.0934C45.2041 18.5882 45.1732 19.052 45.1113 19.485C45.0495 19.9147 44.9323 20.2906 44.7598 20.6129C44.5905 20.9319 44.3561 21.1842 44.0566 21.3698C43.7572 21.552 43.3698 21.6432 42.8945 21.6432C42.4225 21.6432 42.0368 21.552 41.7373 21.3698C41.4378 21.1842 41.2018 20.9319 41.0293 20.6129C40.86 20.2906 40.7428 19.913 40.6777 19.4801C40.6159 19.0472 40.585 18.5849 40.585 18.0934ZM41.3369 19.4215C41.3369 19.9228 41.4769 20.3199 41.7568 20.6129C42.0368 20.9059 42.416 21.0524 42.8945 21.0524C43.373 21.0524 43.7523 20.9059 44.0322 20.6129C44.3154 20.3199 44.457 19.9228 44.457 19.4215V16.7604C44.457 16.2591 44.3171 15.8619 44.0371 15.569C43.7572 15.276 43.3763 15.1295 42.8945 15.1295C42.416 15.1295 42.0368 15.2776 41.7568 15.5739C41.4769 15.8668 41.3369 16.2623 41.3369 16.7604V19.4215Z" fill="#F5F5F5"/>
<path d="M11.8303 7.18127C11.8303 6.68648 11.8612 6.22262 11.9231 5.78967C11.9882 5.35673 12.1054 4.98075 12.2747 4.66174C12.4472 4.33948 12.6832 4.0872 12.9827 3.90491C13.2821 3.72262 13.6679 3.63147 14.1399 3.63147C14.6119 3.63147 14.9976 3.72262 15.2971 3.90491C15.5999 4.0872 15.8359 4.33948 16.0051 4.66174C16.1777 4.98075 16.2948 5.35673 16.3567 5.78967C16.4185 6.22262 16.4495 6.68648 16.4495 7.18127C16.4495 7.67607 16.4185 8.13993 16.3567 8.57288C16.2948 9.00256 16.1777 9.37854 16.0051 9.70081C15.8359 10.0198 15.6015 10.2721 15.302 10.4576C15.0025 10.6399 14.6152 10.7311 14.1399 10.7311C13.6679 10.7311 13.2821 10.6399 12.9827 10.4576C12.6832 10.2721 12.4472 10.0198 12.2747 9.70081C12.1054 9.37854 11.9882 9.00094 11.9231 8.56799C11.8612 8.13505 11.8303 7.67281 11.8303 7.18127ZM12.5823 8.5094C12.5823 9.0107 12.7222 9.40784 13.0022 9.70081C13.2821 9.99377 13.6614 10.1403 14.1399 10.1403C14.6184 10.1403 14.9976 9.99377 15.2776 9.70081C15.5608 9.40784 15.7024 9.0107 15.7024 8.5094V5.84827C15.7024 5.34696 15.5624 4.94983 15.2825 4.65686C15.0025 4.36389 14.6217 4.21741 14.1399 4.21741C13.6614 4.21741 13.2821 4.36552 13.0022 4.66174C12.7222 4.95471 12.5823 5.35022 12.5823 5.84827V8.5094Z" fill="#F5F5F5"/>
<path d="M26.2075 7.18127C26.2075 6.68648 26.2384 6.22262 26.3003 5.78967C26.3654 5.35673 26.4826 4.98075 26.6519 4.66174C26.8244 4.33948 27.0604 4.0872 27.3599 3.90491C27.6593 3.72262 28.0451 3.63147 28.5171 3.63147C28.9891 3.63147 29.3748 3.72262 29.6743 3.90491C29.9771 4.0872 30.2131 4.33948 30.3823 4.66174C30.5549 4.98075 30.672 5.35673 30.7339 5.78967C30.7957 6.22262 30.8267 6.68648 30.8267 7.18127C30.8267 7.67607 30.7957 8.13993 30.7339 8.57288C30.672 9.00256 30.5549 9.37854 30.3823 9.70081C30.2131 10.0198 29.9787 10.2721 29.6792 10.4576C29.3797 10.6399 28.9924 10.7311 28.5171 10.7311C28.0451 10.7311 27.6593 10.6399 27.3599 10.4576C27.0604 10.2721 26.8244 10.0198 26.6519 9.70081C26.4826 9.37854 26.3654 9.00094 26.3003 8.56799C26.2384 8.13505 26.2075 7.67281 26.2075 7.18127ZM26.9595 8.5094C26.9595 9.0107 27.0994 9.40784 27.3794 9.70081C27.6593 9.99377 28.0386 10.1403 28.5171 10.1403C28.9956 10.1403 29.3748 9.99377 29.6548 9.70081C29.938 9.40784 30.0796 9.0107 30.0796 8.5094V5.84827C30.0796 5.34696 29.9396 4.94983 29.6597 4.65686C29.3797 4.36389 28.9989 4.21741 28.5171 4.21741C28.0386 4.21741 27.6593 4.36552 27.3794 4.66174C27.0994 4.95471 26.9595 5.35022 26.9595 5.84827V8.5094Z" fill="#F5F5F5"/>
<path d="M40.585 7.18127C40.585 6.68648 40.6159 6.22262 40.6777 5.78967C40.7428 5.35673 40.86 4.98075 41.0293 4.66174C41.2018 4.33948 41.4378 4.0872 41.7373 3.90491C42.0368 3.72262 42.4225 3.63147 42.8945 3.63147C43.3665 3.63147 43.7523 3.72262 44.0518 3.90491C44.3545 4.0872 44.5905 4.33948 44.7598 4.66174C44.9323 4.98075 45.0495 5.35673 45.1113 5.78967C45.1732 6.22262 45.2041 6.68648 45.2041 7.18127C45.2041 7.67607 45.1732 8.13993 45.1113 8.57288C45.0495 9.00256 44.9323 9.37854 44.7598 9.70081C44.5905 10.0198 44.3561 10.2721 44.0566 10.4576C43.7572 10.6399 43.3698 10.7311 42.8945 10.7311C42.4225 10.7311 42.0368 10.6399 41.7373 10.4576C41.4378 10.2721 41.2018 10.0198 41.0293 9.70081C40.86 9.37854 40.7428 9.00094 40.6777 8.56799C40.6159 8.13505 40.585 7.67281 40.585 7.18127ZM41.3369 8.5094C41.3369 9.0107 41.4769 9.40784 41.7568 9.70081C42.0368 9.99377 42.416 10.1403 42.8945 10.1403C43.373 10.1403 43.7523 9.99377 44.0322 9.70081C44.3154 9.40784 44.457 9.0107 44.457 8.5094V5.84827C44.457 5.34696 44.3171 4.94983 44.0371 4.65686C43.7572 4.36389 43.3763 4.21741 42.8945 4.21741C42.416 4.21741 42.0368 4.36552 41.7568 4.66174C41.4769 4.95471 41.3369 5.35022 41.3369 5.84827V8.5094Z" fill="#F5F5F5"/>
<path d="M1.10938 0.551758V122.119" stroke="#F5F5F5" stroke-width="0.75"/>
<path d="M96.0776 0.551758V122.119" stroke="#F5F5F5" stroke-width="0.75"/>
<rect x="38.6309" y="82.119" width="20" height="20" fill="#F5F5F5"/>
</svg>
