<svg width="97" height="122" viewBox="0 0 97 122" fill="none" xmlns="http://www.w3.org/2000/svg">
<path d="M6.75903 35.2781V0.397949H8.94265V1.03339H7.4638V34.6427H8.94265V35.2781H6.75903Z" fill="#F5F5F5"/>
<path d="M50.1526 35.2781V0.397949H47.969V1.03339H49.4478V34.6427H47.969V35.2781H50.1526Z" fill="#F5F5F5"/>
<path d="M12.2991 32.2501V31.6593H14.0471V26.84H12.2991V26.2491H14.0471V25.4484H14.6965V31.6593H16.2493V32.2501H12.2991Z" fill="#F5F5F5"/>
<path d="M26.6763 32.2501V31.6593H28.4243V26.84H26.6763V26.2491H28.4243V25.4484H29.0737V31.6593H30.6265V32.2501H26.6763Z" fill="#F5F5F5"/>
<path d="M76.2618 26.6134V16.1017H77.9493V26.7892C77.9493 27.4611 78.0509 28.0743 78.254 28.629C78.465 29.1759 78.7579 29.6447 79.1329 30.0353C79.5079 30.4259 79.9493 30.7267 80.4572 30.9376C80.9728 31.1486 81.5431 31.254 82.1681 31.254C82.7931 31.254 83.3634 31.1486 83.879 30.9376C84.4025 30.7267 84.8517 30.4298 85.2267 30.047C85.6095 29.6642 85.9025 29.1993 86.1056 28.6525C86.3165 28.0978 86.422 27.4767 86.422 26.7892V16.1017H88.0743V26.6134C88.0743 27.5743 87.9298 28.4376 87.6407 29.2032C87.3517 29.9611 86.9454 30.6056 86.422 31.1368C85.9064 31.6603 85.2853 32.0665 84.5587 32.3556C83.8322 32.6447 83.0353 32.7892 82.1681 32.7892C81.3009 32.7892 80.504 32.6447 79.7775 32.3556C79.0509 32.0665 78.4259 31.6603 77.9025 31.1368C77.3868 30.6056 76.9845 29.9611 76.6954 29.2032C76.4064 28.4376 76.2618 27.5743 76.2618 26.6134Z" fill="#F5F5F5"/>
<path d="M40.5215 28.8517C40.5215 28.3569 40.5524 27.893 40.6143 27.4601C40.6794 27.0271 40.7965 26.6512 40.9658 26.3322C41.1383 26.0099 41.3743 25.7576 41.6738 25.5753C41.9733 25.393 42.359 25.3019 42.8311 25.3019C43.3031 25.3019 43.6888 25.393 43.9883 25.5753C44.291 25.7576 44.527 26.0099 44.6963 26.3322C44.8688 26.6512 44.986 27.0271 45.0479 27.4601C45.1097 27.893 45.1406 28.3569 45.1406 28.8517C45.1406 29.3465 45.1097 29.8103 45.0479 30.2433C44.986 30.673 44.8688 31.049 44.6963 31.3712C44.527 31.6902 44.2926 31.9425 43.9932 32.1281C43.6937 32.3103 43.3063 32.4015 42.8311 32.4015C42.359 32.4015 41.9733 32.3103 41.6738 32.1281C41.3743 31.9425 41.1383 31.6902 40.9658 31.3712C40.7965 31.049 40.6794 30.6713 40.6143 30.2384C40.5524 29.8055 40.5215 29.3432 40.5215 28.8517ZM41.2734 30.1798C41.2734 30.6811 41.4134 31.0782 41.6934 31.3712C41.9733 31.6642 42.3525 31.8107 42.8311 31.8107C43.3096 31.8107 43.6888 31.6642 43.9688 31.3712C44.252 31.0782 44.3936 30.6811 44.3936 30.1798V27.5187C44.3936 27.0174 44.2536 26.6202 43.9736 26.3273C43.6937 26.0343 43.3128 25.8878 42.8311 25.8878C42.3525 25.8878 41.9733 26.0359 41.6934 26.3322C41.4134 26.6251 41.2734 27.0206 41.2734 27.5187V30.1798Z" fill="#F5F5F5"/>
<path d="M11.7668 17.9396C11.7668 17.4448 11.7978 16.9809 11.8596 16.548C11.9247 16.115 12.0419 15.7391 12.2112 15.42C12.3837 15.0978 12.6197 14.8455 12.9192 14.6632C13.2187 14.4809 13.6044 14.3898 14.0764 14.3898C14.5484 14.3898 14.9342 14.4809 15.2336 14.6632C15.5364 14.8455 15.7724 15.0978 15.9417 15.42C16.1142 15.7391 16.2314 16.115 16.2932 16.548C16.3551 16.9809 16.386 17.4448 16.386 17.9396C16.386 18.4344 16.3551 18.8982 16.2932 19.3312C16.2314 19.7609 16.1142 20.1368 15.9417 20.4591C15.7724 20.7781 15.538 21.0304 15.2385 21.2159C14.939 21.3982 14.5517 21.4894 14.0764 21.4894C13.6044 21.4894 13.2187 21.3982 12.9192 21.2159C12.6197 21.0304 12.3837 20.7781 12.2112 20.4591C12.0419 20.1368 11.9247 19.7592 11.8596 19.3263C11.7978 18.8934 11.7668 18.4311 11.7668 17.9396ZM12.5188 19.2677C12.5188 19.769 12.6588 20.1661 12.9387 20.4591C13.2187 20.7521 13.5979 20.8986 14.0764 20.8986C14.5549 20.8986 14.9342 20.7521 15.2141 20.4591C15.4973 20.1661 15.6389 19.769 15.6389 19.2677V16.6066C15.6389 16.1053 15.4989 15.7081 15.219 15.4152C14.939 15.1222 14.5582 14.9757 14.0764 14.9757C13.5979 14.9757 13.2187 15.1238 12.9387 15.42C12.6588 15.713 12.5188 16.1085 12.5188 16.6066V19.2677Z" fill="#F5F5F5"/>
<path d="M26.6763 21.338V20.7472H28.4243V15.9279H26.6763V15.337H28.4243V14.5363H29.0737V20.7472H30.6265V21.338H26.6763Z" fill="#F5F5F5"/>
<path d="M41.0537 21.338V20.7472H42.8018V15.9279H41.0537V15.337H42.8018V14.5363H43.4512V20.7472H45.0039V21.338H41.0537Z" fill="#F5F5F5"/>
<path d="M11.7668 7.02747C11.7668 6.53267 11.7978 6.06881 11.8596 5.63586C11.9247 5.20292 12.0419 4.82694 12.2112 4.50793C12.3837 4.18567 12.6197 3.93339 12.9192 3.7511C13.2187 3.56881 13.6044 3.47766 14.0764 3.47766C14.5484 3.47766 14.9342 3.56881 15.2336 3.7511C15.5364 3.93339 15.7724 4.18567 15.9417 4.50793C16.1142 4.82694 16.2314 5.20292 16.2932 5.63586C16.3551 6.06881 16.386 6.53267 16.386 7.02747C16.386 7.52226 16.3551 7.98612 16.2932 8.41907C16.2314 8.84875 16.1142 9.22473 15.9417 9.547C15.7724 9.86601 15.538 10.1183 15.2385 10.3038C14.939 10.4861 14.5517 10.5773 14.0764 10.5773C13.6044 10.5773 13.2187 10.4861 12.9192 10.3038C12.6197 10.1183 12.3837 9.86601 12.2112 9.547C12.0419 9.22473 11.9247 8.84713 11.8596 8.41418C11.7978 7.98124 11.7668 7.519 11.7668 7.02747ZM12.5188 8.35559C12.5188 8.85689 12.6588 9.25403 12.9387 9.547C13.2187 9.83997 13.5979 9.98645 14.0764 9.98645C14.5549 9.98645 14.9342 9.83997 15.2141 9.547C15.4973 9.25403 15.6389 8.85689 15.6389 8.35559V5.69446C15.6389 5.19316 15.4989 4.79602 15.219 4.50305C14.939 4.21008 14.5582 4.0636 14.0764 4.0636C13.5979 4.0636 13.2187 4.21171 12.9387 4.50793C12.6588 4.8009 12.5188 5.19641 12.5188 5.69446V8.35559Z" fill="#F5F5F5"/>
<path d="M26.6763 10.4259V9.83508H28.4243V5.01575H26.6763V4.42493H28.4243V3.62415H29.0737V9.83508H30.6265V10.4259H26.6763Z" fill="#F5F5F5"/>
<path d="M40.5215 7.02747C40.5215 6.53267 40.5524 6.06881 40.6143 5.63586C40.6794 5.20292 40.7965 4.82694 40.9658 4.50793C41.1383 4.18567 41.3743 3.93339 41.6738 3.7511C41.9733 3.56881 42.359 3.47766 42.8311 3.47766C43.3031 3.47766 43.6888 3.56881 43.9883 3.7511C44.291 3.93339 44.527 4.18567 44.6963 4.50793C44.8688 4.82694 44.986 5.20292 45.0479 5.63586C45.1097 6.06881 45.1406 6.53267 45.1406 7.02747C45.1406 7.52226 45.1097 7.98612 45.0479 8.41907C44.986 8.84875 44.8688 9.22473 44.6963 9.547C44.527 9.86601 44.2926 10.1183 43.9932 10.3038C43.6937 10.4861 43.3063 10.5773 42.8311 10.5773C42.359 10.5773 41.9733 10.4861 41.6738 10.3038C41.3743 10.1183 41.1383 9.86601 40.9658 9.547C40.7965 9.22473 40.6794 8.84713 40.6143 8.41418C40.5524 7.98124 40.5215 7.519 40.5215 7.02747ZM41.2734 8.35559C41.2734 8.85689 41.4134 9.25403 41.6934 9.547C41.9733 9.83997 42.3525 9.98645 42.8311 9.98645C43.3096 9.98645 43.6888 9.83997 43.9688 9.547C44.252 9.25403 44.3936 8.85689 44.3936 8.35559V5.69446C44.3936 5.19316 44.2536 4.79602 43.9736 4.50305C43.6937 4.21008 43.3128 4.0636 42.8311 4.0636C42.3525 4.0636 41.9733 4.21171 41.6934 4.50793C41.4134 4.8009 41.2734 5.19641 41.2734 5.69446V8.35559Z" fill="#F5F5F5"/>
<path d="M1.0459 0.397949V121.965" stroke="#F5F5F5" stroke-width="0.75"/>
<path d="M96.0142 0.397949V121.965" stroke="#F5F5F5" stroke-width="0.75"/>
<rect x="38.5303" y="101.965" width="20" height="20" fill="#F5F5F5"/>
<rect x="18.5303" y="101.965" width="20" height="20" fill="#F5F5F5"/>
<rect x="38.5303" y="81.9652" width="20" height="20" fill="#F5F5F5"/>
<rect x="38.5303" y="61.9652" width="20" height="20" fill="#F5F5F5"/>
<rect x="58.5303" y="81.9652" width="20" height="20" fill="#F5F5F5"/>
</svg>
