<svg width="97" height="122" viewBox="0 0 97 122" fill="none" xmlns="http://www.w3.org/2000/svg">
<path d="M6.72729 35.0545V0.174316H8.91092V0.809762H7.43206V34.419H8.91092V35.0545H6.72729Z" fill="#F5F5F5"/>
<path d="M50.1208 35.0545V0.174316H47.9372V0.809762H49.4161V34.419H47.9372V35.0545H50.1208Z" fill="#F5F5F5"/>
<path d="M11.7351 28.6281C11.7351 28.1333 11.766 27.6694 11.8279 27.2365C11.893 26.8035 12.0102 26.4275 12.1794 26.1085C12.352 25.7863 12.588 25.534 12.8875 25.3517C13.1869 25.1694 13.5727 25.0782 14.0447 25.0782C14.5167 25.0782 14.9024 25.1694 15.2019 25.3517C15.5046 25.534 15.7406 25.7863 15.9099 26.1085C16.0824 26.4275 16.1996 26.8035 16.2615 27.2365C16.3233 27.6694 16.3542 28.1333 16.3542 28.6281C16.3542 29.1228 16.3233 29.5867 16.2615 30.0197C16.1996 30.4493 16.0824 30.8253 15.9099 31.1476C15.7406 31.4666 15.5063 31.7189 15.2068 31.9044C14.9073 32.0867 14.5199 32.1779 14.0447 32.1779C13.5727 32.1779 13.1869 32.0867 12.8875 31.9044C12.588 31.7189 12.352 31.4666 12.1794 31.1476C12.0102 30.8253 11.893 30.4477 11.8279 30.0148C11.766 29.5818 11.7351 29.1196 11.7351 28.6281ZM12.4871 29.9562C12.4871 30.4575 12.627 30.8546 12.907 31.1476C13.1869 31.4406 13.5662 31.587 14.0447 31.587C14.5232 31.587 14.9024 31.4406 15.1824 31.1476C15.4656 30.8546 15.6072 30.4575 15.6072 29.9562V27.295C15.6072 26.7937 15.4672 26.3966 15.1873 26.1036C14.9073 25.8107 14.5264 25.6642 14.0447 25.6642C13.5662 25.6642 13.1869 25.8123 12.907 26.1085C12.627 26.4015 12.4871 26.797 12.4871 27.295V29.9562Z" fill="#F5F5F5"/>
<path d="M26.1123 28.6281C26.1123 28.1333 26.1432 27.6694 26.2051 27.2365C26.2702 26.8035 26.3874 26.4275 26.5566 26.1085C26.7292 25.7863 26.9652 25.534 27.2646 25.3517C27.5641 25.1694 27.9499 25.0782 28.4219 25.0782C28.8939 25.0782 29.2796 25.1694 29.5791 25.3517C29.8818 25.534 30.1178 25.7863 30.2871 26.1085C30.4596 26.4275 30.5768 26.8035 30.6387 27.2365C30.7005 27.6694 30.7314 28.1333 30.7314 28.6281C30.7314 29.1228 30.7005 29.5867 30.6387 30.0197C30.5768 30.4493 30.4596 30.8253 30.2871 31.1476C30.1178 31.4666 29.8835 31.7189 29.584 31.9044C29.2845 32.0867 28.8971 32.1779 28.4219 32.1779C27.9499 32.1779 27.5641 32.0867 27.2646 31.9044C26.9652 31.7189 26.7292 31.4666 26.5566 31.1476C26.3874 30.8253 26.2702 30.4477 26.2051 30.0148C26.1432 29.5818 26.1123 29.1196 26.1123 28.6281ZM26.8643 29.9562C26.8643 30.4575 27.0042 30.8546 27.2842 31.1476C27.5641 31.4406 27.9434 31.587 28.4219 31.587C28.9004 31.587 29.2796 31.4406 29.5596 31.1476C29.8428 30.8546 29.9844 30.4575 29.9844 29.9562V27.295C29.9844 26.7937 29.8444 26.3966 29.5645 26.1036C29.2845 25.8107 28.9036 25.6642 28.4219 25.6642C27.9434 25.6642 27.5641 25.8123 27.2842 26.1085C27.0042 26.4015 26.8643 26.797 26.8643 27.295V29.9562Z" fill="#F5F5F5"/>
<path d="M72.7496 32.2023V15.8781H75.3864L80.3082 29.4952H80.402L85.3004 15.8781H87.8903V32.2023H86.2848V18.0929H86.191L81.0231 32.2023H79.6403L74.4489 18.0929H74.3551V32.2023H72.7496Z" fill="#F5F5F5"/>
<path d="M40.4897 28.6281C40.4897 28.1333 40.5207 27.6694 40.5825 27.2365C40.6476 26.8035 40.7648 26.4275 40.9341 26.1085C41.1066 25.7863 41.3426 25.534 41.6421 25.3517C41.9416 25.1694 42.3273 25.0782 42.7993 25.0782C43.2713 25.0782 43.6571 25.1694 43.9565 25.3517C44.2593 25.534 44.4953 25.7863 44.6646 26.1085C44.8371 26.4275 44.9543 26.8035 45.0161 27.2365C45.078 27.6694 45.1089 28.1333 45.1089 28.6281C45.1089 29.1228 45.078 29.5867 45.0161 30.0197C44.9543 30.4493 44.8371 30.8253 44.6646 31.1476C44.4953 31.4666 44.2609 31.7189 43.9614 31.9044C43.6619 32.0867 43.2746 32.1779 42.7993 32.1779C42.3273 32.1779 41.9416 32.0867 41.6421 31.9044C41.3426 31.7189 41.1066 31.4666 40.9341 31.1476C40.7648 30.8253 40.6476 30.4477 40.5825 30.0148C40.5207 29.5818 40.4897 29.1196 40.4897 28.6281ZM41.2417 29.9562C41.2417 30.4575 41.3817 30.8546 41.6616 31.1476C41.9416 31.4406 42.3208 31.587 42.7993 31.587C43.2778 31.587 43.6571 31.4406 43.937 31.1476C44.2202 30.8546 44.3618 30.4575 44.3618 29.9562V27.295C44.3618 26.7937 44.2218 26.3966 43.9419 26.1036C43.6619 25.8107 43.2811 25.6642 42.7993 25.6642C42.3208 25.6642 41.9416 25.8123 41.6616 26.1085C41.3817 26.4015 41.2417 26.797 41.2417 27.295V29.9562Z" fill="#F5F5F5"/>
<path d="M11.7351 17.7159C11.7351 17.2212 11.766 16.7573 11.8279 16.3243C11.893 15.8914 12.0102 15.5154 12.1794 15.1964C12.352 14.8741 12.588 14.6219 12.8875 14.4396C13.1869 14.2573 13.5727 14.1661 14.0447 14.1661C14.5167 14.1661 14.9024 14.2573 15.2019 14.4396C15.5046 14.6219 15.7406 14.8741 15.9099 15.1964C16.0824 15.5154 16.1996 15.8914 16.2615 16.3243C16.3233 16.7573 16.3542 17.2212 16.3542 17.7159C16.3542 18.2107 16.3233 18.6746 16.2615 19.1075C16.1996 19.5372 16.0824 19.9132 15.9099 20.2355C15.7406 20.5545 15.5063 20.8068 15.2068 20.9923C14.9073 21.1746 14.5199 21.2657 14.0447 21.2657C13.5727 21.2657 13.1869 21.1746 12.8875 20.9923C12.588 20.8068 12.352 20.5545 12.1794 20.2355C12.0102 19.9132 11.893 19.5356 11.8279 19.1027C11.766 18.6697 11.7351 18.2075 11.7351 17.7159ZM12.4871 19.0441C12.4871 19.5454 12.627 19.9425 12.907 20.2355C13.1869 20.5284 13.5662 20.6749 14.0447 20.6749C14.5232 20.6749 14.9024 20.5284 15.1824 20.2355C15.4656 19.9425 15.6072 19.5454 15.6072 19.0441V16.3829C15.6072 15.8816 15.4672 15.4845 15.1873 15.1915C14.9073 14.8986 14.5264 14.7521 14.0447 14.7521C13.5662 14.7521 13.1869 14.9002 12.907 15.1964C12.627 15.4894 12.4871 15.8849 12.4871 16.3829V19.0441Z" fill="#F5F5F5"/>
<path d="M26.6445 21.1144V20.5236H28.3926V15.7042H26.6445V15.1134H28.3926V14.3126H29.042V20.5236H30.5947V21.1144H26.6445Z" fill="#F5F5F5"/>
<path d="M40.4897 17.7159C40.4897 17.2212 40.5207 16.7573 40.5825 16.3243C40.6476 15.8914 40.7648 15.5154 40.9341 15.1964C41.1066 14.8741 41.3426 14.6219 41.6421 14.4396C41.9416 14.2573 42.3273 14.1661 42.7993 14.1661C43.2713 14.1661 43.6571 14.2573 43.9565 14.4396C44.2593 14.6219 44.4953 14.8741 44.6646 15.1964C44.8371 15.5154 44.9543 15.8914 45.0161 16.3243C45.078 16.7573 45.1089 17.2212 45.1089 17.7159C45.1089 18.2107 45.078 18.6746 45.0161 19.1075C44.9543 19.5372 44.8371 19.9132 44.6646 20.2355C44.4953 20.5545 44.2609 20.8068 43.9614 20.9923C43.6619 21.1746 43.2746 21.2657 42.7993 21.2657C42.3273 21.2657 41.9416 21.1746 41.6421 20.9923C41.3426 20.8068 41.1066 20.5545 40.9341 20.2355C40.7648 19.9132 40.6476 19.5356 40.5825 19.1027C40.5207 18.6697 40.4897 18.2075 40.4897 17.7159ZM41.2417 19.0441C41.2417 19.5454 41.3817 19.9425 41.6616 20.2355C41.9416 20.5284 42.3208 20.6749 42.7993 20.6749C43.2778 20.6749 43.6571 20.5284 43.937 20.2355C44.2202 19.9425 44.3618 19.5454 44.3618 19.0441V16.3829C44.3618 15.8816 44.2218 15.4845 43.9419 15.1915C43.6619 14.8986 43.2811 14.7521 42.7993 14.7521C42.3208 14.7521 41.9416 14.9002 41.6616 15.1964C41.3817 15.4894 41.2417 15.8849 41.2417 16.3829V19.0441Z" fill="#F5F5F5"/>
<path d="M12.2673 10.2023V9.61145H14.0154V4.79211H12.2673V4.20129H14.0154V3.40051H14.6648V9.61145H16.2175V10.2023H12.2673Z" fill="#F5F5F5"/>
<path d="M26.1123 6.80383C26.1123 6.30904 26.1432 5.84517 26.2051 5.41223C26.2702 4.97929 26.3874 4.60331 26.5566 4.2843C26.7292 3.96204 26.9652 3.70976 27.2646 3.52747C27.5641 3.34517 27.9499 3.25403 28.4219 3.25403C28.8939 3.25403 29.2796 3.34517 29.5791 3.52747C29.8818 3.70976 30.1178 3.96204 30.2871 4.2843C30.4596 4.60331 30.5768 4.97929 30.6387 5.41223C30.7005 5.84517 30.7314 6.30904 30.7314 6.80383C30.7314 7.29862 30.7005 7.76249 30.6387 8.19543C30.5768 8.62512 30.4596 9.0011 30.2871 9.32336C30.1178 9.64237 29.8835 9.89465 29.584 10.0802C29.2845 10.2625 28.8971 10.3536 28.4219 10.3536C27.9499 10.3536 27.5641 10.2625 27.2646 10.0802C26.9652 9.89465 26.7292 9.64237 26.5566 9.32336C26.3874 9.0011 26.2702 8.62349 26.2051 8.19055C26.1432 7.75761 26.1123 7.29537 26.1123 6.80383ZM26.8643 8.13196C26.8643 8.63326 27.0042 9.0304 27.2842 9.32336C27.5641 9.61633 27.9434 9.76282 28.4219 9.76282C28.9004 9.76282 29.2796 9.61633 29.5596 9.32336C29.8428 9.0304 29.9844 8.63326 29.9844 8.13196V5.47083C29.9844 4.96952 29.8444 4.57239 29.5645 4.27942C29.2845 3.98645 28.9036 3.83997 28.4219 3.83997C27.9434 3.83997 27.5641 3.98808 27.2842 4.2843C27.0042 4.57727 26.8643 4.97278 26.8643 5.47083V8.13196Z" fill="#F5F5F5"/>
<path d="M41.022 10.2023V9.61145H42.77V4.79211H41.022V4.20129H42.77V3.40051H43.4194V9.61145H44.9722V10.2023H41.022Z" fill="#F5F5F5"/>
<path d="M1.01416 0.174316V121.742" stroke="#F5F5F5" stroke-width="0.75"/>
<path d="M95.9824 0.174316V121.742" stroke="#F5F5F5" stroke-width="0.75"/>
<rect x="58.4983" y="61.7416" width="20" height="20" fill="#F5F5F5"/>
<rect x="18.4983" y="61.7416" width="20" height="20" fill="#F5F5F5"/>
<rect x="38.4983" y="81.7416" width="20" height="20" fill="#F5F5F5"/>
</svg>
