<svg width="97" height="123" viewBox="0 0 97 123" fill="none" xmlns="http://www.w3.org/2000/svg">
<path d="M6.79077 35.4319V0.551758H8.97439V1.1872H7.49554V34.7965H8.97439V35.4319H6.79077Z" fill="#F5F5F5"/>
<path d="M50.1843 35.4319V0.551758H48.0007V1.1872H49.4796V34.7965H48.0007V35.4319H50.1843Z" fill="#F5F5F5"/>
<path d="M11.7986 29.0055C11.7986 28.5107 11.8295 28.0468 11.8914 27.6139C11.9565 27.1809 12.0736 26.805 12.2429 26.486C12.4154 26.1637 12.6514 25.9114 12.9509 25.7291C13.2504 25.5468 13.6361 25.4557 14.1082 25.4557C14.5802 25.4557 14.9659 25.5468 15.2654 25.7291C15.5681 25.9114 15.8041 26.1637 15.9734 26.486C16.1459 26.805 16.2631 27.1809 16.325 27.6139C16.3868 28.0468 16.4177 28.5107 16.4177 29.0055C16.4177 29.5003 16.3868 29.9642 16.325 30.3971C16.2631 30.8268 16.1459 31.2028 15.9734 31.525C15.8041 31.844 15.5697 32.0963 15.2703 32.2819C14.9708 32.4642 14.5834 32.5553 14.1082 32.5553C13.6361 32.5553 13.2504 32.4642 12.9509 32.2819C12.6514 32.0963 12.4154 31.844 12.2429 31.525C12.0736 31.2028 11.9565 30.8252 11.8914 30.3922C11.8295 29.9593 11.7986 29.497 11.7986 29.0055ZM12.5505 30.3336C12.5505 30.8349 12.6905 31.2321 12.9705 31.525C13.2504 31.818 13.6296 31.9645 14.1082 31.9645C14.5867 31.9645 14.9659 31.818 15.2458 31.525C15.5291 31.2321 15.6707 30.8349 15.6707 30.3336V27.6725C15.6707 27.1712 15.5307 26.774 15.2507 26.4811C14.9708 26.1881 14.5899 26.0416 14.1082 26.0416C13.6296 26.0416 13.2504 26.1897 12.9705 26.486C12.6905 26.7789 12.5505 27.1744 12.5505 27.6725V30.3336Z" fill="#F5F5F5"/>
<path d="M26.1758 29.0055C26.1758 28.5107 26.2067 28.0468 26.2686 27.6139C26.3337 27.1809 26.4508 26.805 26.6201 26.486C26.7926 26.1637 27.0286 25.9114 27.3281 25.7291C27.6276 25.5468 28.0133 25.4557 28.4854 25.4557C28.9574 25.4557 29.3431 25.5468 29.6426 25.7291C29.9453 25.9114 30.1813 26.1637 30.3506 26.486C30.5231 26.805 30.6403 27.1809 30.7021 27.6139C30.764 28.0468 30.7949 28.5107 30.7949 29.0055C30.7949 29.5003 30.764 29.9642 30.7021 30.3971C30.6403 30.8268 30.5231 31.2028 30.3506 31.525C30.1813 31.844 29.9469 32.0963 29.6475 32.2819C29.348 32.4642 28.9606 32.5553 28.4854 32.5553C28.0133 32.5553 27.6276 32.4642 27.3281 32.2819C27.0286 32.0963 26.7926 31.844 26.6201 31.525C26.4508 31.2028 26.3337 30.8252 26.2686 30.3922C26.2067 29.9593 26.1758 29.497 26.1758 29.0055ZM26.9277 30.3336C26.9277 30.8349 27.0677 31.2321 27.3477 31.525C27.6276 31.818 28.0068 31.9645 28.4854 31.9645C28.9639 31.9645 29.3431 31.818 29.623 31.525C29.9062 31.2321 30.0479 30.8349 30.0479 30.3336V27.6725C30.0479 27.1712 29.9079 26.774 29.6279 26.4811C29.348 26.1881 28.9671 26.0416 28.4854 26.0416C28.0068 26.0416 27.6276 26.1897 27.3477 26.486C27.0677 26.7789 26.9277 27.1744 26.9277 27.6725V30.3336Z" fill="#F5F5F5"/>
<path d="M77.8873 32.5797V30.8219L84.5787 24.2946C84.8678 24.0055 85.1295 23.7399 85.3639 23.4977C85.5983 23.2477 85.7975 22.9781 85.9615 22.6891C86.1334 22.4 86.2662 22.0875 86.36 21.7516C86.4537 21.4156 86.5006 21.025 86.5006 20.5797C86.5006 19.5875 86.2115 18.7946 85.6334 18.2008C85.0631 17.6071 84.274 17.3102 83.2662 17.3102C82.1803 17.3102 81.3053 17.6305 80.6412 18.2711C79.985 18.9117 79.6412 19.8024 79.61 20.943H78.0045C78.0201 20.193 78.1608 19.5055 78.4264 18.8805C78.692 18.2555 79.0553 17.7242 79.5162 17.2867C79.985 16.8414 80.5358 16.5016 81.1686 16.2672C81.8092 16.025 82.5084 15.9039 83.2662 15.9039C84.7897 15.9039 85.9811 16.3219 86.8405 17.1578C87.6998 17.986 88.1295 19.1266 88.1295 20.5797C88.1295 21.2047 88.0475 21.7633 87.8834 22.2555C87.7272 22.7399 87.5201 23.1813 87.2623 23.5797C87.0123 23.9781 86.7311 24.3375 86.4186 24.6578C86.1061 24.9781 85.7975 25.2828 85.4928 25.5719L79.6334 31.1149V31.1617H88.4225V32.5797H77.8873Z" fill="#F5F5F5"/>
<path d="M41.0854 32.4039V31.8131H42.8335V26.9938H41.0854V26.403H42.8335V25.6022H43.4829V31.8131H45.0356V32.4039H41.0854Z" fill="#F5F5F5"/>
<path d="M11.7986 18.0934C11.7986 17.5986 11.8295 17.1347 11.8914 16.7018C11.9565 16.2688 12.0736 15.8929 12.2429 15.5739C12.4154 15.2516 12.6514 14.9993 12.9509 14.817C13.2504 14.6347 13.6361 14.5436 14.1082 14.5436C14.5802 14.5436 14.9659 14.6347 15.2654 14.817C15.5681 14.9993 15.8041 15.2516 15.9734 15.5739C16.1459 15.8929 16.2631 16.2688 16.325 16.7018C16.3868 17.1347 16.4177 17.5986 16.4177 18.0934C16.4177 18.5882 16.3868 19.052 16.325 19.485C16.2631 19.9147 16.1459 20.2906 15.9734 20.6129C15.8041 20.9319 15.5697 21.1842 15.2703 21.3698C14.9708 21.552 14.5834 21.6432 14.1082 21.6432C13.6361 21.6432 13.2504 21.552 12.9509 21.3698C12.6514 21.1842 12.4154 20.9319 12.2429 20.6129C12.0736 20.2906 11.9565 19.913 11.8914 19.4801C11.8295 19.0472 11.7986 18.5849 11.7986 18.0934ZM12.5505 19.4215C12.5505 19.9228 12.6905 20.3199 12.9705 20.6129C13.2504 20.9059 13.6296 21.0524 14.1082 21.0524C14.5867 21.0524 14.9659 20.9059 15.2458 20.6129C15.5291 20.3199 15.6707 19.9228 15.6707 19.4215V16.7604C15.6707 16.2591 15.5307 15.8619 15.2507 15.569C14.9708 15.276 14.5899 15.1295 14.1082 15.1295C13.6296 15.1295 13.2504 15.2776 12.9705 15.5739C12.6905 15.8668 12.5505 16.2623 12.5505 16.7604V19.4215Z" fill="#F5F5F5"/>
<path d="M26.1758 18.0934C26.1758 17.5986 26.2067 17.1347 26.2686 16.7018C26.3337 16.2688 26.4508 15.8929 26.6201 15.5739C26.7926 15.2516 27.0286 14.9993 27.3281 14.817C27.6276 14.6347 28.0133 14.5436 28.4854 14.5436C28.9574 14.5436 29.3431 14.6347 29.6426 14.817C29.9453 14.9993 30.1813 15.2516 30.3506 15.5739C30.5231 15.8929 30.6403 16.2688 30.7021 16.7018C30.764 17.1347 30.7949 17.5986 30.7949 18.0934C30.7949 18.5882 30.764 19.052 30.7021 19.485C30.6403 19.9147 30.5231 20.2906 30.3506 20.6129C30.1813 20.9319 29.9469 21.1842 29.6475 21.3698C29.348 21.552 28.9606 21.6432 28.4854 21.6432C28.0133 21.6432 27.6276 21.552 27.3281 21.3698C27.0286 21.1842 26.7926 20.9319 26.6201 20.6129C26.4508 20.2906 26.3337 19.913 26.2686 19.4801C26.2067 19.0472 26.1758 18.5849 26.1758 18.0934ZM26.9277 19.4215C26.9277 19.9228 27.0677 20.3199 27.3477 20.6129C27.6276 20.9059 28.0068 21.0524 28.4854 21.0524C28.9639 21.0524 29.3431 20.9059 29.623 20.6129C29.9062 20.3199 30.0479 19.9228 30.0479 19.4215V16.7604C30.0479 16.2591 29.9079 15.8619 29.6279 15.569C29.348 15.276 28.9671 15.1295 28.4854 15.1295C28.0068 15.1295 27.6276 15.2776 27.3477 15.5739C27.0677 15.8668 26.9277 16.2623 26.9277 16.7604V19.4215Z" fill="#F5F5F5"/>
<path d="M40.5532 18.0934C40.5532 17.5986 40.5841 17.1347 40.646 16.7018C40.7111 16.2688 40.8283 15.8929 40.9976 15.5739C41.1701 15.2516 41.4061 14.9993 41.7056 14.817C42.005 14.6347 42.3908 14.5436 42.8628 14.5436C43.3348 14.5436 43.7205 14.6347 44.02 14.817C44.3228 14.9993 44.5588 15.2516 44.728 15.5739C44.9006 15.8929 45.0177 16.2688 45.0796 16.7018C45.1414 17.1347 45.1724 17.5986 45.1724 18.0934C45.1724 18.5882 45.1414 19.052 45.0796 19.485C45.0177 19.9147 44.9006 20.2906 44.728 20.6129C44.5588 20.9319 44.3244 21.1842 44.0249 21.3698C43.7254 21.552 43.3381 21.6432 42.8628 21.6432C42.3908 21.6432 42.005 21.552 41.7056 21.3698C41.4061 21.1842 41.1701 20.9319 40.9976 20.6129C40.8283 20.2906 40.7111 19.913 40.646 19.4801C40.5841 19.0472 40.5532 18.5849 40.5532 18.0934ZM41.3052 19.4215C41.3052 19.9228 41.4451 20.3199 41.7251 20.6129C42.005 20.9059 42.3843 21.0524 42.8628 21.0524C43.3413 21.0524 43.7205 20.9059 44.0005 20.6129C44.2837 20.3199 44.4253 19.9228 44.4253 19.4215V16.7604C44.4253 16.2591 44.2853 15.8619 44.0054 15.569C43.7254 15.276 43.3446 15.1295 42.8628 15.1295C42.3843 15.1295 42.005 15.2776 41.7251 15.5739C41.4451 15.8668 41.3052 16.2623 41.3052 16.7604V19.4215Z" fill="#F5F5F5"/>
<path d="M12.3308 10.5797V9.98889H14.0789V5.16956H12.3308V4.57874H14.0789V3.77795H14.7283V9.98889H16.281V10.5797H12.3308Z" fill="#F5F5F5"/>
<path d="M26.1758 7.18127C26.1758 6.68648 26.2067 6.22262 26.2686 5.78967C26.3337 5.35673 26.4508 4.98075 26.6201 4.66174C26.7926 4.33948 27.0286 4.0872 27.3281 3.90491C27.6276 3.72262 28.0133 3.63147 28.4854 3.63147C28.9574 3.63147 29.3431 3.72262 29.6426 3.90491C29.9453 4.0872 30.1813 4.33948 30.3506 4.66174C30.5231 4.98075 30.6403 5.35673 30.7021 5.78967C30.764 6.22262 30.7949 6.68648 30.7949 7.18127C30.7949 7.67607 30.764 8.13993 30.7021 8.57288C30.6403 9.00256 30.5231 9.37854 30.3506 9.70081C30.1813 10.0198 29.9469 10.2721 29.6475 10.4576C29.348 10.6399 28.9606 10.7311 28.4854 10.7311C28.0133 10.7311 27.6276 10.6399 27.3281 10.4576C27.0286 10.2721 26.7926 10.0198 26.6201 9.70081C26.4508 9.37854 26.3337 9.00094 26.2686 8.56799C26.2067 8.13505 26.1758 7.67281 26.1758 7.18127ZM26.9277 8.5094C26.9277 9.0107 27.0677 9.40784 27.3477 9.70081C27.6276 9.99377 28.0068 10.1403 28.4854 10.1403C28.9639 10.1403 29.3431 9.99377 29.623 9.70081C29.9062 9.40784 30.0479 9.0107 30.0479 8.5094V5.84827C30.0479 5.34696 29.9079 4.94983 29.6279 4.65686C29.348 4.36389 28.9671 4.21741 28.4854 4.21741C28.0068 4.21741 27.6276 4.36552 27.3477 4.66174C27.0677 4.95471 26.9277 5.35022 26.9277 5.84827V8.5094Z" fill="#F5F5F5"/>
<path d="M40.5532 7.18127C40.5532 6.68648 40.5841 6.22262 40.646 5.78967C40.7111 5.35673 40.8283 4.98075 40.9976 4.66174C41.1701 4.33948 41.4061 4.0872 41.7056 3.90491C42.005 3.72262 42.3908 3.63147 42.8628 3.63147C43.3348 3.63147 43.7205 3.72262 44.02 3.90491C44.3228 4.0872 44.5588 4.33948 44.728 4.66174C44.9006 4.98075 45.0177 5.35673 45.0796 5.78967C45.1414 6.22262 45.1724 6.68648 45.1724 7.18127C45.1724 7.67607 45.1414 8.13993 45.0796 8.57288C45.0177 9.00256 44.9006 9.37854 44.728 9.70081C44.5588 10.0198 44.3244 10.2721 44.0249 10.4576C43.7254 10.6399 43.3381 10.7311 42.8628 10.7311C42.3908 10.7311 42.005 10.6399 41.7056 10.4576C41.4061 10.2721 41.1701 10.0198 40.9976 9.70081C40.8283 9.37854 40.7111 9.00094 40.646 8.56799C40.5841 8.13505 40.5532 7.67281 40.5532 7.18127ZM41.3052 8.5094C41.3052 9.0107 41.4451 9.40784 41.7251 9.70081C42.005 9.99377 42.3843 10.1403 42.8628 10.1403C43.3413 10.1403 43.7205 9.99377 44.0005 9.70081C44.2837 9.40784 44.4253 9.0107 44.4253 8.5094V5.84827C44.4253 5.34696 44.2853 4.94983 44.0054 4.65686C43.7254 4.36389 43.3446 4.21741 42.8628 4.21741C42.3843 4.21741 42.005 4.36552 41.7251 4.66174C41.4451 4.95471 41.3052 5.35022 41.3052 5.84827V8.5094Z" fill="#F5F5F5"/>
<path d="M1.07764 0.551758V122.119" stroke="#F5F5F5" stroke-width="0.75"/>
<path d="M96.0459 0.551758V122.119" stroke="#F5F5F5" stroke-width="0.75"/>
<rect x="58.5618" y="102.119" width="20" height="20" fill="#F5F5F5"/>
<rect x="18.5618" y="62.119" width="20" height="20" fill="#F5F5F5"/>
</svg>
