<svg width="97" height="122" viewBox="0 0 97 122" fill="none" xmlns="http://www.w3.org/2000/svg">
<path d="M6.72729 35.0474V0.167236H8.91092V0.802682H7.43206V34.412H8.91092V35.0474H6.72729Z" fill="#F5F5F5"/>
<path d="M50.1208 35.0474V0.167236H47.9372V0.802682H49.4161V34.412H47.9372V35.0474H50.1208Z" fill="#F5F5F5"/>
<path d="M12.2673 32.0194V31.4286H14.0154V26.6093H12.2673V26.0184H14.0154V25.2177H14.6648V31.4286H16.2175V32.0194H12.2673Z" fill="#F5F5F5"/>
<path d="M26.1123 28.621C26.1123 28.1262 26.1432 27.6623 26.2051 27.2294C26.2702 26.7964 26.3874 26.4205 26.5566 26.1014C26.7292 25.7792 26.9652 25.5269 27.2646 25.3446C27.5641 25.1623 27.9499 25.0712 28.4219 25.0712C28.8939 25.0712 29.2796 25.1623 29.5791 25.3446C29.8818 25.5269 30.1178 25.7792 30.2871 26.1014C30.4596 26.4205 30.5768 26.7964 30.6387 27.2294C30.7005 27.6623 30.7314 28.1262 30.7314 28.621C30.7314 29.1158 30.7005 29.5796 30.6387 30.0126C30.5768 30.4423 30.4596 30.8182 30.2871 31.1405C30.1178 31.4595 29.8835 31.7118 29.584 31.8973C29.2845 32.0796 28.8971 32.1708 28.4219 32.1708C27.9499 32.1708 27.5641 32.0796 27.2646 31.8973C26.9652 31.7118 26.7292 31.4595 26.5566 31.1405C26.3874 30.8182 26.2702 30.4406 26.2051 30.0077C26.1432 29.5747 26.1123 29.1125 26.1123 28.621ZM26.8643 29.9491C26.8643 30.4504 27.0042 30.8475 27.2842 31.1405C27.5641 31.4335 27.9434 31.58 28.4219 31.58C28.9004 31.58 29.2796 31.4335 29.5596 31.1405C29.8428 30.8475 29.9844 30.4504 29.9844 29.9491V27.288C29.9844 26.7867 29.8444 26.3895 29.5645 26.0966C29.2845 25.8036 28.9036 25.6571 28.4219 25.6571C27.9434 25.6571 27.5641 25.8052 27.2842 26.1014C27.0042 26.3944 26.8643 26.7899 26.8643 27.288V29.9491Z" fill="#F5F5F5"/>
<path d="M76.8278 32.1952V15.871H81.8668C84.2028 15.871 85.9137 16.5311 86.9996 17.8514C88.0856 19.1718 88.6285 21.2343 88.6285 24.0389C88.6285 26.8358 88.0856 28.8944 86.9996 30.2147C85.9137 31.535 84.2028 32.1952 81.8668 32.1952H76.8278ZM78.5035 30.6366H81.7965C83.3512 30.6366 84.5582 30.2694 85.4176 29.535C86.2848 28.7928 86.7184 27.7577 86.7184 26.4296V21.6366C86.7184 20.3085 86.2887 19.2772 85.4293 18.5428C84.5699 17.8007 83.3668 17.4296 81.8199 17.4296H78.5035V30.6366Z" fill="#F5F5F5"/>
<path d="M40.4897 28.621C40.4897 28.1262 40.5207 27.6623 40.5825 27.2294C40.6476 26.7964 40.7648 26.4205 40.9341 26.1014C41.1066 25.7792 41.3426 25.5269 41.6421 25.3446C41.9416 25.1623 42.3273 25.0712 42.7993 25.0712C43.2713 25.0712 43.6571 25.1623 43.9565 25.3446C44.2593 25.5269 44.4953 25.7792 44.6646 26.1014C44.8371 26.4205 44.9543 26.7964 45.0161 27.2294C45.078 27.6623 45.1089 28.1262 45.1089 28.621C45.1089 29.1158 45.078 29.5796 45.0161 30.0126C44.9543 30.4423 44.8371 30.8182 44.6646 31.1405C44.4953 31.4595 44.2609 31.7118 43.9614 31.8973C43.6619 32.0796 43.2746 32.1708 42.7993 32.1708C42.3273 32.1708 41.9416 32.0796 41.6421 31.8973C41.3426 31.7118 41.1066 31.4595 40.9341 31.1405C40.7648 30.8182 40.6476 30.4406 40.5825 30.0077C40.5207 29.5747 40.4897 29.1125 40.4897 28.621ZM41.2417 29.9491C41.2417 30.4504 41.3817 30.8475 41.6616 31.1405C41.9416 31.4335 42.3208 31.58 42.7993 31.58C43.2778 31.58 43.6571 31.4335 43.937 31.1405C44.2202 30.8475 44.3618 30.4504 44.3618 29.9491V27.288C44.3618 26.7867 44.2218 26.3895 43.9419 26.0966C43.6619 25.8036 43.2811 25.6571 42.7993 25.6571C42.3208 25.6571 41.9416 25.8052 41.6616 26.1014C41.3817 26.3944 41.2417 26.7899 41.2417 27.288V29.9491Z" fill="#F5F5F5"/>
<path d="M11.7351 17.7089C11.7351 17.2141 11.766 16.7502 11.8279 16.3173C11.893 15.8843 12.0102 15.5083 12.1794 15.1893C12.352 14.8671 12.588 14.6148 12.8875 14.4325C13.1869 14.2502 13.5727 14.1591 14.0447 14.1591C14.5167 14.1591 14.9024 14.2502 15.2019 14.4325C15.5046 14.6148 15.7406 14.8671 15.9099 15.1893C16.0824 15.5083 16.1996 15.8843 16.2615 16.3173C16.3233 16.7502 16.3542 17.2141 16.3542 17.7089C16.3542 18.2037 16.3233 18.6675 16.2615 19.1005C16.1996 19.5302 16.0824 19.9061 15.9099 20.2284C15.7406 20.5474 15.5063 20.7997 15.2068 20.9852C14.9073 21.1675 14.5199 21.2587 14.0447 21.2587C13.5727 21.2587 13.1869 21.1675 12.8875 20.9852C12.588 20.7997 12.352 20.5474 12.1794 20.2284C12.0102 19.9061 11.893 19.5285 11.8279 19.0956C11.766 18.6626 11.7351 18.2004 11.7351 17.7089ZM12.4871 19.037C12.4871 19.5383 12.627 19.9354 12.907 20.2284C13.1869 20.5214 13.5662 20.6678 14.0447 20.6678C14.5232 20.6678 14.9024 20.5214 15.1824 20.2284C15.4656 19.9354 15.6072 19.5383 15.6072 19.037V16.3759C15.6072 15.8746 15.4672 15.4774 15.1873 15.1844C14.9073 14.8915 14.5264 14.745 14.0447 14.745C13.5662 14.745 13.1869 14.8931 12.907 15.1893C12.627 15.4823 12.4871 15.8778 12.4871 16.3759V19.037Z" fill="#F5F5F5"/>
<path d="M26.1123 17.7089C26.1123 17.2141 26.1432 16.7502 26.2051 16.3173C26.2702 15.8843 26.3874 15.5083 26.5566 15.1893C26.7292 14.8671 26.9652 14.6148 27.2646 14.4325C27.5641 14.2502 27.9499 14.1591 28.4219 14.1591C28.8939 14.1591 29.2796 14.2502 29.5791 14.4325C29.8818 14.6148 30.1178 14.8671 30.2871 15.1893C30.4596 15.5083 30.5768 15.8843 30.6387 16.3173C30.7005 16.7502 30.7314 17.2141 30.7314 17.7089C30.7314 18.2037 30.7005 18.6675 30.6387 19.1005C30.5768 19.5302 30.4596 19.9061 30.2871 20.2284C30.1178 20.5474 29.8835 20.7997 29.584 20.9852C29.2845 21.1675 28.8971 21.2587 28.4219 21.2587C27.9499 21.2587 27.5641 21.1675 27.2646 20.9852C26.9652 20.7997 26.7292 20.5474 26.5566 20.2284C26.3874 19.9061 26.2702 19.5285 26.2051 19.0956C26.1432 18.6626 26.1123 18.2004 26.1123 17.7089ZM26.8643 19.037C26.8643 19.5383 27.0042 19.9354 27.2842 20.2284C27.5641 20.5214 27.9434 20.6678 28.4219 20.6678C28.9004 20.6678 29.2796 20.5214 29.5596 20.2284C29.8428 19.9354 29.9844 19.5383 29.9844 19.037V16.3759C29.9844 15.8746 29.8444 15.4774 29.5645 15.1844C29.2845 14.8915 28.9036 14.745 28.4219 14.745C27.9434 14.745 27.5641 14.8931 27.2842 15.1893C27.0042 15.4823 26.8643 15.8778 26.8643 16.3759V19.037Z" fill="#F5F5F5"/>
<path d="M41.022 21.1073V20.5165H42.77V15.6971H41.022V15.1063H42.77V14.3055H43.4194V20.5165H44.9722V21.1073H41.022Z" fill="#F5F5F5"/>
<path d="M12.2673 10.1952V9.60437H14.0154V4.78503H12.2673V4.19421H14.0154V3.39343H14.6648V9.60437H16.2175V10.1952H12.2673Z" fill="#F5F5F5"/>
<path d="M26.1123 6.79675C26.1123 6.30196 26.1432 5.83809 26.2051 5.40515C26.2702 4.97221 26.3874 4.59623 26.5566 4.27722C26.7292 3.95496 26.9652 3.70268 27.2646 3.52039C27.5641 3.33809 27.9499 3.24695 28.4219 3.24695C28.8939 3.24695 29.2796 3.33809 29.5791 3.52039C29.8818 3.70268 30.1178 3.95496 30.2871 4.27722C30.4596 4.59623 30.5768 4.97221 30.6387 5.40515C30.7005 5.83809 30.7314 6.30196 30.7314 6.79675C30.7314 7.29154 30.7005 7.75541 30.6387 8.18835C30.5768 8.61804 30.4596 8.99402 30.2871 9.31628C30.1178 9.63529 29.8835 9.88757 29.584 10.0731C29.2845 10.2554 28.8971 10.3466 28.4219 10.3466C27.9499 10.3466 27.5641 10.2554 27.2646 10.0731C26.9652 9.88757 26.7292 9.63529 26.5566 9.31628C26.3874 8.99402 26.2702 8.61641 26.2051 8.18347C26.1432 7.75053 26.1123 7.28829 26.1123 6.79675ZM26.8643 8.12488C26.8643 8.62618 27.0042 9.02332 27.2842 9.31628C27.5641 9.60925 27.9434 9.75574 28.4219 9.75574C28.9004 9.75574 29.2796 9.60925 29.5596 9.31628C29.8428 9.02332 29.9844 8.62618 29.9844 8.12488V5.46375C29.9844 4.96244 29.8444 4.56531 29.5645 4.27234C29.2845 3.97937 28.9036 3.83289 28.4219 3.83289C27.9434 3.83289 27.5641 3.981 27.2842 4.27722C27.0042 4.57019 26.8643 4.9657 26.8643 5.46375V8.12488Z" fill="#F5F5F5"/>
<path d="M40.4897 6.79675C40.4897 6.30196 40.5207 5.83809 40.5825 5.40515C40.6476 4.97221 40.7648 4.59623 40.9341 4.27722C41.1066 3.95496 41.3426 3.70268 41.6421 3.52039C41.9416 3.33809 42.3273 3.24695 42.7993 3.24695C43.2713 3.24695 43.6571 3.33809 43.9565 3.52039C44.2593 3.70268 44.4953 3.95496 44.6646 4.27722C44.8371 4.59623 44.9543 4.97221 45.0161 5.40515C45.078 5.83809 45.1089 6.30196 45.1089 6.79675C45.1089 7.29154 45.078 7.75541 45.0161 8.18835C44.9543 8.61804 44.8371 8.99402 44.6646 9.31628C44.4953 9.63529 44.2609 9.88757 43.9614 10.0731C43.6619 10.2554 43.2746 10.3466 42.7993 10.3466C42.3273 10.3466 41.9416 10.2554 41.6421 10.0731C41.3426 9.88757 41.1066 9.63529 40.9341 9.31628C40.7648 8.99402 40.6476 8.61641 40.5825 8.18347C40.5207 7.75053 40.4897 7.28829 40.4897 6.79675ZM41.2417 8.12488C41.2417 8.62618 41.3817 9.02332 41.6616 9.31628C41.9416 9.60925 42.3208 9.75574 42.7993 9.75574C43.2778 9.75574 43.6571 9.60925 43.937 9.31628C44.2202 9.02332 44.3618 8.62618 44.3618 8.12488V5.46375C44.3618 4.96244 44.2218 4.56531 43.9419 4.27234C43.6619 3.97937 43.2811 3.83289 42.7993 3.83289C42.3208 3.83289 41.9416 3.981 41.6616 4.27722C41.3817 4.57019 41.2417 4.9657 41.2417 5.46375V8.12488Z" fill="#F5F5F5"/>
<path d="M1.01416 0.167236V121.735" stroke="#F5F5F5" stroke-width="0.75"/>
<path d="M95.9824 0.167236V121.735" stroke="#F5F5F5" stroke-width="0.75"/>
<rect x="18.4983" y="61.7345" width="20" height="20" fill="#F5F5F5"/>
<rect x="18.4983" y="101.734" width="20" height="20" fill="#F5F5F5"/>
<rect x="58.4983" y="81.7345" width="20" height="20" fill="#F5F5F5"/>
</svg>
