<svg width="97" height="122" viewBox="0 0 97 122" fill="none" xmlns="http://www.w3.org/2000/svg">
<path d="M6.69556 35.0545V0.174316H8.87918V0.809762H7.40032V34.419H8.87918V35.0545H6.69556Z" fill="#F5F5F5"/>
<path d="M50.0891 35.0545V0.174316H47.9055V0.809762H49.3843V34.419H47.9055V35.0545H50.0891Z" fill="#F5F5F5"/>
<path d="M11.7034 28.6281C11.7034 28.1333 11.7343 27.6694 11.7961 27.2365C11.8612 26.8035 11.9784 26.4275 12.1477 26.1085C12.3202 25.7863 12.5562 25.534 12.8557 25.3517C13.1552 25.1694 13.5409 25.0782 14.0129 25.0782C14.4849 25.0782 14.8707 25.1694 15.1702 25.3517C15.4729 25.534 15.7089 25.7863 15.8782 26.1085C16.0507 26.4275 16.1679 26.8035 16.2297 27.2365C16.2916 27.6694 16.3225 28.1333 16.3225 28.6281C16.3225 29.1228 16.2916 29.5867 16.2297 30.0197C16.1679 30.4493 16.0507 30.8253 15.8782 31.1476C15.7089 31.4666 15.4745 31.7189 15.175 31.9044C14.8756 32.0867 14.4882 32.1779 14.0129 32.1779C13.5409 32.1779 13.1552 32.0867 12.8557 31.9044C12.5562 31.7189 12.3202 31.4666 12.1477 31.1476C11.9784 30.8253 11.8612 30.4477 11.7961 30.0148C11.7343 29.5818 11.7034 29.1196 11.7034 28.6281ZM12.4553 29.9562C12.4553 30.4575 12.5953 30.8546 12.8752 31.1476C13.1552 31.4406 13.5344 31.587 14.0129 31.587C14.4915 31.587 14.8707 31.4406 15.1506 31.1476C15.4338 30.8546 15.5754 30.4575 15.5754 29.9562V27.295C15.5754 26.7937 15.4355 26.3966 15.1555 26.1036C14.8756 25.8107 14.4947 25.6642 14.0129 25.6642C13.5344 25.6642 13.1552 25.8123 12.8752 26.1085C12.5953 26.4015 12.4553 26.797 12.4553 27.295V29.9562Z" fill="#F5F5F5"/>
<path d="M26.0806 28.6281C26.0806 28.1333 26.1115 27.6694 26.1733 27.2365C26.2384 26.8035 26.3556 26.4275 26.5249 26.1085C26.6974 25.7863 26.9334 25.534 27.2329 25.3517C27.5324 25.1694 27.9181 25.0782 28.3901 25.0782C28.8621 25.0782 29.2479 25.1694 29.5474 25.3517C29.8501 25.534 30.0861 25.7863 30.2554 26.1085C30.4279 26.4275 30.5451 26.8035 30.6069 27.2365C30.6688 27.6694 30.6997 28.1333 30.6997 28.6281C30.6997 29.1228 30.6688 29.5867 30.6069 30.0197C30.5451 30.4493 30.4279 30.8253 30.2554 31.1476C30.0861 31.4666 29.8517 31.7189 29.5522 31.9044C29.2528 32.0867 28.8654 32.1779 28.3901 32.1779C27.9181 32.1779 27.5324 32.0867 27.2329 31.9044C26.9334 31.7189 26.6974 31.4666 26.5249 31.1476C26.3556 30.8253 26.2384 30.4477 26.1733 30.0148C26.1115 29.5818 26.0806 29.1196 26.0806 28.6281ZM26.8325 29.9562C26.8325 30.4575 26.9725 30.8546 27.2524 31.1476C27.5324 31.4406 27.9116 31.587 28.3901 31.587C28.8687 31.587 29.2479 31.4406 29.5278 31.1476C29.811 30.8546 29.9526 30.4575 29.9526 29.9562V27.295C29.9526 26.7937 29.8127 26.3966 29.5327 26.1036C29.2528 25.8107 28.8719 25.6642 28.3901 25.6642C27.9116 25.6642 27.5324 25.8123 27.2524 26.1085C26.9725 26.4015 26.8325 26.797 26.8325 27.295V29.9562Z" fill="#F5F5F5"/>
<path d="M76.0695 32.2023V15.8781H78.7296L86.1007 30.3038H86.1945V15.8781H87.8468V32.2023H85.1866L77.8156 17.7531H77.7218V32.2023H76.0695Z" fill="#F5F5F5"/>
<path d="M40.9902 32.0265V31.4357H42.7383V26.6163H40.9902V26.0255H42.7383V25.2247H43.3877V31.4357H44.9404V32.0265H40.9902Z" fill="#F5F5F5"/>
<path d="M11.7034 17.7159C11.7034 17.2212 11.7343 16.7573 11.7961 16.3243C11.8612 15.8914 11.9784 15.5154 12.1477 15.1964C12.3202 14.8741 12.5562 14.6219 12.8557 14.4396C13.1552 14.2573 13.5409 14.1661 14.0129 14.1661C14.4849 14.1661 14.8707 14.2573 15.1702 14.4396C15.4729 14.6219 15.7089 14.8741 15.8782 15.1964C16.0507 15.5154 16.1679 15.8914 16.2297 16.3243C16.2916 16.7573 16.3225 17.2212 16.3225 17.7159C16.3225 18.2107 16.2916 18.6746 16.2297 19.1075C16.1679 19.5372 16.0507 19.9132 15.8782 20.2355C15.7089 20.5545 15.4745 20.8068 15.175 20.9923C14.8756 21.1746 14.4882 21.2657 14.0129 21.2657C13.5409 21.2657 13.1552 21.1746 12.8557 20.9923C12.5562 20.8068 12.3202 20.5545 12.1477 20.2355C11.9784 19.9132 11.8612 19.5356 11.7961 19.1027C11.7343 18.6697 11.7034 18.2075 11.7034 17.7159ZM12.4553 19.0441C12.4553 19.5454 12.5953 19.9425 12.8752 20.2355C13.1552 20.5284 13.5344 20.6749 14.0129 20.6749C14.4915 20.6749 14.8707 20.5284 15.1506 20.2355C15.4338 19.9425 15.5754 19.5454 15.5754 19.0441V16.3829C15.5754 15.8816 15.4355 15.4845 15.1555 15.1915C14.8756 14.8986 14.4947 14.7521 14.0129 14.7521C13.5344 14.7521 13.1552 14.9002 12.8752 15.1964C12.5953 15.4894 12.4553 15.8849 12.4553 16.3829V19.0441Z" fill="#F5F5F5"/>
<path d="M26.6128 21.1144V20.5236H28.3608V15.7042H26.6128V15.1134H28.3608V14.3126H29.0103V20.5236H30.563V21.1144H26.6128Z" fill="#F5F5F5"/>
<path d="M40.458 17.7159C40.458 17.2212 40.4889 16.7573 40.5508 16.3243C40.6159 15.8914 40.7331 15.5154 40.9023 15.1964C41.0749 14.8741 41.3109 14.6219 41.6104 14.4396C41.9098 14.2573 42.2956 14.1661 42.7676 14.1661C43.2396 14.1661 43.6253 14.2573 43.9248 14.4396C44.2275 14.6219 44.4635 14.8741 44.6328 15.1964C44.8053 15.5154 44.9225 15.8914 44.9844 16.3243C45.0462 16.7573 45.0771 17.2212 45.0771 17.7159C45.0771 18.2107 45.0462 18.6746 44.9844 19.1075C44.9225 19.5372 44.8053 19.9132 44.6328 20.2355C44.4635 20.5545 44.2292 20.8068 43.9297 20.9923C43.6302 21.1746 43.2428 21.2657 42.7676 21.2657C42.2956 21.2657 41.9098 21.1746 41.6104 20.9923C41.3109 20.8068 41.0749 20.5545 40.9023 20.2355C40.7331 19.9132 40.6159 19.5356 40.5508 19.1027C40.4889 18.6697 40.458 18.2075 40.458 17.7159ZM41.21 19.0441C41.21 19.5454 41.3499 19.9425 41.6299 20.2355C41.9098 20.5284 42.2891 20.6749 42.7676 20.6749C43.2461 20.6749 43.6253 20.5284 43.9053 20.2355C44.1885 19.9425 44.3301 19.5454 44.3301 19.0441V16.3829C44.3301 15.8816 44.1901 15.4845 43.9102 15.1915C43.6302 14.8986 43.2493 14.7521 42.7676 14.7521C42.2891 14.7521 41.9098 14.9002 41.6299 15.1964C41.3499 15.4894 41.21 15.8849 41.21 16.3829V19.0441Z" fill="#F5F5F5"/>
<path d="M12.2356 10.2023V9.61145H13.9836V4.79211H12.2356V4.20129H13.9836V3.40051H14.6331V9.61145H16.1858V10.2023H12.2356Z" fill="#F5F5F5"/>
<path d="M26.0806 6.80383C26.0806 6.30904 26.1115 5.84517 26.1733 5.41223C26.2384 4.97929 26.3556 4.60331 26.5249 4.2843C26.6974 3.96204 26.9334 3.70976 27.2329 3.52747C27.5324 3.34517 27.9181 3.25403 28.3901 3.25403C28.8621 3.25403 29.2479 3.34517 29.5474 3.52747C29.8501 3.70976 30.0861 3.96204 30.2554 4.2843C30.4279 4.60331 30.5451 4.97929 30.6069 5.41223C30.6688 5.84517 30.6997 6.30904 30.6997 6.80383C30.6997 7.29862 30.6688 7.76249 30.6069 8.19543C30.5451 8.62512 30.4279 9.0011 30.2554 9.32336C30.0861 9.64237 29.8517 9.89465 29.5522 10.0802C29.2528 10.2625 28.8654 10.3536 28.3901 10.3536C27.9181 10.3536 27.5324 10.2625 27.2329 10.0802C26.9334 9.89465 26.6974 9.64237 26.5249 9.32336C26.3556 9.0011 26.2384 8.62349 26.1733 8.19055C26.1115 7.75761 26.0806 7.29537 26.0806 6.80383ZM26.8325 8.13196C26.8325 8.63326 26.9725 9.0304 27.2524 9.32336C27.5324 9.61633 27.9116 9.76282 28.3901 9.76282C28.8687 9.76282 29.2479 9.61633 29.5278 9.32336C29.811 9.0304 29.9526 8.63326 29.9526 8.13196V5.47083C29.9526 4.96952 29.8127 4.57239 29.5327 4.27942C29.2528 3.98645 28.8719 3.83997 28.3901 3.83997C27.9116 3.83997 27.5324 3.98808 27.2524 4.2843C26.9725 4.57727 26.8325 4.97278 26.8325 5.47083V8.13196Z" fill="#F5F5F5"/>
<path d="M40.458 6.80383C40.458 6.30904 40.4889 5.84517 40.5508 5.41223C40.6159 4.97929 40.7331 4.60331 40.9023 4.2843C41.0749 3.96204 41.3109 3.70976 41.6104 3.52747C41.9098 3.34517 42.2956 3.25403 42.7676 3.25403C43.2396 3.25403 43.6253 3.34517 43.9248 3.52747C44.2275 3.70976 44.4635 3.96204 44.6328 4.2843C44.8053 4.60331 44.9225 4.97929 44.9844 5.41223C45.0462 5.84517 45.0771 6.30904 45.0771 6.80383C45.0771 7.29862 45.0462 7.76249 44.9844 8.19543C44.9225 8.62512 44.8053 9.0011 44.6328 9.32336C44.4635 9.64237 44.2292 9.89465 43.9297 10.0802C43.6302 10.2625 43.2428 10.3536 42.7676 10.3536C42.2956 10.3536 41.9098 10.2625 41.6104 10.0802C41.3109 9.89465 41.0749 9.64237 40.9023 9.32336C40.7331 9.0011 40.6159 8.62349 40.5508 8.19055C40.4889 7.75761 40.458 7.29537 40.458 6.80383ZM41.21 8.13196C41.21 8.63326 41.3499 9.0304 41.6299 9.32336C41.9098 9.61633 42.2891 9.76282 42.7676 9.76282C43.2461 9.76282 43.6253 9.61633 43.9053 9.32336C44.1885 9.0304 44.3301 8.63326 44.3301 8.13196V5.47083C44.3301 4.96952 44.1901 4.57239 43.9102 4.27942C43.6302 3.98645 43.2493 3.83997 42.7676 3.83997C42.2891 3.83997 41.9098 3.98808 41.6299 4.2843C41.3499 4.57727 41.21 4.97278 41.21 5.47083V8.13196Z" fill="#F5F5F5"/>
<path d="M0.982422 0.174316V121.742" stroke="#F5F5F5" stroke-width="0.75"/>
<path d="M95.9507 0.174316V121.742" stroke="#F5F5F5" stroke-width="0.75"/>
<rect x="58.4673" y="101.742" width="20" height="20" fill="#F5F5F5"/>
<rect x="38.4673" y="81.7416" width="20" height="20" fill="#F5F5F5"/>
<rect x="18.4673" y="61.7416" width="20" height="20" fill="#F5F5F5"/>
</svg>
