<svg width="97" height="123" viewBox="0 0 97 123" fill="none" xmlns="http://www.w3.org/2000/svg">
<path d="M6.69556 35.4319V0.551758H8.87918V1.1872H7.40032V34.7965H8.87918V35.4319H6.69556Z" fill="#F5F5F5"/>
<path d="M50.0891 35.4319V0.551758H47.9055V1.1872H49.3843V34.7965H47.9055V35.4319H50.0891Z" fill="#F5F5F5"/>
<path d="M12.2356 32.4039V31.8131H13.9836V26.9938H12.2356V26.403H13.9836V25.6022H14.6331V31.8131H16.1858V32.4039H12.2356Z" fill="#F5F5F5"/>
<path d="M26.0806 29.0055C26.0806 28.5107 26.1115 28.0468 26.1733 27.6139C26.2384 27.1809 26.3556 26.805 26.5249 26.486C26.6974 26.1637 26.9334 25.9114 27.2329 25.7291C27.5324 25.5468 27.9181 25.4557 28.3901 25.4557C28.8621 25.4557 29.2479 25.5468 29.5474 25.7291C29.8501 25.9114 30.0861 26.1637 30.2554 26.486C30.4279 26.805 30.5451 27.1809 30.6069 27.6139C30.6688 28.0468 30.6997 28.5107 30.6997 29.0055C30.6997 29.5003 30.6688 29.9642 30.6069 30.3971C30.5451 30.8268 30.4279 31.2028 30.2554 31.525C30.0861 31.844 29.8517 32.0963 29.5522 32.2819C29.2528 32.4642 28.8654 32.5553 28.3901 32.5553C27.9181 32.5553 27.5324 32.4642 27.2329 32.2819C26.9334 32.0963 26.6974 31.844 26.5249 31.525C26.3556 31.2028 26.2384 30.8252 26.1733 30.3922C26.1115 29.9593 26.0806 29.497 26.0806 29.0055ZM26.8325 30.3336C26.8325 30.8349 26.9725 31.2321 27.2524 31.525C27.5324 31.818 27.9116 31.9645 28.3901 31.9645C28.8687 31.9645 29.2479 31.818 29.5278 31.525C29.811 31.2321 29.9526 30.8349 29.9526 30.3336V27.6725C29.9526 27.1712 29.8127 26.774 29.5327 26.4811C29.2528 26.1881 28.8719 26.0416 28.3901 26.0416C27.9116 26.0416 27.5324 26.1897 27.2524 26.486C26.9725 26.7789 26.8325 27.1744 26.8325 27.6725V30.3336Z" fill="#F5F5F5"/>
<path d="M77.6984 28.1852H79.3038C79.4288 29.2242 79.8038 30.0446 80.4288 30.6461C81.0538 31.2477 81.9249 31.5485 83.0421 31.5485C83.5734 31.5485 84.0616 31.4664 84.507 31.3024C84.9601 31.1305 85.3507 30.9 85.6788 30.611C86.007 30.3219 86.2609 29.9742 86.4406 29.568C86.6281 29.1617 86.7218 28.7164 86.7218 28.2321V26.1461C86.7218 25.2164 86.3976 24.4625 85.7491 23.8844C85.1007 23.2985 84.214 23.0055 83.089 23.0055C82.3234 23.0055 81.6281 23.2242 81.0031 23.6617C80.3781 24.0992 79.8976 24.6891 79.5616 25.4313H77.9562L78.5773 16.2555H87.3898V17.6735H79.9718L79.5851 23.6266C80.0304 22.9703 80.5851 22.4703 81.2491 22.1266C81.921 21.7828 82.6476 21.611 83.4288 21.611C84.2257 21.611 84.9406 21.7438 85.5734 22.0094C86.2062 22.275 86.7374 22.65 87.1671 23.1344C87.6046 23.611 87.9366 24.193 88.1632 24.8805C88.3976 25.568 88.5148 26.3258 88.5148 27.1539C88.5148 28.0367 88.3859 28.8336 88.1281 29.5446C87.8781 30.2555 87.5187 30.8649 87.0499 31.3727C86.589 31.8727 86.0265 32.2594 85.3624 32.5328C84.6984 32.8063 83.9523 32.943 83.1241 32.943C81.4913 32.943 80.2218 32.5406 79.3156 31.736C78.4093 30.9235 77.8702 29.7399 77.6984 28.1852Z" fill="#F5F5F5"/>
<path d="M40.9902 32.4039V31.8131H42.7383V26.9938H40.9902V26.403H42.7383V25.6022H43.3877V31.8131H44.9404V32.4039H40.9902Z" fill="#F5F5F5"/>
<path d="M11.7034 18.0934C11.7034 17.5986 11.7343 17.1347 11.7961 16.7018C11.8612 16.2688 11.9784 15.8929 12.1477 15.5739C12.3202 15.2516 12.5562 14.9993 12.8557 14.817C13.1552 14.6347 13.5409 14.5436 14.0129 14.5436C14.4849 14.5436 14.8707 14.6347 15.1702 14.817C15.4729 14.9993 15.7089 15.2516 15.8782 15.5739C16.0507 15.8929 16.1679 16.2688 16.2297 16.7018C16.2916 17.1347 16.3225 17.5986 16.3225 18.0934C16.3225 18.5882 16.2916 19.052 16.2297 19.485C16.1679 19.9147 16.0507 20.2906 15.8782 20.6129C15.7089 20.9319 15.4745 21.1842 15.175 21.3698C14.8756 21.552 14.4882 21.6432 14.0129 21.6432C13.5409 21.6432 13.1552 21.552 12.8557 21.3698C12.5562 21.1842 12.3202 20.9319 12.1477 20.6129C11.9784 20.2906 11.8612 19.913 11.7961 19.4801C11.7343 19.0472 11.7034 18.5849 11.7034 18.0934ZM12.4553 19.4215C12.4553 19.9228 12.5953 20.3199 12.8752 20.6129C13.1552 20.9059 13.5344 21.0524 14.0129 21.0524C14.4915 21.0524 14.8707 20.9059 15.1506 20.6129C15.4338 20.3199 15.5754 19.9228 15.5754 19.4215V16.7604C15.5754 16.2591 15.4355 15.8619 15.1555 15.569C14.8756 15.276 14.4947 15.1295 14.0129 15.1295C13.5344 15.1295 13.1552 15.2776 12.8752 15.5739C12.5953 15.8668 12.4553 16.2623 12.4553 16.7604V19.4215Z" fill="#F5F5F5"/>
<path d="M26.6128 21.4918V20.901H28.3608V16.0817H26.6128V15.4908H28.3608V14.6901H29.0103V20.901H30.563V21.4918H26.6128Z" fill="#F5F5F5"/>
<path d="M40.458 18.0934C40.458 17.5986 40.4889 17.1347 40.5508 16.7018C40.6159 16.2688 40.7331 15.8929 40.9023 15.5739C41.0749 15.2516 41.3109 14.9993 41.6104 14.817C41.9098 14.6347 42.2956 14.5436 42.7676 14.5436C43.2396 14.5436 43.6253 14.6347 43.9248 14.817C44.2275 14.9993 44.4635 15.2516 44.6328 15.5739C44.8053 15.8929 44.9225 16.2688 44.9844 16.7018C45.0462 17.1347 45.0771 17.5986 45.0771 18.0934C45.0771 18.5882 45.0462 19.052 44.9844 19.485C44.9225 19.9147 44.8053 20.2906 44.6328 20.6129C44.4635 20.9319 44.2292 21.1842 43.9297 21.3698C43.6302 21.552 43.2428 21.6432 42.7676 21.6432C42.2956 21.6432 41.9098 21.552 41.6104 21.3698C41.3109 21.1842 41.0749 20.9319 40.9023 20.6129C40.7331 20.2906 40.6159 19.913 40.5508 19.4801C40.4889 19.0472 40.458 18.5849 40.458 18.0934ZM41.21 19.4215C41.21 19.9228 41.3499 20.3199 41.6299 20.6129C41.9098 20.9059 42.2891 21.0524 42.7676 21.0524C43.2461 21.0524 43.6253 20.9059 43.9053 20.6129C44.1885 20.3199 44.3301 19.9228 44.3301 19.4215V16.7604C44.3301 16.2591 44.1901 15.8619 43.9102 15.569C43.6302 15.276 43.2493 15.1295 42.7676 15.1295C42.2891 15.1295 41.9098 15.2776 41.6299 15.5739C41.3499 15.8668 41.21 16.2623 41.21 16.7604V19.4215Z" fill="#F5F5F5"/>
<path d="M12.2356 10.5797V9.98889H13.9836V5.16956H12.2356V4.57874H13.9836V3.77795H14.6331V9.98889H16.1858V10.5797H12.2356Z" fill="#F5F5F5"/>
<path d="M26.0806 7.18127C26.0806 6.68648 26.1115 6.22262 26.1733 5.78967C26.2384 5.35673 26.3556 4.98075 26.5249 4.66174C26.6974 4.33948 26.9334 4.0872 27.2329 3.90491C27.5324 3.72262 27.9181 3.63147 28.3901 3.63147C28.8621 3.63147 29.2479 3.72262 29.5474 3.90491C29.8501 4.0872 30.0861 4.33948 30.2554 4.66174C30.4279 4.98075 30.5451 5.35673 30.6069 5.78967C30.6688 6.22262 30.6997 6.68648 30.6997 7.18127C30.6997 7.67607 30.6688 8.13993 30.6069 8.57288C30.5451 9.00256 30.4279 9.37854 30.2554 9.70081C30.0861 10.0198 29.8517 10.2721 29.5522 10.4576C29.2528 10.6399 28.8654 10.7311 28.3901 10.7311C27.9181 10.7311 27.5324 10.6399 27.2329 10.4576C26.9334 10.2721 26.6974 10.0198 26.5249 9.70081C26.3556 9.37854 26.2384 9.00094 26.1733 8.56799C26.1115 8.13505 26.0806 7.67281 26.0806 7.18127ZM26.8325 8.5094C26.8325 9.0107 26.9725 9.40784 27.2524 9.70081C27.5324 9.99377 27.9116 10.1403 28.3901 10.1403C28.8687 10.1403 29.2479 9.99377 29.5278 9.70081C29.811 9.40784 29.9526 9.0107 29.9526 8.5094V5.84827C29.9526 5.34696 29.8127 4.94983 29.5327 4.65686C29.2528 4.36389 28.8719 4.21741 28.3901 4.21741C27.9116 4.21741 27.5324 4.36552 27.2524 4.66174C26.9725 4.95471 26.8325 5.35022 26.8325 5.84827V8.5094Z" fill="#F5F5F5"/>
<path d="M40.9902 10.5797V9.98889H42.7383V5.16956H40.9902V4.57874H42.7383V3.77795H43.3877V9.98889H44.9404V10.5797H40.9902Z" fill="#F5F5F5"/>
<path d="M0.982422 0.551758V122.119" stroke="#F5F5F5" stroke-width="0.75"/>
<path d="M95.9507 0.551758V122.119" stroke="#F5F5F5" stroke-width="0.75"/>
<rect x="38.4666" y="82.119" width="20" height="20" fill="#F5F5F5"/>
<rect x="18.4666" y="102.119" width="20" height="20" fill="#F5F5F5"/>
<rect x="18.4666" y="62.119" width="20" height="20" fill="#F5F5F5"/>
<rect x="58.4666" y="62.119" width="20" height="20" fill="#F5F5F5"/>
<rect x="58.4666" y="102.119" width="20" height="20" fill="#F5F5F5"/>
</svg>
