<svg width="97" height="122" viewBox="0 0 97 122" fill="none" xmlns="http://www.w3.org/2000/svg">
<path d="M6.60059 35.2781V0.397949H8.78421V1.03339H7.30535V34.6427H8.78421V35.2781H6.60059Z" fill="#F5F5F5"/>
<path d="M49.9941 35.2781V0.397949H47.8105V1.03339H49.2894V34.6427H47.8105V35.2781H49.9941Z" fill="#F5F5F5"/>
<path d="M12.1406 32.2501V31.6593H13.8887V26.84H12.1406V26.2491H13.8887V25.4484H14.5381V31.6593H16.0908V32.2501H12.1406Z" fill="#F5F5F5"/>
<path d="M26.5178 32.2501V31.6593H28.2659V26.84H26.5178V26.2491H28.2659V25.4484H28.9153V31.6593H30.468V32.2501H26.5178Z" fill="#F5F5F5"/>
<path d="M77.58 32.4259V30.8673L86.826 17.6603H77.9667V16.1017H88.7714V17.6603L79.5487 30.8673H88.7245V32.4259H77.58Z" fill="#F5F5F5"/>
<path d="M40.8953 32.2501V31.6593H42.6433V26.84H40.8953V26.2491H42.6433V25.4484H43.2927V31.6593H44.8455V32.2501H40.8953Z" fill="#F5F5F5"/>
<path d="M11.6084 17.9396C11.6084 17.4448 11.6393 16.9809 11.7012 16.548C11.7663 16.115 11.8835 15.7391 12.0527 15.42C12.2253 15.0978 12.4613 14.8455 12.7607 14.6632C13.0602 14.4809 13.446 14.3898 13.918 14.3898C14.39 14.3898 14.7757 14.4809 15.0752 14.6632C15.3779 14.8455 15.6139 15.0978 15.7832 15.42C15.9557 15.7391 16.0729 16.115 16.1348 16.548C16.1966 16.9809 16.2275 17.4448 16.2275 17.9396C16.2275 18.4344 16.1966 18.8982 16.1348 19.3312C16.0729 19.7609 15.9557 20.1368 15.7832 20.4591C15.6139 20.7781 15.3796 21.0304 15.0801 21.2159C14.7806 21.3982 14.3932 21.4894 13.918 21.4894C13.446 21.4894 13.0602 21.3982 12.7607 21.2159C12.4613 21.0304 12.2253 20.7781 12.0527 20.4591C11.8835 20.1368 11.7663 19.7592 11.7012 19.3263C11.6393 18.8934 11.6084 18.4311 11.6084 17.9396ZM12.3604 19.2677C12.3604 19.769 12.5003 20.1661 12.7803 20.4591C13.0602 20.7521 13.4395 20.8986 13.918 20.8986C14.3965 20.8986 14.7757 20.7521 15.0557 20.4591C15.3389 20.1661 15.4805 19.769 15.4805 19.2677V16.6066C15.4805 16.1053 15.3405 15.7081 15.0605 15.4152C14.7806 15.1222 14.3997 14.9757 13.918 14.9757C13.4395 14.9757 13.0602 15.1238 12.7803 15.42C12.5003 15.713 12.3604 16.1085 12.3604 16.6066V19.2677Z" fill="#F5F5F5"/>
<path d="M25.9856 17.9396C25.9856 17.4448 26.0165 16.9809 26.0784 16.548C26.1435 16.115 26.2607 15.7391 26.4299 15.42C26.6025 15.0978 26.8385 14.8455 27.1379 14.6632C27.4374 14.4809 27.8232 14.3898 28.2952 14.3898C28.7672 14.3898 29.1529 14.4809 29.4524 14.6632C29.7551 14.8455 29.9911 15.0978 30.1604 15.42C30.3329 15.7391 30.4501 16.115 30.512 16.548C30.5738 16.9809 30.6047 17.4448 30.6047 17.9396C30.6047 18.4344 30.5738 18.8982 30.512 19.3312C30.4501 19.7609 30.3329 20.1368 30.1604 20.4591C29.9911 20.7781 29.7568 21.0304 29.4573 21.2159C29.1578 21.3982 28.7704 21.4894 28.2952 21.4894C27.8232 21.4894 27.4374 21.3982 27.1379 21.2159C26.8385 21.0304 26.6025 20.7781 26.4299 20.4591C26.2607 20.1368 26.1435 19.7592 26.0784 19.3263C26.0165 18.8934 25.9856 18.4311 25.9856 17.9396ZM26.7375 19.2677C26.7375 19.769 26.8775 20.1661 27.1575 20.4591C27.4374 20.7521 27.8167 20.8986 28.2952 20.8986C28.7737 20.8986 29.1529 20.7521 29.4329 20.4591C29.7161 20.1661 29.8577 19.769 29.8577 19.2677V16.6066C29.8577 16.1053 29.7177 15.7081 29.4377 15.4152C29.1578 15.1222 28.7769 14.9757 28.2952 14.9757C27.8167 14.9757 27.4374 15.1238 27.1575 15.42C26.8775 15.713 26.7375 16.1085 26.7375 16.6066V19.2677Z" fill="#F5F5F5"/>
<path d="M40.363 17.9396C40.363 17.4448 40.394 16.9809 40.4558 16.548C40.5209 16.115 40.6381 15.7391 40.8074 15.42C40.9799 15.0978 41.2159 14.8455 41.5154 14.6632C41.8149 14.4809 42.2006 14.3898 42.6726 14.3898C43.1446 14.3898 43.5304 14.4809 43.8298 14.6632C44.1326 14.8455 44.3686 15.0978 44.5378 15.42C44.7104 15.7391 44.8276 16.115 44.8894 16.548C44.9513 16.9809 44.9822 17.4448 44.9822 17.9396C44.9822 18.4344 44.9513 18.8982 44.8894 19.3312C44.8276 19.7609 44.7104 20.1368 44.5378 20.4591C44.3686 20.7781 44.1342 21.0304 43.8347 21.2159C43.5352 21.3982 43.1479 21.4894 42.6726 21.4894C42.2006 21.4894 41.8149 21.3982 41.5154 21.2159C41.2159 21.0304 40.9799 20.7781 40.8074 20.4591C40.6381 20.1368 40.5209 19.7592 40.4558 19.3263C40.394 18.8934 40.363 18.4311 40.363 17.9396ZM41.115 19.2677C41.115 19.769 41.255 20.1661 41.5349 20.4591C41.8149 20.7521 42.1941 20.8986 42.6726 20.8986C43.1511 20.8986 43.5304 20.7521 43.8103 20.4591C44.0935 20.1661 44.2351 19.769 44.2351 19.2677V16.6066C44.2351 16.1053 44.0951 15.7081 43.8152 15.4152C43.5352 15.1222 43.1544 14.9757 42.6726 14.9757C42.1941 14.9757 41.8149 15.1238 41.5349 15.42C41.255 15.713 41.115 16.1085 41.115 16.6066V19.2677Z" fill="#F5F5F5"/>
<path d="M12.1406 10.4259V9.83508H13.8887V5.01575H12.1406V4.42493H13.8887V3.62415H14.5381V9.83508H16.0908V10.4259H12.1406Z" fill="#F5F5F5"/>
<path d="M26.5178 10.4259V9.83508H28.2659V5.01575H26.5178V4.42493H28.2659V3.62415H28.9153V9.83508H30.468V10.4259H26.5178Z" fill="#F5F5F5"/>
<path d="M40.363 7.02747C40.363 6.53267 40.394 6.06881 40.4558 5.63586C40.5209 5.20292 40.6381 4.82694 40.8074 4.50793C40.9799 4.18567 41.2159 3.93339 41.5154 3.7511C41.8149 3.56881 42.2006 3.47766 42.6726 3.47766C43.1446 3.47766 43.5304 3.56881 43.8298 3.7511C44.1326 3.93339 44.3686 4.18567 44.5378 4.50793C44.7104 4.82694 44.8276 5.20292 44.8894 5.63586C44.9513 6.06881 44.9822 6.53267 44.9822 7.02747C44.9822 7.52226 44.9513 7.98612 44.8894 8.41907C44.8276 8.84875 44.7104 9.22473 44.5378 9.547C44.3686 9.86601 44.1342 10.1183 43.8347 10.3038C43.5352 10.4861 43.1479 10.5773 42.6726 10.5773C42.2006 10.5773 41.8149 10.4861 41.5154 10.3038C41.2159 10.1183 40.9799 9.86601 40.8074 9.547C40.6381 9.22473 40.5209 8.84713 40.4558 8.41418C40.394 7.98124 40.363 7.519 40.363 7.02747ZM41.115 8.35559C41.115 8.85689 41.255 9.25403 41.5349 9.547C41.8149 9.83997 42.1941 9.98645 42.6726 9.98645C43.1511 9.98645 43.5304 9.83997 43.8103 9.547C44.0935 9.25403 44.2351 8.85689 44.2351 8.35559V5.69446C44.2351 5.19316 44.0951 4.79602 43.8152 4.50305C43.5352 4.21008 43.1544 4.0636 42.6726 4.0636C42.1941 4.0636 41.8149 4.21171 41.5349 4.50793C41.255 4.8009 41.115 5.19641 41.115 5.69446V8.35559Z" fill="#F5F5F5"/>
<path d="M0.887451 0.397949V121.965" stroke="#F5F5F5" stroke-width="0.75"/>
<path d="M95.8557 0.397949V121.965" stroke="#F5F5F5" stroke-width="0.75"/>
<rect x="18.3716" y="61.9652" width="20" height="20" fill="#F5F5F5"/>
<rect x="38.3716" y="61.9652" width="20" height="20" fill="#F5F5F5"/>
<rect x="18.3716" y="101.965" width="20" height="20" fill="#F5F5F5"/>
<rect x="38.3716" y="101.965" width="20" height="20" fill="#F5F5F5"/>
<rect x="58.3716" y="101.965" width="20" height="20" fill="#F5F5F5"/>
</svg>
