<svg width="97" height="122" viewBox="0 0 97 122" fill="none" xmlns="http://www.w3.org/2000/svg">
<path d="M6.60059 35.0545V0.174316H8.78421V0.809762H7.30535V34.419H8.78421V35.0545H6.60059Z" fill="#F5F5F5"/>
<path d="M49.9941 35.0545V0.174316H47.8105V0.809762H49.2894V34.419H47.8105V35.0545H49.9941Z" fill="#F5F5F5"/>
<path d="M12.1406 32.0265V31.4357H13.8887V26.6163H12.1406V26.0255H13.8887V25.2247H14.5381V31.4357H16.0908V32.0265H12.1406Z" fill="#F5F5F5"/>
<path d="M26.5178 32.0265V31.4357H28.2659V26.6163H26.5178V26.0255H28.2659V25.2247H28.9153V31.4357H30.468V32.0265H26.5178Z" fill="#F5F5F5"/>
<path d="M74.8729 24.046C74.8729 22.7804 74.9979 21.6281 75.2479 20.589C75.4979 19.5499 75.8925 18.6554 76.4315 17.9054C76.9784 17.1476 77.6776 16.5616 78.5292 16.1476C79.3885 15.7335 80.4276 15.5265 81.6464 15.5265C82.8651 15.5265 83.9003 15.7335 84.7518 16.1476C85.6034 16.5616 86.3026 17.1476 86.8495 17.9054C87.3964 18.6554 87.7909 19.5499 88.0331 20.589C88.2831 21.6281 88.4081 22.7804 88.4081 24.046C88.4081 25.2491 88.2948 26.3468 88.0682 27.339C87.8495 28.3234 87.4979 29.1827 87.0135 29.9171L89.369 32.2023L88.244 33.3038L85.9823 31.1241C85.451 31.5851 84.83 31.9406 84.119 32.1906C83.4159 32.4406 82.5917 32.5656 81.6464 32.5656C80.4276 32.5656 79.3885 32.3585 78.5292 31.9445C77.6776 31.5226 76.9784 30.9366 76.4315 30.1866C75.8925 29.4366 75.4979 28.5421 75.2479 27.5031C74.9979 26.4562 74.8729 25.3038 74.8729 24.046ZM76.7948 26.4718C76.7948 27.1749 76.912 27.8038 77.1464 28.3585C77.3885 28.9054 77.7245 29.3781 78.1542 29.7765C78.5917 30.1749 79.1073 30.4796 79.701 30.6906C80.2948 30.9015 80.9432 31.007 81.6464 31.007C82.3339 31.007 82.9706 30.9015 83.5565 30.6906C84.1503 30.4796 84.662 30.1788 85.0917 29.7882C85.5292 29.3976 85.869 28.9249 86.1112 28.3702C86.3612 27.8077 86.4862 27.1749 86.4862 26.4718V21.6202C86.4862 20.9327 86.3612 20.3077 86.1112 19.7452C85.869 19.1827 85.5292 18.7023 85.0917 18.3038C84.662 17.9054 84.1503 17.6046 83.5565 17.4015C82.9706 17.1906 82.3339 17.0851 81.6464 17.0851C80.9432 17.0851 80.2948 17.1906 79.701 17.4015C79.1073 17.6046 78.5917 17.9054 78.1542 18.3038C77.7245 18.7023 77.3885 19.1827 77.1464 19.7452C76.912 20.3077 76.7948 20.9327 76.7948 21.6202V26.4718Z" fill="#F5F5F5"/>
<path d="M40.8953 32.0265V31.4357H42.6433V26.6163H40.8953V26.0255H42.6433V25.2247H43.2927V31.4357H44.8455V32.0265H40.8953Z" fill="#F5F5F5"/>
<path d="M11.6084 17.7159C11.6084 17.2212 11.6393 16.7573 11.7012 16.3243C11.7663 15.8914 11.8835 15.5154 12.0527 15.1964C12.2253 14.8741 12.4613 14.6219 12.7607 14.4396C13.0602 14.2573 13.446 14.1661 13.918 14.1661C14.39 14.1661 14.7757 14.2573 15.0752 14.4396C15.3779 14.6219 15.6139 14.8741 15.7832 15.1964C15.9557 15.5154 16.0729 15.8914 16.1348 16.3243C16.1966 16.7573 16.2275 17.2212 16.2275 17.7159C16.2275 18.2107 16.1966 18.6746 16.1348 19.1075C16.0729 19.5372 15.9557 19.9132 15.7832 20.2355C15.6139 20.5545 15.3796 20.8068 15.0801 20.9923C14.7806 21.1746 14.3932 21.2657 13.918 21.2657C13.446 21.2657 13.0602 21.1746 12.7607 20.9923C12.4613 20.8068 12.2253 20.5545 12.0527 20.2355C11.8835 19.9132 11.7663 19.5356 11.7012 19.1027C11.6393 18.6697 11.6084 18.2075 11.6084 17.7159ZM12.3604 19.0441C12.3604 19.5454 12.5003 19.9425 12.7803 20.2355C13.0602 20.5284 13.4395 20.6749 13.918 20.6749C14.3965 20.6749 14.7757 20.5284 15.0557 20.2355C15.3389 19.9425 15.4805 19.5454 15.4805 19.0441V16.3829C15.4805 15.8816 15.3405 15.4845 15.0605 15.1915C14.7806 14.8986 14.3997 14.7521 13.918 14.7521C13.4395 14.7521 13.0602 14.9002 12.7803 15.1964C12.5003 15.4894 12.3604 15.8849 12.3604 16.3829V19.0441Z" fill="#F5F5F5"/>
<path d="M25.9856 17.7159C25.9856 17.2212 26.0165 16.7573 26.0784 16.3243C26.1435 15.8914 26.2607 15.5154 26.4299 15.1964C26.6025 14.8741 26.8385 14.6219 27.1379 14.4396C27.4374 14.2573 27.8232 14.1661 28.2952 14.1661C28.7672 14.1661 29.1529 14.2573 29.4524 14.4396C29.7551 14.6219 29.9911 14.8741 30.1604 15.1964C30.3329 15.5154 30.4501 15.8914 30.512 16.3243C30.5738 16.7573 30.6047 17.2212 30.6047 17.7159C30.6047 18.2107 30.5738 18.6746 30.512 19.1075C30.4501 19.5372 30.3329 19.9132 30.1604 20.2355C29.9911 20.5545 29.7568 20.8068 29.4573 20.9923C29.1578 21.1746 28.7704 21.2657 28.2952 21.2657C27.8232 21.2657 27.4374 21.1746 27.1379 20.9923C26.8385 20.8068 26.6025 20.5545 26.4299 20.2355C26.2607 19.9132 26.1435 19.5356 26.0784 19.1027C26.0165 18.6697 25.9856 18.2075 25.9856 17.7159ZM26.7375 19.0441C26.7375 19.5454 26.8775 19.9425 27.1575 20.2355C27.4374 20.5284 27.8167 20.6749 28.2952 20.6749C28.7737 20.6749 29.1529 20.5284 29.4329 20.2355C29.7161 19.9425 29.8577 19.5454 29.8577 19.0441V16.3829C29.8577 15.8816 29.7177 15.4845 29.4377 15.1915C29.1578 14.8986 28.7769 14.7521 28.2952 14.7521C27.8167 14.7521 27.4374 14.9002 27.1575 15.1964C26.8775 15.4894 26.7375 15.8849 26.7375 16.3829V19.0441Z" fill="#F5F5F5"/>
<path d="M40.363 17.7159C40.363 17.2212 40.394 16.7573 40.4558 16.3243C40.5209 15.8914 40.6381 15.5154 40.8074 15.1964C40.9799 14.8741 41.2159 14.6219 41.5154 14.4396C41.8149 14.2573 42.2006 14.1661 42.6726 14.1661C43.1446 14.1661 43.5304 14.2573 43.8298 14.4396C44.1326 14.6219 44.3686 14.8741 44.5378 15.1964C44.7104 15.5154 44.8276 15.8914 44.8894 16.3243C44.9513 16.7573 44.9822 17.2212 44.9822 17.7159C44.9822 18.2107 44.9513 18.6746 44.8894 19.1075C44.8276 19.5372 44.7104 19.9132 44.5378 20.2355C44.3686 20.5545 44.1342 20.8068 43.8347 20.9923C43.5352 21.1746 43.1479 21.2657 42.6726 21.2657C42.2006 21.2657 41.8149 21.1746 41.5154 20.9923C41.2159 20.8068 40.9799 20.5545 40.8074 20.2355C40.6381 19.9132 40.5209 19.5356 40.4558 19.1027C40.394 18.6697 40.363 18.2075 40.363 17.7159ZM41.115 19.0441C41.115 19.5454 41.255 19.9425 41.5349 20.2355C41.8149 20.5284 42.1941 20.6749 42.6726 20.6749C43.1511 20.6749 43.5304 20.5284 43.8103 20.2355C44.0935 19.9425 44.2351 19.5454 44.2351 19.0441V16.3829C44.2351 15.8816 44.0951 15.4845 43.8152 15.1915C43.5352 14.8986 43.1544 14.7521 42.6726 14.7521C42.1941 14.7521 41.8149 14.9002 41.5349 15.1964C41.255 15.4894 41.115 15.8849 41.115 16.3829V19.0441Z" fill="#F5F5F5"/>
<path d="M12.1406 10.2023V9.61145H13.8887V4.79211H12.1406V4.20129H13.8887V3.40051H14.5381V9.61145H16.0908V10.2023H12.1406Z" fill="#F5F5F5"/>
<path d="M25.9856 6.80383C25.9856 6.30904 26.0165 5.84517 26.0784 5.41223C26.1435 4.97929 26.2607 4.60331 26.4299 4.2843C26.6025 3.96204 26.8385 3.70976 27.1379 3.52747C27.4374 3.34517 27.8232 3.25403 28.2952 3.25403C28.7672 3.25403 29.1529 3.34517 29.4524 3.52747C29.7551 3.70976 29.9911 3.96204 30.1604 4.2843C30.3329 4.60331 30.4501 4.97929 30.512 5.41223C30.5738 5.84517 30.6047 6.30904 30.6047 6.80383C30.6047 7.29862 30.5738 7.76249 30.512 8.19543C30.4501 8.62512 30.3329 9.0011 30.1604 9.32336C29.9911 9.64237 29.7568 9.89465 29.4573 10.0802C29.1578 10.2625 28.7704 10.3536 28.2952 10.3536C27.8232 10.3536 27.4374 10.2625 27.1379 10.0802C26.8385 9.89465 26.6025 9.64237 26.4299 9.32336C26.2607 9.0011 26.1435 8.62349 26.0784 8.19055C26.0165 7.75761 25.9856 7.29537 25.9856 6.80383ZM26.7375 8.13196C26.7375 8.63326 26.8775 9.0304 27.1575 9.32336C27.4374 9.61633 27.8167 9.76282 28.2952 9.76282C28.7737 9.76282 29.1529 9.61633 29.4329 9.32336C29.7161 9.0304 29.8577 8.63326 29.8577 8.13196V5.47083C29.8577 4.96952 29.7177 4.57239 29.4377 4.27942C29.1578 3.98645 28.7769 3.83997 28.2952 3.83997C27.8167 3.83997 27.4374 3.98808 27.1575 4.2843C26.8775 4.57727 26.7375 4.97278 26.7375 5.47083V8.13196Z" fill="#F5F5F5"/>
<path d="M40.363 6.80383C40.363 6.30904 40.394 5.84517 40.4558 5.41223C40.5209 4.97929 40.6381 4.60331 40.8074 4.2843C40.9799 3.96204 41.2159 3.70976 41.5154 3.52747C41.8149 3.34517 42.2006 3.25403 42.6726 3.25403C43.1446 3.25403 43.5304 3.34517 43.8298 3.52747C44.1326 3.70976 44.3686 3.96204 44.5378 4.2843C44.7104 4.60331 44.8276 4.97929 44.8894 5.41223C44.9513 5.84517 44.9822 6.30904 44.9822 6.80383C44.9822 7.29862 44.9513 7.76249 44.8894 8.19543C44.8276 8.62512 44.7104 9.0011 44.5378 9.32336C44.3686 9.64237 44.1342 9.89465 43.8347 10.0802C43.5352 10.2625 43.1479 10.3536 42.6726 10.3536C42.2006 10.3536 41.8149 10.2625 41.5154 10.0802C41.2159 9.89465 40.9799 9.64237 40.8074 9.32336C40.6381 9.0011 40.5209 8.62349 40.4558 8.19055C40.394 7.75761 40.363 7.29537 40.363 6.80383ZM41.115 8.13196C41.115 8.63326 41.255 9.0304 41.5349 9.32336C41.8149 9.61633 42.1941 9.76282 42.6726 9.76282C43.1511 9.76282 43.5304 9.61633 43.8103 9.32336C44.0935 9.0304 44.2351 8.63326 44.2351 8.13196V5.47083C44.2351 4.96952 44.0951 4.57239 43.8152 4.27942C43.5352 3.98645 43.1544 3.83997 42.6726 3.83997C42.1941 3.83997 41.8149 3.98808 41.5349 4.2843C41.255 4.57727 41.115 4.97278 41.115 5.47083V8.13196Z" fill="#F5F5F5"/>
<path d="M0.887451 0.174316V121.742" stroke="#F5F5F5" stroke-width="0.75"/>
<path d="M95.8557 0.174316V121.742" stroke="#F5F5F5" stroke-width="0.75"/>
<rect x="38.373" y="101.742" width="20" height="20" fill="#F5F5F5"/>
<rect x="18.373" y="101.742" width="20" height="20" fill="#F5F5F5"/>
<rect x="18.373" y="61.7416" width="20" height="20" fill="#F5F5F5"/>
<rect x="58.373" y="101.742" width="20" height="20" fill="#F5F5F5"/>
</svg>
