<svg width="97" height="122" viewBox="0 0 97 122" fill="none" xmlns="http://www.w3.org/2000/svg">
<path d="M6.85425 35.0474V0.167236H9.03787V0.802682H7.55901V34.412H9.03787V35.0474H6.85425Z" fill="#F5F5F5"/>
<path d="M50.2478 35.0474V0.167236H48.0642V0.802682H49.543V34.412H48.0642V35.0474H50.2478Z" fill="#F5F5F5"/>
<path d="M12.3943 32.0194V31.4286H14.1423V26.6093H12.3943V26.0184H14.1423V25.2177H14.7917V31.4286H16.3445V32.0194H12.3943Z" fill="#F5F5F5"/>
<path d="M26.7715 32.0194V31.4286H28.5195V26.6093H26.7715V26.0184H28.5195V25.2177H29.1689V31.4286H30.7217V32.0194H26.7715Z" fill="#F5F5F5"/>
<path d="M77.4938 21.2264C77.4938 20.6014 77.5992 19.953 77.8102 19.2811C78.0289 18.6093 78.361 17.996 78.8063 17.4413C79.2594 16.8788 79.8336 16.4178 80.5289 16.0585C81.2242 15.6991 82.0602 15.5194 83.0367 15.5194C84.1539 15.5194 85.0758 15.7108 85.8024 16.0936C86.5367 16.4764 87.1149 17.0194 87.5367 17.7225C87.9586 18.4257 88.2516 19.2772 88.4156 20.2772C88.5875 21.2772 88.6735 22.3944 88.6735 23.6288C88.6735 24.9725 88.5914 26.1913 88.4274 27.285C88.2711 28.3788 87.9821 29.3202 87.5602 30.1093C87.1383 30.8905 86.5602 31.496 85.8258 31.9257C85.0992 32.3475 84.1774 32.5585 83.0602 32.5585C81.5055 32.5585 80.2946 32.1718 79.4274 31.3983C78.568 30.6171 78.068 29.5624 77.9274 28.2343H79.5328C79.6422 29.0858 79.9938 29.7889 80.5875 30.3436C81.1813 30.8905 81.9899 31.1639 83.0133 31.1639C83.6383 31.1639 84.193 31.0507 84.6774 30.8241C85.1696 30.5897 85.5758 30.2772 85.8961 29.8866C86.2164 29.4882 86.4586 29.0194 86.6227 28.4803C86.7946 27.9335 86.8805 27.3475 86.8805 26.7225V24.5663C86.4352 25.2538 85.8453 25.7655 85.111 26.1014C84.3844 26.4374 83.5641 26.6053 82.65 26.6053C81.7985 26.6053 81.0524 26.4725 80.4117 26.2069C79.7789 25.9413 79.2438 25.5702 78.8063 25.0936C78.3766 24.6093 78.0485 24.0389 77.8219 23.3827C77.6031 22.7264 77.4938 22.0077 77.4938 21.2264ZM79.2985 21.871C79.2985 22.3319 79.3805 22.7694 79.5446 23.1835C79.7164 23.5897 79.9664 23.9452 80.2946 24.2499C80.6227 24.5546 81.0172 24.7928 81.4781 24.9647C81.9391 25.1288 82.4742 25.2108 83.0836 25.2108C83.6774 25.2108 84.2086 25.1288 84.6774 24.9647C85.1539 24.7928 85.5563 24.5546 85.8844 24.2499C86.2125 23.9452 86.4586 23.5897 86.6227 23.1835C86.7946 22.7772 86.8805 22.3397 86.8805 21.871V20.4882C86.8805 20.0272 86.7946 19.5819 86.6227 19.1522C86.4586 18.7147 86.2125 18.3319 85.8844 18.0038C85.5563 17.6757 85.1539 17.41 84.6774 17.2069C84.2086 17.0038 83.6774 16.9022 83.0836 16.9022C82.4742 16.9022 81.9391 17.0038 81.4781 17.2069C81.0172 17.41 80.6227 17.6796 80.2946 18.0155C79.9664 18.3514 79.7164 18.7343 79.5446 19.1639C79.3805 19.5936 79.2985 20.0428 79.2985 20.5116V21.871Z" fill="#F5F5F5"/>
<path d="M41.1489 32.0194V31.4286H42.897V26.6093H41.1489V26.0184H42.897V25.2177H43.5464V31.4286H45.0991V32.0194H41.1489Z" fill="#F5F5F5"/>
<path d="M12.3943 21.1073V20.5165H14.1423V15.6971H12.3943V15.1063H14.1423V14.3055H14.7917V20.5165H16.3445V21.1073H12.3943Z" fill="#F5F5F5"/>
<path d="M26.7715 21.1073V20.5165H28.5195V15.6971H26.7715V15.1063H28.5195V14.3055H29.1689V20.5165H30.7217V21.1073H26.7715Z" fill="#F5F5F5"/>
<path d="M41.1489 21.1073V20.5165H42.897V15.6971H41.1489V15.1063H42.897V14.3055H43.5464V20.5165H45.0991V21.1073H41.1489Z" fill="#F5F5F5"/>
<path d="M12.3943 10.1952V9.60437H14.1423V4.78503H12.3943V4.19421H14.1423V3.39343H14.7917V9.60437H16.3445V10.1952H12.3943Z" fill="#F5F5F5"/>
<path d="M26.7715 10.1952V9.60437H28.5195V4.78503H26.7715V4.19421H28.5195V3.39343H29.1689V9.60437H30.7217V10.1952H26.7715Z" fill="#F5F5F5"/>
<path d="M41.1489 10.1952V9.60437H42.897V4.78503H41.1489V4.19421H42.897V3.39343H43.5464V9.60437H45.0991V10.1952H41.1489Z" fill="#F5F5F5"/>
<path d="M1.14111 0.167236V121.735" stroke="#F5F5F5" stroke-width="0.75"/>
<path d="M96.1094 0.167236V121.735" stroke="#F5F5F5" stroke-width="0.75"/>
<rect x="58.6252" y="81.7345" width="20" height="20" fill="#F5F5F5"/>
<rect x="18.6252" y="81.7345" width="20" height="20" fill="#F5F5F5"/>
<rect x="38.6252" y="101.734" width="20" height="20" fill="#F5F5F5"/>
<rect x="38.6252" y="61.7345" width="20" height="20" fill="#F5F5F5"/>
<rect x="58.6252" y="61.7345" width="20" height="20" fill="#F5F5F5"/>
<rect x="18.6252" y="61.7345" width="20" height="20" fill="#F5F5F5"/>
<rect x="38.6252" y="81.7345" width="20" height="20" fill="#F5F5F5"/>
<rect x="58.6252" y="101.734" width="20" height="20" fill="#F5F5F5"/>
<rect x="18.6252" y="101.734" width="20" height="20" fill="#F5F5F5"/>
</svg>
