<svg width="97" height="122" viewBox="0 0 97 122" fill="none" xmlns="http://www.w3.org/2000/svg">
<path d="M6.66406 35.2781V0.397949H8.84768V1.03339H7.36883V34.6427H8.84768V35.2781H6.66406Z" fill="#F5F5F5"/>
<path d="M50.0576 35.2781V0.397949H47.874V1.03339H49.3529V34.6427H47.874V35.2781H50.0576Z" fill="#F5F5F5"/>
<path d="M12.2041 32.2501V31.6593H13.9521V26.84H12.2041V26.2491H13.9521V25.4484H14.6016V31.6593H16.1543V32.2501H12.2041Z" fill="#F5F5F5"/>
<path d="M26.0491 28.8517C26.0491 28.3569 26.08 27.893 26.1418 27.4601C26.2069 27.0271 26.3241 26.6512 26.4934 26.3322C26.6659 26.0099 26.9019 25.7576 27.2014 25.5753C27.5009 25.393 27.8866 25.3019 28.3586 25.3019C28.8306 25.3019 29.2164 25.393 29.5159 25.5753C29.8186 25.7576 30.0546 26.0099 30.2239 26.3322C30.3964 26.6512 30.5136 27.0271 30.5754 27.4601C30.6373 27.893 30.6682 28.3569 30.6682 28.8517C30.6682 29.3465 30.6373 29.8103 30.5754 30.2433C30.5136 30.673 30.3964 31.049 30.2239 31.3712C30.0546 31.6902 29.8202 31.9425 29.5208 32.1281C29.2213 32.3103 28.8339 32.4015 28.3586 32.4015C27.8866 32.4015 27.5009 32.3103 27.2014 32.1281C26.9019 31.9425 26.6659 31.6902 26.4934 31.3712C26.3241 31.049 26.2069 30.6713 26.1418 30.2384C26.08 29.8055 26.0491 29.3432 26.0491 28.8517ZM26.801 30.1798C26.801 30.6811 26.941 31.0782 27.2209 31.3712C27.5009 31.6642 27.8801 31.8107 28.3586 31.8107C28.8372 31.8107 29.2164 31.6642 29.4963 31.3712C29.7795 31.0782 29.9211 30.6811 29.9211 30.1798V27.5187C29.9211 27.0174 29.7812 26.6202 29.5012 26.3273C29.2213 26.0343 28.8404 25.8878 28.3586 25.8878C27.8801 25.8878 27.5009 26.0359 27.2209 26.3322C26.941 26.6251 26.801 27.0206 26.801 27.5187V30.1798Z" fill="#F5F5F5"/>
<path d="M77.0927 32.4259L82.3075 24.0939L77.3856 16.1017H79.3309L83.2684 22.7111L87.3231 16.1017H89.1981L84.2528 24.0939L89.4091 32.4259H87.4637L83.2684 25.465L79.0614 32.4259H77.0927Z" fill="#F5F5F5"/>
<path d="M40.9587 32.2501V31.6593H42.7068V26.84H40.9587V26.2491H42.7068V25.4484H43.3562V31.6593H44.9089V32.2501H40.9587Z" fill="#F5F5F5"/>
<path d="M11.6719 17.9396C11.6719 17.4448 11.7028 16.9809 11.7646 16.548C11.8298 16.115 11.9469 15.7391 12.1162 15.42C12.2887 15.0978 12.5247 14.8455 12.8242 14.6632C13.1237 14.4809 13.5094 14.3898 13.9814 14.3898C14.4535 14.3898 14.8392 14.4809 15.1387 14.6632C15.4414 14.8455 15.6774 15.0978 15.8467 15.42C16.0192 15.7391 16.1364 16.115 16.1982 16.548C16.2601 16.9809 16.291 17.4448 16.291 17.9396C16.291 18.4344 16.2601 18.8982 16.1982 19.3312C16.1364 19.7609 16.0192 20.1368 15.8467 20.4591C15.6774 20.7781 15.443 21.0304 15.1436 21.2159C14.8441 21.3982 14.4567 21.4894 13.9814 21.4894C13.5094 21.4894 13.1237 21.3982 12.8242 21.2159C12.5247 21.0304 12.2887 20.7781 12.1162 20.4591C11.9469 20.1368 11.8298 19.7592 11.7646 19.3263C11.7028 18.8934 11.6719 18.4311 11.6719 17.9396ZM12.4238 19.2677C12.4238 19.769 12.5638 20.1661 12.8438 20.4591C13.1237 20.7521 13.5029 20.8986 13.9814 20.8986C14.46 20.8986 14.8392 20.7521 15.1191 20.4591C15.4023 20.1661 15.5439 19.769 15.5439 19.2677V16.6066C15.5439 16.1053 15.404 15.7081 15.124 15.4152C14.8441 15.1222 14.4632 14.9757 13.9814 14.9757C13.5029 14.9757 13.1237 15.1238 12.8438 15.42C12.5638 15.713 12.4238 16.1085 12.4238 16.6066V19.2677Z" fill="#F5F5F5"/>
<path d="M26.0491 17.9396C26.0491 17.4448 26.08 16.9809 26.1418 16.548C26.2069 16.115 26.3241 15.7391 26.4934 15.42C26.6659 15.0978 26.9019 14.8455 27.2014 14.6632C27.5009 14.4809 27.8866 14.3898 28.3586 14.3898C28.8306 14.3898 29.2164 14.4809 29.5159 14.6632C29.8186 14.8455 30.0546 15.0978 30.2239 15.42C30.3964 15.7391 30.5136 16.115 30.5754 16.548C30.6373 16.9809 30.6682 17.4448 30.6682 17.9396C30.6682 18.4344 30.6373 18.8982 30.5754 19.3312C30.5136 19.7609 30.3964 20.1368 30.2239 20.4591C30.0546 20.7781 29.8202 21.0304 29.5208 21.2159C29.2213 21.3982 28.8339 21.4894 28.3586 21.4894C27.8866 21.4894 27.5009 21.3982 27.2014 21.2159C26.9019 21.0304 26.6659 20.7781 26.4934 20.4591C26.3241 20.1368 26.2069 19.7592 26.1418 19.3263C26.08 18.8934 26.0491 18.4311 26.0491 17.9396ZM26.801 19.2677C26.801 19.769 26.941 20.1661 27.2209 20.4591C27.5009 20.7521 27.8801 20.8986 28.3586 20.8986C28.8372 20.8986 29.2164 20.7521 29.4963 20.4591C29.7795 20.1661 29.9211 19.769 29.9211 19.2677V16.6066C29.9211 16.1053 29.7812 15.7081 29.5012 15.4152C29.2213 15.1222 28.8404 14.9757 28.3586 14.9757C27.8801 14.9757 27.5009 15.1238 27.2209 15.42C26.941 15.713 26.801 16.1085 26.801 16.6066V19.2677Z" fill="#F5F5F5"/>
<path d="M40.9587 21.338V20.7472H42.7068V15.9279H40.9587V15.337H42.7068V14.5363H43.3562V20.7472H44.9089V21.338H40.9587Z" fill="#F5F5F5"/>
<path d="M11.6719 7.02747C11.6719 6.53267 11.7028 6.06881 11.7646 5.63586C11.8298 5.20292 11.9469 4.82694 12.1162 4.50793C12.2887 4.18567 12.5247 3.93339 12.8242 3.7511C13.1237 3.56881 13.5094 3.47766 13.9814 3.47766C14.4535 3.47766 14.8392 3.56881 15.1387 3.7511C15.4414 3.93339 15.6774 4.18567 15.8467 4.50793C16.0192 4.82694 16.1364 5.20292 16.1982 5.63586C16.2601 6.06881 16.291 6.53267 16.291 7.02747C16.291 7.52226 16.2601 7.98612 16.1982 8.41907C16.1364 8.84875 16.0192 9.22473 15.8467 9.547C15.6774 9.86601 15.443 10.1183 15.1436 10.3038C14.8441 10.4861 14.4567 10.5773 13.9814 10.5773C13.5094 10.5773 13.1237 10.4861 12.8242 10.3038C12.5247 10.1183 12.2887 9.86601 12.1162 9.547C11.9469 9.22473 11.8298 8.84713 11.7646 8.41418C11.7028 7.98124 11.6719 7.519 11.6719 7.02747ZM12.4238 8.35559C12.4238 8.85689 12.5638 9.25403 12.8438 9.547C13.1237 9.83997 13.5029 9.98645 13.9814 9.98645C14.46 9.98645 14.8392 9.83997 15.1191 9.547C15.4023 9.25403 15.5439 8.85689 15.5439 8.35559V5.69446C15.5439 5.19316 15.404 4.79602 15.124 4.50305C14.8441 4.21008 14.4632 4.0636 13.9814 4.0636C13.5029 4.0636 13.1237 4.21171 12.8438 4.50793C12.5638 4.8009 12.4238 5.19641 12.4238 5.69446V8.35559Z" fill="#F5F5F5"/>
<path d="M26.0491 7.02747C26.0491 6.53267 26.08 6.06881 26.1418 5.63586C26.2069 5.20292 26.3241 4.82694 26.4934 4.50793C26.6659 4.18567 26.9019 3.93339 27.2014 3.7511C27.5009 3.56881 27.8866 3.47766 28.3586 3.47766C28.8306 3.47766 29.2164 3.56881 29.5159 3.7511C29.8186 3.93339 30.0546 4.18567 30.2239 4.50793C30.3964 4.82694 30.5136 5.20292 30.5754 5.63586C30.6373 6.06881 30.6682 6.53267 30.6682 7.02747C30.6682 7.52226 30.6373 7.98612 30.5754 8.41907C30.5136 8.84875 30.3964 9.22473 30.2239 9.547C30.0546 9.86601 29.8202 10.1183 29.5208 10.3038C29.2213 10.4861 28.8339 10.5773 28.3586 10.5773C27.8866 10.5773 27.5009 10.4861 27.2014 10.3038C26.9019 10.1183 26.6659 9.86601 26.4934 9.547C26.3241 9.22473 26.2069 8.84713 26.1418 8.41418C26.08 7.98124 26.0491 7.519 26.0491 7.02747ZM26.801 8.35559C26.801 8.85689 26.941 9.25403 27.2209 9.547C27.5009 9.83997 27.8801 9.98645 28.3586 9.98645C28.8372 9.98645 29.2164 9.83997 29.4963 9.547C29.7795 9.25403 29.9211 8.85689 29.9211 8.35559V5.69446C29.9211 5.19316 29.7812 4.79602 29.5012 4.50305C29.2213 4.21008 28.8404 4.0636 28.3586 4.0636C27.8801 4.0636 27.5009 4.21171 27.2209 4.50793C26.941 4.8009 26.801 5.19641 26.801 5.69446V8.35559Z" fill="#F5F5F5"/>
<path d="M40.4265 7.02747C40.4265 6.53267 40.4574 6.06881 40.5193 5.63586C40.5844 5.20292 40.7016 4.82694 40.8708 4.50793C41.0434 4.18567 41.2794 3.93339 41.5789 3.7511C41.8783 3.56881 42.2641 3.47766 42.7361 3.47766C43.2081 3.47766 43.5938 3.56881 43.8933 3.7511C44.196 3.93339 44.432 4.18567 44.6013 4.50793C44.7738 4.82694 44.891 5.20292 44.9529 5.63586C45.0147 6.06881 45.0457 6.53267 45.0457 7.02747C45.0457 7.52226 45.0147 7.98612 44.9529 8.41907C44.891 8.84875 44.7738 9.22473 44.6013 9.547C44.432 9.86601 44.1977 10.1183 43.8982 10.3038C43.5987 10.4861 43.2113 10.5773 42.7361 10.5773C42.2641 10.5773 41.8783 10.4861 41.5789 10.3038C41.2794 10.1183 41.0434 9.86601 40.8708 9.547C40.7016 9.22473 40.5844 8.84713 40.5193 8.41418C40.4574 7.98124 40.4265 7.519 40.4265 7.02747ZM41.1785 8.35559C41.1785 8.85689 41.3184 9.25403 41.5984 9.547C41.8783 9.83997 42.2576 9.98645 42.7361 9.98645C43.2146 9.98645 43.5938 9.83997 43.8738 9.547C44.157 9.25403 44.2986 8.85689 44.2986 8.35559V5.69446C44.2986 5.19316 44.1586 4.79602 43.8787 4.50305C43.5987 4.21008 43.2179 4.0636 42.7361 4.0636C42.2576 4.0636 41.8783 4.21171 41.5984 4.50793C41.3184 4.8009 41.1785 5.19641 41.1785 5.69446V8.35559Z" fill="#F5F5F5"/>
<path d="M0.950928 0.397949V121.965" stroke="#F5F5F5" stroke-width="0.75"/>
<path d="M95.9192 0.397949V121.965" stroke="#F5F5F5" stroke-width="0.75"/>
<rect x="58.4351" y="81.9652" width="20" height="20" fill="#F5F5F5"/>
<rect x="58.4351" y="101.965" width="20" height="20" fill="#F5F5F5"/>
<rect x="18.4351" y="101.965" width="20" height="20" fill="#F5F5F5"/>
</svg>
