<svg width="97" height="122" viewBox="0 0 97 122" fill="none" xmlns="http://www.w3.org/2000/svg">
<path d="M6.66406 35.0474V0.167236H8.84768V0.802682H7.36883V34.412H8.84768V35.0474H6.66406Z" fill="#F5F5F5"/>
<path d="M50.0576 35.0474V0.167236H47.874V0.802682H49.3529V34.412H47.874V35.0474H50.0576Z" fill="#F5F5F5"/>
<path d="M12.2041 32.0194V31.4286H13.9521V26.6093H12.2041V26.0184H13.9521V25.2177H14.6016V31.4286H16.1543V32.0194H12.2041Z" fill="#F5F5F5"/>
<path d="M26.0491 28.621C26.0491 28.1262 26.08 27.6623 26.1418 27.2294C26.2069 26.7964 26.3241 26.4205 26.4934 26.1014C26.6659 25.7792 26.9019 25.5269 27.2014 25.3446C27.5009 25.1623 27.8866 25.0712 28.3586 25.0712C28.8306 25.0712 29.2164 25.1623 29.5159 25.3446C29.8186 25.5269 30.0546 25.7792 30.2239 26.1014C30.3964 26.4205 30.5136 26.7964 30.5754 27.2294C30.6373 27.6623 30.6682 28.1262 30.6682 28.621C30.6682 29.1158 30.6373 29.5796 30.5754 30.0126C30.5136 30.4423 30.3964 30.8182 30.2239 31.1405C30.0546 31.4595 29.8202 31.7118 29.5208 31.8973C29.2213 32.0796 28.8339 32.1708 28.3586 32.1708C27.8866 32.1708 27.5009 32.0796 27.2014 31.8973C26.9019 31.7118 26.6659 31.4595 26.4934 31.1405C26.3241 30.8182 26.2069 30.4406 26.1418 30.0077C26.08 29.5747 26.0491 29.1125 26.0491 28.621ZM26.801 29.9491C26.801 30.4504 26.941 30.8475 27.2209 31.1405C27.5009 31.4335 27.8801 31.58 28.3586 31.58C28.8372 31.58 29.2164 31.4335 29.4963 31.1405C29.7795 30.8475 29.9211 30.4504 29.9211 29.9491V27.288C29.9211 26.7867 29.7812 26.3895 29.5012 26.0966C29.2213 25.8036 28.8404 25.6571 28.3586 25.6571C27.8801 25.6571 27.5009 25.8052 27.2209 26.1014C26.941 26.3944 26.801 26.7899 26.801 27.288V29.9491Z" fill="#F5F5F5"/>
<path d="M79.577 32.1952V15.871H88.9872V17.4296H81.2528V23.1014H88.4012V24.66H81.2528V32.1952H79.577Z" fill="#F5F5F5"/>
<path d="M40.4265 28.621C40.4265 28.1262 40.4574 27.6623 40.5193 27.2294C40.5844 26.7964 40.7016 26.4205 40.8708 26.1014C41.0434 25.7792 41.2794 25.5269 41.5789 25.3446C41.8783 25.1623 42.2641 25.0712 42.7361 25.0712C43.2081 25.0712 43.5938 25.1623 43.8933 25.3446C44.196 25.5269 44.432 25.7792 44.6013 26.1014C44.7738 26.4205 44.891 26.7964 44.9529 27.2294C45.0147 27.6623 45.0457 28.1262 45.0457 28.621C45.0457 29.1158 45.0147 29.5796 44.9529 30.0126C44.891 30.4423 44.7738 30.8182 44.6013 31.1405C44.432 31.4595 44.1977 31.7118 43.8982 31.8973C43.5987 32.0796 43.2113 32.1708 42.7361 32.1708C42.2641 32.1708 41.8783 32.0796 41.5789 31.8973C41.2794 31.7118 41.0434 31.4595 40.8708 31.1405C40.7016 30.8182 40.5844 30.4406 40.5193 30.0077C40.4574 29.5747 40.4265 29.1125 40.4265 28.621ZM41.1785 29.9491C41.1785 30.4504 41.3184 30.8475 41.5984 31.1405C41.8783 31.4335 42.2576 31.58 42.7361 31.58C43.2146 31.58 43.5938 31.4335 43.8738 31.1405C44.157 30.8475 44.2986 30.4504 44.2986 29.9491V27.288C44.2986 26.7867 44.1586 26.3895 43.8787 26.0966C43.5987 25.8036 43.2179 25.6571 42.7361 25.6571C42.2576 25.6571 41.8783 25.8052 41.5984 26.1014C41.3184 26.3944 41.1785 26.7899 41.1785 27.288V29.9491Z" fill="#F5F5F5"/>
<path d="M12.2041 21.1073V20.5165H13.9521V15.6971H12.2041V15.1063H13.9521V14.3055H14.6016V20.5165H16.1543V21.1073H12.2041Z" fill="#F5F5F5"/>
<path d="M26.5813 21.1073V20.5165H28.3293V15.6971H26.5813V15.1063H28.3293V14.3055H28.9788V20.5165H30.5315V21.1073H26.5813Z" fill="#F5F5F5"/>
<path d="M40.4265 17.7089C40.4265 17.2141 40.4574 16.7502 40.5193 16.3173C40.5844 15.8843 40.7016 15.5083 40.8708 15.1893C41.0434 14.8671 41.2794 14.6148 41.5789 14.4325C41.8783 14.2502 42.2641 14.1591 42.7361 14.1591C43.2081 14.1591 43.5938 14.2502 43.8933 14.4325C44.196 14.6148 44.432 14.8671 44.6013 15.1893C44.7738 15.5083 44.891 15.8843 44.9529 16.3173C45.0147 16.7502 45.0457 17.2141 45.0457 17.7089C45.0457 18.2037 45.0147 18.6675 44.9529 19.1005C44.891 19.5302 44.7738 19.9061 44.6013 20.2284C44.432 20.5474 44.1977 20.7997 43.8982 20.9852C43.5987 21.1675 43.2113 21.2587 42.7361 21.2587C42.2641 21.2587 41.8783 21.1675 41.5789 20.9852C41.2794 20.7997 41.0434 20.5474 40.8708 20.2284C40.7016 19.9061 40.5844 19.5285 40.5193 19.0956C40.4574 18.6626 40.4265 18.2004 40.4265 17.7089ZM41.1785 19.037C41.1785 19.5383 41.3184 19.9354 41.5984 20.2284C41.8783 20.5214 42.2576 20.6678 42.7361 20.6678C43.2146 20.6678 43.5938 20.5214 43.8738 20.2284C44.157 19.9354 44.2986 19.5383 44.2986 19.037V16.3759C44.2986 15.8746 44.1586 15.4774 43.8787 15.1844C43.5987 14.8915 43.2179 14.745 42.7361 14.745C42.2576 14.745 41.8783 14.8931 41.5984 15.1893C41.3184 15.4823 41.1785 15.8778 41.1785 16.3759V19.037Z" fill="#F5F5F5"/>
<path d="M12.2041 10.1952V9.60437H13.9521V4.78503H12.2041V4.19421H13.9521V3.39343H14.6016V9.60437H16.1543V10.1952H12.2041Z" fill="#F5F5F5"/>
<path d="M26.0491 6.79675C26.0491 6.30196 26.08 5.83809 26.1418 5.40515C26.2069 4.97221 26.3241 4.59623 26.4934 4.27722C26.6659 3.95496 26.9019 3.70268 27.2014 3.52039C27.5009 3.33809 27.8866 3.24695 28.3586 3.24695C28.8306 3.24695 29.2164 3.33809 29.5159 3.52039C29.8186 3.70268 30.0546 3.95496 30.2239 4.27722C30.3964 4.59623 30.5136 4.97221 30.5754 5.40515C30.6373 5.83809 30.6682 6.30196 30.6682 6.79675C30.6682 7.29154 30.6373 7.75541 30.5754 8.18835C30.5136 8.61804 30.3964 8.99402 30.2239 9.31628C30.0546 9.63529 29.8202 9.88757 29.5208 10.0731C29.2213 10.2554 28.8339 10.3466 28.3586 10.3466C27.8866 10.3466 27.5009 10.2554 27.2014 10.0731C26.9019 9.88757 26.6659 9.63529 26.4934 9.31628C26.3241 8.99402 26.2069 8.61641 26.1418 8.18347C26.08 7.75053 26.0491 7.28829 26.0491 6.79675ZM26.801 8.12488C26.801 8.62618 26.941 9.02332 27.2209 9.31628C27.5009 9.60925 27.8801 9.75574 28.3586 9.75574C28.8372 9.75574 29.2164 9.60925 29.4963 9.31628C29.7795 9.02332 29.9211 8.62618 29.9211 8.12488V5.46375C29.9211 4.96244 29.7812 4.56531 29.5012 4.27234C29.2213 3.97937 28.8404 3.83289 28.3586 3.83289C27.8801 3.83289 27.5009 3.981 27.2209 4.27722C26.941 4.57019 26.801 4.9657 26.801 5.46375V8.12488Z" fill="#F5F5F5"/>
<path d="M40.4265 6.79675C40.4265 6.30196 40.4574 5.83809 40.5193 5.40515C40.5844 4.97221 40.7016 4.59623 40.8708 4.27722C41.0434 3.95496 41.2794 3.70268 41.5789 3.52039C41.8783 3.33809 42.2641 3.24695 42.7361 3.24695C43.2081 3.24695 43.5938 3.33809 43.8933 3.52039C44.196 3.70268 44.432 3.95496 44.6013 4.27722C44.7738 4.59623 44.891 4.97221 44.9529 5.40515C45.0147 5.83809 45.0457 6.30196 45.0457 6.79675C45.0457 7.29154 45.0147 7.75541 44.9529 8.18835C44.891 8.61804 44.7738 8.99402 44.6013 9.31628C44.432 9.63529 44.1977 9.88757 43.8982 10.0731C43.5987 10.2554 43.2113 10.3466 42.7361 10.3466C42.2641 10.3466 41.8783 10.2554 41.5789 10.0731C41.2794 9.88757 41.0434 9.63529 40.8708 9.31628C40.7016 8.99402 40.5844 8.61641 40.5193 8.18347C40.4574 7.75053 40.4265 7.28829 40.4265 6.79675ZM41.1785 8.12488C41.1785 8.62618 41.3184 9.02332 41.5984 9.31628C41.8783 9.60925 42.2576 9.75574 42.7361 9.75574C43.2146 9.75574 43.5938 9.60925 43.8738 9.31628C44.157 9.02332 44.2986 8.62618 44.2986 8.12488V5.46375C44.2986 4.96244 44.1586 4.56531 43.8787 4.27234C43.5987 3.97937 43.2179 3.83289 42.7361 3.83289C42.2576 3.83289 41.8783 3.981 41.5984 4.27722C41.3184 4.57019 41.1785 4.9657 41.1785 5.46375V8.12488Z" fill="#F5F5F5"/>
<path d="M0.950928 0.167236V121.735" stroke="#F5F5F5" stroke-width="0.75"/>
<path d="M95.9192 0.167236V121.735" stroke="#F5F5F5" stroke-width="0.75"/>
<rect x="38.436" y="81.7345" width="20" height="20" fill="#F5F5F5"/>
<rect x="18.436" y="81.7345" width="20" height="20" fill="#F5F5F5"/>
<rect x="18.436" y="61.7345" width="20" height="20" fill="#F5F5F5"/>
<rect x="18.436" y="101.734" width="20" height="20" fill="#F5F5F5"/>
</svg>
