<svg width="97" height="122" viewBox="0 0 97 122" fill="none" xmlns="http://www.w3.org/2000/svg">
<path d="M6.63232 35.0474V0.167236H8.81595V0.802682H7.33709V34.412H8.81595V35.0474H6.63232Z" fill="#F5F5F5"/>
<path d="M50.0259 35.0474V0.167236H47.8423V0.802682H49.3211V34.412H47.8423V35.0474H50.0259Z" fill="#F5F5F5"/>
<path d="M11.6401 28.621C11.6401 28.1262 11.6711 27.6623 11.7329 27.2294C11.798 26.7964 11.9152 26.4205 12.0845 26.1014C12.257 25.7792 12.493 25.5269 12.7925 25.3446C13.092 25.1623 13.4777 25.0712 13.9497 25.0712C14.4217 25.0712 14.8075 25.1623 15.1069 25.3446C15.4097 25.5269 15.6457 25.7792 15.8149 26.1014C15.9875 26.4205 16.1047 26.7964 16.1665 27.2294C16.2284 27.6623 16.2593 28.1262 16.2593 28.621C16.2593 29.1158 16.2284 29.5796 16.1665 30.0126C16.1047 30.4423 15.9875 30.8182 15.8149 31.1405C15.6457 31.4595 15.4113 31.7118 15.1118 31.8973C14.8123 32.0796 14.425 32.1708 13.9497 32.1708C13.4777 32.1708 13.092 32.0796 12.7925 31.8973C12.493 31.7118 12.257 31.4595 12.0845 31.1405C11.9152 30.8182 11.798 30.4406 11.7329 30.0077C11.6711 29.5747 11.6401 29.1125 11.6401 28.621ZM12.3921 29.9491C12.3921 30.4504 12.5321 30.8475 12.812 31.1405C13.092 31.4335 13.4712 31.58 13.9497 31.58C14.4282 31.58 14.8075 31.4335 15.0874 31.1405C15.3706 30.8475 15.5122 30.4504 15.5122 29.9491V27.288C15.5122 26.7867 15.3722 26.3895 15.0923 26.0966C14.8123 25.8036 14.4315 25.6571 13.9497 25.6571C13.4712 25.6571 13.092 25.8052 12.812 26.1014C12.5321 26.3944 12.3921 26.7899 12.3921 27.288V29.9491Z" fill="#F5F5F5"/>
<path d="M26.0173 28.621C26.0173 28.1262 26.0483 27.6623 26.1101 27.2294C26.1752 26.7964 26.2924 26.4205 26.4617 26.1014C26.6342 25.7792 26.8702 25.5269 27.1697 25.3446C27.4692 25.1623 27.8549 25.0712 28.3269 25.0712C28.7989 25.0712 29.1847 25.1623 29.4841 25.3446C29.7869 25.5269 30.0229 25.7792 30.1921 26.1014C30.3647 26.4205 30.4819 26.7964 30.5437 27.2294C30.6056 27.6623 30.6365 28.1262 30.6365 28.621C30.6365 29.1158 30.6056 29.5796 30.5437 30.0126C30.4819 30.4423 30.3647 30.8182 30.1921 31.1405C30.0229 31.4595 29.7885 31.7118 29.489 31.8973C29.1895 32.0796 28.8022 32.1708 28.3269 32.1708C27.8549 32.1708 27.4692 32.0796 27.1697 31.8973C26.8702 31.7118 26.6342 31.4595 26.4617 31.1405C26.2924 30.8182 26.1752 30.4406 26.1101 30.0077C26.0483 29.5747 26.0173 29.1125 26.0173 28.621ZM26.7693 29.9491C26.7693 30.4504 26.9093 30.8475 27.1892 31.1405C27.4692 31.4335 27.8484 31.58 28.3269 31.58C28.8054 31.58 29.1847 31.4335 29.4646 31.1405C29.7478 30.8475 29.8894 30.4504 29.8894 29.9491V27.288C29.8894 26.7867 29.7494 26.3895 29.4695 26.0966C29.1895 25.8036 28.8087 25.6571 28.3269 25.6571C27.8484 25.6571 27.4692 25.8052 27.1892 26.1014C26.9093 26.3944 26.7693 26.7899 26.7693 27.288V29.9491Z" fill="#F5F5F5"/>
<path d="M75.8656 24.1796C75.8656 22.8827 75.9945 21.703 76.2523 20.6405C76.5101 19.578 76.9047 18.6678 77.4359 17.91C77.975 17.1444 78.6586 16.5546 79.4867 16.1405C80.3226 15.7264 81.307 15.5194 82.4398 15.5194C83.2211 15.5194 83.9437 15.6366 84.6078 15.871C85.2797 16.0975 85.8617 16.4296 86.3539 16.8671C86.8539 17.2968 87.2523 17.8202 87.5492 18.4374C87.8539 19.0468 88.0492 19.7382 88.1351 20.5116H86.4476C86.3226 19.3632 85.8969 18.5038 85.1703 17.9335C84.4437 17.3632 83.4789 17.078 82.2758 17.078C81.6195 17.078 81.0179 17.1952 80.4711 17.4296C79.932 17.6561 79.4594 17.9764 79.0531 18.3905C78.6547 18.7968 78.3422 19.2772 78.1156 19.8319C77.8969 20.3788 77.7875 20.9803 77.7875 21.6366V26.4296C77.7875 27.1014 77.9008 27.7147 78.1273 28.2694C78.3617 28.8241 78.6742 29.3046 79.0648 29.7108C79.4633 30.1171 79.932 30.4335 80.4711 30.66C81.0179 30.8866 81.6039 30.9999 82.2289 30.9999C83.6195 30.9999 84.7133 30.621 85.5101 29.8632C86.3148 29.0975 86.7172 28.0194 86.7172 26.6288V25.2811H82.7797V23.7225H88.3929V32.1952H86.8109L86.7172 30.3436C86.3031 31.0311 85.7015 31.5741 84.9125 31.9725C84.1312 32.3632 83.2211 32.5585 82.182 32.5585C80.1351 32.5585 78.5687 31.828 77.4828 30.3671C76.4047 28.8983 75.8656 26.8358 75.8656 24.1796Z" fill="#F5F5F5"/>
<path d="M40.927 32.0194V31.4286H42.675V26.6093H40.927V26.0184H42.675V25.2177H43.3245V31.4286H44.8772V32.0194H40.927Z" fill="#F5F5F5"/>
<path d="M12.1724 21.1073V20.5165H13.9204V15.6971H12.1724V15.1063H13.9204V14.3055H14.5698V20.5165H16.1226V21.1073H12.1724Z" fill="#F5F5F5"/>
<path d="M26.0173 17.7089C26.0173 17.2141 26.0483 16.7502 26.1101 16.3173C26.1752 15.8843 26.2924 15.5083 26.4617 15.1893C26.6342 14.8671 26.8702 14.6148 27.1697 14.4325C27.4692 14.2502 27.8549 14.1591 28.3269 14.1591C28.7989 14.1591 29.1847 14.2502 29.4841 14.4325C29.7869 14.6148 30.0229 14.8671 30.1921 15.1893C30.3647 15.5083 30.4819 15.8843 30.5437 16.3173C30.6056 16.7502 30.6365 17.2141 30.6365 17.7089C30.6365 18.2037 30.6056 18.6675 30.5437 19.1005C30.4819 19.5302 30.3647 19.9061 30.1921 20.2284C30.0229 20.5474 29.7885 20.7997 29.489 20.9852C29.1895 21.1675 28.8022 21.2587 28.3269 21.2587C27.8549 21.2587 27.4692 21.1675 27.1697 20.9852C26.8702 20.7997 26.6342 20.5474 26.4617 20.2284C26.2924 19.9061 26.1752 19.5285 26.1101 19.0956C26.0483 18.6626 26.0173 18.2004 26.0173 17.7089ZM26.7693 19.037C26.7693 19.5383 26.9093 19.9354 27.1892 20.2284C27.4692 20.5214 27.8484 20.6678 28.3269 20.6678C28.8054 20.6678 29.1847 20.5214 29.4646 20.2284C29.7478 19.9354 29.8894 19.5383 29.8894 19.037V16.3759C29.8894 15.8746 29.7494 15.4774 29.4695 15.1844C29.1895 14.8915 28.8087 14.745 28.3269 14.745C27.8484 14.745 27.4692 14.8931 27.1892 15.1893C26.9093 15.4823 26.7693 15.8778 26.7693 16.3759V19.037Z" fill="#F5F5F5"/>
<path d="M40.3948 17.7089C40.3948 17.2141 40.4257 16.7502 40.4875 16.3173C40.5527 15.8843 40.6698 15.5083 40.8391 15.1893C41.0116 14.8671 41.2476 14.6148 41.5471 14.4325C41.8466 14.2502 42.2323 14.1591 42.7043 14.1591C43.1764 14.1591 43.5621 14.2502 43.8616 14.4325C44.1643 14.6148 44.4003 14.8671 44.5696 15.1893C44.7421 15.5083 44.8593 15.8843 44.9211 16.3173C44.983 16.7502 45.0139 17.2141 45.0139 17.7089C45.0139 18.2037 44.983 18.6675 44.9211 19.1005C44.8593 19.5302 44.7421 19.9061 44.5696 20.2284C44.4003 20.5474 44.1659 20.7997 43.8665 20.9852C43.567 21.1675 43.1796 21.2587 42.7043 21.2587C42.2323 21.2587 41.8466 21.1675 41.5471 20.9852C41.2476 20.7997 41.0116 20.5474 40.8391 20.2284C40.6698 19.9061 40.5527 19.5285 40.4875 19.0956C40.4257 18.6626 40.3948 18.2004 40.3948 17.7089ZM41.1467 19.037C41.1467 19.5383 41.2867 19.9354 41.5667 20.2284C41.8466 20.5214 42.2258 20.6678 42.7043 20.6678C43.1829 20.6678 43.5621 20.5214 43.842 20.2284C44.1252 19.9354 44.2668 19.5383 44.2668 19.037V16.3759C44.2668 15.8746 44.1269 15.4774 43.8469 15.1844C43.567 14.8915 43.1861 14.745 42.7043 14.745C42.2258 14.745 41.8466 14.8931 41.5667 15.1893C41.2867 15.4823 41.1467 15.8778 41.1467 16.3759V19.037Z" fill="#F5F5F5"/>
<path d="M12.1724 10.1952V9.60437H13.9204V4.78503H12.1724V4.19421H13.9204V3.39343H14.5698V9.60437H16.1226V10.1952H12.1724Z" fill="#F5F5F5"/>
<path d="M26.5496 10.1952V9.60437H28.2976V4.78503H26.5496V4.19421H28.2976V3.39343H28.947V9.60437H30.4998V10.1952H26.5496Z" fill="#F5F5F5"/>
<path d="M40.927 10.1952V9.60437H42.675V4.78503H40.927V4.19421H42.675V3.39343H43.3245V9.60437H44.8772V10.1952H40.927Z" fill="#F5F5F5"/>
<path d="M0.919189 0.167236V121.735" stroke="#F5F5F5" stroke-width="0.75"/>
<path d="M95.8875 0.167236V121.735" stroke="#F5F5F5" stroke-width="0.75"/>
<rect x="18.4045" y="81.7345" width="20" height="20" fill="#F5F5F5"/>
<rect x="58.4045" y="61.7345" width="20" height="20" fill="#F5F5F5"/>
<rect x="38.4045" y="61.7345" width="20" height="20" fill="#F5F5F5"/>
<rect x="18.4045" y="61.7345" width="20" height="20" fill="#F5F5F5"/>
<rect x="58.4045" y="101.734" width="20" height="20" fill="#F5F5F5"/>
</svg>
