<svg width="97" height="123" viewBox="0 0 97 123" fill="none" xmlns="http://www.w3.org/2000/svg">
<path d="M6.88599 35.4319V0.551758H9.06961V1.1872H7.59075V34.7965H9.06961V35.4319H6.88599Z" fill="#F5F5F5"/>
<path d="M50.2795 35.4319V0.551758H48.0959V1.1872H49.5748V34.7965H48.0959V35.4319H50.2795Z" fill="#F5F5F5"/>
<path d="M11.8938 29.0055C11.8938 28.5107 11.9247 28.0468 11.9866 27.6139C12.0517 27.1809 12.1689 26.805 12.3381 26.486C12.5107 26.1637 12.7467 25.9114 13.0461 25.7291C13.3456 25.5468 13.7314 25.4557 14.2034 25.4557C14.6754 25.4557 15.0611 25.5468 15.3606 25.7291C15.6633 25.9114 15.8993 26.1637 16.0686 26.486C16.2411 26.805 16.3583 27.1809 16.4202 27.6139C16.482 28.0468 16.5129 28.5107 16.5129 29.0055C16.5129 29.5003 16.482 29.9642 16.4202 30.3971C16.3583 30.8268 16.2411 31.2028 16.0686 31.525C15.8993 31.844 15.665 32.0963 15.3655 32.2819C15.066 32.4642 14.6786 32.5553 14.2034 32.5553C13.7314 32.5553 13.3456 32.4642 13.0461 32.2819C12.7467 32.0963 12.5107 31.844 12.3381 31.525C12.1689 31.2028 12.0517 30.8252 11.9866 30.3922C11.9247 29.9593 11.8938 29.497 11.8938 29.0055ZM12.6458 30.3336C12.6458 30.8349 12.7857 31.2321 13.0657 31.525C13.3456 31.818 13.7249 31.9645 14.2034 31.9645C14.6819 31.9645 15.0611 31.818 15.3411 31.525C15.6243 31.2321 15.7659 30.8349 15.7659 30.3336V27.6725C15.7659 27.1712 15.6259 26.774 15.3459 26.4811C15.066 26.1881 14.6851 26.0416 14.2034 26.0416C13.7249 26.0416 13.3456 26.1897 13.0657 26.486C12.7857 26.7789 12.6458 27.1744 12.6458 27.6725V30.3336Z" fill="#F5F5F5"/>
<path d="M26.271 29.0055C26.271 28.5107 26.3019 28.0468 26.3638 27.6139C26.4289 27.1809 26.5461 26.805 26.7153 26.486C26.8879 26.1637 27.1239 25.9114 27.4233 25.7291C27.7228 25.5468 28.1086 25.4557 28.5806 25.4557C29.0526 25.4557 29.4383 25.5468 29.7378 25.7291C30.0405 25.9114 30.2765 26.1637 30.4458 26.486C30.6183 26.805 30.7355 27.1809 30.7974 27.6139C30.8592 28.0468 30.8901 28.5107 30.8901 29.0055C30.8901 29.5003 30.8592 29.9642 30.7974 30.3971C30.7355 30.8268 30.6183 31.2028 30.4458 31.525C30.2765 31.844 30.0422 32.0963 29.7427 32.2819C29.4432 32.4642 29.0558 32.5553 28.5806 32.5553C28.1086 32.5553 27.7228 32.4642 27.4233 32.2819C27.1239 32.0963 26.8879 31.844 26.7153 31.525C26.5461 31.2028 26.4289 30.8252 26.3638 30.3922C26.3019 29.9593 26.271 29.497 26.271 29.0055ZM27.0229 30.3336C27.0229 30.8349 27.1629 31.2321 27.4429 31.525C27.7228 31.818 28.1021 31.9645 28.5806 31.9645C29.0591 31.9645 29.4383 31.818 29.7183 31.525C30.0015 31.2321 30.1431 30.8349 30.1431 30.3336V27.6725C30.1431 27.1712 30.0031 26.774 29.7231 26.4811C29.4432 26.1881 29.0623 26.0416 28.5806 26.0416C28.1021 26.0416 27.7228 26.1897 27.4429 26.486C27.1629 26.7789 27.0229 27.1744 27.0229 27.6725V30.3336Z" fill="#F5F5F5"/>
<path d="M78.674 32.5797V16.2555H88.8927V17.8141H80.3497V23.486H87.7911V25.0446H80.3497V31.0211H88.8927V32.5797H78.674ZM81.1935 11.7321H83.0099L84.9786 14.65H83.713L81.1935 11.7321Z" fill="#F5F5F5"/>
<path d="M40.6484 29.0055C40.6484 28.5107 40.6794 28.0468 40.7412 27.6139C40.8063 27.1809 40.9235 26.805 41.0928 26.486C41.2653 26.1637 41.5013 25.9114 41.8008 25.7291C42.1003 25.5468 42.486 25.4557 42.958 25.4557C43.43 25.4557 43.8158 25.5468 44.1152 25.7291C44.418 25.9114 44.654 26.1637 44.8232 26.486C44.9958 26.805 45.113 27.1809 45.1748 27.6139C45.2367 28.0468 45.2676 28.5107 45.2676 29.0055C45.2676 29.5003 45.2367 29.9642 45.1748 30.3971C45.113 30.8268 44.9958 31.2028 44.8232 31.525C44.654 31.844 44.4196 32.0963 44.1201 32.2819C43.8206 32.4642 43.4333 32.5553 42.958 32.5553C42.486 32.5553 42.1003 32.4642 41.8008 32.2819C41.5013 32.0963 41.2653 31.844 41.0928 31.525C40.9235 31.2028 40.8063 30.8252 40.7412 30.3922C40.6794 29.9593 40.6484 29.497 40.6484 29.0055ZM41.4004 30.3336C41.4004 30.8349 41.5404 31.2321 41.8203 31.525C42.1003 31.818 42.4795 31.9645 42.958 31.9645C43.4365 31.9645 43.8158 31.818 44.0957 31.525C44.3789 31.2321 44.5205 30.8349 44.5205 30.3336V27.6725C44.5205 27.1712 44.3805 26.774 44.1006 26.4811C43.8206 26.1881 43.4398 26.0416 42.958 26.0416C42.4795 26.0416 42.1003 26.1897 41.8203 26.486C41.5404 26.7789 41.4004 27.1744 41.4004 27.6725V30.3336Z" fill="#F5F5F5"/>
<path d="M11.8938 18.0934C11.8938 17.5986 11.9247 17.1347 11.9866 16.7018C12.0517 16.2688 12.1689 15.8929 12.3381 15.5739C12.5107 15.2516 12.7467 14.9993 13.0461 14.817C13.3456 14.6347 13.7314 14.5436 14.2034 14.5436C14.6754 14.5436 15.0611 14.6347 15.3606 14.817C15.6633 14.9993 15.8993 15.2516 16.0686 15.5739C16.2411 15.8929 16.3583 16.2688 16.4202 16.7018C16.482 17.1347 16.5129 17.5986 16.5129 18.0934C16.5129 18.5882 16.482 19.052 16.4202 19.485C16.3583 19.9147 16.2411 20.2906 16.0686 20.6129C15.8993 20.9319 15.665 21.1842 15.3655 21.3698C15.066 21.552 14.6786 21.6432 14.2034 21.6432C13.7314 21.6432 13.3456 21.552 13.0461 21.3698C12.7467 21.1842 12.5107 20.9319 12.3381 20.6129C12.1689 20.2906 12.0517 19.913 11.9866 19.4801C11.9247 19.0472 11.8938 18.5849 11.8938 18.0934ZM12.6458 19.4215C12.6458 19.9228 12.7857 20.3199 13.0657 20.6129C13.3456 20.9059 13.7249 21.0524 14.2034 21.0524C14.6819 21.0524 15.0611 20.9059 15.3411 20.6129C15.6243 20.3199 15.7659 19.9228 15.7659 19.4215V16.7604C15.7659 16.2591 15.6259 15.8619 15.3459 15.569C15.066 15.276 14.6851 15.1295 14.2034 15.1295C13.7249 15.1295 13.3456 15.2776 13.0657 15.5739C12.7857 15.8668 12.6458 16.2623 12.6458 16.7604V19.4215Z" fill="#F5F5F5"/>
<path d="M26.8032 21.4918V20.901H28.5513V16.0817H26.8032V15.4908H28.5513V14.6901H29.2007V20.901H30.7534V21.4918H26.8032Z" fill="#F5F5F5"/>
<path d="M40.6484 18.0934C40.6484 17.5986 40.6794 17.1347 40.7412 16.7018C40.8063 16.2688 40.9235 15.8929 41.0928 15.5739C41.2653 15.2516 41.5013 14.9993 41.8008 14.817C42.1003 14.6347 42.486 14.5436 42.958 14.5436C43.43 14.5436 43.8158 14.6347 44.1152 14.817C44.418 14.9993 44.654 15.2516 44.8232 15.5739C44.9958 15.8929 45.113 16.2688 45.1748 16.7018C45.2367 17.1347 45.2676 17.5986 45.2676 18.0934C45.2676 18.5882 45.2367 19.052 45.1748 19.485C45.113 19.9147 44.9958 20.2906 44.8232 20.6129C44.654 20.9319 44.4196 21.1842 44.1201 21.3698C43.8206 21.552 43.4333 21.6432 42.958 21.6432C42.486 21.6432 42.1003 21.552 41.8008 21.3698C41.5013 21.1842 41.2653 20.9319 41.0928 20.6129C40.9235 20.2906 40.8063 19.913 40.7412 19.4801C40.6794 19.0472 40.6484 18.5849 40.6484 18.0934ZM41.4004 19.4215C41.4004 19.9228 41.5404 20.3199 41.8203 20.6129C42.1003 20.9059 42.4795 21.0524 42.958 21.0524C43.4365 21.0524 43.8158 20.9059 44.0957 20.6129C44.3789 20.3199 44.5205 19.9228 44.5205 19.4215V16.7604C44.5205 16.2591 44.3805 15.8619 44.1006 15.569C43.8206 15.276 43.4398 15.1295 42.958 15.1295C42.4795 15.1295 42.1003 15.2776 41.8203 15.5739C41.5404 15.8668 41.4004 16.2623 41.4004 16.7604V19.4215Z" fill="#F5F5F5"/>
<path d="M11.8938 7.18127C11.8938 6.68648 11.9247 6.22262 11.9866 5.78967C12.0517 5.35673 12.1689 4.98075 12.3381 4.66174C12.5107 4.33948 12.7467 4.0872 13.0461 3.90491C13.3456 3.72262 13.7314 3.63147 14.2034 3.63147C14.6754 3.63147 15.0611 3.72262 15.3606 3.90491C15.6633 4.0872 15.8993 4.33948 16.0686 4.66174C16.2411 4.98075 16.3583 5.35673 16.4202 5.78967C16.482 6.22262 16.5129 6.68648 16.5129 7.18127C16.5129 7.67607 16.482 8.13993 16.4202 8.57288C16.3583 9.00256 16.2411 9.37854 16.0686 9.70081C15.8993 10.0198 15.665 10.2721 15.3655 10.4576C15.066 10.6399 14.6786 10.7311 14.2034 10.7311C13.7314 10.7311 13.3456 10.6399 13.0461 10.4576C12.7467 10.2721 12.5107 10.0198 12.3381 9.70081C12.1689 9.37854 12.0517 9.00094 11.9866 8.56799C11.9247 8.13505 11.8938 7.67281 11.8938 7.18127ZM12.6458 8.5094C12.6458 9.0107 12.7857 9.40784 13.0657 9.70081C13.3456 9.99377 13.7249 10.1403 14.2034 10.1403C14.6819 10.1403 15.0611 9.99377 15.3411 9.70081C15.6243 9.40784 15.7659 9.0107 15.7659 8.5094V5.84827C15.7659 5.34696 15.6259 4.94983 15.3459 4.65686C15.066 4.36389 14.6851 4.21741 14.2034 4.21741C13.7249 4.21741 13.3456 4.36552 13.0657 4.66174C12.7857 4.95471 12.6458 5.35022 12.6458 5.84827V8.5094Z" fill="#F5F5F5"/>
<path d="M26.8032 10.5797V9.98889H28.5513V5.16956H26.8032V4.57874H28.5513V3.77795H29.2007V9.98889H30.7534V10.5797H26.8032Z" fill="#F5F5F5"/>
<path d="M40.6484 7.18127C40.6484 6.68648 40.6794 6.22262 40.7412 5.78967C40.8063 5.35673 40.9235 4.98075 41.0928 4.66174C41.2653 4.33948 41.5013 4.0872 41.8008 3.90491C42.1003 3.72262 42.486 3.63147 42.958 3.63147C43.43 3.63147 43.8158 3.72262 44.1152 3.90491C44.418 4.0872 44.654 4.33948 44.8232 4.66174C44.9958 4.98075 45.113 5.35673 45.1748 5.78967C45.2367 6.22262 45.2676 6.68648 45.2676 7.18127C45.2676 7.67607 45.2367 8.13993 45.1748 8.57288C45.113 9.00256 44.9958 9.37854 44.8232 9.70081C44.654 10.0198 44.4196 10.2721 44.1201 10.4576C43.8206 10.6399 43.4333 10.7311 42.958 10.7311C42.486 10.7311 42.1003 10.6399 41.8008 10.4576C41.5013 10.2721 41.2653 10.0198 41.0928 9.70081C40.9235 9.37854 40.8063 9.00094 40.7412 8.56799C40.6794 8.13505 40.6484 7.67281 40.6484 7.18127ZM41.4004 8.5094C41.4004 9.0107 41.5404 9.40784 41.8203 9.70081C42.1003 9.99377 42.4795 10.1403 42.958 10.1403C43.4365 10.1403 43.8158 9.99377 44.0957 9.70081C44.3789 9.40784 44.5205 9.0107 44.5205 8.5094V5.84827C44.5205 5.34696 44.3805 4.94983 44.1006 4.65686C43.8206 4.36389 43.4398 4.21741 42.958 4.21741C42.4795 4.21741 42.1003 4.36552 41.8203 4.66174C41.5404 4.95471 41.4004 5.35022 41.4004 5.84827V8.5094Z" fill="#F5F5F5"/>
<path d="M1.17285 0.551758V122.119" stroke="#F5F5F5" stroke-width="0.75"/>
<path d="M96.1411 0.551758V122.119" stroke="#F5F5F5" stroke-width="0.75"/>
<rect x="38.6943" y="82.119" width="20" height="20" fill="#F5F5F5"/>
<rect x="38.6943" y="62.119" width="20" height="20" fill="#F5F5F5"/>
</svg>
