<svg width="97" height="123" viewBox="0 0 97 123" fill="none" xmlns="http://www.w3.org/2000/svg">
<path d="M6.91772 35.4319V0.551758H9.10135V1.1872H7.62249V34.7965H9.10135V35.4319H6.91772Z" fill="#F5F5F5"/>
<path d="M50.3113 35.4319V0.551758H48.1277V1.1872H49.6065V34.7965H48.1277V35.4319H50.3113Z" fill="#F5F5F5"/>
<path d="M11.9255 29.0055C11.9255 28.5107 11.9565 28.0468 12.0183 27.6139C12.0834 27.1809 12.2006 26.805 12.3699 26.486C12.5424 26.1637 12.7784 25.9114 13.0779 25.7291C13.3774 25.5468 13.7631 25.4557 14.2351 25.4557C14.7071 25.4557 15.0929 25.5468 15.3923 25.7291C15.6951 25.9114 15.9311 26.1637 16.1003 26.486C16.2729 26.805 16.3901 27.1809 16.4519 27.6139C16.5138 28.0468 16.5447 28.5107 16.5447 29.0055C16.5447 29.5003 16.5138 29.9642 16.4519 30.3971C16.3901 30.8268 16.2729 31.2028 16.1003 31.525C15.9311 31.844 15.6967 32.0963 15.3972 32.2819C15.0977 32.4642 14.7104 32.5553 14.2351 32.5553C13.7631 32.5553 13.3774 32.4642 13.0779 32.2819C12.7784 32.0963 12.5424 31.844 12.3699 31.525C12.2006 31.2028 12.0834 30.8252 12.0183 30.3922C11.9565 29.9593 11.9255 29.497 11.9255 29.0055ZM12.6775 30.3336C12.6775 30.8349 12.8175 31.2321 13.0974 31.525C13.3774 31.818 13.7566 31.9645 14.2351 31.9645C14.7136 31.9645 15.0929 31.818 15.3728 31.525C15.656 31.2321 15.7976 30.8349 15.7976 30.3336V27.6725C15.7976 27.1712 15.6576 26.774 15.3777 26.4811C15.0977 26.1881 14.7169 26.0416 14.2351 26.0416C13.7566 26.0416 13.3774 26.1897 13.0974 26.486C12.8175 26.7789 12.6775 27.1744 12.6775 27.6725V30.3336Z" fill="#F5F5F5"/>
<path d="M26.3027 29.0055C26.3027 28.5107 26.3337 28.0468 26.3955 27.6139C26.4606 27.1809 26.5778 26.805 26.7471 26.486C26.9196 26.1637 27.1556 25.9114 27.4551 25.7291C27.7546 25.5468 28.1403 25.4557 28.6123 25.4557C29.0843 25.4557 29.4701 25.5468 29.7695 25.7291C30.0723 25.9114 30.3083 26.1637 30.4775 26.486C30.6501 26.805 30.7673 27.1809 30.8291 27.6139C30.891 28.0468 30.9219 28.5107 30.9219 29.0055C30.9219 29.5003 30.891 29.9642 30.8291 30.3971C30.7673 30.8268 30.6501 31.2028 30.4775 31.525C30.3083 31.844 30.0739 32.0963 29.7744 32.2819C29.4749 32.4642 29.0876 32.5553 28.6123 32.5553C28.1403 32.5553 27.7546 32.4642 27.4551 32.2819C27.1556 32.0963 26.9196 31.844 26.7471 31.525C26.5778 31.2028 26.4606 30.8252 26.3955 30.3922C26.3337 29.9593 26.3027 29.497 26.3027 29.0055ZM27.0547 30.3336C27.0547 30.8349 27.1947 31.2321 27.4746 31.525C27.7546 31.818 28.1338 31.9645 28.6123 31.9645C29.0908 31.9645 29.4701 31.818 29.75 31.525C30.0332 31.2321 30.1748 30.8349 30.1748 30.3336V27.6725C30.1748 27.1712 30.0348 26.774 29.7549 26.4811C29.4749 26.1881 29.0941 26.0416 28.6123 26.0416C28.1338 26.0416 27.7546 26.1897 27.4746 26.486C27.1947 26.7789 27.0547 27.1744 27.0547 27.6725V30.3336Z" fill="#F5F5F5"/>
<path d="M76.3268 32.5797L81.9635 16.2555H84.0026L89.6393 32.5797H87.8463L86.4049 28.3375H79.5377L78.0963 32.5797H76.3268ZM80.0182 26.8961H85.9244L83.0416 18.1305H82.9479L80.0182 26.8961ZM80.9323 11.7321H82.7487L84.7174 14.65H83.4518L80.9323 11.7321Z" fill="#F5F5F5"/>
<path d="M40.6802 29.0055C40.6802 28.5107 40.7111 28.0468 40.7729 27.6139C40.8381 27.1809 40.9552 26.805 41.1245 26.486C41.297 26.1637 41.533 25.9114 41.8325 25.7291C42.132 25.5468 42.5177 25.4557 42.9897 25.4557C43.4618 25.4557 43.8475 25.5468 44.147 25.7291C44.4497 25.9114 44.6857 26.1637 44.855 26.486C45.0275 26.805 45.1447 27.1809 45.2065 27.6139C45.2684 28.0468 45.2993 28.5107 45.2993 29.0055C45.2993 29.5003 45.2684 29.9642 45.2065 30.3971C45.1447 30.8268 45.0275 31.2028 44.855 31.525C44.6857 31.844 44.4513 32.0963 44.1519 32.2819C43.8524 32.4642 43.465 32.5553 42.9897 32.5553C42.5177 32.5553 42.132 32.4642 41.8325 32.2819C41.533 32.0963 41.297 31.844 41.1245 31.525C40.9552 31.2028 40.8381 30.8252 40.7729 30.3922C40.7111 29.9593 40.6802 29.497 40.6802 29.0055ZM41.4321 30.3336C41.4321 30.8349 41.5721 31.2321 41.8521 31.525C42.132 31.818 42.5112 31.9645 42.9897 31.9645C43.4683 31.9645 43.8475 31.818 44.1274 31.525C44.4106 31.2321 44.5522 30.8349 44.5522 30.3336V27.6725C44.5522 27.1712 44.4123 26.774 44.1323 26.4811C43.8524 26.1881 43.4715 26.0416 42.9897 26.0416C42.5112 26.0416 42.132 26.1897 41.8521 26.486C41.5721 26.7789 41.4321 27.1744 41.4321 27.6725V30.3336Z" fill="#F5F5F5"/>
<path d="M11.9255 18.0934C11.9255 17.5986 11.9565 17.1347 12.0183 16.7018C12.0834 16.2688 12.2006 15.8929 12.3699 15.5739C12.5424 15.2516 12.7784 14.9993 13.0779 14.817C13.3774 14.6347 13.7631 14.5436 14.2351 14.5436C14.7071 14.5436 15.0929 14.6347 15.3923 14.817C15.6951 14.9993 15.9311 15.2516 16.1003 15.5739C16.2729 15.8929 16.3901 16.2688 16.4519 16.7018C16.5138 17.1347 16.5447 17.5986 16.5447 18.0934C16.5447 18.5882 16.5138 19.052 16.4519 19.485C16.3901 19.9147 16.2729 20.2906 16.1003 20.6129C15.9311 20.9319 15.6967 21.1842 15.3972 21.3698C15.0977 21.552 14.7104 21.6432 14.2351 21.6432C13.7631 21.6432 13.3774 21.552 13.0779 21.3698C12.7784 21.1842 12.5424 20.9319 12.3699 20.6129C12.2006 20.2906 12.0834 19.913 12.0183 19.4801C11.9565 19.0472 11.9255 18.5849 11.9255 18.0934ZM12.6775 19.4215C12.6775 19.9228 12.8175 20.3199 13.0974 20.6129C13.3774 20.9059 13.7566 21.0524 14.2351 21.0524C14.7136 21.0524 15.0929 20.9059 15.3728 20.6129C15.656 20.3199 15.7976 19.9228 15.7976 19.4215V16.7604C15.7976 16.2591 15.6576 15.8619 15.3777 15.569C15.0977 15.276 14.7169 15.1295 14.2351 15.1295C13.7566 15.1295 13.3774 15.2776 13.0974 15.5739C12.8175 15.8668 12.6775 16.2623 12.6775 16.7604V19.4215Z" fill="#F5F5F5"/>
<path d="M26.835 21.4918V20.901H28.583V16.0817H26.835V15.4908H28.583V14.6901H29.2324V20.901H30.7852V21.4918H26.835Z" fill="#F5F5F5"/>
<path d="M41.2124 21.4918V20.901H42.9604V16.0817H41.2124V15.4908H42.9604V14.6901H43.6099V20.901H45.1626V21.4918H41.2124Z" fill="#F5F5F5"/>
<path d="M11.9255 7.18127C11.9255 6.68648 11.9565 6.22262 12.0183 5.78967C12.0834 5.35673 12.2006 4.98075 12.3699 4.66174C12.5424 4.33948 12.7784 4.0872 13.0779 3.90491C13.3774 3.72262 13.7631 3.63147 14.2351 3.63147C14.7071 3.63147 15.0929 3.72262 15.3923 3.90491C15.6951 4.0872 15.9311 4.33948 16.1003 4.66174C16.2729 4.98075 16.3901 5.35673 16.4519 5.78967C16.5138 6.22262 16.5447 6.68648 16.5447 7.18127C16.5447 7.67607 16.5138 8.13993 16.4519 8.57288C16.3901 9.00256 16.2729 9.37854 16.1003 9.70081C15.9311 10.0198 15.6967 10.2721 15.3972 10.4576C15.0977 10.6399 14.7104 10.7311 14.2351 10.7311C13.7631 10.7311 13.3774 10.6399 13.0779 10.4576C12.7784 10.2721 12.5424 10.0198 12.3699 9.70081C12.2006 9.37854 12.0834 9.00094 12.0183 8.56799C11.9565 8.13505 11.9255 7.67281 11.9255 7.18127ZM12.6775 8.5094C12.6775 9.0107 12.8175 9.40784 13.0974 9.70081C13.3774 9.99377 13.7566 10.1403 14.2351 10.1403C14.7136 10.1403 15.0929 9.99377 15.3728 9.70081C15.656 9.40784 15.7976 9.0107 15.7976 8.5094V5.84827C15.7976 5.34696 15.6576 4.94983 15.3777 4.65686C15.0977 4.36389 14.7169 4.21741 14.2351 4.21741C13.7566 4.21741 13.3774 4.36552 13.0974 4.66174C12.8175 4.95471 12.6775 5.35022 12.6775 5.84827V8.5094Z" fill="#F5F5F5"/>
<path d="M26.3027 7.18127C26.3027 6.68648 26.3337 6.22262 26.3955 5.78967C26.4606 5.35673 26.5778 4.98075 26.7471 4.66174C26.9196 4.33948 27.1556 4.0872 27.4551 3.90491C27.7546 3.72262 28.1403 3.63147 28.6123 3.63147C29.0843 3.63147 29.4701 3.72262 29.7695 3.90491C30.0723 4.0872 30.3083 4.33948 30.4775 4.66174C30.6501 4.98075 30.7673 5.35673 30.8291 5.78967C30.891 6.22262 30.9219 6.68648 30.9219 7.18127C30.9219 7.67607 30.891 8.13993 30.8291 8.57288C30.7673 9.00256 30.6501 9.37854 30.4775 9.70081C30.3083 10.0198 30.0739 10.2721 29.7744 10.4576C29.4749 10.6399 29.0876 10.7311 28.6123 10.7311C28.1403 10.7311 27.7546 10.6399 27.4551 10.4576C27.1556 10.2721 26.9196 10.0198 26.7471 9.70081C26.5778 9.37854 26.4606 9.00094 26.3955 8.56799C26.3337 8.13505 26.3027 7.67281 26.3027 7.18127ZM27.0547 8.5094C27.0547 9.0107 27.1947 9.40784 27.4746 9.70081C27.7546 9.99377 28.1338 10.1403 28.6123 10.1403C29.0908 10.1403 29.4701 9.99377 29.75 9.70081C30.0332 9.40784 30.1748 9.0107 30.1748 8.5094V5.84827C30.1748 5.34696 30.0348 4.94983 29.7549 4.65686C29.4749 4.36389 29.0941 4.21741 28.6123 4.21741C28.1338 4.21741 27.7546 4.36552 27.4746 4.66174C27.1947 4.95471 27.0547 5.35022 27.0547 5.84827V8.5094Z" fill="#F5F5F5"/>
<path d="M40.6802 7.18127C40.6802 6.68648 40.7111 6.22262 40.7729 5.78967C40.8381 5.35673 40.9552 4.98075 41.1245 4.66174C41.297 4.33948 41.533 4.0872 41.8325 3.90491C42.132 3.72262 42.5177 3.63147 42.9897 3.63147C43.4618 3.63147 43.8475 3.72262 44.147 3.90491C44.4497 4.0872 44.6857 4.33948 44.855 4.66174C45.0275 4.98075 45.1447 5.35673 45.2065 5.78967C45.2684 6.22262 45.2993 6.68648 45.2993 7.18127C45.2993 7.67607 45.2684 8.13993 45.2065 8.57288C45.1447 9.00256 45.0275 9.37854 44.855 9.70081C44.6857 10.0198 44.4513 10.2721 44.1519 10.4576C43.8524 10.6399 43.465 10.7311 42.9897 10.7311C42.5177 10.7311 42.132 10.6399 41.8325 10.4576C41.533 10.2721 41.297 10.0198 41.1245 9.70081C40.9552 9.37854 40.8381 9.00094 40.7729 8.56799C40.7111 8.13505 40.6802 7.67281 40.6802 7.18127ZM41.4321 8.5094C41.4321 9.0107 41.5721 9.40784 41.8521 9.70081C42.132 9.99377 42.5112 10.1403 42.9897 10.1403C43.4683 10.1403 43.8475 9.99377 44.1274 9.70081C44.4106 9.40784 44.5522 9.0107 44.5522 8.5094V5.84827C44.5522 5.34696 44.4123 4.94983 44.1323 4.65686C43.8524 4.36389 43.4715 4.21741 42.9897 4.21741C42.5112 4.21741 42.132 4.36552 41.8521 4.66174C41.5721 4.95471 41.4321 5.35022 41.4321 5.84827V8.5094Z" fill="#F5F5F5"/>
<path d="M1.20459 0.551758V122.119" stroke="#F5F5F5" stroke-width="0.75"/>
<path d="M96.1729 0.551758V122.119" stroke="#F5F5F5" stroke-width="0.75"/>
<rect x="38.7261" y="82.119" width="20" height="20" fill="#F5F5F5"/>
<rect x="58.7261" y="82.119" width="20" height="20" fill="#F5F5F5"/>
</svg>
