<svg width="97" height="122" viewBox="0 0 97 122" fill="none" xmlns="http://www.w3.org/2000/svg">
<path d="M6.66406 35.0545V0.174316H8.84768V0.809762H7.36883V34.419H8.84768V35.0545H6.66406Z" fill="#F5F5F5"/>
<path d="M50.0576 35.0545V0.174316H47.874V0.809762H49.3529V34.419H47.874V35.0545H50.0576Z" fill="#F5F5F5"/>
<path d="M12.2041 32.0265V31.4357H13.9521V26.6163H12.2041V26.0255H13.9521V25.2247H14.6016V31.4357H16.1543V32.0265H12.2041Z" fill="#F5F5F5"/>
<path d="M26.0491 28.6281C26.0491 28.1333 26.08 27.6694 26.1418 27.2365C26.2069 26.8035 26.3241 26.4275 26.4934 26.1085C26.6659 25.7863 26.9019 25.534 27.2014 25.3517C27.5009 25.1694 27.8866 25.0782 28.3586 25.0782C28.8306 25.0782 29.2164 25.1694 29.5159 25.3517C29.8186 25.534 30.0546 25.7863 30.2239 26.1085C30.3964 26.4275 30.5136 26.8035 30.5754 27.2365C30.6373 27.6694 30.6682 28.1333 30.6682 28.6281C30.6682 29.1228 30.6373 29.5867 30.5754 30.0197C30.5136 30.4493 30.3964 30.8253 30.2239 31.1476C30.0546 31.4666 29.8202 31.7189 29.5208 31.9044C29.2213 32.0867 28.8339 32.1779 28.3586 32.1779C27.8866 32.1779 27.5009 32.0867 27.2014 31.9044C26.9019 31.7189 26.6659 31.4666 26.4934 31.1476C26.3241 30.8253 26.2069 30.4477 26.1418 30.0148C26.08 29.5818 26.0491 29.1196 26.0491 28.6281ZM26.801 29.9562C26.801 30.4575 26.941 30.8546 27.2209 31.1476C27.5009 31.4406 27.8801 31.587 28.3586 31.587C28.8372 31.587 29.2164 31.4406 29.4963 31.1476C29.7795 30.8546 29.9211 30.4575 29.9211 29.9562V27.295C29.9211 26.7937 29.7812 26.3966 29.5012 26.1036C29.2213 25.8107 28.8404 25.6642 28.3586 25.6642C27.8801 25.6642 27.5009 25.8123 27.2209 26.1085C26.941 26.4015 26.801 26.797 26.801 27.295V29.9562Z" fill="#F5F5F5"/>
<path d="M75.077 24.046C75.077 22.7804 75.202 21.6281 75.452 20.589C75.702 19.5499 76.0966 18.6554 76.6356 17.9054C77.1825 17.1476 77.8817 16.5616 78.7333 16.1476C79.5927 15.7335 80.6317 15.5265 81.8505 15.5265C83.0692 15.5265 84.1044 15.7335 84.9559 16.1476C85.8075 16.5616 86.5067 17.1476 87.0536 17.9054C87.6005 18.6554 87.995 19.5499 88.2372 20.589C88.4872 21.6281 88.6122 22.7804 88.6122 24.046C88.6122 25.3116 88.4872 26.464 88.2372 27.5031C87.995 28.5421 87.6005 29.4366 87.0536 30.1866C86.5067 30.9366 85.8036 31.5226 84.9442 31.9445C84.0927 32.3585 83.0614 32.5656 81.8505 32.5656C80.6317 32.5656 79.5927 32.3585 78.7333 31.9445C77.8817 31.5226 77.1825 30.9366 76.6356 30.1866C76.0966 29.4366 75.702 28.5421 75.452 27.5031C75.202 26.4562 75.077 25.3038 75.077 24.046ZM76.9989 26.4718C76.9989 27.1749 77.1161 27.8038 77.3505 28.3585C77.5927 28.9054 77.9286 29.3781 78.3583 29.7765C78.7958 30.1749 79.3114 30.4796 79.9052 30.6906C80.4989 30.9015 81.1473 31.007 81.8505 31.007C82.538 31.007 83.1747 30.9015 83.7606 30.6906C84.3544 30.4796 84.8661 30.1788 85.2958 29.7882C85.7333 29.3976 86.0731 28.9249 86.3153 28.3702C86.5653 27.8077 86.6903 27.1749 86.6903 26.4718V21.6202C86.6903 20.9327 86.5653 20.3077 86.3153 19.7452C86.0731 19.1827 85.7333 18.7023 85.2958 18.3038C84.8661 17.9054 84.3544 17.6046 83.7606 17.4015C83.1747 17.1906 82.538 17.0851 81.8505 17.0851C81.1473 17.0851 80.4989 17.1906 79.9052 17.4015C79.3114 17.6046 78.7958 17.9054 78.3583 18.3038C77.9286 18.7023 77.5927 19.1827 77.3505 19.7452C77.1161 20.3077 76.9989 20.9327 76.9989 21.6202V26.4718Z" fill="#F5F5F5"/>
<path d="M40.4265 28.6281C40.4265 28.1333 40.4574 27.6694 40.5193 27.2365C40.5844 26.8035 40.7016 26.4275 40.8708 26.1085C41.0434 25.7863 41.2794 25.534 41.5789 25.3517C41.8783 25.1694 42.2641 25.0782 42.7361 25.0782C43.2081 25.0782 43.5938 25.1694 43.8933 25.3517C44.196 25.534 44.432 25.7863 44.6013 26.1085C44.7738 26.4275 44.891 26.8035 44.9529 27.2365C45.0147 27.6694 45.0457 28.1333 45.0457 28.6281C45.0457 29.1228 45.0147 29.5867 44.9529 30.0197C44.891 30.4493 44.7738 30.8253 44.6013 31.1476C44.432 31.4666 44.1977 31.7189 43.8982 31.9044C43.5987 32.0867 43.2113 32.1779 42.7361 32.1779C42.2641 32.1779 41.8783 32.0867 41.5789 31.9044C41.2794 31.7189 41.0434 31.4666 40.8708 31.1476C40.7016 30.8253 40.5844 30.4477 40.5193 30.0148C40.4574 29.5818 40.4265 29.1196 40.4265 28.6281ZM41.1785 29.9562C41.1785 30.4575 41.3184 30.8546 41.5984 31.1476C41.8783 31.4406 42.2576 31.587 42.7361 31.587C43.2146 31.587 43.5938 31.4406 43.8738 31.1476C44.157 30.8546 44.2986 30.4575 44.2986 29.9562V27.295C44.2986 26.7937 44.1586 26.3966 43.8787 26.1036C43.5987 25.8107 43.2179 25.6642 42.7361 25.6642C42.2576 25.6642 41.8783 25.8123 41.5984 26.1085C41.3184 26.4015 41.1785 26.797 41.1785 27.295V29.9562Z" fill="#F5F5F5"/>
<path d="M11.6719 17.7159C11.6719 17.2212 11.7028 16.7573 11.7646 16.3243C11.8298 15.8914 11.9469 15.5154 12.1162 15.1964C12.2887 14.8741 12.5247 14.6219 12.8242 14.4396C13.1237 14.2573 13.5094 14.1661 13.9814 14.1661C14.4535 14.1661 14.8392 14.2573 15.1387 14.4396C15.4414 14.6219 15.6774 14.8741 15.8467 15.1964C16.0192 15.5154 16.1364 15.8914 16.1982 16.3243C16.2601 16.7573 16.291 17.2212 16.291 17.7159C16.291 18.2107 16.2601 18.6746 16.1982 19.1075C16.1364 19.5372 16.0192 19.9132 15.8467 20.2355C15.6774 20.5545 15.443 20.8068 15.1436 20.9923C14.8441 21.1746 14.4567 21.2657 13.9814 21.2657C13.5094 21.2657 13.1237 21.1746 12.8242 20.9923C12.5247 20.8068 12.2887 20.5545 12.1162 20.2355C11.9469 19.9132 11.8298 19.5356 11.7646 19.1027C11.7028 18.6697 11.6719 18.2075 11.6719 17.7159ZM12.4238 19.0441C12.4238 19.5454 12.5638 19.9425 12.8438 20.2355C13.1237 20.5284 13.5029 20.6749 13.9814 20.6749C14.46 20.6749 14.8392 20.5284 15.1191 20.2355C15.4023 19.9425 15.5439 19.5454 15.5439 19.0441V16.3829C15.5439 15.8816 15.404 15.4845 15.124 15.1915C14.8441 14.8986 14.4632 14.7521 13.9814 14.7521C13.5029 14.7521 13.1237 14.9002 12.8438 15.1964C12.5638 15.4894 12.4238 15.8849 12.4238 16.3829V19.0441Z" fill="#F5F5F5"/>
<path d="M26.0491 17.7159C26.0491 17.2212 26.08 16.7573 26.1418 16.3243C26.2069 15.8914 26.3241 15.5154 26.4934 15.1964C26.6659 14.8741 26.9019 14.6219 27.2014 14.4396C27.5009 14.2573 27.8866 14.1661 28.3586 14.1661C28.8306 14.1661 29.2164 14.2573 29.5159 14.4396C29.8186 14.6219 30.0546 14.8741 30.2239 15.1964C30.3964 15.5154 30.5136 15.8914 30.5754 16.3243C30.6373 16.7573 30.6682 17.2212 30.6682 17.7159C30.6682 18.2107 30.6373 18.6746 30.5754 19.1075C30.5136 19.5372 30.3964 19.9132 30.2239 20.2355C30.0546 20.5545 29.8202 20.8068 29.5208 20.9923C29.2213 21.1746 28.8339 21.2657 28.3586 21.2657C27.8866 21.2657 27.5009 21.1746 27.2014 20.9923C26.9019 20.8068 26.6659 20.5545 26.4934 20.2355C26.3241 19.9132 26.2069 19.5356 26.1418 19.1027C26.08 18.6697 26.0491 18.2075 26.0491 17.7159ZM26.801 19.0441C26.801 19.5454 26.941 19.9425 27.2209 20.2355C27.5009 20.5284 27.8801 20.6749 28.3586 20.6749C28.8372 20.6749 29.2164 20.5284 29.4963 20.2355C29.7795 19.9425 29.9211 19.5454 29.9211 19.0441V16.3829C29.9211 15.8816 29.7812 15.4845 29.5012 15.1915C29.2213 14.8986 28.8404 14.7521 28.3586 14.7521C27.8801 14.7521 27.5009 14.9002 27.2209 15.1964C26.941 15.4894 26.801 15.8849 26.801 16.3829V19.0441Z" fill="#F5F5F5"/>
<path d="M40.9587 21.1144V20.5236H42.7068V15.7042H40.9587V15.1134H42.7068V14.3126H43.3562V20.5236H44.9089V21.1144H40.9587Z" fill="#F5F5F5"/>
<path d="M11.6719 6.80383C11.6719 6.30904 11.7028 5.84517 11.7646 5.41223C11.8298 4.97929 11.9469 4.60331 12.1162 4.2843C12.2887 3.96204 12.5247 3.70976 12.8242 3.52747C13.1237 3.34517 13.5094 3.25403 13.9814 3.25403C14.4535 3.25403 14.8392 3.34517 15.1387 3.52747C15.4414 3.70976 15.6774 3.96204 15.8467 4.2843C16.0192 4.60331 16.1364 4.97929 16.1982 5.41223C16.2601 5.84517 16.291 6.30904 16.291 6.80383C16.291 7.29862 16.2601 7.76249 16.1982 8.19543C16.1364 8.62512 16.0192 9.0011 15.8467 9.32336C15.6774 9.64237 15.443 9.89465 15.1436 10.0802C14.8441 10.2625 14.4567 10.3536 13.9814 10.3536C13.5094 10.3536 13.1237 10.2625 12.8242 10.0802C12.5247 9.89465 12.2887 9.64237 12.1162 9.32336C11.9469 9.0011 11.8298 8.62349 11.7646 8.19055C11.7028 7.75761 11.6719 7.29537 11.6719 6.80383ZM12.4238 8.13196C12.4238 8.63326 12.5638 9.0304 12.8438 9.32336C13.1237 9.61633 13.5029 9.76282 13.9814 9.76282C14.46 9.76282 14.8392 9.61633 15.1191 9.32336C15.4023 9.0304 15.5439 8.63326 15.5439 8.13196V5.47083C15.5439 4.96952 15.404 4.57239 15.124 4.27942C14.8441 3.98645 14.4632 3.83997 13.9814 3.83997C13.5029 3.83997 13.1237 3.98808 12.8438 4.2843C12.5638 4.57727 12.4238 4.97278 12.4238 5.47083V8.13196Z" fill="#F5F5F5"/>
<path d="M26.5813 10.2023V9.61145H28.3293V4.79211H26.5813V4.20129H28.3293V3.40051H28.9788V9.61145H30.5315V10.2023H26.5813Z" fill="#F5F5F5"/>
<path d="M40.9587 10.2023V9.61145H42.7068V4.79211H40.9587V4.20129H42.7068V3.40051H43.3562V9.61145H44.9089V10.2023H40.9587Z" fill="#F5F5F5"/>
<path d="M0.950928 0.174316V121.742" stroke="#F5F5F5" stroke-width="0.75"/>
<path d="M95.9192 0.174316V121.742" stroke="#F5F5F5" stroke-width="0.75"/>
<rect x="18.4351" y="101.742" width="20" height="20" fill="#F5F5F5"/>
<rect x="58.4351" y="81.7416" width="20" height="20" fill="#F5F5F5"/>
<rect x="58.4351" y="61.7416" width="20" height="20" fill="#F5F5F5"/>
<rect x="38.4351" y="61.7416" width="20" height="20" fill="#F5F5F5"/>
</svg>
