<svg width="97" height="122" viewBox="0 0 97 122" fill="none" xmlns="http://www.w3.org/2000/svg">
<path d="M6.91772 35.0474V0.167236H9.10135V0.802682H7.62249V34.412H9.10135V35.0474H6.91772Z" fill="#F5F5F5"/>
<path d="M50.3113 35.0474V0.167236H48.1277V0.802682H49.6065V34.412H48.1277V35.0474H50.3113Z" fill="#F5F5F5"/>
<path d="M11.9255 28.621C11.9255 28.1262 11.9565 27.6623 12.0183 27.2294C12.0834 26.7964 12.2006 26.4205 12.3699 26.1014C12.5424 25.7792 12.7784 25.5269 13.0779 25.3446C13.3774 25.1623 13.7631 25.0712 14.2351 25.0712C14.7071 25.0712 15.0929 25.1623 15.3923 25.3446C15.6951 25.5269 15.9311 25.7792 16.1003 26.1014C16.2729 26.4205 16.3901 26.7964 16.4519 27.2294C16.5138 27.6623 16.5447 28.1262 16.5447 28.621C16.5447 29.1158 16.5138 29.5796 16.4519 30.0126C16.3901 30.4423 16.2729 30.8182 16.1003 31.1405C15.9311 31.4595 15.6967 31.7118 15.3972 31.8973C15.0977 32.0796 14.7104 32.1708 14.2351 32.1708C13.7631 32.1708 13.3774 32.0796 13.0779 31.8973C12.7784 31.7118 12.5424 31.4595 12.3699 31.1405C12.2006 30.8182 12.0834 30.4406 12.0183 30.0077C11.9565 29.5747 11.9255 29.1125 11.9255 28.621ZM12.6775 29.9491C12.6775 30.4504 12.8175 30.8475 13.0974 31.1405C13.3774 31.4335 13.7566 31.58 14.2351 31.58C14.7136 31.58 15.0929 31.4335 15.3728 31.1405C15.656 30.8475 15.7976 30.4504 15.7976 29.9491V27.288C15.7976 26.7867 15.6576 26.3895 15.3777 26.0966C15.0977 25.8036 14.7169 25.6571 14.2351 25.6571C13.7566 25.6571 13.3774 25.8052 13.0974 26.1014C12.8175 26.3944 12.6775 26.7899 12.6775 27.288V29.9491Z" fill="#F5F5F5"/>
<path d="M26.835 32.0194V31.4286H28.583V26.6093H26.835V26.0184H28.583V25.2177H29.2324V31.4286H30.7852V32.0194H26.835Z" fill="#F5F5F5"/>
<path d="M84.8815 11.3475H86.6979L88.6666 14.2655H87.401L84.8815 11.3475ZM86.4166 32.1952V15.871H88.0924V32.1952H86.4166Z" fill="#F5F5F5"/>
<path d="M40.6802 28.621C40.6802 28.1262 40.7111 27.6623 40.7729 27.2294C40.8381 26.7964 40.9552 26.4205 41.1245 26.1014C41.297 25.7792 41.533 25.5269 41.8325 25.3446C42.132 25.1623 42.5177 25.0712 42.9897 25.0712C43.4618 25.0712 43.8475 25.1623 44.147 25.3446C44.4497 25.5269 44.6857 25.7792 44.855 26.1014C45.0275 26.4205 45.1447 26.7964 45.2065 27.2294C45.2684 27.6623 45.2993 28.1262 45.2993 28.621C45.2993 29.1158 45.2684 29.5796 45.2065 30.0126C45.1447 30.4423 45.0275 30.8182 44.855 31.1405C44.6857 31.4595 44.4513 31.7118 44.1519 31.8973C43.8524 32.0796 43.465 32.1708 42.9897 32.1708C42.5177 32.1708 42.132 32.0796 41.8325 31.8973C41.533 31.7118 41.297 31.4595 41.1245 31.1405C40.9552 30.8182 40.8381 30.4406 40.7729 30.0077C40.7111 29.5747 40.6802 29.1125 40.6802 28.621ZM41.4321 29.9491C41.4321 30.4504 41.5721 30.8475 41.8521 31.1405C42.132 31.4335 42.5112 31.58 42.9897 31.58C43.4683 31.58 43.8475 31.4335 44.1274 31.1405C44.4106 30.8475 44.5522 30.4504 44.5522 29.9491V27.288C44.5522 26.7867 44.4123 26.3895 44.1323 26.0966C43.8524 25.8036 43.4715 25.6571 42.9897 25.6571C42.5112 25.6571 42.132 25.8052 41.8521 26.1014C41.5721 26.3944 41.4321 26.7899 41.4321 27.288V29.9491Z" fill="#F5F5F5"/>
<path d="M11.9255 17.7089C11.9255 17.2141 11.9565 16.7502 12.0183 16.3173C12.0834 15.8843 12.2006 15.5083 12.3699 15.1893C12.5424 14.8671 12.7784 14.6148 13.0779 14.4325C13.3774 14.2502 13.7631 14.1591 14.2351 14.1591C14.7071 14.1591 15.0929 14.2502 15.3923 14.4325C15.6951 14.6148 15.9311 14.8671 16.1003 15.1893C16.2729 15.5083 16.3901 15.8843 16.4519 16.3173C16.5138 16.7502 16.5447 17.2141 16.5447 17.7089C16.5447 18.2037 16.5138 18.6675 16.4519 19.1005C16.3901 19.5302 16.2729 19.9061 16.1003 20.2284C15.9311 20.5474 15.6967 20.7997 15.3972 20.9852C15.0977 21.1675 14.7104 21.2587 14.2351 21.2587C13.7631 21.2587 13.3774 21.1675 13.0779 20.9852C12.7784 20.7997 12.5424 20.5474 12.3699 20.2284C12.2006 19.9061 12.0834 19.5285 12.0183 19.0956C11.9565 18.6626 11.9255 18.2004 11.9255 17.7089ZM12.6775 19.037C12.6775 19.5383 12.8175 19.9354 13.0974 20.2284C13.3774 20.5214 13.7566 20.6678 14.2351 20.6678C14.7136 20.6678 15.0929 20.5214 15.3728 20.2284C15.656 19.9354 15.7976 19.5383 15.7976 19.037V16.3759C15.7976 15.8746 15.6576 15.4774 15.3777 15.1844C15.0977 14.8915 14.7169 14.745 14.2351 14.745C13.7566 14.745 13.3774 14.8931 13.0974 15.1893C12.8175 15.4823 12.6775 15.8778 12.6775 16.3759V19.037Z" fill="#F5F5F5"/>
<path d="M26.835 21.1073V20.5165H28.583V15.6971H26.835V15.1063H28.583V14.3055H29.2324V20.5165H30.7852V21.1073H26.835Z" fill="#F5F5F5"/>
<path d="M40.6802 17.7089C40.6802 17.2141 40.7111 16.7502 40.7729 16.3173C40.8381 15.8843 40.9552 15.5083 41.1245 15.1893C41.297 14.8671 41.533 14.6148 41.8325 14.4325C42.132 14.2502 42.5177 14.1591 42.9897 14.1591C43.4618 14.1591 43.8475 14.2502 44.147 14.4325C44.4497 14.6148 44.6857 14.8671 44.855 15.1893C45.0275 15.5083 45.1447 15.8843 45.2065 16.3173C45.2684 16.7502 45.2993 17.2141 45.2993 17.7089C45.2993 18.2037 45.2684 18.6675 45.2065 19.1005C45.1447 19.5302 45.0275 19.9061 44.855 20.2284C44.6857 20.5474 44.4513 20.7997 44.1519 20.9852C43.8524 21.1675 43.465 21.2587 42.9897 21.2587C42.5177 21.2587 42.132 21.1675 41.8325 20.9852C41.533 20.7997 41.297 20.5474 41.1245 20.2284C40.9552 19.9061 40.8381 19.5285 40.7729 19.0956C40.7111 18.6626 40.6802 18.2004 40.6802 17.7089ZM41.4321 19.037C41.4321 19.5383 41.5721 19.9354 41.8521 20.2284C42.132 20.5214 42.5112 20.6678 42.9897 20.6678C43.4683 20.6678 43.8475 20.5214 44.1274 20.2284C44.4106 19.9354 44.5522 19.5383 44.5522 19.037V16.3759C44.5522 15.8746 44.4123 15.4774 44.1323 15.1844C43.8524 14.8915 43.4715 14.745 42.9897 14.745C42.5112 14.745 42.132 14.8931 41.8521 15.1893C41.5721 15.4823 41.4321 15.8778 41.4321 16.3759V19.037Z" fill="#F5F5F5"/>
<path d="M11.9255 6.79675C11.9255 6.30196 11.9565 5.83809 12.0183 5.40515C12.0834 4.97221 12.2006 4.59623 12.3699 4.27722C12.5424 3.95496 12.7784 3.70268 13.0779 3.52039C13.3774 3.33809 13.7631 3.24695 14.2351 3.24695C14.7071 3.24695 15.0929 3.33809 15.3923 3.52039C15.6951 3.70268 15.9311 3.95496 16.1003 4.27722C16.2729 4.59623 16.3901 4.97221 16.4519 5.40515C16.5138 5.83809 16.5447 6.30196 16.5447 6.79675C16.5447 7.29154 16.5138 7.75541 16.4519 8.18835C16.3901 8.61804 16.2729 8.99402 16.1003 9.31628C15.9311 9.63529 15.6967 9.88757 15.3972 10.0731C15.0977 10.2554 14.7104 10.3466 14.2351 10.3466C13.7631 10.3466 13.3774 10.2554 13.0779 10.0731C12.7784 9.88757 12.5424 9.63529 12.3699 9.31628C12.2006 8.99402 12.0834 8.61641 12.0183 8.18347C11.9565 7.75053 11.9255 7.28829 11.9255 6.79675ZM12.6775 8.12488C12.6775 8.62618 12.8175 9.02332 13.0974 9.31628C13.3774 9.60925 13.7566 9.75574 14.2351 9.75574C14.7136 9.75574 15.0929 9.60925 15.3728 9.31628C15.656 9.02332 15.7976 8.62618 15.7976 8.12488V5.46375C15.7976 4.96244 15.6576 4.56531 15.3777 4.27234C15.0977 3.97937 14.7169 3.83289 14.2351 3.83289C13.7566 3.83289 13.3774 3.981 13.0974 4.27722C12.8175 4.57019 12.6775 4.9657 12.6775 5.46375V8.12488Z" fill="#F5F5F5"/>
<path d="M26.3027 6.79675C26.3027 6.30196 26.3337 5.83809 26.3955 5.40515C26.4606 4.97221 26.5778 4.59623 26.7471 4.27722C26.9196 3.95496 27.1556 3.70268 27.4551 3.52039C27.7546 3.33809 28.1403 3.24695 28.6123 3.24695C29.0843 3.24695 29.4701 3.33809 29.7695 3.52039C30.0723 3.70268 30.3083 3.95496 30.4775 4.27722C30.6501 4.59623 30.7673 4.97221 30.8291 5.40515C30.891 5.83809 30.9219 6.30196 30.9219 6.79675C30.9219 7.29154 30.891 7.75541 30.8291 8.18835C30.7673 8.61804 30.6501 8.99402 30.4775 9.31628C30.3083 9.63529 30.0739 9.88757 29.7744 10.0731C29.4749 10.2554 29.0876 10.3466 28.6123 10.3466C28.1403 10.3466 27.7546 10.2554 27.4551 10.0731C27.1556 9.88757 26.9196 9.63529 26.7471 9.31628C26.5778 8.99402 26.4606 8.61641 26.3955 8.18347C26.3337 7.75053 26.3027 7.28829 26.3027 6.79675ZM27.0547 8.12488C27.0547 8.62618 27.1947 9.02332 27.4746 9.31628C27.7546 9.60925 28.1338 9.75574 28.6123 9.75574C29.0908 9.75574 29.4701 9.60925 29.75 9.31628C30.0332 9.02332 30.1748 8.62618 30.1748 8.12488V5.46375C30.1748 4.96244 30.0348 4.56531 29.7549 4.27234C29.4749 3.97937 29.0941 3.83289 28.6123 3.83289C28.1338 3.83289 27.7546 3.981 27.4746 4.27722C27.1947 4.57019 27.0547 4.9657 27.0547 5.46375V8.12488Z" fill="#F5F5F5"/>
<path d="M41.2124 10.1952V9.60437H42.9604V4.78503H41.2124V4.19421H42.9604V3.39343H43.6099V9.60437H45.1626V10.1952H41.2124Z" fill="#F5F5F5"/>
<path d="M1.20459 0.167236V121.735" stroke="#F5F5F5" stroke-width="0.75"/>
<path d="M96.1729 0.167236V121.735" stroke="#F5F5F5" stroke-width="0.75"/>
<rect x="38.7261" y="81.7345" width="20" height="20" fill="#F5F5F5"/>
<rect x="58.7261" y="61.7345" width="20" height="20" fill="#F5F5F5"/>
<rect x="38.6887" y="101.734" width="20" height="20" fill="#F5F5F5"/>
</svg>
