<svg width="97" height="123" viewBox="0 0 97 123" fill="none" xmlns="http://www.w3.org/2000/svg">
<path d="M6.72729 35.4319V0.551758H8.91092V1.1872H7.43206V34.7965H8.91092V35.4319H6.72729Z" fill="#F5F5F5"/>
<path d="M50.1208 35.4319V0.551758H47.9372V1.1872H49.4161V34.7965H47.9372V35.4319H50.1208Z" fill="#F5F5F5"/>
<path d="M12.2673 32.4039V31.8131H14.0154V26.9938H12.2673V26.403H14.0154V25.6022H14.6648V31.8131H16.2175V32.4039H12.2673Z" fill="#F5F5F5"/>
<path d="M26.1123 29.0055C26.1123 28.5107 26.1432 28.0468 26.2051 27.6139C26.2702 27.1809 26.3874 26.805 26.5566 26.486C26.7292 26.1637 26.9652 25.9114 27.2646 25.7291C27.5641 25.5468 27.9499 25.4557 28.4219 25.4557C28.8939 25.4557 29.2796 25.5468 29.5791 25.7291C29.8818 25.9114 30.1178 26.1637 30.2871 26.486C30.4596 26.805 30.5768 27.1809 30.6387 27.6139C30.7005 28.0468 30.7314 28.5107 30.7314 29.0055C30.7314 29.5003 30.7005 29.9642 30.6387 30.3971C30.5768 30.8268 30.4596 31.2028 30.2871 31.525C30.1178 31.844 29.8835 32.0963 29.584 32.2819C29.2845 32.4642 28.8971 32.5553 28.4219 32.5553C27.9499 32.5553 27.5641 32.4642 27.2646 32.2819C26.9652 32.0963 26.7292 31.844 26.5566 31.525C26.3874 31.2028 26.2702 30.8252 26.2051 30.3922C26.1432 29.9593 26.1123 29.497 26.1123 29.0055ZM26.8643 30.3336C26.8643 30.8349 27.0042 31.2321 27.2842 31.525C27.5641 31.818 27.9434 31.9645 28.4219 31.9645C28.9004 31.9645 29.2796 31.818 29.5596 31.525C29.8428 31.2321 29.9844 30.8349 29.9844 30.3336V27.6725C29.9844 27.1712 29.8444 26.774 29.5645 26.4811C29.2845 26.1881 28.9036 26.0416 28.4219 26.0416C27.9434 26.0416 27.5641 26.1897 27.2842 26.486C27.0042 26.7789 26.8643 27.1744 26.8643 27.6725V30.3336Z" fill="#F5F5F5"/>
<path d="M77.4606 28.4078V26.9899L84.6676 16.2555H86.2496V26.9899H88.5934V28.4078H86.2496V32.5797H84.691V28.4078H77.4606ZM79.1129 26.9899H84.691V18.7047L79.1129 26.9899Z" fill="#F5F5F5"/>
<path d="M41.022 32.4039V31.8131H42.77V26.9938H41.022V26.403H42.77V25.6022H43.4194V31.8131H44.9722V32.4039H41.022Z" fill="#F5F5F5"/>
<path d="M11.7351 18.0934C11.7351 17.5986 11.766 17.1347 11.8279 16.7018C11.893 16.2688 12.0102 15.8929 12.1794 15.5739C12.352 15.2516 12.588 14.9993 12.8875 14.817C13.1869 14.6347 13.5727 14.5436 14.0447 14.5436C14.5167 14.5436 14.9024 14.6347 15.2019 14.817C15.5046 14.9993 15.7406 15.2516 15.9099 15.5739C16.0824 15.8929 16.1996 16.2688 16.2615 16.7018C16.3233 17.1347 16.3542 17.5986 16.3542 18.0934C16.3542 18.5882 16.3233 19.052 16.2615 19.485C16.1996 19.9147 16.0824 20.2906 15.9099 20.6129C15.7406 20.9319 15.5063 21.1842 15.2068 21.3698C14.9073 21.552 14.5199 21.6432 14.0447 21.6432C13.5727 21.6432 13.1869 21.552 12.8875 21.3698C12.588 21.1842 12.352 20.9319 12.1794 20.6129C12.0102 20.2906 11.893 19.913 11.8279 19.4801C11.766 19.0472 11.7351 18.5849 11.7351 18.0934ZM12.4871 19.4215C12.4871 19.9228 12.627 20.3199 12.907 20.6129C13.1869 20.9059 13.5662 21.0524 14.0447 21.0524C14.5232 21.0524 14.9024 20.9059 15.1824 20.6129C15.4656 20.3199 15.6072 19.9228 15.6072 19.4215V16.7604C15.6072 16.2591 15.4672 15.8619 15.1873 15.569C14.9073 15.276 14.5264 15.1295 14.0447 15.1295C13.5662 15.1295 13.1869 15.2776 12.907 15.5739C12.627 15.8668 12.4871 16.2623 12.4871 16.7604V19.4215Z" fill="#F5F5F5"/>
<path d="M26.6445 21.4918V20.901H28.3926V16.0817H26.6445V15.4908H28.3926V14.6901H29.042V20.901H30.5947V21.4918H26.6445Z" fill="#F5F5F5"/>
<path d="M40.4897 18.0934C40.4897 17.5986 40.5207 17.1347 40.5825 16.7018C40.6476 16.2688 40.7648 15.8929 40.9341 15.5739C41.1066 15.2516 41.3426 14.9993 41.6421 14.817C41.9416 14.6347 42.3273 14.5436 42.7993 14.5436C43.2713 14.5436 43.6571 14.6347 43.9565 14.817C44.2593 14.9993 44.4953 15.2516 44.6646 15.5739C44.8371 15.8929 44.9543 16.2688 45.0161 16.7018C45.078 17.1347 45.1089 17.5986 45.1089 18.0934C45.1089 18.5882 45.078 19.052 45.0161 19.485C44.9543 19.9147 44.8371 20.2906 44.6646 20.6129C44.4953 20.9319 44.2609 21.1842 43.9614 21.3698C43.6619 21.552 43.2746 21.6432 42.7993 21.6432C42.3273 21.6432 41.9416 21.552 41.6421 21.3698C41.3426 21.1842 41.1066 20.9319 40.9341 20.6129C40.7648 20.2906 40.6476 19.913 40.5825 19.4801C40.5207 19.0472 40.4897 18.5849 40.4897 18.0934ZM41.2417 19.4215C41.2417 19.9228 41.3817 20.3199 41.6616 20.6129C41.9416 20.9059 42.3208 21.0524 42.7993 21.0524C43.2778 21.0524 43.6571 20.9059 43.937 20.6129C44.2202 20.3199 44.3618 19.9228 44.3618 19.4215V16.7604C44.3618 16.2591 44.2218 15.8619 43.9419 15.569C43.6619 15.276 43.2811 15.1295 42.7993 15.1295C42.3208 15.1295 41.9416 15.2776 41.6616 15.5739C41.3817 15.8668 41.2417 16.2623 41.2417 16.7604V19.4215Z" fill="#F5F5F5"/>
<path d="M12.2673 10.5797V9.98889H14.0154V5.16956H12.2673V4.57874H14.0154V3.77795H14.6648V9.98889H16.2175V10.5797H12.2673Z" fill="#F5F5F5"/>
<path d="M26.1123 7.18127C26.1123 6.68648 26.1432 6.22262 26.2051 5.78967C26.2702 5.35673 26.3874 4.98075 26.5566 4.66174C26.7292 4.33948 26.9652 4.0872 27.2646 3.90491C27.5641 3.72262 27.9499 3.63147 28.4219 3.63147C28.8939 3.63147 29.2796 3.72262 29.5791 3.90491C29.8818 4.0872 30.1178 4.33948 30.2871 4.66174C30.4596 4.98075 30.5768 5.35673 30.6387 5.78967C30.7005 6.22262 30.7314 6.68648 30.7314 7.18127C30.7314 7.67607 30.7005 8.13993 30.6387 8.57288C30.5768 9.00256 30.4596 9.37854 30.2871 9.70081C30.1178 10.0198 29.8835 10.2721 29.584 10.4576C29.2845 10.6399 28.8971 10.7311 28.4219 10.7311C27.9499 10.7311 27.5641 10.6399 27.2646 10.4576C26.9652 10.2721 26.7292 10.0198 26.5566 9.70081C26.3874 9.37854 26.2702 9.00094 26.2051 8.56799C26.1432 8.13505 26.1123 7.67281 26.1123 7.18127ZM26.8643 8.5094C26.8643 9.0107 27.0042 9.40784 27.2842 9.70081C27.5641 9.99377 27.9434 10.1403 28.4219 10.1403C28.9004 10.1403 29.2796 9.99377 29.5596 9.70081C29.8428 9.40784 29.9844 9.0107 29.9844 8.5094V5.84827C29.9844 5.34696 29.8444 4.94983 29.5645 4.65686C29.2845 4.36389 28.9036 4.21741 28.4219 4.21741C27.9434 4.21741 27.5641 4.36552 27.2842 4.66174C27.0042 4.95471 26.8643 5.35022 26.8643 5.84827V8.5094Z" fill="#F5F5F5"/>
<path d="M40.4897 7.18127C40.4897 6.68648 40.5207 6.22262 40.5825 5.78967C40.6476 5.35673 40.7648 4.98075 40.9341 4.66174C41.1066 4.33948 41.3426 4.0872 41.6421 3.90491C41.9416 3.72262 42.3273 3.63147 42.7993 3.63147C43.2713 3.63147 43.6571 3.72262 43.9565 3.90491C44.2593 4.0872 44.4953 4.33948 44.6646 4.66174C44.8371 4.98075 44.9543 5.35673 45.0161 5.78967C45.078 6.22262 45.1089 6.68648 45.1089 7.18127C45.1089 7.67607 45.078 8.13993 45.0161 8.57288C44.9543 9.00256 44.8371 9.37854 44.6646 9.70081C44.4953 10.0198 44.2609 10.2721 43.9614 10.4576C43.6619 10.6399 43.2746 10.7311 42.7993 10.7311C42.3273 10.7311 41.9416 10.6399 41.6421 10.4576C41.3426 10.2721 41.1066 10.0198 40.9341 9.70081C40.7648 9.37854 40.6476 9.00094 40.5825 8.56799C40.5207 8.13505 40.4897 7.67281 40.4897 7.18127ZM41.2417 8.5094C41.2417 9.0107 41.3817 9.40784 41.6616 9.70081C41.9416 9.99377 42.3208 10.1403 42.7993 10.1403C43.2778 10.1403 43.6571 9.99377 43.937 9.70081C44.2202 9.40784 44.3618 9.0107 44.3618 8.5094V5.84827C44.3618 5.34696 44.2218 4.94983 43.9419 4.65686C43.6619 4.36389 43.2811 4.21741 42.7993 4.21741C42.3208 4.21741 41.9416 4.36552 41.6616 4.66174C41.3817 4.95471 41.2417 5.35022 41.2417 5.84827V8.5094Z" fill="#F5F5F5"/>
<path d="M1.01416 0.551758V122.119" stroke="#F5F5F5" stroke-width="0.75"/>
<path d="M95.9824 0.551758V122.119" stroke="#F5F5F5" stroke-width="0.75"/>
<rect x="38.4983" y="82.119" width="20" height="20" fill="#F5F5F5"/>
<rect x="58.4983" y="102.119" width="20" height="20" fill="#F5F5F5"/>
<rect x="18.4983" y="102.119" width="20" height="20" fill="#F5F5F5"/>
<rect x="18.4983" y="62.119" width="20" height="20" fill="#F5F5F5"/>
</svg>
