<svg width="97" height="122" viewBox="0 0 97 122" fill="none" xmlns="http://www.w3.org/2000/svg">
<path d="M6.88599 35.0474V0.167236H9.06961V0.802682H7.59075V34.412H9.06961V35.0474H6.88599Z" fill="#F5F5F5"/>
<path d="M50.2795 35.0474V0.167236H48.0959V0.802682H49.5748V34.412H48.0959V35.0474H50.2795Z" fill="#F5F5F5"/>
<path d="M12.426 32.0194V31.4286H14.1741V26.6093H12.426V26.0184H14.1741V25.2177H14.8235V31.4286H16.3762V32.0194H12.426Z" fill="#F5F5F5"/>
<path d="M26.271 28.621C26.271 28.1262 26.3019 27.6623 26.3638 27.2294C26.4289 26.7964 26.5461 26.4205 26.7153 26.1014C26.8879 25.7792 27.1239 25.5269 27.4233 25.3446C27.7228 25.1623 28.1086 25.0712 28.5806 25.0712C29.0526 25.0712 29.4383 25.1623 29.7378 25.3446C30.0405 25.5269 30.2765 25.7792 30.4458 26.1014C30.6183 26.4205 30.7355 26.7964 30.7974 27.2294C30.8592 27.6623 30.8901 28.1262 30.8901 28.621C30.8901 29.1158 30.8592 29.5796 30.7974 30.0126C30.7355 30.4423 30.6183 30.8182 30.4458 31.1405C30.2765 31.4595 30.0422 31.7118 29.7427 31.8973C29.4432 32.0796 29.0558 32.1708 28.5806 32.1708C28.1086 32.1708 27.7228 32.0796 27.4233 31.8973C27.1239 31.7118 26.8879 31.4595 26.7153 31.1405C26.5461 30.8182 26.4289 30.4406 26.3638 30.0077C26.3019 29.5747 26.271 29.1125 26.271 28.621ZM27.0229 29.9491C27.0229 30.4504 27.1629 30.8475 27.4429 31.1405C27.7228 31.4335 28.1021 31.58 28.5806 31.58C29.0591 31.58 29.4383 31.4335 29.7183 31.1405C30.0015 30.8475 30.1431 30.4504 30.1431 29.9491V27.288C30.1431 26.7867 30.0031 26.3895 29.7231 26.0966C29.4432 25.8036 29.0623 25.6571 28.5806 25.6571C28.1021 25.6571 27.7228 25.8052 27.4429 26.1014C27.1629 26.3944 27.0229 26.7899 27.0229 27.288V29.9491Z" fill="#F5F5F5"/>
<path d="M75.299 24.0389C75.299 22.7733 75.424 21.621 75.674 20.5819C75.924 19.5428 76.3185 18.6483 76.8575 17.8983C77.4044 17.1405 78.1036 16.5546 78.9552 16.1405C79.8146 15.7264 80.8536 15.5194 82.0724 15.5194C83.2911 15.5194 84.3263 15.7264 85.1779 16.1405C86.0294 16.5546 86.7286 17.1405 87.2755 17.8983C87.8224 18.6483 88.2169 19.5428 88.4591 20.5819C88.7091 21.621 88.8341 22.7733 88.8341 24.0389C88.8341 25.3046 88.7091 26.4569 88.4591 27.496C88.2169 28.535 87.8224 29.4296 87.2755 30.1796C86.7286 30.9296 86.0255 31.5155 85.1661 31.9374C84.3146 32.3514 83.2833 32.5585 82.0724 32.5585C80.8536 32.5585 79.8146 32.3514 78.9552 31.9374C78.1036 31.5155 77.4044 30.9296 76.8575 30.1796C76.3185 29.4296 75.924 28.535 75.674 27.496C75.424 26.4491 75.299 25.2968 75.299 24.0389ZM77.2208 26.4647C77.2208 27.1678 77.338 27.7968 77.5724 28.3514C77.8146 28.8983 78.1505 29.371 78.5802 29.7694C79.0177 30.1678 79.5333 30.4725 80.1271 30.6835C80.7208 30.8944 81.3693 30.9999 82.0724 30.9999C82.7599 30.9999 83.3966 30.8944 83.9825 30.6835C84.5763 30.4725 85.088 30.1718 85.5177 29.7811C85.9552 29.3905 86.295 28.9178 86.5372 28.3632C86.7872 27.8007 86.9122 27.1678 86.9122 26.4647V21.6132C86.9122 20.9257 86.7872 20.3007 86.5372 19.7382C86.295 19.1757 85.9552 18.6952 85.5177 18.2968C85.088 17.8983 84.5763 17.5975 83.9825 17.3944C83.3966 17.1835 82.7599 17.078 82.0724 17.078C81.3693 17.078 80.7208 17.1835 80.1271 17.3944C79.5333 17.5975 79.0177 17.8983 78.5802 18.2968C78.1505 18.6952 77.8146 19.1757 77.5724 19.7382C77.338 20.3007 77.2208 20.9257 77.2208 21.6132V26.4647ZM79.2365 11.078H81.0529L83.0216 13.996H81.756L79.2365 11.078Z" fill="#F5F5F5"/>
<path d="M40.6484 28.621C40.6484 28.1262 40.6794 27.6623 40.7412 27.2294C40.8063 26.7964 40.9235 26.4205 41.0928 26.1014C41.2653 25.7792 41.5013 25.5269 41.8008 25.3446C42.1003 25.1623 42.486 25.0712 42.958 25.0712C43.43 25.0712 43.8158 25.1623 44.1152 25.3446C44.418 25.5269 44.654 25.7792 44.8232 26.1014C44.9958 26.4205 45.113 26.7964 45.1748 27.2294C45.2367 27.6623 45.2676 28.1262 45.2676 28.621C45.2676 29.1158 45.2367 29.5796 45.1748 30.0126C45.113 30.4423 44.9958 30.8182 44.8232 31.1405C44.654 31.4595 44.4196 31.7118 44.1201 31.8973C43.8206 32.0796 43.4333 32.1708 42.958 32.1708C42.486 32.1708 42.1003 32.0796 41.8008 31.8973C41.5013 31.7118 41.2653 31.4595 41.0928 31.1405C40.9235 30.8182 40.8063 30.4406 40.7412 30.0077C40.6794 29.5747 40.6484 29.1125 40.6484 28.621ZM41.4004 29.9491C41.4004 30.4504 41.5404 30.8475 41.8203 31.1405C42.1003 31.4335 42.4795 31.58 42.958 31.58C43.4365 31.58 43.8158 31.4335 44.0957 31.1405C44.3789 30.8475 44.5205 30.4504 44.5205 29.9491V27.288C44.5205 26.7867 44.3805 26.3895 44.1006 26.0966C43.8206 25.8036 43.4398 25.6571 42.958 25.6571C42.4795 25.6571 42.1003 25.8052 41.8203 26.1014C41.5404 26.3944 41.4004 26.7899 41.4004 27.288V29.9491Z" fill="#F5F5F5"/>
<path d="M11.8938 17.7089C11.8938 17.2141 11.9247 16.7502 11.9866 16.3173C12.0517 15.8843 12.1689 15.5083 12.3381 15.1893C12.5107 14.8671 12.7467 14.6148 13.0461 14.4325C13.3456 14.2502 13.7314 14.1591 14.2034 14.1591C14.6754 14.1591 15.0611 14.2502 15.3606 14.4325C15.6633 14.6148 15.8993 14.8671 16.0686 15.1893C16.2411 15.5083 16.3583 15.8843 16.4202 16.3173C16.482 16.7502 16.5129 17.2141 16.5129 17.7089C16.5129 18.2037 16.482 18.6675 16.4202 19.1005C16.3583 19.5302 16.2411 19.9061 16.0686 20.2284C15.8993 20.5474 15.665 20.7997 15.3655 20.9852C15.066 21.1675 14.6786 21.2587 14.2034 21.2587C13.7314 21.2587 13.3456 21.1675 13.0461 20.9852C12.7467 20.7997 12.5107 20.5474 12.3381 20.2284C12.1689 19.9061 12.0517 19.5285 11.9866 19.0956C11.9247 18.6626 11.8938 18.2004 11.8938 17.7089ZM12.6458 19.037C12.6458 19.5383 12.7857 19.9354 13.0657 20.2284C13.3456 20.5214 13.7249 20.6678 14.2034 20.6678C14.6819 20.6678 15.0611 20.5214 15.3411 20.2284C15.6243 19.9354 15.7659 19.5383 15.7659 19.037V16.3759C15.7659 15.8746 15.6259 15.4774 15.3459 15.1844C15.066 14.8915 14.6851 14.745 14.2034 14.745C13.7249 14.745 13.3456 14.8931 13.0657 15.1893C12.7857 15.4823 12.6458 15.8778 12.6458 16.3759V19.037Z" fill="#F5F5F5"/>
<path d="M26.8032 21.1073V20.5165H28.5513V15.6971H26.8032V15.1063H28.5513V14.3055H29.2007V20.5165H30.7534V21.1073H26.8032Z" fill="#F5F5F5"/>
<path d="M41.1807 21.1073V20.5165H42.9287V15.6971H41.1807V15.1063H42.9287V14.3055H43.5781V20.5165H45.1309V21.1073H41.1807Z" fill="#F5F5F5"/>
<path d="M12.426 10.1952V9.60437H14.1741V4.78503H12.426V4.19421H14.1741V3.39343H14.8235V9.60437H16.3762V10.1952H12.426Z" fill="#F5F5F5"/>
<path d="M26.271 6.79675C26.271 6.30196 26.3019 5.83809 26.3638 5.40515C26.4289 4.97221 26.5461 4.59623 26.7153 4.27722C26.8879 3.95496 27.1239 3.70268 27.4233 3.52039C27.7228 3.33809 28.1086 3.24695 28.5806 3.24695C29.0526 3.24695 29.4383 3.33809 29.7378 3.52039C30.0405 3.70268 30.2765 3.95496 30.4458 4.27722C30.6183 4.59623 30.7355 4.97221 30.7974 5.40515C30.8592 5.83809 30.8901 6.30196 30.8901 6.79675C30.8901 7.29154 30.8592 7.75541 30.7974 8.18835C30.7355 8.61804 30.6183 8.99402 30.4458 9.31628C30.2765 9.63529 30.0422 9.88757 29.7427 10.0731C29.4432 10.2554 29.0558 10.3466 28.5806 10.3466C28.1086 10.3466 27.7228 10.2554 27.4233 10.0731C27.1239 9.88757 26.8879 9.63529 26.7153 9.31628C26.5461 8.99402 26.4289 8.61641 26.3638 8.18347C26.3019 7.75053 26.271 7.28829 26.271 6.79675ZM27.0229 8.12488C27.0229 8.62618 27.1629 9.02332 27.4429 9.31628C27.7228 9.60925 28.1021 9.75574 28.5806 9.75574C29.0591 9.75574 29.4383 9.60925 29.7183 9.31628C30.0015 9.02332 30.1431 8.62618 30.1431 8.12488V5.46375C30.1431 4.96244 30.0031 4.56531 29.7231 4.27234C29.4432 3.97937 29.0623 3.83289 28.5806 3.83289C28.1021 3.83289 27.7228 3.981 27.4429 4.27722C27.1629 4.57019 27.0229 4.9657 27.0229 5.46375V8.12488Z" fill="#F5F5F5"/>
<path d="M40.6484 6.79675C40.6484 6.30196 40.6794 5.83809 40.7412 5.40515C40.8063 4.97221 40.9235 4.59623 41.0928 4.27722C41.2653 3.95496 41.5013 3.70268 41.8008 3.52039C42.1003 3.33809 42.486 3.24695 42.958 3.24695C43.43 3.24695 43.8158 3.33809 44.1152 3.52039C44.418 3.70268 44.654 3.95496 44.8232 4.27722C44.9958 4.59623 45.113 4.97221 45.1748 5.40515C45.2367 5.83809 45.2676 6.30196 45.2676 6.79675C45.2676 7.29154 45.2367 7.75541 45.1748 8.18835C45.113 8.61804 44.9958 8.99402 44.8232 9.31628C44.654 9.63529 44.4196 9.88757 44.1201 10.0731C43.8206 10.2554 43.4333 10.3466 42.958 10.3466C42.486 10.3466 42.1003 10.2554 41.8008 10.0731C41.5013 9.88757 41.2653 9.63529 41.0928 9.31628C40.9235 8.99402 40.8063 8.61641 40.7412 8.18347C40.6794 7.75053 40.6484 7.28829 40.6484 6.79675ZM41.4004 8.12488C41.4004 8.62618 41.5404 9.02332 41.8203 9.31628C42.1003 9.60925 42.4795 9.75574 42.958 9.75574C43.4365 9.75574 43.8158 9.60925 44.0957 9.31628C44.3789 9.02332 44.5205 8.62618 44.5205 8.12488V5.46375C44.5205 4.96244 44.3805 4.56531 44.1006 4.27234C43.8206 3.97937 43.4398 3.83289 42.958 3.83289C42.4795 3.83289 42.1003 3.981 41.8203 4.27722C41.5404 4.57019 41.4004 4.9657 41.4004 5.46375V8.12488Z" fill="#F5F5F5"/>
<path d="M1.17285 0.167236V121.735" stroke="#F5F5F5" stroke-width="0.75"/>
<path d="M96.1411 0.167236V121.735" stroke="#F5F5F5" stroke-width="0.75"/>
<rect x="38.6943" y="81.7345" width="20" height="20" fill="#F5F5F5"/>
<rect x="18.6943" y="61.7345" width="20" height="20" fill="#F5F5F5"/>
<rect x="18.5825" y="101.734" width="20" height="20" fill="#F5F5F5"/>
<rect x="58.6943" y="81.7345" width="20" height="20" fill="#F5F5F5"/>
</svg>
