<svg width="97" height="122" viewBox="0 0 97 122" fill="none" xmlns="http://www.w3.org/2000/svg">
<path d="M6.69556 35.0474V0.167236H8.87918V0.802682H7.40032V34.412H8.87918V35.0474H6.69556Z" fill="#F5F5F5"/>
<path d="M50.0891 35.0474V0.167236H47.9055V0.802682H49.3843V34.412H47.9055V35.0474H50.0891Z" fill="#F5F5F5"/>
<path d="M12.2356 32.0194V31.4286H13.9836V26.6093H12.2356V26.0184H13.9836V25.2177H14.6331V31.4286H16.1858V32.0194H12.2356Z" fill="#F5F5F5"/>
<path d="M26.0806 28.621C26.0806 28.1262 26.1115 27.6623 26.1733 27.2294C26.2384 26.7964 26.3556 26.4205 26.5249 26.1014C26.6974 25.7792 26.9334 25.5269 27.2329 25.3446C27.5324 25.1623 27.9181 25.0712 28.3901 25.0712C28.8621 25.0712 29.2479 25.1623 29.5474 25.3446C29.8501 25.5269 30.0861 25.7792 30.2554 26.1014C30.4279 26.4205 30.5451 26.7964 30.6069 27.2294C30.6688 27.6623 30.6997 28.1262 30.6997 28.621C30.6997 29.1158 30.6688 29.5796 30.6069 30.0126C30.5451 30.4423 30.4279 30.8182 30.2554 31.1405C30.0861 31.4595 29.8517 31.7118 29.5522 31.8973C29.2528 32.0796 28.8654 32.1708 28.3901 32.1708C27.9181 32.1708 27.5324 32.0796 27.2329 31.8973C26.9334 31.7118 26.6974 31.4595 26.5249 31.1405C26.3556 30.8182 26.2384 30.4406 26.1733 30.0077C26.1115 29.5747 26.0806 29.1125 26.0806 28.621ZM26.8325 29.9491C26.8325 30.4504 26.9725 30.8475 27.2524 31.1405C27.5324 31.4335 27.9116 31.58 28.3901 31.58C28.8687 31.58 29.2479 31.4335 29.5278 31.1405C29.811 30.8475 29.9526 30.4504 29.9526 29.9491V27.288C29.9526 26.7867 29.8127 26.3895 29.5327 26.0966C29.2528 25.8036 28.8719 25.6571 28.3901 25.6571C27.9116 25.6571 27.5324 25.8052 27.2524 26.1014C26.9725 26.3944 26.8325 26.7899 26.8325 27.288V29.9491Z" fill="#F5F5F5"/>
<path d="M78.4835 32.1952V15.871H88.7023V17.4296H80.1593V23.1014H87.6007V24.66H80.1593V30.6366H88.7023V32.1952H78.4835Z" fill="#F5F5F5"/>
<path d="M40.9902 32.0194V31.4286H42.7383V26.6093H40.9902V26.0184H42.7383V25.2177H43.3877V31.4286H44.9404V32.0194H40.9902Z" fill="#F5F5F5"/>
<path d="M12.2356 21.1073V20.5165H13.9836V15.6971H12.2356V15.1063H13.9836V14.3055H14.6331V20.5165H16.1858V21.1073H12.2356Z" fill="#F5F5F5"/>
<path d="M26.0806 17.7089C26.0806 17.2141 26.1115 16.7502 26.1733 16.3173C26.2384 15.8843 26.3556 15.5083 26.5249 15.1893C26.6974 14.8671 26.9334 14.6148 27.2329 14.4325C27.5324 14.2502 27.9181 14.1591 28.3901 14.1591C28.8621 14.1591 29.2479 14.2502 29.5474 14.4325C29.8501 14.6148 30.0861 14.8671 30.2554 15.1893C30.4279 15.5083 30.5451 15.8843 30.6069 16.3173C30.6688 16.7502 30.6997 17.2141 30.6997 17.7089C30.6997 18.2037 30.6688 18.6675 30.6069 19.1005C30.5451 19.5302 30.4279 19.9061 30.2554 20.2284C30.0861 20.5474 29.8517 20.7997 29.5522 20.9852C29.2528 21.1675 28.8654 21.2587 28.3901 21.2587C27.9181 21.2587 27.5324 21.1675 27.2329 20.9852C26.9334 20.7997 26.6974 20.5474 26.5249 20.2284C26.3556 19.9061 26.2384 19.5285 26.1733 19.0956C26.1115 18.6626 26.0806 18.2004 26.0806 17.7089ZM26.8325 19.037C26.8325 19.5383 26.9725 19.9354 27.2524 20.2284C27.5324 20.5214 27.9116 20.6678 28.3901 20.6678C28.8687 20.6678 29.2479 20.5214 29.5278 20.2284C29.811 19.9354 29.9526 19.5383 29.9526 19.037V16.3759C29.9526 15.8746 29.8127 15.4774 29.5327 15.1844C29.2528 14.8915 28.8719 14.745 28.3901 14.745C27.9116 14.745 27.5324 14.8931 27.2524 15.1893C26.9725 15.4823 26.8325 15.8778 26.8325 16.3759V19.037Z" fill="#F5F5F5"/>
<path d="M40.458 17.7089C40.458 17.2141 40.4889 16.7502 40.5508 16.3173C40.6159 15.8843 40.7331 15.5083 40.9023 15.1893C41.0749 14.8671 41.3109 14.6148 41.6104 14.4325C41.9098 14.2502 42.2956 14.1591 42.7676 14.1591C43.2396 14.1591 43.6253 14.2502 43.9248 14.4325C44.2275 14.6148 44.4635 14.8671 44.6328 15.1893C44.8053 15.5083 44.9225 15.8843 44.9844 16.3173C45.0462 16.7502 45.0771 17.2141 45.0771 17.7089C45.0771 18.2037 45.0462 18.6675 44.9844 19.1005C44.9225 19.5302 44.8053 19.9061 44.6328 20.2284C44.4635 20.5474 44.2292 20.7997 43.9297 20.9852C43.6302 21.1675 43.2428 21.2587 42.7676 21.2587C42.2956 21.2587 41.9098 21.1675 41.6104 20.9852C41.3109 20.7997 41.0749 20.5474 40.9023 20.2284C40.7331 19.9061 40.6159 19.5285 40.5508 19.0956C40.4889 18.6626 40.458 18.2004 40.458 17.7089ZM41.21 19.037C41.21 19.5383 41.3499 19.9354 41.6299 20.2284C41.9098 20.5214 42.2891 20.6678 42.7676 20.6678C43.2461 20.6678 43.6253 20.5214 43.9053 20.2284C44.1885 19.9354 44.3301 19.5383 44.3301 19.037V16.3759C44.3301 15.8746 44.1901 15.4774 43.9102 15.1844C43.6302 14.8915 43.2493 14.745 42.7676 14.745C42.2891 14.745 41.9098 14.8931 41.6299 15.1893C41.3499 15.4823 41.21 15.8778 41.21 16.3759V19.037Z" fill="#F5F5F5"/>
<path d="M12.2356 10.1952V9.60437H13.9836V4.78503H12.2356V4.19421H13.9836V3.39343H14.6331V9.60437H16.1858V10.1952H12.2356Z" fill="#F5F5F5"/>
<path d="M26.0806 6.79675C26.0806 6.30196 26.1115 5.83809 26.1733 5.40515C26.2384 4.97221 26.3556 4.59623 26.5249 4.27722C26.6974 3.95496 26.9334 3.70268 27.2329 3.52039C27.5324 3.33809 27.9181 3.24695 28.3901 3.24695C28.8621 3.24695 29.2479 3.33809 29.5474 3.52039C29.8501 3.70268 30.0861 3.95496 30.2554 4.27722C30.4279 4.59623 30.5451 4.97221 30.6069 5.40515C30.6688 5.83809 30.6997 6.30196 30.6997 6.79675C30.6997 7.29154 30.6688 7.75541 30.6069 8.18835C30.5451 8.61804 30.4279 8.99402 30.2554 9.31628C30.0861 9.63529 29.8517 9.88757 29.5522 10.0731C29.2528 10.2554 28.8654 10.3466 28.3901 10.3466C27.9181 10.3466 27.5324 10.2554 27.2329 10.0731C26.9334 9.88757 26.6974 9.63529 26.5249 9.31628C26.3556 8.99402 26.2384 8.61641 26.1733 8.18347C26.1115 7.75053 26.0806 7.28829 26.0806 6.79675ZM26.8325 8.12488C26.8325 8.62618 26.9725 9.02332 27.2524 9.31628C27.5324 9.60925 27.9116 9.75574 28.3901 9.75574C28.8687 9.75574 29.2479 9.60925 29.5278 9.31628C29.811 9.02332 29.9526 8.62618 29.9526 8.12488V5.46375C29.9526 4.96244 29.8127 4.56531 29.5327 4.27234C29.2528 3.97937 28.8719 3.83289 28.3901 3.83289C27.9116 3.83289 27.5324 3.981 27.2524 4.27722C26.9725 4.57019 26.8325 4.9657 26.8325 5.46375V8.12488Z" fill="#F5F5F5"/>
<path d="M40.9902 10.1952V9.60437H42.7383V4.78503H40.9902V4.19421H42.7383V3.39343H43.3877V9.60437H44.9404V10.1952H40.9902Z" fill="#F5F5F5"/>
<path d="M0.982422 0.167236V121.735" stroke="#F5F5F5" stroke-width="0.75"/>
<path d="M95.9507 0.167236V121.735" stroke="#F5F5F5" stroke-width="0.75"/>
<rect x="18.4666" y="61.7345" width="20" height="20" fill="#F5F5F5"/>
<rect x="18.4666" y="81.7345" width="20" height="20" fill="#F5F5F5"/>
<rect x="18.4666" y="101.734" width="20" height="20" fill="#F5F5F5"/>
<rect x="58.4666" y="101.734" width="20" height="20" fill="#F5F5F5"/>
<rect x="58.4666" y="61.7345" width="20" height="20" fill="#F5F5F5"/>
</svg>
