<svg width="97" height="122" viewBox="0 0 97 122" fill="none" xmlns="http://www.w3.org/2000/svg">
<path d="M6.79077 35.0474V0.167236H8.97439V0.802682H7.49554V34.412H8.97439V35.0474H6.79077Z" fill="#F5F5F5"/>
<path d="M50.1843 35.0474V0.167236H48.0007V0.802682H49.4796V34.412H48.0007V35.0474H50.1843Z" fill="#F5F5F5"/>
<path d="M12.3308 32.0194V31.4286H14.0789V26.6093H12.3308V26.0184H14.0789V25.2177H14.7283V31.4286H16.281V32.0194H12.3308Z" fill="#F5F5F5"/>
<path d="M26.708 32.0194V31.4286H28.4561V26.6093H26.708V26.0184H28.4561V25.2177H29.1055V31.4286H30.6582V32.0194H26.708Z" fill="#F5F5F5"/>
<path d="M77.36 32.1952V15.871H83.8405C84.528 15.871 85.149 15.9452 85.7037 16.0936C86.2662 16.2343 86.7428 16.4608 87.1334 16.7733C87.524 17.0858 87.8248 17.496 88.0358 18.0038C88.2467 18.5038 88.3522 19.1132 88.3522 19.8319C88.3522 20.7616 88.1295 21.5624 87.6842 22.2343C87.2467 22.9061 86.6451 23.3866 85.8795 23.6757C86.7623 23.8866 87.4537 24.3163 87.9537 24.9647C88.4537 25.6053 88.7037 26.4218 88.7037 27.4139C88.7037 29.0936 88.2819 30.3124 87.4381 31.0702C86.6022 31.8202 85.403 32.1952 83.8405 32.1952H77.36ZM79.0358 30.6366H84.5319C85.235 30.6366 85.8053 30.4608 86.2428 30.1093C86.6881 29.7577 86.9108 29.2616 86.9108 28.621V26.4061C86.9108 25.7968 86.692 25.3358 86.2545 25.0233C85.8248 24.703 85.2975 24.5428 84.6725 24.5428H79.0358V30.6366ZM79.0358 22.9843H84.4147C85.0865 22.9843 85.61 22.8085 85.985 22.4569C86.36 22.0975 86.5475 21.6171 86.5475 21.0155V19.3046C86.5475 18.6952 86.36 18.2303 85.985 17.91C85.61 17.5897 85.0865 17.4296 84.4147 17.4296H79.0358V22.9843Z" fill="#F5F5F5"/>
<path d="M40.5532 28.621C40.5532 28.1262 40.5841 27.6623 40.646 27.2294C40.7111 26.7964 40.8283 26.4205 40.9976 26.1014C41.1701 25.7792 41.4061 25.5269 41.7056 25.3446C42.005 25.1623 42.3908 25.0712 42.8628 25.0712C43.3348 25.0712 43.7205 25.1623 44.02 25.3446C44.3228 25.5269 44.5588 25.7792 44.728 26.1014C44.9006 26.4205 45.0177 26.7964 45.0796 27.2294C45.1414 27.6623 45.1724 28.1262 45.1724 28.621C45.1724 29.1158 45.1414 29.5796 45.0796 30.0126C45.0177 30.4423 44.9006 30.8182 44.728 31.1405C44.5588 31.4595 44.3244 31.7118 44.0249 31.8973C43.7254 32.0796 43.3381 32.1708 42.8628 32.1708C42.3908 32.1708 42.005 32.0796 41.7056 31.8973C41.4061 31.7118 41.1701 31.4595 40.9976 31.1405C40.8283 30.8182 40.7111 30.4406 40.646 30.0077C40.5841 29.5747 40.5532 29.1125 40.5532 28.621ZM41.3052 29.9491C41.3052 30.4504 41.4451 30.8475 41.7251 31.1405C42.005 31.4335 42.3843 31.58 42.8628 31.58C43.3413 31.58 43.7205 31.4335 44.0005 31.1405C44.2837 30.8475 44.4253 30.4504 44.4253 29.9491V27.288C44.4253 26.7867 44.2853 26.3895 44.0054 26.0966C43.7254 25.8036 43.3446 25.6571 42.8628 25.6571C42.3843 25.6571 42.005 25.8052 41.7251 26.1014C41.4451 26.3944 41.3052 26.7899 41.3052 27.288V29.9491Z" fill="#F5F5F5"/>
<path d="M12.3308 21.1073V20.5165H14.0789V15.6971H12.3308V15.1063H14.0789V14.3055H14.7283V20.5165H16.281V21.1073H12.3308Z" fill="#F5F5F5"/>
<path d="M26.1758 17.7089C26.1758 17.2141 26.2067 16.7502 26.2686 16.3173C26.3337 15.8843 26.4508 15.5083 26.6201 15.1893C26.7926 14.8671 27.0286 14.6148 27.3281 14.4325C27.6276 14.2502 28.0133 14.1591 28.4854 14.1591C28.9574 14.1591 29.3431 14.2502 29.6426 14.4325C29.9453 14.6148 30.1813 14.8671 30.3506 15.1893C30.5231 15.5083 30.6403 15.8843 30.7021 16.3173C30.764 16.7502 30.7949 17.2141 30.7949 17.7089C30.7949 18.2037 30.764 18.6675 30.7021 19.1005C30.6403 19.5302 30.5231 19.9061 30.3506 20.2284C30.1813 20.5474 29.9469 20.7997 29.6475 20.9852C29.348 21.1675 28.9606 21.2587 28.4854 21.2587C28.0133 21.2587 27.6276 21.1675 27.3281 20.9852C27.0286 20.7997 26.7926 20.5474 26.6201 20.2284C26.4508 19.9061 26.3337 19.5285 26.2686 19.0956C26.2067 18.6626 26.1758 18.2004 26.1758 17.7089ZM26.9277 19.037C26.9277 19.5383 27.0677 19.9354 27.3477 20.2284C27.6276 20.5214 28.0068 20.6678 28.4854 20.6678C28.9639 20.6678 29.3431 20.5214 29.623 20.2284C29.9062 19.9354 30.0479 19.5383 30.0479 19.037V16.3759C30.0479 15.8746 29.9079 15.4774 29.6279 15.1844C29.348 14.8915 28.9671 14.745 28.4854 14.745C28.0068 14.745 27.6276 14.8931 27.3477 15.1893C27.0677 15.4823 26.9277 15.8778 26.9277 16.3759V19.037Z" fill="#F5F5F5"/>
<path d="M40.5532 17.7089C40.5532 17.2141 40.5841 16.7502 40.646 16.3173C40.7111 15.8843 40.8283 15.5083 40.9976 15.1893C41.1701 14.8671 41.4061 14.6148 41.7056 14.4325C42.005 14.2502 42.3908 14.1591 42.8628 14.1591C43.3348 14.1591 43.7205 14.2502 44.02 14.4325C44.3228 14.6148 44.5588 14.8671 44.728 15.1893C44.9006 15.5083 45.0177 15.8843 45.0796 16.3173C45.1414 16.7502 45.1724 17.2141 45.1724 17.7089C45.1724 18.2037 45.1414 18.6675 45.0796 19.1005C45.0177 19.5302 44.9006 19.9061 44.728 20.2284C44.5588 20.5474 44.3244 20.7997 44.0249 20.9852C43.7254 21.1675 43.3381 21.2587 42.8628 21.2587C42.3908 21.2587 42.005 21.1675 41.7056 20.9852C41.4061 20.7997 41.1701 20.5474 40.9976 20.2284C40.8283 19.9061 40.7111 19.5285 40.646 19.0956C40.5841 18.6626 40.5532 18.2004 40.5532 17.7089ZM41.3052 19.037C41.3052 19.5383 41.4451 19.9354 41.7251 20.2284C42.005 20.5214 42.3843 20.6678 42.8628 20.6678C43.3413 20.6678 43.7205 20.5214 44.0005 20.2284C44.2837 19.9354 44.4253 19.5383 44.4253 19.037V16.3759C44.4253 15.8746 44.2853 15.4774 44.0054 15.1844C43.7254 14.8915 43.3446 14.745 42.8628 14.745C42.3843 14.745 42.005 14.8931 41.7251 15.1893C41.4451 15.4823 41.3052 15.8778 41.3052 16.3759V19.037Z" fill="#F5F5F5"/>
<path d="M11.7986 6.79675C11.7986 6.30196 11.8295 5.83809 11.8914 5.40515C11.9565 4.97221 12.0736 4.59623 12.2429 4.27722C12.4154 3.95496 12.6514 3.70268 12.9509 3.52039C13.2504 3.33809 13.6361 3.24695 14.1082 3.24695C14.5802 3.24695 14.9659 3.33809 15.2654 3.52039C15.5681 3.70268 15.8041 3.95496 15.9734 4.27722C16.1459 4.59623 16.2631 4.97221 16.325 5.40515C16.3868 5.83809 16.4177 6.30196 16.4177 6.79675C16.4177 7.29154 16.3868 7.75541 16.325 8.18835C16.2631 8.61804 16.1459 8.99402 15.9734 9.31628C15.8041 9.63529 15.5697 9.88757 15.2703 10.0731C14.9708 10.2554 14.5834 10.3466 14.1082 10.3466C13.6361 10.3466 13.2504 10.2554 12.9509 10.0731C12.6514 9.88757 12.4154 9.63529 12.2429 9.31628C12.0736 8.99402 11.9565 8.61641 11.8914 8.18347C11.8295 7.75053 11.7986 7.28829 11.7986 6.79675ZM12.5505 8.12488C12.5505 8.62618 12.6905 9.02332 12.9705 9.31628C13.2504 9.60925 13.6296 9.75574 14.1082 9.75574C14.5867 9.75574 14.9659 9.60925 15.2458 9.31628C15.5291 9.02332 15.6707 8.62618 15.6707 8.12488V5.46375C15.6707 4.96244 15.5307 4.56531 15.2507 4.27234C14.9708 3.97937 14.5899 3.83289 14.1082 3.83289C13.6296 3.83289 13.2504 3.981 12.9705 4.27722C12.6905 4.57019 12.5505 4.9657 12.5505 5.46375V8.12488Z" fill="#F5F5F5"/>
<path d="M26.1758 6.79675C26.1758 6.30196 26.2067 5.83809 26.2686 5.40515C26.3337 4.97221 26.4508 4.59623 26.6201 4.27722C26.7926 3.95496 27.0286 3.70268 27.3281 3.52039C27.6276 3.33809 28.0133 3.24695 28.4854 3.24695C28.9574 3.24695 29.3431 3.33809 29.6426 3.52039C29.9453 3.70268 30.1813 3.95496 30.3506 4.27722C30.5231 4.59623 30.6403 4.97221 30.7021 5.40515C30.764 5.83809 30.7949 6.30196 30.7949 6.79675C30.7949 7.29154 30.764 7.75541 30.7021 8.18835C30.6403 8.61804 30.5231 8.99402 30.3506 9.31628C30.1813 9.63529 29.9469 9.88757 29.6475 10.0731C29.348 10.2554 28.9606 10.3466 28.4854 10.3466C28.0133 10.3466 27.6276 10.2554 27.3281 10.0731C27.0286 9.88757 26.7926 9.63529 26.6201 9.31628C26.4508 8.99402 26.3337 8.61641 26.2686 8.18347C26.2067 7.75053 26.1758 7.28829 26.1758 6.79675ZM26.9277 8.12488C26.9277 8.62618 27.0677 9.02332 27.3477 9.31628C27.6276 9.60925 28.0068 9.75574 28.4854 9.75574C28.9639 9.75574 29.3431 9.60925 29.623 9.31628C29.9062 9.02332 30.0479 8.62618 30.0479 8.12488V5.46375C30.0479 4.96244 29.9079 4.56531 29.6279 4.27234C29.348 3.97937 28.9671 3.83289 28.4854 3.83289C28.0068 3.83289 27.6276 3.981 27.3477 4.27722C27.0677 4.57019 26.9277 4.9657 26.9277 5.46375V8.12488Z" fill="#F5F5F5"/>
<path d="M40.5532 6.79675C40.5532 6.30196 40.5841 5.83809 40.646 5.40515C40.7111 4.97221 40.8283 4.59623 40.9976 4.27722C41.1701 3.95496 41.4061 3.70268 41.7056 3.52039C42.005 3.33809 42.3908 3.24695 42.8628 3.24695C43.3348 3.24695 43.7205 3.33809 44.02 3.52039C44.3228 3.70268 44.5588 3.95496 44.728 4.27722C44.9006 4.59623 45.0177 4.97221 45.0796 5.40515C45.1414 5.83809 45.1724 6.30196 45.1724 6.79675C45.1724 7.29154 45.1414 7.75541 45.0796 8.18835C45.0177 8.61804 44.9006 8.99402 44.728 9.31628C44.5588 9.63529 44.3244 9.88757 44.0249 10.0731C43.7254 10.2554 43.3381 10.3466 42.8628 10.3466C42.3908 10.3466 42.005 10.2554 41.7056 10.0731C41.4061 9.88757 41.1701 9.63529 40.9976 9.31628C40.8283 8.99402 40.7111 8.61641 40.646 8.18347C40.5841 7.75053 40.5532 7.28829 40.5532 6.79675ZM41.3052 8.12488C41.3052 8.62618 41.4451 9.02332 41.7251 9.31628C42.005 9.60925 42.3843 9.75574 42.8628 9.75574C43.3413 9.75574 43.7205 9.60925 44.0005 9.31628C44.2837 9.02332 44.4253 8.62618 44.4253 8.12488V5.46375C44.4253 4.96244 44.2853 4.56531 44.0054 4.27234C43.7254 3.97937 43.3446 3.83289 42.8628 3.83289C42.3843 3.83289 42.005 3.981 41.7251 4.27722C41.4451 4.57019 41.3052 4.9657 41.3052 5.46375V8.12488Z" fill="#F5F5F5"/>
<path d="M1.07764 0.167236V121.735" stroke="#F5F5F5" stroke-width="0.75"/>
<path d="M96.0459 0.167236V121.735" stroke="#F5F5F5" stroke-width="0.75"/>
<rect x="38.5618" y="101.734" width="20" height="20" fill="#F5F5F5"/>
<rect x="18.5618" y="101.734" width="20" height="20" fill="#F5F5F5"/>
<rect x="18.5618" y="81.7345" width="20" height="20" fill="#F5F5F5"/>
</svg>
