<svg width="97" height="122" viewBox="0 0 97 122" fill="none" xmlns="http://www.w3.org/2000/svg">
<path d="M6.79077 35.2781V0.397949H8.97439V1.03339H7.49554V34.6427H8.97439V35.2781H6.79077Z" fill="#F5F5F5"/>
<path d="M50.1843 35.2781V0.397949H48.0007V1.03339H49.4796V34.6427H48.0007V35.2781H50.1843Z" fill="#F5F5F5"/>
<path d="M11.7986 28.8517C11.7986 28.3569 11.8295 27.893 11.8914 27.4601C11.9565 27.0271 12.0736 26.6512 12.2429 26.3322C12.4154 26.0099 12.6514 25.7576 12.9509 25.5753C13.2504 25.393 13.6361 25.3019 14.1082 25.3019C14.5802 25.3019 14.9659 25.393 15.2654 25.5753C15.5681 25.7576 15.8041 26.0099 15.9734 26.3322C16.1459 26.6512 16.2631 27.0271 16.325 27.4601C16.3868 27.893 16.4177 28.3569 16.4177 28.8517C16.4177 29.3465 16.3868 29.8103 16.325 30.2433C16.2631 30.673 16.1459 31.049 15.9734 31.3712C15.8041 31.6902 15.5697 31.9425 15.2703 32.1281C14.9708 32.3103 14.5834 32.4015 14.1082 32.4015C13.6361 32.4015 13.2504 32.3103 12.9509 32.1281C12.6514 31.9425 12.4154 31.6902 12.2429 31.3712C12.0736 31.049 11.9565 30.6713 11.8914 30.2384C11.8295 29.8055 11.7986 29.3432 11.7986 28.8517ZM12.5505 30.1798C12.5505 30.6811 12.6905 31.0782 12.9705 31.3712C13.2504 31.6642 13.6296 31.8107 14.1082 31.8107C14.5867 31.8107 14.9659 31.6642 15.2458 31.3712C15.5291 31.0782 15.6707 30.6811 15.6707 30.1798V27.5187C15.6707 27.0174 15.5307 26.6202 15.2507 26.3273C14.9708 26.0343 14.5899 25.8878 14.1082 25.8878C13.6296 25.8878 13.2504 26.0359 12.9705 26.3322C12.6905 26.6251 12.5505 27.0206 12.5505 27.5187V30.1798Z" fill="#F5F5F5"/>
<path d="M26.708 32.2501V31.6593H28.4561V26.84H26.708V26.2491H28.4561V25.4484H29.1055V31.6593H30.6582V32.2501H26.708Z" fill="#F5F5F5"/>
<path d="M78.3912 17.6603V16.1017H89.817V17.6603H84.942V32.4259H83.2662V17.6603H78.3912Z" fill="#F5F5F5"/>
<path d="M41.0854 32.2501V31.6593H42.8335V26.84H41.0854V26.2491H42.8335V25.4484H43.4829V31.6593H45.0356V32.2501H41.0854Z" fill="#F5F5F5"/>
<path d="M11.7986 17.9396C11.7986 17.4448 11.8295 16.9809 11.8914 16.548C11.9565 16.115 12.0736 15.7391 12.2429 15.42C12.4154 15.0978 12.6514 14.8455 12.9509 14.6632C13.2504 14.4809 13.6361 14.3898 14.1082 14.3898C14.5802 14.3898 14.9659 14.4809 15.2654 14.6632C15.5681 14.8455 15.8041 15.0978 15.9734 15.42C16.1459 15.7391 16.2631 16.115 16.325 16.548C16.3868 16.9809 16.4177 17.4448 16.4177 17.9396C16.4177 18.4344 16.3868 18.8982 16.325 19.3312C16.2631 19.7609 16.1459 20.1368 15.9734 20.4591C15.8041 20.7781 15.5697 21.0304 15.2703 21.2159C14.9708 21.3982 14.5834 21.4894 14.1082 21.4894C13.6361 21.4894 13.2504 21.3982 12.9509 21.2159C12.6514 21.0304 12.4154 20.7781 12.2429 20.4591C12.0736 20.1368 11.9565 19.7592 11.8914 19.3263C11.8295 18.8934 11.7986 18.4311 11.7986 17.9396ZM12.5505 19.2677C12.5505 19.769 12.6905 20.1661 12.9705 20.4591C13.2504 20.7521 13.6296 20.8986 14.1082 20.8986C14.5867 20.8986 14.9659 20.7521 15.2458 20.4591C15.5291 20.1661 15.6707 19.769 15.6707 19.2677V16.6066C15.6707 16.1053 15.5307 15.7081 15.2507 15.4152C14.9708 15.1222 14.5899 14.9757 14.1082 14.9757C13.6296 14.9757 13.2504 15.1238 12.9705 15.42C12.6905 15.713 12.5505 16.1085 12.5505 16.6066V19.2677Z" fill="#F5F5F5"/>
<path d="M26.1758 17.9396C26.1758 17.4448 26.2067 16.9809 26.2686 16.548C26.3337 16.115 26.4508 15.7391 26.6201 15.42C26.7926 15.0978 27.0286 14.8455 27.3281 14.6632C27.6276 14.4809 28.0133 14.3898 28.4854 14.3898C28.9574 14.3898 29.3431 14.4809 29.6426 14.6632C29.9453 14.8455 30.1813 15.0978 30.3506 15.42C30.5231 15.7391 30.6403 16.115 30.7021 16.548C30.764 16.9809 30.7949 17.4448 30.7949 17.9396C30.7949 18.4344 30.764 18.8982 30.7021 19.3312C30.6403 19.7609 30.5231 20.1368 30.3506 20.4591C30.1813 20.7781 29.9469 21.0304 29.6475 21.2159C29.348 21.3982 28.9606 21.4894 28.4854 21.4894C28.0133 21.4894 27.6276 21.3982 27.3281 21.2159C27.0286 21.0304 26.7926 20.7781 26.6201 20.4591C26.4508 20.1368 26.3337 19.7592 26.2686 19.3263C26.2067 18.8934 26.1758 18.4311 26.1758 17.9396ZM26.9277 19.2677C26.9277 19.769 27.0677 20.1661 27.3477 20.4591C27.6276 20.7521 28.0068 20.8986 28.4854 20.8986C28.9639 20.8986 29.3431 20.7521 29.623 20.4591C29.9062 20.1661 30.0479 19.769 30.0479 19.2677V16.6066C30.0479 16.1053 29.9079 15.7081 29.6279 15.4152C29.348 15.1222 28.9671 14.9757 28.4854 14.9757C28.0068 14.9757 27.6276 15.1238 27.3477 15.42C27.0677 15.713 26.9277 16.1085 26.9277 16.6066V19.2677Z" fill="#F5F5F5"/>
<path d="M41.0854 21.338V20.7472H42.8335V15.9279H41.0854V15.337H42.8335V14.5363H43.4829V20.7472H45.0356V21.338H41.0854Z" fill="#F5F5F5"/>
<path d="M11.7986 7.02747C11.7986 6.53267 11.8295 6.06881 11.8914 5.63586C11.9565 5.20292 12.0736 4.82694 12.2429 4.50793C12.4154 4.18567 12.6514 3.93339 12.9509 3.7511C13.2504 3.56881 13.6361 3.47766 14.1082 3.47766C14.5802 3.47766 14.9659 3.56881 15.2654 3.7511C15.5681 3.93339 15.8041 4.18567 15.9734 4.50793C16.1459 4.82694 16.2631 5.20292 16.325 5.63586C16.3868 6.06881 16.4177 6.53267 16.4177 7.02747C16.4177 7.52226 16.3868 7.98612 16.325 8.41907C16.2631 8.84875 16.1459 9.22473 15.9734 9.547C15.8041 9.86601 15.5697 10.1183 15.2703 10.3038C14.9708 10.4861 14.5834 10.5773 14.1082 10.5773C13.6361 10.5773 13.2504 10.4861 12.9509 10.3038C12.6514 10.1183 12.4154 9.86601 12.2429 9.547C12.0736 9.22473 11.9565 8.84713 11.8914 8.41418C11.8295 7.98124 11.7986 7.519 11.7986 7.02747ZM12.5505 8.35559C12.5505 8.85689 12.6905 9.25403 12.9705 9.547C13.2504 9.83997 13.6296 9.98645 14.1082 9.98645C14.5867 9.98645 14.9659 9.83997 15.2458 9.547C15.5291 9.25403 15.6707 8.85689 15.6707 8.35559V5.69446C15.6707 5.19316 15.5307 4.79602 15.2507 4.50305C14.9708 4.21008 14.5899 4.0636 14.1082 4.0636C13.6296 4.0636 13.2504 4.21171 12.9705 4.50793C12.6905 4.8009 12.5505 5.19641 12.5505 5.69446V8.35559Z" fill="#F5F5F5"/>
<path d="M26.708 10.4259V9.83508H28.4561V5.01575H26.708V4.42493H28.4561V3.62415H29.1055V9.83508H30.6582V10.4259H26.708Z" fill="#F5F5F5"/>
<path d="M40.5532 7.02747C40.5532 6.53267 40.5841 6.06881 40.646 5.63586C40.7111 5.20292 40.8283 4.82694 40.9976 4.50793C41.1701 4.18567 41.4061 3.93339 41.7056 3.7511C42.005 3.56881 42.3908 3.47766 42.8628 3.47766C43.3348 3.47766 43.7205 3.56881 44.02 3.7511C44.3228 3.93339 44.5588 4.18567 44.728 4.50793C44.9006 4.82694 45.0177 5.20292 45.0796 5.63586C45.1414 6.06881 45.1724 6.53267 45.1724 7.02747C45.1724 7.52226 45.1414 7.98612 45.0796 8.41907C45.0177 8.84875 44.9006 9.22473 44.728 9.547C44.5588 9.86601 44.3244 10.1183 44.0249 10.3038C43.7254 10.4861 43.3381 10.5773 42.8628 10.5773C42.3908 10.5773 42.005 10.4861 41.7056 10.3038C41.4061 10.1183 41.1701 9.86601 40.9976 9.547C40.8283 9.22473 40.7111 8.84713 40.646 8.41418C40.5841 7.98124 40.5532 7.519 40.5532 7.02747ZM41.3052 8.35559C41.3052 8.85689 41.4451 9.25403 41.7251 9.547C42.005 9.83997 42.3843 9.98645 42.8628 9.98645C43.3413 9.98645 43.7205 9.83997 44.0005 9.547C44.2837 9.25403 44.4253 8.85689 44.4253 8.35559V5.69446C44.4253 5.19316 44.2853 4.79602 44.0054 4.50305C43.7254 4.21008 43.3446 4.0636 42.8628 4.0636C42.3843 4.0636 42.005 4.21171 41.7251 4.50793C41.4451 4.8009 41.3052 5.19641 41.3052 5.69446V8.35559Z" fill="#F5F5F5"/>
<path d="M1.07764 0.397949V121.965" stroke="#F5F5F5" stroke-width="0.75"/>
<path d="M96.0459 0.397949V121.965" stroke="#F5F5F5" stroke-width="0.75"/>
<rect x="38.5618" y="101.965" width="20" height="20" fill="#F5F5F5"/>
<rect x="58.5618" y="101.965" width="20" height="20" fill="#F5F5F5"/>
<rect x="58.5618" y="81.9652" width="20" height="20" fill="#F5F5F5"/>
<rect x="38.5618" y="61.9652" width="20" height="20" fill="#F5F5F5"/>
</svg>
