<svg width="97" height="122" viewBox="0 0 97 122" fill="none" xmlns="http://www.w3.org/2000/svg">
<path d="M6.75903 35.0474V0.167236H8.94265V0.802682H7.4638V34.412H8.94265V35.0474H6.75903Z" fill="#F5F5F5"/>
<path d="M50.1526 35.0474V0.167236H47.969V0.802682H49.4478V34.412H47.969V35.0474H50.1526Z" fill="#F5F5F5"/>
<path d="M11.7668 28.621C11.7668 28.1262 11.7978 27.6623 11.8596 27.2294C11.9247 26.7964 12.0419 26.4205 12.2112 26.1014C12.3837 25.7792 12.6197 25.5269 12.9192 25.3446C13.2187 25.1623 13.6044 25.0712 14.0764 25.0712C14.5484 25.0712 14.9342 25.1623 15.2336 25.3446C15.5364 25.5269 15.7724 25.7792 15.9417 26.1014C16.1142 26.4205 16.2314 26.7964 16.2932 27.2294C16.3551 27.6623 16.386 28.1262 16.386 28.621C16.386 29.1158 16.3551 29.5796 16.2932 30.0126C16.2314 30.4423 16.1142 30.8182 15.9417 31.1405C15.7724 31.4595 15.538 31.7118 15.2385 31.8973C14.939 32.0796 14.5517 32.1708 14.0764 32.1708C13.6044 32.1708 13.2187 32.0796 12.9192 31.8973C12.6197 31.7118 12.3837 31.4595 12.2112 31.1405C12.0419 30.8182 11.9247 30.4406 11.8596 30.0077C11.7978 29.5747 11.7668 29.1125 11.7668 28.621ZM12.5188 29.9491C12.5188 30.4504 12.6588 30.8475 12.9387 31.1405C13.2187 31.4335 13.5979 31.58 14.0764 31.58C14.5549 31.58 14.9342 31.4335 15.2141 31.1405C15.4973 30.8475 15.6389 30.4504 15.6389 29.9491V27.288C15.6389 26.7867 15.4989 26.3895 15.219 26.0966C14.939 25.8036 14.5582 25.6571 14.0764 25.6571C13.5979 25.6571 13.2187 25.8052 12.9387 26.1014C12.6588 26.3944 12.5188 26.7899 12.5188 27.288V29.9491Z" fill="#F5F5F5"/>
<path d="M26.144 28.621C26.144 28.1262 26.175 27.6623 26.2368 27.2294C26.3019 26.7964 26.4191 26.4205 26.5884 26.1014C26.7609 25.7792 26.9969 25.5269 27.2964 25.3446C27.5959 25.1623 27.9816 25.0712 28.4536 25.0712C28.9256 25.0712 29.3114 25.1623 29.6108 25.3446C29.9136 25.5269 30.1496 25.7792 30.3188 26.1014C30.4914 26.4205 30.6086 26.7964 30.6704 27.2294C30.7323 27.6623 30.7632 28.1262 30.7632 28.621C30.7632 29.1158 30.7323 29.5796 30.6704 30.0126C30.6086 30.4423 30.4914 30.8182 30.3188 31.1405C30.1496 31.4595 29.9152 31.7118 29.6157 31.8973C29.3162 32.0796 28.9289 32.1708 28.4536 32.1708C27.9816 32.1708 27.5959 32.0796 27.2964 31.8973C26.9969 31.7118 26.7609 31.4595 26.5884 31.1405C26.4191 30.8182 26.3019 30.4406 26.2368 30.0077C26.175 29.5747 26.144 29.1125 26.144 28.621ZM26.896 29.9491C26.896 30.4504 27.036 30.8475 27.3159 31.1405C27.5959 31.4335 27.9751 31.58 28.4536 31.58C28.9321 31.58 29.3114 31.4335 29.5913 31.1405C29.8745 30.8475 30.0161 30.4504 30.0161 29.9491V27.288C30.0161 26.7867 29.8761 26.3895 29.5962 26.0966C29.3162 25.8036 28.9354 25.6571 28.4536 25.6571C27.9751 25.6571 27.5959 25.8052 27.3159 26.1014C27.036 26.3944 26.896 26.7899 26.896 27.288V29.9491Z" fill="#F5F5F5"/>
<path d="M76.6954 24.1796C76.6954 22.8983 76.8243 21.7264 77.0822 20.6639C77.34 19.6014 77.7345 18.6913 78.2657 17.9335C78.8048 17.1678 79.4806 16.5741 80.2931 16.1522C81.1134 15.7303 82.0743 15.5194 83.1759 15.5194C83.9259 15.5194 84.6251 15.6327 85.2736 15.8593C85.922 16.078 86.4923 16.4061 86.9845 16.8436C87.4845 17.2733 87.8868 17.7968 88.1915 18.4139C88.4962 19.0233 88.6876 19.7225 88.7657 20.5116H87.09C87.0275 19.9178 86.879 19.4022 86.6447 18.9647C86.4103 18.5194 86.1134 18.1639 85.754 17.8983C85.3947 17.6249 84.9806 17.4218 84.5118 17.2889C84.0509 17.1483 83.5509 17.078 83.0118 17.078C82.3556 17.078 81.7579 17.1991 81.2189 17.4413C80.6876 17.6757 80.2267 17.9999 79.8361 18.4139C79.4532 18.8202 79.1525 19.3046 78.9337 19.8671C78.7228 20.4218 78.6173 21.0116 78.6173 21.6366V26.4296C78.6173 27.0858 78.7306 27.6952 78.9572 28.2577C79.1915 28.8202 79.504 29.3046 79.8947 29.7108C80.2931 30.1171 80.754 30.4335 81.2775 30.66C81.8087 30.8866 82.3712 30.9999 82.965 30.9999C84.215 30.9999 85.2189 30.7186 85.9767 30.1561C86.7345 29.5936 87.1759 28.6874 87.3009 27.4374H88.9884C88.9259 28.203 88.7462 28.9061 88.4493 29.5468C88.1525 30.1796 87.7501 30.7147 87.2423 31.1522C86.7423 31.5897 86.1447 31.9335 85.4493 32.1835C84.7618 32.4335 84.004 32.5585 83.1759 32.5585C81.0665 32.5585 79.4572 31.8475 78.3478 30.4257C77.2462 28.996 76.6954 26.9139 76.6954 24.1796Z" fill="#F5F5F5"/>
<path d="M41.0537 32.0194V31.4286H42.8018V26.6093H41.0537V26.0184H42.8018V25.2177H43.4512V31.4286H45.0039V32.0194H41.0537Z" fill="#F5F5F5"/>
<path d="M11.7668 17.7089C11.7668 17.2141 11.7978 16.7502 11.8596 16.3173C11.9247 15.8843 12.0419 15.5083 12.2112 15.1893C12.3837 14.8671 12.6197 14.6148 12.9192 14.4325C13.2187 14.2502 13.6044 14.1591 14.0764 14.1591C14.5484 14.1591 14.9342 14.2502 15.2336 14.4325C15.5364 14.6148 15.7724 14.8671 15.9417 15.1893C16.1142 15.5083 16.2314 15.8843 16.2932 16.3173C16.3551 16.7502 16.386 17.2141 16.386 17.7089C16.386 18.2037 16.3551 18.6675 16.2932 19.1005C16.2314 19.5302 16.1142 19.9061 15.9417 20.2284C15.7724 20.5474 15.538 20.7997 15.2385 20.9852C14.939 21.1675 14.5517 21.2587 14.0764 21.2587C13.6044 21.2587 13.2187 21.1675 12.9192 20.9852C12.6197 20.7997 12.3837 20.5474 12.2112 20.2284C12.0419 19.9061 11.9247 19.5285 11.8596 19.0956C11.7978 18.6626 11.7668 18.2004 11.7668 17.7089ZM12.5188 19.037C12.5188 19.5383 12.6588 19.9354 12.9387 20.2284C13.2187 20.5214 13.5979 20.6678 14.0764 20.6678C14.5549 20.6678 14.9342 20.5214 15.2141 20.2284C15.4973 19.9354 15.6389 19.5383 15.6389 19.037V16.3759C15.6389 15.8746 15.4989 15.4774 15.219 15.1844C14.939 14.8915 14.5582 14.745 14.0764 14.745C13.5979 14.745 13.2187 14.8931 12.9387 15.1893C12.6588 15.4823 12.5188 15.8778 12.5188 16.3759V19.037Z" fill="#F5F5F5"/>
<path d="M26.144 17.7089C26.144 17.2141 26.175 16.7502 26.2368 16.3173C26.3019 15.8843 26.4191 15.5083 26.5884 15.1893C26.7609 14.8671 26.9969 14.6148 27.2964 14.4325C27.5959 14.2502 27.9816 14.1591 28.4536 14.1591C28.9256 14.1591 29.3114 14.2502 29.6108 14.4325C29.9136 14.6148 30.1496 14.8671 30.3188 15.1893C30.4914 15.5083 30.6086 15.8843 30.6704 16.3173C30.7323 16.7502 30.7632 17.2141 30.7632 17.7089C30.7632 18.2037 30.7323 18.6675 30.6704 19.1005C30.6086 19.5302 30.4914 19.9061 30.3188 20.2284C30.1496 20.5474 29.9152 20.7997 29.6157 20.9852C29.3162 21.1675 28.9289 21.2587 28.4536 21.2587C27.9816 21.2587 27.5959 21.1675 27.2964 20.9852C26.9969 20.7997 26.7609 20.5474 26.5884 20.2284C26.4191 19.9061 26.3019 19.5285 26.2368 19.0956C26.175 18.6626 26.144 18.2004 26.144 17.7089ZM26.896 19.037C26.896 19.5383 27.036 19.9354 27.3159 20.2284C27.5959 20.5214 27.9751 20.6678 28.4536 20.6678C28.9321 20.6678 29.3114 20.5214 29.5913 20.2284C29.8745 19.9354 30.0161 19.5383 30.0161 19.037V16.3759C30.0161 15.8746 29.8761 15.4774 29.5962 15.1844C29.3162 14.8915 28.9354 14.745 28.4536 14.745C27.9751 14.745 27.5959 14.8931 27.3159 15.1893C27.036 15.4823 26.896 15.8778 26.896 16.3759V19.037Z" fill="#F5F5F5"/>
<path d="M40.5215 17.7089C40.5215 17.2141 40.5524 16.7502 40.6143 16.3173C40.6794 15.8843 40.7965 15.5083 40.9658 15.1893C41.1383 14.8671 41.3743 14.6148 41.6738 14.4325C41.9733 14.2502 42.359 14.1591 42.8311 14.1591C43.3031 14.1591 43.6888 14.2502 43.9883 14.4325C44.291 14.6148 44.527 14.8671 44.6963 15.1893C44.8688 15.5083 44.986 15.8843 45.0479 16.3173C45.1097 16.7502 45.1406 17.2141 45.1406 17.7089C45.1406 18.2037 45.1097 18.6675 45.0479 19.1005C44.986 19.5302 44.8688 19.9061 44.6963 20.2284C44.527 20.5474 44.2926 20.7997 43.9932 20.9852C43.6937 21.1675 43.3063 21.2587 42.8311 21.2587C42.359 21.2587 41.9733 21.1675 41.6738 20.9852C41.3743 20.7997 41.1383 20.5474 40.9658 20.2284C40.7965 19.9061 40.6794 19.5285 40.6143 19.0956C40.5524 18.6626 40.5215 18.2004 40.5215 17.7089ZM41.2734 19.037C41.2734 19.5383 41.4134 19.9354 41.6934 20.2284C41.9733 20.5214 42.3525 20.6678 42.8311 20.6678C43.3096 20.6678 43.6888 20.5214 43.9688 20.2284C44.252 19.9354 44.3936 19.5383 44.3936 19.037V16.3759C44.3936 15.8746 44.2536 15.4774 43.9736 15.1844C43.6937 14.8915 43.3128 14.745 42.8311 14.745C42.3525 14.745 41.9733 14.8931 41.6934 15.1893C41.4134 15.4823 41.2734 15.8778 41.2734 16.3759V19.037Z" fill="#F5F5F5"/>
<path d="M12.2991 10.1952V9.60437H14.0471V4.78503H12.2991V4.19421H14.0471V3.39343H14.6965V9.60437H16.2493V10.1952H12.2991Z" fill="#F5F5F5"/>
<path d="M26.144 6.79675C26.144 6.30196 26.175 5.83809 26.2368 5.40515C26.3019 4.97221 26.4191 4.59623 26.5884 4.27722C26.7609 3.95496 26.9969 3.70268 27.2964 3.52039C27.5959 3.33809 27.9816 3.24695 28.4536 3.24695C28.9256 3.24695 29.3114 3.33809 29.6108 3.52039C29.9136 3.70268 30.1496 3.95496 30.3188 4.27722C30.4914 4.59623 30.6086 4.97221 30.6704 5.40515C30.7323 5.83809 30.7632 6.30196 30.7632 6.79675C30.7632 7.29154 30.7323 7.75541 30.6704 8.18835C30.6086 8.61804 30.4914 8.99402 30.3188 9.31628C30.1496 9.63529 29.9152 9.88757 29.6157 10.0731C29.3162 10.2554 28.9289 10.3466 28.4536 10.3466C27.9816 10.3466 27.5959 10.2554 27.2964 10.0731C26.9969 9.88757 26.7609 9.63529 26.5884 9.31628C26.4191 8.99402 26.3019 8.61641 26.2368 8.18347C26.175 7.75053 26.144 7.28829 26.144 6.79675ZM26.896 8.12488C26.896 8.62618 27.036 9.02332 27.3159 9.31628C27.5959 9.60925 27.9751 9.75574 28.4536 9.75574C28.9321 9.75574 29.3114 9.60925 29.5913 9.31628C29.8745 9.02332 30.0161 8.62618 30.0161 8.12488V5.46375C30.0161 4.96244 29.8761 4.56531 29.5962 4.27234C29.3162 3.97937 28.9354 3.83289 28.4536 3.83289C27.9751 3.83289 27.5959 3.981 27.3159 4.27722C27.036 4.57019 26.896 4.9657 26.896 5.46375V8.12488Z" fill="#F5F5F5"/>
<path d="M41.0537 10.1952V9.60437H42.8018V4.78503H41.0537V4.19421H42.8018V3.39343H43.4512V9.60437H45.0039V10.1952H41.0537Z" fill="#F5F5F5"/>
<path d="M1.0459 0.167236V121.735" stroke="#F5F5F5" stroke-width="0.75"/>
<path d="M96.0142 0.167236V121.735" stroke="#F5F5F5" stroke-width="0.75"/>
<rect x="58.53" y="101.734" width="20" height="20" fill="#F5F5F5"/>
<rect x="58.53" y="61.7345" width="20" height="20" fill="#F5F5F5"/>
<rect x="18.53" y="61.7345" width="20" height="20" fill="#F5F5F5"/>
</svg>
