<svg width="97" height="122" viewBox="0 0 97 122" fill="none" xmlns="http://www.w3.org/2000/svg">
<path d="M6.88599 35.2781V0.397949H9.06961V1.03339H7.59075V34.6427H9.06961V35.2781H6.88599Z" fill="#F5F5F5"/>
<path d="M50.2795 35.2781V0.397949H48.0959V1.03339H49.5748V34.6427H48.0959V35.2781H50.2795Z" fill="#F5F5F5"/>
<path d="M11.8938 28.8517C11.8938 28.3569 11.9247 27.893 11.9866 27.4601C12.0517 27.0271 12.1689 26.6512 12.3381 26.3322C12.5107 26.0099 12.7467 25.7576 13.0461 25.5753C13.3456 25.393 13.7314 25.3019 14.2034 25.3019C14.6754 25.3019 15.0611 25.393 15.3606 25.5753C15.6633 25.7576 15.8993 26.0099 16.0686 26.3322C16.2411 26.6512 16.3583 27.0271 16.4202 27.4601C16.482 27.893 16.5129 28.3569 16.5129 28.8517C16.5129 29.3465 16.482 29.8103 16.4202 30.2433C16.3583 30.673 16.2411 31.049 16.0686 31.3712C15.8993 31.6902 15.665 31.9425 15.3655 32.1281C15.066 32.3103 14.6786 32.4015 14.2034 32.4015C13.7314 32.4015 13.3456 32.3103 13.0461 32.1281C12.7467 31.9425 12.5107 31.6902 12.3381 31.3712C12.1689 31.049 12.0517 30.6713 11.9866 30.2384C11.9247 29.8055 11.8938 29.3432 11.8938 28.8517ZM12.6458 30.1798C12.6458 30.6811 12.7857 31.0782 13.0657 31.3712C13.3456 31.6642 13.7249 31.8107 14.2034 31.8107C14.6819 31.8107 15.0611 31.6642 15.3411 31.3712C15.6243 31.0782 15.7659 30.6811 15.7659 30.1798V27.5187C15.7659 27.0174 15.6259 26.6202 15.3459 26.3273C15.066 26.0343 14.6851 25.8878 14.2034 25.8878C13.7249 25.8878 13.3456 26.0359 13.0657 26.3322C12.7857 26.6251 12.6458 27.0206 12.6458 27.5187V30.1798Z" fill="#F5F5F5"/>
<path d="M26.271 28.8517C26.271 28.3569 26.3019 27.893 26.3638 27.4601C26.4289 27.0271 26.5461 26.6512 26.7153 26.3322C26.8879 26.0099 27.1239 25.7576 27.4233 25.5753C27.7228 25.393 28.1086 25.3019 28.5806 25.3019C29.0526 25.3019 29.4383 25.393 29.7378 25.5753C30.0405 25.7576 30.2765 26.0099 30.4458 26.3322C30.6183 26.6512 30.7355 27.0271 30.7974 27.4601C30.8592 27.893 30.8901 28.3569 30.8901 28.8517C30.8901 29.3465 30.8592 29.8103 30.7974 30.2433C30.7355 30.673 30.6183 31.049 30.4458 31.3712C30.2765 31.6902 30.0422 31.9425 29.7427 32.1281C29.4432 32.3103 29.0558 32.4015 28.5806 32.4015C28.1086 32.4015 27.7228 32.3103 27.4233 32.1281C27.1239 31.9425 26.8879 31.6902 26.7153 31.3712C26.5461 31.049 26.4289 30.6713 26.3638 30.2384C26.3019 29.8055 26.271 29.3432 26.271 28.8517ZM27.0229 30.1798C27.0229 30.6811 27.1629 31.0782 27.4429 31.3712C27.7228 31.6642 28.1021 31.8107 28.5806 31.8107C29.0591 31.8107 29.4383 31.6642 29.7183 31.3712C30.0015 31.0782 30.1431 30.6811 30.1431 30.1798V27.5187C30.1431 27.0174 30.0031 26.6202 29.7231 26.3273C29.4432 26.0343 29.0623 25.8878 28.5806 25.8878C28.1021 25.8878 27.7228 26.0359 27.4429 26.3322C27.1629 26.6251 27.0229 27.0206 27.0229 27.5187V30.1798Z" fill="#F5F5F5"/>
<path d="M86.4669 32.4259V30.3868H88.506V32.4259H86.4669ZM86.4669 22.2306V20.1915H88.506V22.2306H86.4669Z" fill="#F5F5F5"/>
<path d="M41.1807 32.2501V31.6593H42.9287V26.84H41.1807V26.2491H42.9287V25.4484H43.5781V31.6593H45.1309V32.2501H41.1807Z" fill="#F5F5F5"/>
<path d="M11.8938 17.9396C11.8938 17.4448 11.9247 16.9809 11.9866 16.548C12.0517 16.115 12.1689 15.7391 12.3381 15.42C12.5107 15.0978 12.7467 14.8455 13.0461 14.6632C13.3456 14.4809 13.7314 14.3898 14.2034 14.3898C14.6754 14.3898 15.0611 14.4809 15.3606 14.6632C15.6633 14.8455 15.8993 15.0978 16.0686 15.42C16.2411 15.7391 16.3583 16.115 16.4202 16.548C16.482 16.9809 16.5129 17.4448 16.5129 17.9396C16.5129 18.4344 16.482 18.8982 16.4202 19.3312C16.3583 19.7609 16.2411 20.1368 16.0686 20.4591C15.8993 20.7781 15.665 21.0304 15.3655 21.2159C15.066 21.3982 14.6786 21.4894 14.2034 21.4894C13.7314 21.4894 13.3456 21.3982 13.0461 21.2159C12.7467 21.0304 12.5107 20.7781 12.3381 20.4591C12.1689 20.1368 12.0517 19.7592 11.9866 19.3263C11.9247 18.8934 11.8938 18.4311 11.8938 17.9396ZM12.6458 19.2677C12.6458 19.769 12.7857 20.1661 13.0657 20.4591C13.3456 20.7521 13.7249 20.8986 14.2034 20.8986C14.6819 20.8986 15.0611 20.7521 15.3411 20.4591C15.6243 20.1661 15.7659 19.769 15.7659 19.2677V16.6066C15.7659 16.1053 15.6259 15.7081 15.3459 15.4152C15.066 15.1222 14.6851 14.9757 14.2034 14.9757C13.7249 14.9757 13.3456 15.1238 13.0657 15.42C12.7857 15.713 12.6458 16.1085 12.6458 16.6066V19.2677Z" fill="#F5F5F5"/>
<path d="M26.271 17.9396C26.271 17.4448 26.3019 16.9809 26.3638 16.548C26.4289 16.115 26.5461 15.7391 26.7153 15.42C26.8879 15.0978 27.1239 14.8455 27.4233 14.6632C27.7228 14.4809 28.1086 14.3898 28.5806 14.3898C29.0526 14.3898 29.4383 14.4809 29.7378 14.6632C30.0405 14.8455 30.2765 15.0978 30.4458 15.42C30.6183 15.7391 30.7355 16.115 30.7974 16.548C30.8592 16.9809 30.8901 17.4448 30.8901 17.9396C30.8901 18.4344 30.8592 18.8982 30.7974 19.3312C30.7355 19.7609 30.6183 20.1368 30.4458 20.4591C30.2765 20.7781 30.0422 21.0304 29.7427 21.2159C29.4432 21.3982 29.0558 21.4894 28.5806 21.4894C28.1086 21.4894 27.7228 21.3982 27.4233 21.2159C27.1239 21.0304 26.8879 20.7781 26.7153 20.4591C26.5461 20.1368 26.4289 19.7592 26.3638 19.3263C26.3019 18.8934 26.271 18.4311 26.271 17.9396ZM27.0229 19.2677C27.0229 19.769 27.1629 20.1661 27.4429 20.4591C27.7228 20.7521 28.1021 20.8986 28.5806 20.8986C29.0591 20.8986 29.4383 20.7521 29.7183 20.4591C30.0015 20.1661 30.1431 19.769 30.1431 19.2677V16.6066C30.1431 16.1053 30.0031 15.7081 29.7231 15.4152C29.4432 15.1222 29.0623 14.9757 28.5806 14.9757C28.1021 14.9757 27.7228 15.1238 27.4429 15.42C27.1629 15.713 27.0229 16.1085 27.0229 16.6066V19.2677Z" fill="#F5F5F5"/>
<path d="M40.6484 17.9396C40.6484 17.4448 40.6794 16.9809 40.7412 16.548C40.8063 16.115 40.9235 15.7391 41.0928 15.42C41.2653 15.0978 41.5013 14.8455 41.8008 14.6632C42.1003 14.4809 42.486 14.3898 42.958 14.3898C43.43 14.3898 43.8158 14.4809 44.1152 14.6632C44.418 14.8455 44.654 15.0978 44.8232 15.42C44.9958 15.7391 45.113 16.115 45.1748 16.548C45.2367 16.9809 45.2676 17.4448 45.2676 17.9396C45.2676 18.4344 45.2367 18.8982 45.1748 19.3312C45.113 19.7609 44.9958 20.1368 44.8232 20.4591C44.654 20.7781 44.4196 21.0304 44.1201 21.2159C43.8206 21.3982 43.4333 21.4894 42.958 21.4894C42.486 21.4894 42.1003 21.3982 41.8008 21.2159C41.5013 21.0304 41.2653 20.7781 41.0928 20.4591C40.9235 20.1368 40.8063 19.7592 40.7412 19.3263C40.6794 18.8934 40.6484 18.4311 40.6484 17.9396ZM41.4004 19.2677C41.4004 19.769 41.5404 20.1661 41.8203 20.4591C42.1003 20.7521 42.4795 20.8986 42.958 20.8986C43.4365 20.8986 43.8158 20.7521 44.0957 20.4591C44.3789 20.1661 44.5205 19.769 44.5205 19.2677V16.6066C44.5205 16.1053 44.3805 15.7081 44.1006 15.4152C43.8206 15.1222 43.4398 14.9757 42.958 14.9757C42.4795 14.9757 42.1003 15.1238 41.8203 15.42C41.5404 15.713 41.4004 16.1085 41.4004 16.6066V19.2677Z" fill="#F5F5F5"/>
<path d="M11.8938 7.02747C11.8938 6.53267 11.9247 6.06881 11.9866 5.63586C12.0517 5.20292 12.1689 4.82694 12.3381 4.50793C12.5107 4.18567 12.7467 3.93339 13.0461 3.7511C13.3456 3.56881 13.7314 3.47766 14.2034 3.47766C14.6754 3.47766 15.0611 3.56881 15.3606 3.7511C15.6633 3.93339 15.8993 4.18567 16.0686 4.50793C16.2411 4.82694 16.3583 5.20292 16.4202 5.63586C16.482 6.06881 16.5129 6.53267 16.5129 7.02747C16.5129 7.52226 16.482 7.98612 16.4202 8.41907C16.3583 8.84875 16.2411 9.22473 16.0686 9.547C15.8993 9.86601 15.665 10.1183 15.3655 10.3038C15.066 10.4861 14.6786 10.5773 14.2034 10.5773C13.7314 10.5773 13.3456 10.4861 13.0461 10.3038C12.7467 10.1183 12.5107 9.86601 12.3381 9.547C12.1689 9.22473 12.0517 8.84713 11.9866 8.41418C11.9247 7.98124 11.8938 7.519 11.8938 7.02747ZM12.6458 8.35559C12.6458 8.85689 12.7857 9.25403 13.0657 9.547C13.3456 9.83997 13.7249 9.98645 14.2034 9.98645C14.6819 9.98645 15.0611 9.83997 15.3411 9.547C15.6243 9.25403 15.7659 8.85689 15.7659 8.35559V5.69446C15.7659 5.19316 15.6259 4.79602 15.3459 4.50305C15.066 4.21008 14.6851 4.0636 14.2034 4.0636C13.7249 4.0636 13.3456 4.21171 13.0657 4.50793C12.7857 4.8009 12.6458 5.19641 12.6458 5.69446V8.35559Z" fill="#F5F5F5"/>
<path d="M26.8032 10.4259V9.83508H28.5513V5.01575H26.8032V4.42493H28.5513V3.62415H29.2007V9.83508H30.7534V10.4259H26.8032Z" fill="#F5F5F5"/>
<path d="M40.6484 7.02747C40.6484 6.53267 40.6794 6.06881 40.7412 5.63586C40.8063 5.20292 40.9235 4.82694 41.0928 4.50793C41.2653 4.18567 41.5013 3.93339 41.8008 3.7511C42.1003 3.56881 42.486 3.47766 42.958 3.47766C43.43 3.47766 43.8158 3.56881 44.1152 3.7511C44.418 3.93339 44.654 4.18567 44.8232 4.50793C44.9958 4.82694 45.113 5.20292 45.1748 5.63586C45.2367 6.06881 45.2676 6.53267 45.2676 7.02747C45.2676 7.52226 45.2367 7.98612 45.1748 8.41907C45.113 8.84875 44.9958 9.22473 44.8232 9.547C44.654 9.86601 44.4196 10.1183 44.1201 10.3038C43.8206 10.4861 43.4333 10.5773 42.958 10.5773C42.486 10.5773 42.1003 10.4861 41.8008 10.3038C41.5013 10.1183 41.2653 9.86601 41.0928 9.547C40.9235 9.22473 40.8063 8.84713 40.7412 8.41418C40.6794 7.98124 40.6484 7.519 40.6484 7.02747ZM41.4004 8.35559C41.4004 8.85689 41.5404 9.25403 41.8203 9.547C42.1003 9.83997 42.4795 9.98645 42.958 9.98645C43.4365 9.98645 43.8158 9.83997 44.0957 9.547C44.3789 9.25403 44.5205 8.85689 44.5205 8.35559V5.69446C44.5205 5.19316 44.3805 4.79602 44.1006 4.50305C43.8206 4.21008 43.4398 4.0636 42.958 4.0636C42.4795 4.0636 42.1003 4.21171 41.8203 4.50793C41.5404 4.8009 41.4004 5.19641 41.4004 5.69446V8.35559Z" fill="#F5F5F5"/>
<path d="M1.17285 0.397949V121.965" stroke="#F5F5F5" stroke-width="0.75"/>
<path d="M96.1411 0.397949V121.965" stroke="#F5F5F5" stroke-width="0.75"/>
<rect x="58.6943" y="101.965" width="20" height="20" fill="#F5F5F5"/>
<rect x="38.6943" y="61.9652" width="20" height="20" fill="#F5F5F5"/>
</svg>
