<svg width="97" height="122" viewBox="0 0 97 122" fill="none" xmlns="http://www.w3.org/2000/svg">
<path d="M6.85425 35.2781V0.397949H9.03787V1.03339H7.55901V34.6427H9.03787V35.2781H6.85425Z" fill="#F5F5F5"/>
<path d="M50.2478 35.2781V0.397949H48.0642V1.03339H49.543V34.6427H48.0642V35.2781H50.2478Z" fill="#F5F5F5"/>
<path d="M11.8621 28.8517C11.8621 28.3569 11.893 27.893 11.9548 27.4601C12.0199 27.0271 12.1371 26.6512 12.3064 26.3322C12.4789 26.0099 12.7149 25.7576 13.0144 25.5753C13.3139 25.393 13.6996 25.3019 14.1716 25.3019C14.6436 25.3019 15.0294 25.393 15.3289 25.5753C15.6316 25.7576 15.8676 26.0099 16.0369 26.3322C16.2094 26.6512 16.3266 27.0271 16.3884 27.4601C16.4503 27.893 16.4812 28.3569 16.4812 28.8517C16.4812 29.3465 16.4503 29.8103 16.3884 30.2433C16.3266 30.673 16.2094 31.049 16.0369 31.3712C15.8676 31.6902 15.6332 31.9425 15.3337 32.1281C15.0343 32.3103 14.6469 32.4015 14.1716 32.4015C13.6996 32.4015 13.3139 32.3103 13.0144 32.1281C12.7149 31.9425 12.4789 31.6902 12.3064 31.3712C12.1371 31.049 12.0199 30.6713 11.9548 30.2384C11.893 29.8055 11.8621 29.3432 11.8621 28.8517ZM12.614 30.1798C12.614 30.6811 12.754 31.0782 13.0339 31.3712C13.3139 31.6642 13.6931 31.8107 14.1716 31.8107C14.6501 31.8107 15.0294 31.6642 15.3093 31.3712C15.5925 31.0782 15.7341 30.6811 15.7341 30.1798V27.5187C15.7341 27.0174 15.5942 26.6202 15.3142 26.3273C15.0343 26.0343 14.6534 25.8878 14.1716 25.8878C13.6931 25.8878 13.3139 26.0359 13.0339 26.3322C12.754 26.6251 12.614 27.0206 12.614 27.5187V30.1798Z" fill="#F5F5F5"/>
<path d="M26.7715 32.2501V31.6593H28.5195V26.84H26.7715V26.2491H28.5195V25.4484H29.1689V31.6593H30.7217V32.2501H26.7715Z" fill="#F5F5F5"/>
<path d="M78.0328 32.4259V16.1017H84.1969C85.8922 16.1017 87.0875 16.5001 87.7828 17.297C88.4781 18.0861 88.8258 19.2072 88.8258 20.6603C88.8258 22.129 88.4821 23.2267 87.7946 23.9532C87.1071 24.672 86.1735 25.1134 84.9938 25.2775L88.8492 32.4259H86.9391L83.1656 25.3243H79.7086V32.4259H78.0328ZM79.7086 23.8361H84.7477C85.4196 23.8361 85.9664 23.6447 86.3883 23.2618C86.818 22.879 87.0328 22.3478 87.0328 21.6681V19.6876C87.0328 19.0157 86.818 18.5118 86.3883 18.1759C85.9664 17.8322 85.4196 17.6603 84.7477 17.6603H79.7086V23.8361Z" fill="#F5F5F5"/>
<path d="M40.6167 28.8517C40.6167 28.3569 40.6476 27.893 40.7095 27.4601C40.7746 27.0271 40.8918 26.6512 41.061 26.3322C41.2336 26.0099 41.4696 25.7576 41.769 25.5753C42.0685 25.393 42.4543 25.3019 42.9263 25.3019C43.3983 25.3019 43.784 25.393 44.0835 25.5753C44.3862 25.7576 44.6222 26.0099 44.7915 26.3322C44.964 26.6512 45.0812 27.0271 45.1431 27.4601C45.2049 27.893 45.2358 28.3569 45.2358 28.8517C45.2358 29.3465 45.2049 29.8103 45.1431 30.2433C45.0812 30.673 44.964 31.049 44.7915 31.3712C44.6222 31.6902 44.3879 31.9425 44.0884 32.1281C43.7889 32.3103 43.4015 32.4015 42.9263 32.4015C42.4543 32.4015 42.0685 32.3103 41.769 32.1281C41.4696 31.9425 41.2336 31.6902 41.061 31.3712C40.8918 31.049 40.7746 30.6713 40.7095 30.2384C40.6476 29.8055 40.6167 29.3432 40.6167 28.8517ZM41.3687 30.1798C41.3687 30.6811 41.5086 31.0782 41.7886 31.3712C42.0685 31.6642 42.4478 31.8107 42.9263 31.8107C43.4048 31.8107 43.784 31.6642 44.064 31.3712C44.3472 31.0782 44.4888 30.6811 44.4888 30.1798V27.5187C44.4888 27.0174 44.3488 26.6202 44.0688 26.3273C43.7889 26.0343 43.408 25.8878 42.9263 25.8878C42.4478 25.8878 42.0685 26.0359 41.7886 26.3322C41.5086 26.6251 41.3687 27.0206 41.3687 27.5187V30.1798Z" fill="#F5F5F5"/>
<path d="M12.3943 21.338V20.7472H14.1423V15.9279H12.3943V15.337H14.1423V14.5363H14.7917V20.7472H16.3445V21.338H12.3943Z" fill="#F5F5F5"/>
<path d="M26.2393 17.9396C26.2393 17.4448 26.2702 16.9809 26.332 16.548C26.3971 16.115 26.5143 15.7391 26.6836 15.42C26.8561 15.0978 27.0921 14.8455 27.3916 14.6632C27.6911 14.4809 28.0768 14.3898 28.5488 14.3898C29.0208 14.3898 29.4066 14.4809 29.7061 14.6632C30.0088 14.8455 30.2448 15.0978 30.4141 15.42C30.5866 15.7391 30.7038 16.115 30.7656 16.548C30.8275 16.9809 30.8584 17.4448 30.8584 17.9396C30.8584 18.4344 30.8275 18.8982 30.7656 19.3312C30.7038 19.7609 30.5866 20.1368 30.4141 20.4591C30.2448 20.7781 30.0104 21.0304 29.7109 21.2159C29.4115 21.3982 29.0241 21.4894 28.5488 21.4894C28.0768 21.4894 27.6911 21.3982 27.3916 21.2159C27.0921 21.0304 26.8561 20.7781 26.6836 20.4591C26.5143 20.1368 26.3971 19.7592 26.332 19.3263C26.2702 18.8934 26.2393 18.4311 26.2393 17.9396ZM26.9912 19.2677C26.9912 19.769 27.1312 20.1661 27.4111 20.4591C27.6911 20.7521 28.0703 20.8986 28.5488 20.8986C29.0273 20.8986 29.4066 20.7521 29.6865 20.4591C29.9697 20.1661 30.1113 19.769 30.1113 19.2677V16.6066C30.1113 16.1053 29.9714 15.7081 29.6914 15.4152C29.4115 15.1222 29.0306 14.9757 28.5488 14.9757C28.0703 14.9757 27.6911 15.1238 27.4111 15.42C27.1312 15.713 26.9912 16.1085 26.9912 16.6066V19.2677Z" fill="#F5F5F5"/>
<path d="M41.1489 21.338V20.7472H42.897V15.9279H41.1489V15.337H42.897V14.5363H43.5464V20.7472H45.0991V21.338H41.1489Z" fill="#F5F5F5"/>
<path d="M12.3943 10.4259V9.83508H14.1423V5.01575H12.3943V4.42493H14.1423V3.62415H14.7917V9.83508H16.3445V10.4259H12.3943Z" fill="#F5F5F5"/>
<path d="M26.7715 10.4259V9.83508H28.5195V5.01575H26.7715V4.42493H28.5195V3.62415H29.1689V9.83508H30.7217V10.4259H26.7715Z" fill="#F5F5F5"/>
<path d="M41.1489 10.4259V9.83508H42.897V5.01575H41.1489V4.42493H42.897V3.62415H43.5464V9.83508H45.0991V10.4259H41.1489Z" fill="#F5F5F5"/>
<path d="M1.14111 0.397949V121.965" stroke="#F5F5F5" stroke-width="0.75"/>
<path d="M96.1094 0.397949V121.965" stroke="#F5F5F5" stroke-width="0.75"/>
<rect x="58.6252" y="81.9652" width="20" height="20" fill="#F5F5F5"/>
<rect x="58.6252" y="61.9652" width="20" height="20" fill="#F5F5F5"/>
<rect x="38.6252" y="61.9652" width="20" height="20" fill="#F5F5F5"/>
<rect x="18.6252" y="61.9652" width="20" height="20" fill="#F5F5F5"/>
<rect x="18.6252" y="81.9652" width="20" height="20" fill="#F5F5F5"/>
<rect x="38.6252" y="101.965" width="20" height="20" fill="#F5F5F5"/>
</svg>
