<svg width="97" height="122" viewBox="0 0 97 122" fill="none" xmlns="http://www.w3.org/2000/svg">
<path d="M6.91772 35.0545V0.174316H9.10135V0.809762H7.62249V34.419H9.10135V35.0545H6.91772Z" fill="#F5F5F5"/>
<path d="M50.3113 35.0545V0.174316H48.1277V0.809762H49.6065V34.419H48.1277V35.0545H50.3113Z" fill="#F5F5F5"/>
<path d="M11.9255 28.6281C11.9255 28.1333 11.9565 27.6694 12.0183 27.2365C12.0834 26.8035 12.2006 26.4275 12.3699 26.1085C12.5424 25.7863 12.7784 25.534 13.0779 25.3517C13.3774 25.1694 13.7631 25.0782 14.2351 25.0782C14.7071 25.0782 15.0929 25.1694 15.3923 25.3517C15.6951 25.534 15.9311 25.7863 16.1003 26.1085C16.2729 26.4275 16.3901 26.8035 16.4519 27.2365C16.5138 27.6694 16.5447 28.1333 16.5447 28.6281C16.5447 29.1228 16.5138 29.5867 16.4519 30.0197C16.3901 30.4493 16.2729 30.8253 16.1003 31.1476C15.9311 31.4666 15.6967 31.7189 15.3972 31.9044C15.0977 32.0867 14.7104 32.1779 14.2351 32.1779C13.7631 32.1779 13.3774 32.0867 13.0779 31.9044C12.7784 31.7189 12.5424 31.4666 12.3699 31.1476C12.2006 30.8253 12.0834 30.4477 12.0183 30.0148C11.9565 29.5818 11.9255 29.1196 11.9255 28.6281ZM12.6775 29.9562C12.6775 30.4575 12.8175 30.8546 13.0974 31.1476C13.3774 31.4406 13.7566 31.587 14.2351 31.587C14.7136 31.587 15.0929 31.4406 15.3728 31.1476C15.656 30.8546 15.7976 30.4575 15.7976 29.9562V27.295C15.7976 26.7937 15.6576 26.3966 15.3777 26.1036C15.0977 25.8107 14.7169 25.6642 14.2351 25.6642C13.7566 25.6642 13.3774 25.8123 13.0974 26.1085C12.8175 26.4015 12.6775 26.797 12.6775 27.295V29.9562Z" fill="#F5F5F5"/>
<path d="M26.3027 28.6281C26.3027 28.1333 26.3337 27.6694 26.3955 27.2365C26.4606 26.8035 26.5778 26.4275 26.7471 26.1085C26.9196 25.7863 27.1556 25.534 27.4551 25.3517C27.7546 25.1694 28.1403 25.0782 28.6123 25.0782C29.0843 25.0782 29.4701 25.1694 29.7695 25.3517C30.0723 25.534 30.3083 25.7863 30.4775 26.1085C30.6501 26.4275 30.7673 26.8035 30.8291 27.2365C30.891 27.6694 30.9219 28.1333 30.9219 28.6281C30.9219 29.1228 30.891 29.5867 30.8291 30.0197C30.7673 30.4493 30.6501 30.8253 30.4775 31.1476C30.3083 31.4666 30.0739 31.7189 29.7744 31.9044C29.4749 32.0867 29.0876 32.1779 28.6123 32.1779C28.1403 32.1779 27.7546 32.0867 27.4551 31.9044C27.1556 31.7189 26.9196 31.4666 26.7471 31.1476C26.5778 30.8253 26.4606 30.4477 26.3955 30.0148C26.3337 29.5818 26.3027 29.1196 26.3027 28.6281ZM27.0547 29.9562C27.0547 30.4575 27.1947 30.8546 27.4746 31.1476C27.7546 31.4406 28.1338 31.587 28.6123 31.587C29.0908 31.587 29.4701 31.4406 29.75 31.1476C30.0332 30.8546 30.1748 30.4575 30.1748 29.9562V27.295C30.1748 26.7937 30.0348 26.3966 29.7549 26.1036C29.4749 25.8107 29.0941 25.6642 28.6123 25.6642C28.1338 25.6642 27.7546 25.8123 27.4746 26.1085C27.1947 26.4015 27.0547 26.797 27.0547 27.295V29.9562Z" fill="#F5F5F5"/>
<path d="M76.4205 26.3898V15.8781H78.108V26.5656C78.108 27.2374 78.2096 27.8507 78.4127 28.4054C78.6237 28.9523 78.9166 29.421 79.2916 29.8116C79.6666 30.2023 80.108 30.5031 80.6158 30.714C81.1315 30.9249 81.7018 31.0304 82.3268 31.0304C82.9518 31.0304 83.5221 30.9249 84.0377 30.714C84.5612 30.5031 85.0104 30.2062 85.3854 29.8234C85.7682 29.4406 86.0612 28.9757 86.2643 28.4288C86.4752 27.8741 86.5807 27.2531 86.5807 26.5656V15.8781H88.233V26.3898C88.233 27.3507 88.0885 28.214 87.7994 28.9796C87.5104 29.7374 87.1041 30.382 86.5807 30.9132C86.0651 31.4366 85.444 31.8429 84.7174 32.132C83.9908 32.421 83.194 32.5656 82.3268 32.5656C81.4596 32.5656 80.6627 32.421 79.9362 32.132C79.2096 31.8429 78.5846 31.4366 78.0612 30.9132C77.5455 30.382 77.1432 29.7374 76.8541 28.9796C76.5651 28.214 76.4205 27.3507 76.4205 26.3898ZM79.8658 11.3546H81.6823L83.651 14.2726H82.3854L79.8658 11.3546Z" fill="#F5F5F5"/>
<path d="M40.6802 28.6281C40.6802 28.1333 40.7111 27.6694 40.7729 27.2365C40.8381 26.8035 40.9552 26.4275 41.1245 26.1085C41.297 25.7863 41.533 25.534 41.8325 25.3517C42.132 25.1694 42.5177 25.0782 42.9897 25.0782C43.4618 25.0782 43.8475 25.1694 44.147 25.3517C44.4497 25.534 44.6857 25.7863 44.855 26.1085C45.0275 26.4275 45.1447 26.8035 45.2065 27.2365C45.2684 27.6694 45.2993 28.1333 45.2993 28.6281C45.2993 29.1228 45.2684 29.5867 45.2065 30.0197C45.1447 30.4493 45.0275 30.8253 44.855 31.1476C44.6857 31.4666 44.4513 31.7189 44.1519 31.9044C43.8524 32.0867 43.465 32.1779 42.9897 32.1779C42.5177 32.1779 42.132 32.0867 41.8325 31.9044C41.533 31.7189 41.297 31.4666 41.1245 31.1476C40.9552 30.8253 40.8381 30.4477 40.7729 30.0148C40.7111 29.5818 40.6802 29.1196 40.6802 28.6281ZM41.4321 29.9562C41.4321 30.4575 41.5721 30.8546 41.8521 31.1476C42.132 31.4406 42.5112 31.587 42.9897 31.587C43.4683 31.587 43.8475 31.4406 44.1274 31.1476C44.4106 30.8546 44.5522 30.4575 44.5522 29.9562V27.295C44.5522 26.7937 44.4123 26.3966 44.1323 26.1036C43.8524 25.8107 43.4715 25.6642 42.9897 25.6642C42.5112 25.6642 42.132 25.8123 41.8521 26.1085C41.5721 26.4015 41.4321 26.797 41.4321 27.295V29.9562Z" fill="#F5F5F5"/>
<path d="M12.4578 21.1144V20.5236H14.2058V15.7042H12.4578V15.1134H14.2058V14.3126H14.8552V20.5236H16.408V21.1144H12.4578Z" fill="#F5F5F5"/>
<path d="M26.835 21.1144V20.5236H28.583V15.7042H26.835V15.1134H28.583V14.3126H29.2324V20.5236H30.7852V21.1144H26.835Z" fill="#F5F5F5"/>
<path d="M41.2124 21.1144V20.5236H42.9604V15.7042H41.2124V15.1134H42.9604V14.3126H43.6099V20.5236H45.1626V21.1144H41.2124Z" fill="#F5F5F5"/>
<path d="M11.9255 6.80383C11.9255 6.30904 11.9565 5.84517 12.0183 5.41223C12.0834 4.97929 12.2006 4.60331 12.3699 4.2843C12.5424 3.96204 12.7784 3.70976 13.0779 3.52747C13.3774 3.34517 13.7631 3.25403 14.2351 3.25403C14.7071 3.25403 15.0929 3.34517 15.3923 3.52747C15.6951 3.70976 15.9311 3.96204 16.1003 4.2843C16.2729 4.60331 16.3901 4.97929 16.4519 5.41223C16.5138 5.84517 16.5447 6.30904 16.5447 6.80383C16.5447 7.29862 16.5138 7.76249 16.4519 8.19543C16.3901 8.62512 16.2729 9.0011 16.1003 9.32336C15.9311 9.64237 15.6967 9.89465 15.3972 10.0802C15.0977 10.2625 14.7104 10.3536 14.2351 10.3536C13.7631 10.3536 13.3774 10.2625 13.0779 10.0802C12.7784 9.89465 12.5424 9.64237 12.3699 9.32336C12.2006 9.0011 12.0834 8.62349 12.0183 8.19055C11.9565 7.75761 11.9255 7.29537 11.9255 6.80383ZM12.6775 8.13196C12.6775 8.63326 12.8175 9.0304 13.0974 9.32336C13.3774 9.61633 13.7566 9.76282 14.2351 9.76282C14.7136 9.76282 15.0929 9.61633 15.3728 9.32336C15.656 9.0304 15.7976 8.63326 15.7976 8.13196V5.47083C15.7976 4.96952 15.6576 4.57239 15.3777 4.27942C15.0977 3.98645 14.7169 3.83997 14.2351 3.83997C13.7566 3.83997 13.3774 3.98808 13.0974 4.2843C12.8175 4.57727 12.6775 4.97278 12.6775 5.47083V8.13196Z" fill="#F5F5F5"/>
<path d="M26.835 10.2023V9.61145H28.583V4.79211H26.835V4.20129H28.583V3.40051H29.2324V9.61145H30.7852V10.2023H26.835Z" fill="#F5F5F5"/>
<path d="M40.6802 6.80383C40.6802 6.30904 40.7111 5.84517 40.7729 5.41223C40.8381 4.97929 40.9552 4.60331 41.1245 4.2843C41.297 3.96204 41.533 3.70976 41.8325 3.52747C42.132 3.34517 42.5177 3.25403 42.9897 3.25403C43.4618 3.25403 43.8475 3.34517 44.147 3.52747C44.4497 3.70976 44.6857 3.96204 44.855 4.2843C45.0275 4.60331 45.1447 4.97929 45.2065 5.41223C45.2684 5.84517 45.2993 6.30904 45.2993 6.80383C45.2993 7.29862 45.2684 7.76249 45.2065 8.19543C45.1447 8.62512 45.0275 9.0011 44.855 9.32336C44.6857 9.64237 44.4513 9.89465 44.1519 10.0802C43.8524 10.2625 43.465 10.3536 42.9897 10.3536C42.5177 10.3536 42.132 10.2625 41.8325 10.0802C41.533 9.89465 41.297 9.64237 41.1245 9.32336C40.9552 9.0011 40.8381 8.62349 40.7729 8.19055C40.7111 7.75761 40.6802 7.29537 40.6802 6.80383ZM41.4321 8.13196C41.4321 8.63326 41.5721 9.0304 41.8521 9.32336C42.132 9.61633 42.5112 9.76282 42.9897 9.76282C43.4683 9.76282 43.8475 9.61633 44.1274 9.32336C44.4106 9.0304 44.5522 8.63326 44.5522 8.13196V5.47083C44.5522 4.96952 44.4123 4.57239 44.1323 4.27942C43.8524 3.98645 43.4715 3.83997 42.9897 3.83997C42.5112 3.83997 42.132 3.98808 41.8521 4.2843C41.5721 4.57727 41.4321 4.97278 41.4321 5.47083V8.13196Z" fill="#F5F5F5"/>
<path d="M1.20459 0.174316V121.742" stroke="#F5F5F5" stroke-width="0.75"/>
<path d="M96.1729 0.174316V121.742" stroke="#F5F5F5" stroke-width="0.75"/>
<rect x="38.7261" y="81.7417" width="20" height="20" fill="#F5F5F5"/>
<rect x="18.7261" y="81.7417" width="20" height="20" fill="#F5F5F5"/>
<rect x="58.7261" y="81.7416" width="20" height="20" fill="#F5F5F5"/>
<rect x="38.7261" y="61.7416" width="20" height="20" fill="#F5F5F5"/>
</svg>
