<svg width="97" height="122" viewBox="0 0 97 122" fill="none" xmlns="http://www.w3.org/2000/svg">
<path d="M6.82251 35.0545V0.174316H9.00613V0.809762H7.52728V34.419H9.00613V35.0545H6.82251Z" fill="#F5F5F5"/>
<path d="M50.2161 35.0545V0.174316H48.0324V0.809762H49.5113V34.419H48.0324V35.0545H50.2161Z" fill="#F5F5F5"/>
<path d="M11.8303 28.6281C11.8303 28.1333 11.8612 27.6694 11.9231 27.2365C11.9882 26.8035 12.1054 26.4275 12.2747 26.1085C12.4472 25.7863 12.6832 25.534 12.9827 25.3517C13.2821 25.1694 13.6679 25.0782 14.1399 25.0782C14.6119 25.0782 14.9976 25.1694 15.2971 25.3517C15.5999 25.534 15.8359 25.7863 16.0051 26.1085C16.1777 26.4275 16.2948 26.8035 16.3567 27.2365C16.4185 27.6694 16.4495 28.1333 16.4495 28.6281C16.4495 29.1228 16.4185 29.5867 16.3567 30.0197C16.2948 30.4493 16.1777 30.8253 16.0051 31.1476C15.8359 31.4666 15.6015 31.7189 15.302 31.9044C15.0025 32.0867 14.6152 32.1779 14.1399 32.1779C13.6679 32.1779 13.2821 32.0867 12.9827 31.9044C12.6832 31.7189 12.4472 31.4666 12.2747 31.1476C12.1054 30.8253 11.9882 30.4477 11.9231 30.0148C11.8612 29.5818 11.8303 29.1196 11.8303 28.6281ZM12.5823 29.9562C12.5823 30.4575 12.7222 30.8546 13.0022 31.1476C13.2821 31.4406 13.6614 31.587 14.1399 31.587C14.6184 31.587 14.9976 31.4406 15.2776 31.1476C15.5608 30.8546 15.7024 30.4575 15.7024 29.9562V27.295C15.7024 26.7937 15.5624 26.3966 15.2825 26.1036C15.0025 25.8107 14.6217 25.6642 14.1399 25.6642C13.6614 25.6642 13.2821 25.8123 13.0022 26.1085C12.7222 26.4015 12.5823 26.797 12.5823 27.295V29.9562Z" fill="#F5F5F5"/>
<path d="M26.7397 32.0265V31.4357H28.4878V26.6163H26.7397V26.0255H28.4878V25.2247H29.1372V31.4357H30.6899V32.0265H26.7397Z" fill="#F5F5F5"/>
<path d="M81.048 32.2023V30.6437H86.3097V15.8781H87.9855V32.2023H81.048Z" fill="#F5F5F5"/>
<path d="M40.585 28.6281C40.585 28.1333 40.6159 27.6694 40.6777 27.2365C40.7428 26.8035 40.86 26.4275 41.0293 26.1085C41.2018 25.7863 41.4378 25.534 41.7373 25.3517C42.0368 25.1694 42.4225 25.0782 42.8945 25.0782C43.3665 25.0782 43.7523 25.1694 44.0518 25.3517C44.3545 25.534 44.5905 25.7863 44.7598 26.1085C44.9323 26.4275 45.0495 26.8035 45.1113 27.2365C45.1732 27.6694 45.2041 28.1333 45.2041 28.6281C45.2041 29.1228 45.1732 29.5867 45.1113 30.0197C45.0495 30.4493 44.9323 30.8253 44.7598 31.1476C44.5905 31.4666 44.3561 31.7189 44.0566 31.9044C43.7572 32.0867 43.3698 32.1779 42.8945 32.1779C42.4225 32.1779 42.0368 32.0867 41.7373 31.9044C41.4378 31.7189 41.2018 31.4666 41.0293 31.1476C40.86 30.8253 40.7428 30.4477 40.6777 30.0148C40.6159 29.5818 40.585 29.1196 40.585 28.6281ZM41.3369 29.9562C41.3369 30.4575 41.4769 30.8546 41.7568 31.1476C42.0368 31.4406 42.416 31.587 42.8945 31.587C43.373 31.587 43.7523 31.4406 44.0322 31.1476C44.3154 30.8546 44.457 30.4575 44.457 29.9562V27.295C44.457 26.7937 44.3171 26.3966 44.0371 26.1036C43.7572 25.8107 43.3763 25.6642 42.8945 25.6642C42.416 25.6642 42.0368 25.8123 41.7568 26.1085C41.4769 26.4015 41.3369 26.797 41.3369 27.295V29.9562Z" fill="#F5F5F5"/>
<path d="M12.3625 21.1144V20.5236H14.1106V15.7042H12.3625V15.1134H14.1106V14.3126H14.76V20.5236H16.3127V21.1144H12.3625Z" fill="#F5F5F5"/>
<path d="M26.2075 17.7159C26.2075 17.2212 26.2384 16.7573 26.3003 16.3243C26.3654 15.8914 26.4826 15.5154 26.6519 15.1964C26.8244 14.8741 27.0604 14.6219 27.3599 14.4396C27.6593 14.2573 28.0451 14.1661 28.5171 14.1661C28.9891 14.1661 29.3748 14.2573 29.6743 14.4396C29.9771 14.6219 30.2131 14.8741 30.3823 15.1964C30.5549 15.5154 30.672 15.8914 30.7339 16.3243C30.7957 16.7573 30.8267 17.2212 30.8267 17.7159C30.8267 18.2107 30.7957 18.6746 30.7339 19.1075C30.672 19.5372 30.5549 19.9132 30.3823 20.2355C30.2131 20.5545 29.9787 20.8068 29.6792 20.9923C29.3797 21.1746 28.9924 21.2657 28.5171 21.2657C28.0451 21.2657 27.6593 21.1746 27.3599 20.9923C27.0604 20.8068 26.8244 20.5545 26.6519 20.2355C26.4826 19.9132 26.3654 19.5356 26.3003 19.1027C26.2384 18.6697 26.2075 18.2075 26.2075 17.7159ZM26.9595 19.0441C26.9595 19.5454 27.0994 19.9425 27.3794 20.2355C27.6593 20.5284 28.0386 20.6749 28.5171 20.6749C28.9956 20.6749 29.3748 20.5284 29.6548 20.2355C29.938 19.9425 30.0796 19.5454 30.0796 19.0441V16.3829C30.0796 15.8816 29.9396 15.4845 29.6597 15.1915C29.3797 14.8986 28.9989 14.7521 28.5171 14.7521C28.0386 14.7521 27.6593 14.9002 27.3794 15.1964C27.0994 15.4894 26.9595 15.8849 26.9595 16.3829V19.0441Z" fill="#F5F5F5"/>
<path d="M40.585 17.7159C40.585 17.2212 40.6159 16.7573 40.6777 16.3243C40.7428 15.8914 40.86 15.5154 41.0293 15.1964C41.2018 14.8741 41.4378 14.6219 41.7373 14.4396C42.0368 14.2573 42.4225 14.1661 42.8945 14.1661C43.3665 14.1661 43.7523 14.2573 44.0518 14.4396C44.3545 14.6219 44.5905 14.8741 44.7598 15.1964C44.9323 15.5154 45.0495 15.8914 45.1113 16.3243C45.1732 16.7573 45.2041 17.2212 45.2041 17.7159C45.2041 18.2107 45.1732 18.6746 45.1113 19.1075C45.0495 19.5372 44.9323 19.9132 44.7598 20.2355C44.5905 20.5545 44.3561 20.8068 44.0566 20.9923C43.7572 21.1746 43.3698 21.2657 42.8945 21.2657C42.4225 21.2657 42.0368 21.1746 41.7373 20.9923C41.4378 20.8068 41.2018 20.5545 41.0293 20.2355C40.86 19.9132 40.7428 19.5356 40.6777 19.1027C40.6159 18.6697 40.585 18.2075 40.585 17.7159ZM41.3369 19.0441C41.3369 19.5454 41.4769 19.9425 41.7568 20.2355C42.0368 20.5284 42.416 20.6749 42.8945 20.6749C43.373 20.6749 43.7523 20.5284 44.0322 20.2355C44.3154 19.9425 44.457 19.5454 44.457 19.0441V16.3829C44.457 15.8816 44.3171 15.4845 44.0371 15.1915C43.7572 14.8986 43.3763 14.7521 42.8945 14.7521C42.416 14.7521 42.0368 14.9002 41.7568 15.1964C41.4769 15.4894 41.3369 15.8849 41.3369 16.3829V19.0441Z" fill="#F5F5F5"/>
<path d="M12.3625 10.2023V9.61145H14.1106V4.79211H12.3625V4.20129H14.1106V3.40051H14.76V9.61145H16.3127V10.2023H12.3625Z" fill="#F5F5F5"/>
<path d="M26.2075 6.80383C26.2075 6.30904 26.2384 5.84517 26.3003 5.41223C26.3654 4.97929 26.4826 4.60331 26.6519 4.2843C26.8244 3.96204 27.0604 3.70976 27.3599 3.52747C27.6593 3.34517 28.0451 3.25403 28.5171 3.25403C28.9891 3.25403 29.3748 3.34517 29.6743 3.52747C29.9771 3.70976 30.2131 3.96204 30.3823 4.2843C30.5549 4.60331 30.672 4.97929 30.7339 5.41223C30.7957 5.84517 30.8267 6.30904 30.8267 6.80383C30.8267 7.29862 30.7957 7.76249 30.7339 8.19543C30.672 8.62512 30.5549 9.0011 30.3823 9.32336C30.2131 9.64237 29.9787 9.89465 29.6792 10.0802C29.3797 10.2625 28.9924 10.3536 28.5171 10.3536C28.0451 10.3536 27.6593 10.2625 27.3599 10.0802C27.0604 9.89465 26.8244 9.64237 26.6519 9.32336C26.4826 9.0011 26.3654 8.62349 26.3003 8.19055C26.2384 7.75761 26.2075 7.29537 26.2075 6.80383ZM26.9595 8.13196C26.9595 8.63326 27.0994 9.0304 27.3794 9.32336C27.6593 9.61633 28.0386 9.76282 28.5171 9.76282C28.9956 9.76282 29.3748 9.61633 29.6548 9.32336C29.938 9.0304 30.0796 8.63326 30.0796 8.13196V5.47083C30.0796 4.96952 29.9396 4.57239 29.6597 4.27942C29.3797 3.98645 28.9989 3.83997 28.5171 3.83997C28.0386 3.83997 27.6593 3.98808 27.3794 4.2843C27.0994 4.57727 26.9595 4.97278 26.9595 5.47083V8.13196Z" fill="#F5F5F5"/>
<path d="M40.585 6.80383C40.585 6.30904 40.6159 5.84517 40.6777 5.41223C40.7428 4.97929 40.86 4.60331 41.0293 4.2843C41.2018 3.96204 41.4378 3.70976 41.7373 3.52747C42.0368 3.34517 42.4225 3.25403 42.8945 3.25403C43.3665 3.25403 43.7523 3.34517 44.0518 3.52747C44.3545 3.70976 44.5905 3.96204 44.7598 4.2843C44.9323 4.60331 45.0495 4.97929 45.1113 5.41223C45.1732 5.84517 45.2041 6.30904 45.2041 6.80383C45.2041 7.29862 45.1732 7.76249 45.1113 8.19543C45.0495 8.62512 44.9323 9.0011 44.7598 9.32336C44.5905 9.64237 44.3561 9.89465 44.0566 10.0802C43.7572 10.2625 43.3698 10.3536 42.8945 10.3536C42.4225 10.3536 42.0368 10.2625 41.7373 10.0802C41.4378 9.89465 41.2018 9.64237 41.0293 9.32336C40.86 9.0011 40.7428 8.62349 40.6777 8.19055C40.6159 7.75761 40.585 7.29537 40.585 6.80383ZM41.3369 8.13196C41.3369 8.63326 41.4769 9.0304 41.7568 9.32336C42.0368 9.61633 42.416 9.76282 42.8945 9.76282C43.373 9.76282 43.7523 9.61633 44.0322 9.32336C44.3154 9.0304 44.457 8.63326 44.457 8.13196V5.47083C44.457 4.96952 44.3171 4.57239 44.0371 4.27942C43.7572 3.98645 43.3763 3.83997 42.8945 3.83997C42.416 3.83997 42.0368 3.98808 41.7568 4.2843C41.4769 4.57727 41.3369 4.97278 41.3369 5.47083V8.13196Z" fill="#F5F5F5"/>
<path d="M1.10938 0.174316V121.742" stroke="#F5F5F5" stroke-width="0.75"/>
<path d="M96.0776 0.174316V121.742" stroke="#F5F5F5" stroke-width="0.75"/>
<rect x="18.4233" y="61.7416" width="20" height="20" fill="#F5F5F5"/>
<rect x="18.4233" y="81.7416" width="20" height="20" fill="#F5F5F5"/>
<rect x="38.4233" y="101.742" width="20" height="20" fill="#F5F5F5"/>
</svg>
