<svg width="97" height="122" viewBox="0 0 97 122" fill="none" xmlns="http://www.w3.org/2000/svg">
<path d="M6.60059 35.0474V0.167236H8.78421V0.802682H7.30535V34.412H8.78421V35.0474H6.60059Z" fill="#F5F5F5"/>
<path d="M49.9941 35.0474V0.167236H47.8105V0.802682H49.2894V34.412H47.8105V35.0474H49.9941Z" fill="#F5F5F5"/>
<path d="M11.6084 28.621C11.6084 28.1262 11.6393 27.6623 11.7012 27.2294C11.7663 26.7964 11.8835 26.4205 12.0527 26.1014C12.2253 25.7792 12.4613 25.5269 12.7607 25.3446C13.0602 25.1623 13.446 25.0712 13.918 25.0712C14.39 25.0712 14.7757 25.1623 15.0752 25.3446C15.3779 25.5269 15.6139 25.7792 15.7832 26.1014C15.9557 26.4205 16.0729 26.7964 16.1348 27.2294C16.1966 27.6623 16.2275 28.1262 16.2275 28.621C16.2275 29.1158 16.1966 29.5796 16.1348 30.0126C16.0729 30.4423 15.9557 30.8182 15.7832 31.1405C15.6139 31.4595 15.3796 31.7118 15.0801 31.8973C14.7806 32.0796 14.3932 32.1708 13.918 32.1708C13.446 32.1708 13.0602 32.0796 12.7607 31.8973C12.4613 31.7118 12.2253 31.4595 12.0527 31.1405C11.8835 30.8182 11.7663 30.4406 11.7012 30.0077C11.6393 29.5747 11.6084 29.1125 11.6084 28.621ZM12.3604 29.9491C12.3604 30.4504 12.5003 30.8475 12.7803 31.1405C13.0602 31.4335 13.4395 31.58 13.918 31.58C14.3965 31.58 14.7757 31.4335 15.0557 31.1405C15.3389 30.8475 15.4805 30.4504 15.4805 29.9491V27.288C15.4805 26.7867 15.3405 26.3895 15.0605 26.0966C14.7806 25.8036 14.3997 25.6571 13.918 25.6571C13.4395 25.6571 13.0602 25.8052 12.7803 26.1014C12.5003 26.3944 12.3604 26.7899 12.3604 27.288V29.9491Z" fill="#F5F5F5"/>
<path d="M25.9856 28.621C25.9856 28.1262 26.0165 27.6623 26.0784 27.2294C26.1435 26.7964 26.2607 26.4205 26.4299 26.1014C26.6025 25.7792 26.8385 25.5269 27.1379 25.3446C27.4374 25.1623 27.8232 25.0712 28.2952 25.0712C28.7672 25.0712 29.1529 25.1623 29.4524 25.3446C29.7551 25.5269 29.9911 25.7792 30.1604 26.1014C30.3329 26.4205 30.4501 26.7964 30.512 27.2294C30.5738 27.6623 30.6047 28.1262 30.6047 28.621C30.6047 29.1158 30.5738 29.5796 30.512 30.0126C30.4501 30.4423 30.3329 30.8182 30.1604 31.1405C29.9911 31.4595 29.7568 31.7118 29.4573 31.8973C29.1578 32.0796 28.7704 32.1708 28.2952 32.1708C27.8232 32.1708 27.4374 32.0796 27.1379 31.8973C26.8385 31.7118 26.6025 31.4595 26.4299 31.1405C26.2607 30.8182 26.1435 30.4406 26.0784 30.0077C26.0165 29.5747 25.9856 29.1125 25.9856 28.621ZM26.7375 29.9491C26.7375 30.4504 26.8775 30.8475 27.1575 31.1405C27.4374 31.4335 27.8167 31.58 28.2952 31.58C28.7737 31.58 29.1529 31.4335 29.4329 31.1405C29.7161 30.8475 29.8577 30.4504 29.8577 29.9491V27.288C29.8577 26.7867 29.7177 26.3895 29.4377 26.0966C29.1578 25.8036 28.7769 25.6571 28.2952 25.6571C27.8167 25.6571 27.4374 25.8052 27.1575 26.1014C26.8775 26.3944 26.7375 26.7899 26.7375 27.288V29.9491Z" fill="#F5F5F5"/>
<path d="M75.9745 32.1952V15.871H77.6503V23.0311H86.076V15.871H87.7518V32.1952H86.076V24.5897H77.6503V32.1952H75.9745Z" fill="#F5F5F5"/>
<path d="M40.8953 32.0194V31.4286H42.6433V26.6093H40.8953V26.0184H42.6433V25.2177H43.2927V31.4286H44.8455V32.0194H40.8953Z" fill="#F5F5F5"/>
<path d="M11.6084 17.7089C11.6084 17.2141 11.6393 16.7502 11.7012 16.3173C11.7663 15.8843 11.8835 15.5083 12.0527 15.1893C12.2253 14.8671 12.4613 14.6148 12.7607 14.4325C13.0602 14.2502 13.446 14.1591 13.918 14.1591C14.39 14.1591 14.7757 14.2502 15.0752 14.4325C15.3779 14.6148 15.6139 14.8671 15.7832 15.1893C15.9557 15.5083 16.0729 15.8843 16.1348 16.3173C16.1966 16.7502 16.2275 17.2141 16.2275 17.7089C16.2275 18.2037 16.1966 18.6675 16.1348 19.1005C16.0729 19.5302 15.9557 19.9061 15.7832 20.2284C15.6139 20.5474 15.3796 20.7997 15.0801 20.9852C14.7806 21.1675 14.3932 21.2587 13.918 21.2587C13.446 21.2587 13.0602 21.1675 12.7607 20.9852C12.4613 20.7997 12.2253 20.5474 12.0527 20.2284C11.8835 19.9061 11.7663 19.5285 11.7012 19.0956C11.6393 18.6626 11.6084 18.2004 11.6084 17.7089ZM12.3604 19.037C12.3604 19.5383 12.5003 19.9354 12.7803 20.2284C13.0602 20.5214 13.4395 20.6678 13.918 20.6678C14.3965 20.6678 14.7757 20.5214 15.0557 20.2284C15.3389 19.9354 15.4805 19.5383 15.4805 19.037V16.3759C15.4805 15.8746 15.3405 15.4774 15.0605 15.1844C14.7806 14.8915 14.3997 14.745 13.918 14.745C13.4395 14.745 13.0602 14.8931 12.7803 15.1893C12.5003 15.4823 12.3604 15.8778 12.3604 16.3759V19.037Z" fill="#F5F5F5"/>
<path d="M26.5178 21.1073V20.5165H28.2659V15.6971H26.5178V15.1063H28.2659V14.3055H28.9153V20.5165H30.468V21.1073H26.5178Z" fill="#F5F5F5"/>
<path d="M40.8953 21.1073V20.5165H42.6433V15.6971H40.8953V15.1063H42.6433V14.3055H43.2927V20.5165H44.8455V21.1073H40.8953Z" fill="#F5F5F5"/>
<path d="M11.6084 6.79675C11.6084 6.30196 11.6393 5.83809 11.7012 5.40515C11.7663 4.97221 11.8835 4.59623 12.0527 4.27722C12.2253 3.95496 12.4613 3.70268 12.7607 3.52039C13.0602 3.33809 13.446 3.24695 13.918 3.24695C14.39 3.24695 14.7757 3.33809 15.0752 3.52039C15.3779 3.70268 15.6139 3.95496 15.7832 4.27722C15.9557 4.59623 16.0729 4.97221 16.1348 5.40515C16.1966 5.83809 16.2275 6.30196 16.2275 6.79675C16.2275 7.29154 16.1966 7.75541 16.1348 8.18835C16.0729 8.61804 15.9557 8.99402 15.7832 9.31628C15.6139 9.63529 15.3796 9.88757 15.0801 10.0731C14.7806 10.2554 14.3932 10.3466 13.918 10.3466C13.446 10.3466 13.0602 10.2554 12.7607 10.0731C12.4613 9.88757 12.2253 9.63529 12.0527 9.31628C11.8835 8.99402 11.7663 8.61641 11.7012 8.18347C11.6393 7.75053 11.6084 7.28829 11.6084 6.79675ZM12.3604 8.12488C12.3604 8.62618 12.5003 9.02332 12.7803 9.31628C13.0602 9.60925 13.4395 9.75574 13.918 9.75574C14.3965 9.75574 14.7757 9.60925 15.0557 9.31628C15.3389 9.02332 15.4805 8.62618 15.4805 8.12488V5.46375C15.4805 4.96244 15.3405 4.56531 15.0605 4.27234C14.7806 3.97937 14.3997 3.83289 13.918 3.83289C13.4395 3.83289 13.0602 3.981 12.7803 4.27722C12.5003 4.57019 12.3604 4.9657 12.3604 5.46375V8.12488Z" fill="#F5F5F5"/>
<path d="M25.9856 6.79675C25.9856 6.30196 26.0165 5.83809 26.0784 5.40515C26.1435 4.97221 26.2607 4.59623 26.4299 4.27722C26.6025 3.95496 26.8385 3.70268 27.1379 3.52039C27.4374 3.33809 27.8232 3.24695 28.2952 3.24695C28.7672 3.24695 29.1529 3.33809 29.4524 3.52039C29.7551 3.70268 29.9911 3.95496 30.1604 4.27722C30.3329 4.59623 30.4501 4.97221 30.512 5.40515C30.5738 5.83809 30.6047 6.30196 30.6047 6.79675C30.6047 7.29154 30.5738 7.75541 30.512 8.18835C30.4501 8.61804 30.3329 8.99402 30.1604 9.31628C29.9911 9.63529 29.7568 9.88757 29.4573 10.0731C29.1578 10.2554 28.7704 10.3466 28.2952 10.3466C27.8232 10.3466 27.4374 10.2554 27.1379 10.0731C26.8385 9.88757 26.6025 9.63529 26.4299 9.31628C26.2607 8.99402 26.1435 8.61641 26.0784 8.18347C26.0165 7.75053 25.9856 7.28829 25.9856 6.79675ZM26.7375 8.12488C26.7375 8.62618 26.8775 9.02332 27.1575 9.31628C27.4374 9.60925 27.8167 9.75574 28.2952 9.75574C28.7737 9.75574 29.1529 9.60925 29.4329 9.31628C29.7161 9.02332 29.8577 8.62618 29.8577 8.12488V5.46375C29.8577 4.96244 29.7177 4.56531 29.4377 4.27234C29.1578 3.97937 28.7769 3.83289 28.2952 3.83289C27.8167 3.83289 27.4374 3.981 27.1575 4.27722C26.8775 4.57019 26.7375 4.9657 26.7375 5.46375V8.12488Z" fill="#F5F5F5"/>
<path d="M40.8953 10.1952V9.60437H42.6433V4.78503H40.8953V4.19421H42.6433V3.39343H43.2927V9.60437H44.8455V10.1952H40.8953Z" fill="#F5F5F5"/>
<path d="M0.887451 0.167236V121.735" stroke="#F5F5F5" stroke-width="0.75"/>
<path d="M95.8557 0.167236V121.735" stroke="#F5F5F5" stroke-width="0.75"/>
<rect x="58.373" y="101.734" width="20" height="20" fill="#F5F5F5"/>
<rect x="58.373" y="81.7345" width="20" height="20" fill="#F5F5F5"/>
<rect x="58.373" y="61.7345" width="20" height="20" fill="#F5F5F5"/>
<rect x="38.373" y="81.7345" width="20" height="20" fill="#F5F5F5"/>
</svg>
