<svg width="97" height="123" viewBox="0 0 97 123" fill="none" xmlns="http://www.w3.org/2000/svg">
<path d="M6.85425 35.4319V0.551758H9.03787V1.1872H7.55901V34.7965H9.03787V35.4319H6.85425Z" fill="#F5F5F5"/>
<path d="M50.2478 35.4319V0.551758H48.0642V1.1872H49.543V34.7965H48.0642V35.4319H50.2478Z" fill="#F5F5F5"/>
<path d="M11.8621 29.0055C11.8621 28.5107 11.893 28.0468 11.9548 27.6139C12.0199 27.1809 12.1371 26.805 12.3064 26.486C12.4789 26.1637 12.7149 25.9114 13.0144 25.7291C13.3139 25.5468 13.6996 25.4557 14.1716 25.4557C14.6436 25.4557 15.0294 25.5468 15.3289 25.7291C15.6316 25.9114 15.8676 26.1637 16.0369 26.486C16.2094 26.805 16.3266 27.1809 16.3884 27.6139C16.4503 28.0468 16.4812 28.5107 16.4812 29.0055C16.4812 29.5003 16.4503 29.9642 16.3884 30.3971C16.3266 30.8268 16.2094 31.2028 16.0369 31.525C15.8676 31.844 15.6332 32.0963 15.3337 32.2819C15.0343 32.4642 14.6469 32.5553 14.1716 32.5553C13.6996 32.5553 13.3139 32.4642 13.0144 32.2819C12.7149 32.0963 12.4789 31.844 12.3064 31.525C12.1371 31.2028 12.0199 30.8252 11.9548 30.3922C11.893 29.9593 11.8621 29.497 11.8621 29.0055ZM12.614 30.3336C12.614 30.8349 12.754 31.2321 13.0339 31.525C13.3139 31.818 13.6931 31.9645 14.1716 31.9645C14.6501 31.9645 15.0294 31.818 15.3093 31.525C15.5925 31.2321 15.7341 30.8349 15.7341 30.3336V27.6725C15.7341 27.1712 15.5942 26.774 15.3142 26.4811C15.0343 26.1881 14.6534 26.0416 14.1716 26.0416C13.6931 26.0416 13.3139 26.1897 13.0339 26.486C12.754 26.7789 12.614 27.1744 12.614 27.6725V30.3336Z" fill="#F5F5F5"/>
<path d="M26.2393 29.0055C26.2393 28.5107 26.2702 28.0468 26.332 27.6139C26.3971 27.1809 26.5143 26.805 26.6836 26.486C26.8561 26.1637 27.0921 25.9114 27.3916 25.7291C27.6911 25.5468 28.0768 25.4557 28.5488 25.4557C29.0208 25.4557 29.4066 25.5468 29.7061 25.7291C30.0088 25.9114 30.2448 26.1637 30.4141 26.486C30.5866 26.805 30.7038 27.1809 30.7656 27.6139C30.8275 28.0468 30.8584 28.5107 30.8584 29.0055C30.8584 29.5003 30.8275 29.9642 30.7656 30.3971C30.7038 30.8268 30.5866 31.2028 30.4141 31.525C30.2448 31.844 30.0104 32.0963 29.7109 32.2819C29.4115 32.4642 29.0241 32.5553 28.5488 32.5553C28.0768 32.5553 27.6911 32.4642 27.3916 32.2819C27.0921 32.0963 26.8561 31.844 26.6836 31.525C26.5143 31.2028 26.3971 30.8252 26.332 30.3922C26.2702 29.9593 26.2393 29.497 26.2393 29.0055ZM26.9912 30.3336C26.9912 30.8349 27.1312 31.2321 27.4111 31.525C27.6911 31.818 28.0703 31.9645 28.5488 31.9645C29.0273 31.9645 29.4066 31.818 29.6865 31.525C29.9697 31.2321 30.1113 30.8349 30.1113 30.3336V27.6725C30.1113 27.1712 29.9714 26.774 29.6914 26.4811C29.4115 26.1881 29.0306 26.0416 28.5488 26.0416C28.0703 26.0416 27.6911 26.1897 27.4111 26.486C27.1312 26.7789 26.9912 27.1744 26.9912 27.6725V30.3336Z" fill="#F5F5F5"/>
<path d="M77.6578 24.4235C77.6578 23.236 77.7321 22.1227 77.8805 21.0836C78.0367 20.0446 78.318 19.1422 78.7242 18.3766C79.1383 17.6031 79.7047 16.9977 80.4235 16.5602C81.1422 16.1227 82.068 15.9039 83.2008 15.9039C84.3336 15.9039 85.2594 16.1227 85.9781 16.5602C86.7047 16.9977 87.2711 17.6031 87.6774 18.3766C88.0914 19.1422 88.3727 20.0446 88.5211 21.0836C88.6696 22.1227 88.7438 23.236 88.7438 24.4235C88.7438 25.611 88.6696 26.7242 88.5211 27.7633C88.3727 28.7946 88.0914 29.6969 87.6774 30.4703C87.2711 31.236 86.7086 31.8414 85.9899 32.2867C85.2711 32.7242 84.3414 32.943 83.2008 32.943C82.068 32.943 81.1422 32.7242 80.4235 32.2867C79.7047 31.8414 79.1383 31.236 78.7242 30.4703C78.318 29.6969 78.0367 28.7906 77.8805 27.7516C77.7321 26.7125 77.6578 25.6031 77.6578 24.4235ZM79.4625 27.611C79.4625 28.8141 79.7985 29.7672 80.4703 30.4703C81.1422 31.1735 82.0524 31.525 83.2008 31.525C84.3492 31.525 85.2594 31.1735 85.9313 30.4703C86.611 29.7672 86.9508 28.8141 86.9508 27.611V21.2242C86.9508 20.0211 86.6149 19.068 85.943 18.3649C85.2711 17.6617 84.3571 17.3102 83.2008 17.3102C82.0524 17.3102 81.1422 17.6656 80.4703 18.3766C79.7985 19.0797 79.4625 20.0289 79.4625 21.2242V27.611Z" fill="#F5F5F5"/>
<path d="M40.6167 29.0055C40.6167 28.5107 40.6476 28.0468 40.7095 27.6139C40.7746 27.1809 40.8918 26.805 41.061 26.486C41.2336 26.1637 41.4696 25.9114 41.769 25.7291C42.0685 25.5468 42.4543 25.4557 42.9263 25.4557C43.3983 25.4557 43.784 25.5468 44.0835 25.7291C44.3862 25.9114 44.6222 26.1637 44.7915 26.486C44.964 26.805 45.0812 27.1809 45.1431 27.6139C45.2049 28.0468 45.2358 28.5107 45.2358 29.0055C45.2358 29.5003 45.2049 29.9642 45.1431 30.3971C45.0812 30.8268 44.964 31.2028 44.7915 31.525C44.6222 31.844 44.3879 32.0963 44.0884 32.2819C43.7889 32.4642 43.4015 32.5553 42.9263 32.5553C42.4543 32.5553 42.0685 32.4642 41.769 32.2819C41.4696 32.0963 41.2336 31.844 41.061 31.525C40.8918 31.2028 40.7746 30.8252 40.7095 30.3922C40.6476 29.9593 40.6167 29.497 40.6167 29.0055ZM41.3687 30.3336C41.3687 30.8349 41.5086 31.2321 41.7886 31.525C42.0685 31.818 42.4478 31.9645 42.9263 31.9645C43.4048 31.9645 43.784 31.818 44.064 31.525C44.3472 31.2321 44.4888 30.8349 44.4888 30.3336V27.6725C44.4888 27.1712 44.3488 26.774 44.0688 26.4811C43.7889 26.1881 43.408 26.0416 42.9263 26.0416C42.4478 26.0416 42.0685 26.1897 41.7886 26.486C41.5086 26.7789 41.3687 27.1744 41.3687 27.6725V30.3336Z" fill="#F5F5F5"/>
<path d="M11.8621 18.0934C11.8621 17.5986 11.893 17.1347 11.9548 16.7018C12.0199 16.2688 12.1371 15.8929 12.3064 15.5739C12.4789 15.2516 12.7149 14.9993 13.0144 14.817C13.3139 14.6347 13.6996 14.5436 14.1716 14.5436C14.6436 14.5436 15.0294 14.6347 15.3289 14.817C15.6316 14.9993 15.8676 15.2516 16.0369 15.5739C16.2094 15.8929 16.3266 16.2688 16.3884 16.7018C16.4503 17.1347 16.4812 17.5986 16.4812 18.0934C16.4812 18.5882 16.4503 19.052 16.3884 19.485C16.3266 19.9147 16.2094 20.2906 16.0369 20.6129C15.8676 20.9319 15.6332 21.1842 15.3337 21.3698C15.0343 21.552 14.6469 21.6432 14.1716 21.6432C13.6996 21.6432 13.3139 21.552 13.0144 21.3698C12.7149 21.1842 12.4789 20.9319 12.3064 20.6129C12.1371 20.2906 12.0199 19.913 11.9548 19.4801C11.893 19.0472 11.8621 18.5849 11.8621 18.0934ZM12.614 19.4215C12.614 19.9228 12.754 20.3199 13.0339 20.6129C13.3139 20.9059 13.6931 21.0524 14.1716 21.0524C14.6501 21.0524 15.0294 20.9059 15.3093 20.6129C15.5925 20.3199 15.7341 19.9228 15.7341 19.4215V16.7604C15.7341 16.2591 15.5942 15.8619 15.3142 15.569C15.0343 15.276 14.6534 15.1295 14.1716 15.1295C13.6931 15.1295 13.3139 15.2776 13.0339 15.5739C12.754 15.8668 12.614 16.2623 12.614 16.7604V19.4215Z" fill="#F5F5F5"/>
<path d="M26.7715 21.4918V20.901H28.5195V16.0817H26.7715V15.4908H28.5195V14.6901H29.1689V20.901H30.7217V21.4918H26.7715Z" fill="#F5F5F5"/>
<path d="M40.6167 18.0934C40.6167 17.5986 40.6476 17.1347 40.7095 16.7018C40.7746 16.2688 40.8918 15.8929 41.061 15.5739C41.2336 15.2516 41.4696 14.9993 41.769 14.817C42.0685 14.6347 42.4543 14.5436 42.9263 14.5436C43.3983 14.5436 43.784 14.6347 44.0835 14.817C44.3862 14.9993 44.6222 15.2516 44.7915 15.5739C44.964 15.8929 45.0812 16.2688 45.1431 16.7018C45.2049 17.1347 45.2358 17.5986 45.2358 18.0934C45.2358 18.5882 45.2049 19.052 45.1431 19.485C45.0812 19.9147 44.964 20.2906 44.7915 20.6129C44.6222 20.9319 44.3879 21.1842 44.0884 21.3698C43.7889 21.552 43.4015 21.6432 42.9263 21.6432C42.4543 21.6432 42.0685 21.552 41.769 21.3698C41.4696 21.1842 41.2336 20.9319 41.061 20.6129C40.8918 20.2906 40.7746 19.913 40.7095 19.4801C40.6476 19.0472 40.6167 18.5849 40.6167 18.0934ZM41.3687 19.4215C41.3687 19.9228 41.5086 20.3199 41.7886 20.6129C42.0685 20.9059 42.4478 21.0524 42.9263 21.0524C43.4048 21.0524 43.784 20.9059 44.064 20.6129C44.3472 20.3199 44.4888 19.9228 44.4888 19.4215V16.7604C44.4888 16.2591 44.3488 15.8619 44.0688 15.569C43.7889 15.276 43.408 15.1295 42.9263 15.1295C42.4478 15.1295 42.0685 15.2776 41.7886 15.5739C41.5086 15.8668 41.3687 16.2623 41.3687 16.7604V19.4215Z" fill="#F5F5F5"/>
<path d="M11.8621 7.18127C11.8621 6.68648 11.893 6.22262 11.9548 5.78967C12.0199 5.35673 12.1371 4.98075 12.3064 4.66174C12.4789 4.33948 12.7149 4.0872 13.0144 3.90491C13.3139 3.72262 13.6996 3.63147 14.1716 3.63147C14.6436 3.63147 15.0294 3.72262 15.3289 3.90491C15.6316 4.0872 15.8676 4.33948 16.0369 4.66174C16.2094 4.98075 16.3266 5.35673 16.3884 5.78967C16.4503 6.22262 16.4812 6.68648 16.4812 7.18127C16.4812 7.67607 16.4503 8.13993 16.3884 8.57288C16.3266 9.00256 16.2094 9.37854 16.0369 9.70081C15.8676 10.0198 15.6332 10.2721 15.3337 10.4576C15.0343 10.6399 14.6469 10.7311 14.1716 10.7311C13.6996 10.7311 13.3139 10.6399 13.0144 10.4576C12.7149 10.2721 12.4789 10.0198 12.3064 9.70081C12.1371 9.37854 12.0199 9.00094 11.9548 8.56799C11.893 8.13505 11.8621 7.67281 11.8621 7.18127ZM12.614 8.5094C12.614 9.0107 12.754 9.40784 13.0339 9.70081C13.3139 9.99377 13.6931 10.1403 14.1716 10.1403C14.6501 10.1403 15.0294 9.99377 15.3093 9.70081C15.5925 9.40784 15.7341 9.0107 15.7341 8.5094V5.84827C15.7341 5.34696 15.5942 4.94983 15.3142 4.65686C15.0343 4.36389 14.6534 4.21741 14.1716 4.21741C13.6931 4.21741 13.3139 4.36552 13.0339 4.66174C12.754 4.95471 12.614 5.35022 12.614 5.84827V8.5094Z" fill="#F5F5F5"/>
<path d="M26.2393 7.18127C26.2393 6.68648 26.2702 6.22262 26.332 5.78967C26.3971 5.35673 26.5143 4.98075 26.6836 4.66174C26.8561 4.33948 27.0921 4.0872 27.3916 3.90491C27.6911 3.72262 28.0768 3.63147 28.5488 3.63147C29.0208 3.63147 29.4066 3.72262 29.7061 3.90491C30.0088 4.0872 30.2448 4.33948 30.4141 4.66174C30.5866 4.98075 30.7038 5.35673 30.7656 5.78967C30.8275 6.22262 30.8584 6.68648 30.8584 7.18127C30.8584 7.67607 30.8275 8.13993 30.7656 8.57288C30.7038 9.00256 30.5866 9.37854 30.4141 9.70081C30.2448 10.0198 30.0104 10.2721 29.7109 10.4576C29.4115 10.6399 29.0241 10.7311 28.5488 10.7311C28.0768 10.7311 27.6911 10.6399 27.3916 10.4576C27.0921 10.2721 26.8561 10.0198 26.6836 9.70081C26.5143 9.37854 26.3971 9.00094 26.332 8.56799C26.2702 8.13505 26.2393 7.67281 26.2393 7.18127ZM26.9912 8.5094C26.9912 9.0107 27.1312 9.40784 27.4111 9.70081C27.6911 9.99377 28.0703 10.1403 28.5488 10.1403C29.0273 10.1403 29.4066 9.99377 29.6865 9.70081C29.9697 9.40784 30.1113 9.0107 30.1113 8.5094V5.84827C30.1113 5.34696 29.9714 4.94983 29.6914 4.65686C29.4115 4.36389 29.0306 4.21741 28.5488 4.21741C28.0703 4.21741 27.6911 4.36552 27.4111 4.66174C27.1312 4.95471 26.9912 5.35022 26.9912 5.84827V8.5094Z" fill="#F5F5F5"/>
<path d="M40.6167 7.18127C40.6167 6.68648 40.6476 6.22262 40.7095 5.78967C40.7746 5.35673 40.8918 4.98075 41.061 4.66174C41.2336 4.33948 41.4696 4.0872 41.769 3.90491C42.0685 3.72262 42.4543 3.63147 42.9263 3.63147C43.3983 3.63147 43.784 3.72262 44.0835 3.90491C44.3862 4.0872 44.6222 4.33948 44.7915 4.66174C44.964 4.98075 45.0812 5.35673 45.1431 5.78967C45.2049 6.22262 45.2358 6.68648 45.2358 7.18127C45.2358 7.67607 45.2049 8.13993 45.1431 8.57288C45.0812 9.00256 44.964 9.37854 44.7915 9.70081C44.6222 10.0198 44.3879 10.2721 44.0884 10.4576C43.7889 10.6399 43.4015 10.7311 42.9263 10.7311C42.4543 10.7311 42.0685 10.6399 41.769 10.4576C41.4696 10.2721 41.2336 10.0198 41.061 9.70081C40.8918 9.37854 40.7746 9.00094 40.7095 8.56799C40.6476 8.13505 40.6167 7.67281 40.6167 7.18127ZM41.3687 8.5094C41.3687 9.0107 41.5086 9.40784 41.7886 9.70081C42.0685 9.99377 42.4478 10.1403 42.9263 10.1403C43.4048 10.1403 43.784 9.99377 44.064 9.70081C44.3472 9.40784 44.4888 9.0107 44.4888 8.5094V5.84827C44.4888 5.34696 44.3488 4.94983 44.0688 4.65686C43.7889 4.36389 43.408 4.21741 42.9263 4.21741C42.4478 4.21741 42.0685 4.36552 41.7886 4.66174C41.5086 4.95471 41.3687 5.35022 41.3687 5.84827V8.5094Z" fill="#F5F5F5"/>
<path d="M1.14111 0.551758V122.119" stroke="#F5F5F5" stroke-width="0.75"/>
<path d="M96.1094 0.551758V122.119" stroke="#F5F5F5" stroke-width="0.75"/>
<rect x="38.6626" y="102.119" width="20" height="20" fill="#F5F5F5"/>
<rect x="58.6626" y="102.119" width="20" height="20" fill="#F5F5F5"/>
<rect x="58.6626" y="82.119" width="20" height="20" fill="#F5F5F5"/>
<rect x="58.6626" y="62.119" width="20" height="20" fill="#F5F5F5"/>
<rect x="38.6626" y="62.119" width="20" height="20" fill="#F5F5F5"/>
<rect x="18.6626" y="62.119" width="20" height="20" fill="#F5F5F5"/>
<rect x="18.6626" y="82.119" width="20" height="20" fill="#F5F5F5"/>
<rect x="18.6626" y="102.119" width="20" height="20" fill="#F5F5F5"/>
</svg>
