<svg width="97" height="122" viewBox="0 0 97 122" fill="none" xmlns="http://www.w3.org/2000/svg">
<path d="M6.85425 35.0545V0.174316H9.03787V0.809762H7.55901V34.419H9.03787V35.0545H6.85425Z" fill="#F5F5F5"/>
<path d="M50.2478 35.0545V0.174316H48.0642V0.809762H49.543V34.419H48.0642V35.0545H50.2478Z" fill="#F5F5F5"/>
<path d="M11.8621 28.6281C11.8621 28.1333 11.893 27.6694 11.9548 27.2365C12.0199 26.8035 12.1371 26.4275 12.3064 26.1085C12.4789 25.7863 12.7149 25.534 13.0144 25.3517C13.3139 25.1694 13.6996 25.0782 14.1716 25.0782C14.6436 25.0782 15.0294 25.1694 15.3289 25.3517C15.6316 25.534 15.8676 25.7863 16.0369 26.1085C16.2094 26.4275 16.3266 26.8035 16.3884 27.2365C16.4503 27.6694 16.4812 28.1333 16.4812 28.6281C16.4812 29.1228 16.4503 29.5867 16.3884 30.0197C16.3266 30.4493 16.2094 30.8253 16.0369 31.1476C15.8676 31.4666 15.6332 31.7189 15.3337 31.9044C15.0343 32.0867 14.6469 32.1779 14.1716 32.1779C13.6996 32.1779 13.3139 32.0867 13.0144 31.9044C12.7149 31.7189 12.4789 31.4666 12.3064 31.1476C12.1371 30.8253 12.0199 30.4477 11.9548 30.0148C11.893 29.5818 11.8621 29.1196 11.8621 28.6281ZM12.614 29.9562C12.614 30.4575 12.754 30.8546 13.0339 31.1476C13.3139 31.4406 13.6931 31.587 14.1716 31.587C14.6501 31.587 15.0294 31.4406 15.3093 31.1476C15.5925 30.8546 15.7341 30.4575 15.7341 29.9562V27.295C15.7341 26.7937 15.5942 26.3966 15.3142 26.1036C15.0343 25.8107 14.6534 25.6642 14.1716 25.6642C13.6931 25.6642 13.3139 25.8123 13.0339 26.1085C12.754 26.4015 12.614 26.797 12.614 27.295V29.9562Z" fill="#F5F5F5"/>
<path d="M26.2393 28.6281C26.2393 28.1333 26.2702 27.6694 26.332 27.2365C26.3971 26.8035 26.5143 26.4275 26.6836 26.1085C26.8561 25.7863 27.0921 25.534 27.3916 25.3517C27.6911 25.1694 28.0768 25.0782 28.5488 25.0782C29.0208 25.0782 29.4066 25.1694 29.7061 25.3517C30.0088 25.534 30.2448 25.7863 30.4141 26.1085C30.5866 26.4275 30.7038 26.8035 30.7656 27.2365C30.8275 27.6694 30.8584 28.1333 30.8584 28.6281C30.8584 29.1228 30.8275 29.5867 30.7656 30.0197C30.7038 30.4493 30.5866 30.8253 30.4141 31.1476C30.2448 31.4666 30.0104 31.7189 29.7109 31.9044C29.4115 32.0867 29.0241 32.1779 28.5488 32.1779C28.0768 32.1779 27.6911 32.0867 27.3916 31.9044C27.0921 31.7189 26.8561 31.4666 26.6836 31.1476C26.5143 30.8253 26.3971 30.4477 26.332 30.0148C26.2702 29.5818 26.2393 29.1196 26.2393 28.6281ZM26.9912 29.9562C26.9912 30.4575 27.1312 30.8546 27.4111 31.1476C27.6911 31.4406 28.0703 31.587 28.5488 31.587C29.0273 31.587 29.4066 31.4406 29.6865 31.1476C29.9697 30.8546 30.1113 30.4575 30.1113 29.9562V27.295C30.1113 26.7937 29.9714 26.3966 29.6914 26.1036C29.4115 25.8107 29.0306 25.6642 28.5488 25.6642C28.0703 25.6642 27.6911 25.8123 27.4111 26.1085C27.1312 26.4015 26.9912 26.797 26.9912 27.295V29.9562Z" fill="#F5F5F5"/>
<path d="M86.3531 32.2023V15.8781H88.0289V32.2023H86.3531Z" fill="#F5F5F5"/>
<path d="M40.6167 28.6281C40.6167 28.1333 40.6476 27.6694 40.7095 27.2365C40.7746 26.8035 40.8918 26.4275 41.061 26.1085C41.2336 25.7863 41.4696 25.534 41.769 25.3517C42.0685 25.1694 42.4543 25.0782 42.9263 25.0782C43.3983 25.0782 43.784 25.1694 44.0835 25.3517C44.3862 25.534 44.6222 25.7863 44.7915 26.1085C44.964 26.4275 45.0812 26.8035 45.1431 27.2365C45.2049 27.6694 45.2358 28.1333 45.2358 28.6281C45.2358 29.1228 45.2049 29.5867 45.1431 30.0197C45.0812 30.4493 44.964 30.8253 44.7915 31.1476C44.6222 31.4666 44.3879 31.7189 44.0884 31.9044C43.7889 32.0867 43.4015 32.1779 42.9263 32.1779C42.4543 32.1779 42.0685 32.0867 41.769 31.9044C41.4696 31.7189 41.2336 31.4666 41.061 31.1476C40.8918 30.8253 40.7746 30.4477 40.7095 30.0148C40.6476 29.5818 40.6167 29.1196 40.6167 28.6281ZM41.3687 29.9562C41.3687 30.4575 41.5086 30.8546 41.7886 31.1476C42.0685 31.4406 42.4478 31.587 42.9263 31.587C43.4048 31.587 43.784 31.4406 44.064 31.1476C44.3472 30.8546 44.4888 30.4575 44.4888 29.9562V27.295C44.4888 26.7937 44.3488 26.3966 44.0688 26.1036C43.7889 25.8107 43.408 25.6642 42.9263 25.6642C42.4478 25.6642 42.0685 25.8123 41.7886 26.1085C41.5086 26.4015 41.3687 26.797 41.3687 27.295V29.9562Z" fill="#F5F5F5"/>
<path d="M11.8621 17.7159C11.8621 17.2212 11.893 16.7573 11.9548 16.3243C12.0199 15.8914 12.1371 15.5154 12.3064 15.1964C12.4789 14.8741 12.7149 14.6219 13.0144 14.4396C13.3139 14.2573 13.6996 14.1661 14.1716 14.1661C14.6436 14.1661 15.0294 14.2573 15.3289 14.4396C15.6316 14.6219 15.8676 14.8741 16.0369 15.1964C16.2094 15.5154 16.3266 15.8914 16.3884 16.3243C16.4503 16.7573 16.4812 17.2212 16.4812 17.7159C16.4812 18.2107 16.4503 18.6746 16.3884 19.1075C16.3266 19.5372 16.2094 19.9132 16.0369 20.2355C15.8676 20.5545 15.6332 20.8068 15.3337 20.9923C15.0343 21.1746 14.6469 21.2657 14.1716 21.2657C13.6996 21.2657 13.3139 21.1746 13.0144 20.9923C12.7149 20.8068 12.4789 20.5545 12.3064 20.2355C12.1371 19.9132 12.0199 19.5356 11.9548 19.1027C11.893 18.6697 11.8621 18.2075 11.8621 17.7159ZM12.614 19.0441C12.614 19.5454 12.754 19.9425 13.0339 20.2355C13.3139 20.5284 13.6931 20.6749 14.1716 20.6749C14.6501 20.6749 15.0294 20.5284 15.3093 20.2355C15.5925 19.9425 15.7341 19.5454 15.7341 19.0441V16.3829C15.7341 15.8816 15.5942 15.4845 15.3142 15.1915C15.0343 14.8986 14.6534 14.7521 14.1716 14.7521C13.6931 14.7521 13.3139 14.9002 13.0339 15.1964C12.754 15.4894 12.614 15.8849 12.614 16.3829V19.0441Z" fill="#F5F5F5"/>
<path d="M26.2393 17.7159C26.2393 17.2212 26.2702 16.7573 26.332 16.3243C26.3971 15.8914 26.5143 15.5154 26.6836 15.1964C26.8561 14.8741 27.0921 14.6219 27.3916 14.4396C27.6911 14.2573 28.0768 14.1661 28.5488 14.1661C29.0208 14.1661 29.4066 14.2573 29.7061 14.4396C30.0088 14.6219 30.2448 14.8741 30.4141 15.1964C30.5866 15.5154 30.7038 15.8914 30.7656 16.3243C30.8275 16.7573 30.8584 17.2212 30.8584 17.7159C30.8584 18.2107 30.8275 18.6746 30.7656 19.1075C30.7038 19.5372 30.5866 19.9132 30.4141 20.2355C30.2448 20.5545 30.0104 20.8068 29.7109 20.9923C29.4115 21.1746 29.0241 21.2657 28.5488 21.2657C28.0768 21.2657 27.6911 21.1746 27.3916 20.9923C27.0921 20.8068 26.8561 20.5545 26.6836 20.2355C26.5143 19.9132 26.3971 19.5356 26.332 19.1027C26.2702 18.6697 26.2393 18.2075 26.2393 17.7159ZM26.9912 19.0441C26.9912 19.5454 27.1312 19.9425 27.4111 20.2355C27.6911 20.5284 28.0703 20.6749 28.5488 20.6749C29.0273 20.6749 29.4066 20.5284 29.6865 20.2355C29.9697 19.9425 30.1113 19.5454 30.1113 19.0441V16.3829C30.1113 15.8816 29.9714 15.4845 29.6914 15.1915C29.4115 14.8986 29.0306 14.7521 28.5488 14.7521C28.0703 14.7521 27.6911 14.9002 27.4111 15.1964C27.1312 15.4894 26.9912 15.8849 26.9912 16.3829V19.0441Z" fill="#F5F5F5"/>
<path d="M40.6167 17.7159C40.6167 17.2212 40.6476 16.7573 40.7095 16.3243C40.7746 15.8914 40.8918 15.5154 41.061 15.1964C41.2336 14.8741 41.4696 14.6219 41.769 14.4396C42.0685 14.2573 42.4543 14.1661 42.9263 14.1661C43.3983 14.1661 43.784 14.2573 44.0835 14.4396C44.3862 14.6219 44.6222 14.8741 44.7915 15.1964C44.964 15.5154 45.0812 15.8914 45.1431 16.3243C45.2049 16.7573 45.2358 17.2212 45.2358 17.7159C45.2358 18.2107 45.2049 18.6746 45.1431 19.1075C45.0812 19.5372 44.964 19.9132 44.7915 20.2355C44.6222 20.5545 44.3879 20.8068 44.0884 20.9923C43.7889 21.1746 43.4015 21.2657 42.9263 21.2657C42.4543 21.2657 42.0685 21.1746 41.769 20.9923C41.4696 20.8068 41.2336 20.5545 41.061 20.2355C40.8918 19.9132 40.7746 19.5356 40.7095 19.1027C40.6476 18.6697 40.6167 18.2075 40.6167 17.7159ZM41.3687 19.0441C41.3687 19.5454 41.5086 19.9425 41.7886 20.2355C42.0685 20.5284 42.4478 20.6749 42.9263 20.6749C43.4048 20.6749 43.784 20.5284 44.064 20.2355C44.3472 19.9425 44.4888 19.5454 44.4888 19.0441V16.3829C44.4888 15.8816 44.3488 15.4845 44.0688 15.1915C43.7889 14.8986 43.408 14.7521 42.9263 14.7521C42.4478 14.7521 42.0685 14.9002 41.7886 15.1964C41.5086 15.4894 41.3687 15.8849 41.3687 16.3829V19.0441Z" fill="#F5F5F5"/>
<path d="M11.8621 6.80383C11.8621 6.30904 11.893 5.84517 11.9548 5.41223C12.0199 4.97929 12.1371 4.60331 12.3064 4.2843C12.4789 3.96204 12.7149 3.70976 13.0144 3.52747C13.3139 3.34517 13.6996 3.25403 14.1716 3.25403C14.6436 3.25403 15.0294 3.34517 15.3289 3.52747C15.6316 3.70976 15.8676 3.96204 16.0369 4.2843C16.2094 4.60331 16.3266 4.97929 16.3884 5.41223C16.4503 5.84517 16.4812 6.30904 16.4812 6.80383C16.4812 7.29862 16.4503 7.76249 16.3884 8.19543C16.3266 8.62512 16.2094 9.0011 16.0369 9.32336C15.8676 9.64237 15.6332 9.89465 15.3337 10.0802C15.0343 10.2625 14.6469 10.3536 14.1716 10.3536C13.6996 10.3536 13.3139 10.2625 13.0144 10.0802C12.7149 9.89465 12.4789 9.64237 12.3064 9.32336C12.1371 9.0011 12.0199 8.62349 11.9548 8.19055C11.893 7.75761 11.8621 7.29537 11.8621 6.80383ZM12.614 8.13196C12.614 8.63326 12.754 9.0304 13.0339 9.32336C13.3139 9.61633 13.6931 9.76282 14.1716 9.76282C14.6501 9.76282 15.0294 9.61633 15.3093 9.32336C15.5925 9.0304 15.7341 8.63326 15.7341 8.13196V5.47083C15.7341 4.96952 15.5942 4.57239 15.3142 4.27942C15.0343 3.98645 14.6534 3.83997 14.1716 3.83997C13.6931 3.83997 13.3139 3.98808 13.0339 4.2843C12.754 4.57727 12.614 4.97278 12.614 5.47083V8.13196Z" fill="#F5F5F5"/>
<path d="M26.7715 10.2023V9.61145H28.5195V4.79211H26.7715V4.20129H28.5195V3.40051H29.1689V9.61145H30.7217V10.2023H26.7715Z" fill="#F5F5F5"/>
<path d="M40.6167 6.80383C40.6167 6.30904 40.6476 5.84517 40.7095 5.41223C40.7746 4.97929 40.8918 4.60331 41.061 4.2843C41.2336 3.96204 41.4696 3.70976 41.769 3.52747C42.0685 3.34517 42.4543 3.25403 42.9263 3.25403C43.3983 3.25403 43.784 3.34517 44.0835 3.52747C44.3862 3.70976 44.6222 3.96204 44.7915 4.2843C44.964 4.60331 45.0812 4.97929 45.1431 5.41223C45.2049 5.84517 45.2358 6.30904 45.2358 6.80383C45.2358 7.29862 45.2049 7.76249 45.1431 8.19543C45.0812 8.62512 44.964 9.0011 44.7915 9.32336C44.6222 9.64237 44.3879 9.89465 44.0884 10.0802C43.7889 10.2625 43.4015 10.3536 42.9263 10.3536C42.4543 10.3536 42.0685 10.2625 41.769 10.0802C41.4696 9.89465 41.2336 9.64237 41.061 9.32336C40.8918 9.0011 40.7746 8.62349 40.7095 8.19055C40.6476 7.75761 40.6167 7.29537 40.6167 6.80383ZM41.3687 8.13196C41.3687 8.63326 41.5086 9.0304 41.7886 9.32336C42.0685 9.61633 42.4478 9.76282 42.9263 9.76282C43.4048 9.76282 43.784 9.61633 44.064 9.32336C44.3472 9.0304 44.4888 8.63326 44.4888 8.13196V5.47083C44.4888 4.96952 44.3488 4.57239 44.0688 4.27942C43.7889 3.98645 43.408 3.83997 42.9263 3.83997C42.4478 3.83997 42.0685 3.98808 41.7886 4.2843C41.5086 4.57727 41.3687 4.97278 41.3687 5.47083V8.13196Z" fill="#F5F5F5"/>
<path d="M1.14111 0.174316V121.742" stroke="#F5F5F5" stroke-width="0.75"/>
<path d="M96.1094 0.174316V121.742" stroke="#F5F5F5" stroke-width="0.75"/>
<rect x="38.627" y="50.7416" width="20" height="20" fill="#F5F5F5"/>
</svg>
