<svg width="97" height="123" viewBox="0 0 97 123" fill="none" xmlns="http://www.w3.org/2000/svg">
<path d="M6.60059 35.4319V0.551758H8.78421V1.1872H7.30535V34.7965H8.78421V35.4319H6.60059Z" fill="#F5F5F5"/>
<path d="M49.9941 35.4319V0.551758H47.8105V1.1872H49.2894V34.7965H47.8105V35.4319H49.9941Z" fill="#F5F5F5"/>
<path d="M12.1406 32.4039V31.8131H13.8887V26.9938H12.1406V26.403H13.8887V25.6022H14.5381V31.8131H16.0908V32.4039H12.1406Z" fill="#F5F5F5"/>
<path d="M26.5178 32.4039V31.8131H28.2659V26.9938H26.5178V26.403H28.2659V25.6022H28.9153V31.8131H30.468V32.4039H26.5178Z" fill="#F5F5F5"/>
<path d="M77.3339 28.2086C77.3339 27.2008 77.5995 26.3453 78.1307 25.6422C78.6698 24.9391 79.4354 24.4196 80.4276 24.0836C79.5135 23.7164 78.8495 23.2203 78.4354 22.5953C78.0214 21.9703 77.8143 21.2086 77.8143 20.3102C77.8143 19.6227 77.955 19.0094 78.2362 18.4703C78.5175 17.9235 78.8885 17.4586 79.3495 17.0758C79.8182 16.693 80.3612 16.4039 80.9784 16.2086C81.6034 16.0055 82.2596 15.9039 82.9471 15.9039C83.6346 15.9039 84.2909 16.0055 84.9159 16.2086C85.5409 16.4039 86.0839 16.693 86.5448 17.0758C87.0135 17.4586 87.3885 17.9235 87.6698 18.4703C87.951 19.0094 88.0917 19.6227 88.0917 20.3102C88.0917 21.2086 87.8807 21.9703 87.4589 22.5953C87.0448 23.2203 86.3807 23.7164 85.4667 24.0836C86.4589 24.4196 87.2245 24.9391 87.7635 25.6422C88.3026 26.3453 88.5721 27.2008 88.5721 28.2086C88.5721 29.0211 88.4198 29.7242 88.1151 30.318C87.8104 30.9117 87.4003 31.4039 86.8846 31.7946C86.3768 32.1774 85.7792 32.4625 85.0917 32.65C84.412 32.8453 83.6971 32.943 82.9471 32.943C82.1971 32.943 81.4823 32.8453 80.8026 32.65C80.1229 32.4625 79.5253 32.1774 79.0096 31.7946C78.5018 31.4039 78.0956 30.9156 77.7909 30.3297C77.4862 29.736 77.3339 29.0289 77.3339 28.2086ZM79.0917 28.9586C79.0917 29.6617 79.4198 30.2672 80.076 30.775C80.7323 31.275 81.6893 31.525 82.9471 31.525C84.2128 31.525 85.1737 31.275 85.83 30.775C86.4862 30.2672 86.8143 29.6617 86.8143 28.9586V27.3766C86.8143 26.6735 86.4862 26.0719 85.83 25.5719C85.1737 25.0719 84.2128 24.8219 82.9471 24.8219C81.6815 24.8219 80.7206 25.0719 80.0643 25.5719C79.4159 26.0641 79.0917 26.6656 79.0917 27.3766V28.9586ZM79.5721 21.1071C79.5721 21.7946 79.869 22.3727 80.4628 22.8414C81.0643 23.3024 81.8925 23.5328 82.9471 23.5328C84.0018 23.5328 84.83 23.3024 85.4315 22.8414C86.0331 22.3727 86.3339 21.7946 86.3339 21.1071V19.736C86.3339 19.0641 86.0331 18.4938 85.4315 18.025C84.8378 17.5485 84.0096 17.3102 82.9471 17.3102C81.8925 17.3102 81.0643 17.5485 80.4628 18.025C79.869 18.4938 79.5721 19.0641 79.5721 19.736V21.1071Z" fill="#F5F5F5"/>
<path d="M40.8953 32.4039V31.8131H42.6433V26.9938H40.8953V26.403H42.6433V25.6022H43.2927V31.8131H44.8455V32.4039H40.8953Z" fill="#F5F5F5"/>
<path d="M12.1406 21.4918V20.901H13.8887V16.0817H12.1406V15.4908H13.8887V14.6901H14.5381V20.901H16.0908V21.4918H12.1406Z" fill="#F5F5F5"/>
<path d="M26.5178 21.4918V20.901H28.2659V16.0817H26.5178V15.4908H28.2659V14.6901H28.9153V20.901H30.468V21.4918H26.5178Z" fill="#F5F5F5"/>
<path d="M40.363 18.0934C40.363 17.5986 40.394 17.1347 40.4558 16.7018C40.5209 16.2688 40.6381 15.8929 40.8074 15.5739C40.9799 15.2516 41.2159 14.9993 41.5154 14.817C41.8149 14.6347 42.2006 14.5436 42.6726 14.5436C43.1446 14.5436 43.5304 14.6347 43.8298 14.817C44.1326 14.9993 44.3686 15.2516 44.5378 15.5739C44.7104 15.8929 44.8276 16.2688 44.8894 16.7018C44.9513 17.1347 44.9822 17.5986 44.9822 18.0934C44.9822 18.5882 44.9513 19.052 44.8894 19.485C44.8276 19.9147 44.7104 20.2906 44.5378 20.6129C44.3686 20.9319 44.1342 21.1842 43.8347 21.3698C43.5352 21.552 43.1479 21.6432 42.6726 21.6432C42.2006 21.6432 41.8149 21.552 41.5154 21.3698C41.2159 21.1842 40.9799 20.9319 40.8074 20.6129C40.6381 20.2906 40.5209 19.913 40.4558 19.4801C40.394 19.0472 40.363 18.5849 40.363 18.0934ZM41.115 19.4215C41.115 19.9228 41.255 20.3199 41.5349 20.6129C41.8149 20.9059 42.1941 21.0524 42.6726 21.0524C43.1511 21.0524 43.5304 20.9059 43.8103 20.6129C44.0935 20.3199 44.2351 19.9228 44.2351 19.4215V16.7604C44.2351 16.2591 44.0951 15.8619 43.8152 15.569C43.5352 15.276 43.1544 15.1295 42.6726 15.1295C42.1941 15.1295 41.8149 15.2776 41.5349 15.5739C41.255 15.8668 41.115 16.2623 41.115 16.7604V19.4215Z" fill="#F5F5F5"/>
<path d="M12.1406 10.5797V9.98889H13.8887V5.16956H12.1406V4.57874H13.8887V3.77795H14.5381V9.98889H16.0908V10.5797H12.1406Z" fill="#F5F5F5"/>
<path d="M26.5178 10.5797V9.98889H28.2659V5.16956H26.5178V4.57874H28.2659V3.77795H28.9153V9.98889H30.468V10.5797H26.5178Z" fill="#F5F5F5"/>
<path d="M40.8953 10.5797V9.98889H42.6433V5.16956H40.8953V4.57874H42.6433V3.77795H43.2927V9.98889H44.8455V10.5797H40.8953Z" fill="#F5F5F5"/>
<path d="M0.887451 0.551758V122.119" stroke="#F5F5F5" stroke-width="0.75"/>
<path d="M95.8557 0.551758V122.119" stroke="#F5F5F5" stroke-width="0.75"/>
<rect x="18.3716" y="82.119" width="20" height="20" fill="#F5F5F5"/>
<rect x="38.3716" y="102.119" width="20" height="20" fill="#F5F5F5"/>
<rect x="38.3716" y="62.119" width="20" height="20" fill="#F5F5F5"/>
<rect x="58.3716" y="62.119" width="20" height="20" fill="#F5F5F5"/>
<rect x="18.3716" y="62.119" width="20" height="20" fill="#F5F5F5"/>
<rect x="38.3716" y="82.119" width="20" height="20" fill="#F5F5F5"/>
<rect x="58.3716" y="102.119" width="20" height="20" fill="#F5F5F5"/>
<rect x="18.3716" y="102.119" width="20" height="20" fill="#F5F5F5"/>
</svg>
