<svg width="97" height="122" viewBox="0 0 97 122" fill="none" xmlns="http://www.w3.org/2000/svg">
<path d="M6.69556 35.2781V0.397949H8.87918V1.03339H7.40032V34.6427H8.87918V35.2781H6.69556Z" fill="#F5F5F5"/>
<path d="M50.0891 35.2781V0.397949H47.9055V1.03339H49.3843V34.6427H47.9055V35.2781H50.0891Z" fill="#F5F5F5"/>
<path d="M12.2356 32.2501V31.6593H13.9836V26.84H12.2356V26.2491H13.9836V25.4484H14.6331V31.6593H16.1858V32.2501H12.2356Z" fill="#F5F5F5"/>
<path d="M26.6128 32.2501V31.6593H28.3608V26.84H26.6128V26.2491H28.3608V25.4484H29.0103V31.6593H30.563V32.2501H26.6128Z" fill="#F5F5F5"/>
<path d="M69.4249 16.1017H71.2296L74.7804 30.504H74.8741L78.1671 16.1017H80.3234L83.6632 30.504H83.757L87.2609 16.1017H89.089L84.8116 32.4259H82.5616L79.2921 18.6447H79.1984L75.9523 32.4259H73.7023L69.4249 16.1017Z" fill="#F5F5F5"/>
<path d="M40.9902 32.2501V31.6593H42.7383V26.84H40.9902V26.2491H42.7383V25.4484H43.3877V31.6593H44.9404V32.2501H40.9902Z" fill="#F5F5F5"/>
<path d="M11.7034 17.9396C11.7034 17.4448 11.7343 16.9809 11.7961 16.548C11.8612 16.115 11.9784 15.7391 12.1477 15.42C12.3202 15.0978 12.5562 14.8455 12.8557 14.6632C13.1552 14.4809 13.5409 14.3898 14.0129 14.3898C14.4849 14.3898 14.8707 14.4809 15.1702 14.6632C15.4729 14.8455 15.7089 15.0978 15.8782 15.42C16.0507 15.7391 16.1679 16.115 16.2297 16.548C16.2916 16.9809 16.3225 17.4448 16.3225 17.9396C16.3225 18.4344 16.2916 18.8982 16.2297 19.3312C16.1679 19.7609 16.0507 20.1368 15.8782 20.4591C15.7089 20.7781 15.4745 21.0304 15.175 21.2159C14.8756 21.3982 14.4882 21.4894 14.0129 21.4894C13.5409 21.4894 13.1552 21.3982 12.8557 21.2159C12.5562 21.0304 12.3202 20.7781 12.1477 20.4591C11.9784 20.1368 11.8612 19.7592 11.7961 19.3263C11.7343 18.8934 11.7034 18.4311 11.7034 17.9396ZM12.4553 19.2677C12.4553 19.769 12.5953 20.1661 12.8752 20.4591C13.1552 20.7521 13.5344 20.8986 14.0129 20.8986C14.4915 20.8986 14.8707 20.7521 15.1506 20.4591C15.4338 20.1661 15.5754 19.769 15.5754 19.2677V16.6066C15.5754 16.1053 15.4355 15.7081 15.1555 15.4152C14.8756 15.1222 14.4947 14.9757 14.0129 14.9757C13.5344 14.9757 13.1552 15.1238 12.8752 15.42C12.5953 15.713 12.4553 16.1085 12.4553 16.6066V19.2677Z" fill="#F5F5F5"/>
<path d="M26.6128 21.338V20.7472H28.3608V15.9279H26.6128V15.337H28.3608V14.5363H29.0103V20.7472H30.563V21.338H26.6128Z" fill="#F5F5F5"/>
<path d="M40.458 17.9396C40.458 17.4448 40.4889 16.9809 40.5508 16.548C40.6159 16.115 40.7331 15.7391 40.9023 15.42C41.0749 15.0978 41.3109 14.8455 41.6104 14.6632C41.9098 14.4809 42.2956 14.3898 42.7676 14.3898C43.2396 14.3898 43.6253 14.4809 43.9248 14.6632C44.2275 14.8455 44.4635 15.0978 44.6328 15.42C44.8053 15.7391 44.9225 16.115 44.9844 16.548C45.0462 16.9809 45.0771 17.4448 45.0771 17.9396C45.0771 18.4344 45.0462 18.8982 44.9844 19.3312C44.9225 19.7609 44.8053 20.1368 44.6328 20.4591C44.4635 20.7781 44.2292 21.0304 43.9297 21.2159C43.6302 21.3982 43.2428 21.4894 42.7676 21.4894C42.2956 21.4894 41.9098 21.3982 41.6104 21.2159C41.3109 21.0304 41.0749 20.7781 40.9023 20.4591C40.7331 20.1368 40.6159 19.7592 40.5508 19.3263C40.4889 18.8934 40.458 18.4311 40.458 17.9396ZM41.21 19.2677C41.21 19.769 41.3499 20.1661 41.6299 20.4591C41.9098 20.7521 42.2891 20.8986 42.7676 20.8986C43.2461 20.8986 43.6253 20.7521 43.9053 20.4591C44.1885 20.1661 44.3301 19.769 44.3301 19.2677V16.6066C44.3301 16.1053 44.1901 15.7081 43.9102 15.4152C43.6302 15.1222 43.2493 14.9757 42.7676 14.9757C42.2891 14.9757 41.9098 15.1238 41.6299 15.42C41.3499 15.713 41.21 16.1085 41.21 16.6066V19.2677Z" fill="#F5F5F5"/>
<path d="M11.7034 7.02747C11.7034 6.53267 11.7343 6.06881 11.7961 5.63586C11.8612 5.20292 11.9784 4.82694 12.1477 4.50793C12.3202 4.18567 12.5562 3.93339 12.8557 3.7511C13.1552 3.56881 13.5409 3.47766 14.0129 3.47766C14.4849 3.47766 14.8707 3.56881 15.1702 3.7511C15.4729 3.93339 15.7089 4.18567 15.8782 4.50793C16.0507 4.82694 16.1679 5.20292 16.2297 5.63586C16.2916 6.06881 16.3225 6.53267 16.3225 7.02747C16.3225 7.52226 16.2916 7.98612 16.2297 8.41907C16.1679 8.84875 16.0507 9.22473 15.8782 9.547C15.7089 9.86601 15.4745 10.1183 15.175 10.3038C14.8756 10.4861 14.4882 10.5773 14.0129 10.5773C13.5409 10.5773 13.1552 10.4861 12.8557 10.3038C12.5562 10.1183 12.3202 9.86601 12.1477 9.547C11.9784 9.22473 11.8612 8.84713 11.7961 8.41418C11.7343 7.98124 11.7034 7.519 11.7034 7.02747ZM12.4553 8.35559C12.4553 8.85689 12.5953 9.25403 12.8752 9.547C13.1552 9.83997 13.5344 9.98645 14.0129 9.98645C14.4915 9.98645 14.8707 9.83997 15.1506 9.547C15.4338 9.25403 15.5754 8.85689 15.5754 8.35559V5.69446C15.5754 5.19316 15.4355 4.79602 15.1555 4.50305C14.8756 4.21008 14.4947 4.0636 14.0129 4.0636C13.5344 4.0636 13.1552 4.21171 12.8752 4.50793C12.5953 4.8009 12.4553 5.19641 12.4553 5.69446V8.35559Z" fill="#F5F5F5"/>
<path d="M26.0806 7.02747C26.0806 6.53267 26.1115 6.06881 26.1733 5.63586C26.2384 5.20292 26.3556 4.82694 26.5249 4.50793C26.6974 4.18567 26.9334 3.93339 27.2329 3.7511C27.5324 3.56881 27.9181 3.47766 28.3901 3.47766C28.8621 3.47766 29.2479 3.56881 29.5474 3.7511C29.8501 3.93339 30.0861 4.18567 30.2554 4.50793C30.4279 4.82694 30.5451 5.20292 30.6069 5.63586C30.6688 6.06881 30.6997 6.53267 30.6997 7.02747C30.6997 7.52226 30.6688 7.98612 30.6069 8.41907C30.5451 8.84875 30.4279 9.22473 30.2554 9.547C30.0861 9.86601 29.8517 10.1183 29.5522 10.3038C29.2528 10.4861 28.8654 10.5773 28.3901 10.5773C27.9181 10.5773 27.5324 10.4861 27.2329 10.3038C26.9334 10.1183 26.6974 9.86601 26.5249 9.547C26.3556 9.22473 26.2384 8.84713 26.1733 8.41418C26.1115 7.98124 26.0806 7.519 26.0806 7.02747ZM26.8325 8.35559C26.8325 8.85689 26.9725 9.25403 27.2524 9.547C27.5324 9.83997 27.9116 9.98645 28.3901 9.98645C28.8687 9.98645 29.2479 9.83997 29.5278 9.547C29.811 9.25403 29.9526 8.85689 29.9526 8.35559V5.69446C29.9526 5.19316 29.8127 4.79602 29.5327 4.50305C29.2528 4.21008 28.8719 4.0636 28.3901 4.0636C27.9116 4.0636 27.5324 4.21171 27.2524 4.50793C26.9725 4.8009 26.8325 5.19641 26.8325 5.69446V8.35559Z" fill="#F5F5F5"/>
<path d="M40.9902 10.4259V9.83508H42.7383V5.01575H40.9902V4.42493H42.7383V3.62415H43.3877V9.83508H44.9404V10.4259H40.9902Z" fill="#F5F5F5"/>
<path d="M0.982422 0.397949V121.965" stroke="#F5F5F5" stroke-width="0.75"/>
<path d="M95.9507 0.397949V121.965" stroke="#F5F5F5" stroke-width="0.75"/>
<rect x="58.4673" y="61.9652" width="20" height="20" fill="#F5F5F5"/>
<rect x="58.4673" y="101.965" width="20" height="20" fill="#F5F5F5"/>
<rect x="38.4673" y="101.965" width="20" height="20" fill="#F5F5F5"/>
<rect x="18.4673" y="101.965" width="20" height="20" fill="#F5F5F5"/>
<rect x="38.4673" y="81.9652" width="20" height="20" fill="#F5F5F5"/>
</svg>
