<svg width="97" height="123" viewBox="0 0 97 123" fill="none" xmlns="http://www.w3.org/2000/svg">
<path d="M6.66406 35.4319V0.551758H8.84768V1.1872H7.36883V34.7965H8.84768V35.4319H6.66406Z" fill="#F5F5F5"/>
<path d="M50.0576 35.4319V0.551758H47.874V1.1872H49.3529V34.7965H47.874V35.4319H50.0576Z" fill="#F5F5F5"/>
<path d="M12.2041 32.4039V31.8131H13.9521V26.9938H12.2041V26.403H13.9521V25.6022H14.6016V31.8131H16.1543V32.4039H12.2041Z" fill="#F5F5F5"/>
<path d="M26.0491 29.0055C26.0491 28.5107 26.08 28.0468 26.1418 27.6139C26.2069 27.1809 26.3241 26.805 26.4934 26.486C26.6659 26.1637 26.9019 25.9114 27.2014 25.7291C27.5009 25.5468 27.8866 25.4557 28.3586 25.4557C28.8306 25.4557 29.2164 25.5468 29.5159 25.7291C29.8186 25.9114 30.0546 26.1637 30.2239 26.486C30.3964 26.805 30.5136 27.1809 30.5754 27.6139C30.6373 28.0468 30.6682 28.5107 30.6682 29.0055C30.6682 29.5003 30.6373 29.9642 30.5754 30.3971C30.5136 30.8268 30.3964 31.2028 30.2239 31.525C30.0546 31.844 29.8202 32.0963 29.5208 32.2819C29.2213 32.4642 28.8339 32.5553 28.3586 32.5553C27.8866 32.5553 27.5009 32.4642 27.2014 32.2819C26.9019 32.0963 26.6659 31.844 26.4934 31.525C26.3241 31.2028 26.2069 30.8252 26.1418 30.3922C26.08 29.9593 26.0491 29.497 26.0491 29.0055ZM26.801 30.3336C26.801 30.8349 26.941 31.2321 27.2209 31.525C27.5009 31.818 27.8801 31.9645 28.3586 31.9645C28.8372 31.9645 29.2164 31.818 29.4963 31.525C29.7795 31.2321 29.9211 30.8349 29.9211 30.3336V27.6725C29.9211 27.1712 29.7812 26.774 29.5012 26.4811C29.2213 26.1881 28.8404 26.0416 28.3586 26.0416C27.8801 26.0416 27.5009 26.1897 27.2209 26.486C26.941 26.7789 26.801 27.1744 26.801 27.6725V30.3336Z" fill="#F5F5F5"/>
<path d="M77.5145 24.7985C77.5145 23.5172 77.5966 22.3336 77.7606 21.2477C77.9325 20.1617 78.2333 19.2242 78.663 18.4352C79.1005 17.6383 79.6942 17.0172 80.4442 16.5719C81.202 16.1266 82.1552 15.9039 83.3036 15.9039C84.827 15.9039 85.995 16.2867 86.8075 17.0524C87.62 17.818 88.1005 18.8649 88.2489 20.193H86.6434C86.5341 19.3649 86.2098 18.6735 85.6708 18.1188C85.1317 17.5641 84.3036 17.2867 83.1864 17.2867C82.5614 17.2867 82.0028 17.4039 81.5106 17.6383C81.0262 17.8727 80.6239 18.193 80.3036 18.5992C79.9833 19.0055 79.7372 19.4821 79.5653 20.0289C79.4012 20.5758 79.3192 21.1578 79.3192 21.775V23.8961C79.7489 23.2242 80.3153 22.7164 81.0184 22.3727C81.7294 22.0289 82.538 21.8571 83.4442 21.8571C84.2958 21.8571 85.0497 21.9899 85.7059 22.2555C86.3622 22.5133 86.9091 22.8844 87.3466 23.3688C87.7841 23.8453 88.12 24.4078 88.3544 25.0563C88.5887 25.7047 88.7059 26.4117 88.7059 27.1774C88.7059 27.8024 88.6005 28.4547 88.3895 29.1344C88.1864 29.8141 87.8544 30.4391 87.3934 31.0094C86.9403 31.5797 86.3622 32.0446 85.6591 32.4039C84.9559 32.7633 84.1083 32.943 83.1161 32.943C82.0145 32.943 81.1005 32.7477 80.3739 32.3571C79.6552 31.9586 79.0809 31.4078 78.6512 30.7047C78.2294 30.0016 77.9325 29.15 77.7606 28.15C77.5966 27.15 77.5145 26.0328 77.5145 24.7985ZM79.3192 27.9742C79.3192 28.4352 79.4012 28.8844 79.5653 29.3219C79.7372 29.7516 79.9872 30.1344 80.3153 30.4703C80.6434 30.8063 81.038 31.0758 81.4989 31.2789C81.9677 31.4742 82.5067 31.5719 83.1161 31.5719C83.7098 31.5719 84.2411 31.4742 84.7098 31.2789C85.1786 31.0758 85.577 30.8063 85.9052 30.4703C86.2333 30.1344 86.4794 29.7516 86.6434 29.3219C86.8153 28.8844 86.9012 28.4352 86.9012 27.9742V26.5797C86.9012 26.1188 86.8153 25.6852 86.6434 25.2789C86.4794 24.8649 86.2333 24.5094 85.9052 24.2125C85.577 23.9156 85.1747 23.6813 84.6981 23.5094C84.2294 23.3297 83.702 23.2399 83.1161 23.2399C82.5067 23.2399 81.9677 23.3297 81.4989 23.5094C81.038 23.6813 80.6434 23.9156 80.3153 24.2125C79.9872 24.5094 79.7372 24.8649 79.5653 25.2789C79.4012 25.6852 79.3192 26.1188 79.3192 26.5797V27.9742Z" fill="#F5F5F5"/>
<path d="M40.9587 32.4039V31.8131H42.7068V26.9938H40.9587V26.403H42.7068V25.6022H43.3562V31.8131H44.9089V32.4039H40.9587Z" fill="#F5F5F5"/>
<path d="M12.2041 21.4918V20.901H13.9521V16.0817H12.2041V15.4908H13.9521V14.6901H14.6016V20.901H16.1543V21.4918H12.2041Z" fill="#F5F5F5"/>
<path d="M26.5813 21.4918V20.901H28.3293V16.0817H26.5813V15.4908H28.3293V14.6901H28.9788V20.901H30.5315V21.4918H26.5813Z" fill="#F5F5F5"/>
<path d="M40.4265 18.0934C40.4265 17.5986 40.4574 17.1347 40.5193 16.7018C40.5844 16.2688 40.7016 15.8929 40.8708 15.5739C41.0434 15.2516 41.2794 14.9993 41.5789 14.817C41.8783 14.6347 42.2641 14.5436 42.7361 14.5436C43.2081 14.5436 43.5938 14.6347 43.8933 14.817C44.196 14.9993 44.432 15.2516 44.6013 15.5739C44.7738 15.8929 44.891 16.2688 44.9529 16.7018C45.0147 17.1347 45.0457 17.5986 45.0457 18.0934C45.0457 18.5882 45.0147 19.052 44.9529 19.485C44.891 19.9147 44.7738 20.2906 44.6013 20.6129C44.432 20.9319 44.1977 21.1842 43.8982 21.3698C43.5987 21.552 43.2113 21.6432 42.7361 21.6432C42.2641 21.6432 41.8783 21.552 41.5789 21.3698C41.2794 21.1842 41.0434 20.9319 40.8708 20.6129C40.7016 20.2906 40.5844 19.913 40.5193 19.4801C40.4574 19.0472 40.4265 18.5849 40.4265 18.0934ZM41.1785 19.4215C41.1785 19.9228 41.3184 20.3199 41.5984 20.6129C41.8783 20.9059 42.2576 21.0524 42.7361 21.0524C43.2146 21.0524 43.5938 20.9059 43.8738 20.6129C44.157 20.3199 44.2986 19.9228 44.2986 19.4215V16.7604C44.2986 16.2591 44.1586 15.8619 43.8787 15.569C43.5987 15.276 43.2179 15.1295 42.7361 15.1295C42.2576 15.1295 41.8783 15.2776 41.5984 15.5739C41.3184 15.8668 41.1785 16.2623 41.1785 16.7604V19.4215Z" fill="#F5F5F5"/>
<path d="M12.2041 10.5797V9.98889H13.9521V5.16956H12.2041V4.57874H13.9521V3.77795H14.6016V9.98889H16.1543V10.5797H12.2041Z" fill="#F5F5F5"/>
<path d="M26.0491 7.18127C26.0491 6.68648 26.08 6.22262 26.1418 5.78967C26.2069 5.35673 26.3241 4.98075 26.4934 4.66174C26.6659 4.33948 26.9019 4.0872 27.2014 3.90491C27.5009 3.72262 27.8866 3.63147 28.3586 3.63147C28.8306 3.63147 29.2164 3.72262 29.5159 3.90491C29.8186 4.0872 30.0546 4.33948 30.2239 4.66174C30.3964 4.98075 30.5136 5.35673 30.5754 5.78967C30.6373 6.22262 30.6682 6.68648 30.6682 7.18127C30.6682 7.67607 30.6373 8.13993 30.5754 8.57288C30.5136 9.00256 30.3964 9.37854 30.2239 9.70081C30.0546 10.0198 29.8202 10.2721 29.5208 10.4576C29.2213 10.6399 28.8339 10.7311 28.3586 10.7311C27.8866 10.7311 27.5009 10.6399 27.2014 10.4576C26.9019 10.2721 26.6659 10.0198 26.4934 9.70081C26.3241 9.37854 26.2069 9.00094 26.1418 8.56799C26.08 8.13505 26.0491 7.67281 26.0491 7.18127ZM26.801 8.5094C26.801 9.0107 26.941 9.40784 27.2209 9.70081C27.5009 9.99377 27.8801 10.1403 28.3586 10.1403C28.8372 10.1403 29.2164 9.99377 29.4963 9.70081C29.7795 9.40784 29.9211 9.0107 29.9211 8.5094V5.84827C29.9211 5.34696 29.7812 4.94983 29.5012 4.65686C29.2213 4.36389 28.8404 4.21741 28.3586 4.21741C27.8801 4.21741 27.5009 4.36552 27.2209 4.66174C26.941 4.95471 26.801 5.35022 26.801 5.84827V8.5094Z" fill="#F5F5F5"/>
<path d="M40.9587 10.5797V9.98889H42.7068V5.16956H40.9587V4.57874H42.7068V3.77795H43.3562V9.98889H44.9089V10.5797H40.9587Z" fill="#F5F5F5"/>
<path d="M0.950928 0.551758V122.119" stroke="#F5F5F5" stroke-width="0.75"/>
<path d="M95.9192 0.551758V122.119" stroke="#F5F5F5" stroke-width="0.75"/>
<rect x="18.4351" y="82.119" width="20" height="20" fill="#F5F5F5"/>
<rect x="18.4351" y="102.119" width="20" height="20" fill="#F5F5F5"/>
<rect x="58.4351" y="62.119" width="20" height="20" fill="#F5F5F5"/>
<rect x="58.4351" y="102.119" width="20" height="20" fill="#F5F5F5"/>
<rect x="38.4351" y="82.119" width="20" height="20" fill="#F5F5F5"/>
<rect x="18.4351" y="62.119" width="20" height="20" fill="#F5F5F5"/>
</svg>
