<svg width="97" height="122" viewBox="0 0 97 122" fill="none" xmlns="http://www.w3.org/2000/svg">
<path d="M6.79077 35.0545V0.174316H8.97439V0.809762H7.49554V34.419H8.97439V35.0545H6.79077Z" fill="#F5F5F5"/>
<path d="M50.1843 35.0545V0.174316H48.0007V0.809762H49.4796V34.419H48.0007V35.0545H50.1843Z" fill="#F5F5F5"/>
<path d="M11.7986 28.6281C11.7986 28.1333 11.8295 27.6694 11.8914 27.2365C11.9565 26.8035 12.0736 26.4275 12.2429 26.1085C12.4154 25.7863 12.6514 25.534 12.9509 25.3517C13.2504 25.1694 13.6361 25.0782 14.1082 25.0782C14.5802 25.0782 14.9659 25.1694 15.2654 25.3517C15.5681 25.534 15.8041 25.7863 15.9734 26.1085C16.1459 26.4275 16.2631 26.8035 16.325 27.2365C16.3868 27.6694 16.4177 28.1333 16.4177 28.6281C16.4177 29.1228 16.3868 29.5867 16.325 30.0197C16.2631 30.4493 16.1459 30.8253 15.9734 31.1476C15.8041 31.4666 15.5697 31.7189 15.2703 31.9044C14.9708 32.0867 14.5834 32.1779 14.1082 32.1779C13.6361 32.1779 13.2504 32.0867 12.9509 31.9044C12.6514 31.7189 12.4154 31.4666 12.2429 31.1476C12.0736 30.8253 11.9565 30.4477 11.8914 30.0148C11.8295 29.5818 11.7986 29.1196 11.7986 28.6281ZM12.5505 29.9562C12.5505 30.4575 12.6905 30.8546 12.9705 31.1476C13.2504 31.4406 13.6296 31.587 14.1082 31.587C14.5867 31.587 14.9659 31.4406 15.2458 31.1476C15.5291 30.8546 15.6707 30.4575 15.6707 29.9562V27.295C15.6707 26.7937 15.5307 26.3966 15.2507 26.1036C14.9708 25.8107 14.5899 25.6642 14.1082 25.6642C13.6296 25.6642 13.2504 25.8123 12.9705 26.1085C12.6905 26.4015 12.5505 26.797 12.5505 27.295V29.9562Z" fill="#F5F5F5"/>
<path d="M26.1758 28.6281C26.1758 28.1333 26.2067 27.6694 26.2686 27.2365C26.3337 26.8035 26.4508 26.4275 26.6201 26.1085C26.7926 25.7863 27.0286 25.534 27.3281 25.3517C27.6276 25.1694 28.0133 25.0782 28.4854 25.0782C28.9574 25.0782 29.3431 25.1694 29.6426 25.3517C29.9453 25.534 30.1813 25.7863 30.3506 26.1085C30.5231 26.4275 30.6403 26.8035 30.7021 27.2365C30.764 27.6694 30.7949 28.1333 30.7949 28.6281C30.7949 29.1228 30.764 29.5867 30.7021 30.0197C30.6403 30.4493 30.5231 30.8253 30.3506 31.1476C30.1813 31.4666 29.9469 31.7189 29.6475 31.9044C29.348 32.0867 28.9606 32.1779 28.4854 32.1779C28.0133 32.1779 27.6276 32.0867 27.3281 31.9044C27.0286 31.7189 26.7926 31.4666 26.6201 31.1476C26.4508 30.8253 26.3337 30.4477 26.2686 30.0148C26.2067 29.5818 26.1758 29.1196 26.1758 28.6281ZM26.9277 29.9562C26.9277 30.4575 27.0677 30.8546 27.3477 31.1476C27.6276 31.4406 28.0068 31.587 28.4854 31.587C28.9639 31.587 29.3431 31.4406 29.623 31.1476C29.9062 30.8546 30.0479 30.4575 30.0479 29.9562V27.295C30.0479 26.7937 29.9079 26.3966 29.6279 26.1036C29.348 25.8107 28.9671 25.6642 28.4854 25.6642C28.0068 25.6642 27.6276 25.8123 27.3477 26.1085C27.0677 26.4015 26.9277 26.797 26.9277 27.295V29.9562Z" fill="#F5F5F5"/>
<path d="M78.2506 32.2023V15.8781H79.9264V32.2023H78.2506ZM79.9733 23.5187L87.0045 15.8781H89.2428L82.0123 23.5187L89.7701 32.2023H87.6608L79.9733 23.5187Z" fill="#F5F5F5"/>
<path d="M40.5532 28.6281C40.5532 28.1333 40.5841 27.6694 40.646 27.2365C40.7111 26.8035 40.8283 26.4275 40.9976 26.1085C41.1701 25.7863 41.4061 25.534 41.7056 25.3517C42.005 25.1694 42.3908 25.0782 42.8628 25.0782C43.3348 25.0782 43.7205 25.1694 44.02 25.3517C44.3228 25.534 44.5588 25.7863 44.728 26.1085C44.9006 26.4275 45.0177 26.8035 45.0796 27.2365C45.1414 27.6694 45.1724 28.1333 45.1724 28.6281C45.1724 29.1228 45.1414 29.5867 45.0796 30.0197C45.0177 30.4493 44.9006 30.8253 44.728 31.1476C44.5588 31.4666 44.3244 31.7189 44.0249 31.9044C43.7254 32.0867 43.3381 32.1779 42.8628 32.1779C42.3908 32.1779 42.005 32.0867 41.7056 31.9044C41.4061 31.7189 41.1701 31.4666 40.9976 31.1476C40.8283 30.8253 40.7111 30.4477 40.646 30.0148C40.5841 29.5818 40.5532 29.1196 40.5532 28.6281ZM41.3052 29.9562C41.3052 30.4575 41.4451 30.8546 41.7251 31.1476C42.005 31.4406 42.3843 31.587 42.8628 31.587C43.3413 31.587 43.7205 31.4406 44.0005 31.1476C44.2837 30.8546 44.4253 30.4575 44.4253 29.9562V27.295C44.4253 26.7937 44.2853 26.3966 44.0054 26.1036C43.7254 25.8107 43.3446 25.6642 42.8628 25.6642C42.3843 25.6642 42.005 25.8123 41.7251 26.1085C41.4451 26.4015 41.3052 26.797 41.3052 27.295V29.9562Z" fill="#F5F5F5"/>
<path d="M11.7986 17.7159C11.7986 17.2212 11.8295 16.7573 11.8914 16.3243C11.9565 15.8914 12.0736 15.5154 12.2429 15.1964C12.4154 14.8741 12.6514 14.6219 12.9509 14.4396C13.2504 14.2573 13.6361 14.1661 14.1082 14.1661C14.5802 14.1661 14.9659 14.2573 15.2654 14.4396C15.5681 14.6219 15.8041 14.8741 15.9734 15.1964C16.1459 15.5154 16.2631 15.8914 16.325 16.3243C16.3868 16.7573 16.4177 17.2212 16.4177 17.7159C16.4177 18.2107 16.3868 18.6746 16.325 19.1075C16.2631 19.5372 16.1459 19.9132 15.9734 20.2355C15.8041 20.5545 15.5697 20.8068 15.2703 20.9923C14.9708 21.1746 14.5834 21.2657 14.1082 21.2657C13.6361 21.2657 13.2504 21.1746 12.9509 20.9923C12.6514 20.8068 12.4154 20.5545 12.2429 20.2355C12.0736 19.9132 11.9565 19.5356 11.8914 19.1027C11.8295 18.6697 11.7986 18.2075 11.7986 17.7159ZM12.5505 19.0441C12.5505 19.5454 12.6905 19.9425 12.9705 20.2355C13.2504 20.5284 13.6296 20.6749 14.1082 20.6749C14.5867 20.6749 14.9659 20.5284 15.2458 20.2355C15.5291 19.9425 15.6707 19.5454 15.6707 19.0441V16.3829C15.6707 15.8816 15.5307 15.4845 15.2507 15.1915C14.9708 14.8986 14.5899 14.7521 14.1082 14.7521C13.6296 14.7521 13.2504 14.9002 12.9705 15.1964C12.6905 15.4894 12.5505 15.8849 12.5505 16.3829V19.0441Z" fill="#F5F5F5"/>
<path d="M26.708 21.1144V20.5236H28.4561V15.7042H26.708V15.1134H28.4561V14.3126H29.1055V20.5236H30.6582V21.1144H26.708Z" fill="#F5F5F5"/>
<path d="M40.5532 17.7159C40.5532 17.2212 40.5841 16.7573 40.646 16.3243C40.7111 15.8914 40.8283 15.5154 40.9976 15.1964C41.1701 14.8741 41.4061 14.6219 41.7056 14.4396C42.005 14.2573 42.3908 14.1661 42.8628 14.1661C43.3348 14.1661 43.7205 14.2573 44.02 14.4396C44.3228 14.6219 44.5588 14.8741 44.728 15.1964C44.9006 15.5154 45.0177 15.8914 45.0796 16.3243C45.1414 16.7573 45.1724 17.2212 45.1724 17.7159C45.1724 18.2107 45.1414 18.6746 45.0796 19.1075C45.0177 19.5372 44.9006 19.9132 44.728 20.2355C44.5588 20.5545 44.3244 20.8068 44.0249 20.9923C43.7254 21.1746 43.3381 21.2657 42.8628 21.2657C42.3908 21.2657 42.005 21.1746 41.7056 20.9923C41.4061 20.8068 41.1701 20.5545 40.9976 20.2355C40.8283 19.9132 40.7111 19.5356 40.646 19.1027C40.5841 18.6697 40.5532 18.2075 40.5532 17.7159ZM41.3052 19.0441C41.3052 19.5454 41.4451 19.9425 41.7251 20.2355C42.005 20.5284 42.3843 20.6749 42.8628 20.6749C43.3413 20.6749 43.7205 20.5284 44.0005 20.2355C44.2837 19.9425 44.4253 19.5454 44.4253 19.0441V16.3829C44.4253 15.8816 44.2853 15.4845 44.0054 15.1915C43.7254 14.8986 43.3446 14.7521 42.8628 14.7521C42.3843 14.7521 42.005 14.9002 41.7251 15.1964C41.4451 15.4894 41.3052 15.8849 41.3052 16.3829V19.0441Z" fill="#F5F5F5"/>
<path d="M11.7986 6.80383C11.7986 6.30904 11.8295 5.84517 11.8914 5.41223C11.9565 4.97929 12.0736 4.60331 12.2429 4.2843C12.4154 3.96204 12.6514 3.70976 12.9509 3.52747C13.2504 3.34517 13.6361 3.25403 14.1082 3.25403C14.5802 3.25403 14.9659 3.34517 15.2654 3.52747C15.5681 3.70976 15.8041 3.96204 15.9734 4.2843C16.1459 4.60331 16.2631 4.97929 16.325 5.41223C16.3868 5.84517 16.4177 6.30904 16.4177 6.80383C16.4177 7.29862 16.3868 7.76249 16.325 8.19543C16.2631 8.62512 16.1459 9.0011 15.9734 9.32336C15.8041 9.64237 15.5697 9.89465 15.2703 10.0802C14.9708 10.2625 14.5834 10.3536 14.1082 10.3536C13.6361 10.3536 13.2504 10.2625 12.9509 10.0802C12.6514 9.89465 12.4154 9.64237 12.2429 9.32336C12.0736 9.0011 11.9565 8.62349 11.8914 8.19055C11.8295 7.75761 11.7986 7.29537 11.7986 6.80383ZM12.5505 8.13196C12.5505 8.63326 12.6905 9.0304 12.9705 9.32336C13.2504 9.61633 13.6296 9.76282 14.1082 9.76282C14.5867 9.76282 14.9659 9.61633 15.2458 9.32336C15.5291 9.0304 15.6707 8.63326 15.6707 8.13196V5.47083C15.6707 4.96952 15.5307 4.57239 15.2507 4.27942C14.9708 3.98645 14.5899 3.83997 14.1082 3.83997C13.6296 3.83997 13.2504 3.98808 12.9705 4.2843C12.6905 4.57727 12.5505 4.97278 12.5505 5.47083V8.13196Z" fill="#F5F5F5"/>
<path d="M26.1758 6.80383C26.1758 6.30904 26.2067 5.84517 26.2686 5.41223C26.3337 4.97929 26.4508 4.60331 26.6201 4.2843C26.7926 3.96204 27.0286 3.70976 27.3281 3.52747C27.6276 3.34517 28.0133 3.25403 28.4854 3.25403C28.9574 3.25403 29.3431 3.34517 29.6426 3.52747C29.9453 3.70976 30.1813 3.96204 30.3506 4.2843C30.5231 4.60331 30.6403 4.97929 30.7021 5.41223C30.764 5.84517 30.7949 6.30904 30.7949 6.80383C30.7949 7.29862 30.764 7.76249 30.7021 8.19543C30.6403 8.62512 30.5231 9.0011 30.3506 9.32336C30.1813 9.64237 29.9469 9.89465 29.6475 10.0802C29.348 10.2625 28.9606 10.3536 28.4854 10.3536C28.0133 10.3536 27.6276 10.2625 27.3281 10.0802C27.0286 9.89465 26.7926 9.64237 26.6201 9.32336C26.4508 9.0011 26.3337 8.62349 26.2686 8.19055C26.2067 7.75761 26.1758 7.29537 26.1758 6.80383ZM26.9277 8.13196C26.9277 8.63326 27.0677 9.0304 27.3477 9.32336C27.6276 9.61633 28.0068 9.76282 28.4854 9.76282C28.9639 9.76282 29.3431 9.61633 29.623 9.32336C29.9062 9.0304 30.0479 8.63326 30.0479 8.13196V5.47083C30.0479 4.96952 29.9079 4.57239 29.6279 4.27942C29.348 3.98645 28.9671 3.83997 28.4854 3.83997C28.0068 3.83997 27.6276 3.98808 27.3477 4.2843C27.0677 4.57727 26.9277 4.97278 26.9277 5.47083V8.13196Z" fill="#F5F5F5"/>
<path d="M41.0854 10.2023V9.61145H42.8335V4.79211H41.0854V4.20129H42.8335V3.40051H43.4829V9.61145H45.0356V10.2023H41.0854Z" fill="#F5F5F5"/>
<path d="M1.07764 0.174316V121.742" stroke="#F5F5F5" stroke-width="0.75"/>
<path d="M96.0459 0.174316V121.742" stroke="#F5F5F5" stroke-width="0.75"/>
<rect x="58.5618" y="61.7416" width="20" height="20" fill="#F5F5F5"/>
<rect x="38.5618" y="81.7416" width="20" height="20" fill="#F5F5F5"/>
</svg>
