<svg width="97" height="122" viewBox="0 0 97 122" fill="none" xmlns="http://www.w3.org/2000/svg">
<path d="M6.82251 35.0474V0.167236H9.00613V0.802682H7.52728V34.412H9.00613V35.0474H6.82251Z" fill="#F5F5F5"/>
<path d="M50.2161 35.0474V0.167236H48.0324V0.802682H49.5113V34.412H48.0324V35.0474H50.2161Z" fill="#F5F5F5"/>
<path d="M11.8303 28.621C11.8303 28.1262 11.8612 27.6623 11.9231 27.2294C11.9882 26.7964 12.1054 26.4205 12.2747 26.1014C12.4472 25.7792 12.6832 25.5269 12.9827 25.3446C13.2821 25.1623 13.6679 25.0712 14.1399 25.0712C14.6119 25.0712 14.9976 25.1623 15.2971 25.3446C15.5999 25.5269 15.8359 25.7792 16.0051 26.1014C16.1777 26.4205 16.2948 26.7964 16.3567 27.2294C16.4185 27.6623 16.4495 28.1262 16.4495 28.621C16.4495 29.1158 16.4185 29.5796 16.3567 30.0126C16.2948 30.4423 16.1777 30.8182 16.0051 31.1405C15.8359 31.4595 15.6015 31.7118 15.302 31.8973C15.0025 32.0796 14.6152 32.1708 14.1399 32.1708C13.6679 32.1708 13.2821 32.0796 12.9827 31.8973C12.6832 31.7118 12.4472 31.4595 12.2747 31.1405C12.1054 30.8182 11.9882 30.4406 11.9231 30.0077C11.8612 29.5747 11.8303 29.1125 11.8303 28.621ZM12.5823 29.9491C12.5823 30.4504 12.7222 30.8475 13.0022 31.1405C13.2821 31.4335 13.6614 31.58 14.1399 31.58C14.6184 31.58 14.9976 31.4335 15.2776 31.1405C15.5608 30.8475 15.7024 30.4504 15.7024 29.9491V27.288C15.7024 26.7867 15.5624 26.3895 15.2825 26.0966C15.0025 25.8036 14.6217 25.6571 14.1399 25.6571C13.6614 25.6571 13.2821 25.8052 13.0022 26.1014C12.7222 26.3944 12.5823 26.7899 12.5823 27.288V29.9491Z" fill="#F5F5F5"/>
<path d="M26.7397 32.0194V31.4286H28.4878V26.6093H26.7397V26.0184H28.4878V25.2177H29.1372V31.4286H30.6899V32.0194H26.7397Z" fill="#F5F5F5"/>
<path d="M76.2316 32.1952L81.8683 15.871H83.9073L89.5441 32.1952H87.7511L86.3097 27.953H79.4425L78.0011 32.1952H76.2316ZM79.923 26.5116H85.8292L82.9464 17.746H82.8527L79.923 26.5116Z" fill="#F5F5F5"/>
<path d="M40.585 28.621C40.585 28.1262 40.6159 27.6623 40.6777 27.2294C40.7428 26.7964 40.86 26.4205 41.0293 26.1014C41.2018 25.7792 41.4378 25.5269 41.7373 25.3446C42.0368 25.1623 42.4225 25.0712 42.8945 25.0712C43.3665 25.0712 43.7523 25.1623 44.0518 25.3446C44.3545 25.5269 44.5905 25.7792 44.7598 26.1014C44.9323 26.4205 45.0495 26.7964 45.1113 27.2294C45.1732 27.6623 45.2041 28.1262 45.2041 28.621C45.2041 29.1158 45.1732 29.5796 45.1113 30.0126C45.0495 30.4423 44.9323 30.8182 44.7598 31.1405C44.5905 31.4595 44.3561 31.7118 44.0566 31.8973C43.7572 32.0796 43.3698 32.1708 42.8945 32.1708C42.4225 32.1708 42.0368 32.0796 41.7373 31.8973C41.4378 31.7118 41.2018 31.4595 41.0293 31.1405C40.86 30.8182 40.7428 30.4406 40.6777 30.0077C40.6159 29.5747 40.585 29.1125 40.585 28.621ZM41.3369 29.9491C41.3369 30.4504 41.4769 30.8475 41.7568 31.1405C42.0368 31.4335 42.416 31.58 42.8945 31.58C43.373 31.58 43.7523 31.4335 44.0322 31.1405C44.3154 30.8475 44.457 30.4504 44.457 29.9491V27.288C44.457 26.7867 44.3171 26.3895 44.0371 26.0966C43.7572 25.8036 43.3763 25.6571 42.8945 25.6571C42.416 25.6571 42.0368 25.8052 41.7568 26.1014C41.4769 26.3944 41.3369 26.7899 41.3369 27.288V29.9491Z" fill="#F5F5F5"/>
<path d="M11.8303 17.7089C11.8303 17.2141 11.8612 16.7502 11.9231 16.3173C11.9882 15.8843 12.1054 15.5083 12.2747 15.1893C12.4472 14.8671 12.6832 14.6148 12.9827 14.4325C13.2821 14.2502 13.6679 14.1591 14.1399 14.1591C14.6119 14.1591 14.9976 14.2502 15.2971 14.4325C15.5999 14.6148 15.8359 14.8671 16.0051 15.1893C16.1777 15.5083 16.2948 15.8843 16.3567 16.3173C16.4185 16.7502 16.4495 17.2141 16.4495 17.7089C16.4495 18.2037 16.4185 18.6675 16.3567 19.1005C16.2948 19.5302 16.1777 19.9061 16.0051 20.2284C15.8359 20.5474 15.6015 20.7997 15.302 20.9852C15.0025 21.1675 14.6152 21.2587 14.1399 21.2587C13.6679 21.2587 13.2821 21.1675 12.9827 20.9852C12.6832 20.7997 12.4472 20.5474 12.2747 20.2284C12.1054 19.9061 11.9882 19.5285 11.9231 19.0956C11.8612 18.6626 11.8303 18.2004 11.8303 17.7089ZM12.5823 19.037C12.5823 19.5383 12.7222 19.9354 13.0022 20.2284C13.2821 20.5214 13.6614 20.6678 14.1399 20.6678C14.6184 20.6678 14.9976 20.5214 15.2776 20.2284C15.5608 19.9354 15.7024 19.5383 15.7024 19.037V16.3759C15.7024 15.8746 15.5624 15.4774 15.2825 15.1844C15.0025 14.8915 14.6217 14.745 14.1399 14.745C13.6614 14.745 13.2821 14.8931 13.0022 15.1893C12.7222 15.4823 12.5823 15.8778 12.5823 16.3759V19.037Z" fill="#F5F5F5"/>
<path d="M26.2075 17.7089C26.2075 17.2141 26.2384 16.7502 26.3003 16.3173C26.3654 15.8843 26.4826 15.5083 26.6519 15.1893C26.8244 14.8671 27.0604 14.6148 27.3599 14.4325C27.6593 14.2502 28.0451 14.1591 28.5171 14.1591C28.9891 14.1591 29.3748 14.2502 29.6743 14.4325C29.9771 14.6148 30.2131 14.8671 30.3823 15.1893C30.5549 15.5083 30.672 15.8843 30.7339 16.3173C30.7957 16.7502 30.8267 17.2141 30.8267 17.7089C30.8267 18.2037 30.7957 18.6675 30.7339 19.1005C30.672 19.5302 30.5549 19.9061 30.3823 20.2284C30.2131 20.5474 29.9787 20.7997 29.6792 20.9852C29.3797 21.1675 28.9924 21.2587 28.5171 21.2587C28.0451 21.2587 27.6593 21.1675 27.3599 20.9852C27.0604 20.7997 26.8244 20.5474 26.6519 20.2284C26.4826 19.9061 26.3654 19.5285 26.3003 19.0956C26.2384 18.6626 26.2075 18.2004 26.2075 17.7089ZM26.9595 19.037C26.9595 19.5383 27.0994 19.9354 27.3794 20.2284C27.6593 20.5214 28.0386 20.6678 28.5171 20.6678C28.9956 20.6678 29.3748 20.5214 29.6548 20.2284C29.938 19.9354 30.0796 19.5383 30.0796 19.037V16.3759C30.0796 15.8746 29.9396 15.4774 29.6597 15.1844C29.3797 14.8915 28.9989 14.745 28.5171 14.745C28.0386 14.745 27.6593 14.8931 27.3794 15.1893C27.0994 15.4823 26.9595 15.8778 26.9595 16.3759V19.037Z" fill="#F5F5F5"/>
<path d="M40.585 17.7089C40.585 17.2141 40.6159 16.7502 40.6777 16.3173C40.7428 15.8843 40.86 15.5083 41.0293 15.1893C41.2018 14.8671 41.4378 14.6148 41.7373 14.4325C42.0368 14.2502 42.4225 14.1591 42.8945 14.1591C43.3665 14.1591 43.7523 14.2502 44.0518 14.4325C44.3545 14.6148 44.5905 14.8671 44.7598 15.1893C44.9323 15.5083 45.0495 15.8843 45.1113 16.3173C45.1732 16.7502 45.2041 17.2141 45.2041 17.7089C45.2041 18.2037 45.1732 18.6675 45.1113 19.1005C45.0495 19.5302 44.9323 19.9061 44.7598 20.2284C44.5905 20.5474 44.3561 20.7997 44.0566 20.9852C43.7572 21.1675 43.3698 21.2587 42.8945 21.2587C42.4225 21.2587 42.0368 21.1675 41.7373 20.9852C41.4378 20.7997 41.2018 20.5474 41.0293 20.2284C40.86 19.9061 40.7428 19.5285 40.6777 19.0956C40.6159 18.6626 40.585 18.2004 40.585 17.7089ZM41.3369 19.037C41.3369 19.5383 41.4769 19.9354 41.7568 20.2284C42.0368 20.5214 42.416 20.6678 42.8945 20.6678C43.373 20.6678 43.7523 20.5214 44.0322 20.2284C44.3154 19.9354 44.457 19.5383 44.457 19.037V16.3759C44.457 15.8746 44.3171 15.4774 44.0371 15.1844C43.7572 14.8915 43.3763 14.745 42.8945 14.745C42.416 14.745 42.0368 14.8931 41.7568 15.1893C41.4769 15.4823 41.3369 15.8778 41.3369 16.3759V19.037Z" fill="#F5F5F5"/>
<path d="M11.8303 6.79675C11.8303 6.30196 11.8612 5.83809 11.9231 5.40515C11.9882 4.97221 12.1054 4.59623 12.2747 4.27722C12.4472 3.95496 12.6832 3.70268 12.9827 3.52039C13.2821 3.33809 13.6679 3.24695 14.1399 3.24695C14.6119 3.24695 14.9976 3.33809 15.2971 3.52039C15.5999 3.70268 15.8359 3.95496 16.0051 4.27722C16.1777 4.59623 16.2948 4.97221 16.3567 5.40515C16.4185 5.83809 16.4495 6.30196 16.4495 6.79675C16.4495 7.29154 16.4185 7.75541 16.3567 8.18835C16.2948 8.61804 16.1777 8.99402 16.0051 9.31628C15.8359 9.63529 15.6015 9.88757 15.302 10.0731C15.0025 10.2554 14.6152 10.3466 14.1399 10.3466C13.6679 10.3466 13.2821 10.2554 12.9827 10.0731C12.6832 9.88757 12.4472 9.63529 12.2747 9.31628C12.1054 8.99402 11.9882 8.61641 11.9231 8.18347C11.8612 7.75053 11.8303 7.28829 11.8303 6.79675ZM12.5823 8.12488C12.5823 8.62618 12.7222 9.02332 13.0022 9.31628C13.2821 9.60925 13.6614 9.75574 14.1399 9.75574C14.6184 9.75574 14.9976 9.60925 15.2776 9.31628C15.5608 9.02332 15.7024 8.62618 15.7024 8.12488V5.46375C15.7024 4.96244 15.5624 4.56531 15.2825 4.27234C15.0025 3.97937 14.6217 3.83289 14.1399 3.83289C13.6614 3.83289 13.2821 3.981 13.0022 4.27722C12.7222 4.57019 12.5823 4.9657 12.5823 5.46375V8.12488Z" fill="#F5F5F5"/>
<path d="M26.2075 6.79675C26.2075 6.30196 26.2384 5.83809 26.3003 5.40515C26.3654 4.97221 26.4826 4.59623 26.6519 4.27722C26.8244 3.95496 27.0604 3.70268 27.3599 3.52039C27.6593 3.33809 28.0451 3.24695 28.5171 3.24695C28.9891 3.24695 29.3748 3.33809 29.6743 3.52039C29.9771 3.70268 30.2131 3.95496 30.3823 4.27722C30.5549 4.59623 30.672 4.97221 30.7339 5.40515C30.7957 5.83809 30.8267 6.30196 30.8267 6.79675C30.8267 7.29154 30.7957 7.75541 30.7339 8.18835C30.672 8.61804 30.5549 8.99402 30.3823 9.31628C30.2131 9.63529 29.9787 9.88757 29.6792 10.0731C29.3797 10.2554 28.9924 10.3466 28.5171 10.3466C28.0451 10.3466 27.6593 10.2554 27.3599 10.0731C27.0604 9.88757 26.8244 9.63529 26.6519 9.31628C26.4826 8.99402 26.3654 8.61641 26.3003 8.18347C26.2384 7.75053 26.2075 7.28829 26.2075 6.79675ZM26.9595 8.12488C26.9595 8.62618 27.0994 9.02332 27.3794 9.31628C27.6593 9.60925 28.0386 9.75574 28.5171 9.75574C28.9956 9.75574 29.3748 9.60925 29.6548 9.31628C29.938 9.02332 30.0796 8.62618 30.0796 8.12488V5.46375C30.0796 4.96244 29.9396 4.56531 29.6597 4.27234C29.3797 3.97937 28.9989 3.83289 28.5171 3.83289C28.0386 3.83289 27.6593 3.981 27.3794 4.27722C27.0994 4.57019 26.9595 4.9657 26.9595 5.46375V8.12488Z" fill="#F5F5F5"/>
<path d="M41.1172 10.1952V9.60437H42.8652V4.78503H41.1172V4.19421H42.8652V3.39343H43.5146V9.60437H45.0674V10.1952H41.1172Z" fill="#F5F5F5"/>
<path d="M1.10938 0.167236V121.735" stroke="#F5F5F5" stroke-width="0.75"/>
<path d="M96.0776 0.167236V121.735" stroke="#F5F5F5" stroke-width="0.75"/>
<rect x="58.4233" y="61.7345" width="20" height="20" fill="#F5F5F5"/>
<rect x="38.4233" y="101.734" width="20" height="20" fill="#F5F5F5"/>
</svg>
