<svg width="97" height="122" viewBox="0 0 97 122" fill="none" xmlns="http://www.w3.org/2000/svg">
<path d="M6.91772 35.2781V0.397949H9.10135V1.03339H7.62249V34.6427H9.10135V35.2781H6.91772Z" fill="#F5F5F5"/>
<path d="M50.3113 35.2781V0.397949H48.1277V1.03339H49.6065V34.6427H48.1277V35.2781H50.3113Z" fill="#F5F5F5"/>
<path d="M11.9255 28.8517C11.9255 28.3569 11.9565 27.893 12.0183 27.4601C12.0834 27.0271 12.2006 26.6512 12.3699 26.3322C12.5424 26.0099 12.7784 25.7576 13.0779 25.5753C13.3774 25.393 13.7631 25.3019 14.2351 25.3019C14.7071 25.3019 15.0929 25.393 15.3923 25.5753C15.6951 25.7576 15.9311 26.0099 16.1003 26.3322C16.2729 26.6512 16.3901 27.0271 16.4519 27.4601C16.5138 27.893 16.5447 28.3569 16.5447 28.8517C16.5447 29.3465 16.5138 29.8103 16.4519 30.2433C16.3901 30.673 16.2729 31.049 16.1003 31.3712C15.9311 31.6902 15.6967 31.9425 15.3972 32.1281C15.0977 32.3103 14.7104 32.4015 14.2351 32.4015C13.7631 32.4015 13.3774 32.3103 13.0779 32.1281C12.7784 31.9425 12.5424 31.6902 12.3699 31.3712C12.2006 31.049 12.0834 30.6713 12.0183 30.2384C11.9565 29.8055 11.9255 29.3432 11.9255 28.8517ZM12.6775 30.1798C12.6775 30.6811 12.8175 31.0782 13.0974 31.3712C13.3774 31.6642 13.7566 31.8107 14.2351 31.8107C14.7136 31.8107 15.0929 31.6642 15.3728 31.3712C15.656 31.0782 15.7976 30.6811 15.7976 30.1798V27.5187C15.7976 27.0174 15.6576 26.6202 15.3777 26.3273C15.0977 26.0343 14.7169 25.8878 14.2351 25.8878C13.7566 25.8878 13.3774 26.0359 13.0974 26.3322C12.8175 26.6251 12.6775 27.0206 12.6775 27.5187V30.1798Z" fill="#F5F5F5"/>
<path d="M26.835 32.2501V31.6593H28.583V26.84H26.835V26.2491H28.583V25.4484H29.2324V31.6593H30.7852V32.2501H26.835Z" fill="#F5F5F5"/>
<path d="M86.4987 32.4259V30.3868H88.5377V32.4259L87.3658 34.465H86.4987L87.6002 32.4259H86.4987Z" fill="#F5F5F5"/>
<path d="M40.6802 28.8517C40.6802 28.3569 40.7111 27.893 40.7729 27.4601C40.8381 27.0271 40.9552 26.6512 41.1245 26.3322C41.297 26.0099 41.533 25.7576 41.8325 25.5753C42.132 25.393 42.5177 25.3019 42.9897 25.3019C43.4618 25.3019 43.8475 25.393 44.147 25.5753C44.4497 25.7576 44.6857 26.0099 44.855 26.3322C45.0275 26.6512 45.1447 27.0271 45.2065 27.4601C45.2684 27.893 45.2993 28.3569 45.2993 28.8517C45.2993 29.3465 45.2684 29.8103 45.2065 30.2433C45.1447 30.673 45.0275 31.049 44.855 31.3712C44.6857 31.6902 44.4513 31.9425 44.1519 32.1281C43.8524 32.3103 43.465 32.4015 42.9897 32.4015C42.5177 32.4015 42.132 32.3103 41.8325 32.1281C41.533 31.9425 41.297 31.6902 41.1245 31.3712C40.9552 31.049 40.8381 30.6713 40.7729 30.2384C40.7111 29.8055 40.6802 29.3432 40.6802 28.8517ZM41.4321 30.1798C41.4321 30.6811 41.5721 31.0782 41.8521 31.3712C42.132 31.6642 42.5112 31.8107 42.9897 31.8107C43.4683 31.8107 43.8475 31.6642 44.1274 31.3712C44.4106 31.0782 44.5522 30.6811 44.5522 30.1798V27.5187C44.5522 27.0174 44.4123 26.6202 44.1323 26.3273C43.8524 26.0343 43.4715 25.8878 42.9897 25.8878C42.5112 25.8878 42.132 26.0359 41.8521 26.3322C41.5721 26.6251 41.4321 27.0206 41.4321 27.5187V30.1798Z" fill="#F5F5F5"/>
<path d="M11.9255 17.9396C11.9255 17.4448 11.9565 16.9809 12.0183 16.548C12.0834 16.115 12.2006 15.7391 12.3699 15.42C12.5424 15.0978 12.7784 14.8455 13.0779 14.6632C13.3774 14.4809 13.7631 14.3898 14.2351 14.3898C14.7071 14.3898 15.0929 14.4809 15.3923 14.6632C15.6951 14.8455 15.9311 15.0978 16.1003 15.42C16.2729 15.7391 16.3901 16.115 16.4519 16.548C16.5138 16.9809 16.5447 17.4448 16.5447 17.9396C16.5447 18.4344 16.5138 18.8982 16.4519 19.3312C16.3901 19.7609 16.2729 20.1368 16.1003 20.4591C15.9311 20.7781 15.6967 21.0304 15.3972 21.2159C15.0977 21.3982 14.7104 21.4894 14.2351 21.4894C13.7631 21.4894 13.3774 21.3982 13.0779 21.2159C12.7784 21.0304 12.5424 20.7781 12.3699 20.4591C12.2006 20.1368 12.0834 19.7592 12.0183 19.3263C11.9565 18.8934 11.9255 18.4311 11.9255 17.9396ZM12.6775 19.2677C12.6775 19.769 12.8175 20.1661 13.0974 20.4591C13.3774 20.7521 13.7566 20.8986 14.2351 20.8986C14.7136 20.8986 15.0929 20.7521 15.3728 20.4591C15.656 20.1661 15.7976 19.769 15.7976 19.2677V16.6066C15.7976 16.1053 15.6576 15.7081 15.3777 15.4152C15.0977 15.1222 14.7169 14.9757 14.2351 14.9757C13.7566 14.9757 13.3774 15.1238 13.0974 15.42C12.8175 15.713 12.6775 16.1085 12.6775 16.6066V19.2677Z" fill="#F5F5F5"/>
<path d="M26.835 21.338V20.7472H28.583V15.9279H26.835V15.337H28.583V14.5363H29.2324V20.7472H30.7852V21.338H26.835Z" fill="#F5F5F5"/>
<path d="M40.6802 17.9396C40.6802 17.4448 40.7111 16.9809 40.7729 16.548C40.8381 16.115 40.9552 15.7391 41.1245 15.42C41.297 15.0978 41.533 14.8455 41.8325 14.6632C42.132 14.4809 42.5177 14.3898 42.9897 14.3898C43.4618 14.3898 43.8475 14.4809 44.147 14.6632C44.4497 14.8455 44.6857 15.0978 44.855 15.42C45.0275 15.7391 45.1447 16.115 45.2065 16.548C45.2684 16.9809 45.2993 17.4448 45.2993 17.9396C45.2993 18.4344 45.2684 18.8982 45.2065 19.3312C45.1447 19.7609 45.0275 20.1368 44.855 20.4591C44.6857 20.7781 44.4513 21.0304 44.1519 21.2159C43.8524 21.3982 43.465 21.4894 42.9897 21.4894C42.5177 21.4894 42.132 21.3982 41.8325 21.2159C41.533 21.0304 41.297 20.7781 41.1245 20.4591C40.9552 20.1368 40.8381 19.7592 40.7729 19.3263C40.7111 18.8934 40.6802 18.4311 40.6802 17.9396ZM41.4321 19.2677C41.4321 19.769 41.5721 20.1661 41.8521 20.4591C42.132 20.7521 42.5112 20.8986 42.9897 20.8986C43.4683 20.8986 43.8475 20.7521 44.1274 20.4591C44.4106 20.1661 44.5522 19.769 44.5522 19.2677V16.6066C44.5522 16.1053 44.4123 15.7081 44.1323 15.4152C43.8524 15.1222 43.4715 14.9757 42.9897 14.9757C42.5112 14.9757 42.132 15.1238 41.8521 15.42C41.5721 15.713 41.4321 16.1085 41.4321 16.6066V19.2677Z" fill="#F5F5F5"/>
<path d="M11.9255 7.02747C11.9255 6.53267 11.9565 6.06881 12.0183 5.63586C12.0834 5.20292 12.2006 4.82694 12.3699 4.50793C12.5424 4.18567 12.7784 3.93339 13.0779 3.7511C13.3774 3.56881 13.7631 3.47766 14.2351 3.47766C14.7071 3.47766 15.0929 3.56881 15.3923 3.7511C15.6951 3.93339 15.9311 4.18567 16.1003 4.50793C16.2729 4.82694 16.3901 5.20292 16.4519 5.63586C16.5138 6.06881 16.5447 6.53267 16.5447 7.02747C16.5447 7.52226 16.5138 7.98612 16.4519 8.41907C16.3901 8.84875 16.2729 9.22473 16.1003 9.547C15.9311 9.86601 15.6967 10.1183 15.3972 10.3038C15.0977 10.4861 14.7104 10.5773 14.2351 10.5773C13.7631 10.5773 13.3774 10.4861 13.0779 10.3038C12.7784 10.1183 12.5424 9.86601 12.3699 9.547C12.2006 9.22473 12.0834 8.84713 12.0183 8.41418C11.9565 7.98124 11.9255 7.519 11.9255 7.02747ZM12.6775 8.35559C12.6775 8.85689 12.8175 9.25403 13.0974 9.547C13.3774 9.83997 13.7566 9.98645 14.2351 9.98645C14.7136 9.98645 15.0929 9.83997 15.3728 9.547C15.656 9.25403 15.7976 8.85689 15.7976 8.35559V5.69446C15.7976 5.19316 15.6576 4.79602 15.3777 4.50305C15.0977 4.21008 14.7169 4.0636 14.2351 4.0636C13.7566 4.0636 13.3774 4.21171 13.0974 4.50793C12.8175 4.8009 12.6775 5.19641 12.6775 5.69446V8.35559Z" fill="#F5F5F5"/>
<path d="M26.3027 7.02747C26.3027 6.53267 26.3337 6.06881 26.3955 5.63586C26.4606 5.20292 26.5778 4.82694 26.7471 4.50793C26.9196 4.18567 27.1556 3.93339 27.4551 3.7511C27.7546 3.56881 28.1403 3.47766 28.6123 3.47766C29.0843 3.47766 29.4701 3.56881 29.7695 3.7511C30.0723 3.93339 30.3083 4.18567 30.4775 4.50793C30.6501 4.82694 30.7673 5.20292 30.8291 5.63586C30.891 6.06881 30.9219 6.53267 30.9219 7.02747C30.9219 7.52226 30.891 7.98612 30.8291 8.41907C30.7673 8.84875 30.6501 9.22473 30.4775 9.547C30.3083 9.86601 30.0739 10.1183 29.7744 10.3038C29.4749 10.4861 29.0876 10.5773 28.6123 10.5773C28.1403 10.5773 27.7546 10.4861 27.4551 10.3038C27.1556 10.1183 26.9196 9.86601 26.7471 9.547C26.5778 9.22473 26.4606 8.84713 26.3955 8.41418C26.3337 7.98124 26.3027 7.519 26.3027 7.02747ZM27.0547 8.35559C27.0547 8.85689 27.1947 9.25403 27.4746 9.547C27.7546 9.83997 28.1338 9.98645 28.6123 9.98645C29.0908 9.98645 29.4701 9.83997 29.75 9.547C30.0332 9.25403 30.1748 8.85689 30.1748 8.35559V5.69446C30.1748 5.19316 30.0348 4.79602 29.7549 4.50305C29.4749 4.21008 29.0941 4.0636 28.6123 4.0636C28.1338 4.0636 27.7546 4.21171 27.4746 4.50793C27.1947 4.8009 27.0547 5.19641 27.0547 5.69446V8.35559Z" fill="#F5F5F5"/>
<path d="M40.6802 7.02747C40.6802 6.53267 40.7111 6.06881 40.7729 5.63586C40.8381 5.20292 40.9552 4.82694 41.1245 4.50793C41.297 4.18567 41.533 3.93339 41.8325 3.7511C42.132 3.56881 42.5177 3.47766 42.9897 3.47766C43.4618 3.47766 43.8475 3.56881 44.147 3.7511C44.4497 3.93339 44.6857 4.18567 44.855 4.50793C45.0275 4.82694 45.1447 5.20292 45.2065 5.63586C45.2684 6.06881 45.2993 6.53267 45.2993 7.02747C45.2993 7.52226 45.2684 7.98612 45.2065 8.41907C45.1447 8.84875 45.0275 9.22473 44.855 9.547C44.6857 9.86601 44.4513 10.1183 44.1519 10.3038C43.8524 10.4861 43.465 10.5773 42.9897 10.5773C42.5177 10.5773 42.132 10.4861 41.8325 10.3038C41.533 10.1183 41.297 9.86601 41.1245 9.547C40.9552 9.22473 40.8381 8.84713 40.7729 8.41418C40.7111 7.98124 40.6802 7.519 40.6802 7.02747ZM41.4321 8.35559C41.4321 8.85689 41.5721 9.25403 41.8521 9.547C42.132 9.83997 42.5112 9.98645 42.9897 9.98645C43.4683 9.98645 43.8475 9.83997 44.1274 9.547C44.4106 9.25403 44.5522 8.85689 44.5522 8.35559V5.69446C44.5522 5.19316 44.4123 4.79602 44.1323 4.50305C43.8524 4.21008 43.4715 4.0636 42.9897 4.0636C42.5112 4.0636 42.132 4.21171 41.8521 4.50793C41.5721 4.8009 41.4321 5.19641 41.4321 5.69446V8.35559Z" fill="#F5F5F5"/>
<path d="M1.20459 0.397949V121.965" stroke="#F5F5F5" stroke-width="0.75"/>
<path d="M96.1729 0.397949V121.965" stroke="#F5F5F5" stroke-width="0.75"/>
<rect x="38.7261" y="81.9652" width="20" height="20" fill="#F5F5F5"/>
<rect x="38.7261" y="101.965" width="20" height="20" fill="#F5F5F5"/>
</svg>
