<svg width="97" height="122" viewBox="0 0 97 122" fill="none" xmlns="http://www.w3.org/2000/svg">
<path d="M6.63232 35.0545V0.174316H8.81595V0.809762H7.33709V34.419H8.81595V35.0545H6.63232Z" fill="#F5F5F5"/>
<path d="M50.0259 35.0545V0.174316H47.8423V0.809762H49.3211V34.419H47.8423V35.0545H50.0259Z" fill="#F5F5F5"/>
<path d="M12.1724 32.0265V31.4357H13.9204V26.6163H12.1724V26.0255H13.9204V25.2247H14.5698V31.4357H16.1226V32.0265H12.1724Z" fill="#F5F5F5"/>
<path d="M26.0173 28.6281C26.0173 28.1333 26.0483 27.6694 26.1101 27.2365C26.1752 26.8035 26.2924 26.4275 26.4617 26.1085C26.6342 25.7863 26.8702 25.534 27.1697 25.3517C27.4692 25.1694 27.8549 25.0782 28.3269 25.0782C28.7989 25.0782 29.1847 25.1694 29.4841 25.3517C29.7869 25.534 30.0229 25.7863 30.1921 26.1085C30.3647 26.4275 30.4819 26.8035 30.5437 27.2365C30.6056 27.6694 30.6365 28.1333 30.6365 28.6281C30.6365 29.1228 30.6056 29.5867 30.5437 30.0197C30.4819 30.4493 30.3647 30.8253 30.1921 31.1476C30.0229 31.4666 29.7885 31.7189 29.489 31.9044C29.1895 32.0867 28.8022 32.1779 28.3269 32.1779C27.8549 32.1779 27.4692 32.0867 27.1697 31.9044C26.8702 31.7189 26.6342 31.4666 26.4617 31.1476C26.2924 30.8253 26.1752 30.4477 26.1101 30.0148C26.0483 29.5818 26.0173 29.1196 26.0173 28.6281ZM26.7693 29.9562C26.7693 30.4575 26.9093 30.8546 27.1892 31.1476C27.4692 31.4406 27.8484 31.587 28.3269 31.587C28.8054 31.587 29.1847 31.4406 29.4646 31.1476C29.7478 30.8546 29.8894 30.4575 29.8894 29.9562V27.295C29.8894 26.7937 29.7494 26.3966 29.4695 26.1036C29.1895 25.8107 28.8087 25.6642 28.3269 25.6642C27.8484 25.6642 27.4692 25.8123 27.1892 26.1085C26.9093 26.4015 26.7693 26.797 26.7693 27.295V29.9562Z" fill="#F5F5F5"/>
<path d="M78.2328 32.2023V15.8781H84.3969C86.0922 15.8781 87.2875 16.2804 87.9828 17.0851C88.6781 17.882 89.0258 19.1359 89.0258 20.8468C89.0258 21.7765 88.9164 22.5695 88.6976 23.2257C88.4867 23.882 88.1781 24.4132 87.7719 24.8195C87.3656 25.2257 86.8617 25.5226 86.2601 25.7101C85.6586 25.8976 84.9672 25.9913 84.1859 25.9913H79.9086V32.2023H78.2328ZM79.9086 24.421H84.9476C85.6195 24.421 86.1664 24.2218 86.5883 23.8234C87.0179 23.4249 87.2328 22.921 87.2328 22.3116V19.464C87.2328 18.8546 87.0297 18.3663 86.6234 17.9991C86.225 17.6241 85.6664 17.4366 84.9476 17.4366H79.9086V24.421Z" fill="#F5F5F5"/>
<path d="M40.3948 28.6281C40.3948 28.1333 40.4257 27.6694 40.4875 27.2365C40.5527 26.8035 40.6698 26.4275 40.8391 26.1085C41.0116 25.7863 41.2476 25.534 41.5471 25.3517C41.8466 25.1694 42.2323 25.0782 42.7043 25.0782C43.1764 25.0782 43.5621 25.1694 43.8616 25.3517C44.1643 25.534 44.4003 25.7863 44.5696 26.1085C44.7421 26.4275 44.8593 26.8035 44.9211 27.2365C44.983 27.6694 45.0139 28.1333 45.0139 28.6281C45.0139 29.1228 44.983 29.5867 44.9211 30.0197C44.8593 30.4493 44.7421 30.8253 44.5696 31.1476C44.4003 31.4666 44.1659 31.7189 43.8665 31.9044C43.567 32.0867 43.1796 32.1779 42.7043 32.1779C42.2323 32.1779 41.8466 32.0867 41.5471 31.9044C41.2476 31.7189 41.0116 31.4666 40.8391 31.1476C40.6698 30.8253 40.5527 30.4477 40.4875 30.0148C40.4257 29.5818 40.3948 29.1196 40.3948 28.6281ZM41.1467 29.9562C41.1467 30.4575 41.2867 30.8546 41.5667 31.1476C41.8466 31.4406 42.2258 31.587 42.7043 31.587C43.1829 31.587 43.5621 31.4406 43.842 31.1476C44.1252 30.8546 44.2668 30.4575 44.2668 29.9562V27.295C44.2668 26.7937 44.1269 26.3966 43.8469 26.1036C43.567 25.8107 43.1861 25.6642 42.7043 25.6642C42.2258 25.6642 41.8466 25.8123 41.5667 26.1085C41.2867 26.4015 41.1467 26.797 41.1467 27.295V29.9562Z" fill="#F5F5F5"/>
<path d="M11.6401 17.7159C11.6401 17.2212 11.6711 16.7573 11.7329 16.3243C11.798 15.8914 11.9152 15.5154 12.0845 15.1964C12.257 14.8741 12.493 14.6219 12.7925 14.4396C13.092 14.2573 13.4777 14.1661 13.9497 14.1661C14.4217 14.1661 14.8075 14.2573 15.1069 14.4396C15.4097 14.6219 15.6457 14.8741 15.8149 15.1964C15.9875 15.5154 16.1047 15.8914 16.1665 16.3243C16.2284 16.7573 16.2593 17.2212 16.2593 17.7159C16.2593 18.2107 16.2284 18.6746 16.1665 19.1075C16.1047 19.5372 15.9875 19.9132 15.8149 20.2355C15.6457 20.5545 15.4113 20.8068 15.1118 20.9923C14.8123 21.1746 14.425 21.2657 13.9497 21.2657C13.4777 21.2657 13.092 21.1746 12.7925 20.9923C12.493 20.8068 12.257 20.5545 12.0845 20.2355C11.9152 19.9132 11.798 19.5356 11.7329 19.1027C11.6711 18.6697 11.6401 18.2075 11.6401 17.7159ZM12.3921 19.0441C12.3921 19.5454 12.5321 19.9425 12.812 20.2355C13.092 20.5284 13.4712 20.6749 13.9497 20.6749C14.4282 20.6749 14.8075 20.5284 15.0874 20.2355C15.3706 19.9425 15.5122 19.5454 15.5122 19.0441V16.3829C15.5122 15.8816 15.3722 15.4845 15.0923 15.1915C14.8123 14.8986 14.4315 14.7521 13.9497 14.7521C13.4712 14.7521 13.092 14.9002 12.812 15.1964C12.5321 15.4894 12.3921 15.8849 12.3921 16.3829V19.0441Z" fill="#F5F5F5"/>
<path d="M26.5496 21.1144V20.5236H28.2976V15.7042H26.5496V15.1134H28.2976V14.3126H28.947V20.5236H30.4998V21.1144H26.5496Z" fill="#F5F5F5"/>
<path d="M40.927 21.1144V20.5236H42.675V15.7042H40.927V15.1134H42.675V14.3126H43.3245V20.5236H44.8772V21.1144H40.927Z" fill="#F5F5F5"/>
<path d="M11.6401 6.80383C11.6401 6.30904 11.6711 5.84517 11.7329 5.41223C11.798 4.97929 11.9152 4.60331 12.0845 4.2843C12.257 3.96204 12.493 3.70976 12.7925 3.52747C13.092 3.34517 13.4777 3.25403 13.9497 3.25403C14.4217 3.25403 14.8075 3.34517 15.1069 3.52747C15.4097 3.70976 15.6457 3.96204 15.8149 4.2843C15.9875 4.60331 16.1047 4.97929 16.1665 5.41223C16.2284 5.84517 16.2593 6.30904 16.2593 6.80383C16.2593 7.29862 16.2284 7.76249 16.1665 8.19543C16.1047 8.62512 15.9875 9.0011 15.8149 9.32336C15.6457 9.64237 15.4113 9.89465 15.1118 10.0802C14.8123 10.2625 14.425 10.3536 13.9497 10.3536C13.4777 10.3536 13.092 10.2625 12.7925 10.0802C12.493 9.89465 12.257 9.64237 12.0845 9.32336C11.9152 9.0011 11.798 8.62349 11.7329 8.19055C11.6711 7.75761 11.6401 7.29537 11.6401 6.80383ZM12.3921 8.13196C12.3921 8.63326 12.5321 9.0304 12.812 9.32336C13.092 9.61633 13.4712 9.76282 13.9497 9.76282C14.4282 9.76282 14.8075 9.61633 15.0874 9.32336C15.3706 9.0304 15.5122 8.63326 15.5122 8.13196V5.47083C15.5122 4.96952 15.3722 4.57239 15.0923 4.27942C14.8123 3.98645 14.4315 3.83997 13.9497 3.83997C13.4712 3.83997 13.092 3.98808 12.812 4.2843C12.5321 4.57727 12.3921 4.97278 12.3921 5.47083V8.13196Z" fill="#F5F5F5"/>
<path d="M26.0173 6.80383C26.0173 6.30904 26.0483 5.84517 26.1101 5.41223C26.1752 4.97929 26.2924 4.60331 26.4617 4.2843C26.6342 3.96204 26.8702 3.70976 27.1697 3.52747C27.4692 3.34517 27.8549 3.25403 28.3269 3.25403C28.7989 3.25403 29.1847 3.34517 29.4841 3.52747C29.7869 3.70976 30.0229 3.96204 30.1921 4.2843C30.3647 4.60331 30.4819 4.97929 30.5437 5.41223C30.6056 5.84517 30.6365 6.30904 30.6365 6.80383C30.6365 7.29862 30.6056 7.76249 30.5437 8.19543C30.4819 8.62512 30.3647 9.0011 30.1921 9.32336C30.0229 9.64237 29.7885 9.89465 29.489 10.0802C29.1895 10.2625 28.8022 10.3536 28.3269 10.3536C27.8549 10.3536 27.4692 10.2625 27.1697 10.0802C26.8702 9.89465 26.6342 9.64237 26.4617 9.32336C26.2924 9.0011 26.1752 8.62349 26.1101 8.19055C26.0483 7.75761 26.0173 7.29537 26.0173 6.80383ZM26.7693 8.13196C26.7693 8.63326 26.9093 9.0304 27.1892 9.32336C27.4692 9.61633 27.8484 9.76282 28.3269 9.76282C28.8054 9.76282 29.1847 9.61633 29.4646 9.32336C29.7478 9.0304 29.8894 8.63326 29.8894 8.13196V5.47083C29.8894 4.96952 29.7494 4.57239 29.4695 4.27942C29.1895 3.98645 28.8087 3.83997 28.3269 3.83997C27.8484 3.83997 27.4692 3.98808 27.1892 4.2843C26.9093 4.57727 26.7693 4.97278 26.7693 5.47083V8.13196Z" fill="#F5F5F5"/>
<path d="M40.927 10.2023V9.61145H42.675V4.79211H40.927V4.20129H42.675V3.40051H43.3245V9.61145H44.8772V10.2023H40.927Z" fill="#F5F5F5"/>
<path d="M0.919189 0.174316V121.742" stroke="#F5F5F5" stroke-width="0.75"/>
<path d="M95.8875 0.174316V121.742" stroke="#F5F5F5" stroke-width="0.75"/>
<rect x="18.4033" y="101.742" width="20" height="20" fill="#F5F5F5"/>
<rect x="58.4033" y="61.7416" width="20" height="20" fill="#F5F5F5"/>
<rect x="58.4033" y="81.7416" width="20" height="20" fill="#F5F5F5"/>
<rect x="38.4033" y="81.7416" width="20" height="20" fill="#F5F5F5"/>
</svg>
