<svg width="97" height="122" viewBox="0 0 97 122" fill="none" xmlns="http://www.w3.org/2000/svg">
<path d="M6.82251 35.2781V0.397949H9.00613V1.03339H7.52728V34.6427H9.00613V35.2781H6.82251Z" fill="#F5F5F5"/>
<path d="M50.2161 35.2781V0.397949H48.0324V1.03339H49.5113V34.6427H48.0324V35.2781H50.2161Z" fill="#F5F5F5"/>
<path d="M12.3625 32.2501V31.6593H14.1106V26.84H12.3625V26.2491H14.1106V25.4484H14.76V31.6593H16.3127V32.2501H12.3625Z" fill="#F5F5F5"/>
<path d="M26.2075 28.8517C26.2075 28.3569 26.2384 27.893 26.3003 27.4601C26.3654 27.0271 26.4826 26.6512 26.6519 26.3322C26.8244 26.0099 27.0604 25.7576 27.3599 25.5753C27.6593 25.393 28.0451 25.3019 28.5171 25.3019C28.9891 25.3019 29.3748 25.393 29.6743 25.5753C29.9771 25.7576 30.2131 26.0099 30.3823 26.3322C30.5549 26.6512 30.672 27.0271 30.7339 27.4601C30.7957 27.893 30.8267 28.3569 30.8267 28.8517C30.8267 29.3465 30.7957 29.8103 30.7339 30.2433C30.672 30.673 30.5549 31.049 30.3823 31.3712C30.2131 31.6902 29.9787 31.9425 29.6792 32.1281C29.3797 32.3103 28.9924 32.4015 28.5171 32.4015C28.0451 32.4015 27.6593 32.3103 27.3599 32.1281C27.0604 31.9425 26.8244 31.6902 26.6519 31.3712C26.4826 31.049 26.3654 30.6713 26.3003 30.2384C26.2384 29.8055 26.2075 29.3432 26.2075 28.8517ZM26.9595 30.1798C26.9595 30.6811 27.0994 31.0782 27.3794 31.3712C27.6593 31.6642 28.0386 31.8107 28.5171 31.8107C28.9956 31.8107 29.3748 31.6642 29.6548 31.3712C29.938 31.0782 30.0796 30.6811 30.0796 30.1798V27.5187C30.0796 27.0174 29.9396 26.6202 29.6597 26.3273C29.3797 26.0343 28.9989 25.8878 28.5171 25.8878C28.0386 25.8878 27.6593 26.0359 27.3794 26.3322C27.0994 26.6251 26.9595 27.0206 26.9595 27.5187V30.1798Z" fill="#F5F5F5"/>
<path d="M77.0636 27.6681H78.7394C78.8644 28.9025 79.3253 29.8126 80.1222 30.3986C80.9269 30.9845 81.9308 31.2775 83.1339 31.2775C83.7277 31.2775 84.2823 31.2111 84.798 31.0782C85.3214 30.9376 85.7667 30.7345 86.1339 30.4689C86.5011 30.2032 86.7902 29.879 87.0011 29.4962C87.2198 29.1134 87.3292 28.6759 87.3292 28.1837C87.3292 27.7228 87.2628 27.3361 87.13 27.0236C87.005 26.7032 86.8175 26.4415 86.5675 26.2384C86.3253 26.0275 86.0323 25.8556 85.6886 25.7228C85.3448 25.5822 84.9542 25.4493 84.5167 25.3243L81.2823 24.4337C79.9698 24.0665 79.0206 23.5314 78.4347 22.8282C77.8566 22.1251 77.5675 21.1954 77.5675 20.0392C77.5675 19.4298 77.6886 18.8634 77.9308 18.34C78.1808 17.8087 78.5363 17.3517 78.9972 16.9689C79.4659 16.5861 80.0323 16.2892 80.6964 16.0782C81.3605 15.8595 82.1144 15.7501 82.9581 15.7501C83.7394 15.7501 84.4581 15.8517 85.1144 16.0548C85.7784 16.2501 86.3527 16.5509 86.837 16.9572C87.3292 17.3634 87.7238 17.8673 88.0206 18.4689C88.3253 19.0704 88.5206 19.7618 88.6066 20.5431H86.9191C86.8722 19.9493 86.7316 19.4415 86.4972 19.0197C86.2706 18.5978 85.9777 18.2579 85.6183 18.0001C85.2589 17.7423 84.8488 17.5548 84.3878 17.4376C83.9269 17.3204 83.4503 17.2618 82.9581 17.2618C81.8253 17.2618 80.923 17.4962 80.2511 17.965C79.5792 18.4337 79.2433 19.1251 79.2433 20.0392C79.2433 20.5314 79.3097 20.9376 79.4425 21.2579C79.5831 21.5704 79.7784 21.8282 80.0284 22.0314C80.2863 22.2267 80.5948 22.3907 80.9542 22.5236C81.3136 22.6486 81.7198 22.7736 82.173 22.8986L84.88 23.6603C86.3019 24.0587 87.3448 24.5978 88.0089 25.2775C88.673 25.9493 89.005 26.8986 89.005 28.1251C89.005 28.8439 88.8566 29.4923 88.5597 30.0704C88.2706 30.6486 87.8683 31.1368 87.3527 31.5353C86.8448 31.9337 86.2277 32.2423 85.5011 32.4611C84.7823 32.6798 84.0089 32.7892 83.1808 32.7892C82.3292 32.7892 81.5519 32.6876 80.8488 32.4845C80.1456 32.2892 79.5284 31.9806 78.9972 31.5587C78.4738 31.129 78.0441 30.5939 77.7081 29.9532C77.3722 29.3126 77.1573 28.5509 77.0636 27.6681Z" fill="#F5F5F5"/>
<path d="M40.585 28.8517C40.585 28.3569 40.6159 27.893 40.6777 27.4601C40.7428 27.0271 40.86 26.6512 41.0293 26.3322C41.2018 26.0099 41.4378 25.7576 41.7373 25.5753C42.0368 25.393 42.4225 25.3019 42.8945 25.3019C43.3665 25.3019 43.7523 25.393 44.0518 25.5753C44.3545 25.7576 44.5905 26.0099 44.7598 26.3322C44.9323 26.6512 45.0495 27.0271 45.1113 27.4601C45.1732 27.893 45.2041 28.3569 45.2041 28.8517C45.2041 29.3465 45.1732 29.8103 45.1113 30.2433C45.0495 30.673 44.9323 31.049 44.7598 31.3712C44.5905 31.6902 44.3561 31.9425 44.0566 32.1281C43.7572 32.3103 43.3698 32.4015 42.8945 32.4015C42.4225 32.4015 42.0368 32.3103 41.7373 32.1281C41.4378 31.9425 41.2018 31.6902 41.0293 31.3712C40.86 31.049 40.7428 30.6713 40.6777 30.2384C40.6159 29.8055 40.585 29.3432 40.585 28.8517ZM41.3369 30.1798C41.3369 30.6811 41.4769 31.0782 41.7568 31.3712C42.0368 31.6642 42.416 31.8107 42.8945 31.8107C43.373 31.8107 43.7523 31.6642 44.0322 31.3712C44.3154 31.0782 44.457 30.6811 44.457 30.1798V27.5187C44.457 27.0174 44.3171 26.6202 44.0371 26.3273C43.7572 26.0343 43.3763 25.8878 42.8945 25.8878C42.416 25.8878 42.0368 26.0359 41.7568 26.3322C41.4769 26.6251 41.3369 27.0206 41.3369 27.5187V30.1798Z" fill="#F5F5F5"/>
<path d="M11.8303 17.9396C11.8303 17.4448 11.8612 16.9809 11.9231 16.548C11.9882 16.115 12.1054 15.7391 12.2747 15.42C12.4472 15.0978 12.6832 14.8455 12.9827 14.6632C13.2821 14.4809 13.6679 14.3898 14.1399 14.3898C14.6119 14.3898 14.9976 14.4809 15.2971 14.6632C15.5999 14.8455 15.8359 15.0978 16.0051 15.42C16.1777 15.7391 16.2948 16.115 16.3567 16.548C16.4185 16.9809 16.4495 17.4448 16.4495 17.9396C16.4495 18.4344 16.4185 18.8982 16.3567 19.3312C16.2948 19.7609 16.1777 20.1368 16.0051 20.4591C15.8359 20.7781 15.6015 21.0304 15.302 21.2159C15.0025 21.3982 14.6152 21.4894 14.1399 21.4894C13.6679 21.4894 13.2821 21.3982 12.9827 21.2159C12.6832 21.0304 12.4472 20.7781 12.2747 20.4591C12.1054 20.1368 11.9882 19.7592 11.9231 19.3263C11.8612 18.8934 11.8303 18.4311 11.8303 17.9396ZM12.5823 19.2677C12.5823 19.769 12.7222 20.1661 13.0022 20.4591C13.2821 20.7521 13.6614 20.8986 14.1399 20.8986C14.6184 20.8986 14.9976 20.7521 15.2776 20.4591C15.5608 20.1661 15.7024 19.769 15.7024 19.2677V16.6066C15.7024 16.1053 15.5624 15.7081 15.2825 15.4152C15.0025 15.1222 14.6217 14.9757 14.1399 14.9757C13.6614 14.9757 13.2821 15.1238 13.0022 15.42C12.7222 15.713 12.5823 16.1085 12.5823 16.6066V19.2677Z" fill="#F5F5F5"/>
<path d="M26.7397 21.338V20.7472H28.4878V15.9279H26.7397V15.337H28.4878V14.5363H29.1372V20.7472H30.6899V21.338H26.7397Z" fill="#F5F5F5"/>
<path d="M40.585 17.9396C40.585 17.4448 40.6159 16.9809 40.6777 16.548C40.7428 16.115 40.86 15.7391 41.0293 15.42C41.2018 15.0978 41.4378 14.8455 41.7373 14.6632C42.0368 14.4809 42.4225 14.3898 42.8945 14.3898C43.3665 14.3898 43.7523 14.4809 44.0518 14.6632C44.3545 14.8455 44.5905 15.0978 44.7598 15.42C44.9323 15.7391 45.0495 16.115 45.1113 16.548C45.1732 16.9809 45.2041 17.4448 45.2041 17.9396C45.2041 18.4344 45.1732 18.8982 45.1113 19.3312C45.0495 19.7609 44.9323 20.1368 44.7598 20.4591C44.5905 20.7781 44.3561 21.0304 44.0566 21.2159C43.7572 21.3982 43.3698 21.4894 42.8945 21.4894C42.4225 21.4894 42.0368 21.3982 41.7373 21.2159C41.4378 21.0304 41.2018 20.7781 41.0293 20.4591C40.86 20.1368 40.7428 19.7592 40.6777 19.3263C40.6159 18.8934 40.585 18.4311 40.585 17.9396ZM41.3369 19.2677C41.3369 19.769 41.4769 20.1661 41.7568 20.4591C42.0368 20.7521 42.416 20.8986 42.8945 20.8986C43.373 20.8986 43.7523 20.7521 44.0322 20.4591C44.3154 20.1661 44.457 19.769 44.457 19.2677V16.6066C44.457 16.1053 44.3171 15.7081 44.0371 15.4152C43.7572 15.1222 43.3763 14.9757 42.8945 14.9757C42.416 14.9757 42.0368 15.1238 41.7568 15.42C41.4769 15.713 41.3369 16.1085 41.3369 16.6066V19.2677Z" fill="#F5F5F5"/>
<path d="M11.8303 7.02747C11.8303 6.53267 11.8612 6.06881 11.9231 5.63586C11.9882 5.20292 12.1054 4.82694 12.2747 4.50793C12.4472 4.18567 12.6832 3.93339 12.9827 3.7511C13.2821 3.56881 13.6679 3.47766 14.1399 3.47766C14.6119 3.47766 14.9976 3.56881 15.2971 3.7511C15.5999 3.93339 15.8359 4.18567 16.0051 4.50793C16.1777 4.82694 16.2948 5.20292 16.3567 5.63586C16.4185 6.06881 16.4495 6.53267 16.4495 7.02747C16.4495 7.52226 16.4185 7.98612 16.3567 8.41907C16.2948 8.84875 16.1777 9.22473 16.0051 9.547C15.8359 9.86601 15.6015 10.1183 15.302 10.3038C15.0025 10.4861 14.6152 10.5773 14.1399 10.5773C13.6679 10.5773 13.2821 10.4861 12.9827 10.3038C12.6832 10.1183 12.4472 9.86601 12.2747 9.547C12.1054 9.22473 11.9882 8.84713 11.9231 8.41418C11.8612 7.98124 11.8303 7.519 11.8303 7.02747ZM12.5823 8.35559C12.5823 8.85689 12.7222 9.25403 13.0022 9.547C13.2821 9.83997 13.6614 9.98645 14.1399 9.98645C14.6184 9.98645 14.9976 9.83997 15.2776 9.547C15.5608 9.25403 15.7024 8.85689 15.7024 8.35559V5.69446C15.7024 5.19316 15.5624 4.79602 15.2825 4.50305C15.0025 4.21008 14.6217 4.0636 14.1399 4.0636C13.6614 4.0636 13.2821 4.21171 13.0022 4.50793C12.7222 4.8009 12.5823 5.19641 12.5823 5.69446V8.35559Z" fill="#F5F5F5"/>
<path d="M26.2075 7.02747C26.2075 6.53267 26.2384 6.06881 26.3003 5.63586C26.3654 5.20292 26.4826 4.82694 26.6519 4.50793C26.8244 4.18567 27.0604 3.93339 27.3599 3.7511C27.6593 3.56881 28.0451 3.47766 28.5171 3.47766C28.9891 3.47766 29.3748 3.56881 29.6743 3.7511C29.9771 3.93339 30.2131 4.18567 30.3823 4.50793C30.5549 4.82694 30.672 5.20292 30.7339 5.63586C30.7957 6.06881 30.8267 6.53267 30.8267 7.02747C30.8267 7.52226 30.7957 7.98612 30.7339 8.41907C30.672 8.84875 30.5549 9.22473 30.3823 9.547C30.2131 9.86601 29.9787 10.1183 29.6792 10.3038C29.3797 10.4861 28.9924 10.5773 28.5171 10.5773C28.0451 10.5773 27.6593 10.4861 27.3599 10.3038C27.0604 10.1183 26.8244 9.86601 26.6519 9.547C26.4826 9.22473 26.3654 8.84713 26.3003 8.41418C26.2384 7.98124 26.2075 7.519 26.2075 7.02747ZM26.9595 8.35559C26.9595 8.85689 27.0994 9.25403 27.3794 9.547C27.6593 9.83997 28.0386 9.98645 28.5171 9.98645C28.9956 9.98645 29.3748 9.83997 29.6548 9.547C29.938 9.25403 30.0796 8.85689 30.0796 8.35559V5.69446C30.0796 5.19316 29.9396 4.79602 29.6597 4.50305C29.3797 4.21008 28.9989 4.0636 28.5171 4.0636C28.0386 4.0636 27.6593 4.21171 27.3794 4.50793C27.0994 4.8009 26.9595 5.19641 26.9595 5.69446V8.35559Z" fill="#F5F5F5"/>
<path d="M40.585 7.02747C40.585 6.53267 40.6159 6.06881 40.6777 5.63586C40.7428 5.20292 40.86 4.82694 41.0293 4.50793C41.2018 4.18567 41.4378 3.93339 41.7373 3.7511C42.0368 3.56881 42.4225 3.47766 42.8945 3.47766C43.3665 3.47766 43.7523 3.56881 44.0518 3.7511C44.3545 3.93339 44.5905 4.18567 44.7598 4.50793C44.9323 4.82694 45.0495 5.20292 45.1113 5.63586C45.1732 6.06881 45.2041 6.53267 45.2041 7.02747C45.2041 7.52226 45.1732 7.98612 45.1113 8.41907C45.0495 8.84875 44.9323 9.22473 44.7598 9.547C44.5905 9.86601 44.3561 10.1183 44.0566 10.3038C43.7572 10.4861 43.3698 10.5773 42.8945 10.5773C42.4225 10.5773 42.0368 10.4861 41.7373 10.3038C41.4378 10.1183 41.2018 9.86601 41.0293 9.547C40.86 9.22473 40.7428 8.84713 40.6777 8.41418C40.6159 7.98124 40.585 7.519 40.585 7.02747ZM41.3369 8.35559C41.3369 8.85689 41.4769 9.25403 41.7568 9.547C42.0368 9.83997 42.416 9.98645 42.8945 9.98645C43.373 9.98645 43.7523 9.83997 44.0322 9.547C44.3154 9.25403 44.457 8.85689 44.457 8.35559V5.69446C44.457 5.19316 44.3171 4.79602 44.0371 4.50305C43.7572 4.21008 43.3763 4.0636 42.8945 4.0636C42.416 4.0636 42.0368 4.21171 41.7568 4.50793C41.4769 4.8009 41.3369 5.19641 41.3369 5.69446V8.35559Z" fill="#F5F5F5"/>
<path d="M1.10938 0.397949V121.965" stroke="#F5F5F5" stroke-width="0.75"/>
<path d="M96.0776 0.397949V121.965" stroke="#F5F5F5" stroke-width="0.75"/>
<rect x="18.4233" y="101.965" width="20" height="20" fill="#F5F5F5"/>
<rect x="38.4233" y="81.9652" width="20" height="20" fill="#F5F5F5"/>
</svg>
