<svg width="97" height="122" viewBox="0 0 97 122" fill="none" xmlns="http://www.w3.org/2000/svg">
<path d="M6.63232 35.2781V0.397949H8.81595V1.03339H7.33709V34.6427H8.81595V35.2781H6.63232Z" fill="#F5F5F5"/>
<path d="M50.0259 35.2781V0.397949H47.8423V1.03339H49.3211V34.6427H47.8423V35.2781H50.0259Z" fill="#F5F5F5"/>
<path d="M12.1724 32.2501V31.6593H13.9204V26.84H12.1724V26.2491H13.9204V25.4484H14.5698V31.6593H16.1226V32.2501H12.1724Z" fill="#F5F5F5"/>
<path d="M26.0173 28.8517C26.0173 28.3569 26.0483 27.893 26.1101 27.4601C26.1752 27.0271 26.2924 26.6512 26.4617 26.3322C26.6342 26.0099 26.8702 25.7576 27.1697 25.5753C27.4692 25.393 27.8549 25.3019 28.3269 25.3019C28.7989 25.3019 29.1847 25.393 29.4841 25.5753C29.7869 25.7576 30.0229 26.0099 30.1921 26.3322C30.3647 26.6512 30.4819 27.0271 30.5437 27.4601C30.6056 27.893 30.6365 28.3569 30.6365 28.8517C30.6365 29.3465 30.6056 29.8103 30.5437 30.2433C30.4819 30.673 30.3647 31.049 30.1921 31.3712C30.0229 31.6902 29.7885 31.9425 29.489 32.1281C29.1895 32.3103 28.8022 32.4015 28.3269 32.4015C27.8549 32.4015 27.4692 32.3103 27.1697 32.1281C26.8702 31.9425 26.6342 31.6902 26.4617 31.3712C26.2924 31.049 26.1752 30.6713 26.1101 30.2384C26.0483 29.8055 26.0173 29.3432 26.0173 28.8517ZM26.7693 30.1798C26.7693 30.6811 26.9093 31.0782 27.1892 31.3712C27.4692 31.6642 27.8484 31.8107 28.3269 31.8107C28.8054 31.8107 29.1847 31.6642 29.4646 31.3712C29.7478 31.0782 29.8894 30.6811 29.8894 30.1798V27.5187C29.8894 27.0174 29.7494 26.6202 29.4695 26.3273C29.1895 26.0343 28.8087 25.8878 28.3269 25.8878C27.8484 25.8878 27.4692 26.0359 27.1892 26.3322C26.9093 26.6251 26.7693 27.0206 26.7693 27.5187V30.1798Z" fill="#F5F5F5"/>
<path d="M77.0609 16.1017H78.9359L83.2836 24.2697L87.7015 16.1017H89.5179L84.1156 25.9454V32.4259H82.4398V25.9454L77.0609 16.1017Z" fill="#F5F5F5"/>
<path d="M40.3948 28.8517C40.3948 28.3569 40.4257 27.893 40.4875 27.4601C40.5527 27.0271 40.6698 26.6512 40.8391 26.3322C41.0116 26.0099 41.2476 25.7576 41.5471 25.5753C41.8466 25.393 42.2323 25.3019 42.7043 25.3019C43.1764 25.3019 43.5621 25.393 43.8616 25.5753C44.1643 25.7576 44.4003 26.0099 44.5696 26.3322C44.7421 26.6512 44.8593 27.0271 44.9211 27.4601C44.983 27.893 45.0139 28.3569 45.0139 28.8517C45.0139 29.3465 44.983 29.8103 44.9211 30.2433C44.8593 30.673 44.7421 31.049 44.5696 31.3712C44.4003 31.6902 44.1659 31.9425 43.8665 32.1281C43.567 32.3103 43.1796 32.4015 42.7043 32.4015C42.2323 32.4015 41.8466 32.3103 41.5471 32.1281C41.2476 31.9425 41.0116 31.6902 40.8391 31.3712C40.6698 31.049 40.5527 30.6713 40.4875 30.2384C40.4257 29.8055 40.3948 29.3432 40.3948 28.8517ZM41.1467 30.1798C41.1467 30.6811 41.2867 31.0782 41.5667 31.3712C41.8466 31.6642 42.2258 31.8107 42.7043 31.8107C43.1829 31.8107 43.5621 31.6642 43.842 31.3712C44.1252 31.0782 44.2668 30.6811 44.2668 30.1798V27.5187C44.2668 27.0174 44.1269 26.6202 43.8469 26.3273C43.567 26.0343 43.1861 25.8878 42.7043 25.8878C42.2258 25.8878 41.8466 26.0359 41.5667 26.3322C41.2867 26.6251 41.1467 27.0206 41.1467 27.5187V30.1798Z" fill="#F5F5F5"/>
<path d="M12.1724 21.338V20.7472H13.9204V15.9279H12.1724V15.337H13.9204V14.5363H14.5698V20.7472H16.1226V21.338H12.1724Z" fill="#F5F5F5"/>
<path d="M26.0173 17.9396C26.0173 17.4448 26.0483 16.9809 26.1101 16.548C26.1752 16.115 26.2924 15.7391 26.4617 15.42C26.6342 15.0978 26.8702 14.8455 27.1697 14.6632C27.4692 14.4809 27.8549 14.3898 28.3269 14.3898C28.7989 14.3898 29.1847 14.4809 29.4841 14.6632C29.7869 14.8455 30.0229 15.0978 30.1921 15.42C30.3647 15.7391 30.4819 16.115 30.5437 16.548C30.6056 16.9809 30.6365 17.4448 30.6365 17.9396C30.6365 18.4344 30.6056 18.8982 30.5437 19.3312C30.4819 19.7609 30.3647 20.1368 30.1921 20.4591C30.0229 20.7781 29.7885 21.0304 29.489 21.2159C29.1895 21.3982 28.8022 21.4894 28.3269 21.4894C27.8549 21.4894 27.4692 21.3982 27.1697 21.2159C26.8702 21.0304 26.6342 20.7781 26.4617 20.4591C26.2924 20.1368 26.1752 19.7592 26.1101 19.3263C26.0483 18.8934 26.0173 18.4311 26.0173 17.9396ZM26.7693 19.2677C26.7693 19.769 26.9093 20.1661 27.1892 20.4591C27.4692 20.7521 27.8484 20.8986 28.3269 20.8986C28.8054 20.8986 29.1847 20.7521 29.4646 20.4591C29.7478 20.1661 29.8894 19.769 29.8894 19.2677V16.6066C29.8894 16.1053 29.7494 15.7081 29.4695 15.4152C29.1895 15.1222 28.8087 14.9757 28.3269 14.9757C27.8484 14.9757 27.4692 15.1238 27.1892 15.42C26.9093 15.713 26.7693 16.1085 26.7693 16.6066V19.2677Z" fill="#F5F5F5"/>
<path d="M40.3948 17.9396C40.3948 17.4448 40.4257 16.9809 40.4875 16.548C40.5527 16.115 40.6698 15.7391 40.8391 15.42C41.0116 15.0978 41.2476 14.8455 41.5471 14.6632C41.8466 14.4809 42.2323 14.3898 42.7043 14.3898C43.1764 14.3898 43.5621 14.4809 43.8616 14.6632C44.1643 14.8455 44.4003 15.0978 44.5696 15.42C44.7421 15.7391 44.8593 16.115 44.9211 16.548C44.983 16.9809 45.0139 17.4448 45.0139 17.9396C45.0139 18.4344 44.983 18.8982 44.9211 19.3312C44.8593 19.7609 44.7421 20.1368 44.5696 20.4591C44.4003 20.7781 44.1659 21.0304 43.8665 21.2159C43.567 21.3982 43.1796 21.4894 42.7043 21.4894C42.2323 21.4894 41.8466 21.3982 41.5471 21.2159C41.2476 21.0304 41.0116 20.7781 40.8391 20.4591C40.6698 20.1368 40.5527 19.7592 40.4875 19.3263C40.4257 18.8934 40.3948 18.4311 40.3948 17.9396ZM41.1467 19.2677C41.1467 19.769 41.2867 20.1661 41.5667 20.4591C41.8466 20.7521 42.2258 20.8986 42.7043 20.8986C43.1829 20.8986 43.5621 20.7521 43.842 20.4591C44.1252 20.1661 44.2668 19.769 44.2668 19.2677V16.6066C44.2668 16.1053 44.1269 15.7081 43.8469 15.4152C43.567 15.1222 43.1861 14.9757 42.7043 14.9757C42.2258 14.9757 41.8466 15.1238 41.5667 15.42C41.2867 15.713 41.1467 16.1085 41.1467 16.6066V19.2677Z" fill="#F5F5F5"/>
<path d="M11.6401 7.02747C11.6401 6.53267 11.6711 6.06881 11.7329 5.63586C11.798 5.20292 11.9152 4.82694 12.0845 4.50793C12.257 4.18567 12.493 3.93339 12.7925 3.7511C13.092 3.56881 13.4777 3.47766 13.9497 3.47766C14.4217 3.47766 14.8075 3.56881 15.1069 3.7511C15.4097 3.93339 15.6457 4.18567 15.8149 4.50793C15.9875 4.82694 16.1047 5.20292 16.1665 5.63586C16.2284 6.06881 16.2593 6.53267 16.2593 7.02747C16.2593 7.52226 16.2284 7.98612 16.1665 8.41907C16.1047 8.84875 15.9875 9.22473 15.8149 9.547C15.6457 9.86601 15.4113 10.1183 15.1118 10.3038C14.8123 10.4861 14.425 10.5773 13.9497 10.5773C13.4777 10.5773 13.092 10.4861 12.7925 10.3038C12.493 10.1183 12.257 9.86601 12.0845 9.547C11.9152 9.22473 11.798 8.84713 11.7329 8.41418C11.6711 7.98124 11.6401 7.519 11.6401 7.02747ZM12.3921 8.35559C12.3921 8.85689 12.5321 9.25403 12.812 9.547C13.092 9.83997 13.4712 9.98645 13.9497 9.98645C14.4282 9.98645 14.8075 9.83997 15.0874 9.547C15.3706 9.25403 15.5122 8.85689 15.5122 8.35559V5.69446C15.5122 5.19316 15.3722 4.79602 15.0923 4.50305C14.8123 4.21008 14.4315 4.0636 13.9497 4.0636C13.4712 4.0636 13.092 4.21171 12.812 4.50793C12.5321 4.8009 12.3921 5.19641 12.3921 5.69446V8.35559Z" fill="#F5F5F5"/>
<path d="M26.0173 7.02747C26.0173 6.53267 26.0483 6.06881 26.1101 5.63586C26.1752 5.20292 26.2924 4.82694 26.4617 4.50793C26.6342 4.18567 26.8702 3.93339 27.1697 3.7511C27.4692 3.56881 27.8549 3.47766 28.3269 3.47766C28.7989 3.47766 29.1847 3.56881 29.4841 3.7511C29.7869 3.93339 30.0229 4.18567 30.1921 4.50793C30.3647 4.82694 30.4819 5.20292 30.5437 5.63586C30.6056 6.06881 30.6365 6.53267 30.6365 7.02747C30.6365 7.52226 30.6056 7.98612 30.5437 8.41907C30.4819 8.84875 30.3647 9.22473 30.1921 9.547C30.0229 9.86601 29.7885 10.1183 29.489 10.3038C29.1895 10.4861 28.8022 10.5773 28.3269 10.5773C27.8549 10.5773 27.4692 10.4861 27.1697 10.3038C26.8702 10.1183 26.6342 9.86601 26.4617 9.547C26.2924 9.22473 26.1752 8.84713 26.1101 8.41418C26.0483 7.98124 26.0173 7.519 26.0173 7.02747ZM26.7693 8.35559C26.7693 8.85689 26.9093 9.25403 27.1892 9.547C27.4692 9.83997 27.8484 9.98645 28.3269 9.98645C28.8054 9.98645 29.1847 9.83997 29.4646 9.547C29.7478 9.25403 29.8894 8.85689 29.8894 8.35559V5.69446C29.8894 5.19316 29.7494 4.79602 29.4695 4.50305C29.1895 4.21008 28.8087 4.0636 28.3269 4.0636C27.8484 4.0636 27.4692 4.21171 27.1892 4.50793C26.9093 4.8009 26.7693 5.19641 26.7693 5.69446V8.35559Z" fill="#F5F5F5"/>
<path d="M40.927 10.4259V9.83508H42.675V5.01575H40.927V4.42493H42.675V3.62415H43.3245V9.83508H44.8772V10.4259H40.927Z" fill="#F5F5F5"/>
<path d="M0.919189 0.397949V121.965" stroke="#F5F5F5" stroke-width="0.75"/>
<path d="M95.8875 0.397949V121.965" stroke="#F5F5F5" stroke-width="0.75"/>
<rect x="58.4045" y="61.9652" width="20" height="20" fill="#F5F5F5"/>
<rect x="18.4045" y="101.965" width="20" height="20" fill="#F5F5F5"/>
<rect x="18.4045" y="81.9652" width="20" height="20" fill="#F5F5F5"/>
</svg>
