<svg width="92" height="120" viewBox="0 0 92 120" fill="none" xmlns="http://www.w3.org/2000/svg">
<path d="M4.48416 21.8242L4.54764 21.8842V22.7642L4.48416 22.8242H1.43723L1.37376 22.7642V21.8842L1.43723 21.8242H4.48416ZM5.54212 22.8242L5.6056 22.8842V27.7642L5.54212 27.8242H4.61112L4.54764 27.7642V24.8842L4.61112 24.8242L4.54764 24.7642L4.48416 24.8242H3.55315L3.48968 24.7642V23.8842L3.55315 23.8242H4.48416L4.54764 23.8842L4.61112 23.8242L4.54764 23.7642V22.8842L4.61112 22.8242H5.54212ZM1.31028 22.8242L1.37376 22.8842V25.7642L1.31028 25.8242L1.37376 25.8842L1.43723 25.8242H2.36824L2.43172 25.8842V26.7642L2.36824 26.8242H1.43723L1.37376 26.7642L1.31028 26.8242L1.37376 26.8842V27.7642L1.31028 27.8242H0.379273L0.315796 27.7642V22.8842L0.379273 22.8242H1.31028ZM3.4262 24.8242L3.48968 24.8842V25.7642L3.4262 25.8242H2.49519L2.43172 25.7642V24.8842L2.49519 24.8242H3.4262ZM4.48416 27.8242L4.54764 27.8842V28.7642L4.48416 28.8242H1.43723L1.37376 28.7642V27.8842L1.43723 27.8242H4.48416Z" fill="#F5F5F5"/>
<path d="M19.6947 21.8242L19.7581 21.8842V22.7642L19.6947 22.8242H16.6477L16.5843 22.7642V21.8842L16.6477 21.8242H19.6947ZM20.7526 22.8242L20.8161 22.8842V27.7642L20.7526 27.8242H19.8216L19.7581 27.7642V24.8842L19.8216 24.8242L19.7581 24.7642L19.6947 24.8242H18.7637L18.7002 24.7642V23.8842L18.7637 23.8242H19.6947L19.7581 23.8842L19.8216 23.8242L19.7581 23.7642V22.8842L19.8216 22.8242H20.7526ZM16.5208 22.8242L16.5843 22.8842V25.7642L16.5208 25.8242L16.5843 25.8842L16.6477 25.8242H17.5787L17.6422 25.8842V26.7642L17.5787 26.8242H16.6477L16.5843 26.7642L16.5208 26.8242L16.5843 26.8842V27.7642L16.5208 27.8242H15.5898L15.5263 27.7642V22.8842L15.5898 22.8242H16.5208ZM18.6367 24.8242L18.7002 24.8842V25.7642L18.6367 25.8242H17.7057L17.6422 25.7642V24.8842L17.7057 24.8242H18.6367ZM19.6947 27.8242L19.7581 27.8842V28.7642L19.6947 28.8242H16.6477L16.5843 28.7642V27.8842L16.6477 27.8242H19.6947Z" fill="#F5F5F5"/>
<path d="M76.8266 25.4L76.9789 25.544V28.856L76.8266 29H73.3226L73.1703 28.856V25.544L73.3226 25.4H76.8266Z" fill="#F5F5F5"/>
<path d="M34.9054 21.8242L34.9689 21.8842V22.7642L34.9054 22.8242H31.8585L31.795 22.7642V21.8842L31.8585 21.8242H34.9054ZM35.9634 22.8242L36.0269 22.8842V27.7642L35.9634 27.8242H35.0324L34.9689 27.7642V24.8842L35.0324 24.8242L34.9689 24.7642L34.9054 24.8242H33.9744L33.9109 24.7642V23.8842L33.9744 23.8242H34.9054L34.9689 23.8842L35.0324 23.8242L34.9689 23.7642V22.8842L35.0324 22.8242H35.9634ZM31.7315 22.8242L31.795 22.8842V25.7642L31.7315 25.8242L31.795 25.8842L31.8585 25.8242H32.7895L32.853 25.8842V26.7642L32.7895 26.8242H31.8585L31.795 26.7642L31.7315 26.8242L31.795 26.8842V27.7642L31.7315 27.8242H30.8005L30.7371 27.7642V22.8842L30.8005 22.8242H31.7315ZM33.8475 24.8242L33.9109 24.8842V25.7642L33.8475 25.8242H32.9165L32.853 25.7642V24.8842L32.9165 24.8242H33.8475ZM34.9054 27.8242L34.9689 27.8842V28.7642L34.9054 28.8242H31.8585L31.795 28.7642V27.8842L31.8585 27.8242H34.9054Z" fill="#F5F5F5"/>
<path d="M4.48416 10.9121L4.54764 10.9721V11.8521L4.48416 11.9121H1.43723L1.37376 11.8521V10.9721L1.43723 10.9121H4.48416ZM5.54212 11.9121L5.6056 11.9721V16.8521L5.54212 16.9121H4.61112L4.54764 16.8521V13.9721L4.61112 13.9121L4.54764 13.8521L4.48416 13.9121H3.55315L3.48968 13.8521V12.9721L3.55315 12.9121H4.48416L4.54764 12.9721L4.61112 12.9121L4.54764 12.8521V11.9721L4.61112 11.9121H5.54212ZM1.31028 11.9121L1.37376 11.9721V14.8521L1.31028 14.9121L1.37376 14.9721L1.43723 14.9121H2.36824L2.43172 14.9721V15.8521L2.36824 15.9121H1.43723L1.37376 15.8521L1.31028 15.9121L1.37376 15.9721V16.8521L1.31028 16.9121H0.379273L0.315796 16.8521V11.9721L0.379273 11.9121H1.31028ZM3.4262 13.9121L3.48968 13.9721V14.8521L3.4262 14.9121H2.49519L2.43172 14.8521V13.9721L2.49519 13.9121H3.4262ZM4.48416 16.9121L4.54764 16.9721V17.8521L4.48416 17.9121H1.43723L1.37376 17.8521V16.9721L1.43723 16.9121H4.48416Z" fill="#F5F5F5"/>
<path d="M18.6367 10.9121L18.7002 10.9721V16.8521L18.6367 16.9121L18.7002 16.9721L18.7637 16.9121H20.7526L20.8161 16.9721V17.8521L20.7526 17.9121H15.5898L15.5263 17.8521V16.9721L15.5898 16.9121H17.5787L17.6422 16.9721L17.7057 16.9121L17.6422 16.8521V12.9721L17.7057 12.9121L17.6422 12.8521L17.5787 12.9121H16.1188L16.0553 12.8521V11.9721L16.1188 11.9121H17.5787L17.6422 11.9721L17.7057 11.9121L17.6422 11.8521V10.9721L17.7057 10.9121H18.6367Z" fill="#F5F5F5"/>
<path d="M34.9054 10.9121L34.9689 10.9721V11.8521L34.9054 11.9121H31.8585L31.795 11.8521V10.9721L31.8585 10.9121H34.9054ZM35.9634 11.9121L36.0269 11.9721V16.8521L35.9634 16.9121H35.0324L34.9689 16.8521V13.9721L35.0324 13.9121L34.9689 13.8521L34.9054 13.9121H33.9744L33.9109 13.8521V12.9721L33.9744 12.9121H34.9054L34.9689 12.9721L35.0324 12.9121L34.9689 12.8521V11.9721L35.0324 11.9121H35.9634ZM31.7315 11.9121L31.795 11.9721V14.8521L31.7315 14.9121L31.795 14.9721L31.8585 14.9121H32.7895L32.853 14.9721V15.8521L32.7895 15.9121H31.8585L31.795 15.8521L31.7315 15.9121L31.795 15.9721V16.8521L31.7315 16.9121H30.8005L30.7371 16.8521V11.9721L30.8005 11.9121H31.7315ZM33.8475 13.9121L33.9109 13.9721V14.8521L33.8475 14.9121H32.9165L32.853 14.8521V13.9721L32.9165 13.9121H33.8475ZM34.9054 16.9121L34.9689 16.9721V17.8521L34.9054 17.9121H31.8585L31.795 17.8521V16.9721L31.8585 16.9121H34.9054Z" fill="#F5F5F5"/>
<path d="M3.4262 0L3.48968 0.0600004V5.94L3.4262 6L3.48968 6.06L3.55315 6H5.54212L5.6056 6.06V6.94L5.54212 7H0.379273L0.315796 6.94V6.06L0.379273 6H2.36824L2.43172 6.06L2.49519 6L2.43172 5.94V2.06L2.49519 2L2.43172 1.94L2.36824 2H0.908254L0.844776 1.94V1.06L0.908254 1H2.36824L2.43172 1.06L2.49519 1L2.43172 0.94V0.0600004L2.49519 0H3.4262Z" fill="#F5F5F5"/>
<path d="M19.6947 0L19.7581 0.0600004V0.94L19.6947 1H16.6477L16.5843 0.94V0.0600004L16.6477 0H19.6947ZM20.7526 1L20.8161 1.06V5.94L20.7526 6H19.8216L19.7581 5.94V3.06L19.8216 3L19.7581 2.94L19.6947 3H18.7637L18.7002 2.94V2.06L18.7637 2H19.6947L19.7581 2.06L19.8216 2L19.7581 1.94V1.06L19.8216 1H20.7526ZM16.5208 1L16.5843 1.06V3.94L16.5208 4L16.5843 4.06L16.6477 4H17.5787L17.6422 4.06V4.94L17.5787 5H16.6477L16.5843 4.94L16.5208 5L16.5843 5.06V5.94L16.5208 6H15.5898L15.5263 5.94V1.06L15.5898 1H16.5208ZM18.6367 3L18.7002 3.06V3.94L18.6367 4H17.7057L17.6422 3.94V3.06L17.7057 3H18.6367ZM19.6947 6L19.7581 6.06V6.94L19.6947 7H16.6477L16.5843 6.94V6.06L16.6477 6H19.6947Z" fill="#F5F5F5"/>
<path d="M34.9054 0L34.9689 0.0600004V0.94L34.9054 1H31.8585L31.795 0.94V0.0600004L31.8585 0H34.9054ZM35.9634 1L36.0269 1.06V5.94L35.9634 6H35.0324L34.9689 5.94V3.06L35.0324 3L34.9689 2.94L34.9054 3H33.9744L33.9109 2.94V2.06L33.9744 2H34.9054L34.9689 2.06L35.0324 2L34.9689 1.94V1.06L35.0324 1H35.9634ZM31.7315 1L31.795 1.06V3.94L31.7315 4L31.795 4.06L31.8585 4H32.7895L32.853 4.06V4.94L32.7895 5H31.8585L31.795 4.94L31.7315 5L31.795 5.06V5.94L31.7315 6H30.8005L30.7371 5.94V1.06L30.8005 1H31.7315ZM33.8475 3L33.9109 3.06V3.94L33.8475 4H32.9165L32.853 3.94V3.06L32.9165 3H33.8475ZM34.9054 6L34.9689 6.06V6.94L34.9054 7H31.8585L31.795 6.94V6.06L31.8585 6H34.9054Z" fill="#F5F5F5"/>
<path d="M28.6045 78.5393H49.7637V98.5393H28.6045V78.5393Z" fill="#F5F5F5"/>
<path d="M7.44528 58.5393H28.6045V78.5393H7.44528V58.5393Z" fill="#F5F5F5"/>
<path d="M91.9189 0L91.9789 0.0599998V9.94L91.9189 10H91.0389L90.9789 9.94V0.0599998L91.0389 0H91.9189Z" fill="#F5F5F5"/>
<path d="M91.9189 11L91.9789 11.06V20.94L91.9189 21H91.0389L90.9789 20.94V11.06L91.0389 11H91.9189Z" fill="#F5F5F5"/>
<path d="M91.9189 22L91.9789 22.06V31.94L91.9189 32H91.0389L90.9789 31.94V22.06L91.0389 22H91.9189Z" fill="#F5F5F5"/>
<path d="M91.9189 33L91.9789 33.06V42.94L91.9189 43H91.0389L90.9789 42.94V33.06L91.0389 33H91.9189Z" fill="#F5F5F5"/>
<path d="M91.9189 44L91.9789 44.06V53.94L91.9189 54H91.0389L90.9789 53.94V44.06L91.0389 44H91.9189Z" fill="#F5F5F5"/>
<path d="M91.9189 55L91.9789 55.06V64.94L91.9189 65H91.0389L90.9789 64.94V55.06L91.0389 55H91.9189Z" fill="#F5F5F5"/>
<path d="M91.9189 66L91.9789 66.06V75.94L91.9189 76H91.0389L90.9789 75.94V66.06L91.0389 66H91.9189Z" fill="#F5F5F5"/>
<path d="M91.9189 77L91.9789 77.06V86.94L91.9189 87H91.0389L90.9789 86.94V77.06L91.0389 77H91.9189Z" fill="#F5F5F5"/>
<path d="M91.9189 88L91.9789 88.06V97.94L91.9189 98H91.0389L90.9789 97.94V88.06L91.0389 88H91.9189Z" fill="#F5F5F5"/>
<path d="M91.9189 99L91.9789 99.06V108.94L91.9189 109H91.0389L90.9789 108.94V99.06L91.0389 99H91.9189Z" fill="#F5F5F5"/>
<path d="M91.9189 110L91.9789 110.06V119.94L91.9189 120H91.0389L90.9789 119.94V110.06L91.0389 110H91.9189Z" fill="#F5F5F5"/>
</svg>
