<svg width="93" height="120" viewBox="0 0 93 120" fill="none" xmlns="http://www.w3.org/2000/svg">
<path d="M3.63366 21.8242L3.69366 21.8842V27.7642L3.63366 27.8242L3.69366 27.8842L3.75366 27.8242H5.63366L5.69367 27.8842V28.7642L5.63366 28.8242H0.753665L0.693665 28.7642V27.8842L0.753665 27.8242H2.63366L2.69366 27.8842L2.75366 27.8242L2.69366 27.7642V23.8842L2.75366 23.8242L2.69366 23.7642L2.63366 23.8242H1.25366L1.19366 23.7642V22.8842L1.25366 22.8242H2.63366L2.69366 22.8842L2.75366 22.8242L2.69366 22.7642V21.8842L2.75366 21.8242H3.63366Z" fill="#F5F5F5"/>
<path d="M18.0109 21.8242L18.0709 21.8842V27.7642L18.0109 27.8242L18.0709 27.8842L18.1309 27.8242H20.0109L20.0709 27.8842V28.7642L20.0109 28.8242H15.1309L15.0709 28.7642V27.8842L15.1309 27.8242H17.0109L17.0709 27.8842L17.1309 27.8242L17.0709 27.7642V23.8842L17.1309 23.8242L17.0709 23.7642L17.0109 23.8242H15.6309L15.5709 23.7642V22.8842L15.6309 22.8242H17.0109L17.0709 22.8842L17.1309 22.8242L17.0709 22.7642V21.8842L17.1309 21.8242H18.0109Z" fill="#F5F5F5"/>
<path d="M74.8128 12.2L74.9568 12.344V14.456L74.8128 14.6H67.9008L67.7568 14.456V12.344L67.9008 12.2H74.8128ZM77.2128 14.6L77.3568 14.744V19.256L77.2128 19.4H75.1008L74.9568 19.256V14.744L75.1008 14.6H77.2128ZM67.6128 14.6L67.7568 14.744V19.256L67.6128 19.4H65.5008L65.3568 19.256V14.744L65.5008 14.6H67.6128ZM74.8128 19.4L74.9568 19.544V21.656L74.8128 21.8H67.9008L67.7568 21.656V19.544L67.9008 19.4H74.8128ZM77.2128 21.8L77.3568 21.944V26.456L77.2128 26.6H75.1008L74.9568 26.456V21.944L75.1008 21.8H77.2128ZM67.6128 21.8L67.7568 21.944V26.456L67.6128 26.6H65.5008L65.3568 26.456V21.944L65.5008 21.8H67.6128ZM74.8128 26.6L74.9568 26.744V28.856L74.8128 29H67.9008L67.7568 28.856V26.744L67.9008 26.6H74.8128Z" fill="#F5F5F5"/>
<path d="M32.3883 21.8242L32.4483 21.8842V27.7642L32.3883 27.8242L32.4483 27.8842L32.5083 27.8242H34.3883L34.4483 27.8842V28.7642L34.3883 28.8242H29.5083L29.4483 28.7642V27.8842L29.5083 27.8242H31.3883L31.4483 27.8842L31.5083 27.8242L31.4483 27.7642V23.8842L31.5083 23.8242L31.4483 23.7642L31.3883 23.8242H30.0083L29.9483 23.7642V22.8842L30.0083 22.8242H31.3883L31.4483 22.8842L31.5083 22.8242L31.4483 22.7642V21.8842L31.5083 21.8242H32.3883Z" fill="#F5F5F5"/>
<path d="M3.63366 10.9121L3.69366 10.9721V16.8521L3.63366 16.9121L3.69366 16.9721L3.75366 16.9121H5.63366L5.69367 16.9721V17.8521L5.63366 17.9121H0.753665L0.693665 17.8521V16.9721L0.753665 16.9121H2.63366L2.69366 16.9721L2.75366 16.9121L2.69366 16.8521V12.9721L2.75366 12.9121L2.69366 12.8521L2.63366 12.9121H1.25366L1.19366 12.8521V11.9721L1.25366 11.9121H2.63366L2.69366 11.9721L2.75366 11.9121L2.69366 11.8521V10.9721L2.75366 10.9121H3.63366Z" fill="#F5F5F5"/>
<path d="M18.0109 10.9121L18.0709 10.9721V16.8521L18.0109 16.9121L18.0709 16.9721L18.1309 16.9121H20.0109L20.0709 16.9721V17.8521L20.0109 17.9121H15.1309L15.0709 17.8521V16.9721L15.1309 16.9121H17.0109L17.0709 16.9721L17.1309 16.9121L17.0709 16.8521V12.9721L17.1309 12.9121L17.0709 12.8521L17.0109 12.9121H15.6309L15.5709 12.8521V11.9721L15.6309 11.9121H17.0109L17.0709 11.9721L17.1309 11.9121L17.0709 11.8521V10.9721L17.1309 10.9121H18.0109Z" fill="#F5F5F5"/>
<path d="M33.3883 10.9121L33.4483 10.9721V11.8521L33.3883 11.9121H30.5083L30.4483 11.8521V10.9721L30.5083 10.9121H33.3883ZM34.3883 11.9121L34.4483 11.9721V16.8521L34.3883 16.9121H33.5083L33.4483 16.8521V13.9721L33.5083 13.9121L33.4483 13.8521L33.3883 13.9121H32.5083L32.4483 13.8521V12.9721L32.5083 12.9121H33.3883L33.4483 12.9721L33.5083 12.9121L33.4483 12.8521V11.9721L33.5083 11.9121H34.3883ZM30.3883 11.9121L30.4483 11.9721V14.8521L30.3883 14.9121L30.4483 14.9721L30.5083 14.9121H31.3883L31.4483 14.9721V15.8521L31.3883 15.9121H30.5083L30.4483 15.8521L30.3883 15.9121L30.4483 15.9721V16.8521L30.3883 16.9121H29.5083L29.4483 16.8521V11.9721L29.5083 11.9121H30.3883ZM32.3883 13.9121L32.4483 13.9721V14.8521L32.3883 14.9121H31.5083L31.4483 14.8521V13.9721L31.5083 13.9121H32.3883ZM33.3883 16.9121L33.4483 16.9721V17.8521L33.3883 17.9121H30.5083L30.4483 17.8521V16.9721L30.5083 16.9121H33.3883Z" fill="#F5F5F5"/>
<path d="M3.63366 0L3.69366 0.0600004V5.94L3.63366 6L3.69366 6.06L3.75366 6H5.63366L5.69367 6.06V6.94L5.63366 7H0.753665L0.693665 6.94V6.06L0.753665 6H2.63366L2.69366 6.06L2.75366 6L2.69366 5.94V2.06L2.75366 2L2.69366 1.94L2.63366 2H1.25366L1.19366 1.94V1.06L1.25366 1H2.63366L2.69366 1.06L2.75366 1L2.69366 0.94V0.0600004L2.75366 0H3.63366Z" fill="#F5F5F5"/>
<path d="M18.0109 0L18.0709 0.0600004V5.94L18.0109 6L18.0709 6.06L18.1309 6H20.0109L20.0709 6.06V6.94L20.0109 7H15.1309L15.0709 6.94V6.06L15.1309 6H17.0109L17.0709 6.06L17.1309 6L17.0709 5.94V2.06L17.1309 2L17.0709 1.94L17.0109 2H15.6309L15.5709 1.94V1.06L15.6309 1H17.0109L17.0709 1.06L17.1309 1L17.0709 0.94V0.0600004L17.1309 0H18.0109Z" fill="#F5F5F5"/>
<path d="M32.3883 0L32.4483 0.0600004V5.94L32.3883 6L32.4483 6.06L32.5083 6H34.3883L34.4483 6.06V6.94L34.3883 7H29.5083L29.4483 6.94V6.06L29.5083 6H31.3883L31.4483 6.06L31.5083 6L31.4483 5.94V2.06L31.5083 2L31.4483 1.94L31.3883 2H30.0083L29.9483 1.94V1.06L30.0083 1H31.3883L31.4483 1.06L31.5083 1L31.4483 0.94V0.0600004L31.5083 0H32.3883Z" fill="#F5F5F5"/>
<path d="M7.39532 78.5393H27.3953V98.5393H7.39532V78.5393Z" fill="#F5F5F5"/>
<path d="M27.3953 98.5393H47.3953V118.539H27.3953V98.5393Z" fill="#F5F5F5"/>
<path d="M27.3953 58.5393H47.3953V78.5393H27.3953V58.5393Z" fill="#F5F5F5"/>
<path d="M47.3953 58.5393H67.3953V78.5393H47.3953V58.5393Z" fill="#F5F5F5"/>
<path d="M7.39532 58.5393H27.3953V78.5393H7.39532V58.5393Z" fill="#F5F5F5"/>
<path d="M27.3953 78.5393H47.3953V98.5393H27.3953V78.5393Z" fill="#F5F5F5"/>
<path d="M47.3953 98.5393H67.3953V118.539H47.3953V98.5393Z" fill="#F5F5F5"/>
<path d="M7.39532 98.5393H27.3953V118.539H7.39532V98.5393Z" fill="#F5F5F5"/>
<path d="M92.2968 0L92.3568 0.0599998V9.94L92.2968 10H91.4168L91.3568 9.94V0.0599998L91.4168 0H92.2968Z" fill="#F5F5F5"/>
<path d="M92.2968 11L92.3568 11.06V20.94L92.2968 21H91.4168L91.3568 20.94V11.06L91.4168 11H92.2968Z" fill="#F5F5F5"/>
<path d="M92.2968 22L92.3568 22.06V31.94L92.2968 32H91.4168L91.3568 31.94V22.06L91.4168 22H92.2968Z" fill="#F5F5F5"/>
<path d="M92.2968 33L92.3568 33.06V42.94L92.2968 43H91.4168L91.3568 42.94V33.06L91.4168 33H92.2968Z" fill="#F5F5F5"/>
<path d="M92.2968 44L92.3568 44.06V53.94L92.2968 54H91.4168L91.3568 53.94V44.06L91.4168 44H92.2968Z" fill="#F5F5F5"/>
<path d="M92.2968 55L92.3568 55.06V64.94L92.2968 65H91.4168L91.3568 64.94V55.06L91.4168 55H92.2968Z" fill="#F5F5F5"/>
<path d="M92.2968 66L92.3568 66.06V75.94L92.2968 76H91.4168L91.3568 75.94V66.06L91.4168 66H92.2968Z" fill="#F5F5F5"/>
<path d="M92.2968 77L92.3568 77.06V86.94L92.2968 87H91.4168L91.3568 86.94V77.06L91.4168 77H92.2968Z" fill="#F5F5F5"/>
<path d="M92.2968 88L92.3568 88.06V97.94L92.2968 98H91.4168L91.3568 97.94V88.06L91.4168 88H92.2968Z" fill="#F5F5F5"/>
<path d="M92.2968 99L92.3568 99.06V108.94L92.2968 109H91.4168L91.3568 108.94V99.06L91.4168 99H92.2968Z" fill="#F5F5F5"/>
<path d="M92.2968 110L92.3568 110.06V119.94L92.2968 120H91.4168L91.3568 119.94V110.06L91.4168 110H92.2968Z" fill="#F5F5F5"/>
</svg>
