<svg width="93" height="120" viewBox="0 0 93 120" fill="none" xmlns="http://www.w3.org/2000/svg">
<path d="M5.14731 21.8242L5.21079 21.8842V22.7642L5.14731 22.8242H2.10038L2.0369 22.7642V21.8842L2.10038 21.8242H5.14731ZM6.20527 22.8242L6.26875 22.8842V27.7642L6.20527 27.8242H5.27427L5.21079 27.7642V24.8842L5.27427 24.8242L5.21079 24.7642L5.14731 24.8242H4.2163L4.15283 24.7642V23.8842L4.2163 23.8242H5.14731L5.21079 23.8842L5.27427 23.8242L5.21079 23.7642V22.8842L5.27427 22.8242H6.20527ZM1.97343 22.8242L2.0369 22.8842V25.7642L1.97343 25.8242L2.0369 25.8842L2.10038 25.8242H3.03139L3.09487 25.8842V26.7642L3.03139 26.8242H2.10038L2.0369 26.7642L1.97343 26.8242L2.0369 26.8842V27.7642L1.97343 27.8242H1.04242L0.978943 27.7642V22.8842L1.04242 22.8242H1.97343ZM4.08935 24.8242L4.15283 24.8842V25.7642L4.08935 25.8242H3.15834L3.09487 25.7642V24.8842L3.15834 24.8242H4.08935ZM5.14731 27.8242L5.21079 27.8842V28.7642L5.14731 28.8242H2.10038L2.0369 28.7642V27.8842L2.10038 27.8242H5.14731Z" fill="#F5F5F5"/>
<path d="M20.3578 21.8242L20.4213 21.8842V22.7642L20.3578 22.8242H17.3109L17.2474 22.7642V21.8842L17.3109 21.8242H20.3578ZM21.4158 22.8242L21.4793 22.8842V27.7642L21.4158 27.8242H20.4848L20.4213 27.7642V24.8842L20.4848 24.8242L20.4213 24.7642L20.3578 24.8242H19.4268L19.3633 24.7642V23.8842L19.4268 23.8242H20.3578L20.4213 23.8842L20.4848 23.8242L20.4213 23.7642V22.8842L20.4848 22.8242H21.4158ZM17.1839 22.8242L17.2474 22.8842V25.7642L17.1839 25.8242L17.2474 25.8842L17.3109 25.8242H18.2419L18.3054 25.8842V26.7642L18.2419 26.8242H17.3109L17.2474 26.7642L17.1839 26.8242L17.2474 26.8842V27.7642L17.1839 27.8242H16.2529L16.1895 27.7642V22.8842L16.2529 22.8242H17.1839ZM19.2999 24.8242L19.3633 24.8842V25.7642L19.2999 25.8242H18.3689L18.3054 25.7642V24.8842L18.3689 24.8242H19.2999ZM20.3578 27.8242L20.4213 27.8842V28.7642L20.3578 28.8242H17.3109L17.2474 28.7642V27.8842L17.3109 27.8242H20.3578Z" fill="#F5F5F5"/>
<path d="M77.4898 17L77.6422 17.144V20.456L77.4898 20.6H73.9858L73.8335 20.456V17.144L73.9858 17H77.4898ZM77.4898 25.4L77.6422 25.544V28.856L77.4898 29H73.9858L73.8335 28.856V25.544L73.9858 25.4H77.4898Z" fill="#F5F5F5"/>
<path d="M34.5106 21.8242L34.5741 21.8842V27.7642L34.5106 27.8242L34.5741 27.8842L34.6376 27.8242H36.6266L36.69 27.8842V28.7642L36.6266 28.8242H31.4637L31.4002 28.7642V27.8842L31.4637 27.8242H33.4527L33.5162 27.8842L33.5796 27.8242L33.5162 27.7642V23.8842L33.5796 23.8242L33.5162 23.7642L33.4527 23.8242H31.9927L31.9292 23.7642V22.8842L31.9927 22.8242H33.4527L33.5162 22.8842L33.5796 22.8242L33.5162 22.7642V21.8842L33.5796 21.8242H34.5106Z" fill="#F5F5F5"/>
<path d="M5.14731 10.9121L5.21079 10.9721V11.8521L5.14731 11.9121H2.10038L2.0369 11.8521V10.9721L2.10038 10.9121H5.14731ZM6.20527 11.9121L6.26875 11.9721V16.8521L6.20527 16.9121H5.27427L5.21079 16.8521V13.9721L5.27427 13.9121L5.21079 13.8521L5.14731 13.9121H4.2163L4.15283 13.8521V12.9721L4.2163 12.9121H5.14731L5.21079 12.9721L5.27427 12.9121L5.21079 12.8521V11.9721L5.27427 11.9121H6.20527ZM1.97343 11.9121L2.0369 11.9721V14.8521L1.97343 14.9121L2.0369 14.9721L2.10038 14.9121H3.03139L3.09487 14.9721V15.8521L3.03139 15.9121H2.10038L2.0369 15.8521L1.97343 15.9121L2.0369 15.9721V16.8521L1.97343 16.9121H1.04242L0.978943 16.8521V11.9721L1.04242 11.9121H1.97343ZM4.08935 13.9121L4.15283 13.9721V14.8521L4.08935 14.9121H3.15834L3.09487 14.8521V13.9721L3.15834 13.9121H4.08935ZM5.14731 16.9121L5.21079 16.9721V17.8521L5.14731 17.9121H2.10038L2.0369 17.8521V16.9721L2.10038 16.9121H5.14731Z" fill="#F5F5F5"/>
<path d="M20.3578 10.9121L20.4213 10.9721V11.8521L20.3578 11.9121H17.3109L17.2474 11.8521V10.9721L17.3109 10.9121H20.3578ZM21.4158 11.9121L21.4793 11.9721V16.8521L21.4158 16.9121H20.4848L20.4213 16.8521V13.9721L20.4848 13.9121L20.4213 13.8521L20.3578 13.9121H19.4268L19.3633 13.8521V12.9721L19.4268 12.9121H20.3578L20.4213 12.9721L20.4848 12.9121L20.4213 12.8521V11.9721L20.4848 11.9121H21.4158ZM17.1839 11.9121L17.2474 11.9721V14.8521L17.1839 14.9121L17.2474 14.9721L17.3109 14.9121H18.2419L18.3054 14.9721V15.8521L18.2419 15.9121H17.3109L17.2474 15.8521L17.1839 15.9121L17.2474 15.9721V16.8521L17.1839 16.9121H16.2529L16.1895 16.8521V11.9721L16.2529 11.9121H17.1839ZM19.2999 13.9121L19.3633 13.9721V14.8521L19.2999 14.9121H18.3689L18.3054 14.8521V13.9721L18.3689 13.9121H19.2999ZM20.3578 16.9121L20.4213 16.9721V17.8521L20.3578 17.9121H17.3109L17.2474 17.8521V16.9721L17.3109 16.9121H20.3578Z" fill="#F5F5F5"/>
<path d="M35.5686 10.9121L35.6321 10.9721V11.8521L35.5686 11.9121H32.5217L32.4582 11.8521V10.9721L32.5217 10.9121H35.5686ZM36.6266 11.9121L36.69 11.9721V16.8521L36.6266 16.9121H35.6956L35.6321 16.8521V13.9721L35.6956 13.9121L35.6321 13.8521L35.5686 13.9121H34.6376L34.5741 13.8521V12.9721L34.6376 12.9121H35.5686L35.6321 12.9721L35.6956 12.9121L35.6321 12.8521V11.9721L35.6956 11.9121H36.6266ZM32.3947 11.9121L32.4582 11.9721V14.8521L32.3947 14.9121L32.4582 14.9721L32.5217 14.9121H33.4527L33.5162 14.9721V15.8521L33.4527 15.9121H32.5217L32.4582 15.8521L32.3947 15.9121L32.4582 15.9721V16.8521L32.3947 16.9121H31.4637L31.4002 16.8521V11.9721L31.4637 11.9121H32.3947ZM34.5106 13.9121L34.5741 13.9721V14.8521L34.5106 14.9121H33.5796L33.5162 14.8521V13.9721L33.5796 13.9121H34.5106ZM35.5686 16.9121L35.6321 16.9721V17.8521L35.5686 17.9121H32.5217L32.4582 17.8521V16.9721L32.5217 16.9121H35.5686Z" fill="#F5F5F5"/>
<path d="M5.14731 0L5.21079 0.0600004V0.94L5.14731 1H2.10038L2.0369 0.94V0.0600004L2.10038 0H5.14731ZM6.20527 1L6.26875 1.06V5.94L6.20527 6H5.27427L5.21079 5.94V3.06L5.27427 3L5.21079 2.94L5.14731 3H4.2163L4.15283 2.94V2.06L4.2163 2H5.14731L5.21079 2.06L5.27427 2L5.21079 1.94V1.06L5.27427 1H6.20527ZM1.97343 1L2.0369 1.06V3.94L1.97343 4L2.0369 4.06L2.10038 4H3.03139L3.09487 4.06V4.94L3.03139 5H2.10038L2.0369 4.94L1.97343 5L2.0369 5.06V5.94L1.97343 6H1.04242L0.978943 5.94V1.06L1.04242 1H1.97343ZM4.08935 3L4.15283 3.06V3.94L4.08935 4H3.15834L3.09487 3.94V3.06L3.15834 3H4.08935ZM5.14731 6L5.21079 6.06V6.94L5.14731 7H2.10038L2.0369 6.94V6.06L2.10038 6H5.14731Z" fill="#F5F5F5"/>
<path d="M19.2999 0L19.3633 0.0600004V5.94L19.2999 6L19.3633 6.06L19.4268 6H21.4158L21.4793 6.06V6.94L21.4158 7H16.2529L16.1895 6.94V6.06L16.2529 6H18.2419L18.3054 6.06L18.3689 6L18.3054 5.94V2.06L18.3689 2L18.3054 1.94L18.2419 2H16.7819L16.7184 1.94V1.06L16.7819 1H18.2419L18.3054 1.06L18.3689 1L18.3054 0.94V0.0600004L18.3689 0H19.2999Z" fill="#F5F5F5"/>
<path d="M35.5686 0L35.6321 0.0600004V0.94L35.5686 1H32.5217L32.4582 0.94V0.0600004L32.5217 0H35.5686ZM36.6266 1L36.69 1.06V5.94L36.6266 6H35.6956L35.6321 5.94V3.06L35.6956 3L35.6321 2.94L35.5686 3H34.6376L34.5741 2.94V2.06L34.6376 2H35.5686L35.6321 2.06L35.6956 2L35.6321 1.94V1.06L35.6956 1H36.6266ZM32.3947 1L32.4582 1.06V3.94L32.3947 4L32.4582 4.06L32.5217 4H33.4527L33.5162 4.06V4.94L33.4527 5H32.5217L32.4582 4.94L32.3947 5L32.4582 5.06V5.94L32.3947 6H31.4637L31.4002 5.94V1.06L31.4637 1H32.3947ZM34.5106 3L34.5741 3.06V3.94L34.5106 4H33.5796L33.5162 3.94V3.06L33.5796 3H34.5106ZM35.5686 6L35.6321 6.06V6.94L35.5686 7H32.5217L32.4582 6.94V6.06L32.5217 6H35.5686Z" fill="#F5F5F5"/>
<path d="M50.4269 98.5393H71.5861V118.539H50.4269V98.5393Z" fill="#F5F5F5"/>
<path d="M29.2677 58.5393H50.4269V78.5393H29.2677V58.5393Z" fill="#F5F5F5"/>
<path d="M92.5822 0L92.6422 0.0599998V9.94L92.5822 10H91.7022L91.6422 9.94V0.0599998L91.7022 0H92.5822Z" fill="#F5F5F5"/>
<path d="M92.5822 11L92.6422 11.06V20.94L92.5822 21H91.7022L91.6422 20.94V11.06L91.7022 11H92.5822Z" fill="#F5F5F5"/>
<path d="M92.5822 22L92.6422 22.06V31.94L92.5822 32H91.7022L91.6422 31.94V22.06L91.7022 22H92.5822Z" fill="#F5F5F5"/>
<path d="M92.5822 33L92.6422 33.06V42.94L92.5822 43H91.7022L91.6422 42.94V33.06L91.7022 33H92.5822Z" fill="#F5F5F5"/>
<path d="M92.5822 44L92.6422 44.06V53.94L92.5822 54H91.7022L91.6422 53.94V44.06L91.7022 44H92.5822Z" fill="#F5F5F5"/>
<path d="M92.5822 55L92.6422 55.06V64.94L92.5822 65H91.7022L91.6422 64.94V55.06L91.7022 55H92.5822Z" fill="#F5F5F5"/>
<path d="M92.5822 66L92.6422 66.06V75.94L92.5822 76H91.7022L91.6422 75.94V66.06L91.7022 66H92.5822Z" fill="#F5F5F5"/>
<path d="M92.5822 77L92.6422 77.06V86.94L92.5822 87H91.7022L91.6422 86.94V77.06L91.7022 77H92.5822Z" fill="#F5F5F5"/>
<path d="M92.5822 88L92.6422 88.06V97.94L92.5822 98H91.7022L91.6422 97.94V88.06L91.7022 88H92.5822Z" fill="#F5F5F5"/>
<path d="M92.5822 99L92.6422 99.06V108.94L92.5822 109H91.7022L91.6422 108.94V99.06L91.7022 99H92.5822Z" fill="#F5F5F5"/>
<path d="M92.5822 110L92.6422 110.06V119.94L92.5822 120H91.7022L91.6422 119.94V110.06L91.7022 110H92.5822Z" fill="#F5F5F5"/>
</svg>
