<svg width="93" height="120" viewBox="0 0 93 120" fill="none" xmlns="http://www.w3.org/2000/svg">
<path d="M3.29681 21.8242L3.35681 21.8842V27.7642L3.29681 27.8242L3.35681 27.8842L3.41681 27.8242H5.29681L5.35681 27.8842V28.7642L5.29681 28.8242H0.416811L0.356812 28.7642V27.8842L0.416811 27.8242H2.29681L2.35681 27.8842L2.41681 27.8242L2.35681 27.7642V23.8842L2.41681 23.8242L2.35681 23.7642L2.29681 23.8242H0.916812L0.856811 23.7642V22.8842L0.916812 22.8242H2.29681L2.35681 22.8842L2.41681 22.8242L2.35681 22.7642V21.8842L2.41681 21.8242H3.29681Z" fill="#F5F5F5"/>
<path d="M17.674 21.8242L17.734 21.8842V27.7642L17.674 27.8242L17.734 27.8842L17.794 27.8242H19.674L19.734 27.8842V28.7642L19.674 28.8242H14.794L14.734 28.7642V27.8842L14.794 27.8242H16.674L16.734 27.8842L16.794 27.8242L16.734 27.7642V23.8842L16.794 23.8242L16.734 23.7642L16.674 23.8242H15.294L15.234 23.7642V22.8842L15.294 22.8242H16.674L16.734 22.8842L16.794 22.8242L16.734 22.7642V21.8842L16.794 21.8242H17.674Z" fill="#F5F5F5"/>
<path d="M74.476 12.2L74.62 12.344V14.456L74.476 14.6H67.564L67.42 14.456V12.344L67.564 12.2H74.476ZM76.876 14.6L77.02 14.744V26.456L76.876 26.6H74.764L74.62 26.456V21.944L74.764 21.8L74.62 21.656L74.476 21.8H67.564L67.42 21.656V19.544L67.564 19.4H74.476L74.62 19.544L74.764 19.4L74.62 19.256V14.744L74.764 14.6H76.876ZM67.276 14.6L67.42 14.744V19.256L67.276 19.4H65.164L65.02 19.256V14.744L65.164 14.6H67.276ZM67.276 24.2L67.42 24.344V26.456L67.276 26.6H65.164L65.02 26.456V24.344L65.164 24.2H67.276ZM74.476 26.6L74.62 26.744V28.856L74.476 29H67.564L67.42 28.856V26.744L67.564 26.6H74.476Z" fill="#F5F5F5"/>
<path d="M32.0515 21.8242L32.1115 21.8842V27.7642L32.0515 27.8242L32.1115 27.8842L32.1714 27.8242H34.0514L34.1115 27.8842V28.7642L34.0514 28.8242H29.1714L29.1115 28.7642V27.8842L29.1714 27.8242H31.0515L31.1115 27.8842L31.1714 27.8242L31.1115 27.7642V23.8842L31.1714 23.8242L31.1115 23.7642L31.0515 23.8242H29.6714L29.6115 23.7642V22.8842L29.6714 22.8242H31.0515L31.1115 22.8842L31.1714 22.8242L31.1115 22.7642V21.8842L31.1714 21.8242H32.0515Z" fill="#F5F5F5"/>
<path d="M3.29681 10.9121L3.35681 10.9721V16.8521L3.29681 16.9121L3.35681 16.9721L3.41681 16.9121H5.29681L5.35681 16.9721V17.8521L5.29681 17.9121H0.416811L0.356812 17.8521V16.9721L0.416811 16.9121H2.29681L2.35681 16.9721L2.41681 16.9121L2.35681 16.8521V12.9721L2.41681 12.9121L2.35681 12.8521L2.29681 12.9121H0.916812L0.856811 12.8521V11.9721L0.916812 11.9121H2.29681L2.35681 11.9721L2.41681 11.9121L2.35681 11.8521V10.9721L2.41681 10.9121H3.29681Z" fill="#F5F5F5"/>
<path d="M17.674 10.9121L17.734 10.9721V16.8521L17.674 16.9121L17.734 16.9721L17.794 16.9121H19.674L19.734 16.9721V17.8521L19.674 17.9121H14.794L14.734 17.8521V16.9721L14.794 16.9121H16.674L16.734 16.9721L16.794 16.9121L16.734 16.8521V12.9721L16.794 12.9121L16.734 12.8521L16.674 12.9121H15.294L15.234 12.8521V11.9721L15.294 11.9121H16.674L16.734 11.9721L16.794 11.9121L16.734 11.8521V10.9721L16.794 10.9121H17.674Z" fill="#F5F5F5"/>
<path d="M32.0515 10.9121L32.1115 10.9721V16.8521L32.0515 16.9121L32.1115 16.9721L32.1714 16.9121H34.0514L34.1115 16.9721V17.8521L34.0514 17.9121H29.1714L29.1115 17.8521V16.9721L29.1714 16.9121H31.0515L31.1115 16.9721L31.1714 16.9121L31.1115 16.8521V12.9721L31.1714 12.9121L31.1115 12.8521L31.0515 12.9121H29.6714L29.6115 12.8521V11.9721L29.6714 11.9121H31.0515L31.1115 11.9721L31.1714 11.9121L31.1115 11.8521V10.9721L31.1714 10.9121H32.0515Z" fill="#F5F5F5"/>
<path d="M3.29681 0L3.35681 0.0600004V5.94L3.29681 6L3.35681 6.06L3.41681 6H5.29681L5.35681 6.06V6.94L5.29681 7H0.416811L0.356812 6.94V6.06L0.416811 6H2.29681L2.35681 6.06L2.41681 6L2.35681 5.94V2.06L2.41681 2L2.35681 1.94L2.29681 2H0.916812L0.856811 1.94V1.06L0.916812 1H2.29681L2.35681 1.06L2.41681 1L2.35681 0.94V0.0600004L2.41681 0H3.29681Z" fill="#F5F5F5"/>
<path d="M17.674 0L17.734 0.0600004V5.94L17.674 6L17.734 6.06L17.794 6H19.674L19.734 6.06V6.94L19.674 7H14.794L14.734 6.94V6.06L14.794 6H16.674L16.734 6.06L16.794 6L16.734 5.94V2.06L16.794 2L16.734 1.94L16.674 2H15.294L15.234 1.94V1.06L15.294 1H16.674L16.734 1.06L16.794 1L16.734 0.94V0.0600004L16.794 0H17.674Z" fill="#F5F5F5"/>
<path d="M32.0515 0L32.1115 0.0600004V5.94L32.0515 6L32.1115 6.06L32.1714 6H34.0514L34.1115 6.06V6.94L34.0514 7H29.1714L29.1115 6.94V6.06L29.1714 6H31.0515L31.1115 6.06L31.1714 6L31.1115 5.94V2.06L31.1714 2L31.1115 1.94L31.0515 2H29.6714L29.6115 1.94V1.06L29.6714 1H31.0515L31.1115 1.06L31.1714 1L31.1115 0.94V0.0600004L31.1714 0H32.0515Z" fill="#F5F5F5"/>
<path d="M47.0585 78.5393H67.0585V98.5393H47.0585V78.5393Z" fill="#F5F5F5"/>
<path d="M7.05847 78.5393H27.0585V98.5393H7.05847V78.5393Z" fill="#F5F5F5"/>
<path d="M27.0585 98.5393H47.0585V118.539H27.0585V98.5393Z" fill="#F5F5F5"/>
<path d="M27.0585 58.5393H47.0585V78.5393H27.0585V58.5393Z" fill="#F5F5F5"/>
<path d="M47.0585 58.5393H67.0585V78.5393H47.0585V58.5393Z" fill="#F5F5F5"/>
<path d="M7.05847 58.5393H27.0585V78.5393H7.05847V58.5393Z" fill="#F5F5F5"/>
<path d="M27.0585 78.5393H47.0585V98.5393H27.0585V78.5393Z" fill="#F5F5F5"/>
<path d="M47.0585 98.5393H67.0585V118.539H47.0585V98.5393Z" fill="#F5F5F5"/>
<path d="M7.05847 98.5393H27.0585V118.539H7.05847V98.5393Z" fill="#F5F5F5"/>
<path d="M91.96 0L92.02 0.0599998V9.94L91.96 10H91.08L91.02 9.94V0.0599998L91.08 0H91.96Z" fill="#F5F5F5"/>
<path d="M91.96 11L92.02 11.06V20.94L91.96 21H91.08L91.02 20.94V11.06L91.08 11H91.96Z" fill="#F5F5F5"/>
<path d="M91.96 22L92.02 22.06V31.94L91.96 32H91.08L91.02 31.94V22.06L91.08 22H91.96Z" fill="#F5F5F5"/>
<path d="M91.96 33L92.02 33.06V42.94L91.96 43H91.08L91.02 42.94V33.06L91.08 33H91.96Z" fill="#F5F5F5"/>
<path d="M91.96 44L92.02 44.06V53.94L91.96 54H91.08L91.02 53.94V44.06L91.08 44H91.96Z" fill="#F5F5F5"/>
<path d="M91.96 55L92.02 55.06V64.94L91.96 65H91.08L91.02 64.94V55.06L91.08 55H91.96Z" fill="#F5F5F5"/>
<path d="M91.96 66L92.02 66.06V75.94L91.96 76H91.08L91.02 75.94V66.06L91.08 66H91.96Z" fill="#F5F5F5"/>
<path d="M91.96 77L92.02 77.06V86.94L91.96 87H91.08L91.02 86.94V77.06L91.08 77H91.96Z" fill="#F5F5F5"/>
<path d="M91.96 88L92.02 88.06V97.94L91.96 98H91.08L91.02 97.94V88.06L91.08 88H91.96Z" fill="#F5F5F5"/>
<path d="M91.96 99L92.02 99.06V108.94L91.96 109H91.08L91.02 108.94V99.06L91.08 99H91.96Z" fill="#F5F5F5"/>
<path d="M91.96 110L92.02 110.06V119.94L91.96 120H91.08L91.02 119.94V110.06L91.08 110H91.96Z" fill="#F5F5F5"/>
</svg>
