<svg width="92" height="120" viewBox="0 0 92 120" fill="none" xmlns="http://www.w3.org/2000/svg">
<path d="M3.26632 21.8242L3.32632 21.8842V27.7642L3.26632 27.8242L3.32632 27.8842L3.38632 27.8242H5.26632L5.32632 27.8842V28.7642L5.26632 28.8242H0.386324L0.326324 28.7642V27.8842L0.386324 27.8242H2.26632L2.32632 27.8842L2.38632 27.8242L2.32632 27.7642V23.8842L2.38632 23.8242L2.32632 23.7642L2.26632 23.8242H0.886325L0.826324 23.7642V22.8842L0.886325 22.8242H2.26632L2.32632 22.8842L2.38632 22.8242L2.32632 22.7642V21.8842L2.38632 21.8242H3.26632Z" fill="#F5F5F5"/>
<path d="M18.6435 21.8242L18.7035 21.8842V22.7642L18.6435 22.8242H15.7635L15.7035 22.7642V21.8842L15.7635 21.8242H18.6435ZM19.6435 22.8242L19.7035 22.8842V27.7642L19.6435 27.8242H18.7635L18.7035 27.7642V24.8842L18.7635 24.8242L18.7035 24.7642L18.6435 24.8242H17.7635L17.7035 24.7642V23.8842L17.7635 23.8242H18.6435L18.7035 23.8842L18.7635 23.8242L18.7035 23.7642V22.8842L18.7635 22.8242H19.6435ZM15.6435 22.8242L15.7035 22.8842V25.7642L15.6435 25.8242L15.7035 25.8842L15.7635 25.8242H16.6435L16.7035 25.8842V26.7642L16.6435 26.8242H15.7635L15.7035 26.7642L15.6435 26.8242L15.7035 26.8842V27.7642L15.6435 27.8242H14.7635L14.7035 27.7642V22.8842L14.7635 22.8242H15.6435ZM17.6435 24.8242L17.7035 24.8842V25.7642L17.6435 25.8242H16.7635L16.7035 25.7642V24.8842L16.7635 24.8242H17.6435ZM18.6435 27.8242L18.7035 27.8842V28.7642L18.6435 28.8242H15.7635L15.7035 28.7642V27.8842L15.7635 27.8242H18.6435Z" fill="#F5F5F5"/>
<path d="M76.8455 12.2L76.9895 12.344V14.456L76.8455 14.6H67.5335L67.3895 14.456L67.2455 14.6L67.3895 14.744V19.256L67.2455 19.4L67.3895 19.544L67.5335 19.4H74.4455L74.5895 19.544V21.656L74.4455 21.8H67.5335L67.3895 21.656L67.2455 21.8L67.3895 21.944V26.456L67.2455 26.6L67.3895 26.744L67.5335 26.6H76.8455L76.9895 26.744V28.856L76.8455 29H65.1335L64.9895 28.856V12.344L65.1335 12.2H76.8455Z" fill="#F5F5F5"/>
<path d="M32.021 21.8242L32.081 21.8842V27.7642L32.021 27.8242L32.081 27.8842L32.141 27.8242H34.021L34.081 27.8842V28.7642L34.021 28.8242H29.141L29.081 28.7642V27.8842L29.141 27.8242H31.021L31.081 27.8842L31.141 27.8242L31.081 27.7642V23.8842L31.141 23.8242L31.081 23.7642L31.021 23.8242H29.641L29.581 23.7642V22.8842L29.641 22.8242H31.021L31.081 22.8842L31.141 22.8242L31.081 22.7642V21.8842L31.141 21.8242H32.021Z" fill="#F5F5F5"/>
<path d="M3.26632 10.9121L3.32632 10.9721V16.8521L3.26632 16.9121L3.32632 16.9721L3.38632 16.9121H5.26632L5.32632 16.9721V17.8521L5.26632 17.9121H0.386324L0.326324 17.8521V16.9721L0.386324 16.9121H2.26632L2.32632 16.9721L2.38632 16.9121L2.32632 16.8521V12.9721L2.38632 12.9121L2.32632 12.8521L2.26632 12.9121H0.886325L0.826324 12.8521V11.9721L0.886325 11.9121H2.26632L2.32632 11.9721L2.38632 11.9121L2.32632 11.8521V10.9721L2.38632 10.9121H3.26632Z" fill="#F5F5F5"/>
<path d="M18.6435 10.9121L18.7035 10.9721V11.8521L18.6435 11.9121H15.7635L15.7035 11.8521V10.9721L15.7635 10.9121H18.6435ZM19.6435 11.9121L19.7035 11.9721V16.8521L19.6435 16.9121H18.7635L18.7035 16.8521V13.9721L18.7635 13.9121L18.7035 13.8521L18.6435 13.9121H17.7635L17.7035 13.8521V12.9721L17.7635 12.9121H18.6435L18.7035 12.9721L18.7635 12.9121L18.7035 12.8521V11.9721L18.7635 11.9121H19.6435ZM15.6435 11.9121L15.7035 11.9721V14.8521L15.6435 14.9121L15.7035 14.9721L15.7635 14.9121H16.6435L16.7035 14.9721V15.8521L16.6435 15.9121H15.7635L15.7035 15.8521L15.6435 15.9121L15.7035 15.9721V16.8521L15.6435 16.9121H14.7635L14.7035 16.8521V11.9721L14.7635 11.9121H15.6435ZM17.6435 13.9121L17.7035 13.9721V14.8521L17.6435 14.9121H16.7635L16.7035 14.8521V13.9721L16.7635 13.9121H17.6435ZM18.6435 16.9121L18.7035 16.9721V17.8521L18.6435 17.9121H15.7635L15.7035 17.8521V16.9721L15.7635 16.9121H18.6435Z" fill="#F5F5F5"/>
<path d="M33.021 10.9121L33.081 10.9721V11.8521L33.021 11.9121H30.141L30.081 11.8521V10.9721L30.141 10.9121H33.021ZM34.021 11.9121L34.081 11.9721V16.8521L34.021 16.9121H33.141L33.081 16.8521V13.9721L33.141 13.9121L33.081 13.8521L33.021 13.9121H32.141L32.081 13.8521V12.9721L32.141 12.9121H33.021L33.081 12.9721L33.141 12.9121L33.081 12.8521V11.9721L33.141 11.9121H34.021ZM30.021 11.9121L30.081 11.9721V14.8521L30.021 14.9121L30.081 14.9721L30.141 14.9121H31.021L31.081 14.9721V15.8521L31.021 15.9121H30.141L30.081 15.8521L30.021 15.9121L30.081 15.9721V16.8521L30.021 16.9121H29.141L29.081 16.8521V11.9721L29.141 11.9121H30.021ZM32.021 13.9121L32.081 13.9721V14.8521L32.021 14.9121H31.141L31.081 14.8521V13.9721L31.141 13.9121H32.021ZM33.021 16.9121L33.081 16.9721V17.8521L33.021 17.9121H30.141L30.081 17.8521V16.9721L30.141 16.9121H33.021Z" fill="#F5F5F5"/>
<path d="M3.26632 0L3.32632 0.0600004V5.94L3.26632 6L3.32632 6.06L3.38632 6H5.26632L5.32632 6.06V6.94L5.26632 7H0.386324L0.326324 6.94V6.06L0.386324 6H2.26632L2.32632 6.06L2.38632 6L2.32632 5.94V2.06L2.38632 2L2.32632 1.94L2.26632 2H0.886325L0.826324 1.94V1.06L0.886325 1H2.26632L2.32632 1.06L2.38632 1L2.32632 0.94V0.0600004L2.38632 0H3.26632Z" fill="#F5F5F5"/>
<path d="M18.6435 0L18.7035 0.0600004V0.94L18.6435 1H15.7635L15.7035 0.94V0.0600004L15.7635 0H18.6435ZM19.6435 1L19.7035 1.06V5.94L19.6435 6H18.7635L18.7035 5.94V3.06L18.7635 3L18.7035 2.94L18.6435 3H17.7635L17.7035 2.94V2.06L17.7635 2H18.6435L18.7035 2.06L18.7635 2L18.7035 1.94V1.06L18.7635 1H19.6435ZM15.6435 1L15.7035 1.06V3.94L15.6435 4L15.7035 4.06L15.7635 4H16.6435L16.7035 4.06V4.94L16.6435 5H15.7635L15.7035 4.94L15.6435 5L15.7035 5.06V5.94L15.6435 6H14.7635L14.7035 5.94V1.06L14.7635 1H15.6435ZM17.6435 3L17.7035 3.06V3.94L17.6435 4H16.7635L16.7035 3.94V3.06L16.7635 3H17.6435ZM18.6435 6L18.7035 6.06V6.94L18.6435 7H15.7635L15.7035 6.94V6.06L15.7635 6H18.6435Z" fill="#F5F5F5"/>
<path d="M32.021 0L32.081 0.0600004V5.94L32.021 6L32.081 6.06L32.141 6H34.021L34.081 6.06V6.94L34.021 7H29.141L29.081 6.94V6.06L29.141 6H31.021L31.081 6.06L31.141 6L31.081 5.94V2.06L31.141 2L31.081 1.94L31.021 2H29.641L29.581 1.94V1.06L29.641 1H31.021L31.081 1.06L31.141 1L31.081 0.94V0.0600004L31.141 0H32.021Z" fill="#F5F5F5"/>
<path d="M7.02798 58.5393H27.028V78.5393H7.02798V58.5393Z" fill="#F5F5F5"/>
<path d="M7.02798 78.5393H27.028V98.5393H7.02798V78.5393Z" fill="#F5F5F5"/>
<path d="M7.02798 98.5393H27.028V118.539H7.02798V98.5393Z" fill="#F5F5F5"/>
<path d="M47.028 98.5393H67.028V118.539H47.028V98.5393Z" fill="#F5F5F5"/>
<path d="M47.028 58.5393H67.028V78.5393H47.028V58.5393Z" fill="#F5F5F5"/>
<path d="M91.9295 0L91.9895 0.0599998V9.94L91.9295 10H91.0495L90.9895 9.94V0.0599998L91.0495 0H91.9295Z" fill="#F5F5F5"/>
<path d="M91.9295 11L91.9895 11.06V20.94L91.9295 21H91.0495L90.9895 20.94V11.06L91.0495 11H91.9295Z" fill="#F5F5F5"/>
<path d="M91.9295 22L91.9895 22.06V31.94L91.9295 32H91.0495L90.9895 31.94V22.06L91.0495 22H91.9295Z" fill="#F5F5F5"/>
<path d="M91.9295 33L91.9895 33.06V42.94L91.9295 43H91.0495L90.9895 42.94V33.06L91.0495 33H91.9295Z" fill="#F5F5F5"/>
<path d="M91.9295 44L91.9895 44.06V53.94L91.9295 54H91.0495L90.9895 53.94V44.06L91.0495 44H91.9295Z" fill="#F5F5F5"/>
<path d="M91.9295 55L91.9895 55.06V64.94L91.9295 65H91.0495L90.9895 64.94V55.06L91.0495 55H91.9295Z" fill="#F5F5F5"/>
<path d="M91.9295 66L91.9895 66.06V75.94L91.9295 76H91.0495L90.9895 75.94V66.06L91.0495 66H91.9295Z" fill="#F5F5F5"/>
<path d="M91.9295 77L91.9895 77.06V86.94L91.9295 87H91.0495L90.9895 86.94V77.06L91.0495 77H91.9295Z" fill="#F5F5F5"/>
<path d="M91.9295 88L91.9895 88.06V97.94L91.9295 98H91.0495L90.9895 97.94V88.06L91.0495 88H91.9295Z" fill="#F5F5F5"/>
<path d="M91.9295 99L91.9895 99.06V108.94L91.9295 109H91.0495L90.9895 108.94V99.06L91.0495 99H91.9295Z" fill="#F5F5F5"/>
<path d="M91.9295 110L91.9895 110.06V119.94L91.9295 120H91.0495L90.9895 119.94V110.06L91.0495 110H91.9295Z" fill="#F5F5F5"/>
</svg>
