<svg width="93" height="120" viewBox="0 0 93 120" fill="none" xmlns="http://www.w3.org/2000/svg">
<path d="M4.65475 21.8242L4.71475 21.8842V22.7642L4.65475 22.8242H1.77475L1.71475 22.7642V21.8842L1.77475 21.8242H4.65475ZM5.65475 22.8242L5.71475 22.8842V27.7642L5.65475 27.8242H4.77475L4.71475 27.7642V24.8842L4.77475 24.8242L4.71475 24.7642L4.65475 24.8242H3.77475L3.71475 24.7642V23.8842L3.77475 23.8242H4.65475L4.71475 23.8842L4.77475 23.8242L4.71475 23.7642V22.8842L4.77475 22.8242H5.65475ZM1.65475 22.8242L1.71475 22.8842V25.7642L1.65475 25.8242L1.71475 25.8842L1.77475 25.8242H2.65475L2.71475 25.8842V26.7642L2.65475 26.8242H1.77475L1.71475 26.7642L1.65475 26.8242L1.71475 26.8842V27.7642L1.65475 27.8242H0.774752L0.714752 27.7642V22.8842L0.774752 22.8242H1.65475ZM3.65475 24.8242L3.71475 24.8842V25.7642L3.65475 25.8242H2.77475L2.71475 25.7642V24.8842L2.77475 24.8242H3.65475ZM4.65475 27.8242L4.71475 27.8842V28.7642L4.65475 28.8242H1.77475L1.71475 28.7642V27.8842L1.77475 27.8242H4.65475Z" fill="#F5F5F5"/>
<path d="M19.0319 21.8242L19.0919 21.8842V22.7642L19.0319 22.8242H16.1519L16.0919 22.7642V21.8842L16.1519 21.8242H19.0319ZM20.0319 22.8242L20.0919 22.8842V27.7642L20.0319 27.8242H19.1519L19.0919 27.7642V24.8842L19.1519 24.8242L19.0919 24.7642L19.0319 24.8242H18.1519L18.0919 24.7642V23.8842L18.1519 23.8242H19.0319L19.0919 23.8842L19.1519 23.8242L19.0919 23.7642V22.8842L19.1519 22.8242H20.0319ZM16.0319 22.8242L16.0919 22.8842V25.7642L16.0319 25.8242L16.0919 25.8842L16.1519 25.8242H17.0319L17.0919 25.8842V26.7642L17.0319 26.8242H16.1519L16.0919 26.7642L16.0319 26.8242L16.0919 26.8842V27.7642L16.0319 27.8242H15.1519L15.0919 27.7642V22.8842L15.1519 22.8242H16.0319ZM18.0319 24.8242L18.0919 24.8842V25.7642L18.0319 25.8242H17.1519L17.0919 25.7642V24.8842L17.1519 24.8242H18.0319ZM19.0319 27.8242L19.0919 27.8842V28.7642L19.0319 28.8242H16.1519L16.0919 28.7642V27.8842L16.1519 27.8242H19.0319Z" fill="#F5F5F5"/>
<path d="M74.8339 12.2L74.9779 12.344V14.456L74.8339 14.6H67.9219L67.7779 14.456V12.344L67.9219 12.2H74.8339ZM77.2339 14.6L77.3779 14.744V16.856L77.2339 17H75.1219L74.9779 16.856V14.744L75.1219 14.6H77.2339ZM67.6339 14.6L67.7779 14.744V18.056L67.6339 18.2H65.5219L65.3779 18.056V14.744L65.5219 14.6H67.6339ZM74.8339 17L74.9779 17.144V19.256L74.8339 19.4H72.7219L72.5779 19.256V17.144L72.7219 17H74.8339ZM72.4339 19.4L72.5779 19.544V21.656L72.4339 21.8H70.3219L70.1779 21.656V19.544L70.3219 19.4H72.4339ZM70.0339 21.8L70.1779 21.944V24.056L70.0339 24.2H67.9219L67.7779 24.056V21.944L67.9219 21.8H70.0339ZM67.6339 24.2L67.7779 24.344V26.456L67.6339 26.6L67.7779 26.744L67.9219 26.6H77.2339L77.3779 26.744V28.856L77.2339 29H65.5219L65.3779 28.856V24.344L65.5219 24.2H67.6339Z" fill="#F5F5F5"/>
<path d="M32.4094 21.8242L32.4694 21.8842V27.7642L32.4094 27.8242L32.4694 27.8842L32.5294 27.8242H34.4094L34.4694 27.8842V28.7642L34.4094 28.8242H29.5294L29.4694 28.7642V27.8842L29.5294 27.8242H31.4094L31.4694 27.8842L31.5294 27.8242L31.4694 27.7642V23.8842L31.5294 23.8242L31.4694 23.7642L31.4094 23.8242H30.0294L29.9694 23.7642V22.8842L30.0294 22.8242H31.4094L31.4694 22.8842L31.5294 22.8242L31.4694 22.7642V21.8842L31.5294 21.8242H32.4094Z" fill="#F5F5F5"/>
<path d="M4.65475 10.9121L4.71475 10.9721V11.8521L4.65475 11.9121H1.77475L1.71475 11.8521V10.9721L1.77475 10.9121H4.65475ZM5.65475 11.9121L5.71475 11.9721V16.8521L5.65475 16.9121H4.77475L4.71475 16.8521V13.9721L4.77475 13.9121L4.71475 13.8521L4.65475 13.9121H3.77475L3.71475 13.8521V12.9721L3.77475 12.9121H4.65475L4.71475 12.9721L4.77475 12.9121L4.71475 12.8521V11.9721L4.77475 11.9121H5.65475ZM1.65475 11.9121L1.71475 11.9721V14.8521L1.65475 14.9121L1.71475 14.9721L1.77475 14.9121H2.65475L2.71475 14.9721V15.8521L2.65475 15.9121H1.77475L1.71475 15.8521L1.65475 15.9121L1.71475 15.9721V16.8521L1.65475 16.9121H0.774752L0.714752 16.8521V11.9721L0.774752 11.9121H1.65475ZM3.65475 13.9121L3.71475 13.9721V14.8521L3.65475 14.9121H2.77475L2.71475 14.8521V13.9721L2.77475 13.9121H3.65475ZM4.65475 16.9121L4.71475 16.9721V17.8521L4.65475 17.9121H1.77475L1.71475 17.8521V16.9721L1.77475 16.9121H4.65475Z" fill="#F5F5F5"/>
<path d="M19.0319 10.9121L19.0919 10.9721V11.8521L19.0319 11.9121H16.1519L16.0919 11.8521V10.9721L16.1519 10.9121H19.0319ZM20.0319 11.9121L20.0919 11.9721V16.8521L20.0319 16.9121H19.1519L19.0919 16.8521V13.9721L19.1519 13.9121L19.0919 13.8521L19.0319 13.9121H18.1519L18.0919 13.8521V12.9721L18.1519 12.9121H19.0319L19.0919 12.9721L19.1519 12.9121L19.0919 12.8521V11.9721L19.1519 11.9121H20.0319ZM16.0319 11.9121L16.0919 11.9721V14.8521L16.0319 14.9121L16.0919 14.9721L16.1519 14.9121H17.0319L17.0919 14.9721V15.8521L17.0319 15.9121H16.1519L16.0919 15.8521L16.0319 15.9121L16.0919 15.9721V16.8521L16.0319 16.9121H15.1519L15.0919 16.8521V11.9721L15.1519 11.9121H16.0319ZM18.0319 13.9121L18.0919 13.9721V14.8521L18.0319 14.9121H17.1519L17.0919 14.8521V13.9721L17.1519 13.9121H18.0319ZM19.0319 16.9121L19.0919 16.9721V17.8521L19.0319 17.9121H16.1519L16.0919 17.8521V16.9721L16.1519 16.9121H19.0319Z" fill="#F5F5F5"/>
<path d="M33.4094 10.9121L33.4694 10.9721V11.8521L33.4094 11.9121H30.5294L30.4694 11.8521V10.9721L30.5294 10.9121H33.4094ZM34.4094 11.9121L34.4694 11.9721V16.8521L34.4094 16.9121H33.5294L33.4694 16.8521V13.9721L33.5294 13.9121L33.4694 13.8521L33.4094 13.9121H32.5294L32.4694 13.8521V12.9721L32.5294 12.9121H33.4094L33.4694 12.9721L33.5294 12.9121L33.4694 12.8521V11.9721L33.5294 11.9121H34.4094ZM30.4094 11.9121L30.4694 11.9721V14.8521L30.4094 14.9121L30.4694 14.9721L30.5294 14.9121H31.4094L31.4694 14.9721V15.8521L31.4094 15.9121H30.5294L30.4694 15.8521L30.4094 15.9121L30.4694 15.9721V16.8521L30.4094 16.9121H29.5294L29.4694 16.8521V11.9721L29.5294 11.9121H30.4094ZM32.4094 13.9121L32.4694 13.9721V14.8521L32.4094 14.9121H31.5294L31.4694 14.8521V13.9721L31.5294 13.9121H32.4094ZM33.4094 16.9121L33.4694 16.9721V17.8521L33.4094 17.9121H30.5294L30.4694 17.8521V16.9721L30.5294 16.9121H33.4094Z" fill="#F5F5F5"/>
<path d="M3.65475 0L3.71475 0.0600004V5.94L3.65475 6L3.71475 6.06L3.77475 6H5.65475L5.71475 6.06V6.94L5.65475 7H0.774752L0.714752 6.94V6.06L0.774752 6H2.65475L2.71475 6.06L2.77475 6L2.71475 5.94V2.06L2.77475 2L2.71475 1.94L2.65475 2H1.27475L1.21475 1.94V1.06L1.27475 1H2.65475L2.71475 1.06L2.77475 1L2.71475 0.94V0.0600004L2.77475 0H3.65475Z" fill="#F5F5F5"/>
<path d="M19.0319 0L19.0919 0.0600004V0.94L19.0319 1H16.1519L16.0919 0.94V0.0600004L16.1519 0H19.0319ZM20.0319 1L20.0919 1.06V5.94L20.0319 6H19.1519L19.0919 5.94V3.06L19.1519 3L19.0919 2.94L19.0319 3H18.1519L18.0919 2.94V2.06L18.1519 2H19.0319L19.0919 2.06L19.1519 2L19.0919 1.94V1.06L19.1519 1H20.0319ZM16.0319 1L16.0919 1.06V3.94L16.0319 4L16.0919 4.06L16.1519 4H17.0319L17.0919 4.06V4.94L17.0319 5H16.1519L16.0919 4.94L16.0319 5L16.0919 5.06V5.94L16.0319 6H15.1519L15.0919 5.94V1.06L15.1519 1H16.0319ZM18.0319 3L18.0919 3.06V3.94L18.0319 4H17.1519L17.0919 3.94V3.06L17.1519 3H18.0319ZM19.0319 6L19.0919 6.06V6.94L19.0319 7H16.1519L16.0919 6.94V6.06L16.1519 6H19.0319Z" fill="#F5F5F5"/>
<path d="M33.4094 0L33.4694 0.0600004V0.94L33.4094 1H30.5294L30.4694 0.94V0.0600004L30.5294 0H33.4094ZM34.4094 1L34.4694 1.06V5.94L34.4094 6H33.5294L33.4694 5.94V3.06L33.5294 3L33.4694 2.94L33.4094 3H32.5294L32.4694 2.94V2.06L32.5294 2H33.4094L33.4694 2.06L33.5294 2L33.4694 1.94V1.06L33.5294 1H34.4094ZM30.4094 1L30.4694 1.06V3.94L30.4094 4L30.4694 4.06L30.5294 4H31.4094L31.4694 4.06V4.94L31.4094 5H30.5294L30.4694 4.94L30.4094 5L30.4694 5.06V5.94L30.4094 6H29.5294L29.4694 5.94V1.06L29.5294 1H30.4094ZM32.4094 3L32.4694 3.06V3.94L32.4094 4H31.5294L31.4694 3.94V3.06L31.5294 3H32.4094ZM33.4094 6L33.4694 6.06V6.94L33.4094 7H30.5294L30.4694 6.94V6.06L30.5294 6H33.4094Z" fill="#F5F5F5"/>
<path d="M47.4164 98.5393H67.4164V118.539H47.4164V98.5393Z" fill="#F5F5F5"/>
<path d="M7.41641 58.5393H27.4164V78.5393H7.41641V58.5393Z" fill="#F5F5F5"/>
<path d="M92.3179 0L92.3779 0.0599998V9.94L92.3179 10H91.4379L91.3779 9.94V0.0599998L91.4379 0H92.3179Z" fill="#F5F5F5"/>
<path d="M92.3179 11L92.3779 11.06V20.94L92.3179 21H91.4379L91.3779 20.94V11.06L91.4379 11H92.3179Z" fill="#F5F5F5"/>
<path d="M92.3179 22L92.3779 22.06V31.94L92.3179 32H91.4379L91.3779 31.94V22.06L91.4379 22H92.3179Z" fill="#F5F5F5"/>
<path d="M92.3179 33L92.3779 33.06V42.94L92.3179 43H91.4379L91.3779 42.94V33.06L91.4379 33H92.3179Z" fill="#F5F5F5"/>
<path d="M92.3179 44L92.3779 44.06V53.94L92.3179 54H91.4379L91.3779 53.94V44.06L91.4379 44H92.3179Z" fill="#F5F5F5"/>
<path d="M92.3179 55L92.3779 55.06V64.94L92.3179 65H91.4379L91.3779 64.94V55.06L91.4379 55H92.3179Z" fill="#F5F5F5"/>
<path d="M92.3179 66L92.3779 66.06V75.94L92.3179 76H91.4379L91.3779 75.94V66.06L91.4379 66H92.3179Z" fill="#F5F5F5"/>
<path d="M92.3179 77L92.3779 77.06V86.94L92.3179 87H91.4379L91.3779 86.94V77.06L91.4379 77H92.3179Z" fill="#F5F5F5"/>
<path d="M92.3179 88L92.3779 88.06V97.94L92.3179 98H91.4379L91.3779 97.94V88.06L91.4379 88H92.3179Z" fill="#F5F5F5"/>
<path d="M92.3179 99L92.3779 99.06V108.94L92.3179 109H91.4379L91.3779 108.94V99.06L91.4379 99H92.3179Z" fill="#F5F5F5"/>
<path d="M92.3179 110L92.3779 110.06V119.94L92.3179 120H91.4379L91.3779 119.94V110.06L91.4379 110H92.3179Z" fill="#F5F5F5"/>
</svg>
