<svg width="92" height="120" viewBox="0 0 92 120" fill="none" xmlns="http://www.w3.org/2000/svg">
<path d="M3.26632 21.8242L3.32632 21.8842V27.7642L3.26632 27.8242L3.32632 27.8842L3.38632 27.8242H5.26632L5.32632 27.8842V28.7642L5.26632 28.8242H0.386324L0.326324 28.7642V27.8842L0.386324 27.8242H2.26632L2.32632 27.8842L2.38632 27.8242L2.32632 27.7642V23.8842L2.38632 23.8242L2.32632 23.7642L2.26632 23.8242H0.886325L0.826324 23.7642V22.8842L0.886325 22.8242H2.26632L2.32632 22.8842L2.38632 22.8242L2.32632 22.7642V21.8842L2.38632 21.8242H3.26632Z" fill="#F5F5F5"/>
<path d="M18.6435 21.8242L18.7035 21.8842V22.7642L18.6435 22.8242H15.7635L15.7035 22.7642V21.8842L15.7635 21.8242H18.6435ZM19.6435 22.8242L19.7035 22.8842V27.7642L19.6435 27.8242H18.7635L18.7035 27.7642V24.8842L18.7635 24.8242L18.7035 24.7642L18.6435 24.8242H17.7635L17.7035 24.7642V23.8842L17.7635 23.8242H18.6435L18.7035 23.8842L18.7635 23.8242L18.7035 23.7642V22.8842L18.7635 22.8242H19.6435ZM15.6435 22.8242L15.7035 22.8842V25.7642L15.6435 25.8242L15.7035 25.8842L15.7635 25.8242H16.6435L16.7035 25.8842V26.7642L16.6435 26.8242H15.7635L15.7035 26.7642L15.6435 26.8242L15.7035 26.8842V27.7642L15.6435 27.8242H14.7635L14.7035 27.7642V22.8842L14.7635 22.8242H15.6435ZM17.6435 24.8242L17.7035 24.8842V25.7642L17.6435 25.8242H16.7635L16.7035 25.7642V24.8842L16.7635 24.8242H17.6435ZM18.6435 27.8242L18.7035 27.8842V28.7642L18.6435 28.8242H15.7635L15.7035 28.7642V27.8842L15.7635 27.8242H18.6435Z" fill="#F5F5F5"/>
<path d="M74.4455 12.2L74.5895 12.344V14.456L74.4455 14.6H67.5335L67.3895 14.456V12.344L67.5335 12.2H74.4455ZM76.8455 14.6L76.9895 14.744V26.456L76.8455 26.6H74.7335L74.5895 26.456V14.744L74.7335 14.6H76.8455ZM67.2455 14.6L67.3895 14.744V26.456L67.2455 26.6H65.1335L64.9895 26.456V14.744L65.1335 14.6H67.2455ZM72.1655 19.28L72.3095 19.424V21.776L72.1655 21.92H69.8135L69.6695 21.776V19.424L69.8135 19.28H72.1655ZM74.4455 26.6L74.5895 26.744V28.856L74.4455 29H67.5335L67.3895 28.856V26.744L67.5335 26.6H74.4455ZM70.9895 5.84V7.64L70.8695 7.76H69.0695L68.9495 7.64V5.84L69.0695 5.72H70.8695L70.9895 5.84ZM73.0295 7.88V9.68L72.9095 9.8H71.1095L70.9895 9.68V7.88L71.1095 7.76H72.9095L73.0295 7.88Z" fill="#F5F5F5"/>
<path d="M33.021 21.8242L33.081 21.8842V22.7642L33.021 22.8242H30.141L30.081 22.7642V21.8842L30.141 21.8242H33.021ZM34.021 22.8242L34.081 22.8842V27.7642L34.021 27.8242H33.141L33.081 27.7642V24.8842L33.141 24.8242L33.081 24.7642L33.021 24.8242H32.141L32.081 24.7642V23.8842L32.141 23.8242H33.021L33.081 23.8842L33.141 23.8242L33.081 23.7642V22.8842L33.141 22.8242H34.021ZM30.021 22.8242L30.081 22.8842V25.7642L30.021 25.8242L30.081 25.8842L30.141 25.8242H31.021L31.081 25.8842V26.7642L31.021 26.8242H30.141L30.081 26.7642L30.021 26.8242L30.081 26.8842V27.7642L30.021 27.8242H29.141L29.081 27.7642V22.8842L29.141 22.8242H30.021ZM32.021 24.8242L32.081 24.8842V25.7642L32.021 25.8242H31.141L31.081 25.7642V24.8842L31.141 24.8242H32.021ZM33.021 27.8242L33.081 27.8842V28.7642L33.021 28.8242H30.141L30.081 28.7642V27.8842L30.141 27.8242H33.021Z" fill="#F5F5F5"/>
<path d="M4.26632 10.9121L4.32632 10.9721V11.8521L4.26632 11.9121H1.38632L1.32632 11.8521V10.9721L1.38632 10.9121H4.26632ZM5.26632 11.9121L5.32632 11.9721V16.8521L5.26632 16.9121H4.38632L4.32632 16.8521V13.9721L4.38632 13.9121L4.32632 13.8521L4.26632 13.9121H3.38632L3.32632 13.8521V12.9721L3.38632 12.9121H4.26632L4.32632 12.9721L4.38632 12.9121L4.32632 12.8521V11.9721L4.38632 11.9121H5.26632ZM1.26632 11.9121L1.32632 11.9721V14.8521L1.26632 14.9121L1.32632 14.9721L1.38632 14.9121H2.26632L2.32632 14.9721V15.8521L2.26632 15.9121H1.38632L1.32632 15.8521L1.26632 15.9121L1.32632 15.9721V16.8521L1.26632 16.9121H0.386324L0.326324 16.8521V11.9721L0.386324 11.9121H1.26632ZM3.26632 13.9121L3.32632 13.9721V14.8521L3.26632 14.9121H2.38632L2.32632 14.8521V13.9721L2.38632 13.9121H3.26632ZM4.26632 16.9121L4.32632 16.9721V17.8521L4.26632 17.9121H1.38632L1.32632 17.8521V16.9721L1.38632 16.9121H4.26632Z" fill="#F5F5F5"/>
<path d="M17.6435 10.9121L17.7035 10.9721V16.8521L17.6435 16.9121L17.7035 16.9721L17.7635 16.9121H19.6435L19.7035 16.9721V17.8521L19.6435 17.9121H14.7635L14.7035 17.8521V16.9721L14.7635 16.9121H16.6435L16.7035 16.9721L16.7635 16.9121L16.7035 16.8521V12.9721L16.7635 12.9121L16.7035 12.8521L16.6435 12.9121H15.2635L15.2035 12.8521V11.9721L15.2635 11.9121H16.6435L16.7035 11.9721L16.7635 11.9121L16.7035 11.8521V10.9721L16.7635 10.9121H17.6435Z" fill="#F5F5F5"/>
<path d="M32.021 10.9121L32.081 10.9721V16.8521L32.021 16.9121L32.081 16.9721L32.141 16.9121H34.021L34.081 16.9721V17.8521L34.021 17.9121H29.141L29.081 17.8521V16.9721L29.141 16.9121H31.021L31.081 16.9721L31.141 16.9121L31.081 16.8521V12.9721L31.141 12.9121L31.081 12.8521L31.021 12.9121H29.641L29.581 12.8521V11.9721L29.641 11.9121H31.021L31.081 11.9721L31.141 11.9121L31.081 11.8521V10.9721L31.141 10.9121H32.021Z" fill="#F5F5F5"/>
<path d="M3.26632 0L3.32632 0.0600004V5.94L3.26632 6L3.32632 6.06L3.38632 6H5.26632L5.32632 6.06V6.94L5.26632 7H0.386324L0.326324 6.94V6.06L0.386324 6H2.26632L2.32632 6.06L2.38632 6L2.32632 5.94V2.06L2.38632 2L2.32632 1.94L2.26632 2H0.886325L0.826324 1.94V1.06L0.886325 1H2.26632L2.32632 1.06L2.38632 1L2.32632 0.94V0.0600004L2.38632 0H3.26632Z" fill="#F5F5F5"/>
<path d="M18.6435 0L18.7035 0.0600004V0.94L18.6435 1H15.7635L15.7035 0.94V0.0600004L15.7635 0H18.6435ZM19.6435 1L19.7035 1.06V5.94L19.6435 6H18.7635L18.7035 5.94V3.06L18.7635 3L18.7035 2.94L18.6435 3H17.7635L17.7035 2.94V2.06L17.7635 2H18.6435L18.7035 2.06L18.7635 2L18.7035 1.94V1.06L18.7635 1H19.6435ZM15.6435 1L15.7035 1.06V3.94L15.6435 4L15.7035 4.06L15.7635 4H16.6435L16.7035 4.06V4.94L16.6435 5H15.7635L15.7035 4.94L15.6435 5L15.7035 5.06V5.94L15.6435 6H14.7635L14.7035 5.94V1.06L14.7635 1H15.6435ZM17.6435 3L17.7035 3.06V3.94L17.6435 4H16.7635L16.7035 3.94V3.06L16.7635 3H17.6435ZM18.6435 6L18.7035 6.06V6.94L18.6435 7H15.7635L15.7035 6.94V6.06L15.7635 6H18.6435Z" fill="#F5F5F5"/>
<path d="M33.021 0L33.081 0.0600004V0.94L33.021 1H30.141L30.081 0.94V0.0600004L30.141 0H33.021ZM34.021 1L34.081 1.06V5.94L34.021 6H33.141L33.081 5.94V3.06L33.141 3L33.081 2.94L33.021 3H32.141L32.081 2.94V2.06L32.141 2H33.021L33.081 2.06L33.141 2L33.081 1.94V1.06L33.141 1H34.021ZM30.021 1L30.081 1.06V3.94L30.021 4L30.081 4.06L30.141 4H31.021L31.081 4.06V4.94L31.021 5H30.141L30.081 4.94L30.021 5L30.081 5.06V5.94L30.021 6H29.141L29.081 5.94V1.06L29.141 1H30.021ZM32.021 3L32.081 3.06V3.94L32.021 4H31.141L31.081 3.94V3.06L31.141 3H32.021ZM33.021 6L33.081 6.06V6.94L33.021 7H30.141L30.081 6.94V6.06L30.141 6H33.021Z" fill="#F5F5F5"/>
<path d="M27.0652 78.5393H47.0652V98.5393H27.0652V78.5393Z" fill="#F5F5F5"/>
<path d="M7.06522 58.5393H27.0652V78.5393H7.06522V58.5393Z" fill="#F5F5F5"/>
<path d="M6.95352 98.5393H26.9535V118.539H6.95352V98.5393Z" fill="#F5F5F5"/>
<path d="M47.0652 78.5393H67.0652V98.5393H47.0652V78.5393Z" fill="#F5F5F5"/>
<path d="M91.9295 0L91.9895 0.0599998V9.94L91.9295 10H91.0495L90.9895 9.94V0.0599998L91.0495 0H91.9295Z" fill="#F5F5F5"/>
<path d="M91.9295 11L91.9895 11.06V20.94L91.9295 21H91.0495L90.9895 20.94V11.06L91.0495 11H91.9295Z" fill="#F5F5F5"/>
<path d="M91.9295 22L91.9895 22.06V31.94L91.9295 32H91.0495L90.9895 31.94V22.06L91.0495 22H91.9295Z" fill="#F5F5F5"/>
<path d="M91.9295 33L91.9895 33.06V42.94L91.9295 43H91.0495L90.9895 42.94V33.06L91.0495 33H91.9295Z" fill="#F5F5F5"/>
<path d="M91.9295 44L91.9895 44.06V53.94L91.9295 54H91.0495L90.9895 53.94V44.06L91.0495 44H91.9295Z" fill="#F5F5F5"/>
<path d="M91.9295 55L91.9895 55.06V64.94L91.9295 65H91.0495L90.9895 64.94V55.06L91.0495 55H91.9295Z" fill="#F5F5F5"/>
<path d="M91.9295 66L91.9895 66.06V75.94L91.9295 76H91.0495L90.9895 75.94V66.06L91.0495 66H91.9295Z" fill="#F5F5F5"/>
<path d="M91.9295 77L91.9895 77.06V86.94L91.9295 87H91.0495L90.9895 86.94V77.06L91.0495 77H91.9295Z" fill="#F5F5F5"/>
<path d="M91.9295 88L91.9895 88.06V97.94L91.9295 98H91.0495L90.9895 97.94V88.06L91.0495 88H91.9295Z" fill="#F5F5F5"/>
<path d="M91.9295 99L91.9895 99.06V108.94L91.9295 109H91.0495L90.9895 108.94V99.06L91.0495 99H91.9295Z" fill="#F5F5F5"/>
<path d="M91.9295 110L91.9895 110.06V119.94L91.9295 120H91.0495L90.9895 119.94V110.06L91.0495 110H91.9295Z" fill="#F5F5F5"/>
</svg>
