<svg width="93" height="120" viewBox="0 0 93 120" fill="none" xmlns="http://www.w3.org/2000/svg">
<path d="M4.58209 21.8242L4.64209 21.8842V22.7642L4.58209 22.8242H1.70209L1.64209 22.7642V21.8842L1.70209 21.8242H4.58209ZM5.58209 22.8242L5.64209 22.8842V27.7642L5.58209 27.8242H4.70209L4.64209 27.7642V24.8842L4.70209 24.8242L4.64209 24.7642L4.58209 24.8242H3.70209L3.64209 24.7642V23.8842L3.70209 23.8242H4.58209L4.64209 23.8842L4.70209 23.8242L4.64209 23.7642V22.8842L4.70209 22.8242H5.58209ZM1.58209 22.8242L1.64209 22.8842V25.7642L1.58209 25.8242L1.64209 25.8842L1.70209 25.8242H2.58209L2.64209 25.8842V26.7642L2.58209 26.8242H1.70209L1.64209 26.7642L1.58209 26.8242L1.64209 26.8842V27.7642L1.58209 27.8242H0.70209L0.64209 27.7642V22.8842L0.70209 22.8242H1.58209ZM3.58209 24.8242L3.64209 24.8842V25.7642L3.58209 25.8242H2.70209L2.64209 25.7642V24.8842L2.70209 24.8242H3.58209ZM4.58209 27.8242L4.64209 27.8842V28.7642L4.58209 28.8242H1.70209L1.64209 28.7642V27.8842L1.70209 27.8242H4.58209Z" fill="#F5F5F5"/>
<path d="M17.9593 21.8242L18.0193 21.8842V27.7642L17.9593 27.8242L18.0193 27.8842L18.0793 27.8242H19.9593L20.0193 27.8842V28.7642L19.9593 28.8242H15.0793L15.0193 28.7642V27.8842L15.0793 27.8242H16.9593L17.0193 27.8842L17.0793 27.8242L17.0193 27.7642V23.8842L17.0793 23.8242L17.0193 23.7642L16.9593 23.8242H15.5793L15.5193 23.7642V22.8842L15.5793 22.8242H16.9593L17.0193 22.8842L17.0793 22.8242L17.0193 22.7642V21.8842L17.0793 21.8242H17.9593Z" fill="#F5F5F5"/>
<path d="M77.1612 12.2L77.3053 12.344V26.456L77.1612 26.6H75.0492L74.9053 26.456V14.744L75.0492 14.6L74.9053 14.456L74.7612 14.6H71.4492L71.3053 14.456V12.344L71.4492 12.2H77.1612ZM67.5612 21.8L67.7052 21.944V26.456L67.5612 26.6H65.4492L65.3053 26.456V21.944L65.4492 21.8H67.5612ZM74.7612 26.6L74.9053 26.744V28.856L74.7612 29H67.8493L67.7052 28.856V26.744L67.8493 26.6H74.7612Z" fill="#F5F5F5"/>
<path d="M33.3367 21.8242L33.3967 21.8842V22.7642L33.3367 22.8242H30.4567L30.3967 22.7642V21.8842L30.4567 21.8242H33.3367ZM34.3367 22.8242L34.3967 22.8842V27.7642L34.3367 27.8242H33.4567L33.3967 27.7642V24.8842L33.4567 24.8242L33.3967 24.7642L33.3367 24.8242H32.4567L32.3967 24.7642V23.8842L32.4567 23.8242H33.3367L33.3967 23.8842L33.4567 23.8242L33.3967 23.7642V22.8842L33.4567 22.8242H34.3367ZM30.3367 22.8242L30.3967 22.8842V25.7642L30.3367 25.8242L30.3967 25.8842L30.4567 25.8242H31.3367L31.3967 25.8842V26.7642L31.3367 26.8242H30.4567L30.3967 26.7642L30.3367 26.8242L30.3967 26.8842V27.7642L30.3367 27.8242H29.4567L29.3967 27.7642V22.8842L29.4567 22.8242H30.3367ZM32.3367 24.8242L32.3967 24.8842V25.7642L32.3367 25.8242H31.4567L31.3967 25.7642V24.8842L31.4567 24.8242H32.3367ZM33.3367 27.8242L33.3967 27.8842V28.7642L33.3367 28.8242H30.4567L30.3967 28.7642V27.8842L30.4567 27.8242H33.3367Z" fill="#F5F5F5"/>
<path d="M3.58209 10.9121L3.64209 10.9721V16.8521L3.58209 16.9121L3.64209 16.9721L3.70209 16.9121H5.58209L5.64209 16.9721V17.8521L5.58209 17.9121H0.70209L0.64209 17.8521V16.9721L0.70209 16.9121H2.58209L2.64209 16.9721L2.70209 16.9121L2.64209 16.8521V12.9721L2.70209 12.9121L2.64209 12.8521L2.58209 12.9121H1.20209L1.14209 12.8521V11.9721L1.20209 11.9121H2.58209L2.64209 11.9721L2.70209 11.9121L2.64209 11.8521V10.9721L2.70209 10.9121H3.58209Z" fill="#F5F5F5"/>
<path d="M18.9593 10.9121L19.0193 10.9721V11.8521L18.9593 11.9121H16.0793L16.0193 11.8521V10.9721L16.0793 10.9121H18.9593ZM19.9593 11.9121L20.0193 11.9721V16.8521L19.9593 16.9121H19.0793L19.0193 16.8521V13.9721L19.0793 13.9121L19.0193 13.8521L18.9593 13.9121H18.0793L18.0193 13.8521V12.9721L18.0793 12.9121H18.9593L19.0193 12.9721L19.0793 12.9121L19.0193 12.8521V11.9721L19.0793 11.9121H19.9593ZM15.9593 11.9121L16.0193 11.9721V14.8521L15.9593 14.9121L16.0193 14.9721L16.0793 14.9121H16.9593L17.0193 14.9721V15.8521L16.9593 15.9121H16.0793L16.0193 15.8521L15.9593 15.9121L16.0193 15.9721V16.8521L15.9593 16.9121H15.0793L15.0193 16.8521V11.9721L15.0793 11.9121H15.9593ZM17.9593 13.9121L18.0193 13.9721V14.8521L17.9593 14.9121H17.0793L17.0193 14.8521V13.9721L17.0793 13.9121H17.9593ZM18.9593 16.9121L19.0193 16.9721V17.8521L18.9593 17.9121H16.0793L16.0193 17.8521V16.9721L16.0793 16.9121H18.9593Z" fill="#F5F5F5"/>
<path d="M33.3367 10.9121L33.3967 10.9721V11.8521L33.3367 11.9121H30.4567L30.3967 11.8521V10.9721L30.4567 10.9121H33.3367ZM34.3367 11.9121L34.3967 11.9721V16.8521L34.3367 16.9121H33.4567L33.3967 16.8521V13.9721L33.4567 13.9121L33.3967 13.8521L33.3367 13.9121H32.4567L32.3967 13.8521V12.9721L32.4567 12.9121H33.3367L33.3967 12.9721L33.4567 12.9121L33.3967 12.8521V11.9721L33.4567 11.9121H34.3367ZM30.3367 11.9121L30.3967 11.9721V14.8521L30.3367 14.9121L30.3967 14.9721L30.4567 14.9121H31.3367L31.3967 14.9721V15.8521L31.3367 15.9121H30.4567L30.3967 15.8521L30.3367 15.9121L30.3967 15.9721V16.8521L30.3367 16.9121H29.4567L29.3967 16.8521V11.9721L29.4567 11.9121H30.3367ZM32.3367 13.9121L32.3967 13.9721V14.8521L32.3367 14.9121H31.4567L31.3967 14.8521V13.9721L31.4567 13.9121H32.3367ZM33.3367 16.9121L33.3967 16.9721V17.8521L33.3367 17.9121H30.4567L30.3967 17.8521V16.9721L30.4567 16.9121H33.3367Z" fill="#F5F5F5"/>
<path d="M3.58209 0L3.64209 0.0600004V5.94L3.58209 6L3.64209 6.06L3.70209 6H5.58209L5.64209 6.06V6.94L5.58209 7H0.70209L0.64209 6.94V6.06L0.70209 6H2.58209L2.64209 6.06L2.70209 6L2.64209 5.94V2.06L2.70209 2L2.64209 1.94L2.58209 2H1.20209L1.14209 1.94V1.06L1.20209 1H2.58209L2.64209 1.06L2.70209 1L2.64209 0.94V0.0600004L2.70209 0H3.58209Z" fill="#F5F5F5"/>
<path d="M18.9593 0L19.0193 0.0600004V0.94L18.9593 1H16.0793L16.0193 0.94V0.0600004L16.0793 0H18.9593ZM19.9593 1L20.0193 1.06V5.94L19.9593 6H19.0793L19.0193 5.94V3.06L19.0793 3L19.0193 2.94L18.9593 3H18.0793L18.0193 2.94V2.06L18.0793 2H18.9593L19.0193 2.06L19.0793 2L19.0193 1.94V1.06L19.0793 1H19.9593ZM15.9593 1L16.0193 1.06V3.94L15.9593 4L16.0193 4.06L16.0793 4H16.9593L17.0193 4.06V4.94L16.9593 5H16.0793L16.0193 4.94L15.9593 5L16.0193 5.06V5.94L15.9593 6H15.0793L15.0193 5.94V1.06L15.0793 1H15.9593ZM17.9593 3L18.0193 3.06V3.94L17.9593 4H17.0793L17.0193 3.94V3.06L17.0793 3H17.9593ZM18.9593 6L19.0193 6.06V6.94L18.9593 7H16.0793L16.0193 6.94V6.06L16.0793 6H18.9593Z" fill="#F5F5F5"/>
<path d="M33.3367 0L33.3967 0.0600004V0.94L33.3367 1H30.4567L30.3967 0.94V0.0600004L30.4567 0H33.3367ZM34.3367 1L34.3967 1.06V5.94L34.3367 6H33.4567L33.3967 5.94V3.06L33.4567 3L33.3967 2.94L33.3367 3H32.4567L32.3967 2.94V2.06L32.4567 2H33.3367L33.3967 2.06L33.4567 2L33.3967 1.94V1.06L33.4567 1H34.3367ZM30.3367 1L30.3967 1.06V3.94L30.3367 4L30.3967 4.06L30.4567 4H31.3367L31.3967 4.06V4.94L31.3367 5H30.4567L30.3967 4.94L30.3367 5L30.3967 5.06V5.94L30.3367 6H29.4567L29.3967 5.94V1.06L29.4567 1H30.3367ZM32.3367 3L32.3967 3.06V3.94L32.3367 4H31.4567L31.3967 3.94V3.06L31.4567 3H32.3367ZM33.3367 6L33.3967 6.06V6.94L33.3367 7H30.4567L30.3967 6.94V6.06L30.4567 6H33.3367Z" fill="#F5F5F5"/>
<path d="M7.17358 58.5393H27.1736V78.5393H7.17358V58.5393Z" fill="#F5F5F5"/>
<path d="M7.17358 78.5393H27.1736V98.5393H7.17358V78.5393Z" fill="#F5F5F5"/>
<path d="M27.1736 98.5393H47.1736V118.539H27.1736V98.5393Z" fill="#F5F5F5"/>
<path d="M92.2452 0L92.3052 0.0599998V9.94L92.2452 10H91.3652L91.3052 9.94V0.0599998L91.3652 0H92.2452Z" fill="#F5F5F5"/>
<path d="M92.2452 11L92.3052 11.06V20.94L92.2452 21H91.3652L91.3052 20.94V11.06L91.3652 11H92.2452Z" fill="#F5F5F5"/>
<path d="M92.2452 22L92.3052 22.06V31.94L92.2452 32H91.3652L91.3052 31.94V22.06L91.3652 22H92.2452Z" fill="#F5F5F5"/>
<path d="M92.2452 33L92.3052 33.06V42.94L92.2452 43H91.3652L91.3052 42.94V33.06L91.3652 33H92.2452Z" fill="#F5F5F5"/>
<path d="M92.2452 44L92.3052 44.06V53.94L92.2452 54H91.3652L91.3052 53.94V44.06L91.3652 44H92.2452Z" fill="#F5F5F5"/>
<path d="M92.2452 55L92.3052 55.06V64.94L92.2452 65H91.3652L91.3052 64.94V55.06L91.3652 55H92.2452Z" fill="#F5F5F5"/>
<path d="M92.2452 66L92.3052 66.06V75.94L92.2452 76H91.3652L91.3052 75.94V66.06L91.3652 66H92.2452Z" fill="#F5F5F5"/>
<path d="M92.2452 77L92.3052 77.06V86.94L92.2452 87H91.3652L91.3052 86.94V77.06L91.3652 77H92.2452Z" fill="#F5F5F5"/>
<path d="M92.2452 88L92.3052 88.06V97.94L92.2452 98H91.3652L91.3052 97.94V88.06L91.3652 88H92.2452Z" fill="#F5F5F5"/>
<path d="M92.2452 99L92.3052 99.06V108.94L92.2452 109H91.3652L91.3052 108.94V99.06L91.3652 99H92.2452Z" fill="#F5F5F5"/>
<path d="M92.2452 110L92.3052 110.06V119.94L92.2452 120H91.3652L91.3052 119.94V110.06L91.3652 110H92.2452Z" fill="#F5F5F5"/>
</svg>
