<svg width="93" height="120" viewBox="0 0 93 120" fill="none" xmlns="http://www.w3.org/2000/svg">
<path d="M3.30737 21.8242L3.36737 21.8842V27.7642L3.30737 27.8242L3.36737 27.8842L3.42737 27.8242H5.30737L5.36737 27.8842V28.7642L5.30737 28.8242H0.427371L0.367371 28.7642V27.8842L0.427371 27.8242H2.30737L2.36737 27.8842L2.42737 27.8242L2.36737 27.7642V23.8842L2.42737 23.8242L2.36737 23.7642L2.30737 23.8242H0.927371L0.867371 23.7642V22.8842L0.927371 22.8242H2.30737L2.36737 22.8842L2.42737 22.8242L2.36737 22.7642V21.8842L2.42737 21.8242H3.30737Z" fill="#F5F5F5"/>
<path d="M18.6846 21.8242L18.7446 21.8842V22.7642L18.6846 22.8242H15.8046L15.7446 22.7642V21.8842L15.8046 21.8242H18.6846ZM19.6846 22.8242L19.7446 22.8842V27.7642L19.6846 27.8242H18.8046L18.7446 27.7642V24.8842L18.8046 24.8242L18.7446 24.7642L18.6846 24.8242H17.8046L17.7446 24.7642V23.8842L17.8046 23.8242H18.6846L18.7446 23.8842L18.8046 23.8242L18.7446 23.7642V22.8842L18.8046 22.8242H19.6846ZM15.6846 22.8242L15.7446 22.8842V25.7642L15.6846 25.8242L15.7446 25.8842L15.8046 25.8242H16.6846L16.7446 25.8842V26.7642L16.6846 26.8242H15.8046L15.7446 26.7642L15.6846 26.8242L15.7446 26.8842V27.7642L15.6846 27.8242H14.8046L14.7446 27.7642V22.8842L14.8046 22.8242H15.6846ZM17.6846 24.8242L17.7446 24.8842V25.7642L17.6846 25.8242H16.8046L16.7446 25.7642V24.8842L16.8046 24.8242H17.6846ZM18.6846 27.8242L18.7446 27.8842V28.7642L18.6846 28.8242H15.8046L15.7446 28.7642V27.8842L15.8046 27.8242H18.6846Z" fill="#F5F5F5"/>
<path d="M74.4865 12.2L74.6305 12.344V14.456L74.4865 14.6H67.5745L67.4305 14.456V12.344L67.5745 12.2H74.4865ZM76.8865 14.6L77.0305 14.744V16.856L76.8865 17H74.7745L74.6305 16.856V14.744L74.7745 14.6H76.8865ZM67.2865 14.6L67.4305 14.744V19.256L67.2865 19.4L67.4305 19.544L67.5745 19.4H74.4865L74.6305 19.544V21.656L74.4865 21.8H67.5745L67.4305 21.656L67.2865 21.8L67.4305 21.944V26.456L67.2865 26.6H65.1745L65.0305 26.456V14.744L65.1745 14.6H67.2865ZM76.8865 21.8L77.0305 21.944V26.456L76.8865 26.6H74.7745L74.6305 26.456V21.944L74.7745 21.8H76.8865ZM74.4865 26.6L74.6305 26.744V28.856L74.4865 29H67.5745L67.4305 28.856V26.744L67.5745 26.6H74.4865Z" fill="#F5F5F5"/>
<path d="M32.062 21.8242L32.122 21.8842V27.7642L32.062 27.8242L32.122 27.8842L32.182 27.8242H34.062L34.122 27.8842V28.7642L34.062 28.8242H29.182L29.122 28.7642V27.8842L29.182 27.8242H31.062L31.122 27.8842L31.182 27.8242L31.122 27.7642V23.8842L31.182 23.8242L31.122 23.7642L31.062 23.8242H29.682L29.622 23.7642V22.8842L29.682 22.8242H31.062L31.122 22.8842L31.182 22.8242L31.122 22.7642V21.8842L31.182 21.8242H32.062Z" fill="#F5F5F5"/>
<path d="M3.30737 10.9121L3.36737 10.9721V16.8521L3.30737 16.9121L3.36737 16.9721L3.42737 16.9121H5.30737L5.36737 16.9721V17.8521L5.30737 17.9121H0.427371L0.367371 17.8521V16.9721L0.427371 16.9121H2.30737L2.36737 16.9721L2.42737 16.9121L2.36737 16.8521V12.9721L2.42737 12.9121L2.36737 12.8521L2.30737 12.9121H0.927371L0.867371 12.8521V11.9721L0.927371 11.9121H2.30737L2.36737 11.9721L2.42737 11.9121L2.36737 11.8521V10.9721L2.42737 10.9121H3.30737Z" fill="#F5F5F5"/>
<path d="M17.6846 10.9121L17.7446 10.9721V16.8521L17.6846 16.9121L17.7446 16.9721L17.8046 16.9121H19.6846L19.7446 16.9721V17.8521L19.6846 17.9121H14.8046L14.7446 17.8521V16.9721L14.8046 16.9121H16.6846L16.7446 16.9721L16.8046 16.9121L16.7446 16.8521V12.9721L16.8046 12.9121L16.7446 12.8521L16.6846 12.9121H15.3046L15.2446 12.8521V11.9721L15.3046 11.9121H16.6846L16.7446 11.9721L16.8046 11.9121L16.7446 11.8521V10.9721L16.8046 10.9121H17.6846Z" fill="#F5F5F5"/>
<path d="M33.062 10.9121L33.122 10.9721V11.8521L33.062 11.9121H30.182L30.122 11.8521V10.9721L30.182 10.9121H33.062ZM34.062 11.9121L34.122 11.9721V16.8521L34.062 16.9121H33.182L33.122 16.8521V13.9721L33.182 13.9121L33.122 13.8521L33.062 13.9121H32.182L32.122 13.8521V12.9721L32.182 12.9121H33.062L33.122 12.9721L33.182 12.9121L33.122 12.8521V11.9721L33.182 11.9121H34.062ZM30.062 11.9121L30.122 11.9721V14.8521L30.062 14.9121L30.122 14.9721L30.182 14.9121H31.062L31.122 14.9721V15.8521L31.062 15.9121H30.182L30.122 15.8521L30.062 15.9121L30.122 15.9721V16.8521L30.062 16.9121H29.182L29.122 16.8521V11.9721L29.182 11.9121H30.062ZM32.062 13.9121L32.122 13.9721V14.8521L32.062 14.9121H31.182L31.122 14.8521V13.9721L31.182 13.9121H32.062ZM33.062 16.9121L33.122 16.9721V17.8521L33.062 17.9121H30.182L30.122 17.8521V16.9721L30.182 16.9121H33.062Z" fill="#F5F5F5"/>
<path d="M3.30737 0L3.36737 0.0600004V5.94L3.30737 6L3.36737 6.06L3.42737 6H5.30737L5.36737 6.06V6.94L5.30737 7H0.427371L0.367371 6.94V6.06L0.427371 6H2.30737L2.36737 6.06L2.42737 6L2.36737 5.94V2.06L2.42737 2L2.36737 1.94L2.30737 2H0.927371L0.867371 1.94V1.06L0.927371 1H2.30737L2.36737 1.06L2.42737 1L2.36737 0.94V0.0600004L2.42737 0H3.30737Z" fill="#F5F5F5"/>
<path d="M18.6846 0L18.7446 0.0600004V0.94L18.6846 1H15.8046L15.7446 0.94V0.0600004L15.8046 0H18.6846ZM19.6846 1L19.7446 1.06V5.94L19.6846 6H18.8046L18.7446 5.94V3.06L18.8046 3L18.7446 2.94L18.6846 3H17.8046L17.7446 2.94V2.06L17.8046 2H18.6846L18.7446 2.06L18.8046 2L18.7446 1.94V1.06L18.8046 1H19.6846ZM15.6846 1L15.7446 1.06V3.94L15.6846 4L15.7446 4.06L15.8046 4H16.6846L16.7446 4.06V4.94L16.6846 5H15.8046L15.7446 4.94L15.6846 5L15.7446 5.06V5.94L15.6846 6H14.8046L14.7446 5.94V1.06L14.8046 1H15.6846ZM17.6846 3L17.7446 3.06V3.94L17.6846 4H16.8046L16.7446 3.94V3.06L16.8046 3H17.6846ZM18.6846 6L18.7446 6.06V6.94L18.6846 7H15.8046L15.7446 6.94V6.06L15.8046 6H18.6846Z" fill="#F5F5F5"/>
<path d="M32.062 0L32.122 0.0600004V5.94L32.062 6L32.122 6.06L32.182 6H34.062L34.122 6.06V6.94L34.062 7H29.182L29.122 6.94V6.06L29.182 6H31.062L31.122 6.06L31.182 6L31.122 5.94V2.06L31.182 2L31.122 1.94L31.062 2H29.682L29.622 1.94V1.06L29.682 1H31.062L31.122 1.06L31.182 1L31.122 0.94V0.0600004L31.182 0H32.062Z" fill="#F5F5F5"/>
<path d="M7.06903 78.5393H27.069V98.5393H7.06903V78.5393Z" fill="#F5F5F5"/>
<path d="M7.06903 98.5393H27.069V118.539H7.06903V98.5393Z" fill="#F5F5F5"/>
<path d="M47.069 58.5393H67.069V78.5393H47.069V58.5393Z" fill="#F5F5F5"/>
<path d="M47.069 98.5393H67.069V118.539H47.069V98.5393Z" fill="#F5F5F5"/>
<path d="M27.069 78.5393H47.069V98.5393H27.069V78.5393Z" fill="#F5F5F5"/>
<path d="M7.06903 58.5393H27.069V78.5393H7.06903V58.5393Z" fill="#F5F5F5"/>
<path d="M91.9705 0L92.0305 0.0599998V9.94L91.9705 10H91.0905L91.0305 9.94V0.0599998L91.0905 0H91.9705Z" fill="#F5F5F5"/>
<path d="M91.9705 11L92.0305 11.06V20.94L91.9705 21H91.0905L91.0305 20.94V11.06L91.0905 11H91.9705Z" fill="#F5F5F5"/>
<path d="M91.9705 22L92.0305 22.06V31.94L91.9705 32H91.0905L91.0305 31.94V22.06L91.0905 22H91.9705Z" fill="#F5F5F5"/>
<path d="M91.9705 33L92.0305 33.06V42.94L91.9705 43H91.0905L91.0305 42.94V33.06L91.0905 33H91.9705Z" fill="#F5F5F5"/>
<path d="M91.9705 44L92.0305 44.06V53.94L91.9705 54H91.0905L91.0305 53.94V44.06L91.0905 44H91.9705Z" fill="#F5F5F5"/>
<path d="M91.9705 55L92.0305 55.06V64.94L91.9705 65H91.0905L91.0305 64.94V55.06L91.0905 55H91.9705Z" fill="#F5F5F5"/>
<path d="M91.9705 66L92.0305 66.06V75.94L91.9705 76H91.0905L91.0305 75.94V66.06L91.0905 66H91.9705Z" fill="#F5F5F5"/>
<path d="M91.9705 77L92.0305 77.06V86.94L91.9705 87H91.0905L91.0305 86.94V77.06L91.0905 77H91.9705Z" fill="#F5F5F5"/>
<path d="M91.9705 88L92.0305 88.06V97.94L91.9705 98H91.0905L91.0305 97.94V88.06L91.0905 88H91.9705Z" fill="#F5F5F5"/>
<path d="M91.9705 99L92.0305 99.06V108.94L91.9705 109H91.0905L91.0305 108.94V99.06L91.0905 99H91.9705Z" fill="#F5F5F5"/>
<path d="M91.9705 110L92.0305 110.06V119.94L91.9705 120H91.0905L91.0305 119.94V110.06L91.0905 110H91.9705Z" fill="#F5F5F5"/>
</svg>
