<svg width="92" height="120" viewBox="0 0 92 120" fill="none" xmlns="http://www.w3.org/2000/svg">
<path d="M4.24524 21.8242L4.30524 21.8842V22.7642L4.24524 22.8242H1.36524L1.30524 22.7642V21.8842L1.36524 21.8242H4.24524ZM5.24524 22.8242L5.30524 22.8842V27.7642L5.24524 27.8242H4.36524L4.30524 27.7642V24.8842L4.36524 24.8242L4.30524 24.7642L4.24524 24.8242H3.36524L3.30524 24.7642V23.8842L3.36524 23.8242H4.24524L4.30524 23.8842L4.36524 23.8242L4.30524 23.7642V22.8842L4.36524 22.8242H5.24524ZM1.24524 22.8242L1.30524 22.8842V25.7642L1.24524 25.8242L1.30524 25.8842L1.36524 25.8242H2.24524L2.30524 25.8842V26.7642L2.24524 26.8242H1.36524L1.30524 26.7642L1.24524 26.8242L1.30524 26.8842V27.7642L1.24524 27.8242H0.365237L0.305237 27.7642V22.8842L0.365237 22.8242H1.24524ZM3.24524 24.8242L3.30524 24.8842V25.7642L3.24524 25.8242H2.36524L2.30524 25.7642V24.8842L2.36524 24.8242H3.24524ZM4.24524 27.8242L4.30524 27.8842V28.7642L4.24524 28.8242H1.36524L1.30524 28.7642V27.8842L1.36524 27.8242H4.24524Z" fill="#F5F5F5"/>
<path d="M18.6224 21.8242L18.6824 21.8842V22.7642L18.6224 22.8242H15.7424L15.6824 22.7642V21.8842L15.7424 21.8242H18.6224ZM19.6224 22.8242L19.6824 22.8842V27.7642L19.6224 27.8242H18.7424L18.6824 27.7642V24.8842L18.7424 24.8242L18.6824 24.7642L18.6224 24.8242H17.7424L17.6824 24.7642V23.8842L17.7424 23.8242H18.6224L18.6824 23.8842L18.7424 23.8242L18.6824 23.7642V22.8842L18.7424 22.8242H19.6224ZM15.6224 22.8242L15.6824 22.8842V25.7642L15.6224 25.8242L15.6824 25.8842L15.7424 25.8242H16.6224L16.6824 25.8842V26.7642L16.6224 26.8242H15.7424L15.6824 26.7642L15.6224 26.8242L15.6824 26.8842V27.7642L15.6224 27.8242H14.7424L14.6824 27.7642V22.8842L14.7424 22.8242H15.6224ZM17.6224 24.8242L17.6824 24.8842V25.7642L17.6224 25.8242H16.7424L16.6824 25.7642V24.8842L16.7424 24.8242H17.6224ZM18.6224 27.8242L18.6824 27.8842V28.7642L18.6224 28.8242H15.7424L15.6824 28.7642V27.8842L15.7424 27.8242H18.6224Z" fill="#F5F5F5"/>
<path d="M76.8244 12.2L76.9684 12.344V14.456L76.8244 14.6H74.7124L74.5684 14.456V12.344L74.7124 12.2H76.8244ZM67.2244 12.2L67.3684 12.344V19.256L67.2244 19.4L67.3684 19.544L67.5124 19.4H69.6244L69.7684 19.544V21.656L69.6244 21.8H67.5124L67.3684 21.656L67.2244 21.8L67.3684 21.944V28.856L67.2244 29H65.1124L64.9684 28.856V12.344L65.1124 12.2H67.2244ZM74.4244 14.6L74.5684 14.744V16.856L74.4244 17H72.3124L72.1684 16.856V14.744L72.3124 14.6H74.4244ZM72.0244 17L72.1684 17.144V19.256L72.0244 19.4H69.9124L69.7684 19.256V17.144L69.9124 17H72.0244ZM72.0244 21.8L72.1684 21.944V24.056L72.0244 24.2H69.9124L69.7684 24.056V21.944L69.9124 21.8H72.0244ZM74.4244 24.2L74.5684 24.344V26.456L74.4244 26.6H72.3124L72.1684 26.456V24.344L72.3124 24.2H74.4244ZM76.8244 26.6L76.9684 26.744V28.856L76.8244 29H74.7124L74.5684 28.856V26.744L74.7124 26.6H76.8244Z" fill="#F5F5F5"/>
<path d="M32.9999 21.8242L33.0599 21.8842V22.7642L32.9999 22.8242H30.1199L30.0599 22.7642V21.8842L30.1199 21.8242H32.9999ZM33.9999 22.8242L34.0599 22.8842V27.7642L33.9999 27.8242H33.1199L33.0599 27.7642V24.8842L33.1199 24.8242L33.0599 24.7642L32.9999 24.8242H32.1199L32.0599 24.7642V23.8842L32.1199 23.8242H32.9999L33.0599 23.8842L33.1199 23.8242L33.0599 23.7642V22.8842L33.1199 22.8242H33.9999ZM29.9999 22.8242L30.0599 22.8842V25.7642L29.9999 25.8242L30.0599 25.8842L30.1199 25.8242H30.9999L31.0599 25.8842V26.7642L30.9999 26.8242H30.1199L30.0599 26.7642L29.9999 26.8242L30.0599 26.8842V27.7642L29.9999 27.8242H29.1199L29.0599 27.7642V22.8842L29.1199 22.8242H29.9999ZM31.9999 24.8242L32.0599 24.8842V25.7642L31.9999 25.8242H31.1199L31.0599 25.7642V24.8842L31.1199 24.8242H31.9999ZM32.9999 27.8242L33.0599 27.8842V28.7642L32.9999 28.8242H30.1199L30.0599 28.7642V27.8842L30.1199 27.8242H32.9999Z" fill="#F5F5F5"/>
<path d="M4.24524 10.9121L4.30524 10.9721V11.8521L4.24524 11.9121H1.36524L1.30524 11.8521V10.9721L1.36524 10.9121H4.24524ZM5.24524 11.9121L5.30524 11.9721V16.8521L5.24524 16.9121H4.36524L4.30524 16.8521V13.9721L4.36524 13.9121L4.30524 13.8521L4.24524 13.9121H3.36524L3.30524 13.8521V12.9721L3.36524 12.9121H4.24524L4.30524 12.9721L4.36524 12.9121L4.30524 12.8521V11.9721L4.36524 11.9121H5.24524ZM1.24524 11.9121L1.30524 11.9721V14.8521L1.24524 14.9121L1.30524 14.9721L1.36524 14.9121H2.24524L2.30524 14.9721V15.8521L2.24524 15.9121H1.36524L1.30524 15.8521L1.24524 15.9121L1.30524 15.9721V16.8521L1.24524 16.9121H0.365237L0.305237 16.8521V11.9721L0.365237 11.9121H1.24524ZM3.24524 13.9121L3.30524 13.9721V14.8521L3.24524 14.9121H2.36524L2.30524 14.8521V13.9721L2.36524 13.9121H3.24524ZM4.24524 16.9121L4.30524 16.9721V17.8521L4.24524 17.9121H1.36524L1.30524 17.8521V16.9721L1.36524 16.9121H4.24524Z" fill="#F5F5F5"/>
<path d="M17.6224 10.9121L17.6824 10.9721V16.8521L17.6224 16.9121L17.6824 16.9721L17.7424 16.9121H19.6224L19.6824 16.9721V17.8521L19.6224 17.9121H14.7424L14.6824 17.8521V16.9721L14.7424 16.9121H16.6224L16.6824 16.9721L16.7424 16.9121L16.6824 16.8521V12.9721L16.7424 12.9121L16.6824 12.8521L16.6224 12.9121H15.2424L15.1824 12.8521V11.9721L15.2424 11.9121H16.6224L16.6824 11.9721L16.7424 11.9121L16.6824 11.8521V10.9721L16.7424 10.9121H17.6224Z" fill="#F5F5F5"/>
<path d="M32.9999 10.9121L33.0599 10.9721V11.8521L32.9999 11.9121H30.1199L30.0599 11.8521V10.9721L30.1199 10.9121H32.9999ZM33.9999 11.9121L34.0599 11.9721V16.8521L33.9999 16.9121H33.1199L33.0599 16.8521V13.9721L33.1199 13.9121L33.0599 13.8521L32.9999 13.9121H32.1199L32.0599 13.8521V12.9721L32.1199 12.9121H32.9999L33.0599 12.9721L33.1199 12.9121L33.0599 12.8521V11.9721L33.1199 11.9121H33.9999ZM29.9999 11.9121L30.0599 11.9721V14.8521L29.9999 14.9121L30.0599 14.9721L30.1199 14.9121H30.9999L31.0599 14.9721V15.8521L30.9999 15.9121H30.1199L30.0599 15.8521L29.9999 15.9121L30.0599 15.9721V16.8521L29.9999 16.9121H29.1199L29.0599 16.8521V11.9721L29.1199 11.9121H29.9999ZM31.9999 13.9121L32.0599 13.9721V14.8521L31.9999 14.9121H31.1199L31.0599 14.8521V13.9721L31.1199 13.9121H31.9999ZM32.9999 16.9121L33.0599 16.9721V17.8521L32.9999 17.9121H30.1199L30.0599 17.8521V16.9721L30.1199 16.9121H32.9999Z" fill="#F5F5F5"/>
<path d="M4.24524 0L4.30524 0.0600004V0.94L4.24524 1H1.36524L1.30524 0.94V0.0600004L1.36524 0H4.24524ZM5.24524 1L5.30524 1.06V5.94L5.24524 6H4.36524L4.30524 5.94V3.06L4.36524 3L4.30524 2.94L4.24524 3H3.36524L3.30524 2.94V2.06L3.36524 2H4.24524L4.30524 2.06L4.36524 2L4.30524 1.94V1.06L4.36524 1H5.24524ZM1.24524 1L1.30524 1.06V3.94L1.24524 4L1.30524 4.06L1.36524 4H2.24524L2.30524 4.06V4.94L2.24524 5H1.36524L1.30524 4.94L1.24524 5L1.30524 5.06V5.94L1.24524 6H0.365237L0.305237 5.94V1.06L0.365237 1H1.24524ZM3.24524 3L3.30524 3.06V3.94L3.24524 4H2.36524L2.30524 3.94V3.06L2.36524 3H3.24524ZM4.24524 6L4.30524 6.06V6.94L4.24524 7H1.36524L1.30524 6.94V6.06L1.36524 6H4.24524Z" fill="#F5F5F5"/>
<path d="M18.6224 0L18.6824 0.0600004V0.94L18.6224 1H15.7424L15.6824 0.94V0.0600004L15.7424 0H18.6224ZM19.6224 1L19.6824 1.06V5.94L19.6224 6H18.7424L18.6824 5.94V3.06L18.7424 3L18.6824 2.94L18.6224 3H17.7424L17.6824 2.94V2.06L17.7424 2H18.6224L18.6824 2.06L18.7424 2L18.6824 1.94V1.06L18.7424 1H19.6224ZM15.6224 1L15.6824 1.06V3.94L15.6224 4L15.6824 4.06L15.7424 4H16.6224L16.6824 4.06V4.94L16.6224 5H15.7424L15.6824 4.94L15.6224 5L15.6824 5.06V5.94L15.6224 6H14.7424L14.6824 5.94V1.06L14.7424 1H15.6224ZM17.6224 3L17.6824 3.06V3.94L17.6224 4H16.7424L16.6824 3.94V3.06L16.7424 3H17.6224ZM18.6224 6L18.6824 6.06V6.94L18.6224 7H15.7424L15.6824 6.94V6.06L15.7424 6H18.6224Z" fill="#F5F5F5"/>
<path d="M31.9999 0L32.0599 0.0600004V5.94L31.9999 6L32.0599 6.06L32.1199 6H33.9999L34.0599 6.06V6.94L33.9999 7H29.1199L29.0599 6.94V6.06L29.1199 6H30.9999L31.0599 6.06L31.1199 6L31.0599 5.94V2.06L31.1199 2L31.0599 1.94L30.9999 2H29.6199L29.5599 1.94V1.06L29.6199 1H30.9999L31.0599 1.06L31.1199 1L31.0599 0.94V0.0600004L31.1199 0H31.9999Z" fill="#F5F5F5"/>
<path d="M47.0069 58.5393H67.0069V78.5393H47.0069V58.5393Z" fill="#F5F5F5"/>
<path d="M27.0069 78.5393H47.0069V98.5393H27.0069V78.5393Z" fill="#F5F5F5"/>
<path d="M91.9084 0L91.9684 0.0599998V9.94L91.9084 10H91.0284L90.9684 9.94V0.0599998L91.0284 0H91.9084Z" fill="#F5F5F5"/>
<path d="M91.9084 11L91.9684 11.06V20.94L91.9084 21H91.0284L90.9684 20.94V11.06L91.0284 11H91.9084Z" fill="#F5F5F5"/>
<path d="M91.9084 22L91.9684 22.06V31.94L91.9084 32H91.0284L90.9684 31.94V22.06L91.0284 22H91.9084Z" fill="#F5F5F5"/>
<path d="M91.9084 33L91.9684 33.06V42.94L91.9084 43H91.0284L90.9684 42.94V33.06L91.0284 33H91.9084Z" fill="#F5F5F5"/>
<path d="M91.9084 44L91.9684 44.06V53.94L91.9084 54H91.0284L90.9684 53.94V44.06L91.0284 44H91.9084Z" fill="#F5F5F5"/>
<path d="M91.9084 55L91.9684 55.06V64.94L91.9084 65H91.0284L90.9684 64.94V55.06L91.0284 55H91.9084Z" fill="#F5F5F5"/>
<path d="M91.9084 66L91.9684 66.06V75.94L91.9084 76H91.0284L90.9684 75.94V66.06L91.0284 66H91.9084Z" fill="#F5F5F5"/>
<path d="M91.9084 77L91.9684 77.06V86.94L91.9084 87H91.0284L90.9684 86.94V77.06L91.0284 77H91.9084Z" fill="#F5F5F5"/>
<path d="M91.9084 88L91.9684 88.06V97.94L91.9084 98H91.0284L90.9684 97.94V88.06L91.0284 88H91.9084Z" fill="#F5F5F5"/>
<path d="M91.9084 99L91.9684 99.06V108.94L91.9084 109H91.0284L90.9684 108.94V99.06L91.0284 99H91.9084Z" fill="#F5F5F5"/>
<path d="M91.9084 110L91.9684 110.06V119.94L91.9084 120H91.0284L90.9684 119.94V110.06L91.0284 110H91.9084Z" fill="#F5F5F5"/>
</svg>
