<svg width="93" height="120" viewBox="0 0 93 120" fill="none" xmlns="http://www.w3.org/2000/svg">
<path d="M3.60316 21.8242L3.66316 21.8842V27.7642L3.60316 27.8242L3.66316 27.8842L3.72316 27.8242H5.60316L5.66316 27.8842V28.7642L5.60316 28.8242H0.723162L0.663162 28.7642V27.8842L0.723162 27.8242H2.60316L2.66316 27.8842L2.72316 27.8242L2.66316 27.7642V23.8842L2.72316 23.8242L2.66316 23.7642L2.60316 23.8242H1.22316L1.16316 23.7642V22.8842L1.22316 22.8242H2.60316L2.66316 22.8842L2.72316 22.8242L2.66316 22.7642V21.8842L2.72316 21.8242H3.60316Z" fill="#F5F5F5"/>
<path d="M18.9804 21.8242L19.0404 21.8842V22.7642L18.9804 22.8242H16.1004L16.0404 22.7642V21.8842L16.1004 21.8242H18.9804ZM19.9804 22.8242L20.0404 22.8842V27.7642L19.9804 27.8242H19.1004L19.0404 27.7642V24.8842L19.1004 24.8242L19.0404 24.7642L18.9804 24.8242H18.1004L18.0404 24.7642V23.8842L18.1004 23.8242H18.9804L19.0404 23.8842L19.1004 23.8242L19.0404 23.7642V22.8842L19.1004 22.8242H19.9804ZM15.9804 22.8242L16.0404 22.8842V25.7642L15.9804 25.8242L16.0404 25.8842L16.1004 25.8242H16.9804L17.0404 25.8842V26.7642L16.9804 26.8242H16.1004L16.0404 26.7642L15.9804 26.8242L16.0404 26.8842V27.7642L15.9804 27.8242H15.1004L15.0404 27.7642V22.8842L15.1004 22.8242H15.9804ZM17.9804 24.8242L18.0404 24.8842V25.7642L17.9804 25.8242H17.1004L17.0404 25.7642V24.8842L17.1004 24.8242H17.9804ZM18.9804 27.8242L19.0404 27.8842V28.7642L18.9804 28.8242H16.1004L16.0404 28.7642V27.8842L16.1004 27.8242H18.9804Z" fill="#F5F5F5"/>
<path d="M74.7823 12.2L74.9263 12.344V14.456L74.7823 14.6H67.8703L67.7263 14.456L67.5823 14.6L67.7263 14.744V19.256L67.5823 19.4L67.7263 19.544L67.8703 19.4H74.7823L74.9263 19.544V21.656L74.7823 21.8H67.8703L67.7263 21.656L67.5823 21.8L67.7263 21.944V28.856L67.5823 29H65.4703L65.3263 28.856V12.344L65.4703 12.2H74.7823ZM77.1823 14.6L77.3263 14.744V19.256L77.1823 19.4H75.0703L74.9263 19.256V14.744L75.0703 14.6H77.1823Z" fill="#F5F5F5"/>
<path d="M33.3578 21.8242L33.4178 21.8842V22.7642L33.3578 22.8242H30.4778L30.4178 22.7642V21.8842L30.4778 21.8242H33.3578ZM34.3578 22.8242L34.4178 22.8842V27.7642L34.3578 27.8242H33.4778L33.4178 27.7642V24.8842L33.4778 24.8242L33.4178 24.7642L33.3578 24.8242H32.4778L32.4178 24.7642V23.8842L32.4778 23.8242H33.3578L33.4178 23.8842L33.4778 23.8242L33.4178 23.7642V22.8842L33.4778 22.8242H34.3578ZM30.3578 22.8242L30.4178 22.8842V25.7642L30.3578 25.8242L30.4178 25.8842L30.4778 25.8242H31.3578L31.4178 25.8842V26.7642L31.3578 26.8242H30.4778L30.4178 26.7642L30.3578 26.8242L30.4178 26.8842V27.7642L30.3578 27.8242H29.4778L29.4178 27.7642V22.8842L29.4778 22.8242H30.3578ZM32.3578 24.8242L32.4178 24.8842V25.7642L32.3578 25.8242H31.4778L31.4178 25.7642V24.8842L31.4778 24.8242H32.3578ZM33.3578 27.8242L33.4178 27.8842V28.7642L33.3578 28.8242H30.4778L30.4178 28.7642V27.8842L30.4778 27.8242H33.3578Z" fill="#F5F5F5"/>
<path d="M4.60316 10.9121L4.66316 10.9721V11.8521L4.60316 11.9121H1.72316L1.66316 11.8521V10.9721L1.72316 10.9121H4.60316ZM5.60316 11.9121L5.66316 11.9721V16.8521L5.60316 16.9121H4.72316L4.66316 16.8521V13.9721L4.72316 13.9121L4.66316 13.8521L4.60316 13.9121H3.72316L3.66316 13.8521V12.9721L3.72316 12.9121H4.60316L4.66316 12.9721L4.72316 12.9121L4.66316 12.8521V11.9721L4.72316 11.9121H5.60316ZM1.60316 11.9121L1.66316 11.9721V14.8521L1.60316 14.9121L1.66316 14.9721L1.72316 14.9121H2.60316L2.66316 14.9721V15.8521L2.60316 15.9121H1.72316L1.66316 15.8521L1.60316 15.9121L1.66316 15.9721V16.8521L1.60316 16.9121H0.723162L0.663162 16.8521V11.9721L0.723162 11.9121H1.60316ZM3.60316 13.9121L3.66316 13.9721V14.8521L3.60316 14.9121H2.72316L2.66316 14.8521V13.9721L2.72316 13.9121H3.60316ZM4.60316 16.9121L4.66316 16.9721V17.8521L4.60316 17.9121H1.72316L1.66316 17.8521V16.9721L1.72316 16.9121H4.60316Z" fill="#F5F5F5"/>
<path d="M17.9804 10.9121L18.0404 10.9721V16.8521L17.9804 16.9121L18.0404 16.9721L18.1004 16.9121H19.9804L20.0404 16.9721V17.8521L19.9804 17.9121H15.1004L15.0404 17.8521V16.9721L15.1004 16.9121H16.9804L17.0404 16.9721L17.1004 16.9121L17.0404 16.8521V12.9721L17.1004 12.9121L17.0404 12.8521L16.9804 12.9121H15.6004L15.5404 12.8521V11.9721L15.6004 11.9121H16.9804L17.0404 11.9721L17.1004 11.9121L17.0404 11.8521V10.9721L17.1004 10.9121H17.9804Z" fill="#F5F5F5"/>
<path d="M32.3578 10.9121L32.4178 10.9721V16.8521L32.3578 16.9121L32.4178 16.9721L32.4778 16.9121H34.3578L34.4178 16.9721V17.8521L34.3578 17.9121H29.4778L29.4178 17.8521V16.9721L29.4778 16.9121H31.3578L31.4178 16.9721L31.4778 16.9121L31.4178 16.8521V12.9721L31.4778 12.9121L31.4178 12.8521L31.3578 12.9121H29.9778L29.9178 12.8521V11.9721L29.9778 11.9121H31.3578L31.4178 11.9721L31.4778 11.9121L31.4178 11.8521V10.9721L31.4778 10.9121H32.3578Z" fill="#F5F5F5"/>
<path d="M4.60316 0L4.66316 0.0600004V0.94L4.60316 1H1.72316L1.66316 0.94V0.0600004L1.72316 0H4.60316ZM5.60316 1L5.66316 1.06V5.94L5.60316 6H4.72316L4.66316 5.94V3.06L4.72316 3L4.66316 2.94L4.60316 3H3.72316L3.66316 2.94V2.06L3.72316 2H4.60316L4.66316 2.06L4.72316 2L4.66316 1.94V1.06L4.72316 1H5.60316ZM1.60316 1L1.66316 1.06V3.94L1.60316 4L1.66316 4.06L1.72316 4H2.60316L2.66316 4.06V4.94L2.60316 5H1.72316L1.66316 4.94L1.60316 5L1.66316 5.06V5.94L1.60316 6H0.723162L0.663162 5.94V1.06L0.723162 1H1.60316ZM3.60316 3L3.66316 3.06V3.94L3.60316 4H2.72316L2.66316 3.94V3.06L2.72316 3H3.60316ZM4.60316 6L4.66316 6.06V6.94L4.60316 7H1.72316L1.66316 6.94V6.06L1.72316 6H4.60316Z" fill="#F5F5F5"/>
<path d="M18.9804 0L19.0404 0.0600004V0.94L18.9804 1H16.1004L16.0404 0.94V0.0600004L16.1004 0H18.9804ZM19.9804 1L20.0404 1.06V5.94L19.9804 6H19.1004L19.0404 5.94V3.06L19.1004 3L19.0404 2.94L18.9804 3H18.1004L18.0404 2.94V2.06L18.1004 2H18.9804L19.0404 2.06L19.1004 2L19.0404 1.94V1.06L19.1004 1H19.9804ZM15.9804 1L16.0404 1.06V3.94L15.9804 4L16.0404 4.06L16.1004 4H16.9804L17.0404 4.06V4.94L16.9804 5H16.1004L16.0404 4.94L15.9804 5L16.0404 5.06V5.94L15.9804 6H15.1004L15.0404 5.94V1.06L15.1004 1H15.9804ZM17.9804 3L18.0404 3.06V3.94L17.9804 4H17.1004L17.0404 3.94V3.06L17.1004 3H17.9804ZM18.9804 6L19.0404 6.06V6.94L18.9804 7H16.1004L16.0404 6.94V6.06L16.1004 6H18.9804Z" fill="#F5F5F5"/>
<path d="M32.3578 0L32.4178 0.0600004V5.94L32.3578 6L32.4178 6.06L32.4778 6H34.3578L34.4178 6.06V6.94L34.3578 7H29.4778L29.4178 6.94V6.06L29.4778 6H31.3578L31.4178 6.06L31.4778 6L31.4178 5.94V2.06L31.4778 2L31.4178 1.94L31.3578 2H29.9778L29.9178 1.94V1.06L29.9778 1H31.3578L31.4178 1.06L31.4778 1L31.4178 0.94V0.0600004L31.4778 0H32.3578Z" fill="#F5F5F5"/>
<path d="M7.36482 98.5393H27.3648V118.539H7.36482V98.5393Z" fill="#F5F5F5"/>
<path d="M47.3648 58.5393H67.3648V78.5393H47.3648V58.5393Z" fill="#F5F5F5"/>
<path d="M47.3648 78.5393H67.3648V98.5393H47.3648V78.5393Z" fill="#F5F5F5"/>
<path d="M27.3648 78.5393H47.3648V98.5393H27.3648V78.5393Z" fill="#F5F5F5"/>
<path d="M92.2663 0L92.3263 0.0599998V9.94L92.2663 10H91.3863L91.3263 9.94V0.0599998L91.3863 0H92.2663Z" fill="#F5F5F5"/>
<path d="M92.2663 11L92.3263 11.06V20.94L92.2663 21H91.3863L91.3263 20.94V11.06L91.3863 11H92.2663Z" fill="#F5F5F5"/>
<path d="M92.2663 22L92.3263 22.06V31.94L92.2663 32H91.3863L91.3263 31.94V22.06L91.3863 22H92.2663Z" fill="#F5F5F5"/>
<path d="M92.2663 33L92.3263 33.06V42.94L92.2663 43H91.3863L91.3263 42.94V33.06L91.3863 33H92.2663Z" fill="#F5F5F5"/>
<path d="M92.2663 44L92.3263 44.06V53.94L92.2663 54H91.3863L91.3263 53.94V44.06L91.3863 44H92.2663Z" fill="#F5F5F5"/>
<path d="M92.2663 55L92.3263 55.06V64.94L92.2663 65H91.3863L91.3263 64.94V55.06L91.3863 55H92.2663Z" fill="#F5F5F5"/>
<path d="M92.2663 66L92.3263 66.06V75.94L92.2663 76H91.3863L91.3263 75.94V66.06L91.3863 66H92.2663Z" fill="#F5F5F5"/>
<path d="M92.2663 77L92.3263 77.06V86.94L92.2663 87H91.3863L91.3263 86.94V77.06L91.3863 77H92.2663Z" fill="#F5F5F5"/>
<path d="M92.2663 88L92.3263 88.06V97.94L92.2663 98H91.3863L91.3263 97.94V88.06L91.3863 88H92.2663Z" fill="#F5F5F5"/>
<path d="M92.2663 99L92.3263 99.06V108.94L92.2663 109H91.3863L91.3263 108.94V99.06L91.3863 99H92.2663Z" fill="#F5F5F5"/>
<path d="M92.2663 110L92.3263 110.06V119.94L92.2663 120H91.3863L91.3263 119.94V110.06L91.3863 110H92.2663Z" fill="#F5F5F5"/>
</svg>
