<svg width="93" height="120" viewBox="0 0 93 120" fill="none" xmlns="http://www.w3.org/2000/svg">
<path d="M3.31793 21.8242L3.37793 21.8842V27.7642L3.31793 27.8242L3.37793 27.8842L3.43793 27.8242H5.31793L5.37793 27.8842V28.7642L5.31793 28.8242H0.43793L0.37793 28.7642V27.8842L0.43793 27.8242H2.31793L2.37793 27.8842L2.43793 27.8242L2.37793 27.7642V23.8842L2.43793 23.8242L2.37793 23.7642L2.31793 23.8242H0.93793L0.87793 23.7642V22.8842L0.93793 22.8242H2.31793L2.37793 22.8842L2.43793 22.8242L2.37793 22.7642V21.8842L2.43793 21.8242H3.31793Z" fill="#F5F5F5"/>
<path d="M18.6951 21.8242L18.7551 21.8842V22.7642L18.6951 22.8242H15.8151L15.7551 22.7642V21.8842L15.8151 21.8242H18.6951ZM19.6951 22.8242L19.7551 22.8842V27.7642L19.6951 27.8242H18.8151L18.7551 27.7642V24.8842L18.8151 24.8242L18.7551 24.7642L18.6951 24.8242H17.8151L17.7551 24.7642V23.8842L17.8151 23.8242H18.6951L18.7551 23.8842L18.8151 23.8242L18.7551 23.7642V22.8842L18.8151 22.8242H19.6951ZM15.6951 22.8242L15.7551 22.8842V25.7642L15.6951 25.8242L15.7551 25.8842L15.8151 25.8242H16.6951L16.7551 25.8842V26.7642L16.6951 26.8242H15.8151L15.7551 26.7642L15.6951 26.8242L15.7551 26.8842V27.7642L15.6951 27.8242H14.8151L14.7551 27.7642V22.8842L14.8151 22.8242H15.6951ZM17.6951 24.8242L17.7551 24.8842V25.7642L17.6951 25.8242H16.8151L16.7551 25.7642V24.8842L16.8151 24.8242H17.6951ZM18.6951 27.8242L18.7551 27.8842V28.7642L18.6951 28.8242H15.8151L15.7551 28.7642V27.8842L15.8151 27.8242H18.6951Z" fill="#F5F5F5"/>
<path d="M74.4971 12.2L74.6411 12.344V14.456L74.4971 14.6H67.5851L67.4411 14.456V12.344L67.5851 12.2H74.4971ZM76.8971 14.6L77.0411 14.744V19.256L76.8971 19.4H74.7851L74.6411 19.256V14.744L74.7851 14.6H76.8971ZM67.2971 14.6L67.4411 14.744V16.856L67.2971 17H65.1851L65.0411 16.856V14.744L65.1851 14.6H67.2971ZM74.4971 19.4L74.6411 19.544V21.656L74.4971 21.8H68.7851L68.6411 21.656V19.544L68.7851 19.4H74.4971ZM76.8971 21.8L77.0411 21.944V26.456L76.8971 26.6H74.7851L74.6411 26.456V21.944L74.7851 21.8H76.8971ZM67.2971 24.2L67.4411 24.344V26.456L67.2971 26.6H65.1851L65.0411 26.456V24.344L65.1851 24.2H67.2971ZM74.4971 26.6L74.6411 26.744V28.856L74.4971 29H67.5851L67.4411 28.856V26.744L67.5851 26.6H74.4971Z" fill="#F5F5F5"/>
<path d="M32.0726 21.8242L32.1326 21.8842V27.7642L32.0726 27.8242L32.1326 27.8842L32.1926 27.8242H34.0726L34.1326 27.8842V28.7642L34.0726 28.8242H29.1926L29.1326 28.7642V27.8842L29.1926 27.8242H31.0726L31.1326 27.8842L31.1926 27.8242L31.1326 27.7642V23.8842L31.1926 23.8242L31.1326 23.7642L31.0726 23.8242H29.6926L29.6326 23.7642V22.8842L29.6926 22.8242H31.0726L31.1326 22.8842L31.1926 22.8242L31.1326 22.7642V21.8842L31.1926 21.8242H32.0726Z" fill="#F5F5F5"/>
<path d="M4.31793 10.9121L4.37793 10.9721V11.8521L4.31793 11.9121H1.43793L1.37793 11.8521V10.9721L1.43793 10.9121H4.31793ZM5.31793 11.9121L5.37793 11.9721V16.8521L5.31793 16.9121H4.43793L4.37793 16.8521V13.9721L4.43793 13.9121L4.37793 13.8521L4.31793 13.9121H3.43793L3.37793 13.8521V12.9721L3.43793 12.9121H4.31793L4.37793 12.9721L4.43793 12.9121L4.37793 12.8521V11.9721L4.43793 11.9121H5.31793ZM1.31793 11.9121L1.37793 11.9721V14.8521L1.31793 14.9121L1.37793 14.9721L1.43793 14.9121H2.31793L2.37793 14.9721V15.8521L2.31793 15.9121H1.43793L1.37793 15.8521L1.31793 15.9121L1.37793 15.9721V16.8521L1.31793 16.9121H0.43793L0.37793 16.8521V11.9721L0.43793 11.9121H1.31793ZM3.31793 13.9121L3.37793 13.9721V14.8521L3.31793 14.9121H2.43793L2.37793 14.8521V13.9721L2.43793 13.9121H3.31793ZM4.31793 16.9121L4.37793 16.9721V17.8521L4.31793 17.9121H1.43793L1.37793 17.8521V16.9721L1.43793 16.9121H4.31793Z" fill="#F5F5F5"/>
<path d="M18.6951 10.9121L18.7551 10.9721V11.8521L18.6951 11.9121H15.8151L15.7551 11.8521V10.9721L15.8151 10.9121H18.6951ZM19.6951 11.9121L19.7551 11.9721V16.8521L19.6951 16.9121H18.8151L18.7551 16.8521V13.9721L18.8151 13.9121L18.7551 13.8521L18.6951 13.9121H17.8151L17.7551 13.8521V12.9721L17.8151 12.9121H18.6951L18.7551 12.9721L18.8151 12.9121L18.7551 12.8521V11.9721L18.8151 11.9121H19.6951ZM15.6951 11.9121L15.7551 11.9721V14.8521L15.6951 14.9121L15.7551 14.9721L15.8151 14.9121H16.6951L16.7551 14.9721V15.8521L16.6951 15.9121H15.8151L15.7551 15.8521L15.6951 15.9121L15.7551 15.9721V16.8521L15.6951 16.9121H14.8151L14.7551 16.8521V11.9721L14.8151 11.9121H15.6951ZM17.6951 13.9121L17.7551 13.9721V14.8521L17.6951 14.9121H16.8151L16.7551 14.8521V13.9721L16.8151 13.9121H17.6951ZM18.6951 16.9121L18.7551 16.9721V17.8521L18.6951 17.9121H15.8151L15.7551 17.8521V16.9721L15.8151 16.9121H18.6951Z" fill="#F5F5F5"/>
<path d="M33.0726 10.9121L33.1326 10.9721V11.8521L33.0726 11.9121H30.1926L30.1326 11.8521V10.9721L30.1926 10.9121H33.0726ZM34.0726 11.9121L34.1326 11.9721V16.8521L34.0726 16.9121H33.1926L33.1326 16.8521V13.9721L33.1926 13.9121L33.1326 13.8521L33.0726 13.9121H32.1926L32.1326 13.8521V12.9721L32.1926 12.9121H33.0726L33.1326 12.9721L33.1926 12.9121L33.1326 12.8521V11.9721L33.1926 11.9121H34.0726ZM30.0726 11.9121L30.1326 11.9721V14.8521L30.0726 14.9121L30.1326 14.9721L30.1926 14.9121H31.0726L31.1326 14.9721V15.8521L31.0726 15.9121H30.1926L30.1326 15.8521L30.0726 15.9121L30.1326 15.9721V16.8521L30.0726 16.9121H29.1926L29.1326 16.8521V11.9721L29.1926 11.9121H30.0726ZM32.0726 13.9121L32.1326 13.9721V14.8521L32.0726 14.9121H31.1926L31.1326 14.8521V13.9721L31.1926 13.9121H32.0726ZM33.0726 16.9121L33.1326 16.9721V17.8521L33.0726 17.9121H30.1926L30.1326 17.8521V16.9721L30.1926 16.9121H33.0726Z" fill="#F5F5F5"/>
<path d="M3.31793 0L3.37793 0.0600004V5.94L3.31793 6L3.37793 6.06L3.43793 6H5.31793L5.37793 6.06V6.94L5.31793 7H0.43793L0.37793 6.94V6.06L0.43793 6H2.31793L2.37793 6.06L2.43793 6L2.37793 5.94V2.06L2.43793 2L2.37793 1.94L2.31793 2H0.93793L0.87793 1.94V1.06L0.93793 1H2.31793L2.37793 1.06L2.43793 1L2.37793 0.94V0.0600004L2.43793 0H3.31793Z" fill="#F5F5F5"/>
<path d="M18.6951 0L18.7551 0.0600004V0.94L18.6951 1H15.8151L15.7551 0.94V0.0600004L15.8151 0H18.6951ZM19.6951 1L19.7551 1.06V5.94L19.6951 6H18.8151L18.7551 5.94V3.06L18.8151 3L18.7551 2.94L18.6951 3H17.8151L17.7551 2.94V2.06L17.8151 2H18.6951L18.7551 2.06L18.8151 2L18.7551 1.94V1.06L18.8151 1H19.6951ZM15.6951 1L15.7551 1.06V3.94L15.6951 4L15.7551 4.06L15.8151 4H16.6951L16.7551 4.06V4.94L16.6951 5H15.8151L15.7551 4.94L15.6951 5L15.7551 5.06V5.94L15.6951 6H14.8151L14.7551 5.94V1.06L14.8151 1H15.6951ZM17.6951 3L17.7551 3.06V3.94L17.6951 4H16.8151L16.7551 3.94V3.06L16.8151 3H17.6951ZM18.6951 6L18.7551 6.06V6.94L18.6951 7H15.8151L15.7551 6.94V6.06L15.8151 6H18.6951Z" fill="#F5F5F5"/>
<path d="M33.0726 0L33.1326 0.0600004V0.94L33.0726 1H30.1926L30.1326 0.94V0.0600004L30.1926 0H33.0726ZM34.0726 1L34.1326 1.06V5.94L34.0726 6H33.1926L33.1326 5.94V3.06L33.1926 3L33.1326 2.94L33.0726 3H32.1926L32.1326 2.94V2.06L32.1926 2H33.0726L33.1326 2.06L33.1926 2L33.1326 1.94V1.06L33.1926 1H34.0726ZM30.0726 1L30.1326 1.06V3.94L30.0726 4L30.1326 4.06L30.1926 4H31.0726L31.1326 4.06V4.94L31.0726 5H30.1926L30.1326 4.94L30.0726 5L30.1326 5.06V5.94L30.0726 6H29.1926L29.1326 5.94V1.06L29.1926 1H30.0726ZM32.0726 3L32.1326 3.06V3.94L32.0726 4H31.1926L31.1326 3.94V3.06L31.1926 3H32.0726ZM33.0726 6L33.1326 6.06V6.94L33.0726 7H30.1926L30.1326 6.94V6.06L30.1926 6H33.0726Z" fill="#F5F5F5"/>
<path d="M47.0796 98.5393H67.0796V118.539H47.0796V98.5393Z" fill="#F5F5F5"/>
<path d="M7.07959 98.5393H27.0796V118.539H7.07959V98.5393Z" fill="#F5F5F5"/>
<path d="M7.07959 58.5393H27.0796V78.5393H7.07959V58.5393Z" fill="#F5F5F5"/>
<path d="M91.9811 0L92.0411 0.0599998V9.94L91.9811 10H91.1011L91.0411 9.94V0.0599998L91.1011 0H91.9811Z" fill="#F5F5F5"/>
<path d="M91.9811 11L92.0411 11.06V20.94L91.9811 21H91.1011L91.0411 20.94V11.06L91.1011 11H91.9811Z" fill="#F5F5F5"/>
<path d="M91.9811 22L92.0411 22.06V31.94L91.9811 32H91.1011L91.0411 31.94V22.06L91.1011 22H91.9811Z" fill="#F5F5F5"/>
<path d="M91.9811 33L92.0411 33.06V42.94L91.9811 43H91.1011L91.0411 42.94V33.06L91.1011 33H91.9811Z" fill="#F5F5F5"/>
<path d="M91.9811 44L92.0411 44.06V53.94L91.9811 54H91.1011L91.0411 53.94V44.06L91.1011 44H91.9811Z" fill="#F5F5F5"/>
<path d="M91.9811 55L92.0411 55.06V64.94L91.9811 65H91.1011L91.0411 64.94V55.06L91.1011 55H91.9811Z" fill="#F5F5F5"/>
<path d="M91.9811 66L92.0411 66.06V75.94L91.9811 76H91.1011L91.0411 75.94V66.06L91.1011 66H91.9811Z" fill="#F5F5F5"/>
<path d="M91.9811 77L92.0411 77.06V86.94L91.9811 87H91.1011L91.0411 86.94V77.06L91.1011 77H91.9811Z" fill="#F5F5F5"/>
<path d="M91.9811 88L92.0411 88.06V97.94L91.9811 98H91.1011L91.0411 97.94V88.06L91.1011 88H91.9811Z" fill="#F5F5F5"/>
<path d="M91.9811 99L92.0411 99.06V108.94L91.9811 109H91.1011L91.0411 108.94V99.06L91.1011 99H91.9811Z" fill="#F5F5F5"/>
<path d="M91.9811 110L92.0411 110.06V119.94L91.9811 120H91.1011L91.0411 119.94V110.06L91.1011 110H91.9811Z" fill="#F5F5F5"/>
</svg>
