<svg width="93" height="120" viewBox="0 0 93 120" fill="none" xmlns="http://www.w3.org/2000/svg">
<path d="M4.59265 21.8242L4.65265 21.8842V22.7642L4.59265 22.8242H1.71265L1.65265 22.7642V21.8842L1.71265 21.8242H4.59265ZM5.59265 22.8242L5.65265 22.8842V27.7642L5.59265 27.8242H4.71265L4.65265 27.7642V24.8842L4.71265 24.8242L4.65265 24.7642L4.59265 24.8242H3.71265L3.65265 24.7642V23.8842L3.71265 23.8242H4.59265L4.65265 23.8842L4.71265 23.8242L4.65265 23.7642V22.8842L4.71265 22.8242H5.59265ZM1.59265 22.8242L1.65265 22.8842V25.7642L1.59265 25.8242L1.65265 25.8842L1.71265 25.8242H2.59265L2.65265 25.8842V26.7642L2.59265 26.8242H1.71265L1.65265 26.7642L1.59265 26.8242L1.65265 26.8842V27.7642L1.59265 27.8242H0.712649L0.652649 27.7642V22.8842L0.712649 22.8242H1.59265ZM3.59265 24.8242L3.65265 24.8842V25.7642L3.59265 25.8242H2.71265L2.65265 25.7642V24.8842L2.71265 24.8242H3.59265ZM4.59265 27.8242L4.65265 27.8842V28.7642L4.59265 28.8242H1.71265L1.65265 28.7642V27.8842L1.71265 27.8242H4.59265Z" fill="#F5F5F5"/>
<path d="M18.9698 21.8242L19.0298 21.8842V22.7642L18.9698 22.8242H16.0898L16.0298 22.7642V21.8842L16.0898 21.8242H18.9698ZM19.9698 22.8242L20.0298 22.8842V27.7642L19.9698 27.8242H19.0898L19.0298 27.7642V24.8842L19.0898 24.8242L19.0298 24.7642L18.9698 24.8242H18.0898L18.0298 24.7642V23.8842L18.0898 23.8242H18.9698L19.0298 23.8842L19.0898 23.8242L19.0298 23.7642V22.8842L19.0898 22.8242H19.9698ZM15.9698 22.8242L16.0298 22.8842V25.7642L15.9698 25.8242L16.0298 25.8842L16.0898 25.8242H16.9698L17.0298 25.8842V26.7642L16.9698 26.8242H16.0898L16.0298 26.7642L15.9698 26.8242L16.0298 26.8842V27.7642L15.9698 27.8242H15.0898L15.0298 27.7642V22.8842L15.0898 22.8242H15.9698ZM17.9698 24.8242L18.0298 24.8842V25.7642L17.9698 25.8242H17.0898L17.0298 25.7642V24.8842L17.0898 24.8242H17.9698ZM18.9698 27.8242L19.0298 27.8842V28.7642L18.9698 28.8242H16.0898L16.0298 28.7642V27.8842L16.0898 27.8242H18.9698Z" fill="#F5F5F5"/>
<path d="M77.1718 12.2L77.3158 12.344V26.456L77.1718 26.6H75.0598L74.9158 26.456V12.344L75.0598 12.2H77.1718ZM67.5718 12.2L67.7158 12.344V26.456L67.5718 26.6H65.4598L65.3158 26.456V12.344L65.4598 12.2H67.5718ZM74.7718 26.6L74.9158 26.744V28.856L74.7718 29H67.8598L67.7158 28.856V26.744L67.8598 26.6H74.7718ZM71.3158 5.84V7.64L71.1958 7.76H69.3958L69.2758 7.64V5.84L69.3958 5.72H71.1958L71.3158 5.84ZM73.3558 7.88V9.68L73.2358 9.8H71.4358L71.3158 9.68V7.88L71.4358 7.76H73.2358L73.3558 7.88Z" fill="#F5F5F5"/>
<path d="M33.3473 21.8242L33.4073 21.8842V22.7642L33.3473 22.8242H30.4673L30.4073 22.7642V21.8842L30.4673 21.8242H33.3473ZM34.3473 22.8242L34.4073 22.8842V27.7642L34.3473 27.8242H33.4673L33.4073 27.7642V24.8842L33.4673 24.8242L33.4073 24.7642L33.3473 24.8242H32.4673L32.4073 24.7642V23.8842L32.4673 23.8242H33.3473L33.4073 23.8842L33.4673 23.8242L33.4073 23.7642V22.8842L33.4673 22.8242H34.3473ZM30.3473 22.8242L30.4073 22.8842V25.7642L30.3473 25.8242L30.4073 25.8842L30.4673 25.8242H31.3473L31.4073 25.8842V26.7642L31.3473 26.8242H30.4673L30.4073 26.7642L30.3473 26.8242L30.4073 26.8842V27.7642L30.3473 27.8242H29.4673L29.4073 27.7642V22.8842L29.4673 22.8242H30.3473ZM32.3473 24.8242L32.4073 24.8842V25.7642L32.3473 25.8242H31.4673L31.4073 25.7642V24.8842L31.4673 24.8242H32.3473ZM33.3473 27.8242L33.4073 27.8842V28.7642L33.3473 28.8242H30.4673L30.4073 28.7642V27.8842L30.4673 27.8242H33.3473Z" fill="#F5F5F5"/>
<path d="M3.59265 10.9121L3.65265 10.9721V16.8521L3.59265 16.9121L3.65265 16.9721L3.71265 16.9121H5.59265L5.65265 16.9721V17.8521L5.59265 17.9121H0.712649L0.652649 17.8521V16.9721L0.712649 16.9121H2.59265L2.65265 16.9721L2.71265 16.9121L2.65265 16.8521V12.9721L2.71265 12.9121L2.65265 12.8521L2.59265 12.9121H1.21265L1.15265 12.8521V11.9721L1.21265 11.9121H2.59265L2.65265 11.9721L2.71265 11.9121L2.65265 11.8521V10.9721L2.71265 10.9121H3.59265Z" fill="#F5F5F5"/>
<path d="M17.9698 10.9121L18.0298 10.9721V16.8521L17.9698 16.9121L18.0298 16.9721L18.0898 16.9121H19.9698L20.0298 16.9721V17.8521L19.9698 17.9121H15.0898L15.0298 17.8521V16.9721L15.0898 16.9121H16.9698L17.0298 16.9721L17.0898 16.9121L17.0298 16.8521V12.9721L17.0898 12.9121L17.0298 12.8521L16.9698 12.9121H15.5898L15.5298 12.8521V11.9721L15.5898 11.9121H16.9698L17.0298 11.9721L17.0898 11.9121L17.0298 11.8521V10.9721L17.0898 10.9121H17.9698Z" fill="#F5F5F5"/>
<path d="M32.3473 10.9121L32.4073 10.9721V16.8521L32.3473 16.9121L32.4073 16.9721L32.4673 16.9121H34.3473L34.4073 16.9721V17.8521L34.3473 17.9121H29.4673L29.4073 17.8521V16.9721L29.4673 16.9121H31.3473L31.4073 16.9721L31.4673 16.9121L31.4073 16.8521V12.9721L31.4673 12.9121L31.4073 12.8521L31.3473 12.9121H29.9673L29.9073 12.8521V11.9721L29.9673 11.9121H31.3473L31.4073 11.9721L31.4673 11.9121L31.4073 11.8521V10.9721L31.4673 10.9121H32.3473Z" fill="#F5F5F5"/>
<path d="M4.59265 0L4.65265 0.0600004V0.94L4.59265 1H1.71265L1.65265 0.94V0.0600004L1.71265 0H4.59265ZM5.59265 1L5.65265 1.06V5.94L5.59265 6H4.71265L4.65265 5.94V3.06L4.71265 3L4.65265 2.94L4.59265 3H3.71265L3.65265 2.94V2.06L3.71265 2H4.59265L4.65265 2.06L4.71265 2L4.65265 1.94V1.06L4.71265 1H5.59265ZM1.59265 1L1.65265 1.06V3.94L1.59265 4L1.65265 4.06L1.71265 4H2.59265L2.65265 4.06V4.94L2.59265 5H1.71265L1.65265 4.94L1.59265 5L1.65265 5.06V5.94L1.59265 6H0.712649L0.652649 5.94V1.06L0.712649 1H1.59265ZM3.59265 3L3.65265 3.06V3.94L3.59265 4H2.71265L2.65265 3.94V3.06L2.71265 3H3.59265ZM4.59265 6L4.65265 6.06V6.94L4.59265 7H1.71265L1.65265 6.94V6.06L1.71265 6H4.59265Z" fill="#F5F5F5"/>
<path d="M17.9698 0L18.0298 0.0600004V5.94L17.9698 6L18.0298 6.06L18.0898 6H19.9698L20.0298 6.06V6.94L19.9698 7H15.0898L15.0298 6.94V6.06L15.0898 6H16.9698L17.0298 6.06L17.0898 6L17.0298 5.94V2.06L17.0898 2L17.0298 1.94L16.9698 2H15.5898L15.5298 1.94V1.06L15.5898 1H16.9698L17.0298 1.06L17.0898 1L17.0298 0.94V0.0600004L17.0898 0H17.9698Z" fill="#F5F5F5"/>
<path d="M33.3473 0L33.4073 0.0600004V0.94L33.3473 1H30.4673L30.4073 0.94V0.0600004L30.4673 0H33.3473ZM34.3473 1L34.4073 1.06V5.94L34.3473 6H33.4673L33.4073 5.94V3.06L33.4673 3L33.4073 2.94L33.3473 3H32.4673L32.4073 2.94V2.06L32.4673 2H33.3473L33.4073 2.06L33.4673 2L33.4073 1.94V1.06L33.4673 1H34.3473ZM30.3473 1L30.4073 1.06V3.94L30.3473 4L30.4073 4.06L30.4673 4H31.3473L31.4073 4.06V4.94L31.3473 5H30.4673L30.4073 4.94L30.3473 5L30.4073 5.06V5.94L30.3473 6H29.4673L29.4073 5.94V1.06L29.4673 1H30.3473ZM32.3473 3L32.4073 3.06V3.94L32.3473 4H31.4673L31.4073 3.94V3.06L31.4673 3H32.3473ZM33.3473 6L33.4073 6.06V6.94L33.3473 7H30.4673L30.4073 6.94V6.06L30.4673 6H33.3473Z" fill="#F5F5F5"/>
<path d="M27.3915 78.5393H47.3915V98.5393H27.3915V78.5393Z" fill="#F5F5F5"/>
<path d="M7.39154 78.5393H27.3915V98.5393H7.39154V78.5393Z" fill="#F5F5F5"/>
<path d="M47.3915 78.5393L67.3915 78.5393V98.5393L47.3915 98.5393V78.5393Z" fill="#F5F5F5"/>
<path d="M27.3915 58.5393H47.3915V78.5393H27.3915V58.5393Z" fill="#F5F5F5"/>
<path d="M92.2558 0L92.3158 0.0599998V9.94L92.2558 10H91.3758L91.3158 9.94V0.0599998L91.3758 0H92.2558Z" fill="#F5F5F5"/>
<path d="M92.2558 11L92.3158 11.06V20.94L92.2558 21H91.3758L91.3158 20.94V11.06L91.3758 11H92.2558Z" fill="#F5F5F5"/>
<path d="M92.2558 22L92.3158 22.06V31.94L92.2558 32H91.3758L91.3158 31.94V22.06L91.3758 22H92.2558Z" fill="#F5F5F5"/>
<path d="M92.2558 33L92.3158 33.06V42.94L92.2558 43H91.3758L91.3158 42.94V33.06L91.3758 33H92.2558Z" fill="#F5F5F5"/>
<path d="M92.2558 44L92.3158 44.06V53.94L92.2558 54H91.3758L91.3158 53.94V44.06L91.3758 44H92.2558Z" fill="#F5F5F5"/>
<path d="M92.2558 55L92.3158 55.06V64.94L92.2558 65H91.3758L91.3158 64.94V55.06L91.3758 55H92.2558Z" fill="#F5F5F5"/>
<path d="M92.2558 66L92.3158 66.06V75.94L92.2558 76H91.3758L91.3158 75.94V66.06L91.3758 66H92.2558Z" fill="#F5F5F5"/>
<path d="M92.2558 77L92.3158 77.06V86.94L92.2558 87H91.3758L91.3158 86.94V77.06L91.3758 77H92.2558Z" fill="#F5F5F5"/>
<path d="M92.2558 88L92.3158 88.06V97.94L92.2558 98H91.3758L91.3158 97.94V88.06L91.3758 88H92.2558Z" fill="#F5F5F5"/>
<path d="M92.2558 99L92.3158 99.06V108.94L92.2558 109H91.3758L91.3158 108.94V99.06L91.3758 99H92.2558Z" fill="#F5F5F5"/>
<path d="M92.2558 110L92.3158 110.06V119.94L92.2558 120H91.3758L91.3158 119.94V110.06L91.3758 110H92.2558Z" fill="#F5F5F5"/>
</svg>
