<svg width="93" height="120" viewBox="0 0 93 120" fill="none" xmlns="http://www.w3.org/2000/svg">
<path d="M3.64422 21.8242L3.70422 21.8842V27.7642L3.64422 27.8242L3.70422 27.8842L3.76422 27.8242H5.64422L5.70422 27.8842V28.7642L5.64422 28.8242H0.764224L0.704224 28.7642V27.8842L0.764224 27.8242H2.64422L2.70422 27.8842L2.76422 27.8242L2.70422 27.7642V23.8842L2.76422 23.8242L2.70422 23.7642L2.64422 23.8242H1.26422L1.20422 23.7642V22.8842L1.26422 22.8242H2.64422L2.70422 22.8842L2.76422 22.8242L2.70422 22.7642V21.8842L2.76422 21.8242H3.64422Z" fill="#F5F5F5"/>
<path d="M19.0214 21.8242L19.0814 21.8842V22.7642L19.0214 22.8242H16.1414L16.0814 22.7642V21.8842L16.1414 21.8242H19.0214ZM20.0214 22.8242L20.0814 22.8842V27.7642L20.0214 27.8242H19.1414L19.0814 27.7642V24.8842L19.1414 24.8242L19.0814 24.7642L19.0214 24.8242H18.1414L18.0814 24.7642V23.8842L18.1414 23.8242H19.0214L19.0814 23.8842L19.1414 23.8242L19.0814 23.7642V22.8842L19.1414 22.8242H20.0214ZM16.0214 22.8242L16.0814 22.8842V25.7642L16.0214 25.8242L16.0814 25.8842L16.1414 25.8242H17.0214L17.0814 25.8842V26.7642L17.0214 26.8242H16.1414L16.0814 26.7642L16.0214 26.8242L16.0814 26.8842V27.7642L16.0214 27.8242H15.1414L15.0814 27.7642V22.8842L15.1414 22.8242H16.0214ZM18.0214 24.8242L18.0814 24.8842V25.7642L18.0214 25.8242H17.1414L17.0814 25.7642V24.8842L17.1414 24.8242H18.0214ZM19.0214 27.8242L19.0814 27.8842V28.7642L19.0214 28.8242H16.1414L16.0814 28.7642V27.8842L16.1414 27.8242H19.0214Z" fill="#F5F5F5"/>
<path d="M77.2234 12.2L77.3674 12.344V14.456L77.2234 14.6H67.9114L67.7674 14.456L67.6234 14.6L67.7674 14.744V19.256L67.6234 19.4H65.5114L65.3674 19.256V12.344L65.5114 12.2H77.2234ZM74.8234 19.4L74.9674 19.544V21.656L74.8234 21.8H67.9114L67.7674 21.656V19.544L67.9114 19.4H74.8234ZM77.2234 21.8L77.3674 21.944V26.456L77.2234 26.6H75.1114L74.9674 26.456V21.944L75.1114 21.8H77.2234ZM67.6234 24.2L67.7674 24.344V26.456L67.6234 26.6H65.5114L65.3674 26.456V24.344L65.5114 24.2H67.6234ZM74.8234 26.6L74.9674 26.744V28.856L74.8234 29H67.9114L67.7674 28.856V26.744L67.9114 26.6H74.8234Z" fill="#F5F5F5"/>
<path d="M32.3989 21.8242L32.4589 21.8842V27.7642L32.3989 27.8242L32.4589 27.8842L32.5189 27.8242H34.3989L34.4589 27.8842V28.7642L34.3989 28.8242H29.5189L29.4589 28.7642V27.8842L29.5189 27.8242H31.3989L31.4589 27.8842L31.5189 27.8242L31.4589 27.7642V23.8842L31.5189 23.8242L31.4589 23.7642L31.3989 23.8242H30.0189L29.9589 23.7642V22.8842L30.0189 22.8242H31.3989L31.4589 22.8842L31.5189 22.8242L31.4589 22.7642V21.8842L31.5189 21.8242H32.3989Z" fill="#F5F5F5"/>
<path d="M4.64422 10.9121L4.70422 10.9721V11.8521L4.64422 11.9121H1.76422L1.70422 11.8521V10.9721L1.76422 10.9121H4.64422ZM5.64422 11.9121L5.70422 11.9721V16.8521L5.64422 16.9121H4.76422L4.70422 16.8521V13.9721L4.76422 13.9121L4.70422 13.8521L4.64422 13.9121H3.76422L3.70422 13.8521V12.9721L3.76422 12.9121H4.64422L4.70422 12.9721L4.76422 12.9121L4.70422 12.8521V11.9721L4.76422 11.9121H5.64422ZM1.64422 11.9121L1.70422 11.9721V14.8521L1.64422 14.9121L1.70422 14.9721L1.76422 14.9121H2.64422L2.70422 14.9721V15.8521L2.64422 15.9121H1.76422L1.70422 15.8521L1.64422 15.9121L1.70422 15.9721V16.8521L1.64422 16.9121H0.764224L0.704224 16.8521V11.9721L0.764224 11.9121H1.64422ZM3.64422 13.9121L3.70422 13.9721V14.8521L3.64422 14.9121H2.76422L2.70422 14.8521V13.9721L2.76422 13.9121H3.64422ZM4.64422 16.9121L4.70422 16.9721V17.8521L4.64422 17.9121H1.76422L1.70422 17.8521V16.9721L1.76422 16.9121H4.64422Z" fill="#F5F5F5"/>
<path d="M18.0214 10.9121L18.0814 10.9721V16.8521L18.0214 16.9121L18.0814 16.9721L18.1414 16.9121H20.0214L20.0814 16.9721V17.8521L20.0214 17.9121H15.1414L15.0814 17.8521V16.9721L15.1414 16.9121H17.0214L17.0814 16.9721L17.1414 16.9121L17.0814 16.8521V12.9721L17.1414 12.9121L17.0814 12.8521L17.0214 12.9121H15.6414L15.5814 12.8521V11.9721L15.6414 11.9121H17.0214L17.0814 11.9721L17.1414 11.9121L17.0814 11.8521V10.9721L17.1414 10.9121H18.0214Z" fill="#F5F5F5"/>
<path d="M33.3989 10.9121L33.4589 10.9721V11.8521L33.3989 11.9121H30.5189L30.4589 11.8521V10.9721L30.5189 10.9121H33.3989ZM34.3989 11.9121L34.4589 11.9721V16.8521L34.3989 16.9121H33.5189L33.4589 16.8521V13.9721L33.5189 13.9121L33.4589 13.8521L33.3989 13.9121H32.5189L32.4589 13.8521V12.9721L32.5189 12.9121H33.3989L33.4589 12.9721L33.5189 12.9121L33.4589 12.8521V11.9721L33.5189 11.9121H34.3989ZM30.3989 11.9121L30.4589 11.9721V14.8521L30.3989 14.9121L30.4589 14.9721L30.5189 14.9121H31.3989L31.4589 14.9721V15.8521L31.3989 15.9121H30.5189L30.4589 15.8521L30.3989 15.9121L30.4589 15.9721V16.8521L30.3989 16.9121H29.5189L29.4589 16.8521V11.9721L29.5189 11.9121H30.3989ZM32.3989 13.9121L32.4589 13.9721V14.8521L32.3989 14.9121H31.5189L31.4589 14.8521V13.9721L31.5189 13.9121H32.3989ZM33.3989 16.9121L33.4589 16.9721V17.8521L33.3989 17.9121H30.5189L30.4589 17.8521V16.9721L30.5189 16.9121H33.3989Z" fill="#F5F5F5"/>
<path d="M3.64422 0L3.70422 0.0600004V5.94L3.64422 6L3.70422 6.06L3.76422 6H5.64422L5.70422 6.06V6.94L5.64422 7H0.764224L0.704224 6.94V6.06L0.764224 6H2.64422L2.70422 6.06L2.76422 6L2.70422 5.94V2.06L2.76422 2L2.70422 1.94L2.64422 2H1.26422L1.20422 1.94V1.06L1.26422 1H2.64422L2.70422 1.06L2.76422 1L2.70422 0.94V0.0600004L2.76422 0H3.64422Z" fill="#F5F5F5"/>
<path d="M19.0214 0L19.0814 0.0600004V0.94L19.0214 1H16.1414L16.0814 0.94V0.0600004L16.1414 0H19.0214ZM20.0214 1L20.0814 1.06V5.94L20.0214 6H19.1414L19.0814 5.94V3.06L19.1414 3L19.0814 2.94L19.0214 3H18.1414L18.0814 2.94V2.06L18.1414 2H19.0214L19.0814 2.06L19.1414 2L19.0814 1.94V1.06L19.1414 1H20.0214ZM16.0214 1L16.0814 1.06V3.94L16.0214 4L16.0814 4.06L16.1414 4H17.0214L17.0814 4.06V4.94L17.0214 5H16.1414L16.0814 4.94L16.0214 5L16.0814 5.06V5.94L16.0214 6H15.1414L15.0814 5.94V1.06L15.1414 1H16.0214ZM18.0214 3L18.0814 3.06V3.94L18.0214 4H17.1414L17.0814 3.94V3.06L17.1414 3H18.0214ZM19.0214 6L19.0814 6.06V6.94L19.0214 7H16.1414L16.0814 6.94V6.06L16.1414 6H19.0214Z" fill="#F5F5F5"/>
<path d="M32.3989 0L32.4589 0.0600004V5.94L32.3989 6L32.4589 6.06L32.5189 6H34.3989L34.4589 6.06V6.94L34.3989 7H29.5189L29.4589 6.94V6.06L29.5189 6H31.3989L31.4589 6.06L31.5189 6L31.4589 5.94V2.06L31.5189 2L31.4589 1.94L31.3989 2H30.0189L29.9589 1.94V1.06L30.0189 1H31.3989L31.4589 1.06L31.5189 1L31.4589 0.94V0.0600004L31.5189 0H32.3989Z" fill="#F5F5F5"/>
<path d="M27.4059 78.5393H47.4059V98.5393H27.4059V78.5393Z" fill="#F5F5F5"/>
<path d="M7.40588 98.5393H27.4059V118.539H7.40588V98.5393Z" fill="#F5F5F5"/>
<path d="M7.40588 58.5393H27.4059V78.5393H7.40588V58.5393Z" fill="#F5F5F5"/>
<path d="M47.4059 58.5393H67.4059V78.5393H47.4059V58.5393Z" fill="#F5F5F5"/>
<path d="M47.4059 98.5393H67.4059V118.539H47.4059V98.5393Z" fill="#F5F5F5"/>
<path d="M92.3074 0L92.3674 0.0599998V9.94L92.3074 10H91.4274L91.3674 9.94V0.0599998L91.4274 0H92.3074Z" fill="#F5F5F5"/>
<path d="M92.3074 11L92.3674 11.06V20.94L92.3074 21H91.4274L91.3674 20.94V11.06L91.4274 11H92.3074Z" fill="#F5F5F5"/>
<path d="M92.3074 22L92.3674 22.06V31.94L92.3074 32H91.4274L91.3674 31.94V22.06L91.4274 22H92.3074Z" fill="#F5F5F5"/>
<path d="M92.3074 33L92.3674 33.06V42.94L92.3074 43H91.4274L91.3674 42.94V33.06L91.4274 33H92.3074Z" fill="#F5F5F5"/>
<path d="M92.3074 44L92.3674 44.06V53.94L92.3074 54H91.4274L91.3674 53.94V44.06L91.4274 44H92.3074Z" fill="#F5F5F5"/>
<path d="M92.3074 55L92.3674 55.06V64.94L92.3074 65H91.4274L91.3674 64.94V55.06L91.4274 55H92.3074Z" fill="#F5F5F5"/>
<path d="M92.3074 66L92.3674 66.06V75.94L92.3074 76H91.4274L91.3674 75.94V66.06L91.4274 66H92.3074Z" fill="#F5F5F5"/>
<path d="M92.3074 77L92.3674 77.06V86.94L92.3074 87H91.4274L91.3674 86.94V77.06L91.4274 77H92.3074Z" fill="#F5F5F5"/>
<path d="M92.3074 88L92.3674 88.06V97.94L92.3074 98H91.4274L91.3674 97.94V88.06L91.4274 88H92.3074Z" fill="#F5F5F5"/>
<path d="M92.3074 99L92.3674 99.06V108.94L92.3074 109H91.4274L91.3674 108.94V99.06L91.4274 99H92.3074Z" fill="#F5F5F5"/>
<path d="M92.3074 110L92.3674 110.06V119.94L92.3074 120H91.4274L91.3674 119.94V110.06L91.4274 110H92.3074Z" fill="#F5F5F5"/>
</svg>
