<svg width="92" height="120" viewBox="0 0 92 120" fill="none" xmlns="http://www.w3.org/2000/svg">
<path d="M3.99159 21.8242L4.05159 21.8842V22.7642L3.99159 22.8242H1.11159L1.05159 22.7642V21.8842L1.11159 21.8242H3.99159ZM4.99159 22.8242L5.05159 22.8842V27.7642L4.99159 27.8242H4.11159L4.05159 27.7642V24.8842L4.11159 24.8242L4.05159 24.7642L3.99159 24.8242H3.11159L3.05159 24.7642V23.8842L3.11159 23.8242H3.99159L4.05159 23.8842L4.11159 23.8242L4.05159 23.7642V22.8842L4.11159 22.8242H4.99159ZM0.99159 22.8242L1.05159 22.8842V25.7642L0.99159 25.8242L1.05159 25.8842L1.11159 25.8242H1.99159L2.05159 25.8842V26.7642L1.99159 26.8242H1.11159L1.05159 26.7642L0.99159 26.8242L1.05159 26.8842V27.7642L0.99159 27.8242H0.11159L0.05159 27.7642V22.8842L0.11159 22.8242H0.99159ZM2.99159 24.8242L3.05159 24.8842V25.7642L2.99159 25.8242H2.11159L2.05159 25.7642V24.8842L2.11159 24.8242H2.99159ZM3.99159 27.8242L4.05159 27.8842V28.7642L3.99159 28.8242H1.11159L1.05159 28.7642V27.8842L1.11159 27.8242H3.99159Z" fill="#F5F5F5"/>
<path d="M18.3688 21.8242L18.4288 21.8842V22.7642L18.3688 22.8242H15.4888L15.4288 22.7642V21.8842L15.4888 21.8242H18.3688ZM19.3688 22.8242L19.4288 22.8842V27.7642L19.3688 27.8242H18.4888L18.4288 27.7642V24.8842L18.4888 24.8242L18.4288 24.7642L18.3688 24.8242H17.4888L17.4288 24.7642V23.8842L17.4888 23.8242H18.3688L18.4288 23.8842L18.4888 23.8242L18.4288 23.7642V22.8842L18.4888 22.8242H19.3688ZM15.3688 22.8242L15.4288 22.8842V25.7642L15.3688 25.8242L15.4288 25.8842L15.4888 25.8242H16.3688L16.4288 25.8842V26.7642L16.3688 26.8242H15.4888L15.4288 26.7642L15.3688 26.8242L15.4288 26.8842V27.7642L15.3688 27.8242H14.4888L14.4288 27.7642V22.8842L14.4888 22.8242H15.3688ZM17.3688 24.8242L17.4288 24.8842V25.7642L17.3688 25.8242H16.4888L16.4288 25.7642V24.8842L16.4888 24.8242H17.3688ZM18.3688 27.8242L18.4288 27.8842V28.7642L18.3688 28.8242H15.4888L15.4288 28.7642V27.8842L15.4888 27.8242H18.3688Z" fill="#F5F5F5"/>
<path d="M71.7708 12.2L71.9147 12.344V26.456L71.7708 26.6L71.9147 26.744L72.0587 26.6H76.5707L76.7148 26.744V28.856L76.5707 29H64.8587L64.7148 28.856V26.744L64.8587 26.6H69.3708L69.5147 26.744L69.6588 26.6L69.5147 26.456V17.144L69.6588 17L69.5147 16.856L69.3708 17H66.0587L65.9147 16.856V14.744L66.0587 14.6H69.3708L69.5147 14.744L69.6588 14.6L69.5147 14.456V12.344L69.6588 12.2H71.7708Z" fill="#F5F5F5"/>
<path d="M32.7462 21.8242L32.8062 21.8842V22.7642L32.7462 22.8242H29.8662L29.8062 22.7642V21.8842L29.8662 21.8242H32.7462ZM33.7462 22.8242L33.8062 22.8842V27.7642L33.7462 27.8242H32.8662L32.8062 27.7642V24.8842L32.8662 24.8242L32.8062 24.7642L32.7462 24.8242H31.8662L31.8062 24.7642V23.8842L31.8662 23.8242H32.7462L32.8062 23.8842L32.8662 23.8242L32.8062 23.7642V22.8842L32.8662 22.8242H33.7462ZM29.7462 22.8242L29.8062 22.8842V25.7642L29.7462 25.8242L29.8062 25.8842L29.8662 25.8242H30.7462L30.8062 25.8842V26.7642L30.7462 26.8242H29.8662L29.8062 26.7642L29.7462 26.8242L29.8062 26.8842V27.7642L29.7462 27.8242H28.8662L28.8062 27.7642V22.8842L28.8662 22.8242H29.7462ZM31.7462 24.8242L31.8062 24.8842V25.7642L31.7462 25.8242H30.8662L30.8062 25.7642V24.8842L30.8662 24.8242H31.7462ZM32.7462 27.8242L32.8062 27.8842V28.7642L32.7462 28.8242H29.8662L29.8062 28.7642V27.8842L29.8662 27.8242H32.7462Z" fill="#F5F5F5"/>
<path d="M3.99159 10.9121L4.05159 10.9721V11.8521L3.99159 11.9121H1.11159L1.05159 11.8521V10.9721L1.11159 10.9121H3.99159ZM4.99159 11.9121L5.05159 11.9721V16.8521L4.99159 16.9121H4.11159L4.05159 16.8521V13.9721L4.11159 13.9121L4.05159 13.8521L3.99159 13.9121H3.11159L3.05159 13.8521V12.9721L3.11159 12.9121H3.99159L4.05159 12.9721L4.11159 12.9121L4.05159 12.8521V11.9721L4.11159 11.9121H4.99159ZM0.99159 11.9121L1.05159 11.9721V14.8521L0.99159 14.9121L1.05159 14.9721L1.11159 14.9121H1.99159L2.05159 14.9721V15.8521L1.99159 15.9121H1.11159L1.05159 15.8521L0.99159 15.9121L1.05159 15.9721V16.8521L0.99159 16.9121H0.11159L0.05159 16.8521V11.9721L0.11159 11.9121H0.99159ZM2.99159 13.9121L3.05159 13.9721V14.8521L2.99159 14.9121H2.11159L2.05159 14.8521V13.9721L2.11159 13.9121H2.99159ZM3.99159 16.9121L4.05159 16.9721V17.8521L3.99159 17.9121H1.11159L1.05159 17.8521V16.9721L1.11159 16.9121H3.99159Z" fill="#F5F5F5"/>
<path d="M17.3688 10.9121L17.4288 10.9721V16.8521L17.3688 16.9121L17.4288 16.9721L17.4888 16.9121H19.3688L19.4288 16.9721V17.8521L19.3688 17.9121H14.4888L14.4288 17.8521V16.9721L14.4888 16.9121H16.3688L16.4288 16.9721L16.4888 16.9121L16.4288 16.8521V12.9721L16.4888 12.9121L16.4288 12.8521L16.3688 12.9121H14.9888L14.9288 12.8521V11.9721L14.9888 11.9121H16.3688L16.4288 11.9721L16.4888 11.9121L16.4288 11.8521V10.9721L16.4888 10.9121H17.3688Z" fill="#F5F5F5"/>
<path d="M32.7462 10.9121L32.8062 10.9721V11.8521L32.7462 11.9121H29.8662L29.8062 11.8521V10.9721L29.8662 10.9121H32.7462ZM33.7462 11.9121L33.8062 11.9721V16.8521L33.7462 16.9121H32.8662L32.8062 16.8521V13.9721L32.8662 13.9121L32.8062 13.8521L32.7462 13.9121H31.8662L31.8062 13.8521V12.9721L31.8662 12.9121H32.7462L32.8062 12.9721L32.8662 12.9121L32.8062 12.8521V11.9721L32.8662 11.9121H33.7462ZM29.7462 11.9121L29.8062 11.9721V14.8521L29.7462 14.9121L29.8062 14.9721L29.8662 14.9121H30.7462L30.8062 14.9721V15.8521L30.7462 15.9121H29.8662L29.8062 15.8521L29.7462 15.9121L29.8062 15.9721V16.8521L29.7462 16.9121H28.8662L28.8062 16.8521V11.9721L28.8662 11.9121H29.7462ZM31.7462 13.9121L31.8062 13.9721V14.8521L31.7462 14.9121H30.8662L30.8062 14.8521V13.9721L30.8662 13.9121H31.7462ZM32.7462 16.9121L32.8062 16.9721V17.8521L32.7462 17.9121H29.8662L29.8062 17.8521V16.9721L29.8662 16.9121H32.7462Z" fill="#F5F5F5"/>
<path d="M3.99159 0L4.05159 0.0600004V0.94L3.99159 1H1.11159L1.05159 0.94V0.0600004L1.11159 0H3.99159ZM4.99159 1L5.05159 1.06V5.94L4.99159 6H4.11159L4.05159 5.94V3.06L4.11159 3L4.05159 2.94L3.99159 3H3.11159L3.05159 2.94V2.06L3.11159 2H3.99159L4.05159 2.06L4.11159 2L4.05159 1.94V1.06L4.11159 1H4.99159ZM0.99159 1L1.05159 1.06V3.94L0.99159 4L1.05159 4.06L1.11159 4H1.99159L2.05159 4.06V4.94L1.99159 5H1.11159L1.05159 4.94L0.99159 5L1.05159 5.06V5.94L0.99159 6H0.11159L0.05159 5.94V1.06L0.11159 1H0.99159ZM2.99159 3L3.05159 3.06V3.94L2.99159 4H2.11159L2.05159 3.94V3.06L2.11159 3H2.99159ZM3.99159 6L4.05159 6.06V6.94L3.99159 7H1.11159L1.05159 6.94V6.06L1.11159 6H3.99159Z" fill="#F5F5F5"/>
<path d="M18.3688 0L18.4288 0.0600004V0.94L18.3688 1H15.4888L15.4288 0.94V0.0600004L15.4888 0H18.3688ZM19.3688 1L19.4288 1.06V5.94L19.3688 6H18.4888L18.4288 5.94V3.06L18.4888 3L18.4288 2.94L18.3688 3H17.4888L17.4288 2.94V2.06L17.4888 2H18.3688L18.4288 2.06L18.4888 2L18.4288 1.94V1.06L18.4888 1H19.3688ZM15.3688 1L15.4288 1.06V3.94L15.3688 4L15.4288 4.06L15.4888 4H16.3688L16.4288 4.06V4.94L16.3688 5H15.4888L15.4288 4.94L15.3688 5L15.4288 5.06V5.94L15.3688 6H14.4888L14.4288 5.94V1.06L14.4888 1H15.3688ZM17.3688 3L17.4288 3.06V3.94L17.3688 4H16.4888L16.4288 3.94V3.06L16.4888 3H17.3688ZM18.3688 6L18.4288 6.06V6.94L18.3688 7H15.4888L15.4288 6.94V6.06L15.4888 6H18.3688Z" fill="#F5F5F5"/>
<path d="M32.7462 0L32.8062 0.0600004V0.94L32.7462 1H29.8662L29.8062 0.94V0.0600004L29.8662 0H32.7462ZM33.7462 1L33.8062 1.06V5.94L33.7462 6H32.8662L32.8062 5.94V3.06L32.8662 3L32.8062 2.94L32.7462 3H31.8662L31.8062 2.94V2.06L31.8662 2H32.7462L32.8062 2.06L32.8662 2L32.8062 1.94V1.06L32.8662 1H33.7462ZM29.7462 1L29.8062 1.06V3.94L29.7462 4L29.8062 4.06L29.8662 4H30.7462L30.8062 4.06V4.94L30.7462 5H29.8662L29.8062 4.94L29.7462 5L29.8062 5.06V5.94L29.7462 6H28.8662L28.8062 5.94V1.06L28.8662 1H29.7462ZM31.7462 3L31.8062 3.06V3.94L31.7462 4H30.8662L30.8062 3.94V3.06L30.8662 3H31.7462ZM32.7462 6L32.8062 6.06V6.94L32.7462 7H29.8662L29.8062 6.94V6.06L29.8662 6H32.7462Z" fill="#F5F5F5"/>
<path d="M26.7905 78.5393H46.7905V98.5393H26.7905V78.5393Z" fill="#F5F5F5"/>
<path d="M91.6548 0L91.7148 0.0599998V9.94L91.6548 10H90.7748L90.7148 9.94V0.0599998L90.7748 0H91.6548Z" fill="#F5F5F5"/>
<path d="M91.6548 11L91.7148 11.06V20.94L91.6548 21H90.7748L90.7148 20.94V11.06L90.7748 11H91.6548Z" fill="#F5F5F5"/>
<path d="M91.6548 22L91.7148 22.06V31.94L91.6548 32H90.7748L90.7148 31.94V22.06L90.7748 22H91.6548Z" fill="#F5F5F5"/>
<path d="M91.6548 33L91.7148 33.06V42.94L91.6548 43H90.7748L90.7148 42.94V33.06L90.7748 33H91.6548Z" fill="#F5F5F5"/>
<path d="M91.6548 44L91.7148 44.06V53.94L91.6548 54H90.7748L90.7148 53.94V44.06L90.7748 44H91.6548Z" fill="#F5F5F5"/>
<path d="M91.6548 55L91.7148 55.06V64.94L91.6548 65H90.7748L90.7148 64.94V55.06L90.7748 55H91.6548Z" fill="#F5F5F5"/>
<path d="M91.6548 66L91.7148 66.06V75.94L91.6548 76H90.7748L90.7148 75.94V66.06L90.7748 66H91.6548Z" fill="#F5F5F5"/>
<path d="M91.6548 77L91.7148 77.06V86.94L91.6548 87H90.7748L90.7148 86.94V77.06L90.7748 77H91.6548Z" fill="#F5F5F5"/>
<path d="M91.6548 88L91.7148 88.06V97.94L91.6548 98H90.7748L90.7148 97.94V88.06L90.7748 88H91.6548Z" fill="#F5F5F5"/>
<path d="M91.6548 99L91.7148 99.06V108.94L91.6548 109H90.7748L90.7148 108.94V99.06L90.7748 99H91.6548Z" fill="#F5F5F5"/>
<path d="M91.6548 110L91.7148 110.06V119.94L91.6548 120H90.7748L90.7148 119.94V110.06L90.7748 110H91.6548Z" fill="#F5F5F5"/>
</svg>
