<svg width="93" height="120" viewBox="0 0 93 120" fill="none" xmlns="http://www.w3.org/2000/svg">
<path d="M4.9295 21.8242L4.9895 21.8842V22.7642L4.9295 22.8242H2.0495L1.9895 22.7642V21.8842L2.0495 21.8242H4.9295ZM5.9295 22.8242L5.9895 22.8842V27.7642L5.9295 27.8242H5.0495L4.9895 27.7642V24.8842L5.0495 24.8242L4.9895 24.7642L4.9295 24.8242H4.0495L3.9895 24.7642V23.8842L4.0495 23.8242H4.9295L4.9895 23.8842L5.0495 23.8242L4.9895 23.7642V22.8842L5.0495 22.8242H5.9295ZM1.9295 22.8242L1.9895 22.8842V25.7642L1.9295 25.8242L1.9895 25.8842L2.0495 25.8242H2.9295L2.9895 25.8842V26.7642L2.9295 26.8242H2.0495L1.9895 26.7642L1.9295 26.8242L1.9895 26.8842V27.7642L1.9295 27.8242H1.0495L0.989502 27.7642V22.8842L1.0495 22.8242H1.9295ZM3.9295 24.8242L3.9895 24.8842V25.7642L3.9295 25.8242H3.0495L2.9895 25.7642V24.8842L3.0495 24.8242H3.9295ZM4.9295 27.8242L4.9895 27.8842V28.7642L4.9295 28.8242H2.0495L1.9895 28.7642V27.8842L2.0495 27.8242H4.9295Z" fill="#F5F5F5"/>
<path d="M18.3067 21.8242L18.3667 21.8842V27.7642L18.3067 27.8242L18.3667 27.8842L18.4267 27.8242H20.3067L20.3667 27.8842V28.7642L20.3067 28.8242H15.4267L15.3667 28.7642V27.8842L15.4267 27.8242H17.3067L17.3667 27.8842L17.4267 27.8242L17.3667 27.7642V23.8842L17.4267 23.8242L17.3667 23.7642L17.3067 23.8242H15.9267L15.8667 23.7642V22.8842L15.9267 22.8242H17.3067L17.3667 22.8842L17.4267 22.8242L17.3667 22.7642V21.8842L17.4267 21.8242H18.3067Z" fill="#F5F5F5"/>
<path d="M75.1087 12.2L75.2527 12.344V14.456L75.1087 14.6H68.1967L68.0527 14.456L67.9087 14.6L68.0527 14.744V19.256L67.9087 19.4L68.0527 19.544L68.1967 19.4H75.1087L75.2527 19.544V21.656L75.1087 21.8H72.9967L72.8527 21.656L72.7087 21.8L72.8527 21.944V24.056L72.7087 24.2H70.5967L70.4527 24.056V21.944L70.5967 21.8L70.4527 21.656L70.3087 21.8H68.1967L68.0527 21.656L67.9087 21.8L68.0527 21.944V28.856L67.9087 29H65.7967L65.6527 28.856V12.344L65.7967 12.2H75.1087ZM77.5087 14.6L77.6527 14.744V19.256L77.5087 19.4H75.3967L75.2527 19.256V14.744L75.3967 14.6H77.5087ZM75.1087 24.2L75.2527 24.344V26.456L75.1087 26.6H72.9967L72.8527 26.456V24.344L72.9967 24.2H75.1087ZM77.5087 26.6L77.6527 26.744V28.856L77.5087 29H75.3967L75.2527 28.856V26.744L75.3967 26.6H77.5087Z" fill="#F5F5F5"/>
<path d="M33.6841 21.8242L33.7441 21.8842V22.7642L33.6841 22.8242H30.8041L30.7441 22.7642V21.8842L30.8041 21.8242H33.6841ZM34.6841 22.8242L34.7441 22.8842V27.7642L34.6841 27.8242H33.8041L33.7441 27.7642V24.8842L33.8041 24.8242L33.7441 24.7642L33.6841 24.8242H32.8041L32.7441 24.7642V23.8842L32.8041 23.8242H33.6841L33.7441 23.8842L33.8041 23.8242L33.7441 23.7642V22.8842L33.8041 22.8242H34.6841ZM30.6841 22.8242L30.7441 22.8842V25.7642L30.6841 25.8242L30.7441 25.8842L30.8041 25.8242H31.6841L31.7441 25.8842V26.7642L31.6841 26.8242H30.8041L30.7441 26.7642L30.6841 26.8242L30.7441 26.8842V27.7642L30.6841 27.8242H29.8041L29.7441 27.7642V22.8842L29.8041 22.8242H30.6841ZM32.6841 24.8242L32.7441 24.8842V25.7642L32.6841 25.8242H31.8041L31.7441 25.7642V24.8842L31.8041 24.8242H32.6841ZM33.6841 27.8242L33.7441 27.8842V28.7642L33.6841 28.8242H30.8041L30.7441 28.7642V27.8842L30.8041 27.8242H33.6841Z" fill="#F5F5F5"/>
<path d="M3.9295 10.9121L3.9895 10.9721V16.8521L3.9295 16.9121L3.9895 16.9721L4.0495 16.9121H5.9295L5.9895 16.9721V17.8521L5.9295 17.9121H1.0495L0.989502 17.8521V16.9721L1.0495 16.9121H2.9295L2.9895 16.9721L3.0495 16.9121L2.9895 16.8521V12.9721L3.0495 12.9121L2.9895 12.8521L2.9295 12.9121H1.5495L1.4895 12.8521V11.9721L1.5495 11.9121H2.9295L2.9895 11.9721L3.0495 11.9121L2.9895 11.8521V10.9721L3.0495 10.9121H3.9295Z" fill="#F5F5F5"/>
<path d="M19.3067 10.9121L19.3667 10.9721V11.8521L19.3067 11.9121H16.4267L16.3667 11.8521V10.9721L16.4267 10.9121H19.3067ZM20.3067 11.9121L20.3667 11.9721V16.8521L20.3067 16.9121H19.4267L19.3667 16.8521V13.9721L19.4267 13.9121L19.3667 13.8521L19.3067 13.9121H18.4267L18.3667 13.8521V12.9721L18.4267 12.9121H19.3067L19.3667 12.9721L19.4267 12.9121L19.3667 12.8521V11.9721L19.4267 11.9121H20.3067ZM16.3067 11.9121L16.3667 11.9721V14.8521L16.3067 14.9121L16.3667 14.9721L16.4267 14.9121H17.3067L17.3667 14.9721V15.8521L17.3067 15.9121H16.4267L16.3667 15.8521L16.3067 15.9121L16.3667 15.9721V16.8521L16.3067 16.9121H15.4267L15.3667 16.8521V11.9721L15.4267 11.9121H16.3067ZM18.3067 13.9121L18.3667 13.9721V14.8521L18.3067 14.9121H17.4267L17.3667 14.8521V13.9721L17.4267 13.9121H18.3067ZM19.3067 16.9121L19.3667 16.9721V17.8521L19.3067 17.9121H16.4267L16.3667 17.8521V16.9721L16.4267 16.9121H19.3067Z" fill="#F5F5F5"/>
<path d="M32.6841 10.9121L32.7441 10.9721V16.8521L32.6841 16.9121L32.7441 16.9721L32.8041 16.9121H34.6841L34.7441 16.9721V17.8521L34.6841 17.9121H29.8041L29.7441 17.8521V16.9721L29.8041 16.9121H31.6841L31.7441 16.9721L31.8041 16.9121L31.7441 16.8521V12.9721L31.8041 12.9121L31.7441 12.8521L31.6841 12.9121H30.3041L30.2441 12.8521V11.9721L30.3041 11.9121H31.6841L31.7441 11.9721L31.8041 11.9121L31.7441 11.8521V10.9721L31.8041 10.9121H32.6841Z" fill="#F5F5F5"/>
<path d="M3.9295 0L3.9895 0.0600004V5.94L3.9295 6L3.9895 6.06L4.0495 6H5.9295L5.9895 6.06V6.94L5.9295 7H1.0495L0.989502 6.94V6.06L1.0495 6H2.9295L2.9895 6.06L3.0495 6L2.9895 5.94V2.06L3.0495 2L2.9895 1.94L2.9295 2H1.5495L1.4895 1.94V1.06L1.5495 1H2.9295L2.9895 1.06L3.0495 1L2.9895 0.94V0.0600004L3.0495 0H3.9295Z" fill="#F5F5F5"/>
<path d="M18.3067 0L18.3667 0.0600004V5.94L18.3067 6L18.3667 6.06L18.4267 6H20.3067L20.3667 6.06V6.94L20.3067 7H15.4267L15.3667 6.94V6.06L15.4267 6H17.3067L17.3667 6.06L17.4267 6L17.3667 5.94V2.06L17.4267 2L17.3667 1.94L17.3067 2H15.9267L15.8667 1.94V1.06L15.9267 1H17.3067L17.3667 1.06L17.4267 1L17.3667 0.94V0.0600004L17.4267 0H18.3067Z" fill="#F5F5F5"/>
<path d="M32.6841 0L32.7441 0.0600004V5.94L32.6841 6L32.7441 6.06L32.8041 6H34.6841L34.7441 6.06V6.94L34.6841 7H29.8041L29.7441 6.94V6.06L29.8041 6H31.6841L31.7441 6.06L31.8041 6L31.7441 5.94V2.06L31.8041 2L31.7441 1.94L31.6841 2H30.3041L30.2441 1.94V1.06L30.3041 1H31.6841L31.7441 1.06L31.8041 1L31.7441 0.94V0.0600004L31.8041 0H32.6841Z" fill="#F5F5F5"/>
<path d="M47.6912 78.5393H67.6912V98.5393H47.6912V78.5393Z" fill="#F5F5F5"/>
<path d="M47.6912 58.5393H67.6912V78.5393H47.6912V58.5393Z" fill="#F5F5F5"/>
<path d="M27.6912 58.5393H47.6912V78.5393H27.6912V58.5393Z" fill="#F5F5F5"/>
<path d="M7.69116 58.5393H27.6912V78.5393H7.69116V58.5393Z" fill="#F5F5F5"/>
<path d="M7.69116 78.5393H27.6912V98.5393H7.69116V78.5393Z" fill="#F5F5F5"/>
<path d="M27.6912 98.5393H47.6912V118.539H27.6912V98.5393Z" fill="#F5F5F5"/>
<path d="M92.5926 0L92.6526 0.0599998V9.94L92.5926 10H91.7126L91.6526 9.94V0.0599998L91.7126 0H92.5926Z" fill="#F5F5F5"/>
<path d="M92.5926 11L92.6526 11.06V20.94L92.5926 21H91.7126L91.6526 20.94V11.06L91.7126 11H92.5926Z" fill="#F5F5F5"/>
<path d="M92.5926 22L92.6526 22.06V31.94L92.5926 32H91.7126L91.6526 31.94V22.06L91.7126 22H92.5926Z" fill="#F5F5F5"/>
<path d="M92.5926 33L92.6526 33.06V42.94L92.5926 43H91.7126L91.6526 42.94V33.06L91.7126 33H92.5926Z" fill="#F5F5F5"/>
<path d="M92.5926 44L92.6526 44.06V53.94L92.5926 54H91.7126L91.6526 53.94V44.06L91.7126 44H92.5926Z" fill="#F5F5F5"/>
<path d="M92.5926 55L92.6526 55.06V64.94L92.5926 65H91.7126L91.6526 64.94V55.06L91.7126 55H92.5926Z" fill="#F5F5F5"/>
<path d="M92.5926 66L92.6526 66.06V75.94L92.5926 76H91.7126L91.6526 75.94V66.06L91.7126 66H92.5926Z" fill="#F5F5F5"/>
<path d="M92.5926 77L92.6526 77.06V86.94L92.5926 87H91.7126L91.6526 86.94V77.06L91.7126 77H92.5926Z" fill="#F5F5F5"/>
<path d="M92.5926 88L92.6526 88.06V97.94L92.5926 98H91.7126L91.6526 97.94V88.06L91.7126 88H92.5926Z" fill="#F5F5F5"/>
<path d="M92.5926 99L92.6526 99.06V108.94L92.5926 109H91.7126L91.6526 108.94V99.06L91.7126 99H92.5926Z" fill="#F5F5F5"/>
<path d="M92.5926 110L92.6526 110.06V119.94L92.5926 120H91.7126L91.6526 119.94V110.06L91.7126 110H92.5926Z" fill="#F5F5F5"/>
</svg>
