<svg width="93" height="120" viewBox="0 0 93 120" fill="none" xmlns="http://www.w3.org/2000/svg">
<path d="M3.62323 21.8242L3.68323 21.8842V27.7642L3.62323 27.8242L3.68323 27.8842L3.74323 27.8242H5.62323L5.68323 27.8842V28.7642L5.62323 28.8242H0.743228L0.683228 28.7642V27.8842L0.743228 27.8242H2.62323L2.68323 27.8842L2.74323 27.8242L2.68323 27.7642V23.8842L2.74323 23.8242L2.68323 23.7642L2.62323 23.8242H1.24323L1.18323 23.7642V22.8842L1.24323 22.8242H2.62323L2.68323 22.8842L2.74323 22.8242L2.68323 22.7642V21.8842L2.74323 21.8242H3.62323Z" fill="#F5F5F5"/>
<path d="M18.0004 21.8242L18.0604 21.8842V27.7642L18.0004 27.8242L18.0604 27.8842L18.1204 27.8242H20.0004L20.0604 27.8842V28.7642L20.0004 28.8242H15.1204L15.0604 28.7642V27.8842L15.1204 27.8242H17.0004L17.0604 27.8842L17.1204 27.8242L17.0604 27.7642V23.8842L17.1204 23.8242L17.0604 23.7642L17.0004 23.8242H15.6204L15.5604 23.7642V22.8842L15.6204 22.8242H17.0004L17.0604 22.8842L17.1204 22.8242L17.0604 22.7642V21.8842L17.1204 21.8242H18.0004Z" fill="#F5F5F5"/>
<path d="M74.8024 12.2L74.9464 12.344V14.456L74.8024 14.6H67.8904L67.7464 14.456L67.6024 14.6L67.7464 14.744V19.256L67.6024 19.4L67.7464 19.544L67.8904 19.4H74.8024L74.9464 19.544V21.656L74.8024 21.8H67.8904L67.7464 21.656L67.6024 21.8L67.7464 21.944V26.456L67.6024 26.6L67.7464 26.744L67.8904 26.6H74.8024L74.9464 26.744V28.856L74.8024 29H65.4904L65.3464 28.856V12.344L65.4904 12.2H74.8024ZM77.2024 14.6L77.3464 14.744V19.256L77.2024 19.4H75.0904L74.9464 19.256V14.744L75.0904 14.6H77.2024ZM77.2024 21.8L77.3464 21.944V26.456L77.2024 26.6H75.0904L74.9464 26.456V21.944L75.0904 21.8H77.2024Z" fill="#F5F5F5"/>
<path d="M33.3779 21.8242L33.4379 21.8842V22.7642L33.3779 22.8242H30.4979L30.4379 22.7642V21.8842L30.4979 21.8242H33.3779ZM34.3779 22.8242L34.4379 22.8842V27.7642L34.3779 27.8242H33.4979L33.4379 27.7642V24.8842L33.4979 24.8242L33.4379 24.7642L33.3779 24.8242H32.4979L32.4379 24.7642V23.8842L32.4979 23.8242H33.3779L33.4379 23.8842L33.4979 23.8242L33.4379 23.7642V22.8842L33.4979 22.8242H34.3779ZM30.3779 22.8242L30.4379 22.8842V25.7642L30.3779 25.8242L30.4379 25.8842L30.4979 25.8242H31.3779L31.4379 25.8842V26.7642L31.3779 26.8242H30.4979L30.4379 26.7642L30.3779 26.8242L30.4379 26.8842V27.7642L30.3779 27.8242H29.4979L29.4379 27.7642V22.8842L29.4979 22.8242H30.3779ZM32.3779 24.8242L32.4379 24.8842V25.7642L32.3779 25.8242H31.4979L31.4379 25.7642V24.8842L31.4979 24.8242H32.3779ZM33.3779 27.8242L33.4379 27.8842V28.7642L33.3779 28.8242H30.4979L30.4379 28.7642V27.8842L30.4979 27.8242H33.3779Z" fill="#F5F5F5"/>
<path d="M3.62323 10.9121L3.68323 10.9721V16.8521L3.62323 16.9121L3.68323 16.9721L3.74323 16.9121H5.62323L5.68323 16.9721V17.8521L5.62323 17.9121H0.743228L0.683228 17.8521V16.9721L0.743228 16.9121H2.62323L2.68323 16.9721L2.74323 16.9121L2.68323 16.8521V12.9721L2.74323 12.9121L2.68323 12.8521L2.62323 12.9121H1.24323L1.18323 12.8521V11.9721L1.24323 11.9121H2.62323L2.68323 11.9721L2.74323 11.9121L2.68323 11.8521V10.9721L2.74323 10.9121H3.62323Z" fill="#F5F5F5"/>
<path d="M19.0004 10.9121L19.0604 10.9721V11.8521L19.0004 11.9121H16.1204L16.0604 11.8521V10.9721L16.1204 10.9121H19.0004ZM20.0004 11.9121L20.0604 11.9721V16.8521L20.0004 16.9121H19.1204L19.0604 16.8521V13.9721L19.1204 13.9121L19.0604 13.8521L19.0004 13.9121H18.1204L18.0604 13.8521V12.9721L18.1204 12.9121H19.0004L19.0604 12.9721L19.1204 12.9121L19.0604 12.8521V11.9721L19.1204 11.9121H20.0004ZM16.0004 11.9121L16.0604 11.9721V14.8521L16.0004 14.9121L16.0604 14.9721L16.1204 14.9121H17.0004L17.0604 14.9721V15.8521L17.0004 15.9121H16.1204L16.0604 15.8521L16.0004 15.9121L16.0604 15.9721V16.8521L16.0004 16.9121H15.1204L15.0604 16.8521V11.9721L15.1204 11.9121H16.0004ZM18.0004 13.9121L18.0604 13.9721V14.8521L18.0004 14.9121H17.1204L17.0604 14.8521V13.9721L17.1204 13.9121H18.0004ZM19.0004 16.9121L19.0604 16.9721V17.8521L19.0004 17.9121H16.1204L16.0604 17.8521V16.9721L16.1204 16.9121H19.0004Z" fill="#F5F5F5"/>
<path d="M33.3779 10.9121L33.4379 10.9721V11.8521L33.3779 11.9121H30.4979L30.4379 11.8521V10.9721L30.4979 10.9121H33.3779ZM34.3779 11.9121L34.4379 11.9721V16.8521L34.3779 16.9121H33.4979L33.4379 16.8521V13.9721L33.4979 13.9121L33.4379 13.8521L33.3779 13.9121H32.4979L32.4379 13.8521V12.9721L32.4979 12.9121H33.3779L33.4379 12.9721L33.4979 12.9121L33.4379 12.8521V11.9721L33.4979 11.9121H34.3779ZM30.3779 11.9121L30.4379 11.9721V14.8521L30.3779 14.9121L30.4379 14.9721L30.4979 14.9121H31.3779L31.4379 14.9721V15.8521L31.3779 15.9121H30.4979L30.4379 15.8521L30.3779 15.9121L30.4379 15.9721V16.8521L30.3779 16.9121H29.4979L29.4379 16.8521V11.9721L29.4979 11.9121H30.3779ZM32.3779 13.9121L32.4379 13.9721V14.8521L32.3779 14.9121H31.4979L31.4379 14.8521V13.9721L31.4979 13.9121H32.3779ZM33.3779 16.9121L33.4379 16.9721V17.8521L33.3779 17.9121H30.4979L30.4379 17.8521V16.9721L30.4979 16.9121H33.3779Z" fill="#F5F5F5"/>
<path d="M4.62323 0L4.68323 0.0600004V0.94L4.62323 1H1.74323L1.68323 0.94V0.0600004L1.74323 0H4.62323ZM5.62323 1L5.68323 1.06V5.94L5.62323 6H4.74323L4.68323 5.94V3.06L4.74323 3L4.68323 2.94L4.62323 3H3.74323L3.68323 2.94V2.06L3.74323 2H4.62323L4.68323 2.06L4.74323 2L4.68323 1.94V1.06L4.74323 1H5.62323ZM1.62323 1L1.68323 1.06V3.94L1.62323 4L1.68323 4.06L1.74323 4H2.62323L2.68323 4.06V4.94L2.62323 5H1.74323L1.68323 4.94L1.62323 5L1.68323 5.06V5.94L1.62323 6H0.743228L0.683228 5.94V1.06L0.743228 1H1.62323ZM3.62323 3L3.68323 3.06V3.94L3.62323 4H2.74323L2.68323 3.94V3.06L2.74323 3H3.62323ZM4.62323 6L4.68323 6.06V6.94L4.62323 7H1.74323L1.68323 6.94V6.06L1.74323 6H4.62323Z" fill="#F5F5F5"/>
<path d="M19.0004 0L19.0604 0.0600004V0.94L19.0004 1H16.1204L16.0604 0.94V0.0600004L16.1204 0H19.0004ZM20.0004 1L20.0604 1.06V5.94L20.0004 6H19.1204L19.0604 5.94V3.06L19.1204 3L19.0604 2.94L19.0004 3H18.1204L18.0604 2.94V2.06L18.1204 2H19.0004L19.0604 2.06L19.1204 2L19.0604 1.94V1.06L19.1204 1H20.0004ZM16.0004 1L16.0604 1.06V3.94L16.0004 4L16.0604 4.06L16.1204 4H17.0004L17.0604 4.06V4.94L17.0004 5H16.1204L16.0604 4.94L16.0004 5L16.0604 5.06V5.94L16.0004 6H15.1204L15.0604 5.94V1.06L15.1204 1H16.0004ZM18.0004 3L18.0604 3.06V3.94L18.0004 4H17.1204L17.0604 3.94V3.06L17.1204 3H18.0004ZM19.0004 6L19.0604 6.06V6.94L19.0004 7H16.1204L16.0604 6.94V6.06L16.1204 6H19.0004Z" fill="#F5F5F5"/>
<path d="M33.3779 0L33.4379 0.0600004V0.94L33.3779 1H30.4979L30.4379 0.94V0.0600004L30.4979 0H33.3779ZM34.3779 1L34.4379 1.06V5.94L34.3779 6H33.4979L33.4379 5.94V3.06L33.4979 3L33.4379 2.94L33.3779 3H32.4979L32.4379 2.94V2.06L32.4979 2H33.3779L33.4379 2.06L33.4979 2L33.4379 1.94V1.06L33.4979 1H34.3779ZM30.3779 1L30.4379 1.06V3.94L30.3779 4L30.4379 4.06L30.4979 4H31.3779L31.4379 4.06V4.94L31.3779 5H30.4979L30.4379 4.94L30.3779 5L30.4379 5.06V5.94L30.3779 6H29.4979L29.4379 5.94V1.06L29.4979 1H30.3779ZM32.3779 3L32.4379 3.06V3.94L32.3779 4H31.4979L31.4379 3.94V3.06L31.4979 3H32.3779ZM33.3779 6L33.4379 6.06V6.94L33.3779 7H30.4979L30.4379 6.94V6.06L30.4979 6H33.3779Z" fill="#F5F5F5"/>
<path d="M27.3849 98.5393H47.3849V118.539H27.3849V98.5393Z" fill="#F5F5F5"/>
<path d="M7.38489 98.5393H27.3849V118.539H7.38489V98.5393Z" fill="#F5F5F5"/>
<path d="M7.38489 78.5393H27.3849V98.5393H7.38489V78.5393Z" fill="#F5F5F5"/>
<path d="M92.2864 0L92.3464 0.0599998V9.94L92.2864 10H91.4064L91.3464 9.94V0.0599998L91.4064 0H92.2864Z" fill="#F5F5F5"/>
<path d="M92.2864 11L92.3464 11.06V20.94L92.2864 21H91.4064L91.3464 20.94V11.06L91.4064 11H92.2864Z" fill="#F5F5F5"/>
<path d="M92.2864 22L92.3464 22.06V31.94L92.2864 32H91.4064L91.3464 31.94V22.06L91.4064 22H92.2864Z" fill="#F5F5F5"/>
<path d="M92.2864 33L92.3464 33.06V42.94L92.2864 43H91.4064L91.3464 42.94V33.06L91.4064 33H92.2864Z" fill="#F5F5F5"/>
<path d="M92.2864 44L92.3464 44.06V53.94L92.2864 54H91.4064L91.3464 53.94V44.06L91.4064 44H92.2864Z" fill="#F5F5F5"/>
<path d="M92.2864 55L92.3464 55.06V64.94L92.2864 65H91.4064L91.3464 64.94V55.06L91.4064 55H92.2864Z" fill="#F5F5F5"/>
<path d="M92.2864 66L92.3464 66.06V75.94L92.2864 76H91.4064L91.3464 75.94V66.06L91.4064 66H92.2864Z" fill="#F5F5F5"/>
<path d="M92.2864 77L92.3464 77.06V86.94L92.2864 87H91.4064L91.3464 86.94V77.06L91.4064 77H92.2864Z" fill="#F5F5F5"/>
<path d="M92.2864 88L92.3464 88.06V97.94L92.2864 98H91.4064L91.3464 97.94V88.06L91.4064 88H92.2864Z" fill="#F5F5F5"/>
<path d="M92.2864 99L92.3464 99.06V108.94L92.2864 109H91.4064L91.3464 108.94V99.06L91.4064 99H92.2864Z" fill="#F5F5F5"/>
<path d="M92.2864 110L92.3464 110.06V119.94L92.2864 120H91.4064L91.3464 119.94V110.06L91.4064 110H92.2864Z" fill="#F5F5F5"/>
</svg>
