<svg width="92" height="120" viewBox="0 0 92 120" fill="none" xmlns="http://www.w3.org/2000/svg">
<path d="M2.97052 21.8242L3.03052 21.8842V27.7642L2.97052 27.8242L3.03052 27.8842L3.09052 27.8242H4.97052L5.03052 27.8842V28.7642L4.97052 28.8242H0.0905176L0.0305176 28.7642V27.8842L0.0905176 27.8242H1.97052L2.03052 27.8842L2.09052 27.8242L2.03052 27.7642V23.8842L2.09052 23.8242L2.03052 23.7642L1.97052 23.8242H0.590518L0.530518 23.7642V22.8842L0.590518 22.8242H1.97052L2.03052 22.8842L2.09052 22.8242L2.03052 22.7642V21.8842L2.09052 21.8242H2.97052Z" fill="#F5F5F5"/>
<path d="M17.3477 21.8242L17.4077 21.8842V27.7642L17.3477 27.8242L17.4077 27.8842L17.4677 27.8242H19.3477L19.4077 27.8842V28.7642L19.3477 28.8242H14.4677L14.4077 28.7642V27.8842L14.4677 27.8242H16.3477L16.4077 27.8842L16.4677 27.8242L16.4077 27.7642V23.8842L16.4677 23.8242L16.4077 23.7642L16.3477 23.8242H14.9677L14.9077 23.7642V22.8842L14.9677 22.8242H16.3477L16.4077 22.8842L16.4677 22.8242L16.4077 22.7642V21.8842L16.4677 21.8242H17.3477Z" fill="#F5F5F5"/>
<path d="M76.5497 12.2L76.6937 12.344V18.056L76.5497 18.2H74.4377L74.2937 18.056V14.744L74.4377 14.6L74.2937 14.456L74.1497 14.6H64.8377L64.6937 14.456V12.344L64.8377 12.2H76.5497ZM74.1497 18.2L74.2937 18.344V20.456L74.1497 20.6H72.0377L71.8937 20.456V18.344L72.0377 18.2H74.1497ZM71.7497 20.6L71.8937 20.744V28.856L71.7497 29H69.6377L69.4937 28.856V20.744L69.6377 20.6H71.7497Z" fill="#F5F5F5"/>
<path d="M31.7252 21.8242L31.7852 21.8842V27.7642L31.7252 27.8242L31.7852 27.8842L31.8452 27.8242H33.7252L33.7852 27.8842V28.7642L33.7252 28.8242H28.8452L28.7852 28.7642V27.8842L28.8452 27.8242H30.7252L30.7852 27.8842L30.8452 27.8242L30.7852 27.7642V23.8842L30.8452 23.8242L30.7852 23.7642L30.7252 23.8242H29.3452L29.2852 23.7642V22.8842L29.3452 22.8242H30.7252L30.7852 22.8842L30.8452 22.8242L30.7852 22.7642V21.8842L30.8452 21.8242H31.7252Z" fill="#F5F5F5"/>
<path d="M3.97052 10.9121L4.03052 10.9721V11.8521L3.97052 11.9121H1.09052L1.03052 11.8521V10.9721L1.09052 10.9121H3.97052ZM4.97052 11.9121L5.03052 11.9721V16.8521L4.97052 16.9121H4.09052L4.03052 16.8521V13.9721L4.09052 13.9121L4.03052 13.8521L3.97052 13.9121H3.09052L3.03052 13.8521V12.9721L3.09052 12.9121H3.97052L4.03052 12.9721L4.09052 12.9121L4.03052 12.8521V11.9721L4.09052 11.9121H4.97052ZM0.970518 11.9121L1.03052 11.9721V14.8521L0.970518 14.9121L1.03052 14.9721L1.09052 14.9121H1.97052L2.03052 14.9721V15.8521L1.97052 15.9121H1.09052L1.03052 15.8521L0.970518 15.9121L1.03052 15.9721V16.8521L0.970518 16.9121H0.0905176L0.0305176 16.8521V11.9721L0.0905176 11.9121H0.970518ZM2.97052 13.9121L3.03052 13.9721V14.8521L2.97052 14.9121H2.09052L2.03052 14.8521V13.9721L2.09052 13.9121H2.97052ZM3.97052 16.9121L4.03052 16.9721V17.8521L3.97052 17.9121H1.09052L1.03052 17.8521V16.9721L1.09052 16.9121H3.97052Z" fill="#F5F5F5"/>
<path d="M17.3477 10.9121L17.4077 10.9721V16.8521L17.3477 16.9121L17.4077 16.9721L17.4677 16.9121H19.3477L19.4077 16.9721V17.8521L19.3477 17.9121H14.4677L14.4077 17.8521V16.9721L14.4677 16.9121H16.3477L16.4077 16.9721L16.4677 16.9121L16.4077 16.8521V12.9721L16.4677 12.9121L16.4077 12.8521L16.3477 12.9121H14.9677L14.9077 12.8521V11.9721L14.9677 11.9121H16.3477L16.4077 11.9721L16.4677 11.9121L16.4077 11.8521V10.9721L16.4677 10.9121H17.3477Z" fill="#F5F5F5"/>
<path d="M32.7252 10.9121L32.7852 10.9721V11.8521L32.7252 11.9121H29.8452L29.7852 11.8521V10.9721L29.8452 10.9121H32.7252ZM33.7252 11.9121L33.7852 11.9721V16.8521L33.7252 16.9121H32.8452L32.7852 16.8521V13.9721L32.8452 13.9121L32.7852 13.8521L32.7252 13.9121H31.8452L31.7852 13.8521V12.9721L31.8452 12.9121H32.7252L32.7852 12.9721L32.8452 12.9121L32.7852 12.8521V11.9721L32.8452 11.9121H33.7252ZM29.7252 11.9121L29.7852 11.9721V14.8521L29.7252 14.9121L29.7852 14.9721L29.8452 14.9121H30.7252L30.7852 14.9721V15.8521L30.7252 15.9121H29.8452L29.7852 15.8521L29.7252 15.9121L29.7852 15.9721V16.8521L29.7252 16.9121H28.8452L28.7852 16.8521V11.9721L28.8452 11.9121H29.7252ZM31.7252 13.9121L31.7852 13.9721V14.8521L31.7252 14.9121H30.8452L30.7852 14.8521V13.9721L30.8452 13.9121H31.7252ZM32.7252 16.9121L32.7852 16.9721V17.8521L32.7252 17.9121H29.8452L29.7852 17.8521V16.9721L29.8452 16.9121H32.7252Z" fill="#F5F5F5"/>
<path d="M2.97052 0L3.03052 0.0600004V5.94L2.97052 6L3.03052 6.06L3.09052 6H4.97052L5.03052 6.06V6.94L4.97052 7H0.0905176L0.0305176 6.94V6.06L0.0905176 6H1.97052L2.03052 6.06L2.09052 6L2.03052 5.94V2.06L2.09052 2L2.03052 1.94L1.97052 2H0.590518L0.530518 1.94V1.06L0.590518 1H1.97052L2.03052 1.06L2.09052 1L2.03052 0.94V0.0600004L2.09052 0H2.97052Z" fill="#F5F5F5"/>
<path d="M17.3477 0L17.4077 0.0600004V5.94L17.3477 6L17.4077 6.06L17.4677 6H19.3477L19.4077 6.06V6.94L19.3477 7H14.4677L14.4077 6.94V6.06L14.4677 6H16.3477L16.4077 6.06L16.4677 6L16.4077 5.94V2.06L16.4677 2L16.4077 1.94L16.3477 2H14.9677L14.9077 1.94V1.06L14.9677 1H16.3477L16.4077 1.06L16.4677 1L16.4077 0.94V0.0600004L16.4677 0H17.3477Z" fill="#F5F5F5"/>
<path d="M31.7252 0L31.7852 0.0600004V5.94L31.7252 6L31.7852 6.06L31.8452 6H33.7252L33.7852 6.06V6.94L33.7252 7H28.8452L28.7852 6.94V6.06L28.8452 6H30.7252L30.7852 6.06L30.8452 6L30.7852 5.94V2.06L30.8452 2L30.7852 1.94L30.7252 2H29.3452L29.2852 1.94V1.06L29.3452 1H30.7252L30.7852 1.06L30.8452 1L30.7852 0.94V0.0600004L30.8452 0H31.7252Z" fill="#F5F5F5"/>
<path d="M26.7322 98.5393H46.7322V118.539H26.7322V98.5393Z" fill="#F5F5F5"/>
<path d="M26.7322 58.5393H46.7322V78.5393H26.7322V58.5393Z" fill="#F5F5F5"/>
<path d="M46.7322 58.5393H66.7322V78.5393H46.7322V58.5393Z" fill="#F5F5F5"/>
<path d="M6.73218 58.5393H26.7322V78.5393H6.73218V58.5393Z" fill="#F5F5F5"/>
<path d="M26.7322 78.5393H46.7322V98.5393H26.7322V78.5393Z" fill="#F5F5F5"/>
<path d="M46.7322 98.5393H66.7322V118.539H46.7322V98.5393Z" fill="#F5F5F5"/>
<path d="M6.73218 98.5393H26.7322V118.539H6.73218V98.5393Z" fill="#F5F5F5"/>
<path d="M91.6337 0L91.6937 0.0599998V9.94L91.6337 10H90.7537L90.6937 9.94V0.0599998L90.7537 0H91.6337Z" fill="#F5F5F5"/>
<path d="M91.6337 11L91.6937 11.06V20.94L91.6337 21H90.7537L90.6937 20.94V11.06L90.7537 11H91.6337Z" fill="#F5F5F5"/>
<path d="M91.6337 22L91.6937 22.06V31.94L91.6337 32H90.7537L90.6937 31.94V22.06L90.7537 22H91.6337Z" fill="#F5F5F5"/>
<path d="M91.6337 33L91.6937 33.06V42.94L91.6337 43H90.7537L90.6937 42.94V33.06L90.7537 33H91.6337Z" fill="#F5F5F5"/>
<path d="M91.6337 44L91.6937 44.06V53.94L91.6337 54H90.7537L90.6937 53.94V44.06L90.7537 44H91.6337Z" fill="#F5F5F5"/>
<path d="M91.6337 55L91.6937 55.06V64.94L91.6337 65H90.7537L90.6937 64.94V55.06L90.7537 55H91.6337Z" fill="#F5F5F5"/>
<path d="M91.6337 66L91.6937 66.06V75.94L91.6337 76H90.7537L90.6937 75.94V66.06L90.7537 66H91.6337Z" fill="#F5F5F5"/>
<path d="M91.6337 77L91.6937 77.06V86.94L91.6337 87H90.7537L90.6937 86.94V77.06L90.7537 77H91.6337Z" fill="#F5F5F5"/>
<path d="M91.6337 88L91.6937 88.06V97.94L91.6337 98H90.7537L90.6937 97.94V88.06L90.7537 88H91.6337Z" fill="#F5F5F5"/>
<path d="M91.6337 99L91.6937 99.06V108.94L91.6337 109H90.7537L90.6937 108.94V99.06L90.7537 99H91.6337Z" fill="#F5F5F5"/>
<path d="M91.6337 110L91.6937 110.06V119.94L91.6337 120H90.7537L90.6937 119.94V110.06L90.7537 110H91.6337Z" fill="#F5F5F5"/>
</svg>
