<svg width="93" height="120" viewBox="0 0 93 120" fill="none" xmlns="http://www.w3.org/2000/svg">
<path d="M3.90838 21.8242L3.96838 21.8842V27.7642L3.90838 27.8242L3.96838 27.8842L4.02838 27.8242H5.90838L5.96838 27.8842V28.7642L5.90838 28.8242H1.02838L0.968384 28.7642V27.8842L1.02838 27.8242H2.90838L2.96838 27.8842L3.02838 27.8242L2.96838 27.7642V23.8842L3.02838 23.8242L2.96838 23.7642L2.90838 23.8242H1.52838L1.46838 23.7642V22.8842L1.52838 22.8242H2.90838L2.96838 22.8842L3.02838 22.8242L2.96838 22.7642V21.8842L3.02838 21.8242H3.90838Z" fill="#F5F5F5"/>
<path d="M19.2856 21.8242L19.3456 21.8842V22.7642L19.2856 22.8242H16.4056L16.3456 22.7642V21.8842L16.4056 21.8242H19.2856ZM20.2856 22.8242L20.3456 22.8842V27.7642L20.2856 27.8242H19.4056L19.3456 27.7642V24.8842L19.4056 24.8242L19.3456 24.7642L19.2856 24.8242H18.4056L18.3456 24.7642V23.8842L18.4056 23.8242H19.2856L19.3456 23.8842L19.4056 23.8242L19.3456 23.7642V22.8842L19.4056 22.8242H20.2856ZM16.2856 22.8242L16.3456 22.8842V25.7642L16.2856 25.8242L16.3456 25.8842L16.4056 25.8242H17.2856L17.3456 25.8842V26.7642L17.2856 26.8242H16.4056L16.3456 26.7642L16.2856 26.8242L16.3456 26.8842V27.7642L16.2856 27.8242H15.4056L15.3456 27.7642V22.8842L15.4056 22.8242H16.2856ZM18.2856 24.8242L18.3456 24.8842V25.7642L18.2856 25.8242H17.4056L17.3456 25.7642V24.8842L17.4056 24.8242H18.2856ZM19.2856 27.8242L19.3456 27.8842V28.7642L19.2856 28.8242H16.4056L16.3456 28.7642V27.8842L16.4056 27.8242H19.2856Z" fill="#F5F5F5"/>
<path d="M77.4875 12.2L77.6315 12.344V16.856L77.4875 17H75.3755L75.2315 16.856V12.344L75.3755 12.2H77.4875ZM67.8875 12.2L68.0315 12.344V16.856L67.8875 17H65.7755L65.6315 16.856V12.344L65.7755 12.2H67.8875ZM75.0875 17L75.2315 17.144V19.256L75.0875 19.4H72.9755L72.8315 19.256V17.144L72.9755 17H75.0875ZM70.2875 17L70.4315 17.144V19.256L70.2875 19.4H68.1755L68.0315 19.256V17.144L68.1755 17H70.2875ZM72.6875 19.4L72.8315 19.544V21.656L72.6875 21.8H70.5755L70.4315 21.656V19.544L70.5755 19.4H72.6875ZM75.0875 21.8L75.2315 21.944V24.056L75.0875 24.2H72.9755L72.8315 24.056V21.944L72.9755 21.8H75.0875ZM70.2875 21.8L70.4315 21.944V24.056L70.2875 24.2H68.1755L68.0315 24.056V21.944L68.1755 21.8H70.2875ZM77.4875 24.2L77.6315 24.344V28.856L77.4875 29H75.3755L75.2315 28.856V24.344L75.3755 24.2H77.4875ZM67.8875 24.2L68.0315 24.344V28.856L67.8875 29H65.7755L65.6315 28.856V24.344L65.7755 24.2H67.8875Z" fill="#F5F5F5"/>
<path d="M32.663 21.8242L32.723 21.8842V27.7642L32.663 27.8242L32.723 27.8842L32.783 27.8242H34.663L34.723 27.8842V28.7642L34.663 28.8242H29.783L29.723 28.7642V27.8842L29.783 27.8242H31.663L31.723 27.8842L31.783 27.8242L31.723 27.7642V23.8842L31.783 23.8242L31.723 23.7642L31.663 23.8242H30.283L30.223 23.7642V22.8842L30.283 22.8242H31.663L31.723 22.8842L31.783 22.8242L31.723 22.7642V21.8842L31.783 21.8242H32.663Z" fill="#F5F5F5"/>
<path d="M4.90838 10.9121L4.96838 10.9721V11.8521L4.90838 11.9121H2.02838L1.96838 11.8521V10.9721L2.02838 10.9121H4.90838ZM5.90838 11.9121L5.96838 11.9721V16.8521L5.90838 16.9121H5.02838L4.96838 16.8521V13.9721L5.02838 13.9121L4.96838 13.8521L4.90838 13.9121H4.02838L3.96838 13.8521V12.9721L4.02838 12.9121H4.90838L4.96838 12.9721L5.02838 12.9121L4.96838 12.8521V11.9721L5.02838 11.9121H5.90838ZM1.90838 11.9121L1.96838 11.9721V14.8521L1.90838 14.9121L1.96838 14.9721L2.02838 14.9121H2.90838L2.96838 14.9721V15.8521L2.90838 15.9121H2.02838L1.96838 15.8521L1.90838 15.9121L1.96838 15.9721V16.8521L1.90838 16.9121H1.02838L0.968384 16.8521V11.9721L1.02838 11.9121H1.90838ZM3.90838 13.9121L3.96838 13.9721V14.8521L3.90838 14.9121H3.02838L2.96838 14.8521V13.9721L3.02838 13.9121H3.90838ZM4.90838 16.9121L4.96838 16.9721V17.8521L4.90838 17.9121H2.02838L1.96838 17.8521V16.9721L2.02838 16.9121H4.90838Z" fill="#F5F5F5"/>
<path d="M19.2856 10.9121L19.3456 10.9721V11.8521L19.2856 11.9121H16.4056L16.3456 11.8521V10.9721L16.4056 10.9121H19.2856ZM20.2856 11.9121L20.3456 11.9721V16.8521L20.2856 16.9121H19.4056L19.3456 16.8521V13.9721L19.4056 13.9121L19.3456 13.8521L19.2856 13.9121H18.4056L18.3456 13.8521V12.9721L18.4056 12.9121H19.2856L19.3456 12.9721L19.4056 12.9121L19.3456 12.8521V11.9721L19.4056 11.9121H20.2856ZM16.2856 11.9121L16.3456 11.9721V14.8521L16.2856 14.9121L16.3456 14.9721L16.4056 14.9121H17.2856L17.3456 14.9721V15.8521L17.2856 15.9121H16.4056L16.3456 15.8521L16.2856 15.9121L16.3456 15.9721V16.8521L16.2856 16.9121H15.4056L15.3456 16.8521V11.9721L15.4056 11.9121H16.2856ZM18.2856 13.9121L18.3456 13.9721V14.8521L18.2856 14.9121H17.4056L17.3456 14.8521V13.9721L17.4056 13.9121H18.2856ZM19.2856 16.9121L19.3456 16.9721V17.8521L19.2856 17.9121H16.4056L16.3456 17.8521V16.9721L16.4056 16.9121H19.2856Z" fill="#F5F5F5"/>
<path d="M32.663 10.9121L32.723 10.9721V16.8521L32.663 16.9121L32.723 16.9721L32.783 16.9121H34.663L34.723 16.9721V17.8521L34.663 17.9121H29.783L29.723 17.8521V16.9721L29.783 16.9121H31.663L31.723 16.9721L31.783 16.9121L31.723 16.8521V12.9721L31.783 12.9121L31.723 12.8521L31.663 12.9121H30.283L30.223 12.8521V11.9721L30.283 11.9121H31.663L31.723 11.9721L31.783 11.9121L31.723 11.8521V10.9721L31.783 10.9121H32.663Z" fill="#F5F5F5"/>
<path d="M4.90838 0L4.96838 0.0600004V0.94L4.90838 1H2.02838L1.96838 0.94V0.0600004L2.02838 0H4.90838ZM5.90838 1L5.96838 1.06V5.94L5.90838 6H5.02838L4.96838 5.94V3.06L5.02838 3L4.96838 2.94L4.90838 3H4.02838L3.96838 2.94V2.06L4.02838 2H4.90838L4.96838 2.06L5.02838 2L4.96838 1.94V1.06L5.02838 1H5.90838ZM1.90838 1L1.96838 1.06V3.94L1.90838 4L1.96838 4.06L2.02838 4H2.90838L2.96838 4.06V4.94L2.90838 5H2.02838L1.96838 4.94L1.90838 5L1.96838 5.06V5.94L1.90838 6H1.02838L0.968384 5.94V1.06L1.02838 1H1.90838ZM3.90838 3L3.96838 3.06V3.94L3.90838 4H3.02838L2.96838 3.94V3.06L3.02838 3H3.90838ZM4.90838 6L4.96838 6.06V6.94L4.90838 7H2.02838L1.96838 6.94V6.06L2.02838 6H4.90838Z" fill="#F5F5F5"/>
<path d="M19.2856 0L19.3456 0.0600004V0.94L19.2856 1H16.4056L16.3456 0.94V0.0600004L16.4056 0H19.2856ZM20.2856 1L20.3456 1.06V5.94L20.2856 6H19.4056L19.3456 5.94V3.06L19.4056 3L19.3456 2.94L19.2856 3H18.4056L18.3456 2.94V2.06L18.4056 2H19.2856L19.3456 2.06L19.4056 2L19.3456 1.94V1.06L19.4056 1H20.2856ZM16.2856 1L16.3456 1.06V3.94L16.2856 4L16.3456 4.06L16.4056 4H17.2856L17.3456 4.06V4.94L17.2856 5H16.4056L16.3456 4.94L16.2856 5L16.3456 5.06V5.94L16.2856 6H15.4056L15.3456 5.94V1.06L15.4056 1H16.2856ZM18.2856 3L18.3456 3.06V3.94L18.2856 4H17.4056L17.3456 3.94V3.06L17.4056 3H18.2856ZM19.2856 6L19.3456 6.06V6.94L19.2856 7H16.4056L16.3456 6.94V6.06L16.4056 6H19.2856Z" fill="#F5F5F5"/>
<path d="M33.663 0L33.723 0.0600004V0.94L33.663 1H30.783L30.723 0.94V0.0600004L30.783 0H33.663ZM34.663 1L34.723 1.06V5.94L34.663 6H33.783L33.723 5.94V3.06L33.783 3L33.723 2.94L33.663 3H32.783L32.723 2.94V2.06L32.783 2H33.663L33.723 2.06L33.783 2L33.723 1.94V1.06L33.783 1H34.663ZM30.663 1L30.723 1.06V3.94L30.663 4L30.723 4.06L30.783 4H31.663L31.723 4.06V4.94L31.663 5H30.783L30.723 4.94L30.663 5L30.723 5.06V5.94L30.663 6H29.783L29.723 5.94V1.06L29.783 1H30.663ZM32.663 3L32.723 3.06V3.94L32.663 4H31.783L31.723 3.94V3.06L31.783 3H32.663ZM33.663 6L33.723 6.06V6.94L33.663 7H30.783L30.723 6.94V6.06L30.783 6H33.663Z" fill="#F5F5F5"/>
<path d="M47.67 78.5393H67.67V98.5393H47.67V78.5393Z" fill="#F5F5F5"/>
<path d="M47.67 98.5393H67.67V118.539H47.67V98.5393Z" fill="#F5F5F5"/>
<path d="M7.67004 98.5393H27.67V118.539H7.67004V98.5393Z" fill="#F5F5F5"/>
<path d="M92.5716 0L92.6316 0.0599998V9.94L92.5716 10H91.6916L91.6316 9.94V0.0599998L91.6916 0H92.5716Z" fill="#F5F5F5"/>
<path d="M92.5716 11L92.6316 11.06V20.94L92.5716 21H91.6916L91.6316 20.94V11.06L91.6916 11H92.5716Z" fill="#F5F5F5"/>
<path d="M92.5716 22L92.6316 22.06V31.94L92.5716 32H91.6916L91.6316 31.94V22.06L91.6916 22H92.5716Z" fill="#F5F5F5"/>
<path d="M92.5716 33L92.6316 33.06V42.94L92.5716 43H91.6916L91.6316 42.94V33.06L91.6916 33H92.5716Z" fill="#F5F5F5"/>
<path d="M92.5716 44L92.6316 44.06V53.94L92.5716 54H91.6916L91.6316 53.94V44.06L91.6916 44H92.5716Z" fill="#F5F5F5"/>
<path d="M92.5716 55L92.6316 55.06V64.94L92.5716 65H91.6916L91.6316 64.94V55.06L91.6916 55H92.5716Z" fill="#F5F5F5"/>
<path d="M92.5716 66L92.6316 66.06V75.94L92.5716 76H91.6916L91.6316 75.94V66.06L91.6916 66H92.5716Z" fill="#F5F5F5"/>
<path d="M92.5716 77L92.6316 77.06V86.94L92.5716 87H91.6916L91.6316 86.94V77.06L91.6916 77H92.5716Z" fill="#F5F5F5"/>
<path d="M92.5716 88L92.6316 88.06V97.94L92.5716 98H91.6916L91.6316 97.94V88.06L91.6916 88H92.5716Z" fill="#F5F5F5"/>
<path d="M92.5716 99L92.6316 99.06V108.94L92.5716 109H91.6916L91.6316 108.94V99.06L91.6916 99H92.5716Z" fill="#F5F5F5"/>
<path d="M92.5716 110L92.6316 110.06V119.94L92.5716 120H91.6916L91.6316 119.94V110.06L91.6916 110H92.5716Z" fill="#F5F5F5"/>
</svg>
