<svg width="93" height="120" viewBox="0 0 93 120" fill="none" xmlns="http://www.w3.org/2000/svg">
<path d="M4.91894 21.8242L4.97894 21.8842V22.7642L4.91894 22.8242H2.03894L1.97894 22.7642V21.8842L2.03894 21.8242H4.91894ZM5.91894 22.8242L5.97894 22.8842V27.7642L5.91894 27.8242H5.03894L4.97894 27.7642V24.8842L5.03894 24.8242L4.97894 24.7642L4.91894 24.8242H4.03894L3.97894 24.7642V23.8842L4.03894 23.8242H4.91894L4.97894 23.8842L5.03894 23.8242L4.97894 23.7642V22.8842L5.03894 22.8242H5.91894ZM1.91894 22.8242L1.97894 22.8842V25.7642L1.91894 25.8242L1.97894 25.8842L2.03894 25.8242H2.91894L2.97894 25.8842V26.7642L2.91894 26.8242H2.03894L1.97894 26.7642L1.91894 26.8242L1.97894 26.8842V27.7642L1.91894 27.8242H1.03894L0.978943 27.7642V22.8842L1.03894 22.8242H1.91894ZM3.91894 24.8242L3.97894 24.8842V25.7642L3.91894 25.8242H3.03894L2.97894 25.7642V24.8842L3.03894 24.8242H3.91894ZM4.91894 27.8242L4.97894 27.8842V28.7642L4.91894 28.8242H2.03894L1.97894 28.7642V27.8842L2.03894 27.8242H4.91894Z" fill="#F5F5F5"/>
<path d="M19.2961 21.8242L19.3561 21.8842V22.7642L19.2961 22.8242H16.4161L16.3561 22.7642V21.8842L16.4161 21.8242H19.2961ZM20.2961 22.8242L20.3561 22.8842V27.7642L20.2961 27.8242H19.4161L19.3561 27.7642V24.8842L19.4161 24.8242L19.3561 24.7642L19.2961 24.8242H18.4161L18.3561 24.7642V23.8842L18.4161 23.8242H19.2961L19.3561 23.8842L19.4161 23.8242L19.3561 23.7642V22.8842L19.4161 22.8242H20.2961ZM16.2961 22.8242L16.3561 22.8842V25.7642L16.2961 25.8242L16.3561 25.8842L16.4161 25.8242H17.2961L17.3561 25.8842V26.7642L17.2961 26.8242H16.4161L16.3561 26.7642L16.2961 26.8242L16.3561 26.8842V27.7642L16.2961 27.8242H15.4161L15.3561 27.7642V22.8842L15.4161 22.8242H16.2961ZM18.2961 24.8242L18.3561 24.8842V25.7642L18.2961 25.8242H17.4161L17.3561 25.7642V24.8842L17.4161 24.8242H18.2961ZM19.2961 27.8242L19.3561 27.8842V28.7642L19.2961 28.8242H16.4161L16.3561 28.7642V27.8842L16.4161 27.8242H19.2961Z" fill="#F5F5F5"/>
<path d="M76.2981 12.2L76.4421 12.344V14.456L76.2981 14.6H72.9861L72.8421 14.456L72.6981 14.6L72.8421 14.744V26.456L72.6981 26.6L72.8421 26.744L72.9861 26.6H77.4981L77.6421 26.744V28.856L77.4981 29H65.7861L65.6421 28.856V26.744L65.7861 26.6H70.2981L70.4421 26.744L70.5861 26.6L70.4421 26.456V14.744L70.5861 14.6L70.4421 14.456L70.2981 14.6H66.9861L66.8421 14.456V12.344L66.9861 12.2H76.2981Z" fill="#F5F5F5"/>
<path d="M33.6736 21.8242L33.7336 21.8842V22.7642L33.6736 22.8242H30.7936L30.7336 22.7642V21.8842L30.7936 21.8242H33.6736ZM34.6736 22.8242L34.7336 22.8842V27.7642L34.6736 27.8242H33.7936L33.7336 27.7642V24.8842L33.7936 24.8242L33.7336 24.7642L33.6736 24.8242H32.7936L32.7336 24.7642V23.8842L32.7936 23.8242H33.6736L33.7336 23.8842L33.7936 23.8242L33.7336 23.7642V22.8842L33.7936 22.8242H34.6736ZM30.6736 22.8242L30.7336 22.8842V25.7642L30.6736 25.8242L30.7336 25.8842L30.7936 25.8242H31.6736L31.7336 25.8842V26.7642L31.6736 26.8242H30.7936L30.7336 26.7642L30.6736 26.8242L30.7336 26.8842V27.7642L30.6736 27.8242H29.7936L29.7336 27.7642V22.8842L29.7936 22.8242H30.6736ZM32.6736 24.8242L32.7336 24.8842V25.7642L32.6736 25.8242H31.7936L31.7336 25.7642V24.8842L31.7936 24.8242H32.6736ZM33.6736 27.8242L33.7336 27.8842V28.7642L33.6736 28.8242H30.7936L30.7336 28.7642V27.8842L30.7936 27.8242H33.6736Z" fill="#F5F5F5"/>
<path d="M4.91894 10.9121L4.97894 10.9721V11.8521L4.91894 11.9121H2.03894L1.97894 11.8521V10.9721L2.03894 10.9121H4.91894ZM5.91894 11.9121L5.97894 11.9721V16.8521L5.91894 16.9121H5.03894L4.97894 16.8521V13.9721L5.03894 13.9121L4.97894 13.8521L4.91894 13.9121H4.03894L3.97894 13.8521V12.9721L4.03894 12.9121H4.91894L4.97894 12.9721L5.03894 12.9121L4.97894 12.8521V11.9721L5.03894 11.9121H5.91894ZM1.91894 11.9121L1.97894 11.9721V14.8521L1.91894 14.9121L1.97894 14.9721L2.03894 14.9121H2.91894L2.97894 14.9721V15.8521L2.91894 15.9121H2.03894L1.97894 15.8521L1.91894 15.9121L1.97894 15.9721V16.8521L1.91894 16.9121H1.03894L0.978943 16.8521V11.9721L1.03894 11.9121H1.91894ZM3.91894 13.9121L3.97894 13.9721V14.8521L3.91894 14.9121H3.03894L2.97894 14.8521V13.9721L3.03894 13.9121H3.91894ZM4.91894 16.9121L4.97894 16.9721V17.8521L4.91894 17.9121H2.03894L1.97894 17.8521V16.9721L2.03894 16.9121H4.91894Z" fill="#F5F5F5"/>
<path d="M19.2961 10.9121L19.3561 10.9721V11.8521L19.2961 11.9121H16.4161L16.3561 11.8521V10.9721L16.4161 10.9121H19.2961ZM20.2961 11.9121L20.3561 11.9721V16.8521L20.2961 16.9121H19.4161L19.3561 16.8521V13.9721L19.4161 13.9121L19.3561 13.8521L19.2961 13.9121H18.4161L18.3561 13.8521V12.9721L18.4161 12.9121H19.2961L19.3561 12.9721L19.4161 12.9121L19.3561 12.8521V11.9721L19.4161 11.9121H20.2961ZM16.2961 11.9121L16.3561 11.9721V14.8521L16.2961 14.9121L16.3561 14.9721L16.4161 14.9121H17.2961L17.3561 14.9721V15.8521L17.2961 15.9121H16.4161L16.3561 15.8521L16.2961 15.9121L16.3561 15.9721V16.8521L16.2961 16.9121H15.4161L15.3561 16.8521V11.9721L15.4161 11.9121H16.2961ZM18.2961 13.9121L18.3561 13.9721V14.8521L18.2961 14.9121H17.4161L17.3561 14.8521V13.9721L17.4161 13.9121H18.2961ZM19.2961 16.9121L19.3561 16.9721V17.8521L19.2961 17.9121H16.4161L16.3561 17.8521V16.9721L16.4161 16.9121H19.2961Z" fill="#F5F5F5"/>
<path d="M33.6736 10.9121L33.7336 10.9721V11.8521L33.6736 11.9121H30.7936L30.7336 11.8521V10.9721L30.7936 10.9121H33.6736ZM34.6736 11.9121L34.7336 11.9721V16.8521L34.6736 16.9121H33.7936L33.7336 16.8521V13.9721L33.7936 13.9121L33.7336 13.8521L33.6736 13.9121H32.7936L32.7336 13.8521V12.9721L32.7936 12.9121H33.6736L33.7336 12.9721L33.7936 12.9121L33.7336 12.8521V11.9721L33.7936 11.9121H34.6736ZM30.6736 11.9121L30.7336 11.9721V14.8521L30.6736 14.9121L30.7336 14.9721L30.7936 14.9121H31.6736L31.7336 14.9721V15.8521L31.6736 15.9121H30.7936L30.7336 15.8521L30.6736 15.9121L30.7336 15.9721V16.8521L30.6736 16.9121H29.7936L29.7336 16.8521V11.9721L29.7936 11.9121H30.6736ZM32.6736 13.9121L32.7336 13.9721V14.8521L32.6736 14.9121H31.7936L31.7336 14.8521V13.9721L31.7936 13.9121H32.6736ZM33.6736 16.9121L33.7336 16.9721V17.8521L33.6736 17.9121H30.7936L30.7336 17.8521V16.9721L30.7936 16.9121H33.6736Z" fill="#F5F5F5"/>
<path d="M4.91894 0L4.97894 0.0600004V0.94L4.91894 1H2.03894L1.97894 0.94V0.0600004L2.03894 0H4.91894ZM5.91894 1L5.97894 1.06V5.94L5.91894 6H5.03894L4.97894 5.94V3.06L5.03894 3L4.97894 2.94L4.91894 3H4.03894L3.97894 2.94V2.06L4.03894 2H4.91894L4.97894 2.06L5.03894 2L4.97894 1.94V1.06L5.03894 1H5.91894ZM1.91894 1L1.97894 1.06V3.94L1.91894 4L1.97894 4.06L2.03894 4H2.91894L2.97894 4.06V4.94L2.91894 5H2.03894L1.97894 4.94L1.91894 5L1.97894 5.06V5.94L1.91894 6H1.03894L0.978943 5.94V1.06L1.03894 1H1.91894ZM3.91894 3L3.97894 3.06V3.94L3.91894 4H3.03894L2.97894 3.94V3.06L3.03894 3H3.91894ZM4.91894 6L4.97894 6.06V6.94L4.91894 7H2.03894L1.97894 6.94V6.06L2.03894 6H4.91894Z" fill="#F5F5F5"/>
<path d="M18.2961 0L18.3561 0.0600004V5.94L18.2961 6L18.3561 6.06L18.4161 6H20.2961L20.3561 6.06V6.94L20.2961 7H15.4161L15.3561 6.94V6.06L15.4161 6H17.2961L17.3561 6.06L17.4161 6L17.3561 5.94V2.06L17.4161 2L17.3561 1.94L17.2961 2H15.9161L15.8561 1.94V1.06L15.9161 1H17.2961L17.3561 1.06L17.4161 1L17.3561 0.94V0.0600004L17.4161 0H18.2961Z" fill="#F5F5F5"/>
<path d="M33.6736 0L33.7336 0.0600004V0.94L33.6736 1H30.7936L30.7336 0.94V0.0600004L30.7936 0H33.6736ZM34.6736 1L34.7336 1.06V5.94L34.6736 6H33.7936L33.7336 5.94V3.06L33.7936 3L33.7336 2.94L33.6736 3H32.7936L32.7336 2.94V2.06L32.7936 2H33.6736L33.7336 2.06L33.7936 2L33.7336 1.94V1.06L33.7936 1H34.6736ZM30.6736 1L30.7336 1.06V3.94L30.6736 4L30.7336 4.06L30.7936 4H31.6736L31.7336 4.06V4.94L31.6736 5H30.7936L30.7336 4.94L30.6736 5L30.7336 5.06V5.94L30.6736 6H29.7936L29.7336 5.94V1.06L29.7936 1H30.6736ZM32.6736 3L32.7336 3.06V3.94L32.6736 4H31.7936L31.7336 3.94V3.06L31.7936 3H32.6736ZM33.6736 6L33.7336 6.06V6.94L33.6736 7H30.7936L30.7336 6.94V6.06L30.7936 6H33.6736Z" fill="#F5F5F5"/>
<path d="M27.6823 47.5393H47.6823V67.5393H27.6823V47.5393Z" fill="#F5F5F5"/>
<path d="M92.5821 0L92.6421 0.0599998V9.94L92.5821 10H91.7021L91.6421 9.94V0.0599998L91.7021 0H92.5821Z" fill="#F5F5F5"/>
<path d="M92.5821 11L92.6421 11.06V20.94L92.5821 21H91.7021L91.6421 20.94V11.06L91.7021 11H92.5821Z" fill="#F5F5F5"/>
<path d="M92.5821 22L92.6421 22.06V31.94L92.5821 32H91.7021L91.6421 31.94V22.06L91.7021 22H92.5821Z" fill="#F5F5F5"/>
<path d="M92.5821 33L92.6421 33.06V42.94L92.5821 43H91.7021L91.6421 42.94V33.06L91.7021 33H92.5821Z" fill="#F5F5F5"/>
<path d="M92.5821 44L92.6421 44.06V53.94L92.5821 54H91.7021L91.6421 53.94V44.06L91.7021 44H92.5821Z" fill="#F5F5F5"/>
<path d="M92.5821 55L92.6421 55.06V64.94L92.5821 65H91.7021L91.6421 64.94V55.06L91.7021 55H92.5821Z" fill="#F5F5F5"/>
<path d="M92.5821 66L92.6421 66.06V75.94L92.5821 76H91.7021L91.6421 75.94V66.06L91.7021 66H92.5821Z" fill="#F5F5F5"/>
<path d="M92.5821 77L92.6421 77.06V86.94L92.5821 87H91.7021L91.6421 86.94V77.06L91.7021 77H92.5821Z" fill="#F5F5F5"/>
<path d="M92.5821 88L92.6421 88.06V97.94L92.5821 98H91.7021L91.6421 97.94V88.06L91.7021 88H92.5821Z" fill="#F5F5F5"/>
<path d="M92.5821 99L92.6421 99.06V108.94L92.5821 109H91.7021L91.6421 108.94V99.06L91.7021 99H92.5821Z" fill="#F5F5F5"/>
<path d="M92.5821 110L92.6421 110.06V119.94L92.5821 120H91.7021L91.6421 119.94V110.06L91.7021 110H92.5821Z" fill="#F5F5F5"/>
</svg>
