<svg width="93" height="120" viewBox="0 0 93 120" fill="none" xmlns="http://www.w3.org/2000/svg">
<path d="M3.94 21.8242L4 21.8842V22.7642L3.94 22.8242H1.06L1 22.7642V21.8842L1.06 21.8242H3.94ZM4.94 22.8242L5 22.8842V27.7642L4.94 27.8242H4.06L4 27.7642V24.8842L4.06 24.8242L4 24.7642L3.94 24.8242H3.06L3 24.7642V23.8842L3.06 23.8242H3.94L4 23.8842L4.06 23.8242L4 23.7642V22.8842L4.06 22.8242H4.94ZM0.94 22.8242L1 22.8842V25.7642L0.94 25.8242L1 25.8842L1.06 25.8242H1.94L2 25.8842V26.7642L1.94 26.8242H1.06L1 26.7642L0.94 26.8242L1 26.8842V27.7642L0.94 27.8242H0.06L0 27.7642V22.8842L0.06 22.8242H0.94ZM2.94 24.8242L3 24.8842V25.7642L2.94 25.8242H2.06L2 25.7642V24.8842L2.06 24.8242H2.94ZM3.94 27.8242L4 27.8842V28.7642L3.94 28.8242H1.06L1 28.7642V27.8842L1.06 27.8242H3.94Z" fill="#F5F5F5"/>
<path d="M18.3172 21.8242L18.3772 21.8842V22.7642L18.3172 22.8242H15.4372L15.3772 22.7642V21.8842L15.4372 21.8242H18.3172ZM19.3172 22.8242L19.3772 22.8842V27.7642L19.3172 27.8242H18.4372L18.3772 27.7642V24.8842L18.4372 24.8242L18.3772 24.7642L18.3172 24.8242H17.4372L17.3772 24.7642V23.8842L17.4372 23.8242H18.3172L18.3772 23.8842L18.4372 23.8242L18.3772 23.7642V22.8842L18.4372 22.8242H19.3172ZM15.3172 22.8242L15.3772 22.8842V25.7642L15.3172 25.8242L15.3772 25.8842L15.4372 25.8242H16.3172L16.3772 25.8842V26.7642L16.3172 26.8242H15.4372L15.3772 26.7642L15.3172 26.8242L15.3772 26.8842V27.7642L15.3172 27.8242H14.4372L14.3772 27.7642V22.8842L14.4372 22.8242H15.3172ZM17.3172 24.8242L17.3772 24.8842V25.7642L17.3172 25.8242H16.4372L16.3772 25.7642V24.8842L16.4372 24.8242H17.3172ZM18.3172 27.8242L18.3772 27.8842V28.7642L18.3172 28.8242H15.4372L15.3772 28.7642V27.8842L15.4372 27.8242H18.3172Z" fill="#F5F5F5"/>
<path d="M74.5076 12.0242L74.6516 12.1682V14.2802L74.5076 14.4242H67.5956L67.4516 14.2802V12.1682L67.5956 12.0242H74.5076ZM76.9076 14.4242L77.0516 14.5682V26.2803L76.9076 26.4242H74.7956L74.6516 26.2803V19.3682L74.7956 19.2242L74.6516 19.0802L74.5076 19.2242H72.3956L72.2516 19.0802V16.9683L72.3956 16.8242H74.5076L74.6516 16.9683L74.7956 16.8242L74.6516 16.6802V14.5682L74.7956 14.4242H76.9076ZM67.3076 14.4242L67.4516 14.5682V21.4802L67.3076 21.6242L67.4516 21.7682L67.5956 21.6242H69.7076L69.8516 21.7682V23.8802L69.7076 24.0243H67.5956L67.4516 23.8802L67.3076 24.0243L67.4516 24.1682V26.2803L67.3076 26.4242H65.1956L65.0516 26.2803V14.5682L65.1956 14.4242H67.3076ZM72.1076 19.2242L72.2516 19.3682V21.4802L72.1076 21.6242H69.9956L69.8516 21.4802V19.3682L69.9956 19.2242H72.1076ZM74.5076 26.4242L74.6516 26.5682V28.6803L74.5076 28.8242H67.5956L67.4516 28.6803V26.5682L67.5956 26.4242H74.5076Z" fill="#F5F5F5"/>
<path d="M32.6946 21.8242L32.7546 21.8842V22.7642L32.6946 22.8242H29.8146L29.7546 22.7642V21.8842L29.8146 21.8242H32.6946ZM33.6946 22.8242L33.7546 22.8842V27.7642L33.6946 27.8242H32.8146L32.7546 27.7642V24.8842L32.8146 24.8242L32.7546 24.7642L32.6946 24.8242H31.8146L31.7546 24.7642V23.8842L31.8146 23.8242H32.6946L32.7546 23.8842L32.8146 23.8242L32.7546 23.7642V22.8842L32.8146 22.8242H33.6946ZM29.6946 22.8242L29.7546 22.8842V25.7642L29.6946 25.8242L29.7546 25.8842L29.8146 25.8242H30.6946L30.7546 25.8842V26.7642L30.6946 26.8242H29.8146L29.7546 26.7642L29.6946 26.8242L29.7546 26.8842V27.7642L29.6946 27.8242H28.8146L28.7546 27.7642V22.8842L28.8146 22.8242H29.6946ZM31.6946 24.8242L31.7546 24.8842V25.7642L31.6946 25.8242H30.8146L30.7546 25.7642V24.8842L30.8146 24.8242H31.6946ZM32.6946 27.8242L32.7546 27.8842V28.7642L32.6946 28.8242H29.8146L29.7546 28.7642V27.8842L29.8146 27.8242H32.6946Z" fill="#F5F5F5"/>
<path d="M3.94 10.9121L4 10.9721V11.8521L3.94 11.9121H1.06L1 11.8521V10.9721L1.06 10.9121H3.94ZM4.94 11.9121L5 11.9721V16.8521L4.94 16.9121H4.06L4 16.8521V13.9721L4.06 13.9121L4 13.8521L3.94 13.9121H3.06L3 13.8521V12.9721L3.06 12.9121H3.94L4 12.9721L4.06 12.9121L4 12.8521V11.9721L4.06 11.9121H4.94ZM0.94 11.9121L1 11.9721V14.8521L0.94 14.9121L1 14.9721L1.06 14.9121H1.94L2 14.9721V15.8521L1.94 15.9121H1.06L1 15.8521L0.94 15.9121L1 15.9721V16.8521L0.94 16.9121H0.06L0 16.8521V11.9721L0.06 11.9121H0.94ZM2.94 13.9121L3 13.9721V14.8521L2.94 14.9121H2.06L2 14.8521V13.9721L2.06 13.9121H2.94ZM3.94 16.9121L4 16.9721V17.8521L3.94 17.9121H1.06L1 17.8521V16.9721L1.06 16.9121H3.94Z" fill="#F5F5F5"/>
<path d="M17.3172 10.9121L17.3772 10.9721V16.8521L17.3172 16.9121L17.3772 16.9721L17.4372 16.9121H19.3172L19.3772 16.9721V17.8521L19.3172 17.9121H14.4372L14.3772 17.8521V16.9721L14.4372 16.9121H16.3172L16.3772 16.9721L16.4372 16.9121L16.3772 16.8521V12.9721L16.4372 12.9121L16.3772 12.8521L16.3172 12.9121H14.9372L14.8772 12.8521V11.9721L14.9372 11.9121H16.3172L16.3772 11.9721L16.4372 11.9121L16.3772 11.8521V10.9721L16.4372 10.9121H17.3172Z" fill="#F5F5F5"/>
<path d="M32.6946 10.9121L32.7546 10.9721V11.8521L32.6946 11.9121H29.8146L29.7546 11.8521V10.9721L29.8146 10.9121H32.6946ZM33.6946 11.9121L33.7546 11.9721V16.8521L33.6946 16.9121H32.8146L32.7546 16.8521V13.9721L32.8146 13.9121L32.7546 13.8521L32.6946 13.9121H31.8146L31.7546 13.8521V12.9721L31.8146 12.9121H32.6946L32.7546 12.9721L32.8146 12.9121L32.7546 12.8521V11.9721L32.8146 11.9121H33.6946ZM29.6946 11.9121L29.7546 11.9721V14.8521L29.6946 14.9121L29.7546 14.9721L29.8146 14.9121H30.6946L30.7546 14.9721V15.8521L30.6946 15.9121H29.8146L29.7546 15.8521L29.6946 15.9121L29.7546 15.9721V16.8521L29.6946 16.9121H28.8146L28.7546 16.8521V11.9721L28.8146 11.9121H29.6946ZM31.6946 13.9121L31.7546 13.9721V14.8521L31.6946 14.9121H30.8146L30.7546 14.8521V13.9721L30.8146 13.9121H31.6946ZM32.6946 16.9121L32.7546 16.9721V17.8521L32.6946 17.9121H29.8146L29.7546 17.8521V16.9721L29.8146 16.9121H32.6946Z" fill="#F5F5F5"/>
<path d="M3.94 0L4 0.0600004V0.94L3.94 1H1.06L1 0.94V0.0600004L1.06 0H3.94ZM4.94 1L5 1.06V5.94L4.94 6H4.06L4 5.94V3.06L4.06 3L4 2.94L3.94 3H3.06L3 2.94V2.06L3.06 2H3.94L4 2.06L4.06 2L4 1.94V1.06L4.06 1H4.94ZM0.94 1L1 1.06V3.94L0.94 4L1 4.06L1.06 4H1.94L2 4.06V4.94L1.94 5H1.06L1 4.94L0.94 5L1 5.06V5.94L0.94 6H0.06L0 5.94V1.06L0.06 1H0.94ZM2.94 3L3 3.06V3.94L2.94 4H2.06L2 3.94V3.06L2.06 3H2.94ZM3.94 6L4 6.06V6.94L3.94 7H1.06L1 6.94V6.06L1.06 6H3.94Z" fill="#F5F5F5"/>
<path d="M18.3172 0L18.3772 0.0600004V0.94L18.3172 1H15.4372L15.3772 0.94V0.0600004L15.4372 0H18.3172ZM19.3172 1L19.3772 1.06V5.94L19.3172 6H18.4372L18.3772 5.94V3.06L18.4372 3L18.3772 2.94L18.3172 3H17.4372L17.3772 2.94V2.06L17.4372 2H18.3172L18.3772 2.06L18.4372 2L18.3772 1.94V1.06L18.4372 1H19.3172ZM15.3172 1L15.3772 1.06V3.94L15.3172 4L15.3772 4.06L15.4372 4H16.3172L16.3772 4.06V4.94L16.3172 5H15.4372L15.3772 4.94L15.3172 5L15.3772 5.06V5.94L15.3172 6H14.4372L14.3772 5.94V1.06L14.4372 1H15.3172ZM17.3172 3L17.3772 3.06V3.94L17.3172 4H16.4372L16.3772 3.94V3.06L16.4372 3H17.3172ZM18.3172 6L18.3772 6.06V6.94L18.3172 7H15.4372L15.3772 6.94V6.06L15.4372 6H18.3172Z" fill="#F5F5F5"/>
<path d="M32.6946 0L32.7546 0.0600004V0.94L32.6946 1H29.8146L29.7546 0.94V0.0600004L29.8146 0H32.6946ZM33.6946 1L33.7546 1.06V5.94L33.6946 6H32.8146L32.7546 5.94V3.06L32.8146 3L32.7546 2.94L32.6946 3H31.8146L31.7546 2.94V2.06L31.8146 2H32.6946L32.7546 2.06L32.8146 2L32.7546 1.94V1.06L32.8146 1H33.6946ZM29.6946 1L29.7546 1.06V3.94L29.6946 4L29.7546 4.06L29.8146 4H30.6946L30.7546 4.06V4.94L30.6946 5H29.8146L29.7546 4.94L29.6946 5L29.7546 5.06V5.94L29.6946 6H28.8146L28.7546 5.94V1.06L28.8146 1H29.6946ZM31.6946 3L31.7546 3.06V3.94L31.6946 4H30.8146L30.7546 3.94V3.06L30.8146 3H31.6946ZM32.6946 6L32.7546 6.06V6.94L32.6946 7H29.8146L29.7546 6.94V6.06L29.8146 6H32.6946Z" fill="#F5F5F5"/>
<path d="M27.1273 98.3635H47.1273V118.364H27.1273V98.3635Z" fill="#F5F5F5"/>
<path d="M47.1273 98.3635H67.1273V118.364H47.1273V98.3635Z" fill="#F5F5F5"/>
<path d="M47.1273 78.3636H67.1273V98.3635H47.1273V78.3636Z" fill="#F5F5F5"/>
<path d="M47.1273 58.3636H67.1273V78.3636H47.1273V58.3636Z" fill="#F5F5F5"/>
<path d="M27.1273 58.3636H47.1273V78.3636H27.1273V58.3636Z" fill="#F5F5F5"/>
<path d="M7.12732 58.3636H27.1273V78.3636H7.12732V58.3636Z" fill="#F5F5F5"/>
<path d="M7.12732 78.3636H27.1273V98.3635L7.12732 98.3636V78.3636Z" fill="#F5F5F5"/>
<path d="M7.12732 98.3636L27.1273 98.3635V118.364L7.12732 118.364V98.3636Z" fill="#F5F5F5"/>
<path d="M91.9916 0L92.0516 0.0599998V9.94L91.9916 10H91.1116L91.0516 9.94V0.0599998L91.1116 0H91.9916Z" fill="#F5F5F5"/>
<path d="M91.9916 11L92.0516 11.06V20.94L91.9916 21H91.1116L91.0516 20.94V11.06L91.1116 11H91.9916Z" fill="#F5F5F5"/>
<path d="M91.9916 22L92.0516 22.06V31.94L91.9916 32H91.1116L91.0516 31.94V22.06L91.1116 22H91.9916Z" fill="#F5F5F5"/>
<path d="M91.9916 33L92.0516 33.06V42.94L91.9916 43H91.1116L91.0516 42.94V33.06L91.1116 33H91.9916Z" fill="#F5F5F5"/>
<path d="M91.9916 44L92.0516 44.06V53.94L91.9916 54H91.1116L91.0516 53.94V44.06L91.1116 44H91.9916Z" fill="#F5F5F5"/>
<path d="M91.9916 55L92.0516 55.06V64.94L91.9916 65H91.1116L91.0516 64.94V55.06L91.1116 55H91.9916Z" fill="#F5F5F5"/>
<path d="M91.9916 66L92.0516 66.06V75.94L91.9916 76H91.1116L91.0516 75.94V66.06L91.1116 66H91.9916Z" fill="#F5F5F5"/>
<path d="M91.9916 77L92.0516 77.06V86.94L91.9916 87H91.1116L91.0516 86.94V77.06L91.1116 77H91.9916Z" fill="#F5F5F5"/>
<path d="M91.9916 88L92.0516 88.06V97.94L91.9916 98H91.1116L91.0516 97.94V88.06L91.1116 88H91.9916Z" fill="#F5F5F5"/>
<path d="M91.9916 99L92.0516 99.06V108.94L91.9916 109H91.1116L91.0516 108.94V99.06L91.1116 99H91.9916Z" fill="#F5F5F5"/>
<path d="M91.9916 110L92.0516 110.06V119.94L91.9916 120H91.1116L91.0516 119.94V110.06L91.1116 110H91.9916Z" fill="#F5F5F5"/>
</svg>
