<svg width="92" height="120" viewBox="0 0 92 120" fill="none" xmlns="http://www.w3.org/2000/svg">
<path d="M3.94 21.8242L4 21.8842V22.7642L3.94 22.8242H1.06L1 22.7642V21.8842L1.06 21.8242H3.94ZM4.94 22.8242L5 22.8842V27.7642L4.94 27.8242H4.06L4 27.7642V24.8842L4.06 24.8242L4 24.7642L3.94 24.8242H3.06L3 24.7642V23.8842L3.06 23.8242H3.94L4 23.8842L4.06 23.8242L4 23.7642V22.8842L4.06 22.8242H4.94ZM0.94 22.8242L1 22.8842V25.7642L0.94 25.8242L1 25.8842L1.06 25.8242H1.94L2 25.8842V26.7642L1.94 26.8242H1.06L1 26.7642L0.94 26.8242L1 26.8842V27.7642L0.94 27.8242H0.06L0 27.7642V22.8842L0.06 22.8242H0.94ZM2.94 24.8242L3 24.8842V25.7642L2.94 25.8242H2.06L2 25.7642V24.8842L2.06 24.8242H2.94ZM3.94 27.8242L4 27.8842V28.7642L3.94 28.8242H1.06L1 28.7642V27.8842L1.06 27.8242H3.94Z" fill="#F5F5F5"/>
<path d="M18.3172 21.8242L18.3772 21.8842V22.7642L18.3172 22.8242H15.4372L15.3772 22.7642V21.8842L15.4372 21.8242H18.3172ZM19.3172 22.8242L19.3772 22.8842V27.7642L19.3172 27.8242H18.4372L18.3772 27.7642V24.8842L18.4372 24.8242L18.3772 24.7642L18.3172 24.8242H17.4372L17.3772 24.7642V23.8842L17.4372 23.8242H18.3172L18.3772 23.8842L18.4372 23.8242L18.3772 23.7642V22.8842L18.4372 22.8242H19.3172ZM15.3172 22.8242L15.3772 22.8842V25.7642L15.3172 25.8242L15.3772 25.8842L15.4372 25.8242H16.3172L16.3772 25.8842V26.7642L16.3172 26.8242H15.4372L15.3772 26.7642L15.3172 26.8242L15.3772 26.8842V27.7642L15.3172 27.8242H14.4372L14.3772 27.7642V22.8842L14.4372 22.8242H15.3172ZM17.3172 24.8242L17.3772 24.8842V25.7642L17.3172 25.8242H16.4372L16.3772 25.7642V24.8842L16.4372 24.8242H17.3172ZM18.3172 27.8242L18.3772 27.8842V28.7642L18.3172 28.8242H15.4372L15.3772 28.7642V27.8842L15.4372 27.8242H18.3172Z" fill="#F5F5F5"/>
<path d="M71.7192 12.2L71.8632 12.344V14.456L71.7192 14.6H69.6072L69.4632 14.456V12.344L69.6072 12.2H71.7192ZM74.1192 14.6L74.2632 14.744V16.856L74.1192 17H72.0072L71.8632 16.856V14.744L72.0072 14.6H74.1192ZM69.3192 14.6L69.4632 14.744V16.856L69.3192 17H67.2072L67.0632 16.856V14.744L67.2072 14.6H69.3192ZM76.5192 17L76.6632 17.144V28.856L76.5192 29H74.4072L74.2632 28.856V23.144L74.4072 23L74.2632 22.856L74.1192 23H67.2072L67.0632 22.856L66.9192 23L67.0632 23.144V28.856L66.9192 29H64.8072L64.6632 28.856V17.144L64.8072 17H66.9192L67.0632 17.144V20.456L66.9192 20.6L67.0632 20.744L67.2072 20.6H74.1192L74.2632 20.744L74.4072 20.6L74.2632 20.456V17.144L74.4072 17H76.5192ZM70.6632 5.84V7.64L70.5432 7.76H68.7432L68.6232 7.64V5.84L68.7432 5.72H70.5432L70.6632 5.84ZM72.7032 7.88V9.68L72.5832 9.8H70.7832L70.6632 9.68V7.88L70.7832 7.76H72.5832L72.7032 7.88Z" fill="#F5F5F5"/>
<path d="M32.6946 21.8242L32.7546 21.8842V22.7642L32.6946 22.8242H29.8146L29.7546 22.7642V21.8842L29.8146 21.8242H32.6946ZM33.6946 22.8242L33.7546 22.8842V27.7642L33.6946 27.8242H32.8146L32.7546 27.7642V24.8842L32.8146 24.8242L32.7546 24.7642L32.6946 24.8242H31.8146L31.7546 24.7642V23.8842L31.8146 23.8242H32.6946L32.7546 23.8842L32.8146 23.8242L32.7546 23.7642V22.8842L32.8146 22.8242H33.6946ZM29.6946 22.8242L29.7546 22.8842V25.7642L29.6946 25.8242L29.7546 25.8842L29.8146 25.8242H30.6946L30.7546 25.8842V26.7642L30.6946 26.8242H29.8146L29.7546 26.7642L29.6946 26.8242L29.7546 26.8842V27.7642L29.6946 27.8242H28.8146L28.7546 27.7642V22.8842L28.8146 22.8242H29.6946ZM31.6946 24.8242L31.7546 24.8842V25.7642L31.6946 25.8242H30.8146L30.7546 25.7642V24.8842L30.8146 24.8242H31.6946ZM32.6946 27.8242L32.7546 27.8842V28.7642L32.6946 28.8242H29.8146L29.7546 28.7642V27.8842L29.8146 27.8242H32.6946Z" fill="#F5F5F5"/>
<path d="M3.94 10.9121L4 10.9721V11.8521L3.94 11.9121H1.06L1 11.8521V10.9721L1.06 10.9121H3.94ZM4.94 11.9121L5 11.9721V16.8521L4.94 16.9121H4.06L4 16.8521V13.9721L4.06 13.9121L4 13.8521L3.94 13.9121H3.06L3 13.8521V12.9721L3.06 12.9121H3.94L4 12.9721L4.06 12.9121L4 12.8521V11.9721L4.06 11.9121H4.94ZM0.94 11.9121L1 11.9721V14.8521L0.94 14.9121L1 14.9721L1.06 14.9121H1.94L2 14.9721V15.8521L1.94 15.9121H1.06L1 15.8521L0.94 15.9121L1 15.9721V16.8521L0.94 16.9121H0.06L0 16.8521V11.9721L0.06 11.9121H0.94ZM2.94 13.9121L3 13.9721V14.8521L2.94 14.9121H2.06L2 14.8521V13.9721L2.06 13.9121H2.94ZM3.94 16.9121L4 16.9721V17.8521L3.94 17.9121H1.06L1 17.8521V16.9721L1.06 16.9121H3.94Z" fill="#F5F5F5"/>
<path d="M17.3172 10.9121L17.3772 10.9721V16.8521L17.3172 16.9121L17.3772 16.9721L17.4372 16.9121H19.3172L19.3772 16.9721V17.8521L19.3172 17.9121H14.4372L14.3772 17.8521V16.9721L14.4372 16.9121H16.3172L16.3772 16.9721L16.4372 16.9121L16.3772 16.8521V12.9721L16.4372 12.9121L16.3772 12.8521L16.3172 12.9121H14.9372L14.8772 12.8521V11.9721L14.9372 11.9121H16.3172L16.3772 11.9721L16.4372 11.9121L16.3772 11.8521V10.9721L16.4372 10.9121H17.3172Z" fill="#F5F5F5"/>
<path d="M31.6946 10.9121L31.7546 10.9721V16.8521L31.6946 16.9121L31.7546 16.9721L31.8146 16.9121H33.6946L33.7546 16.9721V17.8521L33.6946 17.9121H28.8146L28.7546 17.8521V16.9721L28.8146 16.9121H30.6946L30.7546 16.9721L30.8146 16.9121L30.7546 16.8521V12.9721L30.8146 12.9121L30.7546 12.8521L30.6946 12.9121H29.3146L29.2546 12.8521V11.9721L29.3146 11.9121H30.6946L30.7546 11.9721L30.8146 11.9121L30.7546 11.8521V10.9721L30.8146 10.9121H31.6946Z" fill="#F5F5F5"/>
<path d="M3.94 0L4 0.0600004V0.94L3.94 1H1.06L1 0.94V0.0600004L1.06 0H3.94ZM4.94 1L5 1.06V5.94L4.94 6H4.06L4 5.94V3.06L4.06 3L4 2.94L3.94 3H3.06L3 2.94V2.06L3.06 2H3.94L4 2.06L4.06 2L4 1.94V1.06L4.06 1H4.94ZM0.94 1L1 1.06V3.94L0.94 4L1 4.06L1.06 4H1.94L2 4.06V4.94L1.94 5H1.06L1 4.94L0.94 5L1 5.06V5.94L0.94 6H0.06L0 5.94V1.06L0.06 1H0.94ZM2.94 3L3 3.06V3.94L2.94 4H2.06L2 3.94V3.06L2.06 3H2.94ZM3.94 6L4 6.06V6.94L3.94 7H1.06L1 6.94V6.06L1.06 6H3.94Z" fill="#F5F5F5"/>
<path d="M18.3172 0L18.3772 0.0600004V0.94L18.3172 1H15.4372L15.3772 0.94V0.0600004L15.4372 0H18.3172ZM19.3172 1L19.3772 1.06V5.94L19.3172 6H18.4372L18.3772 5.94V3.06L18.4372 3L18.3772 2.94L18.3172 3H17.4372L17.3772 2.94V2.06L17.4372 2H18.3172L18.3772 2.06L18.4372 2L18.3772 1.94V1.06L18.4372 1H19.3172ZM15.3172 1L15.3772 1.06V3.94L15.3172 4L15.3772 4.06L15.4372 4H16.3172L16.3772 4.06V4.94L16.3172 5H15.4372L15.3772 4.94L15.3172 5L15.3772 5.06V5.94L15.3172 6H14.4372L14.3772 5.94V1.06L14.4372 1H15.3172ZM17.3172 3L17.3772 3.06V3.94L17.3172 4H16.4372L16.3772 3.94V3.06L16.4372 3H17.3172ZM18.3172 6L18.3772 6.06V6.94L18.3172 7H15.4372L15.3772 6.94V6.06L15.4372 6H18.3172Z" fill="#F5F5F5"/>
<path d="M32.6946 0L32.7546 0.0600004V0.94L32.6946 1H29.8146L29.7546 0.94V0.0600004L29.8146 0H32.6946ZM33.6946 1L33.7546 1.06V5.94L33.6946 6H32.8146L32.7546 5.94V3.06L32.8146 3L32.7546 2.94L32.6946 3H31.8146L31.7546 2.94V2.06L31.8146 2H32.6946L32.7546 2.06L32.8146 2L32.7546 1.94V1.06L32.8146 1H33.6946ZM29.6946 1L29.7546 1.06V3.94L29.6946 4L29.7546 4.06L29.8146 4H30.6946L30.7546 4.06V4.94L30.6946 5H29.8146L29.7546 4.94L29.6946 5L29.7546 5.06V5.94L29.6946 6H28.8146L28.7546 5.94V1.06L28.8146 1H29.6946ZM31.6946 3L31.7546 3.06V3.94L31.6946 4H30.8146L30.7546 3.94V3.06L30.8146 3H31.6946ZM32.6946 6L32.7546 6.06V6.94L32.6946 7H29.8146L29.7546 6.94V6.06L29.8146 6H32.6946Z" fill="#F5F5F5"/>
<path d="M26.7389 78.5393H46.7389V98.5393H26.7389V78.5393Z" fill="#F5F5F5"/>
<path d="M46.7389 78.5393H66.7389V98.5393H46.7389V78.5393Z" fill="#F5F5F5"/>
<path d="M91.6031 0L91.6631 0.0599998V9.94L91.6031 10H90.7231L90.6631 9.94V0.0599998L90.7231 0H91.6031Z" fill="#F5F5F5"/>
<path d="M91.6031 11L91.6631 11.06V20.94L91.6031 21H90.7231L90.6631 20.94V11.06L90.7231 11H91.6031Z" fill="#F5F5F5"/>
<path d="M91.6031 22L91.6631 22.06V31.94L91.6031 32H90.7231L90.6631 31.94V22.06L90.7231 22H91.6031Z" fill="#F5F5F5"/>
<path d="M91.6031 33L91.6631 33.06V42.94L91.6031 43H90.7231L90.6631 42.94V33.06L90.7231 33H91.6031Z" fill="#F5F5F5"/>
<path d="M91.6031 44L91.6631 44.06V53.94L91.6031 54H90.7231L90.6631 53.94V44.06L90.7231 44H91.6031Z" fill="#F5F5F5"/>
<path d="M91.6031 55L91.6631 55.06V64.94L91.6031 65H90.7231L90.6631 64.94V55.06L90.7231 55H91.6031Z" fill="#F5F5F5"/>
<path d="M91.6031 66L91.6631 66.06V75.94L91.6031 76H90.7231L90.6631 75.94V66.06L90.7231 66H91.6031Z" fill="#F5F5F5"/>
<path d="M91.6031 77L91.6631 77.06V86.94L91.6031 87H90.7231L90.6631 86.94V77.06L90.7231 77H91.6031Z" fill="#F5F5F5"/>
<path d="M91.6031 88L91.6631 88.06V97.94L91.6031 98H90.7231L90.6631 97.94V88.06L90.7231 88H91.6031Z" fill="#F5F5F5"/>
<path d="M91.6031 99L91.6631 99.06V108.94L91.6031 109H90.7231L90.6631 108.94V99.06L90.7231 99H91.6031Z" fill="#F5F5F5"/>
<path d="M91.6031 110L91.6631 110.06V119.94L91.6031 120H90.7231L90.6631 119.94V110.06L90.7231 110H91.6031Z" fill="#F5F5F5"/>
</svg>
