<svg width="92" height="120" viewBox="0 0 92 120" fill="none" xmlns="http://www.w3.org/2000/svg">
<path d="M4.10046 21.8242L4.1629 21.8842V22.7642L4.10046 22.8242H1.10317L1.04073 22.7642V21.8842L1.10317 21.8242H4.10046ZM5.14119 22.8242L5.20363 22.8842V27.7642L5.14119 27.8242H4.22535L4.1629 27.7642V24.8842L4.22535 24.8242L4.1629 24.7642L4.10046 24.8242H3.18462L3.12218 24.7642V23.8842L3.18462 23.8242H4.10046L4.1629 23.8842L4.22535 23.8242L4.1629 23.7642V22.8842L4.22535 22.8242H5.14119ZM0.978282 22.8242L1.04073 22.8842V25.7642L0.978282 25.8242L1.04073 25.8842L1.10317 25.8242H2.01901L2.08145 25.8842V26.7642L2.01901 26.8242H1.10317L1.04073 26.7642L0.978282 26.8242L1.04073 26.8842V27.7642L0.978282 27.8242H0.0624435L0 27.7642V22.8842L0.0624435 22.8242H0.978282ZM3.05973 24.8242L3.12218 24.8842V25.7642L3.05973 25.8242H2.1439L2.08145 25.7642V24.8842L2.1439 24.8242H3.05973ZM4.10046 27.8242L4.1629 27.8842V28.7642L4.10046 28.8242H1.10317L1.04073 28.7642V27.8842L1.10317 27.8242H4.10046Z" fill="#F5F5F5"/>
<path d="M19.0632 21.8242L19.1256 21.8842V22.7642L19.0632 22.8242H16.0659L16.0034 22.7642V21.8842L16.0659 21.8242H19.0632ZM20.1039 22.8242L20.1663 22.8842V27.7642L20.1039 27.8242H19.1881L19.1256 27.7642V24.8842L19.1881 24.8242L19.1256 24.7642L19.0632 24.8242H18.1473L18.0849 24.7642V23.8842L18.1473 23.8242H19.0632L19.1256 23.8842L19.1881 23.8242L19.1256 23.7642V22.8842L19.1881 22.8242H20.1039ZM15.941 22.8242L16.0034 22.8842V25.7642L15.941 25.8242L16.0034 25.8842L16.0659 25.8242H16.9817L17.0442 25.8842V26.7642L16.9817 26.8242H16.0659L16.0034 26.7642L15.941 26.8242L16.0034 26.8842V27.7642L15.941 27.8242H15.0252L14.9627 27.7642V22.8842L15.0252 22.8242H15.941ZM18.0225 24.8242L18.0849 24.8842V25.7642L18.0225 25.8242H17.1066L17.0442 25.7642V24.8842L17.1066 24.8242H18.0225ZM19.0632 27.8242L19.1256 27.8842V28.7642L19.0632 28.8242H16.0659L16.0034 28.7642V27.8842L16.0659 27.8242H19.0632Z" fill="#F5F5F5"/>
<path d="M76.6631 9.944V31.256L76.5133 31.4H70.5687L70.4188 31.256V29.144L70.5687 29H74.0155L74.1654 29.144L74.3153 29L74.1654 28.856V12.344L74.3153 12.2L74.1654 12.056L74.0155 12.2H70.5687L70.4188 12.056V9.944L70.5687 9.8H76.5133L76.6631 9.944Z" fill="#F5F5F5"/>
<path d="M34.0261 21.8242L34.0886 21.8842V22.7642L34.0261 22.8242H31.0289L30.9664 22.7642V21.8842L31.0289 21.8242H34.0261ZM35.0669 22.8242L35.1293 22.8842V27.7642L35.0669 27.8242H34.151L34.0886 27.7642V24.8842L34.151 24.8242L34.0886 24.7642L34.0261 24.8242H33.1103L33.0479 24.7642V23.8842L33.1103 23.8242H34.0261L34.0886 23.8842L34.151 23.8242L34.0886 23.7642V22.8842L34.151 22.8242H35.0669ZM30.904 22.8242L30.9664 22.8842V25.7642L30.904 25.8242L30.9664 25.8842L31.0289 25.8242H31.9447L32.0071 25.8842V26.7642L31.9447 26.8242H31.0289L30.9664 26.7642L30.904 26.8242L30.9664 26.8842V27.7642L30.904 27.8242H29.9881L29.9257 27.7642V22.8842L29.9881 22.8242H30.904ZM32.9854 24.8242L33.0479 24.8842V25.7642L32.9854 25.8242H32.0696L32.0071 25.7642V24.8842L32.0696 24.8242H32.9854ZM34.0261 27.8242L34.0886 27.8842V28.7642L34.0261 28.8242H31.0289L30.9664 28.7642V27.8842L31.0289 27.8242H34.0261Z" fill="#F5F5F5"/>
<path d="M4.10046 10.9121L4.1629 10.9721V11.8521L4.10046 11.9121H1.10317L1.04073 11.8521V10.9721L1.10317 10.9121H4.10046ZM5.14119 11.9121L5.20363 11.9721V16.8521L5.14119 16.9121H4.22535L4.1629 16.8521V13.9721L4.22535 13.9121L4.1629 13.8521L4.10046 13.9121H3.18462L3.12218 13.8521V12.9721L3.18462 12.9121H4.10046L4.1629 12.9721L4.22535 12.9121L4.1629 12.8521V11.9721L4.22535 11.9121H5.14119ZM0.978282 11.9121L1.04073 11.9721V14.8521L0.978282 14.9121L1.04073 14.9721L1.10317 14.9121H2.01901L2.08145 14.9721V15.8521L2.01901 15.9121H1.10317L1.04073 15.8521L0.978282 15.9121L1.04073 15.9721V16.8521L0.978282 16.9121H0.0624435L0 16.8521V11.9721L0.0624435 11.9121H0.978282ZM3.05973 13.9121L3.12218 13.9721V14.8521L3.05973 14.9121H2.1439L2.08145 14.8521V13.9721L2.1439 13.9121H3.05973ZM4.10046 16.9121L4.1629 16.9721V17.8521L4.10046 17.9121H1.10317L1.04073 17.8521V16.9721L1.10317 16.9121H4.10046Z" fill="#F5F5F5"/>
<path d="M19.0632 10.9121L19.1256 10.9721V11.8521L19.0632 11.9121H16.0659L16.0034 11.8521V10.9721L16.0659 10.9121H19.0632ZM20.1039 11.9121L20.1663 11.9721V16.8521L20.1039 16.9121H19.1881L19.1256 16.8521V13.9721L19.1881 13.9121L19.1256 13.8521L19.0632 13.9121H18.1473L18.0849 13.8521V12.9721L18.1473 12.9121H19.0632L19.1256 12.9721L19.1881 12.9121L19.1256 12.8521V11.9721L19.1881 11.9121H20.1039ZM15.941 11.9121L16.0034 11.9721V14.8521L15.941 14.9121L16.0034 14.9721L16.0659 14.9121H16.9817L17.0442 14.9721V15.8521L16.9817 15.9121H16.0659L16.0034 15.8521L15.941 15.9121L16.0034 15.9721V16.8521L15.941 16.9121H15.0252L14.9627 16.8521V11.9721L15.0252 11.9121H15.941ZM18.0225 13.9121L18.0849 13.9721V14.8521L18.0225 14.9121H17.1066L17.0442 14.8521V13.9721L17.1066 13.9121H18.0225ZM19.0632 16.9121L19.1256 16.9721V17.8521L19.0632 17.9121H16.0659L16.0034 17.8521V16.9721L16.0659 16.9121H19.0632Z" fill="#F5F5F5"/>
<path d="M32.9854 10.9121L33.0479 10.9721V16.8521L32.9854 16.9121L33.0479 16.9721L33.1103 16.9121H35.0669L35.1293 16.9721V17.8521L35.0669 17.9121H29.9881L29.9257 17.8521V16.9721L29.9881 16.9121H31.9447L32.0071 16.9721L32.0696 16.9121L32.0071 16.8521V12.9721L32.0696 12.9121L32.0071 12.8521L31.9447 12.9121H30.5085L30.4461 12.8521V11.9721L30.5085 11.9121H31.9447L32.0071 11.9721L32.0696 11.9121L32.0071 11.8521V10.9721L32.0696 10.9121H32.9854Z" fill="#F5F5F5"/>
<path d="M4.10046 0L4.1629 0.0600004V0.94L4.10046 1H1.10317L1.04073 0.94V0.0600004L1.10317 0H4.10046ZM5.14119 1L5.20363 1.06V5.94L5.14119 6H4.22535L4.1629 5.94V3.06L4.22535 3L4.1629 2.94L4.10046 3H3.18462L3.12218 2.94V2.06L3.18462 2H4.10046L4.1629 2.06L4.22535 2L4.1629 1.94V1.06L4.22535 1H5.14119ZM0.978282 1L1.04073 1.06V3.94L0.978282 4L1.04073 4.06L1.10317 4H2.01901L2.08145 4.06V4.94L2.01901 5H1.10317L1.04073 4.94L0.978282 5L1.04073 5.06V5.94L0.978282 6H0.0624435L0 5.94V1.06L0.0624435 1H0.978282ZM3.05973 3L3.12218 3.06V3.94L3.05973 4H2.1439L2.08145 3.94V3.06L2.1439 3H3.05973ZM4.10046 6L4.1629 6.06V6.94L4.10046 7H1.10317L1.04073 6.94V6.06L1.10317 6H4.10046Z" fill="#F5F5F5"/>
<path d="M19.0632 0L19.1256 0.0600004V0.94L19.0632 1H16.0659L16.0034 0.94V0.0600004L16.0659 0H19.0632ZM20.1039 1L20.1663 1.06V5.94L20.1039 6H19.1881L19.1256 5.94V3.06L19.1881 3L19.1256 2.94L19.0632 3H18.1473L18.0849 2.94V2.06L18.1473 2H19.0632L19.1256 2.06L19.1881 2L19.1256 1.94V1.06L19.1881 1H20.1039ZM15.941 1L16.0034 1.06V3.94L15.941 4L16.0034 4.06L16.0659 4H16.9817L17.0442 4.06V4.94L16.9817 5H16.0659L16.0034 4.94L15.941 5L16.0034 5.06V5.94L15.941 6H15.0252L14.9627 5.94V1.06L15.0252 1H15.941ZM18.0225 3L18.0849 3.06V3.94L18.0225 4H17.1066L17.0442 3.94V3.06L17.1066 3H18.0225ZM19.0632 6L19.1256 6.06V6.94L19.0632 7H16.0659L16.0034 6.94V6.06L16.0659 6H19.0632Z" fill="#F5F5F5"/>
<path d="M34.0261 0L34.0886 0.0600004V0.94L34.0261 1H31.0289L30.9664 0.94V0.0600004L31.0289 0H34.0261ZM35.0669 1L35.1293 1.06V5.94L35.0669 6H34.151L34.0886 5.94V3.06L34.151 3L34.0886 2.94L34.0261 3H33.1103L33.0479 2.94V2.06L33.1103 2H34.0261L34.0886 2.06L34.151 2L34.0886 1.94V1.06L34.151 1H35.0669ZM30.904 1L30.9664 1.06V3.94L30.904 4L30.9664 4.06L31.0289 4H31.9447L32.0071 4.06V4.94L31.9447 5H31.0289L30.9664 4.94L30.904 5L30.9664 5.06V5.94L30.904 6H29.9881L29.9257 5.94V1.06L29.9881 1H30.904ZM32.9854 3L33.0479 3.06V3.94L32.9854 4H32.0696L32.0071 3.94V3.06L32.0696 3H32.9854ZM34.0261 6L34.0886 6.06V6.94L34.0261 7H31.0289L30.9664 6.94V6.06L31.0289 6H34.0261Z" fill="#F5F5F5"/>
<path d="M48.6424 78.5393H69.4569V98.5393H48.6424V78.5393Z" fill="#F5F5F5"/>
<path d="M91.6031 0L91.6631 0.0599998V9.94L91.6031 10H90.7231L90.6631 9.94V0.0599998L90.7231 0H91.6031Z" fill="#F5F5F5"/>
<path d="M91.6031 11L91.6631 11.06V20.94L91.6031 21H90.7231L90.6631 20.94V11.06L90.7231 11H91.6031Z" fill="#F5F5F5"/>
<path d="M91.6031 22L91.6631 22.06V31.94L91.6031 32H90.7231L90.6631 31.94V22.06L90.7231 22H91.6031Z" fill="#F5F5F5"/>
<path d="M91.6031 33L91.6631 33.06V42.94L91.6031 43H90.7231L90.6631 42.94V33.06L90.7231 33H91.6031Z" fill="#F5F5F5"/>
<path d="M91.6031 44L91.6631 44.06V53.94L91.6031 54H90.7231L90.6631 53.94V44.06L90.7231 44H91.6031Z" fill="#F5F5F5"/>
<path d="M91.6031 55L91.6631 55.06V64.94L91.6031 65H90.7231L90.6631 64.94V55.06L90.7231 55H91.6031Z" fill="#F5F5F5"/>
<path d="M91.6031 66L91.6631 66.06V75.94L91.6031 76H90.7231L90.6631 75.94V66.06L90.7231 66H91.6031Z" fill="#F5F5F5"/>
<path d="M91.6031 77L91.6631 77.06V86.94L91.6031 87H90.7231L90.6631 86.94V77.06L90.7231 77H91.6031Z" fill="#F5F5F5"/>
<path d="M91.6031 88L91.6631 88.06V97.94L91.6031 98H90.7231L90.6631 97.94V88.06L90.7231 88H91.6031Z" fill="#F5F5F5"/>
<path d="M91.6031 99L91.6631 99.06V108.94L91.6031 109H90.7231L90.6631 108.94V99.06L90.7231 99H91.6031Z" fill="#F5F5F5"/>
<path d="M91.6031 110L91.6631 110.06V119.94L91.6031 120H90.7231L90.6631 119.94V110.06L90.7231 110H91.6031Z" fill="#F5F5F5"/>
</svg>
