<svg width="92" height="120" viewBox="0 0 92 120" fill="none" xmlns="http://www.w3.org/2000/svg">
<path d="M4.32895 21.8242L4.3899 21.8842V22.7642L4.32895 22.8242H1.40315L1.3422 22.7642V21.8842L1.40315 21.8242H4.32895ZM5.34485 22.8242L5.4058 22.8842V27.7642L5.34485 27.8242H4.45086L4.3899 27.7642V24.8842L4.45086 24.8242L4.3899 24.7642L4.32895 24.8242H3.43495L3.374 24.7642V23.8842L3.43495 23.8242H4.32895L4.3899 23.8842L4.45086 23.8242L4.3899 23.7642V22.8842L4.45086 22.8242H5.34485ZM1.28124 22.8242L1.3422 22.8842V25.7642L1.28124 25.8242L1.3422 25.8842L1.40315 25.8242H2.29714L2.3581 25.8842V26.7642L2.29714 26.8242H1.40315L1.3422 26.7642L1.28124 26.8242L1.3422 26.8842V27.7642L1.28124 27.8242H0.387248L0.326294 27.7642V22.8842L0.387248 22.8242H1.28124ZM3.31305 24.8242L3.374 24.8842V25.7642L3.31305 25.8242H2.41905L2.3581 25.7642V24.8842L2.41905 24.8242H3.31305ZM4.32895 27.8242L4.3899 27.8842V28.7642L4.32895 28.8242H1.40315L1.3422 28.7642V27.8842L1.40315 27.8242H4.32895Z" fill="#F5F5F5"/>
<path d="M18.9348 21.8242L18.9957 21.8842V22.7642L18.9348 22.8242H16.009L15.948 22.7642V21.8842L16.009 21.8242H18.9348ZM19.9507 22.8242L20.0116 22.8842V27.7642L19.9507 27.8242H19.0567L18.9957 27.7642V24.8842L19.0567 24.8242L18.9957 24.7642L18.9348 24.8242H18.0408L17.9798 24.7642V23.8842L18.0408 23.8242H18.9348L18.9957 23.8842L19.0567 23.8242L18.9957 23.7642V22.8842L19.0567 22.8242H19.9507ZM15.8871 22.8242L15.948 22.8842V25.7642L15.8871 25.8242L15.948 25.8842L16.009 25.8242H16.903L16.9639 25.8842V26.7642L16.903 26.8242H16.009L15.948 26.7642L15.8871 26.8242L15.948 26.8842V27.7642L15.8871 27.8242H14.9931L14.9321 27.7642V22.8842L14.9931 22.8242H15.8871ZM17.9189 24.8242L17.9798 24.8842V25.7642L17.9189 25.8242H17.0249L16.9639 25.7642V24.8842L17.0249 24.8242H17.9189ZM18.9348 27.8242L18.9957 27.8842V28.7642L18.9348 28.8242H16.009L15.948 28.7642V27.8842L16.009 27.8242H18.9348Z" fill="#F5F5F5"/>
<path d="M73.1859 15.8L73.3322 15.944V19.256L73.1859 19.4L73.3322 19.544L73.4785 19.4H76.8432L76.9894 19.544V21.656L76.8432 21.8H73.4785L73.3322 21.656L73.1859 21.8L73.3322 21.944V25.256L73.1859 25.4H71.0403L70.894 25.256V21.944L71.0403 21.8L70.894 21.656L70.7477 21.8H67.3831L67.2368 21.656V19.544L67.3831 19.4H70.7477L70.894 19.544L71.0403 19.4L70.894 19.256V15.944L71.0403 15.8H73.1859Z" fill="#F5F5F5"/>
<path d="M33.5408 21.8242L33.6018 21.8842V22.7642L33.5408 22.8242H30.615L30.5541 22.7642V21.8842L30.615 21.8242H33.5408ZM34.5567 22.8242L34.6177 22.8842V27.7642L34.5567 27.8242H33.6627L33.6018 27.7642V24.8842L33.6627 24.8242L33.6018 24.7642L33.5408 24.8242H32.6468L32.5859 24.7642V23.8842L32.6468 23.8242H33.5408L33.6018 23.8842L33.6627 23.8242L33.6018 23.7642V22.8842L33.6627 22.8242H34.5567ZM30.4931 22.8242L30.5541 22.8842V25.7642L30.4931 25.8242L30.5541 25.8842L30.615 25.8242H31.509L31.57 25.8842V26.7642L31.509 26.8242H30.615L30.5541 26.7642L30.4931 26.8242L30.5541 26.8842V27.7642L30.4931 27.8242H29.5991L29.5382 27.7642V22.8842L29.5991 22.8242H30.4931ZM32.5249 24.8242L32.5859 24.8842V25.7642L32.5249 25.8242H31.6309L31.57 25.7642V24.8842L31.6309 24.8242H32.5249ZM33.5408 27.8242L33.6018 27.8842V28.7642L33.5408 28.8242H30.615L30.5541 28.7642V27.8842L30.615 27.8242H33.5408Z" fill="#F5F5F5"/>
<path d="M4.32895 10.9121L4.3899 10.9721V11.8521L4.32895 11.9121H1.40315L1.3422 11.8521V10.9721L1.40315 10.9121H4.32895ZM5.34485 11.9121L5.4058 11.9721V16.8521L5.34485 16.9121H4.45086L4.3899 16.8521V13.9721L4.45086 13.9121L4.3899 13.8521L4.32895 13.9121H3.43495L3.374 13.8521V12.9721L3.43495 12.9121H4.32895L4.3899 12.9721L4.45086 12.9121L4.3899 12.8521V11.9721L4.45086 11.9121H5.34485ZM1.28124 11.9121L1.3422 11.9721V14.8521L1.28124 14.9121L1.3422 14.9721L1.40315 14.9121H2.29714L2.3581 14.9721V15.8521L2.29714 15.9121H1.40315L1.3422 15.8521L1.28124 15.9121L1.3422 15.9721V16.8521L1.28124 16.9121H0.387248L0.326294 16.8521V11.9721L0.387248 11.9121H1.28124ZM3.31305 13.9121L3.374 13.9721V14.8521L3.31305 14.9121H2.41905L2.3581 14.8521V13.9721L2.41905 13.9121H3.31305ZM4.32895 16.9121L4.3899 16.9721V17.8521L4.32895 17.9121H1.40315L1.3422 17.8521V16.9721L1.40315 16.9121H4.32895Z" fill="#F5F5F5"/>
<path d="M18.9348 10.9121L18.9957 10.9721V11.8521L18.9348 11.9121H16.009L15.948 11.8521V10.9721L16.009 10.9121H18.9348ZM19.9507 11.9121L20.0116 11.9721V16.8521L19.9507 16.9121H19.0567L18.9957 16.8521V13.9721L19.0567 13.9121L18.9957 13.8521L18.9348 13.9121H18.0408L17.9798 13.8521V12.9721L18.0408 12.9121H18.9348L18.9957 12.9721L19.0567 12.9121L18.9957 12.8521V11.9721L19.0567 11.9121H19.9507ZM15.8871 11.9121L15.948 11.9721V14.8521L15.8871 14.9121L15.948 14.9721L16.009 14.9121H16.903L16.9639 14.9721V15.8521L16.903 15.9121H16.009L15.948 15.8521L15.8871 15.9121L15.948 15.9721V16.8521L15.8871 16.9121H14.9931L14.9321 16.8521V11.9721L14.9931 11.9121H15.8871ZM17.9189 13.9121L17.9798 13.9721V14.8521L17.9189 14.9121H17.0249L16.9639 14.8521V13.9721L17.0249 13.9121H17.9189ZM18.9348 16.9121L18.9957 16.9721V17.8521L18.9348 17.9121H16.009L15.948 17.8521V16.9721L16.009 16.9121H18.9348Z" fill="#F5F5F5"/>
<path d="M32.5249 10.9121L32.5859 10.9721V16.8521L32.5249 16.9121L32.5859 16.9721L32.6468 16.9121H34.5567L34.6177 16.9721V17.8521L34.5567 17.9121H29.5991L29.5382 17.8521V16.9721L29.5991 16.9121H31.509L31.57 16.9721L31.6309 16.9121L31.57 16.8521V12.9721L31.6309 12.9121L31.57 12.8521L31.509 12.9121H30.1071L30.0461 12.8521V11.9721L30.1071 11.9121H31.509L31.57 11.9721L31.6309 11.9121L31.57 11.8521V10.9721L31.6309 10.9121H32.5249Z" fill="#F5F5F5"/>
<path d="M4.32895 0L4.3899 0.0600004V0.94L4.32895 1H1.40315L1.3422 0.94V0.0600004L1.40315 0H4.32895ZM5.34485 1L5.4058 1.06V5.94L5.34485 6H4.45086L4.3899 5.94V3.06L4.45086 3L4.3899 2.94L4.32895 3H3.43495L3.374 2.94V2.06L3.43495 2H4.32895L4.3899 2.06L4.45086 2L4.3899 1.94V1.06L4.45086 1H5.34485ZM1.28124 1L1.3422 1.06V3.94L1.28124 4L1.3422 4.06L1.40315 4H2.29714L2.3581 4.06V4.94L2.29714 5H1.40315L1.3422 4.94L1.28124 5L1.3422 5.06V5.94L1.28124 6H0.387248L0.326294 5.94V1.06L0.387248 1H1.28124ZM3.31305 3L3.374 3.06V3.94L3.31305 4H2.41905L2.3581 3.94V3.06L2.41905 3H3.31305ZM4.32895 6L4.3899 6.06V6.94L4.32895 7H1.40315L1.3422 6.94V6.06L1.40315 6H4.32895Z" fill="#F5F5F5"/>
<path d="M18.9348 0L18.9957 0.0600004V0.94L18.9348 1H16.009L15.948 0.94V0.0600004L16.009 0H18.9348ZM19.9507 1L20.0116 1.06V5.94L19.9507 6H19.0567L18.9957 5.94V3.06L19.0567 3L18.9957 2.94L18.9348 3H18.0408L17.9798 2.94V2.06L18.0408 2H18.9348L18.9957 2.06L19.0567 2L18.9957 1.94V1.06L19.0567 1H19.9507ZM15.8871 1L15.948 1.06V3.94L15.8871 4L15.948 4.06L16.009 4H16.903L16.9639 4.06V4.94L16.903 5H16.009L15.948 4.94L15.8871 5L15.948 5.06V5.94L15.8871 6H14.9931L14.9321 5.94V1.06L14.9931 1H15.8871ZM17.9189 3L17.9798 3.06V3.94L17.9189 4H17.0249L16.9639 3.94V3.06L17.0249 3H17.9189ZM18.9348 6L18.9957 6.06V6.94L18.9348 7H16.009L15.948 6.94V6.06L16.009 6H18.9348Z" fill="#F5F5F5"/>
<path d="M33.5408 0L33.6018 0.0600004V0.94L33.5408 1H30.615L30.5541 0.94V0.0600004L30.615 0H33.5408ZM34.5567 1L34.6177 1.06V5.94L34.5567 6H33.6627L33.6018 5.94V3.06L33.6627 3L33.6018 2.94L33.5408 3H32.6468L32.5859 2.94V2.06L32.6468 2H33.5408L33.6018 2.06L33.6627 2L33.6018 1.94V1.06L33.6627 1H34.5567ZM30.4931 1L30.5541 1.06V3.94L30.4931 4L30.5541 4.06L30.615 4H31.509L31.57 4.06V4.94L31.509 5H30.615L30.5541 4.94L30.4931 5L30.5541 5.06V5.94L30.4931 6H29.5991L29.5382 5.94V1.06L29.5991 1H30.4931ZM32.5249 3L32.5859 3.06V3.94L32.5249 4H31.6309L31.57 3.94V3.06L31.6309 3H32.5249ZM33.5408 6L33.6018 6.06V6.94L33.5408 7H30.615L30.5541 6.94V6.06L30.615 6H33.5408Z" fill="#F5F5F5"/>
<path d="M47.7706 78.5393H68.0886V98.5393H47.7706V78.5393Z" fill="#F5F5F5"/>
<path d="M27.4526 78.5393H47.7706V98.5393H27.4526V78.5393Z" fill="#F5F5F5"/>
<path d="M27.4526 58.5393H47.7706V78.5393H27.4526V58.5393Z" fill="#F5F5F5"/>
<path d="M7.13452 98.5393H27.4526V118.539H7.13452V98.5393Z" fill="#F5F5F5"/>
<path d="M91.9294 0L91.9894 0.0599998V9.94L91.9294 10H91.0494L90.9894 9.94V0.0599998L91.0494 0H91.9294Z" fill="#F5F5F5"/>
<path d="M91.9294 11L91.9894 11.06V20.94L91.9294 21H91.0494L90.9894 20.94V11.06L91.0494 11H91.9294Z" fill="#F5F5F5"/>
<path d="M91.9294 22L91.9894 22.06V31.94L91.9294 32H91.0494L90.9894 31.94V22.06L91.0494 22H91.9294Z" fill="#F5F5F5"/>
<path d="M91.9294 33L91.9894 33.06V42.94L91.9294 43H91.0494L90.9894 42.94V33.06L91.0494 33H91.9294Z" fill="#F5F5F5"/>
<path d="M91.9294 44L91.9894 44.06V53.94L91.9294 54H91.0494L90.9894 53.94V44.06L91.0494 44H91.9294Z" fill="#F5F5F5"/>
<path d="M91.9294 55L91.9894 55.06V64.94L91.9294 65H91.0494L90.9894 64.94V55.06L91.0494 55H91.9294Z" fill="#F5F5F5"/>
<path d="M91.9294 66L91.9894 66.06V75.94L91.9294 76H91.0494L90.9894 75.94V66.06L91.0494 66H91.9294Z" fill="#F5F5F5"/>
<path d="M91.9294 77L91.9894 77.06V86.94L91.9294 87H91.0494L90.9894 86.94V77.06L91.0494 77H91.9294Z" fill="#F5F5F5"/>
<path d="M91.9294 88L91.9894 88.06V97.94L91.9294 98H91.0494L90.9894 97.94V88.06L91.0494 88H91.9294Z" fill="#F5F5F5"/>
<path d="M91.9294 99L91.9894 99.06V108.94L91.9294 109H91.0494L90.9894 108.94V99.06L91.0494 99H91.9294Z" fill="#F5F5F5"/>
<path d="M91.9294 110L91.9894 110.06V119.94L91.9294 120H91.0494L90.9894 119.94V110.06L91.0494 110H91.9294Z" fill="#F5F5F5"/>
</svg>
