<svg width="93" height="120" viewBox="0 0 93 120" fill="none" xmlns="http://www.w3.org/2000/svg">
<path d="M4.60315 21.8242L4.66315 21.8842V22.7642L4.60315 22.8242H1.72315L1.66315 22.7642V21.8842L1.72315 21.8242H4.60315ZM5.60315 22.8242L5.66315 22.8842V27.7642L5.60315 27.8242H4.72315L4.66315 27.7642V24.8842L4.72315 24.8242L4.66315 24.7642L4.60315 24.8242H3.72315L3.66315 24.7642V23.8842L3.72315 23.8242H4.60315L4.66315 23.8842L4.72315 23.8242L4.66315 23.7642V22.8842L4.72315 22.8242H5.60315ZM1.60315 22.8242L1.66315 22.8842V25.7642L1.60315 25.8242L1.66315 25.8842L1.72315 25.8242H2.60315L2.66315 25.8842V26.7642L2.60315 26.8242H1.72315L1.66315 26.7642L1.60315 26.8242L1.66315 26.8842V27.7642L1.60315 27.8242H0.723147L0.663147 27.7642V22.8842L0.723147 22.8242H1.60315ZM3.60315 24.8242L3.66315 24.8842V25.7642L3.60315 25.8242H2.72315L2.66315 25.7642V24.8842L2.72315 24.8242H3.60315ZM4.60315 27.8242L4.66315 27.8842V28.7642L4.60315 28.8242H1.72315L1.66315 28.7642V27.8842L1.72315 27.8242H4.60315Z" fill="#F5F5F5"/>
<path d="M18.9803 21.8242L19.0403 21.8842V22.7642L18.9803 22.8242H16.1003L16.0403 22.7642V21.8842L16.1003 21.8242H18.9803ZM19.9803 22.8242L20.0403 22.8842V27.7642L19.9803 27.8242H19.1003L19.0403 27.7642V24.8842L19.1003 24.8242L19.0403 24.7642L18.9803 24.8242H18.1003L18.0403 24.7642V23.8842L18.1003 23.8242H18.9803L19.0403 23.8842L19.1003 23.8242L19.0403 23.7642V22.8842L19.1003 22.8242H19.9803ZM15.9803 22.8242L16.0403 22.8842V25.7642L15.9803 25.8242L16.0403 25.8842L16.1003 25.8242H16.9803L17.0403 25.8842V26.7642L16.9803 26.8242H16.1003L16.0403 26.7642L15.9803 26.8242L16.0403 26.8842V27.7642L15.9803 27.8242H15.1003L15.0403 27.7642V22.8842L15.1003 22.8242H15.9803ZM17.9803 24.8242L18.0403 24.8842V25.7642L17.9803 25.8242H17.1003L17.0403 25.7642V24.8842L17.1003 24.8242H17.9803ZM18.9803 27.8242L19.0403 27.8842V28.7642L18.9803 28.8242H16.1003L16.0403 28.7642V27.8842L16.1003 27.8242H18.9803Z" fill="#F5F5F5"/>
<path d="M77.1823 12.2L77.3263 12.344V16.856L77.1823 17H75.0703L74.9263 16.856V12.344L75.0703 12.2H77.1823ZM74.7823 17L74.9263 17.144V19.256L74.7823 19.4H72.6703L72.5263 19.256V17.144L72.6703 17H74.7823ZM72.3823 19.4L72.5263 19.544V21.656L72.3823 21.8H70.2703L70.1263 21.656V19.544L70.2703 19.4H72.3823ZM69.9823 21.8L70.1263 21.944V24.056L69.9823 24.2H67.8703L67.7263 24.056V21.944L67.8703 21.8H69.9823ZM67.5823 24.2L67.7263 24.344V28.856L67.5823 29H65.4703L65.3263 28.856V24.344L65.4703 24.2H67.5823Z" fill="#F5F5F5"/>
<path d="M33.3578 21.8242L33.4178 21.8842V22.7642L33.3578 22.8242H30.4778L30.4178 22.7642V21.8842L30.4778 21.8242H33.3578ZM34.3578 22.8242L34.4178 22.8842V27.7642L34.3578 27.8242H33.4778L33.4178 27.7642V24.8842L33.4778 24.8242L33.4178 24.7642L33.3578 24.8242H32.4778L32.4178 24.7642V23.8842L32.4778 23.8242H33.3578L33.4178 23.8842L33.4778 23.8242L33.4178 23.7642V22.8842L33.4778 22.8242H34.3578ZM30.3578 22.8242L30.4178 22.8842V25.7642L30.3578 25.8242L30.4178 25.8842L30.4778 25.8242H31.3578L31.4178 25.8842V26.7642L31.3578 26.8242H30.4778L30.4178 26.7642L30.3578 26.8242L30.4178 26.8842V27.7642L30.3578 27.8242H29.4778L29.4178 27.7642V22.8842L29.4778 22.8242H30.3578ZM32.3578 24.8242L32.4178 24.8842V25.7642L32.3578 25.8242H31.4778L31.4178 25.7642V24.8842L31.4778 24.8242H32.3578ZM33.3578 27.8242L33.4178 27.8842V28.7642L33.3578 28.8242H30.4778L30.4178 28.7642V27.8842L30.4778 27.8242H33.3578Z" fill="#F5F5F5"/>
<path d="M4.60315 10.9121L4.66315 10.9721V11.8521L4.60315 11.9121H1.72315L1.66315 11.8521V10.9721L1.72315 10.9121H4.60315ZM5.60315 11.9121L5.66315 11.9721V16.8521L5.60315 16.9121H4.72315L4.66315 16.8521V13.9721L4.72315 13.9121L4.66315 13.8521L4.60315 13.9121H3.72315L3.66315 13.8521V12.9721L3.72315 12.9121H4.60315L4.66315 12.9721L4.72315 12.9121L4.66315 12.8521V11.9721L4.72315 11.9121H5.60315ZM1.60315 11.9121L1.66315 11.9721V14.8521L1.60315 14.9121L1.66315 14.9721L1.72315 14.9121H2.60315L2.66315 14.9721V15.8521L2.60315 15.9121H1.72315L1.66315 15.8521L1.60315 15.9121L1.66315 15.9721V16.8521L1.60315 16.9121H0.723147L0.663147 16.8521V11.9721L0.723147 11.9121H1.60315ZM3.60315 13.9121L3.66315 13.9721V14.8521L3.60315 14.9121H2.72315L2.66315 14.8521V13.9721L2.72315 13.9121H3.60315ZM4.60315 16.9121L4.66315 16.9721V17.8521L4.60315 17.9121H1.72315L1.66315 17.8521V16.9721L1.72315 16.9121H4.60315Z" fill="#F5F5F5"/>
<path d="M18.9803 10.9121L19.0403 10.9721V11.8521L18.9803 11.9121H16.1003L16.0403 11.8521V10.9721L16.1003 10.9121H18.9803ZM19.9803 11.9121L20.0403 11.9721V16.8521L19.9803 16.9121H19.1003L19.0403 16.8521V13.9721L19.1003 13.9121L19.0403 13.8521L18.9803 13.9121H18.1003L18.0403 13.8521V12.9721L18.1003 12.9121H18.9803L19.0403 12.9721L19.1003 12.9121L19.0403 12.8521V11.9721L19.1003 11.9121H19.9803ZM15.9803 11.9121L16.0403 11.9721V14.8521L15.9803 14.9121L16.0403 14.9721L16.1003 14.9121H16.9803L17.0403 14.9721V15.8521L16.9803 15.9121H16.1003L16.0403 15.8521L15.9803 15.9121L16.0403 15.9721V16.8521L15.9803 16.9121H15.1003L15.0403 16.8521V11.9721L15.1003 11.9121H15.9803ZM17.9803 13.9121L18.0403 13.9721V14.8521L17.9803 14.9121H17.1003L17.0403 14.8521V13.9721L17.1003 13.9121H17.9803ZM18.9803 16.9121L19.0403 16.9721V17.8521L18.9803 17.9121H16.1003L16.0403 17.8521V16.9721L16.1003 16.9121H18.9803Z" fill="#F5F5F5"/>
<path d="M32.3578 10.9121L32.4178 10.9721V16.8521L32.3578 16.9121L32.4178 16.9721L32.4778 16.9121H34.3578L34.4178 16.9721V17.8521L34.3578 17.9121H29.4778L29.4178 17.8521V16.9721L29.4778 16.9121H31.3578L31.4178 16.9721L31.4778 16.9121L31.4178 16.8521V12.9721L31.4778 12.9121L31.4178 12.8521L31.3578 12.9121H29.9778L29.9178 12.8521V11.9721L29.9778 11.9121H31.3578L31.4178 11.9721L31.4778 11.9121L31.4178 11.8521V10.9721L31.4778 10.9121H32.3578Z" fill="#F5F5F5"/>
<path d="M4.60315 0L4.66315 0.0600004V0.94L4.60315 1H1.72315L1.66315 0.94V0.0600004L1.72315 0H4.60315ZM5.60315 1L5.66315 1.06V5.94L5.60315 6H4.72315L4.66315 5.94V3.06L4.72315 3L4.66315 2.94L4.60315 3H3.72315L3.66315 2.94V2.06L3.72315 2H4.60315L4.66315 2.06L4.72315 2L4.66315 1.94V1.06L4.72315 1H5.60315ZM1.60315 1L1.66315 1.06V3.94L1.60315 4L1.66315 4.06L1.72315 4H2.60315L2.66315 4.06V4.94L2.60315 5H1.72315L1.66315 4.94L1.60315 5L1.66315 5.06V5.94L1.60315 6H0.723147L0.663147 5.94V1.06L0.723147 1H1.60315ZM3.60315 3L3.66315 3.06V3.94L3.60315 4H2.72315L2.66315 3.94V3.06L2.72315 3H3.60315ZM4.60315 6L4.66315 6.06V6.94L4.60315 7H1.72315L1.66315 6.94V6.06L1.72315 6H4.60315Z" fill="#F5F5F5"/>
<path d="M18.9803 0L19.0403 0.0600004V0.94L18.9803 1H16.1003L16.0403 0.94V0.0600004L16.1003 0H18.9803ZM19.9803 1L20.0403 1.06V5.94L19.9803 6H19.1003L19.0403 5.94V3.06L19.1003 3L19.0403 2.94L18.9803 3H18.1003L18.0403 2.94V2.06L18.1003 2H18.9803L19.0403 2.06L19.1003 2L19.0403 1.94V1.06L19.1003 1H19.9803ZM15.9803 1L16.0403 1.06V3.94L15.9803 4L16.0403 4.06L16.1003 4H16.9803L17.0403 4.06V4.94L16.9803 5H16.1003L16.0403 4.94L15.9803 5L16.0403 5.06V5.94L15.9803 6H15.1003L15.0403 5.94V1.06L15.1003 1H15.9803ZM17.9803 3L18.0403 3.06V3.94L17.9803 4H17.1003L17.0403 3.94V3.06L17.1003 3H17.9803ZM18.9803 6L19.0403 6.06V6.94L18.9803 7H16.1003L16.0403 6.94V6.06L16.1003 6H18.9803Z" fill="#F5F5F5"/>
<path d="M33.3578 0L33.4178 0.0600004V0.94L33.3578 1H30.4778L30.4178 0.94V0.0600004L30.4778 0H33.3578ZM34.3578 1L34.4178 1.06V5.94L34.3578 6H33.4778L33.4178 5.94V3.06L33.4778 3L33.4178 2.94L33.3578 3H32.4778L32.4178 2.94V2.06L32.4778 2H33.3578L33.4178 2.06L33.4778 2L33.4178 1.94V1.06L33.4778 1H34.3578ZM30.3578 1L30.4178 1.06V3.94L30.3578 4L30.4178 4.06L30.4778 4H31.3578L31.4178 4.06V4.94L31.3578 5H30.4778L30.4178 4.94L30.3578 5L30.4178 5.06V5.94L30.3578 6H29.4778L29.4178 5.94V1.06L29.4778 1H30.3578ZM32.3578 3L32.4178 3.06V3.94L32.3578 4H31.4778L31.4178 3.94V3.06L31.4778 3H32.3578ZM33.3578 6L33.4178 6.06V6.94L33.3578 7H30.4778L30.4178 6.94V6.06L30.4778 6H33.3578Z" fill="#F5F5F5"/>
<path d="M47.3648 58.5393H67.3648V78.5393H47.3648V58.5393Z" fill="#F5F5F5"/>
<path d="M27.3648 78.5393H47.3648L47.3648 98.5393H27.3648V78.5393Z" fill="#F5F5F5"/>
<path d="M7.36481 98.5393H27.3648V118.539H7.36481V98.5393Z" fill="#F5F5F5"/>
<path d="M92.2663 0L92.3263 0.0599998V9.94L92.2663 10H91.3863L91.3263 9.94V0.0599998L91.3863 0H92.2663Z" fill="#F5F5F5"/>
<path d="M92.2663 11L92.3263 11.06V20.94L92.2663 21H91.3863L91.3263 20.94V11.06L91.3863 11H92.2663Z" fill="#F5F5F5"/>
<path d="M92.2663 22L92.3263 22.06V31.94L92.2663 32H91.3863L91.3263 31.94V22.06L91.3863 22H92.2663Z" fill="#F5F5F5"/>
<path d="M92.2663 33L92.3263 33.06V42.94L92.2663 43H91.3863L91.3263 42.94V33.06L91.3863 33H92.2663Z" fill="#F5F5F5"/>
<path d="M92.2663 44L92.3263 44.06V53.94L92.2663 54H91.3863L91.3263 53.94V44.06L91.3863 44H92.2663Z" fill="#F5F5F5"/>
<path d="M92.2663 55L92.3263 55.06V64.94L92.2663 65H91.3863L91.3263 64.94V55.06L91.3863 55H92.2663Z" fill="#F5F5F5"/>
<path d="M92.2663 66L92.3263 66.06V75.94L92.2663 76H91.3863L91.3263 75.94V66.06L91.3863 66H92.2663Z" fill="#F5F5F5"/>
<path d="M92.2663 77L92.3263 77.06V86.94L92.2663 87H91.3863L91.3263 86.94V77.06L91.3863 77H92.2663Z" fill="#F5F5F5"/>
<path d="M92.2663 88L92.3263 88.06V97.94L92.2663 98H91.3863L91.3263 97.94V88.06L91.3863 88H92.2663Z" fill="#F5F5F5"/>
<path d="M92.2663 99L92.3263 99.06V108.94L92.2663 109H91.3863L91.3263 108.94V99.06L91.3863 99H92.2663Z" fill="#F5F5F5"/>
<path d="M92.2663 110L92.3263 110.06V119.94L92.2663 120H91.3863L91.3263 119.94V110.06L91.3863 110H92.2663Z" fill="#F5F5F5"/>
</svg>
