<svg width="92" height="120" viewBox="0 0 92 120" fill="none" xmlns="http://www.w3.org/2000/svg">
<path d="M4.39526 21.8242L4.4577 21.8842V22.7642L4.39526 22.8242H1.39797L1.33553 22.7642V21.8842L1.39797 21.8242H4.39526ZM5.43599 22.8242L5.49843 22.8842V27.7642L5.43599 27.8242H4.52015L4.4577 27.7642V24.8842L4.52015 24.8242L4.4577 24.7642L4.39526 24.8242H3.47942L3.41698 24.7642V23.8842L3.47942 23.8242H4.39526L4.4577 23.8842L4.52015 23.8242L4.4577 23.7642V22.8842L4.52015 22.8242H5.43599ZM1.27308 22.8242L1.33553 22.8842V25.7642L1.27308 25.8242L1.33553 25.8842L1.39797 25.8242H2.31381L2.37625 25.8842V26.7642L2.31381 26.8242H1.39797L1.33553 26.7642L1.27308 26.8242L1.33553 26.8842V27.7642L1.27308 27.8242H0.357243L0.2948 27.7642V22.8842L0.357243 22.8242H1.27308ZM3.35453 24.8242L3.41698 24.8842V25.7642L3.35453 25.8242H2.43869L2.37625 25.7642V24.8842L2.43869 24.8242H3.35453ZM4.39526 27.8242L4.4577 27.8842V28.7642L4.39526 28.8242H1.39797L1.33553 28.7642V27.8842L1.39797 27.8242H4.39526Z" fill="#F5F5F5"/>
<path d="M19.358 21.8242L19.4204 21.8842V22.7642L19.358 22.8242H16.3607L16.2982 22.7642V21.8842L16.3607 21.8242H19.358ZM20.3987 22.8242L20.4611 22.8842V27.7642L20.3987 27.8242H19.4829L19.4204 27.7642V24.8842L19.4829 24.8242L19.4204 24.7642L19.358 24.8242H18.4421L18.3797 24.7642V23.8842L18.4421 23.8242H19.358L19.4204 23.8842L19.4829 23.8242L19.4204 23.7642V22.8842L19.4829 22.8242H20.3987ZM16.2358 22.8242L16.2982 22.8842V25.7642L16.2358 25.8242L16.2982 25.8842L16.3607 25.8242H17.2765L17.339 25.8842V26.7642L17.2765 26.8242H16.3607L16.2982 26.7642L16.2358 26.8242L16.2982 26.8842V27.7642L16.2358 27.8242H15.32L15.2575 27.7642V22.8842L15.32 22.8242H16.2358ZM18.3173 24.8242L18.3797 24.8842V25.7642L18.3173 25.8242H17.4014L17.339 25.7642V24.8842L17.4014 24.8242H18.3173ZM19.358 27.8242L19.4204 27.8842V28.7642L19.358 28.8242H16.3607L16.2982 28.7642V27.8842L16.3607 27.8242H19.358Z" fill="#F5F5F5"/>
<path d="M76.8081 9.8L76.9579 9.944V12.056L76.8081 12.2H73.3612L73.2113 12.056L73.0615 12.2L73.2113 12.344V28.856L73.0615 29L73.2113 29.144L73.3612 29H76.8081L76.9579 29.144V31.256L76.8081 31.4H70.8635L70.7136 31.256V9.944L70.8635 9.8H76.8081Z" fill="#F5F5F5"/>
<path d="M34.3209 21.8242L34.3834 21.8842V22.7642L34.3209 22.8242H31.3237L31.2612 22.7642V21.8842L31.3237 21.8242H34.3209ZM35.3617 22.8242L35.4241 22.8842V27.7642L35.3617 27.8242H34.4458L34.3834 27.7642V24.8842L34.4458 24.8242L34.3834 24.7642L34.3209 24.8242H33.4051L33.3427 24.7642V23.8842L33.4051 23.8242H34.3209L34.3834 23.8842L34.4458 23.8242L34.3834 23.7642V22.8842L34.4458 22.8242H35.3617ZM31.1988 22.8242L31.2612 22.8842V25.7642L31.1988 25.8242L31.2612 25.8842L31.3237 25.8242H32.2395L32.3019 25.8842V26.7642L32.2395 26.8242H31.3237L31.2612 26.7642L31.1988 26.8242L31.2612 26.8842V27.7642L31.1988 27.8242H30.2829L30.2205 27.7642V22.8842L30.2829 22.8242H31.1988ZM33.2802 24.8242L33.3427 24.8842V25.7642L33.2802 25.8242H32.3644L32.3019 25.7642V24.8842L32.3644 24.8242H33.2802ZM34.3209 27.8242L34.3834 27.8842V28.7642L34.3209 28.8242H31.3237L31.2612 28.7642V27.8842L31.3237 27.8242H34.3209Z" fill="#F5F5F5"/>
<path d="M3.35453 10.9121L3.41698 10.9721V16.8521L3.35453 16.9121L3.41698 16.9721L3.47942 16.9121H5.43599L5.49843 16.9721V17.8521L5.43599 17.9121H0.357243L0.2948 17.8521V16.9721L0.357243 16.9121H2.31381L2.37625 16.9721L2.43869 16.9121L2.37625 16.8521V12.9721L2.43869 12.9121L2.37625 12.8521L2.31381 12.9121H0.877606L0.815163 12.8521V11.9721L0.877606 11.9121H2.31381L2.37625 11.9721L2.43869 11.9121L2.37625 11.8521V10.9721L2.43869 10.9121H3.35453Z" fill="#F5F5F5"/>
<path d="M19.358 10.9121L19.4204 10.9721V11.8521L19.358 11.9121H16.3607L16.2982 11.8521V10.9721L16.3607 10.9121H19.358ZM20.3987 11.9121L20.4611 11.9721V16.8521L20.3987 16.9121H19.4829L19.4204 16.8521V13.9721L19.4829 13.9121L19.4204 13.8521L19.358 13.9121H18.4421L18.3797 13.8521V12.9721L18.4421 12.9121H19.358L19.4204 12.9721L19.4829 12.9121L19.4204 12.8521V11.9721L19.4829 11.9121H20.3987ZM16.2358 11.9121L16.2982 11.9721V14.8521L16.2358 14.9121L16.2982 14.9721L16.3607 14.9121H17.2765L17.339 14.9721V15.8521L17.2765 15.9121H16.3607L16.2982 15.8521L16.2358 15.9121L16.2982 15.9721V16.8521L16.2358 16.9121H15.32L15.2575 16.8521V11.9721L15.32 11.9121H16.2358ZM18.3173 13.9121L18.3797 13.9721V14.8521L18.3173 14.9121H17.4014L17.339 14.8521V13.9721L17.4014 13.9121H18.3173ZM19.358 16.9121L19.4204 16.9721V17.8521L19.358 17.9121H16.3607L16.2982 17.8521V16.9721L16.3607 16.9121H19.358Z" fill="#F5F5F5"/>
<path d="M34.3209 10.9121L34.3834 10.9721V11.8521L34.3209 11.9121H31.3237L31.2612 11.8521V10.9721L31.3237 10.9121H34.3209ZM35.3617 11.9121L35.4241 11.9721V16.8521L35.3617 16.9121H34.4458L34.3834 16.8521V13.9721L34.4458 13.9121L34.3834 13.8521L34.3209 13.9121H33.4051L33.3427 13.8521V12.9721L33.4051 12.9121H34.3209L34.3834 12.9721L34.4458 12.9121L34.3834 12.8521V11.9721L34.4458 11.9121H35.3617ZM31.1988 11.9121L31.2612 11.9721V14.8521L31.1988 14.9121L31.2612 14.9721L31.3237 14.9121H32.2395L32.3019 14.9721V15.8521L32.2395 15.9121H31.3237L31.2612 15.8521L31.1988 15.9121L31.2612 15.9721V16.8521L31.1988 16.9121H30.2829L30.2205 16.8521V11.9721L30.2829 11.9121H31.1988ZM33.2802 13.9121L33.3427 13.9721V14.8521L33.2802 14.9121H32.3644L32.3019 14.8521V13.9721L32.3644 13.9121H33.2802ZM34.3209 16.9121L34.3834 16.9721V17.8521L34.3209 17.9121H31.3237L31.2612 17.8521V16.9721L31.3237 16.9121H34.3209Z" fill="#F5F5F5"/>
<path d="M4.39526 0L4.4577 0.0600004V0.94L4.39526 1H1.39797L1.33553 0.94V0.0600004L1.39797 0H4.39526ZM5.43599 1L5.49843 1.06V5.94L5.43599 6H4.52015L4.4577 5.94V3.06L4.52015 3L4.4577 2.94L4.39526 3H3.47942L3.41698 2.94V2.06L3.47942 2H4.39526L4.4577 2.06L4.52015 2L4.4577 1.94V1.06L4.52015 1H5.43599ZM1.27308 1L1.33553 1.06V3.94L1.27308 4L1.33553 4.06L1.39797 4H2.31381L2.37625 4.06V4.94L2.31381 5H1.39797L1.33553 4.94L1.27308 5L1.33553 5.06V5.94L1.27308 6H0.357243L0.2948 5.94V1.06L0.357243 1H1.27308ZM3.35453 3L3.41698 3.06V3.94L3.35453 4H2.43869L2.37625 3.94V3.06L2.43869 3H3.35453ZM4.39526 6L4.4577 6.06V6.94L4.39526 7H1.39797L1.33553 6.94V6.06L1.39797 6H4.39526Z" fill="#F5F5F5"/>
<path d="M19.358 0L19.4204 0.0600004V0.94L19.358 1H16.3607L16.2982 0.94V0.0600004L16.3607 0H19.358ZM20.3987 1L20.4611 1.06V5.94L20.3987 6H19.4829L19.4204 5.94V3.06L19.4829 3L19.4204 2.94L19.358 3H18.4421L18.3797 2.94V2.06L18.4421 2H19.358L19.4204 2.06L19.4829 2L19.4204 1.94V1.06L19.4829 1H20.3987ZM16.2358 1L16.2982 1.06V3.94L16.2358 4L16.2982 4.06L16.3607 4H17.2765L17.339 4.06V4.94L17.2765 5H16.3607L16.2982 4.94L16.2358 5L16.2982 5.06V5.94L16.2358 6H15.32L15.2575 5.94V1.06L15.32 1H16.2358ZM18.3173 3L18.3797 3.06V3.94L18.3173 4H17.4014L17.339 3.94V3.06L17.4014 3H18.3173ZM19.358 6L19.4204 6.06V6.94L19.358 7H16.3607L16.2982 6.94V6.06L16.3607 6H19.358Z" fill="#F5F5F5"/>
<path d="M34.3209 0L34.3834 0.0600004V0.94L34.3209 1H31.3237L31.2612 0.94V0.0600004L31.3237 0H34.3209ZM35.3617 1L35.4241 1.06V5.94L35.3617 6H34.4458L34.3834 5.94V3.06L34.4458 3L34.3834 2.94L34.3209 3H33.4051L33.3427 2.94V2.06L33.4051 2H34.3209L34.3834 2.06L34.4458 2L34.3834 1.94V1.06L34.4458 1H35.3617ZM31.1988 1L31.2612 1.06V3.94L31.1988 4L31.2612 4.06L31.3237 4H32.2395L32.3019 4.06V4.94L32.2395 5H31.3237L31.2612 4.94L31.1988 5L31.2612 5.06V5.94L31.1988 6H30.2829L30.2205 5.94V1.06L30.2829 1H31.1988ZM33.2802 3L33.3427 3.06V3.94L33.2802 4H32.3644L32.3019 3.94V3.06L32.3644 3H33.2802ZM34.3209 6L34.3834 6.06V6.94L34.3209 7H31.3237L31.2612 6.94V6.06L31.3237 6H34.3209Z" fill="#F5F5F5"/>
<path d="M7.30814 78.5393H28.1227V98.5393H7.30814V78.5393Z" fill="#F5F5F5"/>
<path d="M91.898 0L91.958 0.0599998V9.94L91.898 10H91.018L90.958 9.94V0.0599998L91.018 0H91.898Z" fill="#F5F5F5"/>
<path d="M91.898 11L91.958 11.06V20.94L91.898 21H91.018L90.958 20.94V11.06L91.018 11H91.898Z" fill="#F5F5F5"/>
<path d="M91.898 22L91.958 22.06V31.94L91.898 32H91.018L90.958 31.94V22.06L91.018 22H91.898Z" fill="#F5F5F5"/>
<path d="M91.898 33L91.958 33.06V42.94L91.898 43H91.018L90.958 42.94V33.06L91.018 33H91.898Z" fill="#F5F5F5"/>
<path d="M91.898 44L91.958 44.06V53.94L91.898 54H91.018L90.958 53.94V44.06L91.018 44H91.898Z" fill="#F5F5F5"/>
<path d="M91.898 55L91.958 55.06V64.94L91.898 65H91.018L90.958 64.94V55.06L91.018 55H91.898Z" fill="#F5F5F5"/>
<path d="M91.898 66L91.958 66.06V75.94L91.898 76H91.018L90.958 75.94V66.06L91.018 66H91.898Z" fill="#F5F5F5"/>
<path d="M91.898 77L91.958 77.06V86.94L91.898 87H91.018L90.958 86.94V77.06L91.018 77H91.898Z" fill="#F5F5F5"/>
<path d="M91.898 88L91.958 88.06V97.94L91.898 98H91.018L90.958 97.94V88.06L91.018 88H91.898Z" fill="#F5F5F5"/>
<path d="M91.898 99L91.958 99.06V108.94L91.898 109H91.018L90.958 108.94V99.06L91.018 99H91.898Z" fill="#F5F5F5"/>
<path d="M91.898 110L91.958 110.06V119.94L91.898 120H91.018L90.958 119.94V110.06L91.018 110H91.898Z" fill="#F5F5F5"/>
</svg>
