<svg width="93" height="120" viewBox="0 0 93 120" fill="none" xmlns="http://www.w3.org/2000/svg">
<path d="M4.99209 21.8242L5.05305 21.8842V22.7642L4.99209 22.8242H2.0663L2.00534 22.7642V21.8842L2.0663 21.8242H4.99209ZM6.008 22.8242L6.06895 22.8842V27.7642L6.008 27.8242H5.114L5.05305 27.7642V24.8842L5.114 24.8242L5.05305 24.7642L4.99209 24.8242H4.0981L4.03715 24.7642V23.8842L4.0981 23.8242H4.99209L5.05305 23.8842L5.114 23.8242L5.05305 23.7642V22.8842L5.114 22.8242H6.008ZM1.94439 22.8242L2.00534 22.8842V25.7642L1.94439 25.8242L2.00534 25.8842L2.0663 25.8242H2.96029L3.02124 25.8842V26.7642L2.96029 26.8242H2.0663L2.00534 26.7642L1.94439 26.8242L2.00534 26.8842V27.7642L1.94439 27.8242H1.05039L0.989441 27.7642V22.8842L1.05039 22.8242H1.94439ZM3.97619 24.8242L4.03715 24.8842V25.7642L3.97619 25.8242H3.0822L3.02124 25.7642V24.8842L3.0822 24.8242H3.97619ZM4.99209 27.8242L5.05305 27.8842V28.7642L4.99209 28.8242H2.0663L2.00534 28.7642V27.8842L2.0663 27.8242H4.99209Z" fill="#F5F5F5"/>
<path d="M19.5979 21.8242L19.6589 21.8842V22.7642L19.5979 22.8242H16.6721L16.6112 22.7642V21.8842L16.6721 21.8242H19.5979ZM20.6138 22.8242L20.6748 22.8842V27.7642L20.6138 27.8242H19.7198L19.6589 27.7642V24.8842L19.7198 24.8242L19.6589 24.7642L19.5979 24.8242H18.7039L18.643 24.7642V23.8842L18.7039 23.8242H19.5979L19.6589 23.8842L19.7198 23.8242L19.6589 23.7642V22.8842L19.7198 22.8242H20.6138ZM16.5502 22.8242L16.6112 22.8842V25.7642L16.5502 25.8242L16.6112 25.8842L16.6721 25.8242H17.5661L17.6271 25.8842V26.7642L17.5661 26.8242H16.6721L16.6112 26.7642L16.5502 26.8242L16.6112 26.8842V27.7642L16.5502 27.8242H15.6562L15.5953 27.7642V22.8842L15.6562 22.8242H16.5502ZM18.582 24.8242L18.643 24.8842V25.7642L18.582 25.8242H17.688L17.6271 25.7642V24.8842L17.688 24.8242H18.582ZM19.5979 27.8242L19.6589 27.8842V28.7642L19.5979 28.8242H16.6721L16.6112 28.7642V27.8842L16.6721 27.8242H19.5979Z" fill="#F5F5F5"/>
<path d="M77.5063 17L77.6526 17.144V19.256L77.5063 19.4H68.0462L67.8999 19.256V17.144L68.0462 17H77.5063ZM77.5063 21.8L77.6526 21.944V24.056L77.5063 24.2H68.0462L67.8999 24.056V21.944L68.0462 21.8H77.5063Z" fill="#F5F5F5"/>
<path d="M34.204 21.8242L34.2649 21.8842V22.7642L34.204 22.8242H31.2782L31.2172 22.7642V21.8842L31.2782 21.8242H34.204ZM35.2199 22.8242L35.2808 22.8842V27.7642L35.2199 27.8242H34.3259L34.2649 27.7642V24.8842L34.3259 24.8242L34.2649 24.7642L34.204 24.8242H33.31L33.249 24.7642V23.8842L33.31 23.8242H34.204L34.2649 23.8842L34.3259 23.8242L34.2649 23.7642V22.8842L34.3259 22.8242H35.2199ZM31.1563 22.8242L31.2172 22.8842V25.7642L31.1563 25.8242L31.2172 25.8842L31.2782 25.8242H32.1722L32.2331 25.8842V26.7642L32.1722 26.8242H31.2782L31.2172 26.7642L31.1563 26.8242L31.2172 26.8842V27.7642L31.1563 27.8242H30.2623L30.2013 27.7642V22.8842L30.2623 22.8242H31.1563ZM33.1881 24.8242L33.249 24.8842V25.7642L33.1881 25.8242H32.2941L32.2331 25.7642V24.8842L32.2941 24.8242H33.1881ZM34.204 27.8242L34.2649 27.8842V28.7642L34.204 28.8242H31.2782L31.2172 28.7642V27.8842L31.2782 27.8242H34.204Z" fill="#F5F5F5"/>
<path d="M4.99209 10.9121L5.05305 10.9721V11.8521L4.99209 11.9121H2.0663L2.00534 11.8521V10.9721L2.0663 10.9121H4.99209ZM6.008 11.9121L6.06895 11.9721V16.8521L6.008 16.9121H5.114L5.05305 16.8521V13.9721L5.114 13.9121L5.05305 13.8521L4.99209 13.9121H4.0981L4.03715 13.8521V12.9721L4.0981 12.9121H4.99209L5.05305 12.9721L5.114 12.9121L5.05305 12.8521V11.9721L5.114 11.9121H6.008ZM1.94439 11.9121L2.00534 11.9721V14.8521L1.94439 14.9121L2.00534 14.9721L2.0663 14.9121H2.96029L3.02124 14.9721V15.8521L2.96029 15.9121H2.0663L2.00534 15.8521L1.94439 15.9121L2.00534 15.9721V16.8521L1.94439 16.9121H1.05039L0.989441 16.8521V11.9721L1.05039 11.9121H1.94439ZM3.97619 13.9121L4.03715 13.9721V14.8521L3.97619 14.9121H3.0822L3.02124 14.8521V13.9721L3.0822 13.9121H3.97619ZM4.99209 16.9121L5.05305 16.9721V17.8521L4.99209 17.9121H2.0663L2.00534 17.8521V16.9721L2.0663 16.9121H4.99209Z" fill="#F5F5F5"/>
<path d="M19.5979 10.9121L19.6589 10.9721V11.8521L19.5979 11.9121H16.6721L16.6112 11.8521V10.9721L16.6721 10.9121H19.5979ZM20.6138 11.9121L20.6748 11.9721V16.8521L20.6138 16.9121H19.7198L19.6589 16.8521V13.9721L19.7198 13.9121L19.6589 13.8521L19.5979 13.9121H18.7039L18.643 13.8521V12.9721L18.7039 12.9121H19.5979L19.6589 12.9721L19.7198 12.9121L19.6589 12.8521V11.9721L19.7198 11.9121H20.6138ZM16.5502 11.9121L16.6112 11.9721V14.8521L16.5502 14.9121L16.6112 14.9721L16.6721 14.9121H17.5661L17.6271 14.9721V15.8521L17.5661 15.9121H16.6721L16.6112 15.8521L16.5502 15.9121L16.6112 15.9721V16.8521L16.5502 16.9121H15.6562L15.5953 16.8521V11.9721L15.6562 11.9121H16.5502ZM18.582 13.9121L18.643 13.9721V14.8521L18.582 14.9121H17.688L17.6271 14.8521V13.9721L17.688 13.9121H18.582ZM19.5979 16.9121L19.6589 16.9721V17.8521L19.5979 17.9121H16.6721L16.6112 17.8521V16.9721L16.6721 16.9121H19.5979Z" fill="#F5F5F5"/>
<path d="M33.1881 10.9121L33.249 10.9721V16.8521L33.1881 16.9121L33.249 16.9721L33.31 16.9121H35.2199L35.2808 16.9721V17.8521L35.2199 17.9121H30.2623L30.2013 17.8521V16.9721L30.2623 16.9121H32.1722L32.2331 16.9721L32.2941 16.9121L32.2331 16.8521V12.9721L32.2941 12.9121L32.2331 12.8521L32.1722 12.9121H30.7702L30.7093 12.8521V11.9721L30.7702 11.9121H32.1722L32.2331 11.9721L32.2941 11.9121L32.2331 11.8521V10.9721L32.2941 10.9121H33.1881Z" fill="#F5F5F5"/>
<path d="M4.99209 0L5.05305 0.0600004V0.94L4.99209 1H2.0663L2.00534 0.94V0.0600004L2.0663 0H4.99209ZM6.008 1L6.06895 1.06V5.94L6.008 6H5.114L5.05305 5.94V3.06L5.114 3L5.05305 2.94L4.99209 3H4.0981L4.03715 2.94V2.06L4.0981 2H4.99209L5.05305 2.06L5.114 2L5.05305 1.94V1.06L5.114 1H6.008ZM1.94439 1L2.00534 1.06V3.94L1.94439 4L2.00534 4.06L2.0663 4H2.96029L3.02124 4.06V4.94L2.96029 5H2.0663L2.00534 4.94L1.94439 5L2.00534 5.06V5.94L1.94439 6H1.05039L0.989441 5.94V1.06L1.05039 1H1.94439ZM3.97619 3L4.03715 3.06V3.94L3.97619 4H3.0822L3.02124 3.94V3.06L3.0822 3H3.97619ZM4.99209 6L5.05305 6.06V6.94L4.99209 7H2.0663L2.00534 6.94V6.06L2.0663 6H4.99209Z" fill="#F5F5F5"/>
<path d="M19.5979 0L19.6589 0.0600004V0.94L19.5979 1H16.6721L16.6112 0.94V0.0600004L16.6721 0H19.5979ZM20.6138 1L20.6748 1.06V5.94L20.6138 6H19.7198L19.6589 5.94V3.06L19.7198 3L19.6589 2.94L19.5979 3H18.7039L18.643 2.94V2.06L18.7039 2H19.5979L19.6589 2.06L19.7198 2L19.6589 1.94V1.06L19.7198 1H20.6138ZM16.5502 1L16.6112 1.06V3.94L16.5502 4L16.6112 4.06L16.6721 4H17.5661L17.6271 4.06V4.94L17.5661 5H16.6721L16.6112 4.94L16.5502 5L16.6112 5.06V5.94L16.5502 6H15.6562L15.5953 5.94V1.06L15.6562 1H16.5502ZM18.582 3L18.643 3.06V3.94L18.582 4H17.688L17.6271 3.94V3.06L17.688 3H18.582ZM19.5979 6L19.6589 6.06V6.94L19.5979 7H16.6721L16.6112 6.94V6.06L16.6721 6H19.5979Z" fill="#F5F5F5"/>
<path d="M34.204 0L34.2649 0.0600004V0.94L34.204 1H31.2782L31.2172 0.94V0.0600004L31.2782 0H34.204ZM35.2199 1L35.2808 1.06V5.94L35.2199 6H34.3259L34.2649 5.94V3.06L34.3259 3L34.2649 2.94L34.204 3H33.31L33.249 2.94V2.06L33.31 2H34.204L34.2649 2.06L34.3259 2L34.2649 1.94V1.06L34.3259 1H35.2199ZM31.1563 1L31.2172 1.06V3.94L31.1563 4L31.2172 4.06L31.2782 4H32.1722L32.2331 4.06V4.94L32.1722 5H31.2782L31.2172 4.94L31.1563 5L31.2172 5.06V5.94L31.1563 6H30.2623L30.2013 5.94V1.06L30.2623 1H31.1563ZM33.1881 3L33.249 3.06V3.94L33.1881 4H32.2941L32.2331 3.94V3.06L32.2941 3H33.1881ZM34.204 6L34.2649 6.06V6.94L34.204 7H31.2782L31.2172 6.94V6.06L31.2782 6H34.204Z" fill="#F5F5F5"/>
<path d="M48.4337 98.5393H68.7518V118.539H48.4337V98.5393Z" fill="#F5F5F5"/>
<path d="M48.3959 58.0627H68.7139V78.0627H48.3959V58.0627Z" fill="#F5F5F5"/>
<path d="M28.1157 98.5393H48.4337V118.539H28.1157V98.5393Z" fill="#F5F5F5"/>
<path d="M28.0779 58.0627H48.3959V78.0627H28.0779V58.0627Z" fill="#F5F5F5"/>
<path d="M7.79767 98.5393H28.1157V118.539H7.79767V98.5393Z" fill="#F5F5F5"/>
<path d="M7.75985 58.0627H28.0779V78.0627H7.75985V58.0627Z" fill="#F5F5F5"/>
<path d="M92.5926 0L92.6526 0.0599998V9.94L92.5926 10H91.7126L91.6526 9.94V0.0599998L91.7126 0H92.5926Z" fill="#F5F5F5"/>
<path d="M92.5926 11L92.6526 11.06V20.94L92.5926 21H91.7126L91.6526 20.94V11.06L91.7126 11H92.5926Z" fill="#F5F5F5"/>
<path d="M92.5926 22L92.6526 22.06V31.94L92.5926 32H91.7126L91.6526 31.94V22.06L91.7126 22H92.5926Z" fill="#F5F5F5"/>
<path d="M92.5926 33L92.6526 33.06V42.94L92.5926 43H91.7126L91.6526 42.94V33.06L91.7126 33H92.5926Z" fill="#F5F5F5"/>
<path d="M92.5926 44L92.6526 44.06V53.94L92.5926 54H91.7126L91.6526 53.94V44.06L91.7126 44H92.5926Z" fill="#F5F5F5"/>
<path d="M92.5926 55L92.6526 55.06V64.94L92.5926 65H91.7126L91.6526 64.94V55.06L91.7126 55H92.5926Z" fill="#F5F5F5"/>
<path d="M92.5926 66L92.6526 66.06V75.94L92.5926 76H91.7126L91.6526 75.94V66.06L91.7126 66H92.5926Z" fill="#F5F5F5"/>
<path d="M92.5926 77L92.6526 77.06V86.94L92.5926 87H91.7126L91.6526 86.94V77.06L91.7126 77H92.5926Z" fill="#F5F5F5"/>
<path d="M92.5926 88L92.6526 88.06V97.94L92.5926 98H91.7126L91.6526 97.94V88.06L91.7126 88H92.5926Z" fill="#F5F5F5"/>
<path d="M92.5926 99L92.6526 99.06V108.94L92.5926 109H91.7126L91.6526 108.94V99.06L91.7126 99H92.5926Z" fill="#F5F5F5"/>
<path d="M92.5926 110L92.6526 110.06V119.94L92.5926 120H91.7126L91.6526 119.94V110.06L91.7126 110H92.5926Z" fill="#F5F5F5"/>
</svg>
