<svg width="92" height="120" viewBox="0 0 92 120" fill="none" xmlns="http://www.w3.org/2000/svg">
<path d="M3.2348 21.8242L3.2948 21.8842V27.7642L3.2348 27.8242L3.2948 27.8842L3.3548 27.8242H5.2348L5.2948 27.8842V28.7642L5.2348 28.8242H0.3548L0.2948 28.7642V27.8842L0.3548 27.8242H2.2348L2.2948 27.8842L2.3548 27.8242L2.2948 27.7642V23.8842L2.3548 23.8242L2.2948 23.7642L2.2348 23.8242H0.8548L0.7948 23.7642V22.8842L0.8548 22.8242H2.2348L2.2948 22.8842L2.3548 22.8242L2.2948 22.7642V21.8842L2.3548 21.8242H3.2348Z" fill="#F5F5F5"/>
<path d="M17.612 21.8242L17.672 21.8842V27.7642L17.612 27.8242L17.672 27.8842L17.732 27.8242H19.612L19.672 27.8842V28.7642L19.612 28.8242H14.732L14.672 28.7642V27.8842L14.732 27.8242H16.612L16.672 27.8842L16.732 27.8242L16.672 27.7642V23.8842L16.732 23.8242L16.672 23.7642L16.612 23.8242H15.232L15.172 23.7642V22.8842L15.232 22.8242H16.612L16.672 22.8842L16.732 22.8242L16.672 22.7642V21.8842L16.732 21.8242H17.612Z" fill="#F5F5F5"/>
<path d="M76.814 12.2L76.958 12.344V16.856L76.814 17H74.702L74.558 16.856V14.744L74.702 14.6L74.558 14.456L74.414 14.6H65.102L64.958 14.456V12.344L65.102 12.2H76.814ZM74.414 17L74.558 17.144V19.256L74.414 19.4H72.302L72.158 19.256V17.144L72.302 17H74.414ZM72.014 19.4L72.158 19.544V21.656L72.014 21.8H69.902L69.758 21.656V19.544L69.902 19.4H72.014ZM69.614 21.8L69.758 21.944V24.056L69.614 24.2H67.502L67.358 24.056V21.944L67.502 21.8H69.614ZM67.214 24.2L67.358 24.344V26.456L67.214 26.6L67.358 26.744L67.502 26.6H76.814L76.958 26.744V28.856L76.814 29H65.102L64.958 28.856V24.344L65.102 24.2H67.214Z" fill="#F5F5F5"/>
<path d="M31.9894 21.8242L32.0494 21.8842V27.7642L31.9894 27.8242L32.0494 27.8842L32.1094 27.8242H33.9894L34.0494 27.8842V28.7642L33.9894 28.8242H29.1094L29.0494 28.7642V27.8842L29.1094 27.8242H30.9894L31.0494 27.8842L31.1094 27.8242L31.0494 27.7642V23.8842L31.1094 23.8242L31.0494 23.7642L30.9894 23.8242H29.6094L29.5494 23.7642V22.8842L29.6094 22.8242H30.9894L31.0494 22.8842L31.1094 22.8242L31.0494 22.7642V21.8842L31.1094 21.8242H31.9894Z" fill="#F5F5F5"/>
<path d="M4.2348 10.9121L4.2948 10.9721V11.8521L4.2348 11.9121H1.3548L1.2948 11.8521V10.9721L1.3548 10.9121H4.2348ZM5.2348 11.9121L5.2948 11.9721V16.8521L5.2348 16.9121H4.3548L4.2948 16.8521V13.9721L4.3548 13.9121L4.2948 13.8521L4.2348 13.9121H3.3548L3.2948 13.8521V12.9721L3.3548 12.9121H4.2348L4.2948 12.9721L4.3548 12.9121L4.2948 12.8521V11.9721L4.3548 11.9121H5.2348ZM1.2348 11.9121L1.2948 11.9721V14.8521L1.2348 14.9121L1.2948 14.9721L1.3548 14.9121H2.2348L2.2948 14.9721V15.8521L2.2348 15.9121H1.3548L1.2948 15.8521L1.2348 15.9121L1.2948 15.9721V16.8521L1.2348 16.9121H0.3548L0.2948 16.8521V11.9721L0.3548 11.9121H1.2348ZM3.2348 13.9121L3.2948 13.9721V14.8521L3.2348 14.9121H2.3548L2.2948 14.8521V13.9721L2.3548 13.9121H3.2348ZM4.2348 16.9121L4.2948 16.9721V17.8521L4.2348 17.9121H1.3548L1.2948 17.8521V16.9721L1.3548 16.9121H4.2348Z" fill="#F5F5F5"/>
<path d="M18.612 10.9121L18.672 10.9721V11.8521L18.612 11.9121H15.732L15.672 11.8521V10.9721L15.732 10.9121H18.612ZM19.612 11.9121L19.672 11.9721V16.8521L19.612 16.9121H18.732L18.672 16.8521V13.9721L18.732 13.9121L18.672 13.8521L18.612 13.9121H17.732L17.672 13.8521V12.9721L17.732 12.9121H18.612L18.672 12.9721L18.732 12.9121L18.672 12.8521V11.9721L18.732 11.9121H19.612ZM15.612 11.9121L15.672 11.9721V14.8521L15.612 14.9121L15.672 14.9721L15.732 14.9121H16.612L16.672 14.9721V15.8521L16.612 15.9121H15.732L15.672 15.8521L15.612 15.9121L15.672 15.9721V16.8521L15.612 16.9121H14.732L14.672 16.8521V11.9721L14.732 11.9121H15.612ZM17.612 13.9121L17.672 13.9721V14.8521L17.612 14.9121H16.732L16.672 14.8521V13.9721L16.732 13.9121H17.612ZM18.612 16.9121L18.672 16.9721V17.8521L18.612 17.9121H15.732L15.672 17.8521V16.9721L15.732 16.9121H18.612Z" fill="#F5F5F5"/>
<path d="M32.9894 10.9121L33.0494 10.9721V11.8521L32.9894 11.9121H30.1094L30.0494 11.8521V10.9721L30.1094 10.9121H32.9894ZM33.9894 11.9121L34.0494 11.9721V16.8521L33.9894 16.9121H33.1094L33.0494 16.8521V13.9721L33.1094 13.9121L33.0494 13.8521L32.9894 13.9121H32.1094L32.0494 13.8521V12.9721L32.1094 12.9121H32.9894L33.0494 12.9721L33.1094 12.9121L33.0494 12.8521V11.9721L33.1094 11.9121H33.9894ZM29.9894 11.9121L30.0494 11.9721V14.8521L29.9894 14.9121L30.0494 14.9721L30.1094 14.9121H30.9894L31.0494 14.9721V15.8521L30.9894 15.9121H30.1094L30.0494 15.8521L29.9894 15.9121L30.0494 15.9721V16.8521L29.9894 16.9121H29.1094L29.0494 16.8521V11.9721L29.1094 11.9121H29.9894ZM31.9894 13.9121L32.0494 13.9721V14.8521L31.9894 14.9121H31.1094L31.0494 14.8521V13.9721L31.1094 13.9121H31.9894ZM32.9894 16.9121L33.0494 16.9721V17.8521L32.9894 17.9121H30.1094L30.0494 17.8521V16.9721L30.1094 16.9121H32.9894Z" fill="#F5F5F5"/>
<path d="M3.2348 0L3.2948 0.0600004V5.94L3.2348 6L3.2948 6.06L3.3548 6H5.2348L5.2948 6.06V6.94L5.2348 7H0.3548L0.2948 6.94V6.06L0.3548 6H2.2348L2.2948 6.06L2.3548 6L2.2948 5.94V2.06L2.3548 2L2.2948 1.94L2.2348 2H0.8548L0.7948 1.94V1.06L0.8548 1H2.2348L2.2948 1.06L2.3548 1L2.2948 0.94V0.0600004L2.3548 0H3.2348Z" fill="#F5F5F5"/>
<path d="M17.612 0L17.672 0.0600004V5.94L17.612 6L17.672 6.06L17.732 6H19.612L19.672 6.06V6.94L19.612 7H14.732L14.672 6.94V6.06L14.732 6H16.612L16.672 6.06L16.732 6L16.672 5.94V2.06L16.732 2L16.672 1.94L16.612 2H15.232L15.172 1.94V1.06L15.232 1H16.612L16.672 1.06L16.732 1L16.672 0.94V0.0600004L16.732 0H17.612Z" fill="#F5F5F5"/>
<path d="M32.9894 0L33.0494 0.0600004V0.94L32.9894 1H30.1094L30.0494 0.94V0.0600004L30.1094 0H32.9894ZM33.9894 1L34.0494 1.06V5.94L33.9894 6H33.1094L33.0494 5.94V3.06L33.1094 3L33.0494 2.94L32.9894 3H32.1094L32.0494 2.94V2.06L32.1094 2H32.9894L33.0494 2.06L33.1094 2L33.0494 1.94V1.06L33.1094 1H33.9894ZM29.9894 1L30.0494 1.06V3.94L29.9894 4L30.0494 4.06L30.1094 4H30.9894L31.0494 4.06V4.94L30.9894 5H30.1094L30.0494 4.94L29.9894 5L30.0494 5.06V5.94L29.9894 6H29.1094L29.0494 5.94V1.06L29.1094 1H29.9894ZM31.9894 3L32.0494 3.06V3.94L31.9894 4H31.1094L31.0494 3.94V3.06L31.1094 3H31.9894ZM32.9894 6L33.0494 6.06V6.94L32.9894 7H30.1094L30.0494 6.94V6.06L30.1094 6H32.9894Z" fill="#F5F5F5"/>
<path d="M6.99646 58.5393H26.9965V78.5393H6.99646V58.5393Z" fill="#F5F5F5"/>
<path d="M26.9965 58.5393H46.9965V78.5393H26.9965V58.5393Z" fill="#F5F5F5"/>
<path d="M6.99646 98.5393H26.9965V118.539H6.99646V98.5393Z" fill="#F5F5F5"/>
<path d="M26.9965 98.5393H46.9965V118.539H26.9965V98.5393Z" fill="#F5F5F5"/>
<path d="M46.9965 98.5393H66.9965V118.539H46.9965V98.5393Z" fill="#F5F5F5"/>
<path d="M91.898 0L91.958 0.0599998V9.94L91.898 10H91.018L90.958 9.94V0.0599998L91.018 0H91.898Z" fill="#F5F5F5"/>
<path d="M91.898 11L91.958 11.06V20.94L91.898 21H91.018L90.958 20.94V11.06L91.018 11H91.898Z" fill="#F5F5F5"/>
<path d="M91.898 22L91.958 22.06V31.94L91.898 32H91.018L90.958 31.94V22.06L91.018 22H91.898Z" fill="#F5F5F5"/>
<path d="M91.898 33L91.958 33.06V42.94L91.898 43H91.018L90.958 42.94V33.06L91.018 33H91.898Z" fill="#F5F5F5"/>
<path d="M91.898 44L91.958 44.06V53.94L91.898 54H91.018L90.958 53.94V44.06L91.018 44H91.898Z" fill="#F5F5F5"/>
<path d="M91.898 55L91.958 55.06V64.94L91.898 65H91.018L90.958 64.94V55.06L91.018 55H91.898Z" fill="#F5F5F5"/>
<path d="M91.898 66L91.958 66.06V75.94L91.898 76H91.018L90.958 75.94V66.06L91.018 66H91.898Z" fill="#F5F5F5"/>
<path d="M91.898 77L91.958 77.06V86.94L91.898 87H91.018L90.958 86.94V77.06L91.018 77H91.898Z" fill="#F5F5F5"/>
<path d="M91.898 88L91.958 88.06V97.94L91.898 98H91.018L90.958 97.94V88.06L91.018 88H91.898Z" fill="#F5F5F5"/>
<path d="M91.898 99L91.958 99.06V108.94L91.898 109H91.018L90.958 108.94V99.06L91.018 99H91.898Z" fill="#F5F5F5"/>
<path d="M91.898 110L91.958 110.06V119.94L91.898 120H91.018L90.958 119.94V110.06L91.018 110H91.898Z" fill="#F5F5F5"/>
</svg>
