<svg width="93" height="120" viewBox="0 0 93 120" fill="none" xmlns="http://www.w3.org/2000/svg">
<path d="M4.57159 21.8242L4.63159 21.8842V22.7642L4.57159 22.8242H1.69159L1.63159 22.7642V21.8842L1.69159 21.8242H4.57159ZM5.57159 22.8242L5.6316 22.8842V27.7642L5.57159 27.8242H4.69159L4.63159 27.7642V24.8842L4.69159 24.8242L4.63159 24.7642L4.57159 24.8242H3.69159L3.63159 24.7642V23.8842L3.69159 23.8242H4.57159L4.63159 23.8842L4.69159 23.8242L4.63159 23.7642V22.8842L4.69159 22.8242H5.57159ZM1.57159 22.8242L1.63159 22.8842V25.7642L1.57159 25.8242L1.63159 25.8842L1.69159 25.8242H2.57159L2.63159 25.8842V26.7642L2.57159 26.8242H1.69159L1.63159 26.7642L1.57159 26.8242L1.63159 26.8842V27.7642L1.57159 27.8242H0.691592L0.631592 27.7642V22.8842L0.691592 22.8242H1.57159ZM3.57159 24.8242L3.63159 24.8842V25.7642L3.57159 25.8242H2.69159L2.63159 25.7642V24.8842L2.69159 24.8242H3.57159ZM4.57159 27.8242L4.63159 27.8842V28.7642L4.57159 28.8242H1.69159L1.63159 28.7642V27.8842L1.69159 27.8242H4.57159Z" fill="#F5F5F5"/>
<path d="M18.9488 21.8242L19.0088 21.8842V22.7642L18.9488 22.8242H16.0688L16.0088 22.7642V21.8842L16.0688 21.8242H18.9488ZM19.9488 22.8242L20.0088 22.8842V27.7642L19.9488 27.8242H19.0688L19.0088 27.7642V24.8842L19.0688 24.8242L19.0088 24.7642L18.9488 24.8242H18.0688L18.0088 24.7642V23.8842L18.0688 23.8242H18.9488L19.0088 23.8842L19.0688 23.8242L19.0088 23.7642V22.8842L19.0688 22.8242H19.9488ZM15.9488 22.8242L16.0088 22.8842V25.7642L15.9488 25.8242L16.0088 25.8842L16.0688 25.8242H16.9488L17.0088 25.8842V26.7642L16.9488 26.8242H16.0688L16.0088 26.7642L15.9488 26.8242L16.0088 26.8842V27.7642L15.9488 27.8242H15.0688L15.0088 27.7642V22.8842L15.0688 22.8242H15.9488ZM17.9488 24.8242L18.0088 24.8842V25.7642L17.9488 25.8242H17.0688L17.0088 25.7642V24.8842L17.0688 24.8242H17.9488ZM18.9488 27.8242L19.0088 27.8842V28.7642L18.9488 28.8242H16.0688L16.0088 28.7642V27.8842L16.0688 27.8242H18.9488Z" fill="#F5F5F5"/>
<path d="M77.1508 29L77.2948 29.144V31.256L77.1508 31.4H65.4388L65.2948 31.256V29.144L65.4388 29H77.1508Z" fill="#F5F5F5"/>
<path d="M33.3262 21.8242L33.3862 21.8842V22.7642L33.3262 22.8242H30.4462L30.3862 22.7642V21.8842L30.4462 21.8242H33.3262ZM34.3262 22.8242L34.3862 22.8842V27.7642L34.3262 27.8242H33.4463L33.3862 27.7642V24.8842L33.4463 24.8242L33.3862 24.7642L33.3262 24.8242H32.4462L32.3862 24.7642V23.8842L32.4462 23.8242H33.3262L33.3862 23.8842L33.4463 23.8242L33.3862 23.7642V22.8842L33.4463 22.8242H34.3262ZM30.3262 22.8242L30.3862 22.8842V25.7642L30.3262 25.8242L30.3862 25.8842L30.4462 25.8242H31.3263L31.3862 25.8842V26.7642L31.3263 26.8242H30.4462L30.3862 26.7642L30.3262 26.8242L30.3862 26.8842V27.7642L30.3262 27.8242H29.4462L29.3862 27.7642V22.8842L29.4462 22.8242H30.3262ZM32.3263 24.8242L32.3862 24.8842V25.7642L32.3263 25.8242H31.4462L31.3862 25.7642V24.8842L31.4462 24.8242H32.3263ZM33.3262 27.8242L33.3862 27.8842V28.7642L33.3262 28.8242H30.4462L30.3862 28.7642V27.8842L30.4462 27.8242H33.3262Z" fill="#F5F5F5"/>
<path d="M4.57159 10.9121L4.63159 10.9721V11.8521L4.57159 11.9121H1.69159L1.63159 11.8521V10.9721L1.69159 10.9121H4.57159ZM5.57159 11.9121L5.6316 11.9721V16.8521L5.57159 16.9121H4.69159L4.63159 16.8521V13.9721L4.69159 13.9121L4.63159 13.8521L4.57159 13.9121H3.69159L3.63159 13.8521V12.9721L3.69159 12.9121H4.57159L4.63159 12.9721L4.69159 12.9121L4.63159 12.8521V11.9721L4.69159 11.9121H5.57159ZM1.57159 11.9121L1.63159 11.9721V14.8521L1.57159 14.9121L1.63159 14.9721L1.69159 14.9121H2.57159L2.63159 14.9721V15.8521L2.57159 15.9121H1.69159L1.63159 15.8521L1.57159 15.9121L1.63159 15.9721V16.8521L1.57159 16.9121H0.691592L0.631592 16.8521V11.9721L0.691592 11.9121H1.57159ZM3.57159 13.9121L3.63159 13.9721V14.8521L3.57159 14.9121H2.69159L2.63159 14.8521V13.9721L2.69159 13.9121H3.57159ZM4.57159 16.9121L4.63159 16.9721V17.8521L4.57159 17.9121H1.69159L1.63159 17.8521V16.9721L1.69159 16.9121H4.57159Z" fill="#F5F5F5"/>
<path d="M18.9488 10.9121L19.0088 10.9721V11.8521L18.9488 11.9121H16.0688L16.0088 11.8521V10.9721L16.0688 10.9121H18.9488ZM19.9488 11.9121L20.0088 11.9721V16.8521L19.9488 16.9121H19.0688L19.0088 16.8521V13.9721L19.0688 13.9121L19.0088 13.8521L18.9488 13.9121H18.0688L18.0088 13.8521V12.9721L18.0688 12.9121H18.9488L19.0088 12.9721L19.0688 12.9121L19.0088 12.8521V11.9721L19.0688 11.9121H19.9488ZM15.9488 11.9121L16.0088 11.9721V14.8521L15.9488 14.9121L16.0088 14.9721L16.0688 14.9121H16.9488L17.0088 14.9721V15.8521L16.9488 15.9121H16.0688L16.0088 15.8521L15.9488 15.9121L16.0088 15.9721V16.8521L15.9488 16.9121H15.0688L15.0088 16.8521V11.9721L15.0688 11.9121H15.9488ZM17.9488 13.9121L18.0088 13.9721V14.8521L17.9488 14.9121H17.0688L17.0088 14.8521V13.9721L17.0688 13.9121H17.9488ZM18.9488 16.9121L19.0088 16.9721V17.8521L18.9488 17.9121H16.0688L16.0088 17.8521V16.9721L16.0688 16.9121H18.9488Z" fill="#F5F5F5"/>
<path d="M32.3263 10.9121L32.3862 10.9721V16.8521L32.3263 16.9121L32.3862 16.9721L32.4462 16.9121H34.3262L34.3862 16.9721V17.8521L34.3262 17.9121H29.4462L29.3862 17.8521V16.9721L29.4462 16.9121H31.3263L31.3862 16.9721L31.4462 16.9121L31.3862 16.8521V12.9721L31.4462 12.9121L31.3862 12.8521L31.3263 12.9121H29.9462L29.8862 12.8521V11.9721L29.9462 11.9121H31.3263L31.3862 11.9721L31.4462 11.9121L31.3862 11.8521V10.9721L31.4462 10.9121H32.3263Z" fill="#F5F5F5"/>
<path d="M4.57159 0L4.63159 0.0600004V0.94L4.57159 1H1.69159L1.63159 0.94V0.0600004L1.69159 0H4.57159ZM5.57159 1L5.6316 1.06V5.94L5.57159 6H4.69159L4.63159 5.94V3.06L4.69159 3L4.63159 2.94L4.57159 3H3.69159L3.63159 2.94V2.06L3.69159 2H4.57159L4.63159 2.06L4.69159 2L4.63159 1.94V1.06L4.69159 1H5.57159ZM1.57159 1L1.63159 1.06V3.94L1.57159 4L1.63159 4.06L1.69159 4H2.57159L2.63159 4.06V4.94L2.57159 5H1.69159L1.63159 4.94L1.57159 5L1.63159 5.06V5.94L1.57159 6H0.691592L0.631592 5.94V1.06L0.691592 1H1.57159ZM3.57159 3L3.63159 3.06V3.94L3.57159 4H2.69159L2.63159 3.94V3.06L2.69159 3H3.57159ZM4.57159 6L4.63159 6.06V6.94L4.57159 7H1.69159L1.63159 6.94V6.06L1.69159 6H4.57159Z" fill="#F5F5F5"/>
<path d="M18.9488 0L19.0088 0.0600004V0.94L18.9488 1H16.0688L16.0088 0.94V0.0600004L16.0688 0H18.9488ZM19.9488 1L20.0088 1.06V5.94L19.9488 6H19.0688L19.0088 5.94V3.06L19.0688 3L19.0088 2.94L18.9488 3H18.0688L18.0088 2.94V2.06L18.0688 2H18.9488L19.0088 2.06L19.0688 2L19.0088 1.94V1.06L19.0688 1H19.9488ZM15.9488 1L16.0088 1.06V3.94L15.9488 4L16.0088 4.06L16.0688 4H16.9488L17.0088 4.06V4.94L16.9488 5H16.0688L16.0088 4.94L15.9488 5L16.0088 5.06V5.94L15.9488 6H15.0688L15.0088 5.94V1.06L15.0688 1H15.9488ZM17.9488 3L18.0088 3.06V3.94L17.9488 4H17.0688L17.0088 3.94V3.06L17.0688 3H17.9488ZM18.9488 6L19.0088 6.06V6.94L18.9488 7H16.0688L16.0088 6.94V6.06L16.0688 6H18.9488Z" fill="#F5F5F5"/>
<path d="M33.3262 0L33.3862 0.0600004V0.94L33.3262 1H30.4462L30.3862 0.94V0.0600004L30.4462 0H33.3262ZM34.3262 1L34.3862 1.06V5.94L34.3262 6H33.4463L33.3862 5.94V3.06L33.4463 3L33.3862 2.94L33.3262 3H32.4462L32.3862 2.94V2.06L32.4462 2H33.3262L33.3862 2.06L33.4463 2L33.3862 1.94V1.06L33.4463 1H34.3262ZM30.3262 1L30.3862 1.06V3.94L30.3262 4L30.3862 4.06L30.4462 4H31.3263L31.3862 4.06V4.94L31.3263 5H30.4462L30.3862 4.94L30.3262 5L30.3862 5.06V5.94L30.3262 6H29.4462L29.3862 5.94V1.06L29.4462 1H30.3262ZM32.3263 3L32.3862 3.06V3.94L32.3263 4H31.4462L31.3862 3.94V3.06L31.4462 3H32.3263ZM33.3262 6L33.3862 6.06V6.94L33.3262 7H30.4462L30.3862 6.94V6.06L30.4462 6H33.3262Z" fill="#F5F5F5"/>
<path d="M47.3705 98.5393H67.3705V118.539H47.3705V98.5393Z" fill="#F5F5F5"/>
<path d="M27.3333 98.5393H47.3333V118.539H27.3333V98.5393Z" fill="#F5F5F5"/>
<path d="M7.33326 98.5393L27.3333 98.5393V118.539L7.33326 118.539V98.5393Z" fill="#F5F5F5"/>
<path d="M92.2348 0L92.2948 0.0599998V9.94L92.2348 10H91.3548L91.2948 9.94V0.0599998L91.3548 0H92.2348Z" fill="#F5F5F5"/>
<path d="M92.2348 11L92.2948 11.06V20.94L92.2348 21H91.3548L91.2948 20.94V11.06L91.3548 11H92.2348Z" fill="#F5F5F5"/>
<path d="M92.2348 22L92.2948 22.06V31.94L92.2348 32H91.3548L91.2948 31.94V22.06L91.3548 22H92.2348Z" fill="#F5F5F5"/>
<path d="M92.2348 33L92.2948 33.06V42.94L92.2348 43H91.3548L91.2948 42.94V33.06L91.3548 33H92.2348Z" fill="#F5F5F5"/>
<path d="M92.2348 44L92.2948 44.06V53.94L92.2348 54H91.3548L91.2948 53.94V44.06L91.3548 44H92.2348Z" fill="#F5F5F5"/>
<path d="M92.2348 55L92.2948 55.06V64.94L92.2348 65H91.3548L91.2948 64.94V55.06L91.3548 55H92.2348Z" fill="#F5F5F5"/>
<path d="M92.2348 66L92.2948 66.06V75.94L92.2348 76H91.3548L91.2948 75.94V66.06L91.3548 66H92.2348Z" fill="#F5F5F5"/>
<path d="M92.2348 77L92.2948 77.06V86.94L92.2348 87H91.3548L91.2948 86.94V77.06L91.3548 77H92.2348Z" fill="#F5F5F5"/>
<path d="M92.2348 88L92.2948 88.06V97.94L92.2348 98H91.3548L91.2948 97.94V88.06L91.3548 88H92.2348Z" fill="#F5F5F5"/>
<path d="M92.2348 99L92.2948 99.06V108.94L92.2348 109H91.3548L91.2948 108.94V99.06L91.3548 99H92.2348Z" fill="#F5F5F5"/>
<path d="M92.2348 110L92.2948 110.06V119.94L92.2348 120H91.3548L91.2948 119.94V110.06L91.3548 110H92.2348Z" fill="#F5F5F5"/>
</svg>
