<svg width="92" height="120" viewBox="0 0 92 120" fill="none" xmlns="http://www.w3.org/2000/svg">
<path d="M3.96002 21.8242L4.02002 21.8842V22.7642L3.96002 22.8242H1.08002L1.02002 22.7642V21.8842L1.08002 21.8242H3.96002ZM4.96002 22.8242L5.02002 22.8842V27.7642L4.96002 27.8242H4.08002L4.02002 27.7642V24.8842L4.08002 24.8242L4.02002 24.7642L3.96002 24.8242H3.08002L3.02002 24.7642V23.8842L3.08002 23.8242H3.96002L4.02002 23.8842L4.08002 23.8242L4.02002 23.7642V22.8842L4.08002 22.8242H4.96002ZM0.96002 22.8242L1.02002 22.8842V25.7642L0.96002 25.8242L1.02002 25.8842L1.08002 25.8242H1.96002L2.02002 25.8842V26.7642L1.96002 26.8242H1.08002L1.02002 26.7642L0.96002 26.8242L1.02002 26.8842V27.7642L0.96002 27.8242H0.0800195L0.0200195 27.7642V22.8842L0.0800195 22.8242H0.96002ZM2.96002 24.8242L3.02002 24.8842V25.7642L2.96002 25.8242H2.08002L2.02002 25.7642V24.8842L2.08002 24.8242H2.96002ZM3.96002 27.8242L4.02002 27.8842V28.7642L3.96002 28.8242H1.08002L1.02002 28.7642V27.8842L1.08002 27.8242H3.96002Z" fill="#F5F5F5"/>
<path d="M17.3372 21.8242L17.3972 21.8842V27.7642L17.3372 27.8242L17.3972 27.8842L17.4572 27.8242H19.3372L19.3972 27.8842V28.7642L19.3372 28.8242H14.4572L14.3972 28.7642V27.8842L14.4572 27.8242H16.3372L16.3972 27.8842L16.4572 27.8242L16.3972 27.7642V23.8842L16.4572 23.8242L16.3972 23.7642L16.3372 23.8242H14.9572L14.8972 23.7642V22.8842L14.9572 22.8242H16.3372L16.3972 22.8842L16.4572 22.8242L16.3972 22.7642V21.8842L16.4572 21.8242H17.3372Z" fill="#F5F5F5"/>
<path d="M71.7392 12.2L71.8832 12.344V14.456L71.7392 14.6H69.6272L69.4832 14.456V12.344L69.6272 12.2H71.7392ZM74.1392 14.6L74.2832 14.744V16.856L74.1392 17H72.0272L71.8832 16.856V14.744L72.0272 14.6H74.1392ZM69.3392 14.6L69.4832 14.744V16.856L69.3392 17H67.2272L67.0832 16.856V14.744L67.2272 14.6H69.3392ZM76.5392 17L76.6832 17.144V28.856L76.5392 29H74.4272L74.2832 28.856V23.144L74.4272 23L74.2832 22.856L74.1392 23H67.2272L67.0832 22.856L66.9392 23L67.0832 23.144V28.856L66.9392 29H64.8272L64.6832 28.856V17.144L64.8272 17H66.9392L67.0832 17.144V20.456L66.9392 20.6L67.0832 20.744L67.2272 20.6H74.1392L74.2832 20.744L74.4272 20.6L74.2832 20.456V17.144L74.4272 17H76.5392Z" fill="#F5F5F5"/>
<path d="M32.7147 21.8242L32.7747 21.8842V22.7642L32.7147 22.8242H29.8347L29.7747 22.7642V21.8842L29.8347 21.8242H32.7147ZM33.7147 22.8242L33.7747 22.8842V27.7642L33.7147 27.8242H32.8347L32.7747 27.7642V24.8842L32.8347 24.8242L32.7747 24.7642L32.7147 24.8242H31.8347L31.7747 24.7642V23.8842L31.8347 23.8242H32.7147L32.7747 23.8842L32.8347 23.8242L32.7747 23.7642V22.8842L32.8347 22.8242H33.7147ZM29.7147 22.8242L29.7747 22.8842V25.7642L29.7147 25.8242L29.7747 25.8842L29.8347 25.8242H30.7147L30.7747 25.8842V26.7642L30.7147 26.8242H29.8347L29.7747 26.7642L29.7147 26.8242L29.7747 26.8842V27.7642L29.7147 27.8242H28.8347L28.7747 27.7642V22.8842L28.8347 22.8242H29.7147ZM31.7147 24.8242L31.7747 24.8842V25.7642L31.7147 25.8242H30.8347L30.7747 25.7642V24.8842L30.8347 24.8242H31.7147ZM32.7147 27.8242L32.7747 27.8842V28.7642L32.7147 28.8242H29.8347L29.7747 28.7642V27.8842L29.8347 27.8242H32.7147Z" fill="#F5F5F5"/>
<path d="M3.96002 10.9121L4.02002 10.9721V11.8521L3.96002 11.9121H1.08002L1.02002 11.8521V10.9721L1.08002 10.9121H3.96002ZM4.96002 11.9121L5.02002 11.9721V16.8521L4.96002 16.9121H4.08002L4.02002 16.8521V13.9721L4.08002 13.9121L4.02002 13.8521L3.96002 13.9121H3.08002L3.02002 13.8521V12.9721L3.08002 12.9121H3.96002L4.02002 12.9721L4.08002 12.9121L4.02002 12.8521V11.9721L4.08002 11.9121H4.96002ZM0.96002 11.9121L1.02002 11.9721V14.8521L0.96002 14.9121L1.02002 14.9721L1.08002 14.9121H1.96002L2.02002 14.9721V15.8521L1.96002 15.9121H1.08002L1.02002 15.8521L0.96002 15.9121L1.02002 15.9721V16.8521L0.96002 16.9121H0.0800195L0.0200195 16.8521V11.9721L0.0800195 11.9121H0.96002ZM2.96002 13.9121L3.02002 13.9721V14.8521L2.96002 14.9121H2.08002L2.02002 14.8521V13.9721L2.08002 13.9121H2.96002ZM3.96002 16.9121L4.02002 16.9721V17.8521L3.96002 17.9121H1.08002L1.02002 17.8521V16.9721L1.08002 16.9121H3.96002Z" fill="#F5F5F5"/>
<path d="M18.3372 10.9121L18.3972 10.9721V11.8521L18.3372 11.9121H15.4572L15.3972 11.8521V10.9721L15.4572 10.9121H18.3372ZM19.3372 11.9121L19.3972 11.9721V16.8521L19.3372 16.9121H18.4572L18.3972 16.8521V13.9721L18.4572 13.9121L18.3972 13.8521L18.3372 13.9121H17.4572L17.3972 13.8521V12.9721L17.4572 12.9121H18.3372L18.3972 12.9721L18.4572 12.9121L18.3972 12.8521V11.9721L18.4572 11.9121H19.3372ZM15.3372 11.9121L15.3972 11.9721V14.8521L15.3372 14.9121L15.3972 14.9721L15.4572 14.9121H16.3372L16.3972 14.9721V15.8521L16.3372 15.9121H15.4572L15.3972 15.8521L15.3372 15.9121L15.3972 15.9721V16.8521L15.3372 16.9121H14.4572L14.3972 16.8521V11.9721L14.4572 11.9121H15.3372ZM17.3372 13.9121L17.3972 13.9721V14.8521L17.3372 14.9121H16.4572L16.3972 14.8521V13.9721L16.4572 13.9121H17.3372ZM18.3372 16.9121L18.3972 16.9721V17.8521L18.3372 17.9121H15.4572L15.3972 17.8521V16.9721L15.4572 16.9121H18.3372Z" fill="#F5F5F5"/>
<path d="M32.7147 10.9121L32.7747 10.9721V11.8521L32.7147 11.9121H29.8347L29.7747 11.8521V10.9721L29.8347 10.9121H32.7147ZM33.7147 11.9121L33.7747 11.9721V16.8521L33.7147 16.9121H32.8347L32.7747 16.8521V13.9721L32.8347 13.9121L32.7747 13.8521L32.7147 13.9121H31.8347L31.7747 13.8521V12.9721L31.8347 12.9121H32.7147L32.7747 12.9721L32.8347 12.9121L32.7747 12.8521V11.9721L32.8347 11.9121H33.7147ZM29.7147 11.9121L29.7747 11.9721V14.8521L29.7147 14.9121L29.7747 14.9721L29.8347 14.9121H30.7147L30.7747 14.9721V15.8521L30.7147 15.9121H29.8347L29.7747 15.8521L29.7147 15.9121L29.7747 15.9721V16.8521L29.7147 16.9121H28.8347L28.7747 16.8521V11.9721L28.8347 11.9121H29.7147ZM31.7147 13.9121L31.7747 13.9721V14.8521L31.7147 14.9121H30.8347L30.7747 14.8521V13.9721L30.8347 13.9121H31.7147ZM32.7147 16.9121L32.7747 16.9721V17.8521L32.7147 17.9121H29.8347L29.7747 17.8521V16.9721L29.8347 16.9121H32.7147Z" fill="#F5F5F5"/>
<path d="M3.96002 0L4.02002 0.0600004V0.94L3.96002 1H1.08002L1.02002 0.94V0.0600004L1.08002 0H3.96002ZM4.96002 1L5.02002 1.06V5.94L4.96002 6H4.08002L4.02002 5.94V3.06L4.08002 3L4.02002 2.94L3.96002 3H3.08002L3.02002 2.94V2.06L3.08002 2H3.96002L4.02002 2.06L4.08002 2L4.02002 1.94V1.06L4.08002 1H4.96002ZM0.96002 1L1.02002 1.06V3.94L0.96002 4L1.02002 4.06L1.08002 4H1.96002L2.02002 4.06V4.94L1.96002 5H1.08002L1.02002 4.94L0.96002 5L1.02002 5.06V5.94L0.96002 6H0.0800195L0.0200195 5.94V1.06L0.0800195 1H0.96002ZM2.96002 3L3.02002 3.06V3.94L2.96002 4H2.08002L2.02002 3.94V3.06L2.08002 3H2.96002ZM3.96002 6L4.02002 6.06V6.94L3.96002 7H1.08002L1.02002 6.94V6.06L1.08002 6H3.96002Z" fill="#F5F5F5"/>
<path d="M18.3372 0L18.3972 0.0600004V0.94L18.3372 1H15.4572L15.3972 0.94V0.0600004L15.4572 0H18.3372ZM19.3372 1L19.3972 1.06V5.94L19.3372 6H18.4572L18.3972 5.94V3.06L18.4572 3L18.3972 2.94L18.3372 3H17.4572L17.3972 2.94V2.06L17.4572 2H18.3372L18.3972 2.06L18.4572 2L18.3972 1.94V1.06L18.4572 1H19.3372ZM15.3372 1L15.3972 1.06V3.94L15.3372 4L15.3972 4.06L15.4572 4H16.3372L16.3972 4.06V4.94L16.3372 5H15.4572L15.3972 4.94L15.3372 5L15.3972 5.06V5.94L15.3372 6H14.4572L14.3972 5.94V1.06L14.4572 1H15.3372ZM17.3372 3L17.3972 3.06V3.94L17.3372 4H16.4572L16.3972 3.94V3.06L16.4572 3H17.3372ZM18.3372 6L18.3972 6.06V6.94L18.3372 7H15.4572L15.3972 6.94V6.06L15.4572 6H18.3372Z" fill="#F5F5F5"/>
<path d="M31.7147 0L31.7747 0.0600004V5.94L31.7147 6L31.7747 6.06L31.8347 6H33.7147L33.7747 6.06V6.94L33.7147 7H28.8347L28.7747 6.94V6.06L28.8347 6H30.7147L30.7747 6.06L30.8347 6L30.7747 5.94V2.06L30.8347 2L30.7747 1.94L30.7147 2H29.3347L29.2747 1.94V1.06L29.3347 1H30.7147L30.7747 1.06L30.8347 1L30.7747 0.94V0.0600004L30.8347 0H31.7147Z" fill="#F5F5F5"/>
<path d="M46.5515 58.5393H66.5515V78.5393H46.5515V58.5393Z" fill="#F5F5F5"/>
<path d="M26.5515 98.5393H46.5515V118.539H26.5515V98.5393Z" fill="#F5F5F5"/>
<path d="M91.6232 0L91.6832 0.0599998V9.94L91.6232 10H90.7432L90.6832 9.94V0.0599998L90.7432 0H91.6232Z" fill="#F5F5F5"/>
<path d="M91.6232 11L91.6832 11.06V20.94L91.6232 21H90.7432L90.6832 20.94V11.06L90.7432 11H91.6232Z" fill="#F5F5F5"/>
<path d="M91.6232 22L91.6832 22.06V31.94L91.6232 32H90.7432L90.6832 31.94V22.06L90.7432 22H91.6232Z" fill="#F5F5F5"/>
<path d="M91.6232 33L91.6832 33.06V42.94L91.6232 43H90.7432L90.6832 42.94V33.06L90.7432 33H91.6232Z" fill="#F5F5F5"/>
<path d="M91.6232 44L91.6832 44.06V53.94L91.6232 54H90.7432L90.6832 53.94V44.06L90.7432 44H91.6232Z" fill="#F5F5F5"/>
<path d="M91.6232 55L91.6832 55.06V64.94L91.6232 65H90.7432L90.6832 64.94V55.06L90.7432 55H91.6232Z" fill="#F5F5F5"/>
<path d="M91.6232 66L91.6832 66.06V75.94L91.6232 76H90.7432L90.6832 75.94V66.06L90.7432 66H91.6232Z" fill="#F5F5F5"/>
<path d="M91.6232 77L91.6832 77.06V86.94L91.6232 87H90.7432L90.6832 86.94V77.06L90.7432 77H91.6232Z" fill="#F5F5F5"/>
<path d="M91.6232 88L91.6832 88.06V97.94L91.6232 98H90.7432L90.6832 97.94V88.06L90.7432 88H91.6232Z" fill="#F5F5F5"/>
<path d="M91.6232 99L91.6832 99.06V108.94L91.6232 109H90.7432L90.6832 108.94V99.06L90.7432 99H91.6232Z" fill="#F5F5F5"/>
<path d="M91.6232 110L91.6832 110.06V119.94L91.6232 120H90.7432L90.6832 119.94V110.06L90.7432 110H91.6232Z" fill="#F5F5F5"/>
</svg>
