<svg width="93" height="120" viewBox="0 0 93 120" fill="none" xmlns="http://www.w3.org/2000/svg">
<path d="M5.03584 21.8242L5.09777 21.8842V22.7642L5.03584 22.8242H2.06276L2.00082 22.7642V21.8842L2.06276 21.8242H5.03584ZM6.06815 22.8242L6.13009 22.8842V27.7642L6.06815 27.8242H5.15971L5.09777 27.7642V24.8842L5.15971 24.8242L5.09777 24.7642L5.03584 24.8242H4.1274L4.06546 24.7642V23.8842L4.1274 23.8242H5.03584L5.09777 23.8842L5.15971 23.8242L5.09777 23.7642V22.8842L5.15971 22.8242H6.06815ZM1.93888 22.8242L2.00082 22.8842V25.7642L1.93888 25.8242L2.00082 25.8842L2.06276 25.8242H2.9712L3.03314 25.8842V26.7642L2.9712 26.8242H2.06276L2.00082 26.7642L1.93888 26.8242L2.00082 26.8842V27.7642L1.93888 27.8242H1.03044L0.968506 27.7642V22.8842L1.03044 22.8242H1.93888ZM4.00352 24.8242L4.06546 24.8842V25.7642L4.00352 25.8242H3.09508L3.03314 25.7642V24.8842L3.09508 24.8242H4.00352ZM5.03584 27.8242L5.09777 27.8842V28.7642L5.03584 28.8242H2.06276L2.00082 28.7642V27.8842L2.06276 27.8242H5.03584Z" fill="#F5F5F5"/>
<path d="M19.8777 21.8242L19.9396 21.8842V22.7642L19.8777 22.8242H16.9046L16.8427 22.7642V21.8842L16.9046 21.8242H19.8777ZM20.91 22.8242L20.9719 22.8842V27.7642L20.91 27.8242H20.0015L19.9396 27.7642V24.8842L20.0015 24.8242L19.9396 24.7642L19.8777 24.8242H18.9692L18.9073 24.7642V23.8842L18.9692 23.8242H19.8777L19.9396 23.8842L20.0015 23.8242L19.9396 23.7642V22.8842L20.0015 22.8242H20.91ZM16.7807 22.8242L16.8427 22.8842V25.7642L16.7807 25.8242L16.8427 25.8842L16.9046 25.8242H17.813L17.875 25.8842V26.7642L17.813 26.8242H16.9046L16.8427 26.7642L16.7807 26.8242L16.8427 26.8842V27.7642L16.7807 27.8242H15.8723L15.8103 27.7642V22.8842L15.8723 22.8242H16.7807ZM18.8453 24.8242L18.9073 24.8842V25.7642L18.8453 25.8242H17.9369L17.875 25.7642V24.8842L17.9369 24.8242H18.8453ZM19.8777 27.8242L19.9396 27.8842V28.7642L19.8777 28.8242H16.9046L16.8427 28.7642V27.8842L16.9046 27.8242H19.8777Z" fill="#F5F5F5"/>
<path d="M77.483 19.4L77.6317 19.544V21.656L77.483 21.8H70.3476L70.199 21.656V19.544L70.3476 19.4H77.483Z" fill="#F5F5F5"/>
<path d="M34.7197 21.8242L34.7817 21.8842V22.7642L34.7197 22.8242H31.7467L31.6847 22.7642V21.8842L31.7467 21.8242H34.7197ZM35.7521 22.8242L35.814 22.8842V27.7642L35.7521 27.8242H34.8436L34.7817 27.7642V24.8842L34.8436 24.8242L34.7817 24.7642L34.7197 24.8242H33.8113L33.7494 24.7642V23.8842L33.8113 23.8242H34.7197L34.7817 23.8842L34.8436 23.8242L34.7817 23.7642V22.8842L34.8436 22.8242H35.7521ZM31.6228 22.8242L31.6847 22.8842V25.7642L31.6228 25.8242L31.6847 25.8842L31.7467 25.8242H32.6551L32.7171 25.8842V26.7642L32.6551 26.8242H31.7467L31.6847 26.7642L31.6228 26.8242L31.6847 26.8842V27.7642L31.6228 27.8242H30.7144L30.6524 27.7642V22.8842L30.7144 22.8242H31.6228ZM33.6874 24.8242L33.7494 24.8842V25.7642L33.6874 25.8242H32.779L32.7171 25.7642V24.8842L32.779 24.8242H33.6874ZM34.7197 27.8242L34.7817 27.8842V28.7642L34.7197 28.8242H31.7467L31.6847 28.7642V27.8842L31.7467 27.8242H34.7197Z" fill="#F5F5F5"/>
<path d="M5.03584 10.9121L5.09777 10.9721V11.8521L5.03584 11.9121H2.06276L2.00082 11.8521V10.9721L2.06276 10.9121H5.03584ZM6.06815 11.9121L6.13009 11.9721V16.8521L6.06815 16.9121H5.15971L5.09777 16.8521V13.9721L5.15971 13.9121L5.09777 13.8521L5.03584 13.9121H4.1274L4.06546 13.8521V12.9721L4.1274 12.9121H5.03584L5.09777 12.9721L5.15971 12.9121L5.09777 12.8521V11.9721L5.15971 11.9121H6.06815ZM1.93888 11.9121L2.00082 11.9721V14.8521L1.93888 14.9121L2.00082 14.9721L2.06276 14.9121H2.9712L3.03314 14.9721V15.8521L2.9712 15.9121H2.06276L2.00082 15.8521L1.93888 15.9121L2.00082 15.9721V16.8521L1.93888 16.9121H1.03044L0.968506 16.8521V11.9721L1.03044 11.9121H1.93888ZM4.00352 13.9121L4.06546 13.9721V14.8521L4.00352 14.9121H3.09508L3.03314 14.8521V13.9721L3.09508 13.9121H4.00352ZM5.03584 16.9121L5.09777 16.9721V17.8521L5.03584 17.9121H2.06276L2.00082 17.8521V16.9721L2.06276 16.9121H5.03584Z" fill="#F5F5F5"/>
<path d="M19.8777 10.9121L19.9396 10.9721V11.8521L19.8777 11.9121H16.9046L16.8427 11.8521V10.9721L16.9046 10.9121H19.8777ZM20.91 11.9121L20.9719 11.9721V16.8521L20.91 16.9121H20.0015L19.9396 16.8521V13.9721L20.0015 13.9121L19.9396 13.8521L19.8777 13.9121H18.9692L18.9073 13.8521V12.9721L18.9692 12.9121H19.8777L19.9396 12.9721L20.0015 12.9121L19.9396 12.8521V11.9721L20.0015 11.9121H20.91ZM16.7807 11.9121L16.8427 11.9721V14.8521L16.7807 14.9121L16.8427 14.9721L16.9046 14.9121H17.813L17.875 14.9721V15.8521L17.813 15.9121H16.9046L16.8427 15.8521L16.7807 15.9121L16.8427 15.9721V16.8521L16.7807 16.9121H15.8723L15.8103 16.8521V11.9721L15.8723 11.9121H16.7807ZM18.8453 13.9121L18.9073 13.9721V14.8521L18.8453 14.9121H17.9369L17.875 14.8521V13.9721L17.9369 13.9121H18.8453ZM19.8777 16.9121L19.9396 16.9721V17.8521L19.8777 17.9121H16.9046L16.8427 17.8521V16.9721L16.9046 16.9121H19.8777Z" fill="#F5F5F5"/>
<path d="M33.6874 10.9121L33.7494 10.9721V16.8521L33.6874 16.9121L33.7494 16.9721L33.8113 16.9121H35.7521L35.814 16.9721V17.8521L35.7521 17.9121H30.7144L30.6524 17.8521V16.9721L30.7144 16.9121H32.6551L32.7171 16.9721L32.779 16.9121L32.7171 16.8521V12.9721L32.779 12.9121L32.7171 12.8521L32.6551 12.9121H31.2305L31.1686 12.8521V11.9721L31.2305 11.9121H32.6551L32.7171 11.9721L32.779 11.9121L32.7171 11.8521V10.9721L32.779 10.9121H33.6874Z" fill="#F5F5F5"/>
<path d="M5.03584 0L5.09777 0.0600004V0.94L5.03584 1H2.06276L2.00082 0.94V0.0600004L2.06276 0H5.03584ZM6.06815 1L6.13009 1.06V5.94L6.06815 6H5.15971L5.09777 5.94V3.06L5.15971 3L5.09777 2.94L5.03584 3H4.1274L4.06546 2.94V2.06L4.1274 2H5.03584L5.09777 2.06L5.15971 2L5.09777 1.94V1.06L5.15971 1H6.06815ZM1.93888 1L2.00082 1.06V3.94L1.93888 4L2.00082 4.06L2.06276 4H2.9712L3.03314 4.06V4.94L2.9712 5H2.06276L2.00082 4.94L1.93888 5L2.00082 5.06V5.94L1.93888 6H1.03044L0.968506 5.94V1.06L1.03044 1H1.93888ZM4.00352 3L4.06546 3.06V3.94L4.00352 4H3.09508L3.03314 3.94V3.06L3.09508 3H4.00352ZM5.03584 6L5.09777 6.06V6.94L5.03584 7H2.06276L2.00082 6.94V6.06L2.06276 6H5.03584Z" fill="#F5F5F5"/>
<path d="M19.8777 0L19.9396 0.0600004V0.94L19.8777 1H16.9046L16.8427 0.94V0.0600004L16.9046 0H19.8777ZM20.91 1L20.9719 1.06V5.94L20.91 6H20.0015L19.9396 5.94V3.06L20.0015 3L19.9396 2.94L19.8777 3H18.9692L18.9073 2.94V2.06L18.9692 2H19.8777L19.9396 2.06L20.0015 2L19.9396 1.94V1.06L20.0015 1H20.91ZM16.7807 1L16.8427 1.06V3.94L16.7807 4L16.8427 4.06L16.9046 4H17.813L17.875 4.06V4.94L17.813 5H16.9046L16.8427 4.94L16.7807 5L16.8427 5.06V5.94L16.7807 6H15.8723L15.8103 5.94V1.06L15.8723 1H16.7807ZM18.8453 3L18.9073 3.06V3.94L18.8453 4H17.9369L17.875 3.94V3.06L17.9369 3H18.8453ZM19.8777 6L19.9396 6.06V6.94L19.8777 7H16.9046L16.8427 6.94V6.06L16.9046 6H19.8777Z" fill="#F5F5F5"/>
<path d="M34.7197 0L34.7817 0.0600004V0.94L34.7197 1H31.7467L31.6847 0.94V0.0600004L31.7467 0H34.7197ZM35.7521 1L35.814 1.06V5.94L35.7521 6H34.8436L34.7817 5.94V3.06L34.8436 3L34.7817 2.94L34.7197 3H33.8113L33.7494 2.94V2.06L33.8113 2H34.7197L34.7817 2.06L34.8436 2L34.7817 1.94V1.06L34.8436 1H35.7521ZM31.6228 1L31.6847 1.06V3.94L31.6228 4L31.6847 4.06L31.7467 4H32.6551L32.7171 4.06V4.94L32.6551 5H31.7467L31.6847 4.94L31.6228 5L31.6847 5.06V5.94L31.6228 6H30.7144L30.6524 5.94V1.06L30.7144 1H31.6228ZM33.6874 3L33.7494 3.06V3.94L33.6874 4H32.779L32.7171 3.94V3.06L32.779 3H33.6874ZM34.7197 6L34.7817 6.06V6.94L34.7197 7H31.7467L31.6847 6.94V6.06L31.7467 6H34.7197Z" fill="#F5F5F5"/>
<path d="M49.1794 78.5393H69.8258V98.5393H49.1794V78.5393Z" fill="#F5F5F5"/>
<path d="M28.5331 78.5393H49.1794V98.5393H28.5331V78.5393Z" fill="#F5F5F5"/>
<path d="M7.88675 98.5393H28.5331V118.539H7.88675V98.5393Z" fill="#F5F5F5"/>
<path d="M92.5716 0L92.6316 0.0599998V9.94L92.5716 10H91.6916L91.6316 9.94V0.0599998L91.6916 0H92.5716Z" fill="#F5F5F5"/>
<path d="M92.5716 11L92.6316 11.06V20.94L92.5716 21H91.6916L91.6316 20.94V11.06L91.6916 11H92.5716Z" fill="#F5F5F5"/>
<path d="M92.5716 22L92.6316 22.06V31.94L92.5716 32H91.6916L91.6316 31.94V22.06L91.6916 22H92.5716Z" fill="#F5F5F5"/>
<path d="M92.5716 33L92.6316 33.06V42.94L92.5716 43H91.6916L91.6316 42.94V33.06L91.6916 33H92.5716Z" fill="#F5F5F5"/>
<path d="M92.5716 44L92.6316 44.06V53.94L92.5716 54H91.6916L91.6316 53.94V44.06L91.6916 44H92.5716Z" fill="#F5F5F5"/>
<path d="M92.5716 55L92.6316 55.06V64.94L92.5716 65H91.6916L91.6316 64.94V55.06L91.6916 55H92.5716Z" fill="#F5F5F5"/>
<path d="M92.5716 66L92.6316 66.06V75.94L92.5716 76H91.6916L91.6316 75.94V66.06L91.6916 66H92.5716Z" fill="#F5F5F5"/>
<path d="M92.5716 77L92.6316 77.06V86.94L92.5716 87H91.6916L91.6316 86.94V77.06L91.6916 77H92.5716Z" fill="#F5F5F5"/>
<path d="M92.5716 88L92.6316 88.06V97.94L92.5716 98H91.6916L91.6316 97.94V88.06L91.6916 88H92.5716Z" fill="#F5F5F5"/>
<path d="M92.5716 99L92.6316 99.06V108.94L92.5716 109H91.6916L91.6316 108.94V99.06L91.6916 99H92.5716Z" fill="#F5F5F5"/>
<path d="M92.5716 110L92.6316 110.06V119.94L92.5716 120H91.6916L91.6316 119.94V110.06L91.6916 110H92.5716Z" fill="#F5F5F5"/>
</svg>
