<svg width="92" height="120" viewBox="0 0 92 120" fill="none" xmlns="http://www.w3.org/2000/svg">
<path d="M2.98108 21.8242L3.04108 21.8842V27.7642L2.98108 27.8242L3.04108 27.8842L3.10108 27.8242H4.98108L5.04108 27.8842V28.7642L4.98108 28.8242H0.101077L0.0410767 28.7642V27.8842L0.101077 27.8242H1.98108L2.04108 27.8842L2.10108 27.8242L2.04108 27.7642V23.8842L2.10108 23.8242L2.04108 23.7642L1.98108 23.8242H0.601077L0.541077 23.7642V22.8842L0.601077 22.8242H1.98108L2.04108 22.8842L2.10108 22.8242L2.04108 22.7642V21.8842L2.10108 21.8242H2.98108Z" fill="#F5F5F5"/>
<path d="M18.3583 21.8242L18.4183 21.8842V22.7642L18.3583 22.8242H15.4783L15.4183 22.7642V21.8842L15.4783 21.8242H18.3583ZM19.3583 22.8242L19.4183 22.8842V27.7642L19.3583 27.8242H18.4783L18.4183 27.7642V24.8842L18.4783 24.8242L18.4183 24.7642L18.3583 24.8242H17.4783L17.4183 24.7642V23.8842L17.4783 23.8242H18.3583L18.4183 23.8842L18.4783 23.8242L18.4183 23.7642V22.8842L18.4783 22.8242H19.3583ZM15.3583 22.8242L15.4183 22.8842V25.7642L15.3583 25.8242L15.4183 25.8842L15.4783 25.8242H16.3583L16.4183 25.8842V26.7642L16.3583 26.8242H15.4783L15.4183 26.7642L15.3583 26.8242L15.4183 26.8842V27.7642L15.3583 27.8242H14.4783L14.4183 27.7642V22.8842L14.4783 22.8242H15.3583ZM17.3583 24.8242L17.4183 24.8842V25.7642L17.3583 25.8242H16.4783L16.4183 25.7642V24.8842L16.4783 24.8242H17.3583ZM18.3583 27.8242L18.4183 27.8842V28.7642L18.3583 28.8242H15.4783L15.4183 28.7642V27.8842L15.4783 27.8242H18.3583Z" fill="#F5F5F5"/>
<path d="M76.5602 12.2L76.7042 12.344V28.856L76.5602 29H74.4482L74.3042 28.856V21.944L74.4482 21.8L74.3042 21.656L74.1602 21.8H67.2482L67.1042 21.656V19.544L67.2482 19.4H74.1602L74.3042 19.544L74.4482 19.4L74.3042 19.256V12.344L74.4482 12.2H76.5602ZM66.9602 12.2L67.1042 12.344V19.256L66.9602 19.4H64.8482L64.7042 19.256V12.344L64.8482 12.2H66.9602Z" fill="#F5F5F5"/>
<path d="M31.7357 21.8242L31.7957 21.8842V27.7642L31.7357 27.8242L31.7957 27.8842L31.8557 27.8242H33.7357L33.7957 27.8842V28.7642L33.7357 28.8242H28.8557L28.7957 28.7642V27.8842L28.8557 27.8242H30.7357L30.7957 27.8842L30.8557 27.8242L30.7957 27.7642V23.8842L30.8557 23.8242L30.7957 23.7642L30.7357 23.8242H29.3557L29.2957 23.7642V22.8842L29.3557 22.8242H30.7357L30.7957 22.8842L30.8557 22.8242L30.7957 22.7642V21.8842L30.8557 21.8242H31.7357Z" fill="#F5F5F5"/>
<path d="M3.98108 10.9121L4.04108 10.9721V11.8521L3.98108 11.9121H1.10108L1.04108 11.8521V10.9721L1.10108 10.9121H3.98108ZM4.98108 11.9121L5.04108 11.9721V16.8521L4.98108 16.9121H4.10108L4.04108 16.8521V13.9721L4.10108 13.9121L4.04108 13.8521L3.98108 13.9121H3.10108L3.04108 13.8521V12.9721L3.10108 12.9121H3.98108L4.04108 12.9721L4.10108 12.9121L4.04108 12.8521V11.9721L4.10108 11.9121H4.98108ZM0.981077 11.9121L1.04108 11.9721V14.8521L0.981077 14.9121L1.04108 14.9721L1.10108 14.9121H1.98108L2.04108 14.9721V15.8521L1.98108 15.9121H1.10108L1.04108 15.8521L0.981077 15.9121L1.04108 15.9721V16.8521L0.981077 16.9121H0.101077L0.0410767 16.8521V11.9721L0.101077 11.9121H0.981077ZM2.98108 13.9121L3.04108 13.9721V14.8521L2.98108 14.9121H2.10108L2.04108 14.8521V13.9721L2.10108 13.9121H2.98108ZM3.98108 16.9121L4.04108 16.9721V17.8521L3.98108 17.9121H1.10108L1.04108 17.8521V16.9721L1.10108 16.9121H3.98108Z" fill="#F5F5F5"/>
<path d="M17.3583 10.9121L17.4183 10.9721V16.8521L17.3583 16.9121L17.4183 16.9721L17.4783 16.9121H19.3583L19.4183 16.9721V17.8521L19.3583 17.9121H14.4783L14.4183 17.8521V16.9721L14.4783 16.9121H16.3583L16.4183 16.9721L16.4783 16.9121L16.4183 16.8521V12.9721L16.4783 12.9121L16.4183 12.8521L16.3583 12.9121H14.9783L14.9183 12.8521V11.9721L14.9783 11.9121H16.3583L16.4183 11.9721L16.4783 11.9121L16.4183 11.8521V10.9721L16.4783 10.9121H17.3583Z" fill="#F5F5F5"/>
<path d="M32.7357 10.9121L32.7957 10.9721V11.8521L32.7357 11.9121H29.8557L29.7957 11.8521V10.9721L29.8557 10.9121H32.7357ZM33.7357 11.9121L33.7957 11.9721V16.8521L33.7357 16.9121H32.8557L32.7957 16.8521V13.9721L32.8557 13.9121L32.7957 13.8521L32.7357 13.9121H31.8557L31.7957 13.8521V12.9721L31.8557 12.9121H32.7357L32.7957 12.9721L32.8557 12.9121L32.7957 12.8521V11.9721L32.8557 11.9121H33.7357ZM29.7357 11.9121L29.7957 11.9721V14.8521L29.7357 14.9121L29.7957 14.9721L29.8557 14.9121H30.7357L30.7957 14.9721V15.8521L30.7357 15.9121H29.8557L29.7957 15.8521L29.7357 15.9121L29.7957 15.9721V16.8521L29.7357 16.9121H28.8557L28.7957 16.8521V11.9721L28.8557 11.9121H29.7357ZM31.7357 13.9121L31.7957 13.9721V14.8521L31.7357 14.9121H30.8557L30.7957 14.8521V13.9721L30.8557 13.9121H31.7357ZM32.7357 16.9121L32.7957 16.9721V17.8521L32.7357 17.9121H29.8557L29.7957 17.8521V16.9721L29.8557 16.9121H32.7357Z" fill="#F5F5F5"/>
<path d="M2.98108 0L3.04108 0.0600004V5.94L2.98108 6L3.04108 6.06L3.10108 6H4.98108L5.04108 6.06V6.94L4.98108 7H0.101077L0.0410767 6.94V6.06L0.101077 6H1.98108L2.04108 6.06L2.10108 6L2.04108 5.94V2.06L2.10108 2L2.04108 1.94L1.98108 2H0.601077L0.541077 1.94V1.06L0.601077 1H1.98108L2.04108 1.06L2.10108 1L2.04108 0.94V0.0600004L2.10108 0H2.98108Z" fill="#F5F5F5"/>
<path d="M18.3583 0L18.4183 0.0600004V0.94L18.3583 1H15.4783L15.4183 0.94V0.0600004L15.4783 0H18.3583ZM19.3583 1L19.4183 1.06V5.94L19.3583 6H18.4783L18.4183 5.94V3.06L18.4783 3L18.4183 2.94L18.3583 3H17.4783L17.4183 2.94V2.06L17.4783 2H18.3583L18.4183 2.06L18.4783 2L18.4183 1.94V1.06L18.4783 1H19.3583ZM15.3583 1L15.4183 1.06V3.94L15.3583 4L15.4183 4.06L15.4783 4H16.3583L16.4183 4.06V4.94L16.3583 5H15.4783L15.4183 4.94L15.3583 5L15.4183 5.06V5.94L15.3583 6H14.4783L14.4183 5.94V1.06L14.4783 1H15.3583ZM17.3583 3L17.4183 3.06V3.94L17.3583 4H16.4783L16.4183 3.94V3.06L16.4783 3H17.3583ZM18.3583 6L18.4183 6.06V6.94L18.3583 7H15.4783L15.4183 6.94V6.06L15.4783 6H18.3583Z" fill="#F5F5F5"/>
<path d="M32.7357 0L32.7957 0.0600004V0.94L32.7357 1H29.8557L29.7957 0.94V0.0600004L29.8557 0H32.7357ZM33.7357 1L33.7957 1.06V5.94L33.7357 6H32.8557L32.7957 5.94V3.06L32.8557 3L32.7957 2.94L32.7357 3H31.8557L31.7957 2.94V2.06L31.8557 2H32.7357L32.7957 2.06L32.8557 2L32.7957 1.94V1.06L32.8557 1H33.7357ZM29.7357 1L29.7957 1.06V3.94L29.7357 4L29.7957 4.06L29.8557 4H30.7357L30.7957 4.06V4.94L30.7357 5H29.8557L29.7957 4.94L29.7357 5L29.7957 5.06V5.94L29.7357 6H28.8557L28.7957 5.94V1.06L28.8557 1H29.7357ZM31.7357 3L31.7957 3.06V3.94L31.7357 4H30.8557L30.7957 3.94V3.06L30.8557 3H31.7357ZM32.7357 6L32.7957 6.06V6.94L32.7357 7H29.8557L29.7957 6.94V6.06L29.8557 6H32.7357Z" fill="#F5F5F5"/>
<path d="M26.7427 78.5393H46.7427V98.5393H26.7427V78.5393Z" fill="#F5F5F5"/>
<path d="M46.7427 98.5393H66.7427V118.539H46.7427V98.5393Z" fill="#F5F5F5"/>
<path d="M6.74274 98.5393H26.7427V118.539H6.74274V98.5393Z" fill="#F5F5F5"/>
<path d="M6.74274 58.5393H26.7427V78.5393H6.74274V58.5393Z" fill="#F5F5F5"/>
<path d="M91.6442 0L91.7042 0.0599998V9.94L91.6442 10H90.7642L90.7042 9.94V0.0599998L90.7642 0H91.6442Z" fill="#F5F5F5"/>
<path d="M91.6442 11L91.7042 11.06V20.94L91.6442 21H90.7642L90.7042 20.94V11.06L90.7642 11H91.6442Z" fill="#F5F5F5"/>
<path d="M91.6442 22L91.7042 22.06V31.94L91.6442 32H90.7642L90.7042 31.94V22.06L90.7642 22H91.6442Z" fill="#F5F5F5"/>
<path d="M91.6442 33L91.7042 33.06V42.94L91.6442 43H90.7642L90.7042 42.94V33.06L90.7642 33H91.6442Z" fill="#F5F5F5"/>
<path d="M91.6442 44L91.7042 44.06V53.94L91.6442 54H90.7642L90.7042 53.94V44.06L90.7642 44H91.6442Z" fill="#F5F5F5"/>
<path d="M91.6442 55L91.7042 55.06V64.94L91.6442 65H90.7642L90.7042 64.94V55.06L90.7642 55H91.6442Z" fill="#F5F5F5"/>
<path d="M91.6442 66L91.7042 66.06V75.94L91.6442 76H90.7642L90.7042 75.94V66.06L90.7642 66H91.6442Z" fill="#F5F5F5"/>
<path d="M91.6442 77L91.7042 77.06V86.94L91.6442 87H90.7642L90.7042 86.94V77.06L90.7642 77H91.6442Z" fill="#F5F5F5"/>
<path d="M91.6442 88L91.7042 88.06V97.94L91.6442 98H90.7642L90.7042 97.94V88.06L90.7642 88H91.6442Z" fill="#F5F5F5"/>
<path d="M91.6442 99L91.7042 99.06V108.94L91.6442 109H90.7642L90.7042 108.94V99.06L90.7642 99H91.6442Z" fill="#F5F5F5"/>
<path d="M91.6442 110L91.7042 110.06V119.94L91.6442 120H90.7642L90.7042 119.94V110.06L90.7642 110H91.6442Z" fill="#F5F5F5"/>
</svg>
