<svg width="92" height="120" viewBox="0 0 92 120" fill="none" xmlns="http://www.w3.org/2000/svg">
<path d="M4.2558 21.8242L4.3158 21.8842V22.7642L4.2558 22.8242H1.3758L1.3158 22.7642V21.8842L1.3758 21.8242H4.2558ZM5.2558 22.8242L5.3158 22.8842V27.7642L5.2558 27.8242H4.3758L4.3158 27.7642V24.8842L4.3758 24.8242L4.3158 24.7642L4.2558 24.8242H3.3758L3.3158 24.7642V23.8842L3.3758 23.8242H4.2558L4.3158 23.8842L4.3758 23.8242L4.3158 23.7642V22.8842L4.3758 22.8242H5.2558ZM1.2558 22.8242L1.3158 22.8842V25.7642L1.2558 25.8242L1.3158 25.8842L1.3758 25.8242H2.2558L2.3158 25.8842V26.7642L2.2558 26.8242H1.3758L1.3158 26.7642L1.2558 26.8242L1.3158 26.8842V27.7642L1.2558 27.8242H0.375796L0.315796 27.7642V22.8842L0.375796 22.8242H1.2558ZM3.2558 24.8242L3.3158 24.8842V25.7642L3.2558 25.8242H2.3758L2.3158 25.7642V24.8842L2.3758 24.8242H3.2558ZM4.2558 27.8242L4.3158 27.8842V28.7642L4.2558 28.8242H1.3758L1.3158 28.7642V27.8842L1.3758 27.8242H4.2558Z" fill="#F5F5F5"/>
<path d="M18.633 21.8242L18.693 21.8842V22.7642L18.633 22.8242H15.753L15.693 22.7642V21.8842L15.753 21.8242H18.633ZM19.633 22.8242L19.693 22.8842V27.7642L19.633 27.8242H18.753L18.693 27.7642V24.8842L18.753 24.8242L18.693 24.7642L18.633 24.8242H17.753L17.693 24.7642V23.8842L17.753 23.8242H18.633L18.693 23.8842L18.753 23.8242L18.693 23.7642V22.8842L18.753 22.8242H19.633ZM15.633 22.8242L15.693 22.8842V25.7642L15.633 25.8242L15.693 25.8842L15.753 25.8242H16.633L16.693 25.8842V26.7642L16.633 26.8242H15.753L15.693 26.7642L15.633 26.8242L15.693 26.8842V27.7642L15.633 27.8242H14.753L14.693 27.7642V22.8842L14.753 22.8242H15.633ZM17.633 24.8242L17.693 24.8842V25.7642L17.633 25.8242H16.753L16.693 25.7642V24.8842L16.753 24.8242H17.633ZM18.633 27.8242L18.693 27.8842V28.7642L18.633 28.8242H15.753L15.693 28.7642V27.8842L15.753 27.8242H18.633Z" fill="#F5F5F5"/>
<path d="M76.835 12.2L76.979 12.344V28.856L76.835 29H74.723L74.579 28.856V21.944L74.723 21.8L74.579 21.656L74.435 21.8H67.523L67.379 21.656L67.235 21.8L67.379 21.944V28.856L67.235 29H65.123L64.979 28.856V12.344L65.123 12.2H67.235L67.379 12.344V19.256L67.235 19.4L67.379 19.544L67.523 19.4H74.435L74.579 19.544L74.723 19.4L74.579 19.256V12.344L74.723 12.2H76.835Z" fill="#F5F5F5"/>
<path d="M32.0104 21.8242L32.0704 21.8842V27.7642L32.0104 27.8242L32.0704 27.8842L32.1304 27.8242H34.0104L34.0704 27.8842V28.7642L34.0104 28.8242H29.1304L29.0704 28.7642V27.8842L29.1304 27.8242H31.0104L31.0704 27.8842L31.1304 27.8242L31.0704 27.7642V23.8842L31.1304 23.8242L31.0704 23.7642L31.0104 23.8242H29.6304L29.5704 23.7642V22.8842L29.6304 22.8242H31.0104L31.0704 22.8842L31.1304 22.8242L31.0704 22.7642V21.8842L31.1304 21.8242H32.0104Z" fill="#F5F5F5"/>
<path d="M4.2558 10.9121L4.3158 10.9721V11.8521L4.2558 11.9121H1.3758L1.3158 11.8521V10.9721L1.3758 10.9121H4.2558ZM5.2558 11.9121L5.3158 11.9721V16.8521L5.2558 16.9121H4.3758L4.3158 16.8521V13.9721L4.3758 13.9121L4.3158 13.8521L4.2558 13.9121H3.3758L3.3158 13.8521V12.9721L3.3758 12.9121H4.2558L4.3158 12.9721L4.3758 12.9121L4.3158 12.8521V11.9721L4.3758 11.9121H5.2558ZM1.2558 11.9121L1.3158 11.9721V14.8521L1.2558 14.9121L1.3158 14.9721L1.3758 14.9121H2.2558L2.3158 14.9721V15.8521L2.2558 15.9121H1.3758L1.3158 15.8521L1.2558 15.9121L1.3158 15.9721V16.8521L1.2558 16.9121H0.375796L0.315796 16.8521V11.9721L0.375796 11.9121H1.2558ZM3.2558 13.9121L3.3158 13.9721V14.8521L3.2558 14.9121H2.3758L2.3158 14.8521V13.9721L2.3758 13.9121H3.2558ZM4.2558 16.9121L4.3158 16.9721V17.8521L4.2558 17.9121H1.3758L1.3158 17.8521V16.9721L1.3758 16.9121H4.2558Z" fill="#F5F5F5"/>
<path d="M17.633 10.9121L17.693 10.9721V16.8521L17.633 16.9121L17.693 16.9721L17.753 16.9121H19.633L19.693 16.9721V17.8521L19.633 17.9121H14.753L14.693 17.8521V16.9721L14.753 16.9121H16.633L16.693 16.9721L16.753 16.9121L16.693 16.8521V12.9721L16.753 12.9121L16.693 12.8521L16.633 12.9121H15.253L15.193 12.8521V11.9721L15.253 11.9121H16.633L16.693 11.9721L16.753 11.9121L16.693 11.8521V10.9721L16.753 10.9121H17.633Z" fill="#F5F5F5"/>
<path d="M32.0104 10.9121L32.0704 10.9721V16.8521L32.0104 16.9121L32.0704 16.9721L32.1304 16.9121H34.0104L34.0704 16.9721V17.8521L34.0104 17.9121H29.1304L29.0704 17.8521V16.9721L29.1304 16.9121H31.0104L31.0704 16.9721L31.1304 16.9121L31.0704 16.8521V12.9721L31.1304 12.9121L31.0704 12.8521L31.0104 12.9121H29.6304L29.5704 12.8521V11.9721L29.6304 11.9121H31.0104L31.0704 11.9721L31.1304 11.9121L31.0704 11.8521V10.9721L31.1304 10.9121H32.0104Z" fill="#F5F5F5"/>
<path d="M4.2558 0L4.3158 0.0600004V0.94L4.2558 1H1.3758L1.3158 0.94V0.0600004L1.3758 0H4.2558ZM5.2558 1L5.3158 1.06V5.94L5.2558 6H4.3758L4.3158 5.94V3.06L4.3758 3L4.3158 2.94L4.2558 3H3.3758L3.3158 2.94V2.06L3.3758 2H4.2558L4.3158 2.06L4.3758 2L4.3158 1.94V1.06L4.3758 1H5.2558ZM1.2558 1L1.3158 1.06V3.94L1.2558 4L1.3158 4.06L1.3758 4H2.2558L2.3158 4.06V4.94L2.2558 5H1.3758L1.3158 4.94L1.2558 5L1.3158 5.06V5.94L1.2558 6H0.375796L0.315796 5.94V1.06L0.375796 1H1.2558ZM3.2558 3L3.3158 3.06V3.94L3.2558 4H2.3758L2.3158 3.94V3.06L2.3758 3H3.2558ZM4.2558 6L4.3158 6.06V6.94L4.2558 7H1.3758L1.3158 6.94V6.06L1.3758 6H4.2558Z" fill="#F5F5F5"/>
<path d="M18.633 0L18.693 0.0600004V0.94L18.633 1H15.753L15.693 0.94V0.0600004L15.753 0H18.633ZM19.633 1L19.693 1.06V5.94L19.633 6H18.753L18.693 5.94V3.06L18.753 3L18.693 2.94L18.633 3H17.753L17.693 2.94V2.06L17.753 2H18.633L18.693 2.06L18.753 2L18.693 1.94V1.06L18.753 1H19.633ZM15.633 1L15.693 1.06V3.94L15.633 4L15.693 4.06L15.753 4H16.633L16.693 4.06V4.94L16.633 5H15.753L15.693 4.94L15.633 5L15.693 5.06V5.94L15.633 6H14.753L14.693 5.94V1.06L14.753 1H15.633ZM17.633 3L17.693 3.06V3.94L17.633 4H16.753L16.693 3.94V3.06L16.753 3H17.633ZM18.633 6L18.693 6.06V6.94L18.633 7H15.753L15.693 6.94V6.06L15.753 6H18.633Z" fill="#F5F5F5"/>
<path d="M32.0104 0L32.0704 0.0600004V5.94L32.0104 6L32.0704 6.06L32.1304 6H34.0104L34.0704 6.06V6.94L34.0104 7H29.1304L29.0704 6.94V6.06L29.1304 6H31.0104L31.0704 6.06L31.1304 6L31.0704 5.94V2.06L31.1304 2L31.0704 1.94L31.0104 2H29.6304L29.5704 1.94V1.06L29.6304 1H31.0104L31.0704 1.06L31.1304 1L31.0704 0.94V0.0600004L31.1304 0H32.0104Z" fill="#F5F5F5"/>
<path d="M47.0189 98.5393H67.0189V118.539H47.0189V98.5393Z" fill="#F5F5F5"/>
<path d="M47.0189 78.5393H67.0189V98.5393H47.0189V78.5393Z" fill="#F5F5F5"/>
<path d="M47.0189 58.5393H67.0189V78.5393H47.0189V58.5393Z" fill="#F5F5F5"/>
<path d="M27.0189 78.5393H47.0189V98.5393H27.0189V78.5393Z" fill="#F5F5F5"/>
<path d="M91.9189 0L91.9789 0.0599998V9.94L91.9189 10H91.0389L90.9789 9.94V0.0599998L91.0389 0H91.9189Z" fill="#F5F5F5"/>
<path d="M91.9189 11L91.9789 11.06V20.94L91.9189 21H91.0389L90.9789 20.94V11.06L91.0389 11H91.9189Z" fill="#F5F5F5"/>
<path d="M91.9189 22L91.9789 22.06V31.94L91.9189 32H91.0389L90.9789 31.94V22.06L91.0389 22H91.9189Z" fill="#F5F5F5"/>
<path d="M91.9189 33L91.9789 33.06V42.94L91.9189 43H91.0389L90.9789 42.94V33.06L91.0389 33H91.9189Z" fill="#F5F5F5"/>
<path d="M91.9189 44L91.9789 44.06V53.94L91.9189 54H91.0389L90.9789 53.94V44.06L91.0389 44H91.9189Z" fill="#F5F5F5"/>
<path d="M91.9189 55L91.9789 55.06V64.94L91.9189 65H91.0389L90.9789 64.94V55.06L91.0389 55H91.9189Z" fill="#F5F5F5"/>
<path d="M91.9189 66L91.9789 66.06V75.94L91.9189 76H91.0389L90.9789 75.94V66.06L91.0389 66H91.9189Z" fill="#F5F5F5"/>
<path d="M91.9189 77L91.9789 77.06V86.94L91.9189 87H91.0389L90.9789 86.94V77.06L91.0389 77H91.9189Z" fill="#F5F5F5"/>
<path d="M91.9189 88L91.9789 88.06V97.94L91.9189 98H91.0389L90.9789 97.94V88.06L91.0389 88H91.9189Z" fill="#F5F5F5"/>
<path d="M91.9189 99L91.9789 99.06V108.94L91.9189 109H91.0389L90.9789 108.94V99.06L91.0389 99H91.9189Z" fill="#F5F5F5"/>
<path d="M91.9189 110L91.9789 110.06V119.94L91.9189 120H91.0389L90.9789 119.94V110.06L91.0389 110H91.9189Z" fill="#F5F5F5"/>
</svg>
