<svg width="92" height="120" viewBox="0 0 92 120" fill="none" xmlns="http://www.w3.org/2000/svg">
<path d="M4.24536 21.8242L4.30536 21.8842V22.7642L4.24536 22.8242H1.36536L1.30536 22.7642V21.8842L1.36536 21.8242H4.24536ZM5.24536 22.8242L5.30536 22.8842V27.7642L5.24536 27.8242H4.36536L4.30536 27.7642V24.8842L4.36536 24.8242L4.30536 24.7642L4.24536 24.8242H3.36536L3.30536 24.7642V23.8842L3.36536 23.8242H4.24536L4.30536 23.8842L4.36536 23.8242L4.30536 23.7642V22.8842L4.36536 22.8242H5.24536ZM1.24536 22.8242L1.30536 22.8842V25.7642L1.24536 25.8242L1.30536 25.8842L1.36536 25.8242H2.24536L2.30536 25.8842V26.7642L2.24536 26.8242H1.36536L1.30536 26.7642L1.24536 26.8242L1.30536 26.8842V27.7642L1.24536 27.8242H0.365359L0.305359 27.7642V22.8842L0.365359 22.8242H1.24536ZM3.24536 24.8242L3.30536 24.8842V25.7642L3.24536 25.8242H2.36536L2.30536 25.7642V24.8842L2.36536 24.8242H3.24536ZM4.24536 27.8242L4.30536 27.8842V28.7642L4.24536 28.8242H1.36536L1.30536 28.7642V27.8842L1.36536 27.8242H4.24536Z" fill="#F5F5F5"/>
<path d="M18.6226 21.8242L18.6826 21.8842V22.7642L18.6226 22.8242H15.7426L15.6826 22.7642V21.8842L15.7426 21.8242H18.6226ZM19.6226 22.8242L19.6826 22.8842V27.7642L19.6226 27.8242H18.7426L18.6826 27.7642V24.8842L18.7426 24.8242L18.6826 24.7642L18.6226 24.8242H17.7426L17.6826 24.7642V23.8842L17.7426 23.8242H18.6226L18.6826 23.8842L18.7426 23.8242L18.6826 23.7642V22.8842L18.7426 22.8242H19.6226ZM15.6226 22.8242L15.6826 22.8842V25.7642L15.6226 25.8242L15.6826 25.8842L15.7426 25.8242H16.6226L16.6826 25.8842V26.7642L16.6226 26.8242H15.7426L15.6826 26.7642L15.6226 26.8242L15.6826 26.8842V27.7642L15.6226 27.8242H14.7426L14.6826 27.7642V22.8842L14.7426 22.8242H15.6226ZM17.6226 24.8242L17.6826 24.8842V25.7642L17.6226 25.8242H16.7426L16.6826 25.7642V24.8842L16.7426 24.8242H17.6226ZM18.6226 27.8242L18.6826 27.8842V28.7642L18.6226 28.8242H15.7426L15.6826 28.7642V27.8842L15.7426 27.8242H18.6226Z" fill="#F5F5F5"/>
<path d="M76.8245 12.2L76.9685 12.344V16.856L76.8245 17H74.7125L74.5685 16.856V12.344L74.7125 12.2H76.8245ZM68.4245 12.2L68.5685 12.344V16.856L68.4245 17H65.1125L64.9685 16.856V12.344L65.1125 12.2H68.4245ZM74.4245 17L74.5685 17.144V19.256L74.4245 19.4H72.3125L72.1685 19.256V17.144L72.3125 17H74.4245ZM72.0245 19.4L72.1685 19.544V21.656L72.0245 21.8H69.9125L69.7685 21.656V19.544L69.9125 19.4H72.0245ZM69.6245 21.8L69.7685 21.944V24.056L69.6245 24.2H67.5125L67.3685 24.056V21.944L67.5125 21.8H69.6245ZM76.8245 24.2L76.9685 24.344V28.856L76.8245 29H73.5125L73.3685 28.856V24.344L73.5125 24.2H76.8245ZM67.2245 24.2L67.3685 24.344V28.856L67.2245 29H65.1125L64.9685 28.856V24.344L65.1125 24.2H67.2245Z" fill="#F5F5F5"/>
<path d="M33 21.8242L33.06 21.8842V22.7642L33 22.8242H30.12L30.06 22.7642V21.8842L30.12 21.8242H33ZM34 22.8242L34.06 22.8842V27.7642L34 27.8242H33.12L33.06 27.7642V24.8842L33.12 24.8242L33.06 24.7642L33 24.8242H32.12L32.06 24.7642V23.8842L32.12 23.8242H33L33.06 23.8842L33.12 23.8242L33.06 23.7642V22.8842L33.12 22.8242H34ZM30 22.8242L30.06 22.8842V25.7642L30 25.8242L30.06 25.8842L30.12 25.8242H31L31.06 25.8842V26.7642L31 26.8242H30.12L30.06 26.7642L30 26.8242L30.06 26.8842V27.7642L30 27.8242H29.12L29.06 27.7642V22.8842L29.12 22.8242H30ZM32 24.8242L32.06 24.8842V25.7642L32 25.8242H31.12L31.06 25.7642V24.8842L31.12 24.8242H32ZM33 27.8242L33.06 27.8842V28.7642L33 28.8242H30.12L30.06 28.7642V27.8842L30.12 27.8242H33Z" fill="#F5F5F5"/>
<path d="M4.24536 10.9121L4.30536 10.9721V11.8521L4.24536 11.9121H1.36536L1.30536 11.8521V10.9721L1.36536 10.9121H4.24536ZM5.24536 11.9121L5.30536 11.9721V16.8521L5.24536 16.9121H4.36536L4.30536 16.8521V13.9721L4.36536 13.9121L4.30536 13.8521L4.24536 13.9121H3.36536L3.30536 13.8521V12.9721L3.36536 12.9121H4.24536L4.30536 12.9721L4.36536 12.9121L4.30536 12.8521V11.9721L4.36536 11.9121H5.24536ZM1.24536 11.9121L1.30536 11.9721V14.8521L1.24536 14.9121L1.30536 14.9721L1.36536 14.9121H2.24536L2.30536 14.9721V15.8521L2.24536 15.9121H1.36536L1.30536 15.8521L1.24536 15.9121L1.30536 15.9721V16.8521L1.24536 16.9121H0.365359L0.305359 16.8521V11.9721L0.365359 11.9121H1.24536ZM3.24536 13.9121L3.30536 13.9721V14.8521L3.24536 14.9121H2.36536L2.30536 14.8521V13.9721L2.36536 13.9121H3.24536ZM4.24536 16.9121L4.30536 16.9721V17.8521L4.24536 17.9121H1.36536L1.30536 17.8521V16.9721L1.36536 16.9121H4.24536Z" fill="#F5F5F5"/>
<path d="M18.6226 10.9121L18.6826 10.9721V11.8521L18.6226 11.9121H15.7426L15.6826 11.8521V10.9721L15.7426 10.9121H18.6226ZM19.6226 11.9121L19.6826 11.9721V16.8521L19.6226 16.9121H18.7426L18.6826 16.8521V13.9721L18.7426 13.9121L18.6826 13.8521L18.6226 13.9121H17.7426L17.6826 13.8521V12.9721L17.7426 12.9121H18.6226L18.6826 12.9721L18.7426 12.9121L18.6826 12.8521V11.9721L18.7426 11.9121H19.6226ZM15.6226 11.9121L15.6826 11.9721V14.8521L15.6226 14.9121L15.6826 14.9721L15.7426 14.9121H16.6226L16.6826 14.9721V15.8521L16.6226 15.9121H15.7426L15.6826 15.8521L15.6226 15.9121L15.6826 15.9721V16.8521L15.6226 16.9121H14.7426L14.6826 16.8521V11.9721L14.7426 11.9121H15.6226ZM17.6226 13.9121L17.6826 13.9721V14.8521L17.6226 14.9121H16.7426L16.6826 14.8521V13.9721L16.7426 13.9121H17.6226ZM18.6226 16.9121L18.6826 16.9721V17.8521L18.6226 17.9121H15.7426L15.6826 17.8521V16.9721L15.7426 16.9121H18.6226Z" fill="#F5F5F5"/>
<path d="M32 10.9121L32.06 10.9721V16.8521L32 16.9121L32.06 16.9721L32.12 16.9121H34L34.06 16.9721V17.8521L34 17.9121H29.12L29.06 17.8521V16.9721L29.12 16.9121H31L31.06 16.9721L31.12 16.9121L31.06 16.8521V12.9721L31.12 12.9121L31.06 12.8521L31 12.9121H29.62L29.56 12.8521V11.9721L29.62 11.9121H31L31.06 11.9721L31.12 11.9121L31.06 11.8521V10.9721L31.12 10.9121H32Z" fill="#F5F5F5"/>
<path d="M4.24536 0L4.30536 0.0600004V0.94L4.24536 1H1.36536L1.30536 0.94V0.0600004L1.36536 0H4.24536ZM5.24536 1L5.30536 1.06V5.94L5.24536 6H4.36536L4.30536 5.94V3.06L4.36536 3L4.30536 2.94L4.24536 3H3.36536L3.30536 2.94V2.06L3.36536 2H4.24536L4.30536 2.06L4.36536 2L4.30536 1.94V1.06L4.36536 1H5.24536ZM1.24536 1L1.30536 1.06V3.94L1.24536 4L1.30536 4.06L1.36536 4H2.24536L2.30536 4.06V4.94L2.24536 5H1.36536L1.30536 4.94L1.24536 5L1.30536 5.06V5.94L1.24536 6H0.365359L0.305359 5.94V1.06L0.365359 1H1.24536ZM3.24536 3L3.30536 3.06V3.94L3.24536 4H2.36536L2.30536 3.94V3.06L2.36536 3H3.24536ZM4.24536 6L4.30536 6.06V6.94L4.24536 7H1.36536L1.30536 6.94V6.06L1.36536 6H4.24536Z" fill="#F5F5F5"/>
<path d="M18.6226 0L18.6826 0.0600004V0.94L18.6226 1H15.7426L15.6826 0.94V0.0600004L15.7426 0H18.6226ZM19.6226 1L19.6826 1.06V5.94L19.6226 6H18.7426L18.6826 5.94V3.06L18.7426 3L18.6826 2.94L18.6226 3H17.7426L17.6826 2.94V2.06L17.7426 2H18.6226L18.6826 2.06L18.7426 2L18.6826 1.94V1.06L18.7426 1H19.6226ZM15.6226 1L15.6826 1.06V3.94L15.6226 4L15.6826 4.06L15.7426 4H16.6226L16.6826 4.06V4.94L16.6226 5H15.7426L15.6826 4.94L15.6226 5L15.6826 5.06V5.94L15.6226 6H14.7426L14.6826 5.94V1.06L14.7426 1H15.6226ZM17.6226 3L17.6826 3.06V3.94L17.6226 4H16.7426L16.6826 3.94V3.06L16.7426 3H17.6226ZM18.6226 6L18.6826 6.06V6.94L18.6226 7H15.7426L15.6826 6.94V6.06L15.7426 6H18.6226Z" fill="#F5F5F5"/>
<path d="M33 0L33.06 0.0600004V0.94L33 1H30.12L30.06 0.94V0.0600004L30.12 0H33ZM34 1L34.06 1.06V5.94L34 6H33.12L33.06 5.94V3.06L33.12 3L33.06 2.94L33 3H32.12L32.06 2.94V2.06L32.12 2H33L33.06 2.06L33.12 2L33.06 1.94V1.06L33.12 1H34ZM30 1L30.06 1.06V3.94L30 4L30.06 4.06L30.12 4H31L31.06 4.06V4.94L31 5H30.12L30.06 4.94L30 5L30.06 5.06V5.94L30 6H29.12L29.06 5.94V1.06L29.12 1H30ZM32 3L32.06 3.06V3.94L32 4H31.12L31.06 3.94V3.06L31.12 3H32ZM33 6L33.06 6.06V6.94L33 7H30.12L30.06 6.94V6.06L30.12 6H33Z" fill="#F5F5F5"/>
<path d="M27.007 58.301H47.007V78.301H27.007V58.301Z" fill="#F5F5F5"/>
<path d="M7.00702 58.301H27.007V78.301H7.00702V58.301Z" fill="#F5F5F5"/>
<path d="M7.00702 98.5393H27.007V118.539H7.00702V98.5393Z" fill="#F5F5F5"/>
<path d="M91.9085 0L91.9685 0.0599998V9.94L91.9085 10H91.0285L90.9685 9.94V0.0599998L91.0285 0H91.9085Z" fill="#F5F5F5"/>
<path d="M91.9085 11L91.9685 11.06V20.94L91.9085 21H91.0285L90.9685 20.94V11.06L91.0285 11H91.9085Z" fill="#F5F5F5"/>
<path d="M91.9085 22L91.9685 22.06V31.94L91.9085 32H91.0285L90.9685 31.94V22.06L91.0285 22H91.9085Z" fill="#F5F5F5"/>
<path d="M91.9085 33L91.9685 33.06V42.94L91.9085 43H91.0285L90.9685 42.94V33.06L91.0285 33H91.9085Z" fill="#F5F5F5"/>
<path d="M91.9085 44L91.9685 44.06V53.94L91.9085 54H91.0285L90.9685 53.94V44.06L91.0285 44H91.9085Z" fill="#F5F5F5"/>
<path d="M91.9085 55L91.9685 55.06V64.94L91.9085 65H91.0285L90.9685 64.94V55.06L91.0285 55H91.9085Z" fill="#F5F5F5"/>
<path d="M91.9085 66L91.9685 66.06V75.94L91.9085 76H91.0285L90.9685 75.94V66.06L91.0285 66H91.9085Z" fill="#F5F5F5"/>
<path d="M91.9085 77L91.9685 77.06V86.94L91.9085 87H91.0285L90.9685 86.94V77.06L91.0285 77H91.9085Z" fill="#F5F5F5"/>
<path d="M91.9085 88L91.9685 88.06V97.94L91.9085 98H91.0285L90.9685 97.94V88.06L91.0285 88H91.9085Z" fill="#F5F5F5"/>
<path d="M91.9085 99L91.9685 99.06V108.94L91.9085 109H91.0285L90.9685 108.94V99.06L91.0285 99H91.9085Z" fill="#F5F5F5"/>
<path d="M91.9085 110L91.9685 110.06V119.94L91.9085 120H91.0285L90.9685 119.94V110.06L91.0285 110H91.9085Z" fill="#F5F5F5"/>
</svg>
