<svg width="93" height="120" viewBox="0 0 93 120" fill="none" xmlns="http://www.w3.org/2000/svg">
<path d="M4.79676 21.8242L4.86003 21.8842V22.7642L4.79676 22.8242H1.75989L1.69662 22.7642V21.8842L1.75989 21.8242H4.79676ZM5.85123 22.8242L5.91449 22.8842V27.7642L5.85123 27.8242H4.92329L4.86003 27.7642V24.8842L4.92329 24.8242L4.86003 24.7642L4.79676 24.8242H3.86883L3.80556 24.7642V23.8842L3.86883 23.8242H4.79676L4.86003 23.8842L4.92329 23.8242L4.86003 23.7642V22.8842L4.92329 22.8242H5.85123ZM1.63335 22.8242L1.69662 22.8842V25.7642L1.63335 25.8242L1.69662 25.8842L1.75989 25.8242H2.68782L2.75109 25.8842V26.7642L2.68782 26.8242H1.75989L1.69662 26.7642L1.63335 26.8242L1.69662 26.8842V27.7642L1.63335 27.8242H0.705419L0.642151 27.7642V22.8842L0.705419 22.8242H1.63335ZM3.74229 24.8242L3.80556 24.8842V25.7642L3.74229 25.8242H2.81436L2.75109 25.7642V24.8842L2.81436 24.8242H3.74229ZM4.79676 27.8242L4.86003 27.8842V28.7642L4.79676 28.8242H1.75989L1.69662 28.7642V27.8842L1.75989 27.8242H4.79676Z" fill="#F5F5F5"/>
<path d="M18.9026 21.8242L18.9659 21.8842V27.7642L18.9026 27.8242L18.9659 27.8842L19.0291 27.8242H21.0115L21.0748 27.8842V28.7642L21.0115 28.8242H15.8657L15.8025 28.7642V27.8842L15.8657 27.8242H17.8481L17.9114 27.8842L17.9747 27.8242L17.9114 27.7642V23.8842L17.9747 23.8242L17.9114 23.7642L17.8481 23.8242H16.393L16.3297 23.7642V22.8842L16.393 22.8242H17.8481L17.9114 22.8842L17.9747 22.8242L17.9114 22.7642V21.8842L17.9747 21.8242H18.9026Z" fill="#F5F5F5"/>
<path d="M77.1788 24.92L77.3054 25.04V28.88L77.1788 29H75.2808L75.1542 28.88V27.08L75.2808 26.96L75.1542 26.84L75.0277 26.96H73.1297L73.0031 26.84V25.04L73.1297 24.92H77.1788ZM75.0277 29L75.1542 29.12V30.92L75.0277 31.04H73.1297L73.0031 30.92V29.12L73.1297 29H75.0277Z" fill="#F5F5F5"/>
<path d="M35.1176 21.8242L35.1809 21.8842V22.7642L35.1176 22.8242H32.0808L32.0175 22.7642V21.8842L32.0808 21.8242H35.1176ZM36.1721 22.8242L36.2354 22.8842V27.7642L36.1721 27.8242H35.2442L35.1809 27.7642V24.8842L35.2442 24.8242L35.1809 24.7642L35.1176 24.8242H34.1897L34.1264 24.7642V23.8842L34.1897 23.8242H35.1176L35.1809 23.8842L35.2442 23.8242L35.1809 23.7642V22.8842L35.2442 22.8242H36.1721ZM31.9542 22.8242L32.0175 22.8842V25.7642L31.9542 25.8242L32.0175 25.8842L32.0808 25.8242H33.0087L33.072 25.8842V26.7642L33.0087 26.8242H32.0808L32.0175 26.7642L31.9542 26.8242L32.0175 26.8842V27.7642L31.9542 27.8242H31.0263L30.963 27.7642V22.8842L31.0263 22.8242H31.9542ZM34.0632 24.8242L34.1264 24.8842V25.7642L34.0632 25.8242H33.1352L33.072 25.7642V24.8842L33.1352 24.8242H34.0632ZM35.1176 27.8242L35.1809 27.8842V28.7642L35.1176 28.8242H32.0808L32.0175 28.7642V27.8842L32.0808 27.8242H35.1176Z" fill="#F5F5F5"/>
<path d="M4.79676 10.9121L4.86003 10.9721V11.8521L4.79676 11.9121H1.75989L1.69662 11.8521V10.9721L1.75989 10.9121H4.79676ZM5.85123 11.9121L5.91449 11.9721V16.8521L5.85123 16.9121H4.92329L4.86003 16.8521V13.9721L4.92329 13.9121L4.86003 13.8521L4.79676 13.9121H3.86883L3.80556 13.8521V12.9721L3.86883 12.9121H4.79676L4.86003 12.9721L4.92329 12.9121L4.86003 12.8521V11.9721L4.92329 11.9121H5.85123ZM1.63335 11.9121L1.69662 11.9721V14.8521L1.63335 14.9121L1.69662 14.9721L1.75989 14.9121H2.68782L2.75109 14.9721V15.8521L2.68782 15.9121H1.75989L1.69662 15.8521L1.63335 15.9121L1.69662 15.9721V16.8521L1.63335 16.9121H0.705419L0.642151 16.8521V11.9721L0.705419 11.9121H1.63335ZM3.74229 13.9121L3.80556 13.9721V14.8521L3.74229 14.9121H2.81436L2.75109 14.8521V13.9721L2.81436 13.9121H3.74229ZM4.79676 16.9121L4.86003 16.9721V17.8521L4.79676 17.9121H1.75989L1.69662 17.8521V16.9721L1.75989 16.9121H4.79676Z" fill="#F5F5F5"/>
<path d="M18.9026 10.9121L18.9659 10.9721V16.8521L18.9026 16.9121L18.9659 16.9721L19.0291 16.9121H21.0115L21.0748 16.9721V17.8521L21.0115 17.9121H15.8657L15.8025 17.8521V16.9721L15.8657 16.9121H17.8481L17.9114 16.9721L17.9747 16.9121L17.9114 16.8521V12.9721L17.9747 12.9121L17.9114 12.8521L17.8481 12.9121H16.393L16.3297 12.8521V11.9721L16.393 11.9121H17.8481L17.9114 11.9721L17.9747 11.9121L17.9114 11.8521V10.9721L17.9747 10.9121H18.9026Z" fill="#F5F5F5"/>
<path d="M35.1176 10.9121L35.1809 10.9721V11.8521L35.1176 11.9121H32.0808L32.0175 11.8521V10.9721L32.0808 10.9121H35.1176ZM36.1721 11.9121L36.2354 11.9721V16.8521L36.1721 16.9121H35.2442L35.1809 16.8521V13.9721L35.2442 13.9121L35.1809 13.8521L35.1176 13.9121H34.1897L34.1264 13.8521V12.9721L34.1897 12.9121H35.1176L35.1809 12.9721L35.2442 12.9121L35.1809 12.8521V11.9721L35.2442 11.9121H36.1721ZM31.9542 11.9121L32.0175 11.9721V14.8521L31.9542 14.9121L32.0175 14.9721L32.0808 14.9121H33.0087L33.072 14.9721V15.8521L33.0087 15.9121H32.0808L32.0175 15.8521L31.9542 15.9121L32.0175 15.9721V16.8521L31.9542 16.9121H31.0263L30.963 16.8521V11.9721L31.0263 11.9121H31.9542ZM34.0632 13.9121L34.1264 13.9721V14.8521L34.0632 14.9121H33.1352L33.072 14.8521V13.9721L33.1352 13.9121H34.0632ZM35.1176 16.9121L35.1809 16.9721V17.8521L35.1176 17.9121H32.0808L32.0175 17.8521V16.9721L32.0808 16.9121H35.1176Z" fill="#F5F5F5"/>
<path d="M4.79676 0L4.86003 0.0600004V0.94L4.79676 1H1.75989L1.69662 0.94V0.0600004L1.75989 0H4.79676ZM5.85123 1L5.91449 1.06V5.94L5.85123 6H4.92329L4.86003 5.94V3.06L4.92329 3L4.86003 2.94L4.79676 3H3.86883L3.80556 2.94V2.06L3.86883 2H4.79676L4.86003 2.06L4.92329 2L4.86003 1.94V1.06L4.92329 1H5.85123ZM1.63335 1L1.69662 1.06V3.94L1.63335 4L1.69662 4.06L1.75989 4H2.68782L2.75109 4.06V4.94L2.68782 5H1.75989L1.69662 4.94L1.63335 5L1.69662 5.06V5.94L1.63335 6H0.705419L0.642151 5.94V1.06L0.705419 1H1.63335ZM3.74229 3L3.80556 3.06V3.94L3.74229 4H2.81436L2.75109 3.94V3.06L2.81436 3H3.74229ZM4.79676 6L4.86003 6.06V6.94L4.79676 7H1.75989L1.69662 6.94V6.06L1.75989 6H4.79676Z" fill="#F5F5F5"/>
<path d="M19.9571 0L20.0203 0.0600004V0.94L19.9571 1H16.9202L16.8569 0.94V0.0600004L16.9202 0H19.9571ZM21.0115 1L21.0748 1.06V5.94L21.0115 6H20.0836L20.0203 5.94V3.06L20.0836 3L20.0203 2.94L19.9571 3H19.0291L18.9659 2.94V2.06L19.0291 2H19.9571L20.0203 2.06L20.0836 2L20.0203 1.94V1.06L20.0836 1H21.0115ZM16.7937 1L16.8569 1.06V3.94L16.7937 4L16.8569 4.06L16.9202 4H17.8481L17.9114 4.06V4.94L17.8481 5H16.9202L16.8569 4.94L16.7937 5L16.8569 5.06V5.94L16.7937 6H15.8657L15.8025 5.94V1.06L15.8657 1H16.7937ZM18.9026 3L18.9659 3.06V3.94L18.9026 4H17.9747L17.9114 3.94V3.06L17.9747 3H18.9026ZM19.9571 6L20.0203 6.06V6.94L19.9571 7H16.9202L16.8569 6.94V6.06L16.9202 6H19.9571Z" fill="#F5F5F5"/>
<path d="M35.1176 0L35.1809 0.0600004V0.94L35.1176 1H32.0808L32.0175 0.94V0.0600004L32.0808 0H35.1176ZM36.1721 1L36.2354 1.06V5.94L36.1721 6H35.2442L35.1809 5.94V3.06L35.2442 3L35.1809 2.94L35.1176 3H34.1897L34.1264 2.94V2.06L34.1897 2H35.1176L35.1809 2.06L35.2442 2L35.1809 1.94V1.06L35.2442 1H36.1721ZM31.9542 1L32.0175 1.06V3.94L31.9542 4L32.0175 4.06L32.0808 4H33.0087L33.072 4.06V4.94L33.0087 5H32.0808L32.0175 4.94L31.9542 5L32.0175 5.06V5.94L31.9542 6H31.0263L30.963 5.94V1.06L31.0263 1H31.9542ZM34.0632 3L34.1264 3.06V3.94L34.0632 4H33.1352L33.072 3.94V3.06L33.1352 3H34.0632ZM35.1176 6L35.1809 6.06V6.94L35.1176 7H32.0808L32.0175 6.94V6.06L32.0808 6H35.1176Z" fill="#F5F5F5"/>
<path d="M28.8375 78.5393H49.9268V98.5393H28.8375V78.5393Z" fill="#F5F5F5"/>
<path d="M28.8375 98.5393H49.9268V118.539H28.8375V98.5393Z" fill="#F5F5F5"/>
<path d="M92.2454 0L92.3054 0.0599998V9.94L92.2454 10H91.3654L91.3054 9.94V0.0599998L91.3654 0H92.2454Z" fill="#F5F5F5"/>
<path d="M92.2454 11L92.3054 11.06V20.94L92.2454 21H91.3654L91.3054 20.94V11.06L91.3654 11H92.2454Z" fill="#F5F5F5"/>
<path d="M92.2454 22L92.3054 22.06V31.94L92.2454 32H91.3654L91.3054 31.94V22.06L91.3654 22H92.2454Z" fill="#F5F5F5"/>
<path d="M92.2454 33L92.3054 33.06V42.94L92.2454 43H91.3654L91.3054 42.94V33.06L91.3654 33H92.2454Z" fill="#F5F5F5"/>
<path d="M92.2454 44L92.3054 44.06V53.94L92.2454 54H91.3654L91.3054 53.94V44.06L91.3654 44H92.2454Z" fill="#F5F5F5"/>
<path d="M92.2454 55L92.3054 55.06V64.94L92.2454 65H91.3654L91.3054 64.94V55.06L91.3654 55H92.2454Z" fill="#F5F5F5"/>
<path d="M92.2454 66L92.3054 66.06V75.94L92.2454 76H91.3654L91.3054 75.94V66.06L91.3654 66H92.2454Z" fill="#F5F5F5"/>
<path d="M92.2454 77L92.3054 77.06V86.94L92.2454 87H91.3654L91.3054 86.94V77.06L91.3654 77H92.2454Z" fill="#F5F5F5"/>
<path d="M92.2454 88L92.3054 88.06V97.94L92.2454 98H91.3654L91.3054 97.94V88.06L91.3654 88H92.2454Z" fill="#F5F5F5"/>
<path d="M92.2454 99L92.3054 99.06V108.94L92.2454 109H91.3654L91.3054 108.94V99.06L91.3654 99H92.2454Z" fill="#F5F5F5"/>
<path d="M92.2454 110L92.3054 110.06V119.94L92.2454 120H91.3654L91.3054 119.94V110.06L91.3654 110H92.2454Z" fill="#F5F5F5"/>
</svg>
