<?xml version="1.0" encoding="UTF-8"?>
<svg id="Layer_2" data-name="Layer 2" xmlns="http://www.w3.org/2000/svg" xmlns:xlink="http://www.w3.org/1999/xlink" viewBox="0 0 489.39 314.72">
  <defs>
    <style>
      .cls-1, .cls-2 {
        fill: none;
        stroke: #fff;
        stroke-miterlimit: 10;
      }

      .cls-3 {
        isolation: isolate;
      }

      .cls-4 {
        clip-path: url(#clippath-17);
      }

      .cls-5 {
        clip-path: url(#clippath-19);
      }

      .cls-6 {
        clip-path: url(#clippath-11);
      }

      .cls-7 {
        clip-path: url(#clippath-16);
      }

      .cls-8 {
        clip-path: url(#clippath-18);
      }

      .cls-9 {
        clip-path: url(#clippath-10);
      }

      .cls-10 {
        clip-path: url(#clippath-15);
      }

      .cls-11 {
        clip-path: url(#clippath-13);
      }

      .cls-12 {
        clip-path: url(#clippath-14);
      }

      .cls-13 {
        clip-path: url(#clippath-12);
      }

      .cls-14 {
        clip-path: url(#clippath-61);
      }

      .cls-15 {
        clip-path: url(#clippath-67);
      }

      .cls-16 {
        clip-path: url(#clippath-68);
      }

      .cls-17 {
        clip-path: url(#clippath-60);
      }

      .cls-18 {
        clip-path: url(#clippath-65);
      }

      .cls-19 {
        clip-path: url(#clippath-62);
      }

      .cls-20 {
        clip-path: url(#clippath-64);
      }

      .cls-21 {
        clip-path: url(#clippath-66);
      }

      .cls-22 {
        clip-path: url(#clippath-63);
      }

      .cls-23 {
        clip-path: url(#clippath-76);
      }

      .cls-24 {
        clip-path: url(#clippath-75);
      }

      .cls-25 {
        clip-path: url(#clippath-50);
      }

      .cls-26 {
        clip-path: url(#clippath-55);
      }

      .cls-27 {
        clip-path: url(#clippath-52);
      }

      .cls-28 {
        clip-path: url(#clippath-57);
      }

      .cls-29 {
        clip-path: url(#clippath-54);
      }

      .cls-30 {
        clip-path: url(#clippath-56);
      }

      .cls-31 {
        clip-path: url(#clippath-53);
      }

      .cls-32 {
        clip-path: url(#clippath-70);
      }

      .cls-33 {
        clip-path: url(#clippath-74);
      }

      .cls-34 {
        clip-path: url(#clippath-71);
      }

      .cls-35 {
        clip-path: url(#clippath-73);
      }

      .cls-36 {
        clip-path: url(#clippath-72);
      }

      .cls-37 {
        clip-path: url(#clippath-51);
      }

      .cls-38 {
        clip-path: url(#clippath-58);
      }

      .cls-39 {
        clip-path: url(#clippath-59);
      }

      .cls-40 {
        clip-path: url(#clippath-31);
      }

      .cls-41 {
        clip-path: url(#clippath-32);
      }

      .cls-42 {
        clip-path: url(#clippath-33);
      }

      .cls-43 {
        clip-path: url(#clippath-34);
      }

      .cls-44 {
        clip-path: url(#clippath-35);
      }

      .cls-45 {
        clip-path: url(#clippath-39);
      }

      .cls-46 {
        clip-path: url(#clippath-30);
      }

      .cls-47 {
        clip-path: url(#clippath-36);
      }

      .cls-48 {
        clip-path: url(#clippath-37);
      }

      .cls-49 {
        clip-path: url(#clippath-38);
      }

      .cls-50 {
        clip-path: url(#clippath-27);
      }

      .cls-51 {
        clip-path: url(#clippath-29);
      }

      .cls-52 {
        clip-path: url(#clippath-26);
      }

      .cls-53 {
        clip-path: url(#clippath-28);
      }

      .cls-54 {
        clip-path: url(#clippath-20);
      }

      .cls-55 {
        clip-path: url(#clippath-21);
      }

      .cls-56 {
        clip-path: url(#clippath-22);
      }

      .cls-57 {
        clip-path: url(#clippath-23);
      }

      .cls-58 {
        clip-path: url(#clippath-24);
      }

      .cls-59 {
        clip-path: url(#clippath-25);
      }

      .cls-60 {
        clip-path: url(#clippath-69);
      }

      .cls-61 {
        clip-path: url(#clippath-41);
      }

      .cls-62 {
        clip-path: url(#clippath-42);
      }

      .cls-63 {
        clip-path: url(#clippath-43);
      }

      .cls-64 {
        clip-path: url(#clippath-44);
      }

      .cls-65 {
        clip-path: url(#clippath-45);
      }

      .cls-66 {
        clip-path: url(#clippath-49);
      }

      .cls-67 {
        clip-path: url(#clippath-40);
      }

      .cls-68 {
        clip-path: url(#clippath-46);
      }

      .cls-69 {
        clip-path: url(#clippath-47);
      }

      .cls-70 {
        clip-path: url(#clippath-48);
      }

      .cls-71 {
        clip-path: url(#clippath-1);
      }

      .cls-72 {
        clip-path: url(#clippath-3);
      }

      .cls-73 {
        clip-path: url(#clippath-4);
      }

      .cls-74 {
        clip-path: url(#clippath-2);
      }

      .cls-75 {
        clip-path: url(#clippath-7);
      }

      .cls-76 {
        clip-path: url(#clippath-6);
      }

      .cls-77 {
        clip-path: url(#clippath-9);
      }

      .cls-78 {
        clip-path: url(#clippath-8);
      }

      .cls-79 {
        clip-path: url(#clippath-5);
      }

      .cls-2 {
        stroke-width: .25px;
      }

      .cls-80 {
        clip-path: url(#clippath);
      }
    </style>
    <clipPath id="clippath">
      <path class="cls-1" d="M315.95,122.57c-52.61,3.27-109.46-10.08-126.97-29.83-17.51-19.75,10.96-38.41,63.57-41.68,52.61-3.27,109.46,10.09,126.96,29.83,17.51,19.75-10.95,38.41-63.56,41.68Z"/>
    </clipPath>
    <clipPath id="clippath-1">
      <path class="cls-1" d="M313.72,157.08c-52.61,3.27-109.46-10.08-126.97-29.83-17.51-19.75,10.96-38.41,63.57-41.68,52.61-3.27,109.46,10.09,126.96,29.83,17.51,19.75-10.95,38.41-63.56,41.68Z"/>
    </clipPath>
    <clipPath id="clippath-2">
      <path class="cls-1" d="M378.34,136.88c5.62-6.46,5.68-13.89-1.05-21.48-17.5-19.75-74.35-33.11-126.96-29.83-50.02,3.11-78.21,20.13-65.82,38.77-1.18-1.77-2.35-3.54-3.53-5.31-12.88-19.38,16.43-37.08,68.44-40.31,54.71-3.4,113.81,10.49,132.01,31.02,7,7.89,6.93,15.62,1.09,22.33-1.39,1.6-2.79,3.2-4.18,4.81Z"/>
    </clipPath>
    <clipPath id="clippath-3">
      <path class="cls-1" d="M382.52,132.08c-1.39,1.6-2.79,3.21-4.18,4.81-8.99,10.34-32.23,18.18-64.61,20.2l1.61-4.01c33.68-2.09,57.83-10.25,67.18-21Z"/>
    </clipPath>
    <clipPath id="clippath-4">
      <path class="cls-1" d="M184.5,124.34c-1.18-1.77-2.35-3.54-3.53-5.31.67,1,1.45,2.01,2.35,3.03,18.2,20.53,77.31,34.42,132.02,31.02l-1.61,4.01c-52.61,3.27-109.46-10.08-126.97-29.83-.86-.97-1.61-1.94-2.26-2.91Z"/>
    </clipPath>
    <clipPath id="clippath-5">
      <path class="cls-1" d="M386.76,122.65c.27-4.15-1.44-8.5-5.34-12.91-18.2-20.53-77.31-34.42-132.01-31.02-42.98,2.67-70.45,15.22-71.44,30.43l1.53-23.66c.98-15.21,28.46-27.76,71.44-30.43,54.71-3.4,113.81,10.49,132.01,31.02,3.9,4.4,5.61,8.75,5.34,12.91-.46,7.1-1.07,16.56-1.53,23.66Z"/>
    </clipPath>
    <clipPath id="clippath-6">
      <path class="cls-1" d="M388.29,98.99l-1.53,23.66c-.98,15.21-28.46,27.75-71.43,30.43l1.53-23.66c42.97-2.67,70.45-15.22,71.43-30.43Z"/>
    </clipPath>
    <clipPath id="clippath-7">
      <path class="cls-1" d="M177.97,109.15l1.53-23.66c-.27,4.15,1.44,8.5,5.34,12.91,18.2,20.53,77.31,34.42,132.02,31.02l-1.53,23.66c-54.71,3.4-113.81-10.48-132.02-31.02-3.9-4.4-5.61-8.75-5.34-12.91Z"/>
    </clipPath>
    <clipPath id="clippath-8">
      <path class="cls-1" d="M385.3,89.11c-.67-1-1.45-2.01-2.35-3.03-18.2-20.53-77.31-34.42-132.01-31.02-33.68,2.09-57.84,10.25-67.19,21,1.39-1.6,2.79-3.2,4.18-4.81,8.99-10.34,32.23-18.19,64.62-20.2,52.61-3.27,109.46,10.09,126.96,29.83.86.97,1.61,1.94,2.26,2.91.59.88,1.18,1.77,1.76,2.65.59.88,1.18,1.77,1.76,2.65Z"/>
    </clipPath>
    <clipPath id="clippath-9">
      <path class="cls-1" d="M381.77,83.8c.65.97,1.29,1.95,1.94,2.92.53.8,1.06,1.59,1.59,2.39,12.88,19.38-16.43,37.07-68.44,40.31l-.91-6.85c50.02-3.11,78.21-20.13,65.82-38.76Z"/>
    </clipPath>
    <clipPath id="clippath-10">
      <path class="cls-1" d="M183.75,76.06c1.39-1.6,2.79-3.2,4.18-4.81-5.62,6.46-5.68,13.89,1.05,21.48,17.5,19.75,74.36,33.1,126.97,29.83l.91,6.85c-54.71,3.4-113.81-10.48-132.02-31.02-7-7.89-6.93-15.62-1.09-22.33Z"/>
    </clipPath>
    <clipPath id="clippath-11">
      <path class="cls-1" d="M274.71,30.07c-9.66.51-20.04-1.64-23.18-4.79-3.14-3.15,2.15-6.12,11.81-6.62,9.66-.51,20.04,1.64,23.18,4.79,3.14,3.15-2.15,6.12-11.81,6.62Z"/>
    </clipPath>
    <clipPath id="clippath-12">
      <path class="cls-1" d="M274.3,37.66c-9.66.51-20.04-1.64-23.18-4.79-3.14-3.15,2.15-6.12,11.81-6.62,9.66-.51,20.04,1.64,23.18,4.79,3.14,3.15-2.15,6.12-11.81,6.62Z"/>
    </clipPath>
    <clipPath id="clippath-13">
      <path class="cls-1" d="M284.18,35.75c2.8-1.25,3.68-2.95,1.92-4.71-3.14-3.15-13.53-5.3-23.18-4.79-9.66.51-14.95,3.47-11.81,6.62.41.42.96.82,1.61,1.19-.55-.32-1.11-.64-1.66-.97-.72-.42-1.32-.86-1.78-1.32-3.48-3.49,2.38-6.78,13.09-7.34s22.22,1.82,25.7,5.31c1.95,1.95.97,3.84-2.13,5.23-.59.26-1.17.52-1.76.78Z"/>
    </clipPath>
    <clipPath id="clippath-14">
      <path class="cls-1" d="M285.94,34.97c-.59.26-1.17.52-1.76.78-2.21.99-5.62,1.69-9.88,1.91l.68-.57c4.72-.25,8.5-1.03,10.96-2.12Z"/>
    </clipPath>
    <clipPath id="clippath-15">
      <path class="cls-1" d="M252.72,34.07c-.55-.32-1.11-.64-1.66-.97,4.73,2.75,14.63,4.48,23.92,3.99l-.68.57c-8.38.44-17.31-1.12-21.58-3.6Z"/>
    </clipPath>
    <clipPath id="clippath-16">
      <path class="cls-1" d="M289.07,31.86c.04-.68-.28-1.39-1-2.11-3.48-3.49-14.99-5.87-25.7-5.31-8.5.45-13.95,2.61-14.09,5.23l.28-5.21c.14-2.62,5.59-4.79,14.09-5.23,10.71-.56,22.22,1.82,25.7,5.31.72.72,1.04,1.43,1,2.11-.08,1.56-.2,3.65-.28,5.21Z"/>
    </clipPath>
    <clipPath id="clippath-17">
      <path class="cls-1" d="M289.35,26.65l-.28,5.21c-.14,2.62-5.59,4.79-14.09,5.23l.28-5.21c8.5-.45,13.95-2.61,14.09-5.23Z"/>
    </clipPath>
    <clipPath id="clippath-18">
      <path class="cls-1" d="M248.28,29.67l.28-5.21c-.04.68.28,1.39,1,2.11,3.48,3.49,14.99,5.87,25.7,5.31l-.28,5.21c-10.71.56-22.22-1.82-25.7-5.31-.72-.72-1.04-1.43-1-2.11Z"/>
    </clipPath>
    <clipPath id="clippath-19">
      <path class="cls-1" d="M286.57,23.22c-4.73-2.75-14.63-4.48-23.92-3.99-4.72.25-8.5,1.03-10.96,2.12.03-.01.06-.03.09-.04s.06-.03.09-.04c.05-.02.12-.05.18-.08.03-.01.06-.03.09-.04.05-.02.12-.05.18-.08.03-.01.06-.03.09-.04.05-.02.12-.05.18-.08s.12-.05.18-.08.12-.05.18-.08.12-.05.18-.08c.03-.01.06-.03.09-.04s.06-.03.09-.04.06-.03.09-.04.06-.04.09-.04c2.21-.99,5.62-1.69,9.88-1.91,8.38-.44,17.31,1.12,21.58,3.6.55.32,1.11.64,1.66.97Z"/>
    </clipPath>
    <clipPath id="clippath-20">
      <path class="cls-1" d="M284.91,22.25c.55.32,1.11.64,1.66.97.72.42,1.32.86,1.78,1.32,3.48,3.49-2.38,6.78-13.09,7.34l-.55-1.81c9.66-.51,14.95-3.47,11.81-6.62-.41-.42-.96-.82-1.61-1.19Z"/>
    </clipPath>
    <clipPath id="clippath-21">
      <path class="cls-1" d="M251.7,21.35c.05-.02.12-.05.18-.08.03-.01.06-.03.09-.04.05-.02.12-.05.18-.08.03-.01.06-.03.09-.04.05-.02.12-.05.18-.08.03-.01.06-.03.09-.04.05-.02.12-.05.18-.08s.12-.05.18-.08.12-.05.18-.08.12-.05.18-.08c.03-.01.06-.03.09-.04.05-.02.12-.05.18-.08-2.8,1.25-3.68,2.95-1.92,4.71,3.14,3.15,13.53,5.3,23.18,4.79l.55,1.81c-10.71.56-22.22-1.82-25.7-5.31-1.95-1.95-.97-3.84,2.13-5.23Z"/>
    </clipPath>
    <clipPath id="clippath-22">
      <path class="cls-1" d="M240.97,277.78c1.13-.12,2.04.73,2.04,1.89,0,1.16-.92,2.19-2.05,2.31-1.12.12-2.04-.73-2.04-1.89,0-1.15.93-2.2,2.05-2.31Z"/>
    </clipPath>
    <clipPath id="clippath-23">
      <path class="cls-1" d="M242.38,278.83c1.13-.12,2.04.73,2.04,1.89,0,1.16-.92,2.19-2.05,2.31-1.12.12-2.04-.73-2.04-1.89,0-1.15.93-2.2,2.05-2.31Z"/>
    </clipPath>
    <clipPath id="clippath-24">
      <path class="cls-1" d="M242.38,278.83l-.21-4.01c3.2-.33,5.78,2.07,5.78,5.34s-2.6,6.21-5.8,6.53-5.78-2.06-5.78-5.34,2.61-6.21,5.8-6.53l.21,4.01c-1.12.11-2.05,1.16-2.05,2.31,0,1.16.92,2.01,2.04,1.89,1.13-.12,2.05-1.15,2.05-2.31,0-1.15-.91-2-2.04-1.89Z"/>
    </clipPath>
    <clipPath id="clippath-25">
      <path class="cls-1" d="M245.83,275.78c1.29.96,2.12,2.53,2.11,4.38,0,3.29-2.6,6.21-5.8,6.53-1.39.14-2.67-.23-3.66-.97l-.97-.71c1,.74,2.27,1.11,3.66.97,3.2-.33,5.79-3.25,5.8-6.53,0-1.85-.82-3.42-2.11-4.38.29.21.68.5.97.71Z"/>
    </clipPath>
    <clipPath id="clippath-26">
      <path class="cls-1" d="M244.86,275.07l.97.71c-1-.74-2.27-1.11-3.66-.97l-.97-.71c1.39-.14,2.67.23,3.66.97Z"/>
    </clipPath>
    <clipPath id="clippath-27">
      <path class="cls-1" d="M238.48,285.73l-.97-.71c-1.29-.96-2.12-2.52-2.11-4.38,0-3.28,2.61-6.21,5.8-6.53l.97.71c-3.19.33-5.79,3.26-5.8,6.53,0,1.85.82,3.42,2.11,4.38Z"/>
    </clipPath>
    <clipPath id="clippath-28">
      <path class="cls-1" d="M241.2,274.1c3.2-.33,5.78,2.07,5.78,5.34s-2.6,6.21-5.8,6.53-5.78-2.06-5.78-5.34,2.61-6.21,5.8-6.53l-.23,3.68c-1.12.11-2.05,1.16-2.05,2.31,0,1.16.92,2.01,2.04,1.89,1.13-.12,2.05-1.15,2.05-2.31,0-1.15-.91-2-2.04-1.89l.23-3.68Z"/>
    </clipPath>
    <clipPath id="clippath-29">
      <path class="cls-1" d="M454.66,254.65c1.12-.12,2.04.74,2.04,1.89,0,1.16-.92,2.19-2.05,2.31-1.13.12-2.04-.73-2.04-1.89,0-1.15.92-2.19,2.05-2.31Z"/>
    </clipPath>
    <clipPath id="clippath-30">
      <path class="cls-1" d="M456.07,255.7c1.12-.12,2.04.74,2.04,1.89,0,1.16-.92,2.19-2.05,2.31-1.13.12-2.04-.73-2.04-1.89,0-1.15.92-2.19,2.05-2.31Z"/>
    </clipPath>
    <clipPath id="clippath-31">
      <path class="cls-1" d="M456.07,255.7l-.21-4.01c3.19-.33,5.78,2.07,5.78,5.34s-2.61,6.21-5.8,6.53-5.78-2.06-5.78-5.34,2.6-6.21,5.8-6.53l.21,4.01c-1.13.11-2.05,1.15-2.05,2.31,0,1.16.91,2,2.04,1.89,1.12-.11,2.05-1.15,2.05-2.31,0-1.15-.92-2.01-2.04-1.89Z"/>
    </clipPath>
    <clipPath id="clippath-32">
      <path class="cls-1" d="M459.52,252.66c1.29.96,2.12,2.53,2.11,4.38,0,3.29-2.61,6.21-5.8,6.53-1.39.14-2.67-.23-3.67-.97l-.97-.71c1,.74,2.27,1.11,3.67.97,3.19-.33,5.79-3.25,5.8-6.53,0-1.85-.82-3.42-2.11-4.38.29.21.68.5.97.71Z"/>
    </clipPath>
    <clipPath id="clippath-33">
      <path class="cls-1" d="M458.55,251.94l.97.71c-1-.74-2.27-1.11-3.66-.97l-.97-.71c1.39-.14,2.66.23,3.66.97Z"/>
    </clipPath>
    <clipPath id="clippath-34">
      <path class="cls-1" d="M452.17,262.6l-.97-.71c-1.29-.96-2.11-2.52-2.11-4.38,0-3.28,2.6-6.21,5.8-6.53l.97.71c-3.2.33-5.79,3.26-5.8,6.53,0,1.85.82,3.42,2.11,4.38Z"/>
    </clipPath>
    <clipPath id="clippath-35">
      <path class="cls-1" d="M454.89,250.97c3.19-.33,5.78,2.07,5.78,5.34s-2.61,6.21-5.8,6.53-5.78-2.06-5.78-5.34,2.6-6.21,5.8-6.53l-.23,3.68c-1.13.11-2.05,1.15-2.05,2.31,0,1.16.91,2,2.04,1.89,1.12-.11,2.05-1.15,2.05-2.31,0-1.15-.92-2.01-2.04-1.89l.23-3.68Z"/>
    </clipPath>
    <clipPath id="clippath-36">
      <path class="cls-1" d="M37.75,125.23c1.13-.12,2.04.73,2.04,1.89,0,1.15-.92,2.19-2.05,2.31-1.12.12-2.05-.74-2.04-1.89,0-1.16.92-2.19,2.05-2.31Z"/>
    </clipPath>
    <clipPath id="clippath-37">
      <path class="cls-1" d="M39.16,126.28c1.13-.12,2.04.73,2.04,1.89,0,1.15-.92,2.19-2.05,2.31-1.12.12-2.05-.74-2.04-1.89,0-1.16.92-2.19,2.05-2.31Z"/>
    </clipPath>
    <clipPath id="clippath-38">
      <path class="cls-1" d="M39.16,126.28l-.21-4.01c3.2-.33,5.78,2.06,5.78,5.34s-2.6,6.21-5.8,6.53-5.78-2.07-5.78-5.34,2.61-6.21,5.8-6.53l.21,4.01c-1.12.11-2.05,1.15-2.05,2.31,0,1.15.92,2.01,2.04,1.89,1.13-.11,2.05-1.15,2.05-2.31,0-1.16-.91-2-2.04-1.89Z"/>
    </clipPath>
    <clipPath id="clippath-39">
      <path class="cls-1" d="M42.61,123.23c1.29.96,2.11,2.52,2.11,4.38,0,3.28-2.6,6.21-5.8,6.53-1.39.14-2.66-.23-3.66-.97l-.97-.71c1,.74,2.27,1.11,3.66.97,3.2-.33,5.79-3.26,5.8-6.53,0-1.85-.82-3.42-2.11-4.38.29.21.68.5.97.71Z"/>
    </clipPath>
    <clipPath id="clippath-40">
      <path class="cls-1" d="M41.65,122.52l.97.71c-1-.74-2.27-1.11-3.67-.97l-.97-.71c1.39-.14,2.67.23,3.67.97Z"/>
    </clipPath>
    <clipPath id="clippath-41">
      <path class="cls-1" d="M35.26,133.18l-.97-.71c-1.29-.96-2.12-2.53-2.11-4.38,0-3.29,2.61-6.21,5.8-6.53l.97.71c-3.19.33-5.79,3.25-5.8,6.53,0,1.85.82,3.42,2.11,4.38Z"/>
    </clipPath>
    <clipPath id="clippath-42">
      <path class="cls-1" d="M37.98,121.55c3.2-.33,5.78,2.06,5.78,5.34s-2.6,6.21-5.8,6.53-5.78-2.07-5.78-5.34,2.61-6.21,5.8-6.53l-.23,3.68c-1.12.11-2.05,1.15-2.05,2.31,0,1.15.92,2.01,2.04,1.89,1.13-.11,2.05-1.15,2.05-2.31,0-1.16-.91-2-2.04-1.89l.23-3.68Z"/>
    </clipPath>
    <clipPath id="clippath-43">
      <polygon class="cls-1" points="1.79 30.56 205.55 184.1 206.08 185.94 206.13 312.13 205.08 311.34 205.03 186.58 2.31 33.83 2.36 158.58 1.31 157.79 1.26 31.6 1.79 30.56"/>
    </clipPath>
    <clipPath id="clippath-44">
      <polygon class="cls-1" points="283.74 .76 487.5 154.31 488.03 156.14 488.08 282.33 487.03 281.54 486.98 156.79 284.26 4.03 284.31 128.78 283.26 127.99 283.21 1.81 283.74 .76"/>
    </clipPath>
    <clipPath id="clippath-45">
      <polygon class="cls-1" points="283.74 .76 283.21 1.81 1.26 31.6 1.79 30.56 283.74 .76"/>
    </clipPath>
    <clipPath id="clippath-46">
      <polygon class="cls-1" points="283.21 1.81 283.26 127.99 1.31 157.79 1.26 31.6 283.21 1.81"/>
    </clipPath>
    <clipPath id="clippath-47">
      <polygon class="cls-1" points="283.26 127.99 284.31 128.78 2.36 158.58 1.31 157.79 283.26 127.99"/>
    </clipPath>
    <clipPath id="clippath-48">
      <polygon class="cls-1" points="284.31 128.78 2.36 158.58 2.31 33.83 284.26 4.03 284.31 128.78"/>
    </clipPath>
    <clipPath id="clippath-49">
      <polygon class="cls-1" points="284.26 4.03 486.98 156.79 205.03 186.58 2.31 33.83 284.26 4.03"/>
    </clipPath>
    <clipPath id="clippath-50">
      <polygon class="cls-1" points="486.98 156.79 487.03 281.54 205.08 311.34 205.03 186.58 486.98 156.79"/>
    </clipPath>
    <clipPath id="clippath-51">
      <polygon class="cls-1" points="487.03 281.54 488.08 282.33 206.13 312.13 205.08 311.34 487.03 281.54"/>
    </clipPath>
    <clipPath id="clippath-52">
      <polygon class="cls-1" points="488.08 282.33 206.13 312.13 206.08 185.94 488.03 156.14 488.08 282.33"/>
    </clipPath>
    <clipPath id="clippath-53">
      <polygon class="cls-1" points="488.03 156.14 206.08 185.94 205.55 184.1 487.5 154.31 488.03 156.14"/>
    </clipPath>
    <clipPath id="clippath-54">
      <polygon class="cls-1" points="487.5 154.31 205.55 184.1 1.79 30.56 283.74 .76 487.5 154.31"/>
    </clipPath>
    <clipPath id="clippath-55">
      <polygon class="cls-1" points="2.3 104.85 3.36 105.64 3.38 159.48 204.03 310.69 204.01 256.85 205.06 257.64 205.09 312.91 204.56 313.96 2.85 161.96 2.33 160.12 2.3 104.85"/>
    </clipPath>
    <clipPath id="clippath-56">
      <polygon class="cls-1" points="284.25 75.05 285.31 75.84 285.33 129.69 485.98 280.89 485.96 227.05 487.01 227.84 487.04 283.12 486.51 284.16 284.8 132.16 284.28 130.33 284.25 75.05"/>
    </clipPath>
    <clipPath id="clippath-57">
      <polygon class="cls-1" points="284.25 75.05 284.28 130.33 2.33 160.12 2.3 104.85 284.25 75.05"/>
    </clipPath>
    <clipPath id="clippath-58">
      <polygon class="cls-1" points="284.28 130.33 284.8 132.16 2.85 161.96 2.33 160.12 284.28 130.33"/>
    </clipPath>
    <clipPath id="clippath-59">
      <polygon class="cls-1" points="284.8 132.16 486.51 284.16 204.56 313.96 2.85 161.96 284.8 132.16"/>
    </clipPath>
    <clipPath id="clippath-60">
      <polygon class="cls-1" points="486.51 284.16 204.56 313.96 205.09 312.91 487.04 283.12 486.51 284.16"/>
    </clipPath>
    <clipPath id="clippath-61">
      <polygon class="cls-1" points="487.04 283.12 205.09 312.91 205.06 257.64 487.01 227.84 487.04 283.12"/>
    </clipPath>
    <clipPath id="clippath-62">
      <polygon class="cls-1" points="487.01 227.84 205.06 257.64 204.01 256.85 485.96 227.05 487.01 227.84"/>
    </clipPath>
    <clipPath id="clippath-63">
      <polygon class="cls-1" points="485.96 227.05 485.98 280.89 204.03 310.69 204.01 256.85 485.96 227.05"/>
    </clipPath>
    <clipPath id="clippath-64">
      <polygon class="cls-1" points="485.98 280.89 204.03 310.69 3.38 159.48 285.33 129.69 485.98 280.89"/>
    </clipPath>
    <clipPath id="clippath-65">
      <polygon class="cls-1" points="285.33 129.69 3.38 159.48 3.36 105.64 285.31 75.84 285.33 129.69"/>
    </clipPath>
    <clipPath id="clippath-66">
      <polygon class="cls-1" points="285.31 75.84 3.36 105.64 2.3 104.85 284.25 75.05 285.31 75.84"/>
    </clipPath>
    <clipPath id="clippath-67">
      <path class="cls-1" d="M90.26,43.85l-5.68-3.83,34.9-3.67,5.68,3.83-34.9,3.67ZM117.74,37.37l-29.29,3.08,3.55,2.39,29.29-3.08-3.55-2.39"/>
    </clipPath>
    <clipPath id="clippath-68">
      <path class="cls-1" d="M90.47,73.79l-5.68-3.83,34.9-3.67,5.68,3.83-34.9,3.67ZM117.94,67.31l-29.29,3.08,3.55,2.39,29.29-3.08-3.55-2.39"/>
    </clipPath>
    <clipPath id="clippath-69">
      <polygon class="cls-1" points="90.47 73.79 90.26 43.85 125.15 40.18 125.36 70.12 90.47 73.79"/>
    </clipPath>
    <clipPath id="clippath-70">
      <polygon class="cls-1" points="125.36 70.12 119.68 66.29 119.47 36.35 125.15 40.18 125.36 70.12"/>
    </clipPath>
    <clipPath id="clippath-71">
      <polygon class="cls-1" points="119.68 66.29 84.78 69.96 84.57 40.02 119.47 36.35 119.68 66.29"/>
    </clipPath>
    <clipPath id="clippath-72">
      <polygon class="cls-1" points="84.78 69.96 84.57 40.02 90.26 43.85 90.47 73.79 84.78 69.96"/>
    </clipPath>
    <clipPath id="clippath-73">
      <polygon class="cls-1" points="117.94 67.31 117.74 37.37 121.29 39.76 121.5 69.7 117.94 67.31"/>
    </clipPath>
    <clipPath id="clippath-74">
      <polygon class="cls-1" points="121.5 69.7 92.21 72.78 92 42.84 121.29 39.76 121.5 69.7"/>
    </clipPath>
    <clipPath id="clippath-75">
      <polygon class="cls-1" points="92.21 72.78 88.66 70.39 88.45 40.44 92 42.84 92.21 72.78"/>
    </clipPath>
    <clipPath id="clippath-76">
      <polygon class="cls-1" points="88.66 70.39 88.45 40.44 117.74 37.37 117.94 67.31 88.66 70.39"/>
    </clipPath>
  </defs>
  <g id="Layer_1-2" data-name="Layer 1">
    <g class="cls-3">
      <g class="cls-3">
        <g class="cls-80">
          <path class="cls-2" d="M315.95,122.57c-52.61,3.27-109.46-10.08-126.97-29.83-17.51-19.75,10.96-38.41,63.57-41.68,52.61-3.27,109.46,10.09,126.96,29.83,17.51,19.75-10.95,38.41-63.56,41.68Z"/>
        </g>
        <path class="cls-1" d="M315.95,122.57c-52.61,3.27-109.46-10.08-126.97-29.83-17.51-19.75,10.96-38.41,63.57-41.68,52.61-3.27,109.46,10.09,126.96,29.83,17.51,19.75-10.95,38.41-63.56,41.68Z"/>
      </g>
      <g class="cls-3">
        <g class="cls-71">
          <path class="cls-2" d="M313.72,157.08c-52.61,3.27-109.46-10.08-126.97-29.83-17.51-19.75,10.96-38.41,63.57-41.68,52.61-3.27,109.46,10.09,126.96,29.83,17.51,19.75-10.95,38.41-63.56,41.68Z"/>
        </g>
        <path class="cls-1" d="M313.72,157.08c-52.61,3.27-109.46-10.08-126.97-29.83-17.51-19.75,10.96-38.41,63.57-41.68,52.61-3.27,109.46,10.09,126.96,29.83,17.51,19.75-10.95,38.41-63.56,41.68Z"/>
      </g>
      <g class="cls-3">
        <g class="cls-74">
          <g class="cls-3">
            <g>
              <path class="cls-2" d="M313.72,157.08l1.61-4.01c54.71-3.4,84.29-22.8,66.09-43.33l-4.14,5.66c17.51,19.75-10.95,38.41-63.56,41.68Z"/>
              <line class="cls-2" x1="380.28" y1="134.26" x2="384.54" y2="129.35"/>
            </g>
            <g>
              <path class="cls-2" d="M377.28,115.41l4.14-5.66c-18.2-20.53-77.31-34.42-132.01-31.02l.91,6.85c52.61-3.27,109.46,10.09,126.96,29.83Z"/>
              <line class="cls-2" x1="348.28" y1="98.17" x2="351.26" y2="91.82"/>
              <line class="cls-2" x1="302.73" y1="87.46" x2="303.9" y2="80.69"/>
            </g>
            <g>
              <path class="cls-2" d="M250.32,85.57l-.91-6.85c-54.71,3.4-84.3,22.8-66.1,43.34l3.44,5.19c-17.51-19.75,10.96-38.41,63.57-41.68Z"/>
              <line class="cls-2" x1="206.57" y1="93.44" x2="203.91" y2="86.91"/>
              <line class="cls-2" x1="183.76" y1="108.4" x2="180.2" y2="102.45"/>
            </g>
          </g>
          <path class="cls-2" d="M378.34,136.88c5.62-6.46,5.68-13.89-1.05-21.48-17.5-19.75-74.35-33.11-126.96-29.83-50.02,3.11-78.21,20.13-65.82,38.77-1.18-1.77-2.35-3.54-3.53-5.31-12.88-19.38,16.43-37.08,68.44-40.31,54.71-3.4,113.81,10.49,132.01,31.02,7,7.89,6.93,15.62,1.09,22.33-1.39,1.6-2.79,3.2-4.18,4.81Z"/>
        </g>
        <path class="cls-1" d="M378.34,136.88c5.62-6.46,5.68-13.89-1.05-21.48-17.5-19.75-74.35-33.11-126.96-29.83-50.02,3.11-78.21,20.13-65.82,38.77-1.18-1.77-2.35-3.54-3.53-5.31-12.88-19.38,16.43-37.08,68.44-40.31,54.71-3.4,113.81,10.49,132.01,31.02,7,7.89,6.93,15.62,1.09,22.33-1.39,1.6-2.79,3.2-4.18,4.81Z"/>
      </g>
      <g class="cls-3">
        <g class="cls-72">
          <g class="cls-3">
            <path class="cls-2" d="M313.72,157.08l1.61-4.01c54.71-3.4,84.29-22.8,66.09-43.33l-4.14,5.66c17.51,19.75-10.95,38.41-63.56,41.68Z"/>
            <line class="cls-2" x1="357.47" y1="149.21" x2="360.83" y2="144.89"/>
          </g>
          <path class="cls-2" d="M382.52,132.08c-1.39,1.6-2.79,3.21-4.18,4.81-8.99,10.34-32.23,18.18-64.61,20.2l1.61-4.01c33.68-2.09,57.83-10.25,67.18-21Z"/>
        </g>
        <path class="cls-1" d="M382.52,132.08c-1.39,1.6-2.79,3.21-4.18,4.81-8.99,10.34-32.23,18.18-64.61,20.2l1.61-4.01c33.68-2.09,57.83-10.25,67.18-21Z"/>
      </g>
      <g class="cls-3">
        <g class="cls-73">
          <g class="cls-3">
            <path class="cls-2" d="M250.32,85.57l-.91-6.85c-54.71,3.4-84.3,22.8-66.1,43.34l3.44,5.19c-17.51-19.75,10.96-38.41,63.57-41.68Z"/>
            <g>
              <path class="cls-2" d="M186.75,127.25l-3.44-5.19c18.2,20.53,77.31,34.42,132.02,31.02l-1.61,4.01c-52.61,3.27-109.46-10.08-126.97-29.83Z"/>
              <line class="cls-2" x1="215.76" y1="144.49" x2="213.48" y2="139.98"/>
              <line class="cls-2" x1="261.31" y1="155.19" x2="260.84" y2="151.11"/>
            </g>
          </g>
          <path class="cls-2" d="M184.5,124.34c-1.18-1.77-2.35-3.54-3.53-5.31.67,1,1.45,2.01,2.35,3.03,18.2,20.53,77.31,34.42,132.02,31.02l-1.61,4.01c-52.61,3.27-109.46-10.08-126.97-29.83-.86-.97-1.61-1.94-2.26-2.91Z"/>
        </g>
        <path class="cls-1" d="M184.5,124.34c-1.18-1.77-2.35-3.54-3.53-5.31.67,1,1.45,2.01,2.35,3.03,18.2,20.53,77.31,34.42,132.02,31.02l-1.61,4.01c-52.61,3.27-109.46-10.08-126.97-29.83-.86-.97-1.61-1.94-2.26-2.91Z"/>
      </g>
      <g class="cls-3">
        <g class="cls-79">
          <g class="cls-3">
            <path class="cls-2" d="M315.33,153.08l1.53-23.66c54.71-3.4,84.29-22.8,66.09-43.33l-1.53,23.66c18.2,20.53-11.38,39.93-66.09,43.33Z"/>
            <g>
              <path class="cls-2" d="M381.42,109.74l1.53-23.66c-18.2-20.53-77.31-34.42-132.01-31.02l-1.53,23.66c54.71-3.4,113.81,10.49,132.01,31.02Z"/>
              <line class="cls-2" x1="351.26" y1="91.82" x2="352.79" y2="68.16"/>
              <line class="cls-2" x1="303.9" y1="80.69" x2="305.43" y2="57.03"/>
            </g>
            <g>
              <path class="cls-2" d="M249.41,78.72l1.53-23.66c-54.71,3.4-84.3,22.8-66.1,43.34l-1.53,23.66c-18.2-20.53,11.39-39.94,66.1-43.34Z"/>
              <line class="cls-2" x1="203.91" y1="86.91" x2="205.44" y2="63.25"/>
              <line class="cls-2" x1="180.2" y1="102.45" x2="181.73" y2="78.79"/>
            </g>
          </g>
          <path class="cls-2" d="M386.76,122.65c.27-4.15-1.44-8.5-5.34-12.91-18.2-20.53-77.31-34.42-132.01-31.02-42.98,2.67-70.45,15.22-71.44,30.43l1.53-23.66c.98-15.21,28.46-27.76,71.44-30.43,54.71-3.4,113.81,10.49,132.01,31.02,3.9,4.4,5.61,8.75,5.34,12.91-.46,7.1-1.07,16.56-1.53,23.66Z"/>
        </g>
        <path class="cls-1" d="M386.76,122.65c.27-4.15-1.44-8.5-5.34-12.91-18.2-20.53-77.31-34.42-132.01-31.02-42.98,2.67-70.45,15.22-71.44,30.43l1.53-23.66c.98-15.21,28.46-27.76,71.44-30.43,54.71-3.4,113.81,10.49,132.01,31.02,3.9,4.4,5.61,8.75,5.34,12.91-.46,7.1-1.07,16.56-1.53,23.66Z"/>
      </g>
      <g class="cls-3">
        <g class="cls-76">
          <g class="cls-3">
            <path class="cls-2" d="M315.33,153.08l1.53-23.66c54.71-3.4,84.29-22.8,66.09-43.33l-1.53,23.66c18.2,20.53-11.38,39.93-66.09,43.33Z"/>
            <line class="cls-2" x1="360.83" y1="144.89" x2="362.36" y2="121.23"/>
            <line class="cls-2" x1="384.54" y1="129.35" x2="386.07" y2="105.69"/>
          </g>
          <path class="cls-2" d="M388.29,98.99l-1.53,23.66c-.98,15.21-28.46,27.75-71.43,30.43l1.53-23.66c42.97-2.67,70.45-15.22,71.43-30.43Z"/>
        </g>
        <path class="cls-1" d="M388.29,98.99l-1.53,23.66c-.98,15.21-28.46,27.75-71.43,30.43l1.53-23.66c42.97-2.67,70.45-15.22,71.43-30.43Z"/>
      </g>
      <g class="cls-3">
        <g class="cls-75">
          <g class="cls-3">
            <path class="cls-2" d="M249.41,78.72l1.53-23.66c-54.71,3.4-84.3,22.8-66.1,43.34l-1.53,23.66c-18.2-20.53,11.39-39.94,66.1-43.34Z"/>
            <g>
              <path class="cls-2" d="M183.31,122.06l1.53-23.66c18.2,20.53,77.31,34.42,132.02,31.02l-1.53,23.66c-54.71,3.4-113.81-10.48-132.02-31.02Z"/>
              <line class="cls-2" x1="213.48" y1="139.98" x2="215.01" y2="116.32"/>
              <line class="cls-2" x1="260.84" y1="151.11" x2="262.37" y2="127.45"/>
            </g>
          </g>
          <path class="cls-2" d="M177.97,109.15l1.53-23.66c-.27,4.15,1.44,8.5,5.34,12.91,18.2,20.53,77.31,34.42,132.02,31.02l-1.53,23.66c-54.71,3.4-113.81-10.48-132.02-31.02-3.9-4.4-5.61-8.75-5.34-12.91Z"/>
        </g>
        <path class="cls-1" d="M177.97,109.15l1.53-23.66c-.27,4.15,1.44,8.5,5.34,12.91,18.2,20.53,77.31,34.42,132.02,31.02l-1.53,23.66c-54.71,3.4-113.81-10.48-132.02-31.02-3.9-4.4-5.61-8.75-5.34-12.91Z"/>
      </g>
      <g class="cls-3">
        <g class="cls-78">
          <g class="cls-3">
            <path class="cls-2" d="M316.86,129.41l-.91-6.85c52.61-3.27,81.07-21.93,63.56-41.68l3.44,5.19c18.2,20.53-11.38,39.93-66.09,43.33Z"/>
            <g>
              <path class="cls-2" d="M382.95,86.08l-3.44-5.19c-17.5-19.75-74.35-33.11-126.96-29.83l-1.61,4c54.71-3.4,113.81,10.49,132.01,31.02Z"/>
              <line class="cls-2" x1="352.79" y1="68.16" x2="350.51" y2="63.65"/>
              <line class="cls-2" x1="305.43" y1="57.03" x2="304.96" y2="52.95"/>
            </g>
            <g>
              <path class="cls-2" d="M250.94,55.06l1.61-4c-52.61,3.27-81.08,21.93-63.57,41.68l-4.14,5.66c-18.2-20.53,11.39-39.94,66.1-43.34Z"/>
              <line class="cls-2" x1="205.44" y1="63.25" x2="208.8" y2="58.93"/>
            </g>
          </g>
          <path class="cls-2" d="M385.3,89.11c-.67-1-1.45-2.01-2.35-3.03-18.2-20.53-77.31-34.42-132.01-31.02-33.68,2.09-57.84,10.25-67.19,21,1.39-1.6,2.79-3.2,4.18-4.81,8.99-10.34,32.23-18.19,64.62-20.2,52.61-3.27,109.46,10.09,126.96,29.83.86.97,1.61,1.94,2.26,2.91.59.88,1.18,1.77,1.76,2.65.59.88,1.18,1.77,1.76,2.65Z"/>
        </g>
        <path class="cls-1" d="M385.3,89.11c-.67-1-1.45-2.01-2.35-3.03-18.2-20.53-77.31-34.42-132.01-31.02-33.68,2.09-57.84,10.25-67.19,21,1.39-1.6,2.79-3.2,4.18-4.81,8.99-10.34,32.23-18.19,64.62-20.2,52.61-3.27,109.46,10.09,126.96,29.83.86.97,1.61,1.94,2.26,2.91.59.88,1.18,1.77,1.76,2.65.59.88,1.18,1.77,1.76,2.65Z"/>
      </g>
      <g class="cls-3">
        <g class="cls-77">
          <g class="cls-3">
            <path class="cls-2" d="M316.86,129.41l-.91-6.85c52.61-3.27,81.07-21.93,63.56-41.68l3.44,5.19c18.2,20.53-11.38,39.93-66.09,43.33Z"/>
            <line class="cls-2" x1="362.36" y1="121.23" x2="359.71" y2="114.7"/>
            <line class="cls-2" x1="386.07" y1="105.69" x2="382.51" y2="99.74"/>
          </g>
          <path class="cls-2" d="M381.77,83.8c.65.97,1.29,1.95,1.94,2.92.53.8,1.06,1.59,1.59,2.39,12.88,19.38-16.43,37.07-68.44,40.31l-.91-6.85c50.02-3.11,78.21-20.13,65.82-38.76Z"/>
        </g>
        <path class="cls-1" d="M381.77,83.8c.65.97,1.29,1.95,1.94,2.92.53.8,1.06,1.59,1.59,2.39,12.88,19.38-16.43,37.07-68.44,40.31l-.91-6.85c50.02-3.11,78.21-20.13,65.82-38.76Z"/>
      </g>
      <g class="cls-3">
        <g class="cls-9">
          <g class="cls-3">
            <g>
              <path class="cls-2" d="M250.94,55.06l1.61-4c-52.61,3.27-81.08,21.93-63.57,41.68l-4.14,5.66c-18.2-20.53,11.39-39.94,66.1-43.34Z"/>
              <line class="cls-2" x1="181.73" y1="78.79" x2="185.99" y2="73.88"/>
            </g>
            <g>
              <path class="cls-2" d="M184.84,98.4l4.14-5.66c17.5,19.75,74.36,33.1,126.97,29.83l.91,6.85c-54.71,3.4-113.81-10.48-132.02-31.02Z"/>
              <line class="cls-2" x1="215.01" y1="116.32" x2="217.99" y2="109.97"/>
              <line class="cls-2" x1="262.37" y1="127.45" x2="263.54" y2="120.67"/>
            </g>
          </g>
          <path class="cls-2" d="M183.75,76.06c1.39-1.6,2.79-3.2,4.18-4.81-5.62,6.46-5.68,13.89,1.05,21.48,17.5,19.75,74.36,33.1,126.97,29.83l.91,6.85c-54.71,3.4-113.81-10.48-132.02-31.02-7-7.89-6.93-15.62-1.09-22.33Z"/>
        </g>
        <path class="cls-1" d="M183.75,76.06c1.39-1.6,2.79-3.2,4.18-4.81-5.62,6.46-5.68,13.89,1.05,21.48,17.5,19.75,74.36,33.1,126.97,29.83l.91,6.85c-54.71,3.4-113.81-10.48-132.02-31.02-7-7.89-6.93-15.62-1.09-22.33Z"/>
      </g>
    </g>
    <g class="cls-3">
      <g class="cls-3">
        <g class="cls-6">
          <path class="cls-2" d="M274.71,30.07c-9.66.51-20.04-1.64-23.18-4.79-3.14-3.15,2.15-6.12,11.81-6.62,9.66-.51,20.04,1.64,23.18,4.79,3.14,3.15-2.15,6.12-11.81,6.62Z"/>
        </g>
        <path class="cls-1" d="M274.71,30.07c-9.66.51-20.04-1.64-23.18-4.79-3.14-3.15,2.15-6.12,11.81-6.62,9.66-.51,20.04,1.64,23.18,4.79,3.14,3.15-2.15,6.12-11.81,6.62Z"/>
      </g>
      <g class="cls-3">
        <g class="cls-13">
          <path class="cls-2" d="M274.3,37.66c-9.66.51-20.04-1.64-23.18-4.79-3.14-3.15,2.15-6.12,11.81-6.62,9.66-.51,20.04,1.64,23.18,4.79,3.14,3.15-2.15,6.12-11.81,6.62Z"/>
        </g>
        <path class="cls-1" d="M274.3,37.66c-9.66.51-20.04-1.64-23.18-4.79-3.14-3.15,2.15-6.12,11.81-6.62,9.66-.51,20.04,1.64,23.18,4.79,3.14,3.15-2.15,6.12-11.81,6.62Z"/>
      </g>
      <g class="cls-3">
        <g class="cls-11">
          <g class="cls-3">
            <g>
              <path class="cls-2" d="M274.3,37.66l.68-.57c10.71-.56,16.57-3.85,13.09-7.34l-1.96,1.29c3.14,3.15-2.15,6.12-11.81,6.62Z"/>
              <line class="cls-2" x1="286.59" y1="34.04" x2="288.61" y2="33.08"/>
            </g>
            <g>
              <path class="cls-2" d="M286.11,31.04l1.96-1.29c-3.48-3.49-14.99-5.87-25.7-5.31l.55,1.81c9.66-.51,20.04,1.64,23.18,4.79Z"/>
              <line class="cls-2" x1="280.85" y1="28.28" x2="282.24" y2="26.69"/>
              <line class="cls-2" x1="272.53" y1="26.57" x2="273.02" y2="24.79"/>
            </g>
            <g>
              <path class="cls-2" d="M262.93,26.25l-.55-1.81c-10.71.56-16.57,3.85-13.09,7.34l1.84,1.09c-3.14-3.15,2.15-6.12,11.81-6.62Z"/>
              <line class="cls-2" x1="254.87" y1="27.49" x2="253.44" y2="25.81"/>
              <line class="cls-2" x1="250.64" y1="29.87" x2="248.75" y2="28.45"/>
            </g>
            <path class="cls-2" d="M251.12,32.87l-1.84-1.09c3.48,3.49,14.99,5.87,25.7,5.31l-.68.57c-9.66.51-20.04-1.64-23.18-4.79Z"/>
          </g>
          <path class="cls-2" d="M284.18,35.75c2.8-1.25,3.68-2.95,1.92-4.71-3.14-3.15-13.53-5.3-23.18-4.79-9.66.51-14.95,3.47-11.81,6.62.41.42.96.82,1.61,1.19-.55-.32-1.11-.64-1.66-.97-.72-.42-1.32-.86-1.78-1.32-3.48-3.49,2.38-6.78,13.09-7.34s22.22,1.82,25.7,5.31c1.95,1.95.97,3.84-2.13,5.23-.59.26-1.17.52-1.76.78Z"/>
        </g>
        <path class="cls-1" d="M284.18,35.75c2.8-1.25,3.68-2.95,1.92-4.71-3.14-3.15-13.53-5.3-23.18-4.79-9.66.51-14.95,3.47-11.81,6.62.41.42.96.82,1.61,1.19-.55-.32-1.11-.64-1.66-.97-.72-.42-1.32-.86-1.78-1.32-3.48-3.49,2.38-6.78,13.09-7.34s22.22,1.82,25.7,5.31c1.95,1.95.97,3.84-2.13,5.23-.59.26-1.17.52-1.76.78Z"/>
      </g>
      <g class="cls-3">
        <g class="cls-12">
          <g class="cls-3">
            <path class="cls-2" d="M274.3,37.66l.68-.57c10.71-.56,16.57-3.85,13.09-7.34l-1.96,1.29c3.14,3.15-2.15,6.12-11.81,6.62Z"/>
            <line class="cls-2" x1="282.35" y1="36.42" x2="283.91" y2="35.71"/>
          </g>
          <path class="cls-2" d="M285.94,34.97c-.59.26-1.17.52-1.76.78-2.21.99-5.62,1.69-9.88,1.91l.68-.57c4.72-.25,8.5-1.03,10.96-2.12Z"/>
        </g>
        <path class="cls-1" d="M285.94,34.97c-.59.26-1.17.52-1.76.78-2.21.99-5.62,1.69-9.88,1.91l.68-.57c4.72-.25,8.5-1.03,10.96-2.12Z"/>
      </g>
      <g class="cls-3">
        <g class="cls-10">
          <g class="cls-3">
            <path class="cls-2" d="M251.12,32.87l-1.84-1.09c3.48,3.49,14.99,5.87,25.7,5.31l-.68.57c-9.66.51-20.04-1.64-23.18-4.79Z"/>
            <line class="cls-2" x1="256.38" y1="35.63" x2="255.11" y2="34.83"/>
            <line class="cls-2" x1="264.7" y1="37.35" x2="264.33" y2="36.74"/>
          </g>
          <path class="cls-2" d="M252.72,34.07c-.55-.32-1.11-.64-1.66-.97,4.73,2.75,14.63,4.48,23.92,3.99l-.68.57c-8.38.44-17.31-1.12-21.58-3.6Z"/>
        </g>
        <path class="cls-1" d="M252.72,34.07c-.55-.32-1.11-.64-1.66-.97,4.73,2.75,14.63,4.48,23.92,3.99l-.68.57c-8.38.44-17.31-1.12-21.58-3.6Z"/>
      </g>
      <g class="cls-3">
        <g class="cls-7">
          <g class="cls-3">
            <path class="cls-2" d="M274.98,37.09l.28-5.21c10.71-.56,16.57-3.85,13.09-7.34l-.28,5.21c3.48,3.49-2.38,6.78-13.09,7.34Z"/>
            <g>
              <path class="cls-2" d="M288.07,29.75l.28-5.21c-3.48-3.49-14.99-5.87-25.7-5.31l-.28,5.21c10.71-.56,22.22,1.82,25.7,5.31Z"/>
              <line class="cls-2" x1="282.24" y1="26.69" x2="282.52" y2="21.48"/>
              <line class="cls-2" x1="273.02" y1="24.79" x2="273.3" y2="19.58"/>
            </g>
            <g>
              <path class="cls-2" d="M262.37,24.43l.28-5.21c-10.71.56-16.57,3.85-13.09,7.34l-.28,5.21c-3.48-3.49,2.38-6.78,13.09-7.34Z"/>
              <line class="cls-2" x1="253.44" y1="25.81" x2="253.72" y2="20.6"/>
              <line class="cls-2" x1="248.75" y1="28.45" x2="249.03" y2="23.24"/>
            </g>
          </g>
          <path class="cls-2" d="M289.07,31.86c.04-.68-.28-1.39-1-2.11-3.48-3.49-14.99-5.87-25.7-5.31-8.5.45-13.95,2.61-14.09,5.23l.28-5.21c.14-2.62,5.59-4.79,14.09-5.23,10.71-.56,22.22,1.82,25.7,5.31.72.72,1.04,1.43,1,2.11-.08,1.56-.2,3.65-.28,5.21Z"/>
        </g>
        <path class="cls-1" d="M289.07,31.86c.04-.68-.28-1.39-1-2.11-3.48-3.49-14.99-5.87-25.7-5.31-8.5.45-13.95,2.61-14.09,5.23l.28-5.21c.14-2.62,5.59-4.79,14.09-5.23,10.71-.56,22.22,1.82,25.7,5.31.72.72,1.04,1.43,1,2.11-.08,1.56-.2,3.65-.28,5.21Z"/>
      </g>
      <g class="cls-3">
        <g class="cls-4">
          <g class="cls-3">
            <path class="cls-2" d="M274.98,37.09l.28-5.21c10.71-.56,16.57-3.85,13.09-7.34l-.28,5.21c3.48,3.49-2.38,6.78-13.09,7.34Z"/>
            <line class="cls-2" x1="283.91" y1="35.71" x2="284.19" y2="30.5"/>
            <line class="cls-2" x1="288.61" y1="33.08" x2="288.89" y2="27.87"/>
          </g>
          <path class="cls-2" d="M289.35,26.65l-.28,5.21c-.14,2.62-5.59,4.79-14.09,5.23l.28-5.21c8.5-.45,13.95-2.61,14.09-5.23Z"/>
        </g>
        <path class="cls-1" d="M289.35,26.65l-.28,5.21c-.14,2.62-5.59,4.79-14.09,5.23l.28-5.21c8.5-.45,13.95-2.61,14.09-5.23Z"/>
      </g>
      <g class="cls-3">
        <g class="cls-8">
          <g class="cls-3">
            <path class="cls-2" d="M262.37,24.43l.28-5.21c-10.71.56-16.57,3.85-13.09,7.34l-.28,5.21c-3.48-3.49,2.38-6.78,13.09-7.34Z"/>
            <g>
              <path class="cls-2" d="M249.28,31.78l.28-5.21c3.48,3.49,14.99,5.87,25.7,5.31l-.28,5.21c-10.71.56-22.22-1.82-25.7-5.31Z"/>
              <line class="cls-2" x1="255.11" y1="34.83" x2="255.39" y2="29.63"/>
              <line class="cls-2" x1="264.33" y1="36.74" x2="264.61" y2="31.53"/>
            </g>
          </g>
          <path class="cls-2" d="M248.28,29.67l.28-5.21c-.04.68.28,1.39,1,2.11,3.48,3.49,14.99,5.87,25.7,5.31l-.28,5.21c-10.71.56-22.22-1.82-25.7-5.31-.72-.72-1.04-1.43-1-2.11Z"/>
        </g>
        <path class="cls-1" d="M248.28,29.67l.28-5.21c-.04.68.28,1.39,1,2.11,3.48,3.49,14.99,5.87,25.7,5.31l-.28,5.21c-10.71.56-22.22-1.82-25.7-5.31-.72-.72-1.04-1.43-1-2.11Z"/>
      </g>
      <g class="cls-3">
        <g class="cls-5">
          <g class="cls-3">
            <g>
              <path class="cls-2" d="M288.35,24.54l-1.84-1.09c-3.14-3.15-13.53-5.3-23.18-4.79l-.68.57c10.71-.56,22.22,1.82,25.7,5.31Z"/>
              <line class="cls-2" x1="282.52" y1="21.48" x2="281.26" y2="20.69"/>
              <line class="cls-2" x1="273.3" y1="19.58" x2="272.94" y2="18.97"/>
            </g>
            <g>
              <path class="cls-2" d="M262.65,19.23l.68-.57c-9.66.51-14.95,3.47-11.81,6.62l-1.96,1.29c-3.48-3.49,2.38-6.78,13.09-7.34Z"/>
              <line class="cls-2" x1="253.72" y1="20.6" x2="255.28" y2="19.89"/>
            </g>
          </g>
          <path class="cls-2" d="M286.57,23.22c-4.73-2.75-14.63-4.48-23.92-3.99-4.72.25-8.5,1.03-10.96,2.12.03-.01.06-.03.09-.04s.06-.03.09-.04c.05-.02.12-.05.18-.08.03-.01.06-.03.09-.04.05-.02.12-.05.18-.08.03-.01.06-.03.09-.04.05-.02.12-.05.18-.08s.12-.05.18-.08.12-.05.18-.08.12-.05.18-.08c.03-.01.06-.03.09-.04s.06-.03.09-.04.06-.03.09-.04.06-.04.09-.04c2.21-.99,5.62-1.69,9.88-1.91,8.38-.44,17.31,1.12,21.58,3.6.55.32,1.11.64,1.66.97Z"/>
        </g>
        <path class="cls-1" d="M286.57,23.22c-4.73-2.75-14.63-4.48-23.92-3.99-4.72.25-8.5,1.03-10.96,2.12.03-.01.06-.03.09-.04s.06-.03.09-.04c.05-.02.12-.05.18-.08.03-.01.06-.03.09-.04.05-.02.12-.05.18-.08.03-.01.06-.03.09-.04.05-.02.12-.05.18-.08s.12-.05.18-.08.12-.05.18-.08.12-.05.18-.08c.03-.01.06-.03.09-.04s.06-.03.09-.04.06-.03.09-.04.06-.04.09-.04c2.21-.99,5.62-1.69,9.88-1.91,8.38-.44,17.31,1.12,21.58,3.6.55.32,1.11.64,1.66.97Z"/>
      </g>
      <g class="cls-3">
        <g class="cls-54">
          <g class="cls-3">
            <g>
              <path class="cls-2" d="M275.26,31.88l-.55-1.81c9.66-.51,14.95-3.47,11.81-6.62l1.84,1.09c3.48,3.49-2.38,6.78-13.09,7.34Z"/>
              <line class="cls-2" x1="284.19" y1="30.5" x2="282.76" y2="28.83"/>
              <line class="cls-2" x1="288.89" y1="27.87" x2="287" y2="26.45"/>
            </g>
            <path class="cls-2" d="M288.35,24.54l-1.84-1.09c-3.14-3.15-13.53-5.3-23.18-4.79l-.68.57c10.71-.56,22.22,1.82,25.7,5.31Z"/>
          </g>
          <path class="cls-2" d="M284.91,22.25c.55.32,1.11.64,1.66.97.72.42,1.32.86,1.78,1.32,3.48,3.49-2.38,6.78-13.09,7.34l-.55-1.81c9.66-.51,14.95-3.47,11.81-6.62-.41-.42-.96-.82-1.61-1.19Z"/>
        </g>
        <path class="cls-1" d="M284.91,22.25c.55.32,1.11.64,1.66.97.72.42,1.32.86,1.78,1.32,3.48,3.49-2.38,6.78-13.09,7.34l-.55-1.81c9.66-.51,14.95-3.47,11.81-6.62-.41-.42-.96-.82-1.61-1.19Z"/>
      </g>
      <g class="cls-3">
        <g class="cls-55">
          <g class="cls-3">
            <g>
              <path class="cls-2" d="M262.65,19.23l.68-.57c-9.66.51-14.95,3.47-11.81,6.62l-1.96,1.29c-3.48-3.49,2.38-6.78,13.09-7.34Z"/>
              <line class="cls-2" x1="249.03" y1="23.24" x2="251.04" y2="22.27"/>
            </g>
            <g>
              <path class="cls-2" d="M249.56,26.57l1.96-1.29c3.14,3.15,13.53,5.3,23.18,4.79l.55,1.81c-10.71.56-22.22-1.82-25.7-5.31Z"/>
              <line class="cls-2" x1="255.39" y1="29.63" x2="256.79" y2="28.03"/>
              <line class="cls-2" x1="264.61" y1="31.53" x2="265.1" y2="29.75"/>
            </g>
          </g>
          <path class="cls-2" d="M251.7,21.35c.05-.02.12-.05.18-.08.03-.01.06-.03.09-.04.05-.02.12-.05.18-.08.03-.01.06-.03.09-.04.05-.02.12-.05.18-.08.03-.01.06-.03.09-.04.05-.02.12-.05.18-.08s.12-.05.18-.08.12-.05.18-.08.12-.05.18-.08c.03-.01.06-.03.09-.04.05-.02.12-.05.18-.08-2.8,1.25-3.68,2.95-1.92,4.71,3.14,3.15,13.53,5.3,23.18,4.79l.55,1.81c-10.71.56-22.22-1.82-25.7-5.31-1.95-1.95-.97-3.84,2.13-5.23Z"/>
        </g>
        <path class="cls-1" d="M251.7,21.35c.05-.02.12-.05.18-.08.03-.01.06-.03.09-.04.05-.02.12-.05.18-.08.03-.01.06-.03.09-.04.05-.02.12-.05.18-.08.03-.01.06-.03.09-.04.05-.02.12-.05.18-.08s.12-.05.18-.08.12-.05.18-.08.12-.05.18-.08c.03-.01.06-.03.09-.04.05-.02.12-.05.18-.08-2.8,1.25-3.68,2.95-1.92,4.71,3.14,3.15,13.53,5.3,23.18,4.79l.55,1.81c-10.71.56-22.22-1.82-25.7-5.31-1.95-1.95-.97-3.84,2.13-5.23Z"/>
      </g>
    </g>
    <g class="cls-3">
      <g class="cls-3">
        <g class="cls-56">
          <path class="cls-2" d="M240.97,277.78c1.13-.12,2.04.73,2.04,1.89,0,1.16-.92,2.19-2.05,2.31-1.12.12-2.04-.73-2.04-1.89,0-1.15.93-2.2,2.05-2.31Z"/>
        </g>
        <path class="cls-1" d="M240.97,277.78c1.13-.12,2.04.73,2.04,1.89,0,1.16-.92,2.19-2.05,2.31-1.12.12-2.04-.73-2.04-1.89,0-1.15.93-2.2,2.05-2.31Z"/>
      </g>
      <g class="cls-3">
        <g class="cls-57">
          <path class="cls-2" d="M242.38,278.83c1.13-.12,2.04.73,2.04,1.89,0,1.16-.92,2.19-2.05,2.31-1.12.12-2.04-.73-2.04-1.89,0-1.15.93-2.2,2.05-2.31Z"/>
        </g>
        <path class="cls-1" d="M242.38,278.83c1.13-.12,2.04.73,2.04,1.89,0,1.16-.92,2.19-2.05,2.31-1.12.12-2.04-.73-2.04-1.89,0-1.15.93-2.2,2.05-2.31Z"/>
      </g>
      <g class="cls-3">
        <g class="cls-58">
          <g class="cls-3">
            <g>
              <path class="cls-2" d="M242.38,278.83l-.21-4.01c3.2-.33,5.78,2.07,5.78,5.34l-3.52.55c0-1.15-.91-2-2.04-1.89Z"/>
              <line class="cls-2" x1="243.41" y1="279.01" x2="245.09" y2="275.33"/>
              <line class="cls-2" x1="244.15" y1="279.68" x2="247.16" y2="277.25"/>
            </g>
            <g>
              <path class="cls-2" d="M244.42,280.71l3.52-.55c0,3.29-2.6,6.21-5.8,6.53l.23-3.68c1.13-.12,2.05-1.15,2.05-2.31Z"/>
              <line class="cls-2" x1="244.14" y1="281.8" x2="247.15" y2="283.24"/>
              <line class="cls-2" x1="243.41" y1="282.63" x2="245.07" y2="285.59"/>
            </g>
            <g>
              <path class="cls-2" d="M242.37,283.02l-.23,3.68c-3.19.33-5.78-2.06-5.78-5.34l3.97-.22c0,1.16.92,2.01,2.04,1.89Z"/>
              <line class="cls-2" x1="241.35" y1="282.84" x2="239.23" y2="286.19"/>
              <line class="cls-2" x1="240.61" y1="282.16" x2="237.16" y2="284.27"/>
            </g>
            <g>
              <path class="cls-2" d="M240.34,281.13l-3.97.22c0-3.28,2.61-6.21,5.8-6.53l.21,4.01c-1.12.11-2.05,1.16-2.05,2.31Z"/>
              <line class="cls-2" x1="240.62" y1="280.05" x2="237.17" y2="278.28"/>
              <line class="cls-2" x1="241.35" y1="279.22" x2="239.25" y2="275.93"/>
            </g>
          </g>
          <path class="cls-2" d="M242.38,278.83l-.21-4.01c3.2-.33,5.78,2.07,5.78,5.34s-2.6,6.21-5.8,6.53-5.78-2.06-5.78-5.34,2.61-6.21,5.8-6.53l.21,4.01c-1.12.11-2.05,1.16-2.05,2.31,0,1.16.92,2.01,2.04,1.89,1.13-.12,2.05-1.15,2.05-2.31,0-1.15-.91-2-2.04-1.89Z"/>
        </g>
        <path class="cls-1" d="M242.38,278.83l-.21-4.01c3.2-.33,5.78,2.07,5.78,5.34s-2.6,6.21-5.8,6.53-5.78-2.06-5.78-5.34,2.61-6.21,5.8-6.53l.21,4.01c-1.12.11-2.05,1.16-2.05,2.31,0,1.16.92,2.01,2.04,1.89,1.13-.12,2.05-1.15,2.05-2.31,0-1.15-.91-2-2.04-1.89Z"/>
      </g>
      <g class="cls-3">
        <g class="cls-59">
          <g class="cls-3">
            <g>
              <path class="cls-2" d="M242.17,274.82l-.97-.71c3.2-.33,5.78,2.07,5.78,5.34l.97.71c0-3.28-2.57-5.67-5.78-5.34Z"/>
              <line class="cls-2" x1="247.16" y1="277.25" x2="246.19" y2="276.53"/>
            </g>
            <g>
              <path class="cls-2" d="M247.94,280.16l-.97-.71c0,3.29-2.6,6.21-5.8,6.53l.97.71c3.2-.33,5.79-3.25,5.8-6.53Z"/>
              <line class="cls-2" x1="247.15" y1="283.24" x2="246.18" y2="282.53"/>
              <line class="cls-2" x1="245.07" y1="285.59" x2="244.1" y2="284.87"/>
            </g>
            <g>
              <path class="cls-2" d="M242.15,286.7l-.97-.71c-3.19.33-5.78-2.06-5.78-5.34l.97.71c0,3.29,2.58,5.67,5.78,5.34Z"/>
              <line class="cls-2" x1="239.23" y1="286.19" x2="238.26" y2="285.47"/>
            </g>
          </g>
          <path class="cls-2" d="M245.83,275.78c1.29.96,2.12,2.53,2.11,4.38,0,3.29-2.6,6.21-5.8,6.53-1.39.14-2.67-.23-3.66-.97l-.97-.71c1,.74,2.27,1.11,3.66.97,3.2-.33,5.79-3.25,5.8-6.53,0-1.85-.82-3.42-2.11-4.38.29.21.68.5.97.71Z"/>
        </g>
        <path class="cls-1" d="M245.83,275.78c1.29.96,2.12,2.53,2.11,4.38,0,3.29-2.6,6.21-5.8,6.53-1.39.14-2.67-.23-3.66-.97l-.97-.71c1,.74,2.27,1.11,3.66.97,3.2-.33,5.79-3.25,5.8-6.53,0-1.85-.82-3.42-2.11-4.38.29.21.68.5.97.71Z"/>
      </g>
      <g class="cls-3">
        <g class="cls-52">
          <g class="cls-3">
            <path class="cls-2" d="M242.17,274.82l-.97-.71c3.2-.33,5.78,2.07,5.78,5.34l.97.71c0-3.28-2.57-5.67-5.78-5.34Z"/>
            <line class="cls-2" x1="245.09" y1="275.33" x2="244.12" y2="274.62"/>
          </g>
          <path class="cls-2" d="M244.86,275.07l.97.71c-1-.74-2.27-1.11-3.66-.97l-.97-.71c1.39-.14,2.67.23,3.66.97Z"/>
        </g>
        <path class="cls-1" d="M244.86,275.07l.97.71c-1-.74-2.27-1.11-3.66-.97l-.97-.71c1.39-.14,2.67.23,3.66.97Z"/>
      </g>
      <g class="cls-3">
        <g class="cls-50">
          <g class="cls-3">
            <g>
              <path class="cls-2" d="M242.15,286.7l-.97-.71c-3.19.33-5.78-2.06-5.78-5.34l.97.71c0,3.29,2.58,5.67,5.78,5.34Z"/>
              <line class="cls-2" x1="237.16" y1="284.27" x2="236.19" y2="283.56"/>
            </g>
            <g>
              <path class="cls-2" d="M236.37,281.35l-.97-.71c0-3.28,2.61-6.21,5.8-6.53l.97.71c-3.19.33-5.79,3.26-5.8,6.53Z"/>
              <line class="cls-2" x1="237.17" y1="278.28" x2="236.2" y2="277.56"/>
              <line class="cls-2" x1="239.25" y1="275.93" x2="238.28" y2="275.22"/>
            </g>
          </g>
          <path class="cls-2" d="M238.48,285.73l-.97-.71c-1.29-.96-2.12-2.52-2.11-4.38,0-3.28,2.61-6.21,5.8-6.53l.97.71c-3.19.33-5.79,3.26-5.8,6.53,0,1.85.82,3.42,2.11,4.38Z"/>
        </g>
        <path class="cls-1" d="M238.48,285.73l-.97-.71c-1.29-.96-2.12-2.52-2.11-4.38,0-3.28,2.61-6.21,5.8-6.53l.97.71c-3.19.33-5.79,3.26-5.8,6.53,0,1.85.82,3.42,2.11,4.38Z"/>
      </g>
      <g class="cls-3">
        <g class="cls-53">
          <g class="cls-3">
            <g>
              <path class="cls-2" d="M241.2,274.1l-.23,3.68c1.13-.12,2.04.73,2.04,1.89l3.97-.22c0-3.28-2.57-5.67-5.78-5.34Z"/>
              <line class="cls-2" x1="244.12" y1="274.62" x2="242" y2="277.96"/>
              <line class="cls-2" x1="246.19" y1="276.53" x2="242.74" y2="278.64"/>
            </g>
            <g>
              <path class="cls-2" d="M246.98,279.45l-3.97.22c0,1.16-.92,2.19-2.05,2.31l.21,4.01c3.2-.33,5.79-3.25,5.8-6.53Z"/>
              <line class="cls-2" x1="246.18" y1="282.53" x2="242.73" y2="280.76"/>
              <line class="cls-2" x1="244.1" y1="284.87" x2="242" y2="281.59"/>
            </g>
            <g>
              <path class="cls-2" d="M241.18,285.98l-.21-4.01c-1.12.12-2.04-.73-2.04-1.89l-3.52.55c0,3.29,2.58,5.67,5.78,5.34Z"/>
              <line class="cls-2" x1="238.26" y1="285.47" x2="239.94" y2="281.8"/>
              <line class="cls-2" x1="236.19" y1="283.56" x2="239.2" y2="281.12"/>
            </g>
            <g>
              <path class="cls-2" d="M235.4,280.64l3.52-.55c0-1.15.93-2.2,2.05-2.31l.23-3.68c-3.19.33-5.79,3.26-5.8,6.53Z"/>
              <line class="cls-2" x1="236.2" y1="277.56" x2="239.21" y2="279.01"/>
              <line class="cls-2" x1="238.28" y1="275.22" x2="239.94" y2="278.18"/>
            </g>
          </g>
          <path class="cls-2" d="M241.2,274.1c3.2-.33,5.78,2.07,5.78,5.34s-2.6,6.21-5.8,6.53-5.78-2.06-5.78-5.34,2.61-6.21,5.8-6.53l-.23,3.68c-1.12.11-2.05,1.16-2.05,2.31,0,1.16.92,2.01,2.04,1.89,1.13-.12,2.05-1.15,2.05-2.31,0-1.15-.91-2-2.04-1.89l.23-3.68Z"/>
        </g>
        <path class="cls-1" d="M241.2,274.1c3.2-.33,5.78,2.07,5.78,5.34s-2.6,6.21-5.8,6.53-5.78-2.06-5.78-5.34,2.61-6.21,5.8-6.53l-.23,3.68c-1.12.11-2.05,1.16-2.05,2.31,0,1.16.92,2.01,2.04,1.89,1.13-.12,2.05-1.15,2.05-2.31,0-1.15-.91-2-2.04-1.89l.23-3.68Z"/>
      </g>
    </g>
    <g class="cls-3">
      <g class="cls-3">
        <g class="cls-51">
          <path class="cls-2" d="M454.66,254.65c1.12-.12,2.04.74,2.04,1.89,0,1.16-.92,2.19-2.05,2.31-1.13.12-2.04-.73-2.04-1.89,0-1.15.92-2.19,2.05-2.31Z"/>
        </g>
        <path class="cls-1" d="M454.66,254.65c1.12-.12,2.04.74,2.04,1.89,0,1.16-.92,2.19-2.05,2.31-1.13.12-2.04-.73-2.04-1.89,0-1.15.92-2.19,2.05-2.31Z"/>
      </g>
      <g class="cls-3">
        <g class="cls-46">
          <path class="cls-2" d="M456.07,255.7c1.12-.12,2.04.74,2.04,1.89,0,1.16-.92,2.19-2.05,2.31-1.13.12-2.04-.73-2.04-1.89,0-1.15.92-2.19,2.05-2.31Z"/>
        </g>
        <path class="cls-1" d="M456.07,255.7c1.12-.12,2.04.74,2.04,1.89,0,1.16-.92,2.19-2.05,2.31-1.13.12-2.04-.73-2.04-1.89,0-1.15.92-2.19,2.05-2.31Z"/>
      </g>
      <g class="cls-3">
        <g class="cls-40">
          <g class="cls-3">
            <g>
              <path class="cls-2" d="M456.07,255.7l-.21-4.01c3.19-.33,5.78,2.07,5.78,5.34l-3.52.55c0-1.15-.92-2.01-2.04-1.89Z"/>
              <line class="cls-2" x1="457.1" y1="255.88" x2="458.77" y2="252.2"/>
              <line class="cls-2" x1="457.83" y1="256.56" x2="460.84" y2="254.12"/>
            </g>
            <g>
              <path class="cls-2" d="M458.11,257.58l3.52-.55c0,3.29-2.61,6.21-5.8,6.53l.23-3.68c1.12-.11,2.05-1.15,2.05-2.31Z"/>
              <line class="cls-2" x1="457.83" y1="258.67" x2="460.83" y2="260.11"/>
              <line class="cls-2" x1="457.09" y1="259.5" x2="458.75" y2="262.46"/>
            </g>
            <g>
              <path class="cls-2" d="M456.06,259.89l-.23,3.68c-3.2.33-5.78-2.06-5.78-5.34l3.97-.22c0,1.16.91,2,2.04,1.89Z"/>
              <line class="cls-2" x1="455.03" y1="259.71" x2="452.91" y2="263.06"/>
              <line class="cls-2" x1="454.3" y1="259.03" x2="450.84" y2="261.14"/>
            </g>
            <g>
              <path class="cls-2" d="M454.02,258l-3.97.22c0-3.28,2.6-6.21,5.8-6.53l.21,4.01c-1.13.11-2.05,1.15-2.05,2.31Z"/>
              <line class="cls-2" x1="454.3" y1="256.92" x2="450.85" y2="255.15"/>
              <line class="cls-2" x1="455.04" y1="256.09" x2="452.93" y2="252.8"/>
            </g>
          </g>
          <path class="cls-2" d="M456.07,255.7l-.21-4.01c3.19-.33,5.78,2.07,5.78,5.34s-2.61,6.21-5.8,6.53-5.78-2.06-5.78-5.34,2.6-6.21,5.8-6.53l.21,4.01c-1.13.11-2.05,1.15-2.05,2.31,0,1.16.91,2,2.04,1.89,1.12-.11,2.05-1.15,2.05-2.31,0-1.15-.92-2.01-2.04-1.89Z"/>
        </g>
        <path class="cls-1" d="M456.07,255.7l-.21-4.01c3.19-.33,5.78,2.07,5.78,5.34s-2.61,6.21-5.8,6.53-5.78-2.06-5.78-5.34,2.6-6.21,5.8-6.53l.21,4.01c-1.13.11-2.05,1.15-2.05,2.31,0,1.16.91,2,2.04,1.89,1.12-.11,2.05-1.15,2.05-2.31,0-1.15-.92-2.01-2.04-1.89Z"/>
      </g>
      <g class="cls-3">
        <g class="cls-41">
          <g class="cls-3">
            <g>
              <path class="cls-2" d="M455.85,251.69l-.97-.71c3.19-.33,5.78,2.07,5.78,5.34l.97.71c0-3.28-2.58-5.67-5.78-5.34Z"/>
              <line class="cls-2" x1="460.84" y1="254.12" x2="459.88" y2="253.4"/>
            </g>
            <g>
              <path class="cls-2" d="M461.63,257.03l-.97-.71c0,3.29-2.61,6.21-5.8,6.53l.97.71c3.19-.33,5.79-3.25,5.8-6.53Z"/>
              <line class="cls-2" x1="460.83" y1="260.11" x2="459.87" y2="259.4"/>
              <line class="cls-2" x1="458.75" y1="262.46" x2="457.79" y2="261.74"/>
            </g>
            <g>
              <path class="cls-2" d="M455.83,263.57l-.97-.71c-3.2.33-5.78-2.06-5.78-5.34l.97.71c0,3.29,2.58,5.67,5.78,5.34Z"/>
              <line class="cls-2" x1="452.91" y1="263.06" x2="451.95" y2="262.34"/>
            </g>
          </g>
          <path class="cls-2" d="M459.52,252.66c1.29.96,2.12,2.53,2.11,4.38,0,3.29-2.61,6.21-5.8,6.53-1.39.14-2.67-.23-3.67-.97l-.97-.71c1,.74,2.27,1.11,3.67.97,3.19-.33,5.79-3.25,5.8-6.53,0-1.85-.82-3.42-2.11-4.38.29.21.68.5.97.71Z"/>
        </g>
        <path class="cls-1" d="M459.52,252.66c1.29.96,2.12,2.53,2.11,4.38,0,3.29-2.61,6.21-5.8,6.53-1.39.14-2.67-.23-3.67-.97l-.97-.71c1,.74,2.27,1.11,3.67.97,3.19-.33,5.79-3.25,5.8-6.53,0-1.85-.82-3.42-2.11-4.38.29.21.68.5.97.71Z"/>
      </g>
      <g class="cls-3">
        <g class="cls-42">
          <g class="cls-3">
            <path class="cls-2" d="M455.85,251.69l-.97-.71c3.19-.33,5.78,2.07,5.78,5.34l.97.71c0-3.28-2.58-5.67-5.78-5.34Z"/>
            <line class="cls-2" x1="458.77" y1="252.2" x2="457.81" y2="251.49"/>
          </g>
          <path class="cls-2" d="M458.55,251.94l.97.71c-1-.74-2.27-1.11-3.66-.97l-.97-.71c1.39-.14,2.66.23,3.66.97Z"/>
        </g>
        <path class="cls-1" d="M458.55,251.94l.97.71c-1-.74-2.27-1.11-3.66-.97l-.97-.71c1.39-.14,2.66.23,3.66.97Z"/>
      </g>
      <g class="cls-3">
        <g class="cls-43">
          <g class="cls-3">
            <g>
              <path class="cls-2" d="M455.83,263.57l-.97-.71c-3.2.33-5.78-2.06-5.78-5.34l.97.71c0,3.29,2.58,5.67,5.78,5.34Z"/>
              <line class="cls-2" x1="450.84" y1="261.14" x2="449.87" y2="260.43"/>
            </g>
            <g>
              <path class="cls-2" d="M450.06,258.22l-.97-.71c0-3.28,2.6-6.21,5.8-6.53l.97.71c-3.2.33-5.79,3.26-5.8,6.53Z"/>
              <line class="cls-2" x1="450.85" y1="255.15" x2="449.89" y2="254.43"/>
              <line class="cls-2" x1="452.93" y1="252.8" x2="451.96" y2="252.09"/>
            </g>
          </g>
          <path class="cls-2" d="M452.17,262.6l-.97-.71c-1.29-.96-2.11-2.52-2.11-4.38,0-3.28,2.6-6.21,5.8-6.53l.97.71c-3.2.33-5.79,3.26-5.8,6.53,0,1.85.82,3.42,2.11,4.38Z"/>
        </g>
        <path class="cls-1" d="M452.17,262.6l-.97-.71c-1.29-.96-2.11-2.52-2.11-4.38,0-3.28,2.6-6.21,5.8-6.53l.97.71c-3.2.33-5.79,3.26-5.8,6.53,0,1.85.82,3.42,2.11,4.38Z"/>
      </g>
      <g class="cls-3">
        <g class="cls-44">
          <g class="cls-3">
            <g>
              <path class="cls-2" d="M454.89,250.97l-.23,3.68c1.12-.12,2.04.74,2.04,1.89l3.97-.22c0-3.28-2.58-5.67-5.78-5.34Z"/>
              <line class="cls-2" x1="457.81" y1="251.49" x2="455.69" y2="254.83"/>
              <line class="cls-2" x1="459.88" y1="253.4" x2="456.42" y2="255.51"/>
            </g>
            <g>
              <path class="cls-2" d="M460.66,256.32l-3.97.22c0,1.16-.92,2.19-2.05,2.31l.21,4.01c3.19-.33,5.79-3.25,5.8-6.53Z"/>
              <line class="cls-2" x1="459.87" y1="259.4" x2="456.42" y2="257.63"/>
              <line class="cls-2" x1="457.79" y1="261.74" x2="455.68" y2="258.46"/>
            </g>
            <g>
              <path class="cls-2" d="M454.87,262.85l-.21-4.01c-1.13.12-2.04-.73-2.04-1.89l-3.52.55c0,3.29,2.58,5.67,5.78,5.34Z"/>
              <line class="cls-2" x1="451.95" y1="262.34" x2="453.62" y2="258.67"/>
              <line class="cls-2" x1="449.87" y1="260.43" x2="452.89" y2="257.99"/>
            </g>
            <g>
              <path class="cls-2" d="M449.09,257.51l3.52-.55c0-1.15.92-2.19,2.05-2.31l.23-3.68c-3.2.33-5.79,3.26-5.8,6.53Z"/>
              <line class="cls-2" x1="449.89" y1="254.43" x2="452.89" y2="255.88"/>
              <line class="cls-2" x1="451.96" y1="252.09" x2="453.63" y2="255.05"/>
            </g>
          </g>
          <path class="cls-2" d="M454.89,250.97c3.19-.33,5.78,2.07,5.78,5.34s-2.61,6.21-5.8,6.53-5.78-2.06-5.78-5.34,2.6-6.21,5.8-6.53l-.23,3.68c-1.13.11-2.05,1.15-2.05,2.31,0,1.16.91,2,2.04,1.89,1.12-.11,2.05-1.15,2.05-2.31,0-1.15-.92-2.01-2.04-1.89l.23-3.68Z"/>
        </g>
        <path class="cls-1" d="M454.89,250.97c3.19-.33,5.78,2.07,5.78,5.34s-2.61,6.21-5.8,6.53-5.78-2.06-5.78-5.34,2.6-6.21,5.8-6.53l-.23,3.68c-1.13.11-2.05,1.15-2.05,2.31,0,1.16.91,2,2.04,1.89,1.12-.11,2.05-1.15,2.05-2.31,0-1.15-.92-2.01-2.04-1.89l.23-3.68Z"/>
      </g>
    </g>
    <g class="cls-3">
      <g class="cls-3">
        <g class="cls-47">
          <path class="cls-2" d="M37.75,125.23c1.13-.12,2.04.73,2.04,1.89,0,1.15-.92,2.19-2.05,2.31-1.12.12-2.05-.74-2.04-1.89,0-1.16.92-2.19,2.05-2.31Z"/>
        </g>
        <path class="cls-1" d="M37.75,125.23c1.13-.12,2.04.73,2.04,1.89,0,1.15-.92,2.19-2.05,2.31-1.12.12-2.05-.74-2.04-1.89,0-1.16.92-2.19,2.05-2.31Z"/>
      </g>
      <g class="cls-3">
        <g class="cls-48">
          <path class="cls-2" d="M39.16,126.28c1.13-.12,2.04.73,2.04,1.89,0,1.15-.92,2.19-2.05,2.31-1.12.12-2.05-.74-2.04-1.89,0-1.16.92-2.19,2.05-2.31Z"/>
        </g>
        <path class="cls-1" d="M39.16,126.28c1.13-.12,2.04.73,2.04,1.89,0,1.15-.92,2.19-2.05,2.31-1.12.12-2.05-.74-2.04-1.89,0-1.16.92-2.19,2.05-2.31Z"/>
      </g>
      <g class="cls-3">
        <g class="cls-49">
          <g class="cls-3">
            <g>
              <path class="cls-2" d="M39.16,126.28l-.21-4.01c3.2-.33,5.78,2.06,5.78,5.34l-3.52.55c0-1.16-.91-2-2.04-1.89Z"/>
              <line class="cls-2" x1="40.19" y1="126.45" x2="41.87" y2="122.78"/>
              <line class="cls-2" x1="40.93" y1="127.13" x2="43.94" y2="124.69"/>
            </g>
            <g>
              <path class="cls-2" d="M41.2,128.16l3.52-.55c0,3.28-2.6,6.21-5.8,6.53l.23-3.68c1.13-.11,2.05-1.15,2.05-2.31Z"/>
              <line class="cls-2" x1="40.92" y1="129.25" x2="43.93" y2="130.69"/>
              <line class="cls-2" x1="40.19" y1="130.08" x2="41.85" y2="133.04"/>
            </g>
            <g>
              <path class="cls-2" d="M39.15,130.47l-.23,3.68c-3.19.33-5.78-2.07-5.78-5.34l3.97-.22c0,1.15.92,2.01,2.04,1.89Z"/>
              <line class="cls-2" x1="38.13" y1="130.29" x2="36.01" y2="133.64"/>
              <line class="cls-2" x1="37.39" y1="129.61" x2="33.94" y2="131.72"/>
            </g>
            <g>
              <path class="cls-2" d="M37.12,128.58l-3.97.22c0-3.29,2.61-6.21,5.8-6.53l.21,4.01c-1.12.11-2.05,1.15-2.05,2.31Z"/>
              <line class="cls-2" x1="37.4" y1="127.5" x2="33.95" y2="125.72"/>
              <line class="cls-2" x1="38.13" y1="126.67" x2="36.03" y2="123.38"/>
            </g>
          </g>
          <path class="cls-2" d="M39.16,126.28l-.21-4.01c3.2-.33,5.78,2.06,5.78,5.34s-2.6,6.21-5.8,6.53-5.78-2.07-5.78-5.34,2.61-6.21,5.8-6.53l.21,4.01c-1.12.11-2.05,1.15-2.05,2.31,0,1.15.92,2.01,2.04,1.89,1.13-.11,2.05-1.15,2.05-2.31,0-1.16-.91-2-2.04-1.89Z"/>
        </g>
        <path class="cls-1" d="M39.16,126.28l-.21-4.01c3.2-.33,5.78,2.06,5.78,5.34s-2.6,6.21-5.8,6.53-5.78-2.07-5.78-5.34,2.61-6.21,5.8-6.53l.21,4.01c-1.12.11-2.05,1.15-2.05,2.31,0,1.15.92,2.01,2.04,1.89,1.13-.11,2.05-1.15,2.05-2.31,0-1.16-.91-2-2.04-1.89Z"/>
      </g>
      <g class="cls-3">
        <g class="cls-45">
          <g class="cls-3">
            <g>
              <path class="cls-2" d="M38.95,122.27l-.97-.71c3.2-.33,5.78,2.06,5.78,5.34l.97.71c0-3.29-2.57-5.67-5.78-5.34Z"/>
              <line class="cls-2" x1="43.94" y1="124.69" x2="42.97" y2="123.98"/>
            </g>
            <g>
              <path class="cls-2" d="M44.72,127.61l-.97-.71c0,3.28-2.6,6.21-5.8,6.53l.97.71c3.2-.33,5.79-3.26,5.8-6.53Z"/>
              <line class="cls-2" x1="43.93" y1="130.69" x2="42.96" y2="129.98"/>
              <line class="cls-2" x1="41.85" y1="133.04" x2="40.88" y2="132.32"/>
            </g>
            <g>
              <path class="cls-2" d="M38.93,134.15l-.97-.71c-3.19.33-5.78-2.07-5.78-5.34l.97.71c0,3.28,2.58,5.67,5.78,5.34Z"/>
              <line class="cls-2" x1="36.01" y1="133.64" x2="35.04" y2="132.92"/>
            </g>
          </g>
          <path class="cls-2" d="M42.61,123.23c1.29.96,2.11,2.52,2.11,4.38,0,3.28-2.6,6.21-5.8,6.53-1.39.14-2.66-.23-3.66-.97l-.97-.71c1,.74,2.27,1.11,3.66.97,3.2-.33,5.79-3.26,5.8-6.53,0-1.85-.82-3.42-2.11-4.38.29.21.68.5.97.71Z"/>
        </g>
        <path class="cls-1" d="M42.61,123.23c1.29.96,2.11,2.52,2.11,4.38,0,3.28-2.6,6.21-5.8,6.53-1.39.14-2.66-.23-3.66-.97l-.97-.71c1,.74,2.27,1.11,3.66.97,3.2-.33,5.79-3.26,5.8-6.53,0-1.85-.82-3.42-2.11-4.38.29.21.68.5.97.71Z"/>
      </g>
      <g class="cls-3">
        <g class="cls-67">
          <g class="cls-3">
            <path class="cls-2" d="M38.95,122.27l-.97-.71c3.2-.33,5.78,2.06,5.78,5.34l.97.71c0-3.29-2.57-5.67-5.78-5.34Z"/>
            <line class="cls-2" x1="41.87" y1="122.78" x2="40.9" y2="122.06"/>
          </g>
          <path class="cls-2" d="M41.65,122.52l.97.71c-1-.74-2.27-1.11-3.67-.97l-.97-.71c1.39-.14,2.67.23,3.67.97Z"/>
        </g>
        <path class="cls-1" d="M41.65,122.52l.97.71c-1-.74-2.27-1.11-3.67-.97l-.97-.71c1.39-.14,2.67.23,3.67.97Z"/>
      </g>
      <g class="cls-3">
        <g class="cls-61">
          <g class="cls-3">
            <g>
              <path class="cls-2" d="M38.93,134.15l-.97-.71c-3.19.33-5.78-2.07-5.78-5.34l.97.71c0,3.28,2.58,5.67,5.78,5.34Z"/>
              <line class="cls-2" x1="33.94" y1="131.72" x2="32.97" y2="131"/>
            </g>
            <g>
              <path class="cls-2" d="M33.15,128.8l-.97-.71c0-3.29,2.61-6.21,5.8-6.53l.97.71c-3.19.33-5.79,3.25-5.8,6.53Z"/>
              <line class="cls-2" x1="33.95" y1="125.72" x2="32.98" y2="125.01"/>
              <line class="cls-2" x1="36.03" y1="123.38" x2="35.06" y2="122.66"/>
            </g>
          </g>
          <path class="cls-2" d="M35.26,133.18l-.97-.71c-1.29-.96-2.12-2.53-2.11-4.38,0-3.29,2.61-6.21,5.8-6.53l.97.71c-3.19.33-5.79,3.25-5.8,6.53,0,1.85.82,3.42,2.11,4.38Z"/>
        </g>
        <path class="cls-1" d="M35.26,133.18l-.97-.71c-1.29-.96-2.12-2.53-2.11-4.38,0-3.29,2.61-6.21,5.8-6.53l.97.71c-3.19.33-5.79,3.25-5.8,6.53,0,1.85.82,3.42,2.11,4.38Z"/>
      </g>
      <g class="cls-3">
        <g class="cls-62">
          <g class="cls-3">
            <g>
              <path class="cls-2" d="M37.98,121.55l-.23,3.68c1.13-.12,2.04.73,2.04,1.89l3.97-.22c0-3.29-2.57-5.67-5.78-5.34Z"/>
              <line class="cls-2" x1="40.9" y1="122.06" x2="38.78" y2="125.41"/>
              <line class="cls-2" x1="42.97" y1="123.98" x2="39.52" y2="126.09"/>
            </g>
            <g>
              <path class="cls-2" d="M43.76,126.9l-3.97.22c0,1.15-.92,2.19-2.05,2.31l.21,4.01c3.2-.33,5.79-3.26,5.8-6.53Z"/>
              <line class="cls-2" x1="42.96" y1="129.98" x2="39.51" y2="128.21"/>
              <line class="cls-2" x1="40.88" y1="132.32" x2="38.78" y2="129.03"/>
            </g>
            <g>
              <path class="cls-2" d="M37.96,133.43l-.21-4.01c-1.12.12-2.05-.74-2.04-1.89l-3.52.55c0,3.28,2.58,5.67,5.78,5.34Z"/>
              <line class="cls-2" x1="35.04" y1="132.92" x2="36.72" y2="129.25"/>
              <line class="cls-2" x1="32.97" y1="131" x2="35.98" y2="128.57"/>
            </g>
            <g>
              <path class="cls-2" d="M32.18,128.09l3.52-.55c0-1.16.92-2.19,2.05-2.31l.23-3.68c-3.19.33-5.79,3.25-5.8,6.53Z"/>
              <line class="cls-2" x1="32.98" y1="125.01" x2="35.99" y2="126.45"/>
              <line class="cls-2" x1="35.06" y1="122.66" x2="36.72" y2="125.62"/>
            </g>
          </g>
          <path class="cls-2" d="M37.98,121.55c3.2-.33,5.78,2.06,5.78,5.34s-2.6,6.21-5.8,6.53-5.78-2.07-5.78-5.34,2.61-6.21,5.8-6.53l-.23,3.68c-1.12.11-2.05,1.15-2.05,2.31,0,1.15.92,2.01,2.04,1.89,1.13-.11,2.05-1.15,2.05-2.31,0-1.16-.91-2-2.04-1.89l.23-3.68Z"/>
        </g>
        <path class="cls-1" d="M37.98,121.55c3.2-.33,5.78,2.06,5.78,5.34s-2.6,6.21-5.8,6.53-5.78-2.07-5.78-5.34,2.61-6.21,5.8-6.53l-.23,3.68c-1.12.11-2.05,1.15-2.05,2.31,0,1.15.92,2.01,2.04,1.89,1.13-.11,2.05-1.15,2.05-2.31,0-1.16-.91-2-2.04-1.89l.23-3.68Z"/>
      </g>
    </g>
    <g class="cls-3">
      <g class="cls-3">
        <g class="cls-63">
          <polygon class="cls-2" points="1.79 30.56 205.55 184.1 206.08 185.94 206.13 312.13 205.08 311.34 205.03 186.58 2.31 33.83 2.36 158.58 1.31 157.79 1.26 31.6 1.79 30.56"/>
        </g>
        <polygon class="cls-1" points="1.79 30.56 205.55 184.1 206.08 185.94 206.13 312.13 205.08 311.34 205.03 186.58 2.31 33.83 2.36 158.58 1.31 157.79 1.26 31.6 1.79 30.56"/>
      </g>
      <g class="cls-3">
        <g class="cls-64">
          <polygon class="cls-2" points="283.74 .76 487.5 154.31 488.03 156.14 488.08 282.33 487.03 281.54 486.98 156.79 284.26 4.03 284.31 128.78 283.26 127.99 283.21 1.81 283.74 .76"/>
        </g>
        <polygon class="cls-1" points="283.74 .76 487.5 154.31 488.03 156.14 488.08 282.33 487.03 281.54 486.98 156.79 284.26 4.03 284.31 128.78 283.26 127.99 283.21 1.81 283.74 .76"/>
      </g>
      <g class="cls-3">
        <g class="cls-65">
          <polygon class="cls-2" points="283.74 .76 283.21 1.81 1.26 31.6 1.79 30.56 283.74 .76"/>
        </g>
        <polygon class="cls-1" points="283.74 .76 283.21 1.81 1.26 31.6 1.79 30.56 283.74 .76"/>
      </g>
      <g class="cls-3">
        <g class="cls-68">
          <polygon class="cls-2" points="283.21 1.81 283.26 127.99 1.31 157.79 1.26 31.6 283.21 1.81"/>
        </g>
        <polygon class="cls-1" points="283.21 1.81 283.26 127.99 1.31 157.79 1.26 31.6 283.21 1.81"/>
      </g>
      <g class="cls-3">
        <g class="cls-69">
          <polygon class="cls-2" points="283.26 127.99 284.31 128.78 2.36 158.58 1.31 157.79 283.26 127.99"/>
        </g>
        <polygon class="cls-1" points="283.26 127.99 284.31 128.78 2.36 158.58 1.31 157.79 283.26 127.99"/>
      </g>
      <g class="cls-3">
        <g class="cls-70">
          <polygon class="cls-2" points="284.31 128.78 2.36 158.58 2.31 33.83 284.26 4.03 284.31 128.78"/>
        </g>
        <polygon class="cls-1" points="284.31 128.78 2.36 158.58 2.31 33.83 284.26 4.03 284.31 128.78"/>
      </g>
      <g class="cls-3">
        <g class="cls-66">
          <polygon class="cls-2" points="284.26 4.03 486.98 156.79 205.03 186.58 2.31 33.83 284.26 4.03"/>
        </g>
        <polygon class="cls-1" points="284.26 4.03 486.98 156.79 205.03 186.58 2.31 33.83 284.26 4.03"/>
      </g>
      <g class="cls-3">
        <g class="cls-25">
          <polygon class="cls-2" points="486.98 156.79 487.03 281.54 205.08 311.34 205.03 186.58 486.98 156.79"/>
        </g>
        <polygon class="cls-1" points="486.98 156.79 487.03 281.54 205.08 311.34 205.03 186.58 486.98 156.79"/>
      </g>
      <g class="cls-3">
        <g class="cls-37">
          <polygon class="cls-2" points="487.03 281.54 488.08 282.33 206.13 312.13 205.08 311.34 487.03 281.54"/>
        </g>
        <polygon class="cls-1" points="487.03 281.54 488.08 282.33 206.13 312.13 205.08 311.34 487.03 281.54"/>
      </g>
      <g class="cls-3">
        <g class="cls-27">
          <polygon class="cls-2" points="488.08 282.33 206.13 312.13 206.08 185.94 488.03 156.14 488.08 282.33"/>
        </g>
        <polygon class="cls-1" points="488.08 282.33 206.13 312.13 206.08 185.94 488.03 156.14 488.08 282.33"/>
      </g>
      <g class="cls-3">
        <g class="cls-31">
          <polygon class="cls-2" points="488.03 156.14 206.08 185.94 205.55 184.1 487.5 154.31 488.03 156.14"/>
        </g>
        <polygon class="cls-1" points="488.03 156.14 206.08 185.94 205.55 184.1 487.5 154.31 488.03 156.14"/>
      </g>
      <g class="cls-3">
        <g class="cls-29">
          <polygon class="cls-2" points="487.5 154.31 205.55 184.1 1.79 30.56 283.74 .76 487.5 154.31"/>
        </g>
        <polygon class="cls-1" points="487.5 154.31 205.55 184.1 1.79 30.56 283.74 .76 487.5 154.31"/>
      </g>
    </g>
    <g class="cls-3">
      <g class="cls-3">
        <g class="cls-26">
          <polygon class="cls-2" points="2.3 104.85 3.36 105.64 3.38 159.48 204.03 310.69 204.01 256.85 205.06 257.64 205.09 312.91 204.56 313.96 2.85 161.96 2.33 160.12 2.3 104.85"/>
        </g>
        <polygon class="cls-1" points="2.3 104.85 3.36 105.64 3.38 159.48 204.03 310.69 204.01 256.85 205.06 257.64 205.09 312.91 204.56 313.96 2.85 161.96 2.33 160.12 2.3 104.85"/>
      </g>
      <g class="cls-3">
        <g class="cls-30">
          <polygon class="cls-2" points="284.25 75.05 285.31 75.84 285.33 129.69 485.98 280.89 485.96 227.05 487.01 227.84 487.04 283.12 486.51 284.16 284.8 132.16 284.28 130.33 284.25 75.05"/>
        </g>
        <polygon class="cls-1" points="284.25 75.05 285.31 75.84 285.33 129.69 485.98 280.89 485.96 227.05 487.01 227.84 487.04 283.12 486.51 284.16 284.8 132.16 284.28 130.33 284.25 75.05"/>
      </g>
      <g class="cls-3">
        <g class="cls-28">
          <polygon class="cls-2" points="284.25 75.05 284.28 130.33 2.33 160.12 2.3 104.85 284.25 75.05"/>
        </g>
        <polygon class="cls-1" points="284.25 75.05 284.28 130.33 2.33 160.12 2.3 104.85 284.25 75.05"/>
      </g>
      <g class="cls-3">
        <g class="cls-38">
          <polygon class="cls-2" points="284.28 130.33 284.8 132.16 2.85 161.96 2.33 160.12 284.28 130.33"/>
        </g>
        <polygon class="cls-1" points="284.28 130.33 284.8 132.16 2.85 161.96 2.33 160.12 284.28 130.33"/>
      </g>
      <g class="cls-3">
        <g class="cls-39">
          <polygon class="cls-2" points="284.8 132.16 486.51 284.16 204.56 313.96 2.85 161.96 284.8 132.16"/>
        </g>
        <polygon class="cls-1" points="284.8 132.16 486.51 284.16 204.56 313.96 2.85 161.96 284.8 132.16"/>
      </g>
      <g class="cls-3">
        <g class="cls-17">
          <polygon class="cls-2" points="486.51 284.16 204.56 313.96 205.09 312.91 487.04 283.12 486.51 284.16"/>
        </g>
        <polygon class="cls-1" points="486.51 284.16 204.56 313.96 205.09 312.91 487.04 283.12 486.51 284.16"/>
      </g>
      <g class="cls-3">
        <g class="cls-14">
          <polygon class="cls-2" points="487.04 283.12 205.09 312.91 205.06 257.64 487.01 227.84 487.04 283.12"/>
        </g>
        <polygon class="cls-1" points="487.04 283.12 205.09 312.91 205.06 257.64 487.01 227.84 487.04 283.12"/>
      </g>
      <g class="cls-3">
        <g class="cls-19">
          <polygon class="cls-2" points="487.01 227.84 205.06 257.64 204.01 256.85 485.96 227.05 487.01 227.84"/>
        </g>
        <polygon class="cls-1" points="487.01 227.84 205.06 257.64 204.01 256.85 485.96 227.05 487.01 227.84"/>
      </g>
      <g class="cls-3">
        <g class="cls-22">
          <polygon class="cls-2" points="485.96 227.05 485.98 280.89 204.03 310.69 204.01 256.85 485.96 227.05"/>
        </g>
        <polygon class="cls-1" points="485.96 227.05 485.98 280.89 204.03 310.69 204.01 256.85 485.96 227.05"/>
      </g>
      <g class="cls-3">
        <g class="cls-20">
          <polygon class="cls-2" points="485.98 280.89 204.03 310.69 3.38 159.48 285.33 129.69 485.98 280.89"/>
        </g>
        <polygon class="cls-1" points="485.98 280.89 204.03 310.69 3.38 159.48 285.33 129.69 485.98 280.89"/>
      </g>
      <g class="cls-3">
        <g class="cls-18">
          <polygon class="cls-2" points="285.33 129.69 3.38 159.48 3.36 105.64 285.31 75.84 285.33 129.69"/>
        </g>
        <polygon class="cls-1" points="285.33 129.69 3.38 159.48 3.36 105.64 285.31 75.84 285.33 129.69"/>
      </g>
      <g class="cls-3">
        <g class="cls-21">
          <polygon class="cls-2" points="285.31 75.84 3.36 105.64 2.3 104.85 284.25 75.05 285.31 75.84"/>
        </g>
        <polygon class="cls-1" points="285.31 75.84 3.36 105.64 2.3 104.85 284.25 75.05 285.31 75.84"/>
      </g>
    </g>
    <g class="cls-3">
      <g class="cls-3">
        <g class="cls-15">
          <path class="cls-2" d="M90.26,43.85l-5.68-3.83,34.9-3.67,5.68,3.83-34.9,3.67ZM117.74,37.37l-29.29,3.08,3.55,2.39,29.29-3.08-3.55-2.39"/>
        </g>
        <path class="cls-1" d="M90.26,43.85l-5.68-3.83,34.9-3.67,5.68,3.83-34.9,3.67ZM117.74,37.37l-29.29,3.08,3.55,2.39,29.29-3.08-3.55-2.39"/>
      </g>
      <g class="cls-3">
        <g class="cls-16">
          <path class="cls-2" d="M90.47,73.79l-5.68-3.83,34.9-3.67,5.68,3.83-34.9,3.67ZM117.94,67.31l-29.29,3.08,3.55,2.39,29.29-3.08-3.55-2.39"/>
        </g>
        <path class="cls-1" d="M90.47,73.79l-5.68-3.83,34.9-3.67,5.68,3.83-34.9,3.67ZM117.94,67.31l-29.29,3.08,3.55,2.39,29.29-3.08-3.55-2.39"/>
      </g>
      <g class="cls-3">
        <g class="cls-60">
          <polygon class="cls-2" points="90.47 73.79 90.26 43.85 125.15 40.18 125.36 70.12 90.47 73.79"/>
        </g>
        <polygon class="cls-1" points="90.47 73.79 90.26 43.85 125.15 40.18 125.36 70.12 90.47 73.79"/>
      </g>
      <g class="cls-3">
        <g class="cls-32">
          <polygon class="cls-2" points="125.36 70.12 119.68 66.29 119.47 36.35 125.15 40.18 125.36 70.12"/>
        </g>
        <polygon class="cls-1" points="125.36 70.12 119.68 66.29 119.47 36.35 125.15 40.18 125.36 70.12"/>
      </g>
      <g class="cls-3">
        <g class="cls-34">
          <polygon class="cls-2" points="119.68 66.29 84.78 69.96 84.57 40.02 119.47 36.35 119.68 66.29"/>
        </g>
        <polygon class="cls-1" points="119.68 66.29 84.78 69.96 84.57 40.02 119.47 36.35 119.68 66.29"/>
      </g>
      <g class="cls-3">
        <g class="cls-36">
          <polygon class="cls-2" points="84.78 69.96 84.57 40.02 90.26 43.85 90.47 73.79 84.78 69.96"/>
        </g>
        <polygon class="cls-1" points="84.78 69.96 84.57 40.02 90.26 43.85 90.47 73.79 84.78 69.96"/>
      </g>
      <g class="cls-3">
        <g class="cls-35">
          <polygon class="cls-2" points="117.94 67.31 117.74 37.37 121.29 39.76 121.5 69.7 117.94 67.31"/>
        </g>
        <polygon class="cls-1" points="117.94 67.31 117.74 37.37 121.29 39.76 121.5 69.7 117.94 67.31"/>
      </g>
      <g class="cls-3">
        <g class="cls-33">
          <polygon class="cls-2" points="121.5 69.7 92.21 72.78 92 42.84 121.29 39.76 121.5 69.7"/>
        </g>
        <polygon class="cls-1" points="121.5 69.7 92.21 72.78 92 42.84 121.29 39.76 121.5 69.7"/>
      </g>
      <g class="cls-3">
        <g class="cls-24">
          <polygon class="cls-2" points="92.21 72.78 88.66 70.39 88.45 40.44 92 42.84 92.21 72.78"/>
        </g>
        <polygon class="cls-1" points="92.21 72.78 88.66 70.39 88.45 40.44 92 42.84 92.21 72.78"/>
      </g>
      <g class="cls-3">
        <g class="cls-23">
          <polygon class="cls-2" points="88.66 70.39 88.45 40.44 117.74 37.37 117.94 67.31 88.66 70.39"/>
        </g>
        <polygon class="cls-1" points="88.66 70.39 88.45 40.44 117.74 37.37 117.94 67.31 88.66 70.39"/>
      </g>
    </g>
  </g>
</svg>