<?xml version="1.0" encoding="UTF-8"?>
<svg id="Layer_2" data-name="Layer 2" xmlns="http://www.w3.org/2000/svg" xmlns:xlink="http://www.w3.org/1999/xlink" viewBox="0 0 586.02 302">
  <defs>
    <style>
      .cls-1, .cls-2 {
        fill: none;
        stroke: #fff;
        stroke-miterlimit: 10;
      }

      .cls-3 {
        isolation: isolate;
      }

      .cls-4 {
        clip-path: url(#clippath-17);
      }

      .cls-5 {
        clip-path: url(#clippath-19);
      }

      .cls-6 {
        clip-path: url(#clippath-11);
      }

      .cls-7 {
        clip-path: url(#clippath-16);
      }

      .cls-8 {
        clip-path: url(#clippath-18);
      }

      .cls-9 {
        clip-path: url(#clippath-10);
      }

      .cls-10 {
        clip-path: url(#clippath-15);
      }

      .cls-11 {
        clip-path: url(#clippath-13);
      }

      .cls-12 {
        clip-path: url(#clippath-14);
      }

      .cls-13 {
        clip-path: url(#clippath-12);
      }

      .cls-14 {
        clip-path: url(#clippath-31);
      }

      .cls-15 {
        clip-path: url(#clippath-32);
      }

      .cls-16 {
        clip-path: url(#clippath-33);
      }

      .cls-17 {
        clip-path: url(#clippath-34);
      }

      .cls-18 {
        clip-path: url(#clippath-35);
      }

      .cls-19 {
        clip-path: url(#clippath-39);
      }

      .cls-20 {
        clip-path: url(#clippath-30);
      }

      .cls-21 {
        clip-path: url(#clippath-36);
      }

      .cls-22 {
        clip-path: url(#clippath-37);
      }

      .cls-23 {
        clip-path: url(#clippath-38);
      }

      .cls-24 {
        clip-path: url(#clippath-27);
      }

      .cls-25 {
        clip-path: url(#clippath-29);
      }

      .cls-26 {
        clip-path: url(#clippath-26);
      }

      .cls-27 {
        clip-path: url(#clippath-28);
      }

      .cls-28 {
        clip-path: url(#clippath-20);
      }

      .cls-29 {
        clip-path: url(#clippath-21);
      }

      .cls-30 {
        clip-path: url(#clippath-22);
      }

      .cls-31 {
        clip-path: url(#clippath-23);
      }

      .cls-32 {
        clip-path: url(#clippath-24);
      }

      .cls-33 {
        clip-path: url(#clippath-25);
      }

      .cls-34 {
        clip-path: url(#clippath-41);
      }

      .cls-35 {
        clip-path: url(#clippath-42);
      }

      .cls-36 {
        clip-path: url(#clippath-43);
      }

      .cls-37 {
        clip-path: url(#clippath-44);
      }

      .cls-38 {
        clip-path: url(#clippath-45);
      }

      .cls-39 {
        clip-path: url(#clippath-40);
      }

      .cls-40 {
        clip-path: url(#clippath-1);
      }

      .cls-41 {
        clip-path: url(#clippath-3);
      }

      .cls-42 {
        clip-path: url(#clippath-4);
      }

      .cls-43 {
        clip-path: url(#clippath-2);
      }

      .cls-44 {
        clip-path: url(#clippath-7);
      }

      .cls-45 {
        clip-path: url(#clippath-6);
      }

      .cls-46 {
        clip-path: url(#clippath-9);
      }

      .cls-47 {
        clip-path: url(#clippath-8);
      }

      .cls-48 {
        clip-path: url(#clippath-5);
      }

      .cls-2 {
        stroke-width: .25px;
      }

      .cls-49 {
        clip-path: url(#clippath);
      }
    </style>
    <clipPath id="clippath">
      <path class="cls-1" d="M420.93,51.17c55.55,0,100.59,45.03,100.59,100.58,0,55.55-45.04,100.59-100.59,100.59-55.55,0-100.58-45.04-100.58-100.59,0-55.55,45.03-100.58,100.58-100.58Z"/>
    </clipPath>
    <clipPath id="clippath-1">
      <path class="cls-1" d="M420.93,51.17c55.55,0,100.59,45.03,100.59,100.58,0,55.55-45.04,100.59-100.59,100.59-55.55,0-100.58-45.04-100.58-100.59,0-55.55,45.03-100.58,100.58-100.58Z"/>
    </clipPath>
    <clipPath id="clippath-2">
      <path class="cls-1" d="M420.93,51.17v-4c57.76,0,104.59,46.82,104.59,104.58s-46.83,104.59-104.59,104.59-104.58-46.83-104.58-104.59,46.82-104.58,104.58-104.58v4c-55.55,0-100.58,45.03-100.58,100.58,0,55.55,45.03,100.59,100.58,100.59,55.55,0,100.59-45.04,100.59-100.59,0-55.55-45.04-100.58-100.59-100.58Z"/>
    </clipPath>
    <clipPath id="clippath-3">
      <path class="cls-1" d="M421.11,47.17c-.06,0-.12,0-.17,0h0c.06,0,.12,0,.17,0Z"/>
    </clipPath>
    <clipPath id="clippath-4">
      <path class="cls-1" d="M421.11,47.17h0c57.68.09,104.42,46.88,104.42,104.58h0c0-57.7-46.73-104.49-104.42-104.58Z"/>
    </clipPath>
    <clipPath id="clippath-5">
      <path class="cls-1" d="M525.52,151.92c0-.06,0-.12,0-.17h0c0,.06,0,.12,0,.17Z"/>
    </clipPath>
    <clipPath id="clippath-6">
      <path class="cls-1" d="M525.52,151.92c-.09,57.68-46.88,104.42-104.59,104.42h0c57.7,0,104.5-46.73,104.59-104.42t0,0Z"/>
    </clipPath>
    <clipPath id="clippath-7">
      <path class="cls-1" d="M420.76,256.33c.06,0,.12,0,.17,0h0c-.06,0-.12,0-.17,0Z"/>
    </clipPath>
    <clipPath id="clippath-8">
      <path class="cls-1" d="M420.76,256.33c-57.68-.09-104.41-46.88-104.41-104.59h0c0,57.7,46.72,104.5,104.41,104.59h0Z"/>
    </clipPath>
    <clipPath id="clippath-9">
      <path class="cls-1" d="M316.35,151.57c0,.06,0,.12,0,.17h0c0-.06,0-.12,0-.17Z"/>
    </clipPath>
    <clipPath id="clippath-10">
      <path class="cls-1" d="M316.35,151.57h0c.09-57.68,46.88-104.41,104.58-104.41h0c-57.7,0-104.49,46.72-104.58,104.41Z"/>
    </clipPath>
    <clipPath id="clippath-11">
      <path class="cls-1" d="M420.93,47.17c57.76,0,104.59,46.82,104.59,104.58s-46.83,104.59-104.59,104.59-104.58-46.83-104.58-104.59,46.82-104.58,104.58-104.58v4c-55.55,0-100.58,45.03-100.58,100.58,0,55.55,45.03,100.59,100.58,100.59,55.55,0,100.59-45.04,100.59-100.59,0-55.55-45.04-100.58-100.59-100.58v-4Z"/>
    </clipPath>
    <clipPath id="clippath-12">
      <path class="cls-1" d="M76.96,53.89c10.17,0,18.42,8.25,18.42,18.43,0,10.17-8.25,18.42-18.42,18.42-10.18,0-18.43-8.25-18.43-18.42,0-10.18,8.25-18.43,18.43-18.43Z"/>
    </clipPath>
    <clipPath id="clippath-13">
      <path class="cls-1" d="M76.96,53.89c10.17,0,18.42,8.25,18.42,18.43,0,10.17-8.25,18.42-18.42,18.42-10.18,0-18.43-8.25-18.43-18.42,0-10.18,8.25-18.43,18.43-18.43Z"/>
    </clipPath>
    <clipPath id="clippath-14">
      <path class="cls-1" d="M76.96,53.89v-2c11.28,0,20.42,9.14,20.42,20.43s-9.14,20.42-20.42,20.42-20.43-9.14-20.43-20.42,9.14-20.43,20.43-20.43v2c-10.18,0-18.43,8.25-18.43,18.43,0,10.17,8.25,18.42,18.43,18.42,10.17,0,18.42-8.25,18.42-18.42,0-10.18-8.25-18.43-18.42-18.43Z"/>
    </clipPath>
    <clipPath id="clippath-15">
      <path class="cls-1" d="M77,51.89s-.02,0-.03,0h0s.02,0,.03,0Z"/>
    </clipPath>
    <clipPath id="clippath-16">
      <path class="cls-1" d="M77,51.89h0c11.26.02,20.39,9.16,20.39,20.43h0c0-11.27-9.13-20.41-20.39-20.43Z"/>
    </clipPath>
    <clipPath id="clippath-17">
      <path class="cls-1" d="M97.38,72.36s0-.02,0-.03h0s0,.02,0,.03Z"/>
    </clipPath>
    <clipPath id="clippath-18">
      <path class="cls-1" d="M97.38,72.36c-.02,11.26-9.16,20.39-20.42,20.39h0c11.27,0,20.4-9.13,20.42-20.39t0,0Z"/>
    </clipPath>
    <clipPath id="clippath-19">
      <path class="cls-1" d="M76.93,92.74s.02,0,.03,0h0s-.02,0-.03,0Z"/>
    </clipPath>
    <clipPath id="clippath-20">
      <path class="cls-1" d="M76.93,92.74c-11.27-.02-20.4-9.16-20.4-20.42h0c0,11.27,9.13,20.4,20.4,20.42t0,0Z"/>
    </clipPath>
    <clipPath id="clippath-21">
      <path class="cls-1" d="M56.53,72.29s0,.02,0,.03h0s0-.02,0-.03Z"/>
    </clipPath>
    <clipPath id="clippath-22">
      <path class="cls-1" d="M56.53,72.29h0c.02-11.27,9.16-20.4,20.43-20.4h0c-11.27,0-20.41,9.13-20.43,20.4Z"/>
    </clipPath>
    <clipPath id="clippath-23">
      <path class="cls-1" d="M76.96,51.89c11.28,0,20.42,9.14,20.42,20.43s-9.14,20.42-20.42,20.42-20.43-9.14-20.43-20.42,9.14-20.43,20.43-20.43v2c-10.18,0-18.43,8.25-18.43,18.43,0,10.17,8.25,18.42,18.43,18.42,10.17,0,18.42-8.25,18.42-18.42,0-10.18-8.25-18.43-18.42-18.43v-2Z"/>
    </clipPath>
    <clipPath id="clippath-24">
      <polygon class="cls-1" points="584.02 .5 1.99 .5 .5 .5 .5 .5 3.5 .5 3.5 .5 582.51 .5 582.51 .5 585.52 .5 585.52 .5 584.02 .5"/>
    </clipPath>
    <clipPath id="clippath-25">
      <polygon class="cls-1" points="584.02 301.5 1.99 301.5 .5 301.5 .5 301.5 3.5 301.5 3.5 301.5 582.51 301.5 582.51 301.5 585.52 301.5 585.52 301.5 584.02 301.5"/>
    </clipPath>
    <clipPath id="clippath-26">
      <rect class="cls-1" x="584.02" y=".5" width="1.5" height="301"/>
    </clipPath>
    <clipPath id="clippath-27">
      <rect class="cls-1" x="585.52" y=".5" width="0" height="301"/>
    </clipPath>
    <clipPath id="clippath-28">
      <rect class="cls-1" x="582.51" y=".5" width="3.01" height="301"/>
    </clipPath>
    <clipPath id="clippath-29">
      <rect class="cls-1" x="582.51" y=".5" width="0" height="301"/>
    </clipPath>
    <clipPath id="clippath-30">
      <rect class="cls-1" x="3.5" y=".5" width="579.01" height="301"/>
    </clipPath>
    <clipPath id="clippath-31">
      <rect class="cls-1" x="3.5" y=".5" width="0" height="301"/>
    </clipPath>
    <clipPath id="clippath-32">
      <rect class="cls-1" x=".5" y=".5" width="3" height="301"/>
    </clipPath>
    <clipPath id="clippath-33">
      <rect class="cls-1" x=".5" y=".5" width="0" height="301"/>
    </clipPath>
    <clipPath id="clippath-34">
      <rect class="cls-1" x=".5" y=".5" width="1.49" height="301"/>
    </clipPath>
    <clipPath id="clippath-35">
      <rect class="cls-1" x="1.99" y=".5" width="582.02" height="301"/>
    </clipPath>
    <clipPath id="clippath-36">
      <path class="cls-1" d="M84.05,216.16h-13.98s-.2,0-.2,0h13.98s.2,0,.2,0ZM70.87,216.16h.19s11.98,0,11.98,0h-.19s-11.98,0-11.98,0"/>
    </clipPath>
    <clipPath id="clippath-37">
      <path class="cls-1" d="M84.05,247.16h-13.98s-.2,0-.2,0h13.98s.2,0,.2,0ZM70.87,247.16h.19s11.98,0,11.98,0h-.19s-11.98,0-11.98,0"/>
    </clipPath>
    <clipPath id="clippath-38">
      <rect class="cls-1" x="83.85" y="216.16" width=".2" height="31"/>
    </clipPath>
    <clipPath id="clippath-39">
      <rect class="cls-1" x="69.87" y="216.16" width="13.98" height="31"/>
    </clipPath>
    <clipPath id="clippath-40">
      <rect class="cls-1" x="69.87" y="216.16" width=".2" height="31"/>
    </clipPath>
    <clipPath id="clippath-41">
      <rect class="cls-1" x="70.07" y="216.16" width="13.98" height="31"/>
    </clipPath>
    <clipPath id="clippath-42">
      <rect class="cls-1" x="70.87" y="216.16" width="11.98" height="31"/>
    </clipPath>
    <clipPath id="clippath-43">
      <rect class="cls-1" x="82.85" y="216.16" width=".19" height="31"/>
    </clipPath>
    <clipPath id="clippath-44">
      <rect class="cls-1" x="71.07" y="216.16" width="11.98" height="31"/>
    </clipPath>
    <clipPath id="clippath-45">
      <rect class="cls-1" x="70.87" y="216.16" width=".19" height="31"/>
    </clipPath>
  </defs>
  <g id="Layer_1-2" data-name="Layer 1">
    <g class="cls-3">
      <g class="cls-3">
        <g class="cls-49">
          <path class="cls-2" d="M420.93,51.17c55.55,0,100.59,45.03,100.59,100.58,0,55.55-45.04,100.59-100.59,100.59-55.55,0-100.58-45.04-100.58-100.59,0-55.55,45.03-100.58,100.58-100.58Z"/>
        </g>
        <path class="cls-1" d="M420.93,51.17c55.55,0,100.59,45.03,100.59,100.58,0,55.55-45.04,100.59-100.59,100.59-55.55,0-100.58-45.04-100.58-100.59,0-55.55,45.03-100.58,100.58-100.58Z"/>
      </g>
      <g class="cls-3">
        <g class="cls-40">
          <path class="cls-2" d="M420.93,51.17c55.55,0,100.59,45.03,100.59,100.58,0,55.55-45.04,100.59-100.59,100.59-55.55,0-100.58-45.04-100.58-100.59,0-55.55,45.03-100.58,100.58-100.58Z"/>
        </g>
        <path class="cls-1" d="M420.93,51.17c55.55,0,100.59,45.03,100.59,100.58,0,55.55-45.04,100.59-100.59,100.59-55.55,0-100.58-45.04-100.58-100.59,0-55.55,45.03-100.58,100.58-100.58Z"/>
      </g>
      <g class="cls-3">
        <g class="cls-43">
          <g class="cls-3">
            <g>
              <path class="cls-2" d="M420.93,51.17v-4c57.76,0,104.59,46.82,104.59,104.58h-4c0-55.55-45.04-100.58-100.59-100.58Z"/>
              <line class="cls-2" x1="471.7" y1="64.9" x2="473.72" y2="61.44"/>
              <line class="cls-2" x1="507.79" y1="100.98" x2="511.24" y2="98.96"/>
            </g>
            <g>
              <path class="cls-2" d="M521.52,151.75h4c0,57.76-46.83,104.59-104.59,104.59v-4c55.55,0,100.59-45.04,100.59-100.59Z"/>
              <line class="cls-2" x1="507.79" y1="202.51" x2="511.24" y2="204.53"/>
              <line class="cls-2" x1="471.7" y1="238.6" x2="473.72" y2="242.05"/>
            </g>
            <g>
              <path class="cls-2" d="M420.93,252.33v4c-57.76,0-104.58-46.83-104.58-104.59h4c0,55.55,45.03,100.59,100.58,100.59Z"/>
              <line class="cls-2" x1="370.17" y1="238.6" x2="368.15" y2="242.05"/>
              <line class="cls-2" x1="334.08" y1="202.51" x2="330.63" y2="204.53"/>
            </g>
            <g>
              <path class="cls-2" d="M320.35,151.75h-4c0-57.76,46.82-104.58,104.58-104.58v4c-55.55,0-100.58,45.03-100.58,100.58Z"/>
              <line class="cls-2" x1="334.08" y1="100.98" x2="330.63" y2="98.96"/>
              <line class="cls-2" x1="370.17" y1="64.9" x2="368.15" y2="61.44"/>
            </g>
          </g>
          <path class="cls-2" d="M420.93,51.17v-4c57.76,0,104.59,46.82,104.59,104.58s-46.83,104.59-104.59,104.59-104.58-46.83-104.58-104.59,46.82-104.58,104.58-104.58v4c-55.55,0-100.58,45.03-100.58,100.58,0,55.55,45.03,100.59,100.58,100.59,55.55,0,100.59-45.04,100.59-100.59,0-55.55-45.04-100.58-100.59-100.58Z"/>
        </g>
        <path class="cls-1" d="M420.93,51.17v-4c57.76,0,104.59,46.82,104.59,104.58s-46.83,104.59-104.59,104.59-104.58-46.83-104.58-104.59,46.82-104.58,104.58-104.58v4c-55.55,0-100.58,45.03-100.58,100.58,0,55.55,45.03,100.59,100.58,100.59,55.55,0,100.59-45.04,100.59-100.59,0-55.55-45.04-100.58-100.59-100.58Z"/>
      </g>
      <g class="cls-3">
        <g class="cls-41">
          <g class="cls-3">
            <path class="cls-2" d="M420.93,47.17h0c57.76,0,104.59,46.82,104.59,104.58h0c0-57.76-46.83-104.58-104.59-104.58Z"/>
          </g>
          <path class="cls-2" d="M421.11,47.17c-.06,0-.12,0-.17,0h0c.06,0,.12,0,.17,0Z"/>
        </g>
        <path class="cls-1" d="M421.11,47.17c-.06,0-.12,0-.17,0h0c.06,0,.12,0,.17,0Z"/>
      </g>
      <g class="cls-3">
        <g class="cls-42">
          <g class="cls-3">
            <path class="cls-2" d="M420.93,47.17h0c57.76,0,104.59,46.82,104.59,104.58h0c0-57.76-46.83-104.58-104.59-104.58Z"/>
            <line class="cls-2" x1="473.72" y1="61.44" x2="473.72" y2="61.44"/>
            <line class="cls-2" x1="511.24" y1="98.96" x2="511.24" y2="98.96"/>
          </g>
          <path class="cls-2" d="M421.11,47.17h0c57.68.09,104.42,46.88,104.42,104.58h0c0-57.7-46.73-104.49-104.42-104.58Z"/>
        </g>
        <path class="cls-1" d="M421.11,47.17h0c57.68.09,104.42,46.88,104.42,104.58h0c0-57.7-46.73-104.49-104.42-104.58Z"/>
      </g>
      <g class="cls-3">
        <g class="cls-48">
          <g class="cls-3">
            <path class="cls-2" d="M525.52,151.75h0c0,57.76-46.83,104.59-104.59,104.59h0c57.76,0,104.59-46.83,104.59-104.59Z"/>
          </g>
          <path class="cls-2" d="M525.52,151.92c0-.06,0-.12,0-.17h0c0,.06,0,.12,0,.17Z"/>
        </g>
        <path class="cls-1" d="M525.52,151.92c0-.06,0-.12,0-.17h0c0,.06,0,.12,0,.17Z"/>
      </g>
      <g class="cls-3">
        <g class="cls-45">
          <g class="cls-3">
            <path class="cls-2" d="M525.52,151.75h0c0,57.76-46.83,104.59-104.59,104.59h0c57.76,0,104.59-46.83,104.59-104.59Z"/>
            <line class="cls-2" x1="511.24" y1="204.53" x2="511.24" y2="204.53"/>
            <line class="cls-2" x1="473.72" y1="242.05" x2="473.72" y2="242.05"/>
          </g>
          <path class="cls-2" d="M525.52,151.92c-.09,57.68-46.88,104.42-104.59,104.42h0c57.7,0,104.5-46.73,104.59-104.42t0,0Z"/>
        </g>
        <path class="cls-1" d="M525.52,151.92c-.09,57.68-46.88,104.42-104.59,104.42h0c57.7,0,104.5-46.73,104.59-104.42t0,0Z"/>
      </g>
      <g class="cls-3">
        <g class="cls-44">
          <g class="cls-3">
            <path class="cls-2" d="M420.93,256.33h0c-57.76,0-104.58-46.83-104.58-104.59h0c0,57.76,46.82,104.59,104.58,104.59Z"/>
          </g>
          <path class="cls-2" d="M420.76,256.33c.06,0,.12,0,.17,0h0c-.06,0-.12,0-.17,0Z"/>
        </g>
        <path class="cls-1" d="M420.76,256.33c.06,0,.12,0,.17,0h0c-.06,0-.12,0-.17,0Z"/>
      </g>
      <g class="cls-3">
        <g class="cls-47">
          <g class="cls-3">
            <path class="cls-2" d="M420.93,256.33h0c-57.76,0-104.58-46.83-104.58-104.59h0c0,57.76,46.82,104.59,104.58,104.59Z"/>
            <line class="cls-2" x1="368.15" y1="242.05" x2="368.15" y2="242.05"/>
            <line class="cls-2" x1="330.63" y1="204.53" x2="330.63" y2="204.53"/>
          </g>
          <path class="cls-2" d="M420.76,256.33c-57.68-.09-104.41-46.88-104.41-104.59h0c0,57.7,46.72,104.5,104.41,104.59h0Z"/>
        </g>
        <path class="cls-1" d="M420.76,256.33c-57.68-.09-104.41-46.88-104.41-104.59h0c0,57.7,46.72,104.5,104.41,104.59h0Z"/>
      </g>
      <g class="cls-3">
        <g class="cls-46">
          <g class="cls-3">
            <path class="cls-2" d="M316.35,151.75h0c0-57.76,46.82-104.58,104.58-104.58h0c-57.76,0-104.58,46.82-104.58,104.58Z"/>
          </g>
          <path class="cls-2" d="M316.35,151.57c0,.06,0,.12,0,.17h0c0-.06,0-.12,0-.17Z"/>
        </g>
        <path class="cls-1" d="M316.35,151.57c0,.06,0,.12,0,.17h0c0-.06,0-.12,0-.17Z"/>
      </g>
      <g class="cls-3">
        <g class="cls-9">
          <g class="cls-3">
            <path class="cls-2" d="M316.35,151.75h0c0-57.76,46.82-104.58,104.58-104.58h0c-57.76,0-104.58,46.82-104.58,104.58Z"/>
            <line class="cls-2" x1="330.63" y1="98.96" x2="330.63" y2="98.96"/>
            <line class="cls-2" x1="368.15" y1="61.44" x2="368.15" y2="61.44"/>
          </g>
          <path class="cls-2" d="M316.35,151.57h0c.09-57.68,46.88-104.41,104.58-104.41h0c-57.7,0-104.49,46.72-104.58,104.41Z"/>
        </g>
        <path class="cls-1" d="M316.35,151.57h0c.09-57.68,46.88-104.41,104.58-104.41h0c-57.7,0-104.49,46.72-104.58,104.41Z"/>
      </g>
      <g class="cls-3">
        <g class="cls-6">
          <g class="cls-3">
            <g>
              <path class="cls-2" d="M420.93,47.17v4c55.55,0,100.59,45.03,100.59,100.58h4c0-57.76-46.83-104.58-104.59-104.58Z"/>
              <line class="cls-2" x1="473.72" y1="61.44" x2="471.7" y2="64.9"/>
              <line class="cls-2" x1="511.24" y1="98.96" x2="507.79" y2="100.98"/>
            </g>
            <g>
              <path class="cls-2" d="M525.52,151.75h-4c0,55.55-45.04,100.59-100.59,100.59v4c57.76,0,104.59-46.83,104.59-104.59Z"/>
              <line class="cls-2" x1="511.24" y1="204.53" x2="507.79" y2="202.51"/>
              <line class="cls-2" x1="473.72" y1="242.05" x2="471.7" y2="238.6"/>
            </g>
            <g>
              <path class="cls-2" d="M420.93,256.33v-4c-55.55,0-100.58-45.04-100.58-100.59h-4c0,57.76,46.82,104.59,104.58,104.59Z"/>
              <line class="cls-2" x1="368.15" y1="242.05" x2="370.17" y2="238.6"/>
              <line class="cls-2" x1="330.63" y1="204.53" x2="334.08" y2="202.51"/>
            </g>
            <g>
              <path class="cls-2" d="M316.35,151.75h4c0-55.55,45.03-100.58,100.58-100.58v-4c-57.76,0-104.58,46.82-104.58,104.58Z"/>
              <line class="cls-2" x1="330.63" y1="98.96" x2="334.08" y2="100.98"/>
              <line class="cls-2" x1="368.15" y1="61.44" x2="370.17" y2="64.9"/>
            </g>
          </g>
          <path class="cls-2" d="M420.93,47.17c57.76,0,104.59,46.82,104.59,104.58s-46.83,104.59-104.59,104.59-104.58-46.83-104.58-104.59,46.82-104.58,104.58-104.58v4c-55.55,0-100.58,45.03-100.58,100.58,0,55.55,45.03,100.59,100.58,100.59,55.55,0,100.59-45.04,100.59-100.59,0-55.55-45.04-100.58-100.59-100.58v-4Z"/>
        </g>
        <path class="cls-1" d="M420.93,47.17c57.76,0,104.59,46.82,104.59,104.58s-46.83,104.59-104.59,104.59-104.58-46.83-104.58-104.59,46.82-104.58,104.58-104.58v4c-55.55,0-100.58,45.03-100.58,100.58,0,55.55,45.03,100.59,100.58,100.59,55.55,0,100.59-45.04,100.59-100.59,0-55.55-45.04-100.58-100.59-100.58v-4Z"/>
      </g>
    </g>
    <g class="cls-3">
      <g class="cls-3">
        <g class="cls-13">
          <path class="cls-2" d="M76.96,53.89c10.17,0,18.42,8.25,18.42,18.43,0,10.17-8.25,18.42-18.42,18.42-10.18,0-18.43-8.25-18.43-18.42,0-10.18,8.25-18.43,18.43-18.43Z"/>
        </g>
        <path class="cls-1" d="M76.96,53.89c10.17,0,18.42,8.25,18.42,18.43,0,10.17-8.25,18.42-18.42,18.42-10.18,0-18.43-8.25-18.43-18.42,0-10.18,8.25-18.43,18.43-18.43Z"/>
      </g>
      <g class="cls-3">
        <g class="cls-11">
          <path class="cls-2" d="M76.96,53.89c10.17,0,18.42,8.25,18.42,18.43,0,10.17-8.25,18.42-18.42,18.42-10.18,0-18.43-8.25-18.43-18.42,0-10.18,8.25-18.43,18.43-18.43Z"/>
        </g>
        <path class="cls-1" d="M76.96,53.89c10.17,0,18.42,8.25,18.42,18.43,0,10.17-8.25,18.42-18.42,18.42-10.18,0-18.43-8.25-18.43-18.42,0-10.18,8.25-18.43,18.43-18.43Z"/>
      </g>
      <g class="cls-3">
        <g class="cls-12">
          <g class="cls-3">
            <g>
              <path class="cls-2" d="M76.96,53.89v-2c11.28,0,20.42,9.14,20.42,20.43h-2c0-10.18-8.25-18.43-18.42-18.43Z"/>
              <line class="cls-2" x1="86.26" y1="56.41" x2="87.27" y2="54.68"/>
              <line class="cls-2" x1="92.87" y1="63.02" x2="94.6" y2="62.01"/>
            </g>
            <g>
              <path class="cls-2" d="M95.38,72.32h2c0,11.28-9.14,20.42-20.42,20.42v-2c10.17,0,18.42-8.25,18.42-18.42Z"/>
              <line class="cls-2" x1="92.87" y1="81.62" x2="94.6" y2="82.63"/>
              <line class="cls-2" x1="86.26" y1="88.23" x2="87.27" y2="89.95"/>
            </g>
            <g>
              <path class="cls-2" d="M76.96,90.74v2c-11.29,0-20.43-9.14-20.43-20.42h2c0,10.17,8.25,18.42,18.43,18.42Z"/>
              <line class="cls-2" x1="67.66" y1="88.23" x2="66.65" y2="89.95"/>
              <line class="cls-2" x1="61.05" y1="81.62" x2="59.32" y2="82.63"/>
            </g>
            <g>
              <path class="cls-2" d="M58.53,72.32h-2c0-11.29,9.14-20.43,20.43-20.43v2c-10.18,0-18.43,8.25-18.43,18.43Z"/>
              <line class="cls-2" x1="61.05" y1="63.02" x2="59.32" y2="62.01"/>
              <line class="cls-2" x1="67.66" y1="56.41" x2="66.65" y2="54.68"/>
            </g>
          </g>
          <path class="cls-2" d="M76.96,53.89v-2c11.28,0,20.42,9.14,20.42,20.43s-9.14,20.42-20.42,20.42-20.43-9.14-20.43-20.42,9.14-20.43,20.43-20.43v2c-10.18,0-18.43,8.25-18.43,18.43,0,10.17,8.25,18.42,18.43,18.42,10.17,0,18.42-8.25,18.42-18.42,0-10.18-8.25-18.43-18.42-18.43Z"/>
        </g>
        <path class="cls-1" d="M76.96,53.89v-2c11.28,0,20.42,9.14,20.42,20.43s-9.14,20.42-20.42,20.42-20.43-9.14-20.43-20.42,9.14-20.43,20.43-20.43v2c-10.18,0-18.43,8.25-18.43,18.43,0,10.17,8.25,18.42,18.43,18.42,10.17,0,18.42-8.25,18.42-18.42,0-10.18-8.25-18.43-18.42-18.43Z"/>
      </g>
      <g class="cls-3">
        <g class="cls-10">
          <g class="cls-3">
            <path class="cls-2" d="M76.96,51.89h0c11.28,0,20.42,9.14,20.42,20.43h0c0-11.29-9.14-20.43-20.42-20.43Z"/>
          </g>
          <path class="cls-2" d="M77,51.89s-.02,0-.03,0h0s.02,0,.03,0Z"/>
        </g>
        <path class="cls-1" d="M77,51.89s-.02,0-.03,0h0s.02,0,.03,0Z"/>
      </g>
      <g class="cls-3">
        <g class="cls-7">
          <g class="cls-3">
            <path class="cls-2" d="M76.96,51.89h0c11.28,0,20.42,9.14,20.42,20.43h0c0-11.29-9.14-20.43-20.42-20.43Z"/>
            <line class="cls-2" x1="87.27" y1="54.68" x2="87.27" y2="54.68"/>
            <line class="cls-2" x1="94.6" y1="62.01" x2="94.6" y2="62.01"/>
          </g>
          <path class="cls-2" d="M77,51.89h0c11.26.02,20.39,9.16,20.39,20.43h0c0-11.27-9.13-20.41-20.39-20.43Z"/>
        </g>
        <path class="cls-1" d="M77,51.89h0c11.26.02,20.39,9.16,20.39,20.43h0c0-11.27-9.13-20.41-20.39-20.43Z"/>
      </g>
      <g class="cls-3">
        <g class="cls-4">
          <g class="cls-3">
            <path class="cls-2" d="M97.38,72.32h0c0,11.28-9.14,20.42-20.42,20.42h0c11.28,0,20.42-9.14,20.42-20.42Z"/>
          </g>
          <path class="cls-2" d="M97.38,72.36s0-.02,0-.03h0s0,.02,0,.03Z"/>
        </g>
        <path class="cls-1" d="M97.38,72.36s0-.02,0-.03h0s0,.02,0,.03Z"/>
      </g>
      <g class="cls-3">
        <g class="cls-8">
          <g class="cls-3">
            <path class="cls-2" d="M97.38,72.32h0c0,11.28-9.14,20.42-20.42,20.42h0c11.28,0,20.42-9.14,20.42-20.42Z"/>
            <line class="cls-2" x1="94.6" y1="82.63" x2="94.6" y2="82.63"/>
            <line class="cls-2" x1="87.27" y1="89.95" x2="87.27" y2="89.95"/>
          </g>
          <path class="cls-2" d="M97.38,72.36c-.02,11.26-9.16,20.39-20.42,20.39h0c11.27,0,20.4-9.13,20.42-20.39t0,0Z"/>
        </g>
        <path class="cls-1" d="M97.38,72.36c-.02,11.26-9.16,20.39-20.42,20.39h0c11.27,0,20.4-9.13,20.42-20.39t0,0Z"/>
      </g>
      <g class="cls-3">
        <g class="cls-5">
          <g class="cls-3">
            <path class="cls-2" d="M76.96,92.74h0c-11.29,0-20.43-9.14-20.43-20.42h0c0,11.28,9.14,20.42,20.43,20.42Z"/>
          </g>
          <path class="cls-2" d="M76.93,92.74s.02,0,.03,0h0s-.02,0-.03,0Z"/>
        </g>
        <path class="cls-1" d="M76.93,92.74s.02,0,.03,0h0s-.02,0-.03,0Z"/>
      </g>
      <g class="cls-3">
        <g class="cls-28">
          <g class="cls-3">
            <path class="cls-2" d="M76.96,92.74h0c-11.29,0-20.43-9.14-20.43-20.42h0c0,11.28,9.14,20.42,20.43,20.42Z"/>
            <line class="cls-2" x1="66.65" y1="89.95" x2="66.65" y2="89.95"/>
            <line class="cls-2" x1="59.32" y1="82.63" x2="59.32" y2="82.63"/>
          </g>
          <path class="cls-2" d="M76.93,92.74c-11.27-.02-20.4-9.16-20.4-20.42h0c0,11.27,9.13,20.4,20.4,20.42t0,0Z"/>
        </g>
        <path class="cls-1" d="M76.93,92.74c-11.27-.02-20.4-9.16-20.4-20.42h0c0,11.27,9.13,20.4,20.4,20.42t0,0Z"/>
      </g>
      <g class="cls-3">
        <g class="cls-29">
          <g class="cls-3">
            <path class="cls-2" d="M56.53,72.32h0c0-11.29,9.14-20.43,20.43-20.43h0c-11.29,0-20.43,9.14-20.43,20.43Z"/>
          </g>
          <path class="cls-2" d="M56.53,72.29s0,.02,0,.03h0s0-.02,0-.03Z"/>
        </g>
        <path class="cls-1" d="M56.53,72.29s0,.02,0,.03h0s0-.02,0-.03Z"/>
      </g>
      <g class="cls-3">
        <g class="cls-30">
          <g class="cls-3">
            <path class="cls-2" d="M56.53,72.32h0c0-11.29,9.14-20.43,20.43-20.43h0c-11.29,0-20.43,9.14-20.43,20.43Z"/>
            <line class="cls-2" x1="59.32" y1="62.01" x2="59.32" y2="62.01"/>
            <line class="cls-2" x1="66.65" y1="54.68" x2="66.65" y2="54.68"/>
          </g>
          <path class="cls-2" d="M56.53,72.29h0c.02-11.27,9.16-20.4,20.43-20.4h0c-11.27,0-20.41,9.13-20.43,20.4Z"/>
        </g>
        <path class="cls-1" d="M56.53,72.29h0c.02-11.27,9.16-20.4,20.43-20.4h0c-11.27,0-20.41,9.13-20.43,20.4Z"/>
      </g>
      <g class="cls-3">
        <g class="cls-31">
          <g class="cls-3">
            <g>
              <path class="cls-2" d="M76.96,51.89v2c10.17,0,18.42,8.25,18.42,18.43h2c0-11.29-9.14-20.43-20.42-20.43Z"/>
              <line class="cls-2" x1="87.27" y1="54.68" x2="86.26" y2="56.41"/>
              <line class="cls-2" x1="94.6" y1="62.01" x2="92.87" y2="63.02"/>
            </g>
            <g>
              <path class="cls-2" d="M97.38,72.32h-2c0,10.17-8.25,18.42-18.42,18.42v2c11.28,0,20.42-9.14,20.42-20.42Z"/>
              <line class="cls-2" x1="94.6" y1="82.63" x2="92.87" y2="81.62"/>
              <line class="cls-2" x1="87.27" y1="89.95" x2="86.26" y2="88.23"/>
            </g>
            <g>
              <path class="cls-2" d="M76.96,92.74v-2c-10.18,0-18.43-8.25-18.43-18.42h-2c0,11.28,9.14,20.42,20.43,20.42Z"/>
              <line class="cls-2" x1="66.65" y1="89.95" x2="67.66" y2="88.23"/>
              <line class="cls-2" x1="59.32" y1="82.63" x2="61.05" y2="81.62"/>
            </g>
            <g>
              <path class="cls-2" d="M56.53,72.32h2c0-10.18,8.25-18.43,18.43-18.43v-2c-11.29,0-20.43,9.14-20.43,20.43Z"/>
              <line class="cls-2" x1="59.32" y1="62.01" x2="61.05" y2="63.02"/>
              <line class="cls-2" x1="66.65" y1="54.68" x2="67.66" y2="56.41"/>
            </g>
          </g>
          <path class="cls-2" d="M76.96,51.89c11.28,0,20.42,9.14,20.42,20.43s-9.14,20.42-20.42,20.42-20.43-9.14-20.43-20.42,9.14-20.43,20.43-20.43v2c-10.18,0-18.43,8.25-18.43,18.43,0,10.17,8.25,18.42,18.43,18.42,10.17,0,18.42-8.25,18.42-18.42,0-10.18-8.25-18.43-18.42-18.43v-2Z"/>
        </g>
        <path class="cls-1" d="M76.96,51.89c11.28,0,20.42,9.14,20.42,20.43s-9.14,20.42-20.42,20.42-20.43-9.14-20.43-20.42,9.14-20.43,20.43-20.43v2c-10.18,0-18.43,8.25-18.43,18.43,0,10.17,8.25,18.42,18.43,18.42,10.17,0,18.42-8.25,18.42-18.42,0-10.18-8.25-18.43-18.42-18.43v-2Z"/>
      </g>
    </g>
    <g class="cls-3">
      <g class="cls-3">
        <g class="cls-32">
          <polygon class="cls-2" points="584.02 .5 1.99 .5 .5 .5 .5 .5 3.5 .5 3.5 .5 582.51 .5 582.51 .5 585.52 .5 585.52 .5 584.02 .5"/>
        </g>
        <polygon class="cls-1" points="584.02 .5 1.99 .5 .5 .5 .5 .5 3.5 .5 3.5 .5 582.51 .5 582.51 .5 585.52 .5 585.52 .5 584.02 .5"/>
      </g>
      <g class="cls-3">
        <g class="cls-33">
          <polygon class="cls-2" points="584.02 301.5 1.99 301.5 .5 301.5 .5 301.5 3.5 301.5 3.5 301.5 582.51 301.5 582.51 301.5 585.52 301.5 585.52 301.5 584.02 301.5"/>
        </g>
        <polygon class="cls-1" points="584.02 301.5 1.99 301.5 .5 301.5 .5 301.5 3.5 301.5 3.5 301.5 582.51 301.5 582.51 301.5 585.52 301.5 585.52 301.5 584.02 301.5"/>
      </g>
      <g class="cls-3">
        <g class="cls-26">
          <rect class="cls-2" x="584.02" y=".5" width="1.5" height="301"/>
        </g>
        <rect class="cls-1" x="584.02" y=".5" width="1.5" height="301"/>
      </g>
      <g class="cls-3">
        <g class="cls-24">
          <rect class="cls-2" x="585.52" y=".5" width="0" height="301"/>
        </g>
        <rect class="cls-1" x="585.52" y=".5" width="0" height="301"/>
      </g>
      <g class="cls-3">
        <g class="cls-27">
          <rect class="cls-2" x="582.51" y=".5" width="3.01" height="301"/>
        </g>
        <rect class="cls-1" x="582.51" y=".5" width="3.01" height="301"/>
      </g>
      <g class="cls-3">
        <g class="cls-25">
          <rect class="cls-2" x="582.51" y=".5" width="0" height="301"/>
        </g>
        <rect class="cls-1" x="582.51" y=".5" width="0" height="301"/>
      </g>
      <g class="cls-3">
        <g class="cls-20">
          <rect class="cls-2" x="3.5" y=".5" width="579.01" height="301"/>
        </g>
        <rect class="cls-1" x="3.5" y=".5" width="579.01" height="301"/>
      </g>
      <g class="cls-3">
        <g class="cls-14">
          <rect class="cls-2" x="3.5" y=".5" width="0" height="301"/>
        </g>
        <rect class="cls-1" x="3.5" y=".5" width="0" height="301"/>
      </g>
      <g class="cls-3">
        <g class="cls-15">
          <rect class="cls-2" x=".5" y=".5" width="3" height="301"/>
        </g>
        <rect class="cls-1" x=".5" y=".5" width="3" height="301"/>
      </g>
      <g class="cls-3">
        <g class="cls-16">
          <rect class="cls-2" x=".5" y=".5" width="0" height="301"/>
        </g>
        <rect class="cls-1" x=".5" y=".5" width="0" height="301"/>
      </g>
      <g class="cls-3">
        <g class="cls-17">
          <rect class="cls-2" x=".5" y=".5" width="1.49" height="301"/>
        </g>
        <rect class="cls-1" x=".5" y=".5" width="1.49" height="301"/>
      </g>
      <g class="cls-3">
        <g class="cls-18">
          <rect class="cls-2" x="1.99" y=".5" width="582.02" height="301"/>
        </g>
        <rect class="cls-1" x="1.99" y=".5" width="582.02" height="301"/>
      </g>
    </g>
    <g class="cls-3">
      <g class="cls-3">
        <g class="cls-21">
          <path class="cls-2" d="M84.05,216.16h-13.98s-.2,0-.2,0h13.98s.2,0,.2,0ZM70.87,216.16h.19s11.98,0,11.98,0h-.19s-11.98,0-11.98,0"/>
        </g>
        <path class="cls-1" d="M84.05,216.16h-13.98s-.2,0-.2,0h13.98s.2,0,.2,0ZM70.87,216.16h.19s11.98,0,11.98,0h-.19s-11.98,0-11.98,0"/>
      </g>
      <g class="cls-3">
        <g class="cls-22">
          <path class="cls-2" d="M84.05,247.16h-13.98s-.2,0-.2,0h13.98s.2,0,.2,0ZM70.87,247.16h.19s11.98,0,11.98,0h-.19s-11.98,0-11.98,0"/>
        </g>
        <path class="cls-1" d="M84.05,247.16h-13.98s-.2,0-.2,0h13.98s.2,0,.2,0ZM70.87,247.16h.19s11.98,0,11.98,0h-.19s-11.98,0-11.98,0"/>
      </g>
      <g class="cls-3">
        <g class="cls-23">
          <rect class="cls-2" x="83.85" y="216.16" width=".2" height="31"/>
        </g>
        <rect class="cls-1" x="83.85" y="216.16" width=".2" height="31"/>
      </g>
      <g class="cls-3">
        <g class="cls-19">
          <rect class="cls-2" x="69.87" y="216.16" width="13.98" height="31"/>
        </g>
        <rect class="cls-1" x="69.87" y="216.16" width="13.98" height="31"/>
      </g>
      <g class="cls-3">
        <g class="cls-39">
          <rect class="cls-2" x="69.87" y="216.16" width=".2" height="31"/>
        </g>
        <rect class="cls-1" x="69.87" y="216.16" width=".2" height="31"/>
      </g>
      <g class="cls-3">
        <g class="cls-34">
          <rect class="cls-2" x="70.07" y="216.16" width="13.98" height="31"/>
        </g>
        <rect class="cls-1" x="70.07" y="216.16" width="13.98" height="31"/>
      </g>
      <g class="cls-3">
        <g class="cls-35">
          <rect class="cls-2" x="70.87" y="216.16" width="11.98" height="31"/>
        </g>
        <rect class="cls-1" x="70.87" y="216.16" width="11.98" height="31"/>
      </g>
      <g class="cls-3">
        <g class="cls-36">
          <rect class="cls-2" x="82.85" y="216.16" width=".19" height="31"/>
        </g>
        <rect class="cls-1" x="82.85" y="216.16" width=".19" height="31"/>
      </g>
      <g class="cls-3">
        <g class="cls-37">
          <rect class="cls-2" x="71.07" y="216.16" width="11.98" height="31"/>
        </g>
        <rect class="cls-1" x="71.07" y="216.16" width="11.98" height="31"/>
      </g>
      <g class="cls-3">
        <g class="cls-38">
          <rect class="cls-2" x="70.87" y="216.16" width=".19" height="31"/>
        </g>
        <rect class="cls-1" x="70.87" y="216.16" width=".19" height="31"/>
      </g>
    </g>
  </g>
</svg>