<?xml version="1.0" encoding="UTF-8"?>
<svg id="Layer_2" data-name="Layer 2" xmlns="http://www.w3.org/2000/svg" xmlns:xlink="http://www.w3.org/1999/xlink" viewBox="0 0 586.02 174.2">
  <defs>
    <style>
      .cls-1, .cls-2 {
        fill: none;
        stroke: #fff;
        stroke-miterlimit: 10;
      }

      .cls-3 {
        isolation: isolate;
      }

      .cls-4 {
        clip-path: url(#clippath-17);
      }

      .cls-5 {
        clip-path: url(#clippath-19);
      }

      .cls-6 {
        clip-path: url(#clippath-11);
      }

      .cls-7 {
        clip-path: url(#clippath-16);
      }

      .cls-8 {
        clip-path: url(#clippath-18);
      }

      .cls-9 {
        clip-path: url(#clippath-10);
      }

      .cls-10 {
        clip-path: url(#clippath-15);
      }

      .cls-11 {
        clip-path: url(#clippath-13);
      }

      .cls-12 {
        clip-path: url(#clippath-14);
      }

      .cls-13 {
        clip-path: url(#clippath-12);
      }

      .cls-14 {
        clip-path: url(#clippath-50);
      }

      .cls-15 {
        clip-path: url(#clippath-55);
      }

      .cls-16 {
        clip-path: url(#clippath-52);
      }

      .cls-17 {
        clip-path: url(#clippath-54);
      }

      .cls-18 {
        clip-path: url(#clippath-53);
      }

      .cls-19 {
        clip-path: url(#clippath-51);
      }

      .cls-20 {
        clip-path: url(#clippath-31);
      }

      .cls-21 {
        clip-path: url(#clippath-32);
      }

      .cls-22 {
        clip-path: url(#clippath-33);
      }

      .cls-23 {
        clip-path: url(#clippath-34);
      }

      .cls-24 {
        clip-path: url(#clippath-35);
      }

      .cls-25 {
        clip-path: url(#clippath-39);
      }

      .cls-26 {
        clip-path: url(#clippath-30);
      }

      .cls-27 {
        clip-path: url(#clippath-36);
      }

      .cls-28 {
        clip-path: url(#clippath-37);
      }

      .cls-29 {
        clip-path: url(#clippath-38);
      }

      .cls-30 {
        clip-path: url(#clippath-27);
      }

      .cls-31 {
        clip-path: url(#clippath-29);
      }

      .cls-32 {
        clip-path: url(#clippath-26);
      }

      .cls-33 {
        clip-path: url(#clippath-28);
      }

      .cls-34 {
        clip-path: url(#clippath-20);
      }

      .cls-35 {
        clip-path: url(#clippath-21);
      }

      .cls-36 {
        clip-path: url(#clippath-22);
      }

      .cls-37 {
        clip-path: url(#clippath-23);
      }

      .cls-38 {
        clip-path: url(#clippath-24);
      }

      .cls-39 {
        clip-path: url(#clippath-25);
      }

      .cls-40 {
        clip-path: url(#clippath-41);
      }

      .cls-41 {
        clip-path: url(#clippath-42);
      }

      .cls-42 {
        clip-path: url(#clippath-43);
      }

      .cls-43 {
        clip-path: url(#clippath-44);
      }

      .cls-44 {
        clip-path: url(#clippath-45);
      }

      .cls-45 {
        clip-path: url(#clippath-49);
      }

      .cls-46 {
        clip-path: url(#clippath-40);
      }

      .cls-47 {
        clip-path: url(#clippath-46);
      }

      .cls-48 {
        clip-path: url(#clippath-47);
      }

      .cls-49 {
        clip-path: url(#clippath-48);
      }

      .cls-50 {
        clip-path: url(#clippath-1);
      }

      .cls-51 {
        clip-path: url(#clippath-3);
      }

      .cls-52 {
        clip-path: url(#clippath-4);
      }

      .cls-53 {
        clip-path: url(#clippath-2);
      }

      .cls-54 {
        clip-path: url(#clippath-7);
      }

      .cls-55 {
        clip-path: url(#clippath-6);
      }

      .cls-56 {
        clip-path: url(#clippath-9);
      }

      .cls-57 {
        clip-path: url(#clippath-8);
      }

      .cls-58 {
        clip-path: url(#clippath-5);
      }

      .cls-2 {
        stroke-width: .25px;
      }

      .cls-59 {
        clip-path: url(#clippath);
      }
    </style>
    <clipPath id="clippath">
      <path class="cls-1" d="M397.59.5c-55.55,0-100.58,0-100.58,0,0,0,45.03,0,100.58,0,55.55,0,100.59,0,100.59,0,0,0-45.04,0-100.59,0Z"/>
    </clipPath>
    <clipPath id="clippath-1">
      <path class="cls-1" d="M397.59,37.5c-55.55,0-100.58,0-100.58,0,0,0,45.03,0,100.58,0,55.55,0,100.59,0,100.59,0,0,0-45.04,0-100.59,0Z"/>
    </clipPath>
    <clipPath id="clippath-2">
      <path class="cls-1" d="M397.59,37.5v-5.82c57.76,0,104.59,0,104.59,0l-4,5.82s-45.04,0-100.59,0Z"/>
    </clipPath>
    <clipPath id="clippath-3">
      <path class="cls-1" d="M498.18,37.5s-45.04,0-100.59,0c-55.55,0-100.58,0-100.58,0l-4-5.82s46.82,0,104.58,0,104.59,0,104.59,0c-1.2,1.75-2.8,4.07-4,5.82Z"/>
    </clipPath>
    <clipPath id="clippath-4">
      <path class="cls-1" d="M297.01,37.5l-4-5.82s46.82,0,104.58,0v5.82c-55.55,0-100.58,0-100.58,0Z"/>
    </clipPath>
    <clipPath id="clippath-5">
      <path class="cls-1" d="M397.59,31.68V6.32c57.76,0,104.59,0,104.59,0v25.36s-46.83,0-104.59,0Z"/>
    </clipPath>
    <clipPath id="clippath-6">
      <path class="cls-1" d="M502.18,31.68s-46.83,0-104.59,0-104.58,0-104.58,0V6.32s46.82,0,104.58,0,104.59,0,104.59,0v25.36Z"/>
    </clipPath>
    <clipPath id="clippath-7">
      <path class="cls-1" d="M293.01,31.68V6.32s46.82,0,104.58,0v25.36c-57.76,0-104.58,0-104.58,0Z"/>
    </clipPath>
    <clipPath id="clippath-8">
      <path class="cls-1" d="M397.59,6.32V.5c55.55,0,100.59,0,100.59,0l4,5.82s-46.83,0-104.59,0Z"/>
    </clipPath>
    <clipPath id="clippath-9">
      <path class="cls-1" d="M502.18,6.32s-46.83,0-104.59,0-104.58,0-104.58,0l4-5.82s45.03,0,100.58,0c55.55,0,100.59,0,100.59,0,1.2,1.75,2.8,4.07,4,5.82Z"/>
    </clipPath>
    <clipPath id="clippath-10">
      <path class="cls-1" d="M293.01,6.32l4-5.82s45.03,0,100.58,0v5.82c-57.76,0-104.58,0-104.58,0Z"/>
    </clipPath>
    <clipPath id="clippath-11">
      <path class="cls-1" d="M147.98,29.5c-10.18,0-18.43,0-18.43,0,0,0,8.25,0,18.43,0,10.17,0,18.42,0,18.42,0,0,0-8.25,0-18.42,0Z"/>
    </clipPath>
    <clipPath id="clippath-12">
      <path class="cls-1" d="M147.98,37.5c-10.18,0-18.43,0-18.43,0,0,0,8.25,0,18.43,0,10.17,0,18.42,0,18.42,0,0,0-8.25,0-18.42,0Z"/>
    </clipPath>
    <clipPath id="clippath-13">
      <path class="cls-1" d="M147.98,37.5v-1.26c11.28,0,20.42,0,20.42,0l-2,1.26s-8.25,0-18.42,0Z"/>
    </clipPath>
    <clipPath id="clippath-14">
      <path class="cls-1" d="M166.4,37.5s-8.25,0-18.42,0c-10.18,0-18.43,0-18.43,0l-2-1.26s9.14,0,20.43,0,20.42,0,20.42,0c-.6.38-1.4.88-2,1.26Z"/>
    </clipPath>
    <clipPath id="clippath-15">
      <path class="cls-1" d="M129.55,37.5l-2-1.26s9.14,0,20.43,0v1.26c-10.18,0-18.43,0-18.43,0Z"/>
    </clipPath>
    <clipPath id="clippath-16">
      <path class="cls-1" d="M147.98,36.24v-5.48c11.28,0,20.42,0,20.42,0v5.48s-9.14,0-20.42,0Z"/>
    </clipPath>
    <clipPath id="clippath-17">
      <path class="cls-1" d="M168.4,36.24s-9.14,0-20.42,0-20.43,0-20.43,0v-5.48s9.14,0,20.43,0,20.42,0,20.42,0c0,1.65,0,3.84,0,5.48Z"/>
    </clipPath>
    <clipPath id="clippath-18">
      <path class="cls-1" d="M127.55,36.24v-5.48s9.14,0,20.43,0v5.48c-11.29,0-20.43,0-20.43,0Z"/>
    </clipPath>
    <clipPath id="clippath-19">
      <path class="cls-1" d="M147.98,30.76v-1.26c10.17,0,18.42,0,18.42,0l2,1.26s-9.14,0-20.42,0Z"/>
    </clipPath>
    <clipPath id="clippath-20">
      <path class="cls-1" d="M168.4,30.76s-9.14,0-20.42,0-20.43,0-20.43,0l2-1.26s8.25,0,18.43,0c10.17,0,18.42,0,18.42,0,.6.38,1.4.88,2,1.26Z"/>
    </clipPath>
    <clipPath id="clippath-21">
      <path class="cls-1" d="M127.55,30.76l2-1.26s8.25,0,18.43,0v1.26c-11.29,0-20.43,0-20.43,0Z"/>
    </clipPath>
    <clipPath id="clippath-22">
      <polygon class="cls-1" points="2 39.18 584.02 39.18 585.52 40.68 585.52 172.2 582.52 172.2 582.52 42.18 3.51 42.18 3.51 172.2 .5 172.2 .5 40.68 2 39.18"/>
    </clipPath>
    <clipPath id="clippath-23">
      <polygon class="cls-1" points="2 39.18 584.02 39.18 585.52 40.68 585.52 172.2 582.52 172.2 582.52 42.18 3.51 42.18 3.51 172.2 .5 172.2 .5 40.68 2 39.18"/>
    </clipPath>
    <clipPath id="clippath-24">
      <rect class="cls-1" x=".19" y="39.93" width="2.13" height="0"/>
    </clipPath>
    <clipPath id="clippath-25">
      <rect class="cls-1" x=".5" y="40.68" width="0" height="131.52"/>
    </clipPath>
    <clipPath id="clippath-26">
      <rect class="cls-1" x=".5" y="172.2" width="3.01" height="0"/>
    </clipPath>
    <clipPath id="clippath-27">
      <rect class="cls-1" x="-61.5" y="107.19" width="130.01" height="0"/>
    </clipPath>
    <clipPath id="clippath-28">
      <rect class="cls-1" x="3.51" y="42.18" width="579.01" height="0"/>
    </clipPath>
    <clipPath id="clippath-29">
      <rect class="cls-1" x="582.52" y="42.18" width="0" height="130.01"/>
    </clipPath>
    <clipPath id="clippath-30">
      <rect class="cls-1" x="582.52" y="172.2" width="3" height="0"/>
    </clipPath>
    <clipPath id="clippath-31">
      <rect class="cls-1" x="519.76" y="106.44" width="131.52" height="0"/>
    </clipPath>
    <clipPath id="clippath-32">
      <rect class="cls-1" x="583.71" y="39.93" width="2.12" height="0"/>
    </clipPath>
    <clipPath id="clippath-33">
      <rect class="cls-1" x="2" y="39.18" width="582.02" height="0"/>
    </clipPath>
    <clipPath id="clippath-34">
      <polygon class="cls-1" points="3.43 114.59 6.43 114.59 6.43 170.7 579.58 170.7 579.58 114.59 582.57 114.59 582.57 172.2 581.07 173.7 4.93 173.7 3.43 172.2 3.43 114.59"/>
    </clipPath>
    <clipPath id="clippath-35">
      <polygon class="cls-1" points="3.43 114.59 6.43 114.59 6.43 170.7 579.58 170.7 579.58 114.59 582.57 114.59 582.57 172.2 581.07 173.7 4.93 173.7 3.43 172.2 3.43 114.59"/>
    </clipPath>
    <clipPath id="clippath-36">
      <rect class="cls-1" x="3.43" y="114.59" width="0" height="57.61"/>
    </clipPath>
    <clipPath id="clippath-37">
      <rect class="cls-1" x="4.18" y="171.89" width="0" height="2.12" transform="translate(-120.7 53.23) rotate(-44.82)"/>
    </clipPath>
    <clipPath id="clippath-38">
      <rect class="cls-1" x="4.93" y="173.7" width="576.14" height="0"/>
    </clipPath>
    <clipPath id="clippath-39">
      <rect class="cls-1" x="580.76" y="172.95" width="2.13" height="0" transform="translate(48.13 462.09) rotate(-45)"/>
    </clipPath>
    <clipPath id="clippath-40">
      <rect class="cls-1" x="553.77" y="143.39" width="57.61" height="0"/>
    </clipPath>
    <clipPath id="clippath-41">
      <rect class="cls-1" x="579.58" y="114.59" width="3" height="0"/>
    </clipPath>
    <clipPath id="clippath-42">
      <rect class="cls-1" x="579.58" y="114.59" width="0" height="56.12"/>
    </clipPath>
    <clipPath id="clippath-43">
      <rect class="cls-1" x="6.43" y="170.7" width="573.15" height="0"/>
    </clipPath>
    <clipPath id="clippath-44">
      <rect class="cls-1" x="-21.63" y="142.65" width="56.12" height="0"/>
    </clipPath>
    <clipPath id="clippath-45">
      <rect class="cls-1" x="3.43" y="114.59" width="3" height="0"/>
    </clipPath>
    <clipPath id="clippath-46">
      <path class="cls-1" d="M155.07,38.43h-13.98s-.2,0-.2,0h13.98s.2,0,.2,0ZM141.89,38.43h.19s11.98,0,11.98,0h-.19s-11.98,0-11.98,0"/>
    </clipPath>
    <clipPath id="clippath-47">
      <path class="cls-1" d="M155.07,69.43h-13.98s-.2,0-.2,0h13.98s.2,0,.2,0ZM141.89,69.43h.19s11.98,0,11.98,0h-.19s-11.98,0-11.98,0"/>
    </clipPath>
    <clipPath id="clippath-48">
      <rect class="cls-1" x="154.86" y="38.43" width=".2" height="31"/>
    </clipPath>
    <clipPath id="clippath-49">
      <rect class="cls-1" x="140.89" y="38.43" width="13.98" height="31"/>
    </clipPath>
    <clipPath id="clippath-50">
      <rect class="cls-1" x="140.89" y="38.43" width=".2" height="31"/>
    </clipPath>
    <clipPath id="clippath-51">
      <rect class="cls-1" x="141.09" y="38.43" width="13.98" height="31"/>
    </clipPath>
    <clipPath id="clippath-52">
      <rect class="cls-1" x="141.89" y="38.43" width="11.98" height="31"/>
    </clipPath>
    <clipPath id="clippath-53">
      <rect class="cls-1" x="153.87" y="38.43" width=".19" height="31"/>
    </clipPath>
    <clipPath id="clippath-54">
      <rect class="cls-1" x="142.08" y="38.43" width="11.98" height="31"/>
    </clipPath>
    <clipPath id="clippath-55">
      <rect class="cls-1" x="141.89" y="38.43" width=".19" height="31"/>
    </clipPath>
  </defs>
  <g id="Layer_1-2" data-name="Layer 1">
    <g class="cls-3">
      <g class="cls-3">
        <g class="cls-59">
          <path class="cls-2" d="M397.59.5c-55.55,0-100.58,0-100.58,0,0,0,45.03,0,100.58,0,55.55,0,100.59,0,100.59,0,0,0-45.04,0-100.59,0Z"/>
        </g>
        <path class="cls-1" d="M397.59.5c-55.55,0-100.58,0-100.58,0,0,0,45.03,0,100.58,0,55.55,0,100.59,0,100.59,0,0,0-45.04,0-100.59,0Z"/>
      </g>
      <g class="cls-3">
        <g class="cls-50">
          <path class="cls-2" d="M397.59,37.5c-55.55,0-100.58,0-100.58,0,0,0,45.03,0,100.58,0,55.55,0,100.59,0,100.59,0,0,0-45.04,0-100.59,0Z"/>
        </g>
        <path class="cls-1" d="M397.59,37.5c-55.55,0-100.58,0-100.58,0,0,0,45.03,0,100.58,0,55.55,0,100.59,0,100.59,0,0,0-45.04,0-100.59,0Z"/>
      </g>
      <g class="cls-3">
        <g class="cls-53">
          <g class="cls-3">
            <path class="cls-2" d="M397.59,37.5v-5.82c57.76,0,104.59,0,104.59,0l-4,5.82s-45.04,0-100.59,0Z"/>
            <line class="cls-2" x1="448.36" y1="37.5" x2="450.38" y2="31.68"/>
            <line class="cls-2" x1="484.44" y1="37.5" x2="487.9" y2="31.68"/>
          </g>
          <path class="cls-2" d="M397.59,37.5v-5.82c57.76,0,104.59,0,104.59,0l-4,5.82s-45.04,0-100.59,0Z"/>
        </g>
        <path class="cls-1" d="M397.59,37.5v-5.82c57.76,0,104.59,0,104.59,0l-4,5.82s-45.04,0-100.59,0Z"/>
      </g>
      <g class="cls-3">
        <g class="cls-51">
          <g class="cls-3">
            <g>
              <path class="cls-2" d="M498.18,37.5l4-5.82s-46.83,0-104.59,0v5.82c55.55,0,100.59,0,100.59,0Z"/>
              <line class="cls-2" x1="484.44" y1="37.5" x2="487.9" y2="31.68"/>
              <line class="cls-2" x1="448.36" y1="37.5" x2="450.38" y2="31.68"/>
            </g>
            <g>
              <path class="cls-2" d="M397.59,37.5v-5.82c-57.76,0-104.58,0-104.58,0l4,5.82s45.03,0,100.58,0Z"/>
              <line class="cls-2" x1="346.82" y1="37.5" x2="344.8" y2="31.68"/>
              <line class="cls-2" x1="310.74" y1="37.5" x2="307.29" y2="31.68"/>
            </g>
          </g>
          <path class="cls-2" d="M498.18,37.5s-45.04,0-100.59,0c-55.55,0-100.58,0-100.58,0l-4-5.82s46.82,0,104.58,0,104.59,0,104.59,0c-1.2,1.75-2.8,4.07-4,5.82Z"/>
        </g>
        <path class="cls-1" d="M498.18,37.5s-45.04,0-100.59,0c-55.55,0-100.58,0-100.58,0l-4-5.82s46.82,0,104.58,0,104.59,0,104.59,0c-1.2,1.75-2.8,4.07-4,5.82Z"/>
      </g>
      <g class="cls-3">
        <g class="cls-52">
          <g class="cls-3">
            <path class="cls-2" d="M297.01,37.5l-4-5.82s46.82,0,104.58,0v5.82c-55.55,0-100.58,0-100.58,0Z"/>
            <line class="cls-2" x1="310.74" y1="37.5" x2="307.29" y2="31.68"/>
            <line class="cls-2" x1="346.82" y1="37.5" x2="344.8" y2="31.68"/>
          </g>
          <path class="cls-2" d="M297.01,37.5l-4-5.82s46.82,0,104.58,0v5.82c-55.55,0-100.58,0-100.58,0Z"/>
        </g>
        <path class="cls-1" d="M297.01,37.5l-4-5.82s46.82,0,104.58,0v5.82c-55.55,0-100.58,0-100.58,0Z"/>
      </g>
      <g class="cls-3">
        <g class="cls-58">
          <g class="cls-3">
            <path class="cls-2" d="M397.59,31.68V6.32c57.76,0,104.59,0,104.59,0v25.36s-46.83,0-104.59,0Z"/>
            <line class="cls-2" x1="450.38" y1="31.68" x2="450.38" y2="6.32"/>
            <line class="cls-2" x1="487.9" y1="31.68" x2="487.9" y2="6.32"/>
          </g>
          <path class="cls-2" d="M397.59,31.68V6.32c57.76,0,104.59,0,104.59,0v25.36s-46.83,0-104.59,0Z"/>
        </g>
        <path class="cls-1" d="M397.59,31.68V6.32c57.76,0,104.59,0,104.59,0v25.36s-46.83,0-104.59,0Z"/>
      </g>
      <g class="cls-3">
        <g class="cls-55">
          <g class="cls-3">
            <g>
              <path class="cls-2" d="M502.18,31.68V6.32s-46.83,0-104.59,0v25.36c57.76,0,104.59,0,104.59,0Z"/>
              <line class="cls-2" x1="487.9" y1="31.68" x2="487.9" y2="6.32"/>
              <line class="cls-2" x1="450.38" y1="31.68" x2="450.38" y2="6.32"/>
            </g>
            <g>
              <path class="cls-2" d="M397.59,31.68V6.32c-57.76,0-104.58,0-104.58,0v25.36s46.82,0,104.58,0Z"/>
              <line class="cls-2" x1="344.8" y1="31.68" x2="344.8" y2="6.32"/>
              <line class="cls-2" x1="307.29" y1="31.68" x2="307.29" y2="6.32"/>
            </g>
          </g>
          <path class="cls-2" d="M502.18,31.68s-46.83,0-104.59,0-104.58,0-104.58,0V6.32s46.82,0,104.58,0,104.59,0,104.59,0v25.36Z"/>
        </g>
        <path class="cls-1" d="M502.18,31.68s-46.83,0-104.59,0-104.58,0-104.58,0V6.32s46.82,0,104.58,0,104.59,0,104.59,0v25.36Z"/>
      </g>
      <g class="cls-3">
        <g class="cls-54">
          <g class="cls-3">
            <path class="cls-2" d="M293.01,31.68V6.32s46.82,0,104.58,0v25.36c-57.76,0-104.58,0-104.58,0Z"/>
            <line class="cls-2" x1="307.29" y1="31.68" x2="307.29" y2="6.32"/>
            <line class="cls-2" x1="344.8" y1="31.68" x2="344.8" y2="6.32"/>
          </g>
          <path class="cls-2" d="M293.01,31.68V6.32s46.82,0,104.58,0v25.36c-57.76,0-104.58,0-104.58,0Z"/>
        </g>
        <path class="cls-1" d="M293.01,31.68V6.32s46.82,0,104.58,0v25.36c-57.76,0-104.58,0-104.58,0Z"/>
      </g>
      <g class="cls-3">
        <g class="cls-57">
          <g class="cls-3">
            <path class="cls-2" d="M397.59,6.32V.5c55.55,0,100.59,0,100.59,0l4,5.82s-46.83,0-104.59,0Z"/>
            <line class="cls-2" x1="450.38" y1="6.32" x2="448.36" y2=".5"/>
            <line class="cls-2" x1="487.9" y1="6.32" x2="484.44" y2=".5"/>
          </g>
          <path class="cls-2" d="M397.59,6.32V.5c55.55,0,100.59,0,100.59,0l4,5.82s-46.83,0-104.59,0Z"/>
        </g>
        <path class="cls-1" d="M397.59,6.32V.5c55.55,0,100.59,0,100.59,0l4,5.82s-46.83,0-104.59,0Z"/>
      </g>
      <g class="cls-3">
        <g class="cls-56">
          <g class="cls-3">
            <g>
              <path class="cls-2" d="M502.18,6.32l-4-5.82s-45.04,0-100.59,0v5.82c57.76,0,104.59,0,104.59,0Z"/>
              <line class="cls-2" x1="487.9" y1="6.32" x2="484.44" y2=".5"/>
              <line class="cls-2" x1="450.38" y1="6.32" x2="448.36" y2=".5"/>
            </g>
            <g>
              <path class="cls-2" d="M397.59,6.32V.5c-55.55,0-100.58,0-100.58,0l-4,5.82s46.82,0,104.58,0Z"/>
              <line class="cls-2" x1="344.8" y1="6.32" x2="346.82" y2=".5"/>
              <line class="cls-2" x1="307.29" y1="6.32" x2="310.74" y2=".5"/>
            </g>
          </g>
          <path class="cls-2" d="M502.18,6.32s-46.83,0-104.59,0-104.58,0-104.58,0l4-5.82s45.03,0,100.58,0c55.55,0,100.59,0,100.59,0,1.2,1.75,2.8,4.07,4,5.82Z"/>
        </g>
        <path class="cls-1" d="M502.18,6.32s-46.83,0-104.59,0-104.58,0-104.58,0l4-5.82s45.03,0,100.58,0c55.55,0,100.59,0,100.59,0,1.2,1.75,2.8,4.07,4,5.82Z"/>
      </g>
      <g class="cls-3">
        <g class="cls-9">
          <g class="cls-3">
            <path class="cls-2" d="M293.01,6.32l4-5.82s45.03,0,100.58,0v5.82c-57.76,0-104.58,0-104.58,0Z"/>
            <line class="cls-2" x1="307.29" y1="6.32" x2="310.74" y2=".5"/>
            <line class="cls-2" x1="344.8" y1="6.32" x2="346.82" y2=".5"/>
          </g>
          <path class="cls-2" d="M293.01,6.32l4-5.82s45.03,0,100.58,0v5.82c-57.76,0-104.58,0-104.58,0Z"/>
        </g>
        <path class="cls-1" d="M293.01,6.32l4-5.82s45.03,0,100.58,0v5.82c-57.76,0-104.58,0-104.58,0Z"/>
      </g>
    </g>
    <g class="cls-3">
      <g class="cls-3">
        <g class="cls-6">
          <path class="cls-2" d="M147.98,29.5c-10.18,0-18.43,0-18.43,0,0,0,8.25,0,18.43,0,10.17,0,18.42,0,18.42,0,0,0-8.25,0-18.42,0Z"/>
        </g>
        <path class="cls-1" d="M147.98,29.5c-10.18,0-18.43,0-18.43,0,0,0,8.25,0,18.43,0,10.17,0,18.42,0,18.42,0,0,0-8.25,0-18.42,0Z"/>
      </g>
      <g class="cls-3">
        <g class="cls-13">
          <path class="cls-2" d="M147.98,37.5c-10.18,0-18.43,0-18.43,0,0,0,8.25,0,18.43,0,10.17,0,18.42,0,18.42,0,0,0-8.25,0-18.42,0Z"/>
        </g>
        <path class="cls-1" d="M147.98,37.5c-10.18,0-18.43,0-18.43,0,0,0,8.25,0,18.43,0,10.17,0,18.42,0,18.42,0,0,0-8.25,0-18.42,0Z"/>
      </g>
      <g class="cls-3">
        <g class="cls-11">
          <g class="cls-3">
            <path class="cls-2" d="M147.98,37.5v-1.26c11.28,0,20.42,0,20.42,0l-2,1.26s-8.25,0-18.42,0Z"/>
            <line class="cls-2" x1="157.28" y1="37.5" x2="158.29" y2="36.24"/>
            <line class="cls-2" x1="163.89" y1="37.5" x2="165.62" y2="36.24"/>
          </g>
          <path class="cls-2" d="M147.98,37.5v-1.26c11.28,0,20.42,0,20.42,0l-2,1.26s-8.25,0-18.42,0Z"/>
        </g>
        <path class="cls-1" d="M147.98,37.5v-1.26c11.28,0,20.42,0,20.42,0l-2,1.26s-8.25,0-18.42,0Z"/>
      </g>
      <g class="cls-3">
        <g class="cls-12">
          <g class="cls-3">
            <g>
              <path class="cls-2" d="M166.4,37.5l2-1.26s-9.14,0-20.42,0v1.26c10.17,0,18.42,0,18.42,0Z"/>
              <line class="cls-2" x1="163.89" y1="37.5" x2="165.62" y2="36.24"/>
              <line class="cls-2" x1="157.28" y1="37.5" x2="158.29" y2="36.24"/>
            </g>
            <g>
              <path class="cls-2" d="M147.98,37.5v-1.26c-11.29,0-20.43,0-20.43,0l2,1.26s8.25,0,18.43,0Z"/>
              <line class="cls-2" x1="138.68" y1="37.5" x2="137.67" y2="36.24"/>
              <line class="cls-2" x1="132.07" y1="37.5" x2="130.34" y2="36.24"/>
            </g>
          </g>
          <path class="cls-2" d="M166.4,37.5s-8.25,0-18.42,0c-10.18,0-18.43,0-18.43,0l-2-1.26s9.14,0,20.43,0,20.42,0,20.42,0c-.6.38-1.4.88-2,1.26Z"/>
        </g>
        <path class="cls-1" d="M166.4,37.5s-8.25,0-18.42,0c-10.18,0-18.43,0-18.43,0l-2-1.26s9.14,0,20.43,0,20.42,0,20.42,0c-.6.38-1.4.88-2,1.26Z"/>
      </g>
      <g class="cls-3">
        <g class="cls-10">
          <g class="cls-3">
            <path class="cls-2" d="M129.55,37.5l-2-1.26s9.14,0,20.43,0v1.26c-10.18,0-18.43,0-18.43,0Z"/>
            <line class="cls-2" x1="132.07" y1="37.5" x2="130.34" y2="36.24"/>
            <line class="cls-2" x1="138.68" y1="37.5" x2="137.67" y2="36.24"/>
          </g>
          <path class="cls-2" d="M129.55,37.5l-2-1.26s9.14,0,20.43,0v1.26c-10.18,0-18.43,0-18.43,0Z"/>
        </g>
        <path class="cls-1" d="M129.55,37.5l-2-1.26s9.14,0,20.43,0v1.26c-10.18,0-18.43,0-18.43,0Z"/>
      </g>
      <g class="cls-3">
        <g class="cls-7">
          <g class="cls-3">
            <path class="cls-2" d="M147.98,36.24v-5.48c11.28,0,20.42,0,20.42,0v5.48s-9.14,0-20.42,0Z"/>
            <line class="cls-2" x1="158.29" y1="36.24" x2="158.29" y2="30.76"/>
            <line class="cls-2" x1="165.62" y1="36.24" x2="165.62" y2="30.76"/>
          </g>
          <path class="cls-2" d="M147.98,36.24v-5.48c11.28,0,20.42,0,20.42,0v5.48s-9.14,0-20.42,0Z"/>
        </g>
        <path class="cls-1" d="M147.98,36.24v-5.48c11.28,0,20.42,0,20.42,0v5.48s-9.14,0-20.42,0Z"/>
      </g>
      <g class="cls-3">
        <g class="cls-4">
          <g class="cls-3">
            <g>
              <path class="cls-2" d="M168.4,36.24v-5.48s-9.14,0-20.42,0v5.48c11.28,0,20.42,0,20.42,0Z"/>
              <line class="cls-2" x1="165.62" y1="36.24" x2="165.62" y2="30.76"/>
              <line class="cls-2" x1="158.29" y1="36.24" x2="158.29" y2="30.76"/>
            </g>
            <g>
              <path class="cls-2" d="M147.98,36.24v-5.48c-11.29,0-20.43,0-20.43,0v5.48s9.14,0,20.43,0Z"/>
              <line class="cls-2" x1="137.67" y1="36.24" x2="137.67" y2="30.76"/>
              <line class="cls-2" x1="130.34" y1="36.24" x2="130.34" y2="30.76"/>
            </g>
          </g>
          <path class="cls-2" d="M168.4,36.24s-9.14,0-20.42,0-20.43,0-20.43,0v-5.48s9.14,0,20.43,0,20.42,0,20.42,0c0,1.65,0,3.84,0,5.48Z"/>
        </g>
        <path class="cls-1" d="M168.4,36.24s-9.14,0-20.42,0-20.43,0-20.43,0v-5.48s9.14,0,20.43,0,20.42,0,20.42,0c0,1.65,0,3.84,0,5.48Z"/>
      </g>
      <g class="cls-3">
        <g class="cls-8">
          <g class="cls-3">
            <path class="cls-2" d="M127.55,36.24v-5.48s9.14,0,20.43,0v5.48c-11.29,0-20.43,0-20.43,0Z"/>
            <line class="cls-2" x1="130.34" y1="36.24" x2="130.34" y2="30.76"/>
            <line class="cls-2" x1="137.67" y1="36.24" x2="137.67" y2="30.76"/>
          </g>
          <path class="cls-2" d="M127.55,36.24v-5.48s9.14,0,20.43,0v5.48c-11.29,0-20.43,0-20.43,0Z"/>
        </g>
        <path class="cls-1" d="M127.55,36.24v-5.48s9.14,0,20.43,0v5.48c-11.29,0-20.43,0-20.43,0Z"/>
      </g>
      <g class="cls-3">
        <g class="cls-5">
          <g class="cls-3">
            <path class="cls-2" d="M147.98,30.76v-1.26c10.17,0,18.42,0,18.42,0l2,1.26s-9.14,0-20.42,0Z"/>
            <line class="cls-2" x1="158.29" y1="30.76" x2="157.28" y2="29.5"/>
            <line class="cls-2" x1="165.62" y1="30.76" x2="163.89" y2="29.5"/>
          </g>
          <path class="cls-2" d="M147.98,30.76v-1.26c10.17,0,18.42,0,18.42,0l2,1.26s-9.14,0-20.42,0Z"/>
        </g>
        <path class="cls-1" d="M147.98,30.76v-1.26c10.17,0,18.42,0,18.42,0l2,1.26s-9.14,0-20.42,0Z"/>
      </g>
      <g class="cls-3">
        <g class="cls-34">
          <g class="cls-3">
            <g>
              <path class="cls-2" d="M168.4,30.76l-2-1.26s-8.25,0-18.42,0v1.26c11.28,0,20.42,0,20.42,0Z"/>
              <line class="cls-2" x1="165.62" y1="30.76" x2="163.89" y2="29.5"/>
              <line class="cls-2" x1="158.29" y1="30.76" x2="157.28" y2="29.5"/>
            </g>
            <g>
              <path class="cls-2" d="M147.98,30.76v-1.26c-10.18,0-18.43,0-18.43,0l-2,1.26s9.14,0,20.43,0Z"/>
              <line class="cls-2" x1="137.67" y1="30.76" x2="138.68" y2="29.5"/>
              <line class="cls-2" x1="130.34" y1="30.76" x2="132.07" y2="29.5"/>
            </g>
          </g>
          <path class="cls-2" d="M168.4,30.76s-9.14,0-20.42,0-20.43,0-20.43,0l2-1.26s8.25,0,18.43,0c10.17,0,18.42,0,18.42,0,.6.38,1.4.88,2,1.26Z"/>
        </g>
        <path class="cls-1" d="M168.4,30.76s-9.14,0-20.42,0-20.43,0-20.43,0l2-1.26s8.25,0,18.43,0c10.17,0,18.42,0,18.42,0,.6.38,1.4.88,2,1.26Z"/>
      </g>
      <g class="cls-3">
        <g class="cls-35">
          <g class="cls-3">
            <path class="cls-2" d="M127.55,30.76l2-1.26s8.25,0,18.43,0v1.26c-11.29,0-20.43,0-20.43,0Z"/>
            <line class="cls-2" x1="130.34" y1="30.76" x2="132.07" y2="29.5"/>
            <line class="cls-2" x1="137.67" y1="30.76" x2="138.68" y2="29.5"/>
          </g>
          <path class="cls-2" d="M127.55,30.76l2-1.26s8.25,0,18.43,0v1.26c-11.29,0-20.43,0-20.43,0Z"/>
        </g>
        <path class="cls-1" d="M127.55,30.76l2-1.26s8.25,0,18.43,0v1.26c-11.29,0-20.43,0-20.43,0Z"/>
      </g>
    </g>
    <g class="cls-3">
      <g class="cls-3">
        <g class="cls-36">
          <polygon class="cls-2" points="2 39.18 584.02 39.18 585.52 40.68 585.52 172.2 582.52 172.2 582.52 42.18 3.51 42.18 3.51 172.2 .5 172.2 .5 40.68 2 39.18"/>
        </g>
        <polygon class="cls-1" points="2 39.18 584.02 39.18 585.52 40.68 585.52 172.2 582.52 172.2 582.52 42.18 3.51 42.18 3.51 172.2 .5 172.2 .5 40.68 2 39.18"/>
      </g>
      <g class="cls-3">
        <g class="cls-37">
          <polygon class="cls-2" points="2 39.18 584.02 39.18 585.52 40.68 585.52 172.2 582.52 172.2 582.52 42.18 3.51 42.18 3.51 172.2 .5 172.2 .5 40.68 2 39.18"/>
        </g>
        <polygon class="cls-1" points="2 39.18 584.02 39.18 585.52 40.68 585.52 172.2 582.52 172.2 582.52 42.18 3.51 42.18 3.51 172.2 .5 172.2 .5 40.68 2 39.18"/>
      </g>
      <g class="cls-3">
        <g class="cls-38">
          <rect class="cls-2" x=".19" y="39.93" width="2.13" height="0"/>
        </g>
        <rect class="cls-1" x=".19" y="39.93" width="2.13" height="0"/>
      </g>
      <g class="cls-3">
        <g class="cls-39">
          <rect class="cls-2" x=".5" y="40.68" width="0" height="131.52"/>
        </g>
        <rect class="cls-1" x=".5" y="40.68" width="0" height="131.52"/>
      </g>
      <g class="cls-3">
        <g class="cls-32">
          <rect class="cls-2" x=".5" y="172.2" width="3.01" height="0"/>
        </g>
        <rect class="cls-1" x=".5" y="172.2" width="3.01" height="0"/>
      </g>
      <g class="cls-3">
        <g class="cls-30">
          <rect class="cls-2" x="-61.5" y="107.19" width="130.01" height="0"/>
        </g>
        <rect class="cls-1" x="-61.5" y="107.19" width="130.01" height="0"/>
      </g>
      <g class="cls-3">
        <g class="cls-33">
          <rect class="cls-2" x="3.51" y="42.18" width="579.01" height="0"/>
        </g>
        <rect class="cls-1" x="3.51" y="42.18" width="579.01" height="0"/>
      </g>
      <g class="cls-3">
        <g class="cls-31">
          <rect class="cls-2" x="582.52" y="42.18" width="0" height="130.01"/>
        </g>
        <rect class="cls-1" x="582.52" y="42.18" width="0" height="130.01"/>
      </g>
      <g class="cls-3">
        <g class="cls-26">
          <rect class="cls-2" x="582.52" y="172.2" width="3" height="0"/>
        </g>
        <rect class="cls-1" x="582.52" y="172.2" width="3" height="0"/>
      </g>
      <g class="cls-3">
        <g class="cls-20">
          <rect class="cls-2" x="519.76" y="106.44" width="131.52" height="0"/>
        </g>
        <rect class="cls-1" x="519.76" y="106.44" width="131.52" height="0"/>
      </g>
      <g class="cls-3">
        <g class="cls-21">
          <rect class="cls-2" x="583.71" y="39.93" width="2.12" height="0"/>
        </g>
        <rect class="cls-1" x="583.71" y="39.93" width="2.12" height="0"/>
      </g>
      <g class="cls-3">
        <g class="cls-22">
          <rect class="cls-2" x="2" y="39.18" width="582.02" height="0"/>
        </g>
        <rect class="cls-1" x="2" y="39.18" width="582.02" height="0"/>
      </g>
    </g>
    <g class="cls-3">
      <g class="cls-3">
        <g class="cls-23">
          <polygon class="cls-2" points="3.43 114.59 6.43 114.59 6.43 170.7 579.58 170.7 579.58 114.59 582.57 114.59 582.57 172.2 581.07 173.7 4.93 173.7 3.43 172.2 3.43 114.59"/>
        </g>
        <polygon class="cls-1" points="3.43 114.59 6.43 114.59 6.43 170.7 579.58 170.7 579.58 114.59 582.57 114.59 582.57 172.2 581.07 173.7 4.93 173.7 3.43 172.2 3.43 114.59"/>
      </g>
      <g class="cls-3">
        <g class="cls-24">
          <polygon class="cls-2" points="3.43 114.59 6.43 114.59 6.43 170.7 579.58 170.7 579.58 114.59 582.57 114.59 582.57 172.2 581.07 173.7 4.93 173.7 3.43 172.2 3.43 114.59"/>
        </g>
        <polygon class="cls-1" points="3.43 114.59 6.43 114.59 6.43 170.7 579.58 170.7 579.58 114.59 582.57 114.59 582.57 172.2 581.07 173.7 4.93 173.7 3.43 172.2 3.43 114.59"/>
      </g>
      <g class="cls-3">
        <g class="cls-27">
          <rect class="cls-2" x="3.43" y="114.59" width="0" height="57.61"/>
        </g>
        <rect class="cls-1" x="3.43" y="114.59" width="0" height="57.61"/>
      </g>
      <g class="cls-3">
        <g class="cls-28">
          <rect class="cls-2" x="4.18" y="171.89" width="0" height="2.12" transform="translate(-120.7 53.23) rotate(-44.82)"/>
        </g>
        <rect class="cls-1" x="4.18" y="171.89" width="0" height="2.12" transform="translate(-120.7 53.23) rotate(-44.82)"/>
      </g>
      <g class="cls-3">
        <g class="cls-29">
          <rect class="cls-2" x="4.93" y="173.7" width="576.14" height="0"/>
        </g>
        <rect class="cls-1" x="4.93" y="173.7" width="576.14" height="0"/>
      </g>
      <g class="cls-3">
        <g class="cls-25">
          <rect class="cls-2" x="580.76" y="172.95" width="2.13" height="0" transform="translate(48.13 462.09) rotate(-45)"/>
        </g>
        <rect class="cls-1" x="580.76" y="172.95" width="2.13" height="0" transform="translate(48.13 462.09) rotate(-45)"/>
      </g>
      <g class="cls-3">
        <g class="cls-46">
          <rect class="cls-2" x="553.77" y="143.39" width="57.61" height="0"/>
        </g>
        <rect class="cls-1" x="553.77" y="143.39" width="57.61" height="0"/>
      </g>
      <g class="cls-3">
        <g class="cls-40">
          <rect class="cls-2" x="579.58" y="114.59" width="3" height="0"/>
        </g>
        <rect class="cls-1" x="579.58" y="114.59" width="3" height="0"/>
      </g>
      <g class="cls-3">
        <g class="cls-41">
          <rect class="cls-2" x="579.58" y="114.59" width="0" height="56.12"/>
        </g>
        <rect class="cls-1" x="579.58" y="114.59" width="0" height="56.12"/>
      </g>
      <g class="cls-3">
        <g class="cls-42">
          <rect class="cls-2" x="6.43" y="170.7" width="573.15" height="0"/>
        </g>
        <rect class="cls-1" x="6.43" y="170.7" width="573.15" height="0"/>
      </g>
      <g class="cls-3">
        <g class="cls-43">
          <rect class="cls-2" x="-21.63" y="142.65" width="56.12" height="0"/>
        </g>
        <rect class="cls-1" x="-21.63" y="142.65" width="56.12" height="0"/>
      </g>
      <g class="cls-3">
        <g class="cls-44">
          <rect class="cls-2" x="3.43" y="114.59" width="3" height="0"/>
        </g>
        <rect class="cls-1" x="3.43" y="114.59" width="3" height="0"/>
      </g>
    </g>
    <g class="cls-3">
      <g class="cls-3">
        <g class="cls-47">
          <path class="cls-2" d="M155.07,38.43h-13.98s-.2,0-.2,0h13.98s.2,0,.2,0ZM141.89,38.43h.19s11.98,0,11.98,0h-.19s-11.98,0-11.98,0"/>
        </g>
        <path class="cls-1" d="M155.07,38.43h-13.98s-.2,0-.2,0h13.98s.2,0,.2,0ZM141.89,38.43h.19s11.98,0,11.98,0h-.19s-11.98,0-11.98,0"/>
      </g>
      <g class="cls-3">
        <g class="cls-48">
          <path class="cls-2" d="M155.07,69.43h-13.98s-.2,0-.2,0h13.98s.2,0,.2,0ZM141.89,69.43h.19s11.98,0,11.98,0h-.19s-11.98,0-11.98,0"/>
        </g>
        <path class="cls-1" d="M155.07,69.43h-13.98s-.2,0-.2,0h13.98s.2,0,.2,0ZM141.89,69.43h.19s11.98,0,11.98,0h-.19s-11.98,0-11.98,0"/>
      </g>
      <g class="cls-3">
        <g class="cls-49">
          <rect class="cls-2" x="154.86" y="38.43" width=".2" height="31"/>
        </g>
        <rect class="cls-1" x="154.86" y="38.43" width=".2" height="31"/>
      </g>
      <g class="cls-3">
        <g class="cls-45">
          <rect class="cls-2" x="140.89" y="38.43" width="13.98" height="31"/>
        </g>
        <rect class="cls-1" x="140.89" y="38.43" width="13.98" height="31"/>
      </g>
      <g class="cls-3">
        <g class="cls-14">
          <rect class="cls-2" x="140.89" y="38.43" width=".2" height="31"/>
        </g>
        <rect class="cls-1" x="140.89" y="38.43" width=".2" height="31"/>
      </g>
      <g class="cls-3">
        <g class="cls-19">
          <rect class="cls-2" x="141.09" y="38.43" width="13.98" height="31"/>
        </g>
        <rect class="cls-1" x="141.09" y="38.43" width="13.98" height="31"/>
      </g>
      <g class="cls-3">
        <g class="cls-16">
          <rect class="cls-2" x="141.89" y="38.43" width="11.98" height="31"/>
        </g>
        <rect class="cls-1" x="141.89" y="38.43" width="11.98" height="31"/>
      </g>
      <g class="cls-3">
        <g class="cls-18">
          <rect class="cls-2" x="153.87" y="38.43" width=".19" height="31"/>
        </g>
        <rect class="cls-1" x="153.87" y="38.43" width=".19" height="31"/>
      </g>
      <g class="cls-3">
        <g class="cls-17">
          <rect class="cls-2" x="142.08" y="38.43" width="11.98" height="31"/>
        </g>
        <rect class="cls-1" x="142.08" y="38.43" width="11.98" height="31"/>
      </g>
      <g class="cls-3">
        <g class="cls-15">
          <rect class="cls-2" x="141.89" y="38.43" width=".19" height="31"/>
        </g>
        <rect class="cls-1" x="141.89" y="38.43" width=".19" height="31"/>
      </g>
    </g>
  </g>
</svg>